<?xml version="1.0" encoding="UTF-8"?>
<svg id="Ebene_1" data-name="Ebene 1" xmlns="http://www.w3.org/2000/svg" viewBox="0 0 327.49 89.68">
  <defs>
    <style>
      .cls-1 {
        fill: #ffed00;
      }

      .cls-2 {
        fill: #164194;
      }

      .cls-3 {
        fill: #52ae32;
      }
    </style>
  </defs>
  <g>
    <polyline class="cls-3" points="301.98 83.65 324.41 83.65 324.41 27.13 301.98 27.13 301.98 83.65"/>
    <polyline class="cls-2" points="261.01 83.65 298.38 83.65 298.38 27.15 261.01 27.15 261.01 83.65"/>
    <polyline class="cls-1" points="302.92 34.39 301.19 29.08 299.46 34.39 293.87 34.4 298.39 37.68 296.65 43.02 301.19 39.72 305.73 43.02 304 37.69 308.52 34.4 302.92 34.39"/>
    <polyline class="cls-1" points="312.31 48.9 310.58 43.59 308.85 48.9 303.26 48.91 307.77 52.2 306.03 57.53 310.58 54.23 315.12 57.53 313.38 52.2 317.91 48.91 312.31 48.9"/>
    <polyline class="cls-1" points="308.24 65.61 306.52 60.29 304.78 65.61 299.19 65.62 303.71 68.9 301.97 74.24 306.51 70.94 311.05 74.24 309.32 68.9 313.84 65.62 308.24 65.61"/>
    <polyline class="cls-1" points="289.91 73.08 288.18 67.77 286.44 73.08 280.85 73.09 285.37 76.37 283.63 81.71 288.18 78.41 292.72 81.71 290.98 76.37 295.51 73.09 289.91 73.08"/>
    <polyline class="cls-1" points="274.07 66.37 272.35 61.06 270.61 66.37 265.02 66.38 269.54 69.66 267.8 75 272.34 71.7 276.88 75 275.15 69.67 279.67 66.38 274.07 66.37"/>
    <path class="cls-2" d="m142.79,71.59v-.52h-4.1v-3.12h3.5v-.52h-3.5v-3.05h4.1v-.52h-4.69v7.73h4.69Zm5.62,0v-5.23h-.55v3.25c0,.99-.54,1.56-1.48,1.56s-1.44-.55-1.44-1.56v-3.25h-.55v3.34c0,.62.2,1.12.54,1.46.34.33.8.5,1.39.5.63,0,1.15-.23,1.54-.68v.62h.55Zm5.45-4.8c-.37-.37-.76-.5-1.26-.5-.62,0-1.23.27-1.53.76v-.69h-.55v5.23h.55v-3.22c0-.85.5-1.59,1.4-1.59.43,0,.67.1.99.42l.4-.4h0Zm4.62,2.18c0-.75-.1-1.55-.65-2.11-.37-.37-.87-.58-1.45-.58s-1.08.21-1.45.58c-.55.55-.65,1.36-.65,2.11s.1,1.55.65,2.11c.37.37.87.57,1.45.57s1.09-.21,1.45-.57c.55-.55.65-1.36.65-2.11m-.55,0c0,.61-.03,1.31-.47,1.75-.28.28-.66.44-1.09.44s-.8-.16-1.08-.44c-.44-.43-.47-1.14-.47-1.75s.03-1.32.47-1.75c.28-.28.66-.44,1.08-.44s.8.16,1.09.44c.43.43.47,1.14.47,1.75m6.41,0c0-.82-.14-1.69-.67-2.23-.27-.27-.74-.46-1.28-.46-.59,0-1.1.13-1.55.74v-.67h-.55v7.73h.55v-3.17c.46.61.97.74,1.55.74.54,0,1.01-.18,1.28-.46.53-.53.67-1.4.67-2.22m-.55,0c0,1.08-.2,2.19-1.48,2.19s-1.48-1.11-1.48-2.19.19-2.19,1.48-2.19,1.48,1.11,1.48,2.19m5.45-4.73h-.63v.84h.63v-.84h0Zm-2.26,0h-.63v.84h.63v-.84h0Zm2.79,7.35v-3.58c0-1.1-.65-1.71-2.03-1.71-.85,0-1.4.18-1.85.8l.4.35c.32-.48.71-.66,1.44-.66,1.06,0,1.48.44,1.48,1.28v.59h-1.69c-1.14,0-1.83.55-1.83,1.51,0,.39.14.77.38,1.02.34.35.77.48,1.54.48s1.15-.14,1.6-.58v.52h.55Zm-.55-1.82c0,.49-.1.81-.29,1-.37.36-.82.4-1.3.4-.94,0-1.37-.33-1.37-1.02s.43-1.05,1.33-1.05h1.63v.67h0Zm3.23-5.91h-.68v.68h.68v-.68h0Zm-.06,2.5h-.56v5.23h.56v-5.23h0Zm5.81,3.74c0-1.02-.66-1.29-1.53-1.37l-.85-.08c-.74-.07-1.06-.34-1.06-.88,0-.64.48-1.01,1.33-1.01.57,0,1.06.15,1.46.45l.37-.37c-.46-.35-1.12-.55-1.84-.55-1.14,0-1.88.59-1.88,1.49,0,.81.52,1.28,1.57,1.37l.87.07c.68.07,1,.34,1,.88,0,.71-.55,1.07-1.57,1.07-.75,0-1.3-.21-1.71-.64l-.38.38c.53.51,1.21.75,2.12.75,1.28,0,2.1-.6,2.1-1.55m5.38.75l-.38-.35c-.44.5-.79.66-1.35.66-.59,0-1.07-.24-1.39-.7-.26-.38-.36-.79-.36-1.5s.1-1.12.36-1.5c.32-.46.8-.7,1.39-.7.56,0,.9.16,1.35.66l.38-.35c-.57-.62-1.01-.8-1.73-.8-1.42,0-2.3,1.02-2.3,2.68s.88,2.68,2.3,2.68c.71,0,1.16-.18,1.73-.8m5.65.74v-3.34c0-1.21-.74-1.96-1.93-1.96-.63,0-1.15.23-1.54.68v-3.12h-.55v7.73h.55v-3.25c0-.99.54-1.57,1.47-1.57s1.45.56,1.45,1.57v3.25h.55Zm5.93-2.5v-.25c0-1.6-.79-2.55-2.1-2.55s-2.09,1-2.09,2.68.78,2.68,2.22,2.68c.87,0,1.36-.27,1.89-.8l-.41-.33c-.45.45-.83.63-1.44.63-1.11,0-1.7-.74-1.7-2.06h3.64Zm-.55-.45h-3.08c.02-.5.05-.66.18-.99.23-.54.76-.88,1.36-.88s1.13.34,1.36.88c.13.33.16.49.19.99m5.69-1.86c-.37-.37-.76-.5-1.26-.5-.62,0-1.23.27-1.53.76v-.69h-.56v5.23h.56v-3.22c0-.85.5-1.59,1.4-1.59.43,0,.67.1.99.42l.4-.4h0Zm8.7-2.41v-.52h-4.69v7.73h.58v-3.51h3.5v-.52h-3.5v-3.18h4.1Zm4.9,4.59c0-.75-.1-1.55-.65-2.11-.37-.37-.87-.58-1.46-.58s-1.08.21-1.46.58c-.55.55-.65,1.36-.65,2.11s.1,1.55.65,2.11c.37.37.87.57,1.46.57s1.09-.21,1.46-.57c.55-.55.65-1.36.65-2.11m-.55,0c0,.61-.03,1.31-.47,1.75-.28.28-.66.44-1.09.44s-.8-.16-1.08-.44c-.44-.43-.47-1.14-.47-1.75s.03-1.32.47-1.75c.28-.28.66-.44,1.08-.44s.8.16,1.09.44c.43.43.47,1.14.47,1.75m6.38,2.62v-3.34c0-.62-.2-1.12-.54-1.46-.33-.33-.8-.5-1.39-.5-.63,0-1.15.23-1.54.68v-.62h-.55v5.23h.55v-3.25c0-.99.54-1.57,1.48-1.57s1.45.56,1.45,1.57v3.25h.55Zm5.79,0v-7.73h-.55v3.17c-.45-.61-.96-.74-1.55-.74-.54,0-1.01.18-1.28.46-.53.53-.67,1.4-.67,2.23s.14,1.69.67,2.22c.27.27.74.46,1.28.46.59,0,1.1-.13,1.55-.74v.67h.55Zm-.55-2.62c0,1.08-.2,2.19-1.48,2.19s-1.47-1.11-1.47-2.19.19-2.19,1.47-2.19,1.48,1.11,1.48,2.19m6.36,1.13c0-1.02-.66-1.29-1.53-1.37l-.85-.08c-.74-.07-1.06-.34-1.06-.88,0-.64.48-1.01,1.34-1.01.57,0,1.06.15,1.46.45l.37-.37c-.45-.35-1.12-.55-1.83-.55-1.14,0-1.88.59-1.88,1.49,0,.81.52,1.28,1.58,1.37l.87.07c.68.07,1,.34,1,.88,0,.71-.55,1.07-1.58,1.07-.75,0-1.3-.21-1.72-.64l-.38.38c.53.51,1.21.75,2.12.75,1.28,0,2.09-.6,2.09-1.55m6.33-3.33v-.41h-1.18v-1.14c0-.54.25-.87.8-.87h.38v-.49h-.48c-.82,0-1.26.57-1.26,1.37v1.13h-.72v.41h.72v4.82h.55v-4.82h1.18Zm4.79-2.53h-.63v.84h.63v-.84h0Zm-2.26,0h-.63v.84h.63v-.84h0Zm2.83,7.35v-5.23h-.55v3.25c0,.99-.54,1.56-1.48,1.56s-1.44-.55-1.44-1.56v-3.25h-.55v3.34c0,.62.2,1.12.55,1.46.34.33.8.5,1.39.5.63,0,1.15-.23,1.54-.68v.62h.55Zm5.45-4.8c-.37-.37-.76-.5-1.26-.5-.62,0-1.23.27-1.53.76v-.69h-.55v5.23h.55v-3.22c0-.85.5-1.59,1.4-1.59.44,0,.67.1.99.42l.4-.4"/>
    <path class="cls-2" d="m141.3,78.85c-.37-.37-.76-.5-1.26-.5-.62,0-1.23.27-1.53.76v-.69h-.55v5.23h.55v-3.22c0-.85.5-1.58,1.4-1.58.43,0,.67.1.99.41l.4-.4h0Zm4.6,2.3v-.25c0-1.6-.79-2.55-2.09-2.55s-2.1,1-2.1,2.68.78,2.68,2.23,2.68c.87,0,1.36-.27,1.89-.8l-.41-.33c-.44.45-.83.63-1.44.63-1.11,0-1.7-.74-1.7-2.06h3.64Zm-.55-.45h-3.08c.02-.5.05-.66.18-.99.23-.54.76-.88,1.36-.88s1.13.33,1.36.88c.13.33.16.49.18.99m6.1,3.24v-5.53h-.55v.67c-.46-.61-.97-.74-1.55-.74-.54,0-1.01.18-1.28.46-.53.53-.67,1.4-.67,2.22s.14,1.69.67,2.22c.27.28.74.46,1.28.46.59,0,1.1-.13,1.55-.74v.93c0,1.03-.49,1.81-1.59,1.81-.66,0-.94-.21-1.36-.57l-.37.37c.55.49.94.7,1.73.7,1.36,0,2.14-.96,2.14-2.27m-.55-2.91c0,1.09-.2,2.19-1.48,2.19s-1.48-1.11-1.48-2.19.2-2.19,1.48-2.19,1.48,1.11,1.48,2.19m3.28-5.12h-.68v.69h.68v-.69h0Zm-.06,2.5h-.55v5.23h.55v-5.23h0Zm6.02,2.62c0-.75-.1-1.55-.65-2.11-.37-.37-.87-.57-1.45-.57s-1.09.21-1.46.57c-.55.55-.65,1.36-.65,2.11s.1,1.55.65,2.11c.37.37.87.57,1.46.57s1.08-.21,1.45-.57c.55-.55.65-1.36.65-2.11m-.55,0c0,.61-.03,1.31-.47,1.75-.28.28-.66.45-1.08.45s-.8-.16-1.09-.45c-.43-.43-.47-1.14-.47-1.75s.03-1.31.47-1.75c.28-.28.66-.44,1.09-.44s.8.16,1.08.44c.44.43.47,1.14.47,1.75m6.38,2.62v-3.34c0-.62-.2-1.12-.54-1.45-.34-.33-.81-.5-1.39-.5-.63,0-1.15.23-1.54.68v-.62h-.56v5.23h.56v-3.25c0-.99.54-1.56,1.47-1.56s1.45.55,1.45,1.56v3.25h.55Zm5.67,0v-3.58c0-1.1-.65-1.71-2.03-1.71-.85,0-1.4.18-1.84.8l.4.35c.33-.48.71-.66,1.44-.66,1.07,0,1.48.44,1.48,1.28v.59h-1.69c-1.14,0-1.82.55-1.82,1.51,0,.39.14.77.38,1.02.33.35.77.48,1.54.48s1.15-.14,1.59-.58v.52h.55Zm-.55-1.82c0,.49-.1.81-.29,1-.37.36-.83.4-1.3.4-.95,0-1.37-.32-1.37-1.02s.43-1.05,1.33-1.05h1.63v.67h0Zm4.33,1.82v-.49h-.38c-.62,0-.8-.29-.8-.88v-6.36h-.55v6.38c0,.81.41,1.36,1.26,1.36h.48Zm5.02-2.5v-.25c0-1.6-.79-2.55-2.1-2.55s-2.09,1-2.09,2.68.78,2.68,2.22,2.68c.87,0,1.36-.27,1.89-.8l-.41-.33c-.44.45-.83.63-1.44.63-1.11,0-1.7-.74-1.7-2.06h3.64Zm-.55-.45h-3.08c.02-.5.05-.66.19-.99.23-.54.76-.88,1.36-.88s1.13.33,1.36.88c.13.33.16.49.19.99m9.94,2.94v-.52h-4.11v-3.12h3.5v-.52h-3.5v-3.05h4.11v-.52h-4.69v7.73h4.69Zm5.69,0v-3.34c0-.62-.2-1.12-.54-1.45-.34-.33-.8-.5-1.39-.5-.63,0-1.15.23-1.54.68v-.62h-.55v5.23h.55v-3.25c0-.99.54-1.56,1.48-1.56s1.45.55,1.45,1.56v3.25h.55Zm3.91,0v-.49h-.38c-.56,0-.8-.33-.8-.87v-3.46h1.18v-.41h-1.18v-1.67h-.55v1.67h-.72v.41h.72v3.45c0,.79.44,1.37,1.26,1.37h.48Zm8.19-5.23h-.61l-1.33,4.58-1.5-4.58h-.54l-1.5,4.58-1.34-4.58h-.61l1.67,5.23h.56l1.48-4.36,1.48,4.36h.57l1.67-5.23h0Zm1.82-2.5h-.68v.69h.68v-.69h0Zm-.06,2.5h-.55v5.23h.55v-5.23h0Zm5.83,4.49l-.38-.35c-.45.5-.79.66-1.35.66-.59,0-1.08-.24-1.39-.7-.26-.38-.36-.79-.36-1.5s.1-1.12.36-1.5c.31-.46.8-.69,1.39-.69.55,0,.9.16,1.35.66l.38-.35c-.56-.62-1.01-.8-1.73-.8-1.42,0-2.3,1.02-2.3,2.68s.88,2.68,2.3,2.68c.71,0,1.16-.18,1.73-.8m5.86.74l-2.11-3.28,1.73-1.96h-.71l-2.59,2.95v-5.45h-.56v7.73h.56v-1.5l1.19-1.38,1.8,2.88h.68Zm3.2,0v-.49h-.38c-.62,0-.8-.29-.8-.88v-6.36h-.55v6.38c0,.81.41,1.36,1.26,1.36h.48Zm5.36,0v-5.23h-.55v3.25c0,.99-.54,1.56-1.48,1.56s-1.44-.55-1.44-1.56v-3.25h-.55v3.34c0,.62.19,1.12.54,1.46.34.33.8.5,1.39.5.63,0,1.15-.23,1.54-.68v.62h.55Zm6.13,0v-3.34c0-.62-.2-1.12-.54-1.45-.33-.33-.8-.5-1.39-.5-.63,0-1.15.23-1.54.68v-.62h-.56v5.23h.56v-3.25c0-.99.54-1.56,1.48-1.56s1.44.55,1.44,1.56v3.25h.55Zm5.8.29v-5.53h-.55v.67c-.46-.61-.97-.74-1.55-.74-.54,0-1.01.18-1.28.46-.53.53-.67,1.4-.67,2.22s.14,1.69.67,2.22c.27.28.74.46,1.28.46.59,0,1.1-.13,1.55-.74v.93c0,1.03-.49,1.81-1.59,1.81-.66,0-.94-.21-1.35-.57l-.37.37c.56.49.95.7,1.73.7,1.36,0,2.14-.96,2.14-2.27m-.55-2.91c0,1.09-.2,2.19-1.48,2.19s-1.48-1.11-1.48-2.19.2-2.19,1.48-2.19,1.48,1.11,1.48,2.19"/>
    <path class="cls-2" d="m159.9,37.93h-17.51v-6.37h21.93v-4.42h-26.35v26.35h26.35v-4.42h-21.93v-6.77h17.51v-4.38h0Zm12.14,15.56v-11.18h17.51v-4.38h-17.51v-6.37h21.93v-4.42h-26.35v26.35h4.42Zm29.25-21.93h15.32c1.24,0,2.19.96,2.19,2.19v1.95c0,1.27-.95,2.23-2.19,2.23h-15.32v-6.37h0Zm21.93,4.14v-1.95c0-3.66-2.95-6.61-6.61-6.61h-19.74v26.35h4.42v-11.18h15.32c1.24,0,2.19.95,2.19,2.23v8.96h4.42v-8.96c0-1.71-.64-3.22-1.63-4.42.99-1.19,1.63-2.71,1.63-4.42m26.34,2.23h-17.52v-6.37h21.93v-4.42h-26.35v26.35h26.35v-4.42h-21.93v-6.77h17.52v-4.38"/>
    <polyline class="cls-2" points="137.48 16.33 137.48 3.58 145.22 3.58 145.22 4.44 138.45 4.44 138.45 9.47 144.22 9.47 144.22 10.33 138.45 10.33 138.45 15.47 145.22 15.47 145.22 16.33 137.48 16.33"/>
    <path class="cls-2" d="m153.59,16.33v-1.02c-.65.75-1.51,1.13-2.54,1.13-.97,0-1.74-.29-2.29-.82-.57-.55-.9-1.38-.9-2.4v-5.52h.91v5.36c0,1.67.84,2.58,2.38,2.58s2.44-.95,2.44-2.58v-5.36h.91v8.63h-.91"/>
    <path class="cls-2" d="m162.83,9.07c-.52-.52-.91-.68-1.63-.68-1.49,0-2.31,1.22-2.31,2.61v5.32h-.91V7.7h.91v1.15c.5-.81,1.5-1.25,2.53-1.25.82,0,1.47.21,2.08.82l-.66.66"/>
    <path class="cls-2" d="m169.44,9.13c-.47-.47-1.09-.73-1.79-.73s-1.33.27-1.79.73c-.72.72-.77,1.88-.77,2.88s.05,2.17.77,2.88c.47.47,1.09.73,1.79.73s1.33-.27,1.79-.73c.71-.72.77-1.88.77-2.88s-.05-2.17-.77-2.88h0Zm.61,6.36c-.61.61-1.43.95-2.4.95s-1.79-.34-2.4-.95c-.91-.91-1.08-2.24-1.08-3.47s.16-2.56,1.08-3.48c.61-.61,1.43-.95,2.4-.95s1.79.34,2.4.95c.91.91,1.08,2.24,1.08,3.48s-.16,2.56-1.08,3.47"/>
    <path class="cls-2" d="m177.45,8.39c-2.12,0-2.44,1.83-2.44,3.62s.32,3.62,2.44,3.62,2.43-1.83,2.43-3.62-.32-3.62-2.43-3.62h0Zm2.24,7.29c-.45.45-1.22.75-2.11.75-.97,0-1.81-.21-2.56-1.22v5.23h-.92V7.7h.92v1.11c.75-1,1.59-1.22,2.56-1.22.89,0,1.66.3,2.11.75.88.88,1.11,2.31,1.11,3.67s-.23,2.79-1.11,3.67"/>
    <path class="cls-2" d="m188.84,12.21h-2.69c-1.49,0-2.2.59-2.2,1.74s.7,1.68,2.26,1.68c.79,0,1.54-.07,2.15-.66.32-.3.49-.84.49-1.65v-1.11h0Zm0,4.12v-.86c-.74.73-1.42.97-2.64.97s-1.99-.21-2.54-.79c-.39-.41-.63-1.04-.63-1.68,0-1.58,1.13-2.49,3.01-2.49h2.8v-.97c0-1.38-.68-2.11-2.44-2.11-1.22,0-1.85.3-2.38,1.09l-.66-.57c.73-1.02,1.65-1.32,3.05-1.32,2.27,0,3.35,1.02,3.35,2.83v5.91h-.91"/>
    <path class="cls-2" d="m198.91,8.38v7.95h-.91v-7.95h-1.18v-.68h1.18v-1.86c0-1.31.72-2.26,2.08-2.26h.79v.81h-.63c-.91,0-1.32.54-1.32,1.43v1.88h1.95v.68h-1.95"/>
    <path class="cls-2" d="m207.48,5.58v-1.38h1.04v1.38h-1.04Zm-3.72,0v-1.38h1.04v1.38h-1.04Zm4.17,3.55c-.47-.47-1.09-.73-1.79-.73s-1.33.27-1.79.73c-.71.72-.77,1.88-.77,2.88s.06,2.17.77,2.88c.47.47,1.09.73,1.79.73s1.32-.27,1.79-.73c.72-.72.77-1.88.77-2.88s-.05-2.17-.77-2.88h0Zm.61,6.36c-.61.61-1.43.95-2.4.95s-1.79-.34-2.4-.95c-.91-.91-1.07-2.24-1.07-3.47s.16-2.56,1.07-3.48c.61-.61,1.43-.95,2.4-.95s1.79.34,2.4.95c.91.91,1.08,2.24,1.08,3.48s-.16,2.56-1.08,3.47"/>
    <path class="cls-2" d="m217.44,9.07c-.52-.52-.91-.68-1.63-.68-1.49,0-2.31,1.22-2.31,2.61v5.32h-.92V7.7h.92v1.15c.5-.81,1.5-1.25,2.53-1.25.82,0,1.47.21,2.08.82l-.66.66"/>
    <path class="cls-2" d="m222.14,8.39c-2.12,0-2.44,1.83-2.44,3.62s.32,3.62,2.44,3.62,2.44-1.83,2.44-3.62-.32-3.62-2.44-3.62h0Zm2.44,7.94v-1.11c-.75,1-1.59,1.22-2.56,1.22-.9,0-1.67-.31-2.11-.75-.88-.88-1.11-2.31-1.11-3.67s.23-2.8,1.11-3.67c.45-.45,1.22-.75,2.11-.75.97,0,1.81.21,2.56,1.22V3.58h.91v12.75h-.91"/>
    <path class="cls-2" d="m234.16,9.85c-.38-.9-1.25-1.45-2.24-1.45s-1.86.56-2.24,1.45c-.21.54-.27.81-.3,1.63h5.08c-.04-.82-.09-1.09-.3-1.63h0Zm-4.78,2.36c0,2.19.99,3.4,2.81,3.4,1.02,0,1.65-.3,2.38-1.04l.68.54c-.88.88-1.68,1.33-3.12,1.33-2.38,0-3.67-1.54-3.67-4.42s1.29-4.42,3.45-4.42,3.46,1.58,3.46,4.21v.41h-6"/>
    <path class="cls-2" d="m243.18,9.07c-.52-.52-.91-.68-1.63-.68-1.49,0-2.31,1.22-2.31,2.61v5.32h-.91V7.7h.91v1.15c.5-.81,1.5-1.25,2.53-1.25.83,0,1.47.21,2.08.82l-.67.66"/>
    <path class="cls-2" d="m247.95,16.33c-1.36,0-2.08-.95-2.08-2.26v-5.7h-1.18v-.68h1.18v-2.76h.92v2.76h1.95v.68h-1.95v5.71c0,.89.41,1.43,1.33,1.43h.62v.81h-.79"/>
    <path class="cls-2" d="m259.47,16.44c-1.9,0-3.08-.52-4.25-1.68l.68-.68c1.15,1.15,2.08,1.5,3.62,1.5,2.01,0,3.28-.97,3.28-2.63,0-.75-.23-1.38-.7-1.79-.47-.39-.81-.52-1.85-.68l-1.49-.23c-.96-.14-1.74-.47-2.27-.93-.68-.57-1-1.36-1-2.35,0-2.13,1.52-3.49,3.96-3.49,1.58,0,2.58.43,3.67,1.38l-.63.63c-.79-.7-1.58-1.18-3.1-1.18-1.85,0-2.96,1.02-2.96,2.63,0,.73.22,1.29.66,1.67.45.37,1.18.68,1.9.79l1.38.22c1.2.18,1.74.39,2.27.84.7.57,1.11,1.45,1.11,2.47,0,2.15-1.65,3.53-4.3,3.53"/>
    <path class="cls-2" d="m271.63,12.21h-2.69c-1.49,0-2.2.59-2.2,1.74s.7,1.68,2.26,1.68c.79,0,1.54-.07,2.15-.66.32-.3.48-.84.48-1.65v-1.11h0Zm0,4.12v-.86c-.74.73-1.42.97-2.63.97s-1.99-.21-2.54-.79c-.39-.41-.63-1.04-.63-1.68,0-1.58,1.13-2.49,3.01-2.49h2.79v-.97c0-1.38-.68-2.11-2.44-2.11-1.22,0-1.85.3-2.38,1.09l-.66-.57c.74-1.02,1.65-1.32,3.04-1.32,2.28,0,3.35,1.02,3.35,2.83v5.91h-.91"/>
    <path class="cls-2" d="m279.24,16.44c-2.35,0-3.8-1.68-3.8-4.42s1.45-4.42,3.8-4.42c1.18,0,1.92.3,2.85,1.32l-.63.57c-.73-.82-1.31-1.09-2.22-1.09-.97,0-1.77.39-2.29,1.15-.43.63-.59,1.31-.59,2.47s.16,1.84.59,2.47c.52.75,1.33,1.15,2.29,1.15.91,0,1.49-.27,2.22-1.09l.63.57c-.93,1.02-1.67,1.33-2.85,1.33"/>
    <path class="cls-2" d="m290.51,16.33v-5.36c0-1.67-.84-2.58-2.38-2.58s-2.44.95-2.44,2.58v5.36h-.91V3.58h.91v5.14c.65-.75,1.5-1.13,2.54-1.13,1.97,0,3.19,1.24,3.19,3.22v5.52h-.91"/>
    <path class="cls-2" d="m297.45,16.44c-1.51,0-2.62-.39-3.49-1.24l.62-.63c.68.72,1.6,1.06,2.83,1.06,1.68,0,2.6-.59,2.6-1.76,0-.89-.52-1.34-1.65-1.45l-1.43-.13c-1.74-.14-2.6-.91-2.6-2.26,0-1.49,1.22-2.45,3.1-2.45,1.18,0,2.28.34,3.03.91l-.61.61c-.66-.48-1.47-.73-2.42-.73-1.42,0-2.2.61-2.2,1.67,0,.89.54,1.34,1.76,1.45l1.4.13c1.43.12,2.53.57,2.53,2.26,0,1.58-1.34,2.56-3.46,2.56"/>
    <path class="cls-2" d="m308.84,9.85c-.38-.9-1.25-1.45-2.24-1.45s-1.86.56-2.24,1.45c-.21.54-.27.81-.3,1.63h5.09c-.04-.82-.09-1.09-.3-1.63h0Zm-4.79,2.36c0,2.19.99,3.4,2.81,3.4,1.02,0,1.65-.3,2.38-1.04l.68.54c-.88.88-1.69,1.33-3.12,1.33-2.38,0-3.67-1.54-3.67-4.42s1.29-4.42,3.46-4.42,3.46,1.58,3.46,4.21v.41h-6"/>
    <path class="cls-2" d="m318.74,16.33v-5.36c0-1.67-.84-2.58-2.38-2.58s-2.44.95-2.44,2.58v5.36h-.91V7.7h.91v1.02c.65-.75,1.5-1.13,2.54-1.13.97,0,1.74.29,2.29.82.57.56.9,1.38.9,2.4v5.52h-.92"/>
    <polyline class="cls-2" points="322.99 16.33 322.99 15 324.31 15 324.31 16.33 322.99 16.33"/>
    <polygon class="cls-2" points="3.09 3.47 100.26 3.47 100.26 69.13 3.09 69.13 3.09 3.47 3.09 3.47"/>
    <polygon class="cls-1" points="49.6 17.77 51.65 16.26 53.7 17.77 52.92 15.32 55 13.81 52.44 13.81 51.65 11.32 50.87 13.81 48.3 13.81 50.38 15.32 49.6 17.77 49.6 17.77"/>
    <polygon class="cls-1" points="38.99 20.66 41.04 19.15 43.09 20.66 42.31 18.21 44.39 16.7 41.83 16.7 41.04 14.21 40.25 16.7 37.69 16.7 39.77 18.21 38.99 20.66 38.99 20.66"/>
    <polygon class="cls-1" points="33.28 22.1 32.49 24.58 29.93 24.58 32.01 26.1 31.23 28.55 33.28 27.03 35.33 28.55 34.55 26.1 36.63 24.58 34.06 24.58 33.28 22.1 33.28 22.1"/>
    <polygon class="cls-1" points="30.43 37.78 32.48 39.29 31.7 36.84 33.78 35.32 31.21 35.32 30.43 32.84 29.64 35.33 27.08 35.32 29.16 36.84 28.38 39.29 30.43 37.78 30.43 37.78"/>
    <polygon class="cls-1" points="34.06 46.1 33.28 43.61 32.49 46.1 29.93 46.1 32.01 47.61 31.23 50.07 33.28 48.55 35.33 50.07 34.55 47.61 36.63 46.1 34.06 46.1 34.06 46.1"/>
    <polygon class="cls-1" points="41.84 53.98 41.06 51.5 40.27 53.98 37.7 53.98 39.79 55.5 39.01 57.95 41.06 56.43 43.11 57.95 42.33 55.5 44.41 53.98 41.84 53.98 41.84 53.98"/>
    <polygon class="cls-1" points="52.44 56.84 51.65 54.35 50.87 56.84 48.3 56.84 50.38 58.35 49.6 60.81 51.65 59.29 53.7 60.81 52.92 58.35 55.01 56.84 52.44 56.84 52.44 56.84"/>
    <polygon class="cls-1" points="63.04 53.98 62.25 51.5 61.46 53.98 58.9 53.98 60.98 55.5 60.2 57.95 62.25 56.43 64.3 57.95 63.52 55.5 65.6 53.98 63.04 53.98 63.04 53.98"/>
    <polygon class="cls-1" points="70.82 46.1 70.03 43.61 69.24 46.1 66.68 46.1 68.76 47.61 67.98 50.07 70.03 48.55 72.08 50.07 71.3 47.61 73.38 46.1 70.82 46.1 70.82 46.1"/>
    <polygon class="cls-1" points="76.2 35.29 73.63 35.29 72.85 32.81 72.06 35.3 69.49 35.29 71.58 36.81 70.8 39.26 72.85 37.74 74.9 39.26 74.12 36.81 76.2 35.29 76.2 35.29"/>
    <polygon class="cls-1" points="67.98 28.52 70.03 27 72.08 28.52 71.3 26.07 73.38 24.55 70.82 24.55 70.03 22.07 69.24 24.55 66.68 24.55 68.76 26.07 67.98 28.52 67.98 28.52"/>
    <polygon class="cls-1" points="62.28 14.21 61.5 16.7 58.93 16.7 61.01 18.21 60.23 20.67 62.28 19.15 64.33 20.67 63.55 18.21 65.63 16.7 63.06 16.7 62.28 14.21 62.28 14.21"/>
  </g>
  <g>
    <path class="cls-2" d="m3.11,83.64v-8.1h5.85v.96h-4.78v2.48h4.48v.95h-4.48v2.76h4.97v.95H3.11Z"/>
    <path class="cls-2" d="m14.54,83.64v-.86c-.46.66-1.08.99-1.86.99-.35,0-.67-.07-.97-.2-.3-.13-.52-.3-.67-.5-.15-.2-.25-.45-.31-.74-.04-.2-.06-.5-.06-.93v-3.64h.99v3.25c0,.52.02.87.06,1.05.06.26.19.47.4.62s.45.22.75.22.58-.08.84-.23c.26-.15.45-.36.55-.62.11-.26.16-.65.16-1.15v-3.14h.99v5.87h-.89Z"/>
    <path class="cls-2" d="m17.22,83.64v-5.87h.89v.89c.23-.42.44-.69.63-.82.19-.13.41-.2.64-.2.34,0,.68.11,1.02.32l-.34.92c-.24-.14-.49-.22-.73-.22-.22,0-.41.07-.59.2-.17.13-.3.31-.37.54-.11.35-.17.74-.17,1.16v3.07h-.99Z"/>
    <path class="cls-2" d="m20.82,80.7c0-1.09.3-1.89.91-2.41.5-.43,1.12-.65,1.84-.65.81,0,1.47.26,1.98.79s.77,1.26.77,2.19c0,.75-.11,1.35-.34,1.78-.23.43-.56.77-.99,1.01s-.9.36-1.42.36c-.82,0-1.48-.26-1.99-.79s-.76-1.28-.76-2.28Zm1.02,0c0,.75.16,1.31.49,1.69.33.37.74.56,1.24.56s.9-.19,1.23-.56.49-.95.49-1.72c0-.73-.16-1.28-.49-1.65-.33-.37-.74-.56-1.23-.56s-.91.19-1.24.56c-.33.37-.49.93-.49,1.68Z"/>
    <path class="cls-2" d="m27.68,85.88v-8.11h.91v.76c.21-.3.45-.52.72-.67.27-.15.59-.22.98-.22.5,0,.94.13,1.33.39.38.26.67.62.87,1.09.2.47.29.98.29,1.54,0,.6-.11,1.14-.32,1.62-.22.48-.53.85-.94,1.1-.41.26-.84.38-1.3.38-.33,0-.63-.07-.89-.21-.26-.14-.48-.32-.65-.53v2.86h-.99Zm.9-5.15c0,.75.15,1.31.46,1.67.31.36.68.54,1.11.54s.82-.19,1.14-.56c.31-.37.47-.95.47-1.74s-.15-1.31-.46-1.68c-.31-.37-.67-.56-1.1-.56s-.8.2-1.12.59c-.33.4-.49.97-.49,1.73Z"/>
    <path class="cls-2" d="m37.99,82.91c-.37.31-.72.53-1.06.66s-.71.19-1.1.19c-.64,0-1.14-.16-1.49-.47-.35-.31-.52-.72-.52-1.21,0-.29.07-.55.2-.79s.3-.43.51-.57c.21-.14.45-.25.72-.33.19-.05.49-.1.88-.15.8-.1,1.39-.21,1.77-.34,0-.14,0-.22,0-.26,0-.41-.09-.69-.28-.86-.25-.22-.63-.34-1.13-.34-.47,0-.81.08-1.04.25-.22.16-.39.45-.49.87l-.97-.13c.09-.42.23-.75.44-1.01s.5-.45.88-.59c.38-.14.83-.21,1.33-.21s.91.06,1.22.18c.31.12.54.27.69.44s.25.4.31.68c.03.17.05.48.05.92v1.33c0,.92.02,1.51.06,1.75.04.24.13.48.25.7h-1.04c-.1-.21-.17-.45-.2-.72Zm-.08-2.22c-.36.15-.9.27-1.62.38-.41.06-.7.12-.87.2-.17.07-.3.18-.39.32s-.14.3-.14.47c0,.26.1.49.3.66.2.18.49.26.88.26s.72-.08,1.02-.25.52-.4.66-.69c.11-.22.16-.56.16-.99v-.36Zm-2.93-4.07v-1.13h1.04v1.13h-1.04Zm2.06,0v-1.13h1.04v1.13h-1.04Z"/>
    <path class="cls-2" d="m40.65,76.68v-1.14h.99v1.14h-.99Zm0,6.95v-5.87h.99v5.87h-.99Z"/>
    <path class="cls-2" d="m42.95,81.89l.98-.15c.06.39.21.7.46.91.25.21.6.32,1.06.32s.8-.09,1.02-.28c.22-.19.33-.4.33-.65,0-.22-.1-.4-.29-.53-.14-.09-.48-.2-1.02-.34-.73-.18-1.23-.34-1.52-.48-.28-.13-.5-.32-.64-.56-.15-.24-.22-.5-.22-.79,0-.26.06-.5.18-.73s.28-.41.49-.56c.15-.11.37-.21.63-.29s.55-.12.86-.12c.46,0,.86.07,1.21.2.35.13.6.31.77.54s.28.53.34.91l-.97.13c-.04-.3-.17-.54-.38-.71-.21-.17-.51-.25-.9-.25-.46,0-.78.08-.98.23s-.29.33-.29.53c0,.13.04.24.12.35.08.11.21.2.38.26.1.04.39.12.88.25.7.19,1.19.34,1.47.46.28.12.5.29.65.52.16.23.24.51.24.85s-.1.64-.29.94c-.19.29-.47.52-.84.68s-.78.24-1.24.24c-.76,0-1.34-.16-1.74-.48-.4-.32-.65-.79-.77-1.41Z"/>
    <path class="cls-2" d="m53.03,81.49l.98.13c-.11.67-.38,1.2-.82,1.58-.44.38-.98.57-1.62.57-.8,0-1.45-.26-1.94-.79-.49-.53-.73-1.28-.73-2.26,0-.63.1-1.19.31-1.66.21-.47.53-.83.96-1.07s.9-.36,1.4-.36c.64,0,1.16.16,1.56.48.41.32.66.78.78,1.37l-.97.15c-.09-.39-.25-.69-.49-.89-.23-.2-.52-.3-.85-.3-.5,0-.91.18-1.22.54-.31.36-.47.93-.47,1.7s.15,1.36.45,1.72c.3.36.7.54,1.18.54.39,0,.72-.12.98-.36.26-.24.43-.61.5-1.1Z"/>
    <path class="cls-2" d="m55.05,83.64v-8.1h.99v2.91c.46-.54,1.05-.81,1.76-.81.43,0,.81.09,1.13.26.32.17.55.41.69.71.14.3.21.74.21,1.32v3.72h-.99v-3.72c0-.5-.11-.86-.32-1.09-.22-.23-.52-.34-.91-.34-.29,0-.57.08-.83.23s-.44.36-.55.62-.17.62-.17,1.08v3.21h-.99Z"/>
    <path class="cls-2" d="m65.55,81.75l1.03.13c-.16.6-.46,1.07-.9,1.4-.44.33-1,.5-1.68.5-.86,0-1.54-.26-2.04-.79s-.75-1.27-.75-2.22.25-1.75.76-2.3c.51-.55,1.17-.82,1.98-.82s1.42.27,1.92.8.75,1.29.75,2.25c0,.06,0,.15,0,.26h-4.37c.04.64.22,1.14.55,1.48.33.34.74.51,1.23.51.36,0,.68-.1.93-.29s.46-.5.61-.92Zm-3.26-1.61h3.27c-.04-.49-.17-.86-.38-1.11-.32-.38-.73-.57-1.23-.57-.46,0-.84.15-1.15.46-.31.31-.48.71-.52,1.23Z"/>
    <path class="cls-2" d="m76.79,75.54h1.07v4.68c0,.81-.09,1.46-.28,1.94s-.52.87-1,1.17c-.48.3-1.11.45-1.89.45s-1.38-.13-1.86-.39c-.48-.26-.83-.64-1.03-1.14-.21-.5-.31-1.17-.31-2.03v-4.68h1.07v4.67c0,.7.06,1.22.2,1.56.13.33.36.59.67.77.32.18.71.27,1.17.27.79,0,1.35-.18,1.68-.54.34-.36.5-1.04.5-2.06v-4.67Z"/>
    <path class="cls-2" d="m79.71,83.64v-5.87h.89v.83c.43-.64,1.05-.97,1.87-.97.35,0,.68.06.98.19.3.13.52.29.67.5.15.21.25.45.31.73.04.18.06.51.06.97v3.61h-.99v-3.57c0-.41-.04-.71-.12-.91-.08-.2-.21-.36-.41-.48-.2-.12-.43-.18-.69-.18-.42,0-.79.13-1.1.4s-.46.78-.46,1.53v3.2h-.99Z"/>
    <path class="cls-2" d="m86.2,76.68v-1.14h.99v1.14h-.99Zm0,6.95v-5.87h.99v5.87h-.99Z"/>
    <path class="cls-2" d="m88.53,80.7c0-1.09.3-1.89.91-2.41.5-.43,1.12-.65,1.85-.65.81,0,1.46.26,1.98.79.51.53.77,1.26.77,2.19,0,.75-.11,1.35-.34,1.78-.23.43-.56.77-.99,1.01-.43.24-.9.36-1.42.36-.82,0-1.48-.26-1.99-.79-.51-.53-.76-1.28-.76-2.28Zm1.02,0c0,.75.16,1.31.49,1.69s.74.56,1.24.56.9-.19,1.23-.56c.33-.38.49-.95.49-1.72,0-.73-.16-1.28-.49-1.65s-.74-.56-1.23-.56-.91.19-1.24.56-.49.93-.49,1.68Z"/>
    <path class="cls-2" d="m95.38,83.64v-5.87h.89v.83c.43-.64,1.05-.97,1.87-.97.35,0,.68.06.98.19s.52.29.67.5c.15.21.25.45.31.73.04.18.06.51.06.97v3.61h-.99v-3.57c0-.41-.04-.71-.12-.91s-.21-.36-.41-.48c-.2-.12-.43-.18-.69-.18-.42,0-.79.13-1.1.4s-.46.78-.46,1.53v3.2h-.99Z"/>
  </g>
</svg>