<?xml version="1.0" encoding="utf-8"?>
<!-- Generator: Adobe Illustrator 27.5.0, SVG Export Plug-In . SVG Version: 6.00 Build 0)  -->
<svg version="1.1" xmlns="http://www.w3.org/2000/svg" xmlns:xlink="http://www.w3.org/1999/xlink" x="0px" y="0px"
	 viewBox="0 0 925.2 854.6" enable-background="new 0 0 925.2 854.6" xml:space="preserve">
<g id="Bäume">
</g>
<g id="Städte">
	<g id="Stadt-4">
	</g>
	<g id="Stadt-3">
	</g>
	<g id="Stadt-2">
	</g>
	<g id="Stadt-1">
	</g>
	<g id="Stadt-5">
	</g>
</g>
<g id="Wir-suchen">
</g>
<g id="Grafiken">
</g>
<g id="Logos">
	<path fill="#99D100" d="M908.3,384.5L539.5,15.6c-20.1-20.1-52.8-20.1-72.9,0L97.7,384.5c-16.1,16.1-19.3,40.4-9.6,59.7h59.8
		l-18.5-18.5c-2.6-2.6-2.6-6.9,0-9.5L498.2,47.4c1.3-1.3,3-2,4.7-2c1.7,0,3.4,0.7,4.7,2l368.8,368.8c2.6,2.6,2.6,6.9,0,9.5l-186,186
		v63.5l217.8-217.8C928.4,437.3,928.4,404.6,908.3,384.5z"/>
	<rect x="1.2" y="644.2" fill="#020233" width="664.2" height="209"/>
	<path fill="#020233" d="M83.8,500.9c0-6.7,5.3-12.7,12.1-12.7c7.2,0,12.5,5.6,12.5,12.7c0,6.9-5.1,12.9-12.5,12.9
		C88.9,513.8,83.8,507.6,83.8,500.9z M85.6,610.8v-86.4h21v86.4H85.6z"/>
	<path fill="#020233" d="M314.3,611.2c0-40.9-0.2-81.7-0.2-122.6h39.1c7.5,0,14.9,0,22.2,1.1c28.6,4.2,53.1,28.2,53.1,57.9
		c0,34-22.6,59.1-56.4,62.8c-8.2,0.9-16.4,0.9-24.4,0.9H314.3z M337,500.4v98.4c5.1,0.5,10.2,0.5,15.3,0.5c8.2,0,17.8,0,25.5-2.9
		c21.1-7.8,26-24.7,26-45.3c0-22.2-10.7-43.7-33.7-49.1c-6.4-1.5-12.9-1.6-19.5-1.6H337z"/>
	<path fill="#99D100" d="M257.9,820c-36.7,0-65-22.3-65-60.6c0-36.5,28.9-62.6,64.9-62.6c35.8,0,64.3,25,64.3,61.8
		C322.1,796.3,294.6,820,257.9,820z M298.5,758.7c0-25.9-11.7-50.5-40.8-50.5c-29.2,0-41.3,25.7-41.3,51.4c0,24.8,14,49.4,41.3,49.4
		C285.2,809.1,298.5,783.2,298.5,758.7z"/>
	<path fill="#99D100" d="M626.1,783.2l6,9.4c-6.4,7.1-20.4,18.9-28,22.1c-7.6,3.2-16.3,4.8-26,4.8c-10.7,0-20.8-2.9-30.2-8.6
		c-9.4-5.7-17-13.3-22.6-22.8c-5.6-9.5-8.4-19.6-8.4-30.4c0-11.6,2.8-22,8.3-31.3c5.5-9.3,13.1-16.5,22.7-21.7
		c9.6-5.2,20.3-7.8,32.1-7.8c18,0,33.3,7.1,46,21.3l-71.8,70.6c16.6,18.6,47.6,15.5,65.9,1.7C621.9,789.1,623.9,786.9,626.1,783.2z
		 M543,779l61.3-58.3c-4.1-3.6-32.8-26.2-59.4-2.3C518.7,741.8,536.2,771.6,543,779z"/>
	<path fill="#99D100" d="M192.9,811v10L35.6,821c12.2-12.3,24.3-24.6,36-36.7c18.2-18.5,77.4-78.2,95.3-95.9H58.3l0-9.9
		c28.3,0,80.3,0,108.7,0c8.7,0,17.6,0.1,26.2,0.1v25.8c-11.5,11.4-63.6,64.4-74.3,75.3c-15.7,15.2-16.7,16.3-31.5,31.8L192.9,811z"
		/>
	<path fill="#020233" d="M274.9,488.6h10.5l0.2,146.4c-12.9-12.8-26.6-25.5-39.2-37.8c-19.4-19.1-82-81.2-100.6-100v114h-10.4
		c0-29.7,0.2-84.3,0.2-114c0-9.2,0.1-18.5,0.1-27.5h23.5c12,12.1,67.5,66.7,78.9,77.9c16,16.4,20.5,20.9,36.8,36.5V488.6z"/>
	<path fill="#020233" d="M612.1,574.2l5.9,9.2c-6.3,7-20.2,18.7-27.7,21.8c-7.5,3.2-16.1,4.7-25.6,4.7c-10.6,0-20.6-2.8-29.9-8.5
		c-9.3-5.6-16.8-13.2-22.3-22.6c-5.6-9.4-8.3-19.4-8.3-30c0-11.5,2.7-21.8,8.2-30.9c5.5-9.1,13-16.3,22.4-21.4
		c9.5-5.1,20-7.7,31.7-7.7c17.8,0,32.9,7,45.4,21L541,579.8c16.4,18.4,47,15.3,65.1,1.7C607.9,580,609.9,577.9,612.1,574.2z
		 M530,570.1l60.5-57.6c-4.1-3.6-32.4-25.8-58.7-2.2C506,533.4,523.2,562.8,530,570.1z"/>
	<path fill="#020233" d="M454,501.3c0-6.7,5.3-12.7,12.1-12.7c7.2,0,12.5,5.6,12.5,12.7c0,6.9-5.1,12.9-12.5,12.9
		C459.1,514.2,454,508,454,501.3z M455.8,610.6v-86.4h21v86.4H455.8z"/>
	<path fill="#99D100" d="M483.9,698.4h10.5l0.2,146.4c-12.9-12.8-26.6-25.5-39.2-37.8c-19.4-19.1-82-81.2-100.6-100v114h-10.4
		c0-29.7,0.2-84.3,0.2-114c0-9.2,0.1-18.5,0.1-27.5h23.5c12,12.1,67.5,66.7,78.9,77.9c16,16.4,20.5,20.9,36.8,36.5V698.4z"/>
</g>
</svg>
