<?xml version="1.0" encoding="utf-8"?>
<!-- Generator: Adobe Illustrator 27.5.0, SVG Export Plug-In . SVG Version: 6.00 Build 0)  -->
<svg version="1.1" xmlns="http://www.w3.org/2000/svg" xmlns:xlink="http://www.w3.org/1999/xlink" x="0px" y="0px"
	 viewBox="0 0 588.6 573.4" enable-background="new 0 0 588.6 573.4" xml:space="preserve">
<g id="Bäume">
</g>
<g id="Städte">
	<g id="Stadt-4">
	</g>
	<g id="Stadt-3">
	</g>
	<g id="Stadt-2">
	</g>
	<g id="Stadt-1">
	</g>
	<g id="Stadt-5">
	</g>
</g>
<g id="Wir-suchen">
	<rect x="91.9" y="196.7" fill="#D7DCB1" width="287.4" height="215.5"/>
	<rect x="114.1" y="274.7" fill="#1A2933" width="76" height="138.3"/>
	<rect x="210.8" y="251.8" fill="#A1C0D1" width="152.1" height="124.1"/>
	<path fill="#1A2933" d="M114.1,115.9L62,202.2c0,0,8.9,33.4,37.9,34.6c28.3,1.2,46.1-35.1,46.1-35.1l24.8-85.8H114.1z"/>
	<path fill="#99D100" d="M299.6,115.9l21.3,86.3c0,0,12.2,33.3,47.5,35.1c35.8,1.8,45-35.8,45-35.8l-50.4-85.5H299.6z"/>
	<path fill="#99D100" d="M235.6,115.9v85.8c0,0-15.5,35.1-44.5,36.1c-29,1-45.1-36.1-45.1-36.1l24.8-85.8H235.6z"/>
	<path fill="#1A2933" d="M236,115.5v86.8c0,0,12.5,34.1,41.5,35.1c29,1,43.1-35.1,43.1-35.1l-19.8-86.8H236z"/>
	<path fill="#1A2933" d="M569.3,574.1c0-91-73.8-164.8-164.8-164.8s-164.8,73.8-164.8,164.8H569.3z"/>
	<circle fill="#1A2933" cx="404.4" cy="330.4" r="90.2"/>
</g>
<g id="Grafiken">
</g>
<g id="Logos">
</g>
</svg>
