<?xml version="1.0" encoding="utf-8"?>
<!-- Generator: Adobe Illustrator 27.5.0, SVG Export Plug-In . SVG Version: 6.00 Build 0)  -->
<svg version="1.1" xmlns="http://www.w3.org/2000/svg" xmlns:xlink="http://www.w3.org/1999/xlink" x="0px" y="0px"
	 viewBox="0 0 602.8 587.2" enable-background="new 0 0 602.8 587.2" xml:space="preserve">
<g id="Bäume">
</g>
<g id="Städte">
	<g id="Stadt-4">
	</g>
	<g id="Stadt-3">
	</g>
	<g id="Stadt-2">
	</g>
	<g id="Stadt-1">
	</g>
	<g id="Stadt-5">
	</g>
</g>
<g id="Wir-suchen">
	<g>
		<rect x="156.1" y="237.9" fill="#D1D1D1" width="95.8" height="346"/>
		<rect x="204" y="414.2" fill="#DCDCDC" width="170.1" height="170.1"/>
		<polygon fill="#D1D1D1" points="458,218.5 326.7,157.5 326.7,584.3 458,584.3 		"/>
		<rect x="88.2" y="475.8" fill="#DCDCDC" width="163.7" height="109.9"/>
		<rect x="289.6" y="461.4" fill="#D1D1D1" width="120.2" height="120.2"/>
		<rect x="251.8" y="397.6" fill="#333333" width="37.2" height="186.7"/>
		<rect x="196.1" y="523.5" fill="#D1D1D1" width="149.9" height="62.1"/>
		<rect x="346.1" y="487" fill="#333333" width="176.4" height="101"/>
		<polygon fill="#333333" points="270.4,339.9 236.7,398.2 304.1,398.2 		"/>
		<rect x="156.1" y="247.3" fill="#333333" width="95.8" height="8"/>
		<rect x="118.3" y="549.6" fill="#333333" width="19.2" height="36"/>
		<rect x="215.5" y="556.6" fill="#333333" width="16.4" height="29.5"/>
		<g>
			<rect x="168.1" y="267.1" fill="#333333" width="14.1" height="25.4"/>
			<rect x="196.9" y="267.1" fill="#333333" width="14.1" height="25.4"/>
			<rect x="225.8" y="267.1" fill="#333333" width="14.1" height="25.4"/>
		</g>
		<g>
			<rect x="168.1" y="303.4" fill="#333333" width="14.1" height="25.4"/>
			<rect x="196.9" y="303.4" fill="#333333" width="14.1" height="25.4"/>
			<rect x="225.8" y="303.4" fill="#333333" width="14.1" height="25.4"/>
		</g>
		<g>
			<rect x="168.1" y="339.8" fill="#333333" width="14.1" height="25.4"/>
			<rect x="196.9" y="339.8" fill="#333333" width="14.1" height="25.4"/>
			<rect x="225.8" y="339.8" fill="#333333" width="14.1" height="25.4"/>
		</g>
		<g>
			<rect x="168.1" y="376.1" fill="#333333" width="14.1" height="25.4"/>
			<rect x="196.9" y="376.1" fill="#333333" width="14.1" height="25.4"/>
			<rect x="225.8" y="376.1" fill="#333333" width="14.1" height="25.4"/>
		</g>
		<g>
			<rect x="168.1" y="412.4" fill="#333333" width="14.1" height="25.4"/>
			<rect x="196.9" y="412.4" fill="#333333" width="7.1" height="25.4"/>
		</g>
		<g>
			<rect x="168.1" y="448.7" fill="#333333" width="14.1" height="25.4"/>
			<rect x="196.9" y="448.7" fill="#333333" width="7.1" height="25.4"/>
		</g>
		<g>
			<rect x="342" y="208.3" fill="#333333" width="14.1" height="25.4"/>
			<rect x="370.8" y="218.3" fill="#333333" width="14.1" height="25.4"/>
			<rect x="399.7" y="228.3" fill="#333333" width="14.1" height="25.4"/>
			<rect x="428.6" y="238.3" fill="#333333" width="14.1" height="25.4"/>
		</g>
		<g>
			<rect x="342" y="259.4" fill="#333333" width="14.1" height="25.4"/>
			<rect x="370.8" y="269.4" fill="#333333" width="14.1" height="25.4"/>
			<rect x="399.7" y="279.4" fill="#333333" width="14.1" height="25.4"/>
			<rect x="428.6" y="289.4" fill="#333333" width="14.1" height="25.4"/>
		</g>
		<g>
			<rect x="342" y="310.5" fill="#333333" width="14.1" height="25.4"/>
			<rect x="370.8" y="320.5" fill="#333333" width="14.1" height="25.4"/>
			<rect x="399.7" y="330.5" fill="#333333" width="14.1" height="25.4"/>
			<rect x="428.6" y="340.5" fill="#333333" width="14.1" height="25.4"/>
		</g>
		<g>
			<rect x="342" y="361.6" fill="#333333" width="14.1" height="25.4"/>
			<rect x="370.8" y="371.6" fill="#333333" width="14.1" height="25.4"/>
			<rect x="399.7" y="381.6" fill="#333333" width="14.1" height="25.4"/>
			<rect x="428.6" y="391.6" fill="#333333" width="14.1" height="25.4"/>
		</g>
		<g>
			<rect x="339.1" y="412.7" fill="#333333" width="14.1" height="25.4"/>
			<rect x="368" y="422.7" fill="#333333" width="14.1" height="25.4"/>
			<rect x="396.8" y="432.7" fill="#333333" width="14.1" height="25.4"/>
			<rect x="425.7" y="442.7" fill="#333333" width="14.1" height="25.4"/>
		</g>
		<rect x="196.1" y="497.4" fill="#DCDCDC" width="149" height="34.3"/>
		<rect x="264.5" y="445.4" fill="#D1D1D1" width="14.1" height="25.4"/>
		<rect x="263.4" y="404.3" fill="#D1D1D1" width="14.1" height="25.4"/>
		<g>
			<rect x="493" y="501.9" fill="#D1D1D1" width="14.1" height="25.4"/>
			<rect x="470" y="501.9" fill="#D1D1D1" width="14.1" height="25.4"/>
		</g>
		<g>
			<rect x="493" y="537.5" fill="#D1D1D1" width="14.1" height="25.4"/>
			<rect x="470" y="537.5" fill="#D1D1D1" width="14.1" height="25.4"/>
		</g>
		<g>
			<rect x="383.9" y="502.6" fill="#D1D1D1" width="14.1" height="25.4"/>
			<rect x="360.9" y="502.6" fill="#D1D1D1" width="14.1" height="25.4"/>
		</g>
		<g>
			<rect x="383.9" y="538.1" fill="#D1D1D1" width="14.1" height="25.4"/>
			<rect x="360.9" y="538.1" fill="#D1D1D1" width="14.1" height="25.4"/>
		</g>
		<rect x="343.7" y="452.7" fill="#DCDCDC" width="182.8" height="34.3"/>
		<rect x="415.2" y="474.1" fill="#333333" width="40.8" height="113.9"/>
		<polygon fill="#333333" points="435.6,458.1 415.3,474.3 456,474.3 		"/>
		<rect x="428.5" y="481.1" fill="#D1D1D1" width="14.1" height="18.2"/>
		<rect x="428.6" y="512.3" fill="#D1D1D1" width="14.1" height="19.2"/>
		<rect x="424.9" y="554.6" fill="#D1D1D1" width="20.5" height="33.7"/>
		<rect x="244.8" y="538.1" fill="#333333" width="14.1" height="25.4"/>
		<rect x="277.5" y="538.1" fill="#333333" width="14.1" height="25.4"/>
		<rect x="311.8" y="538.1" fill="#333333" width="14.1" height="25.4"/>
		<rect x="108.7" y="490.9" fill="#333333" width="14.1" height="19.1"/>
		<rect x="147.4" y="490.9" fill="#333333" width="14.1" height="19.1"/>
		<rect x="186.1" y="490.9" fill="#333333" width="14.1" height="19.1"/>
		<rect x="224.8" y="490.9" fill="#333333" width="14.1" height="6.5"/>
		<rect x="108" y="523.5" fill="#333333" width="14.1" height="19"/>
		<rect x="146.7" y="523.5" fill="#333333" width="14.1" height="19"/>
		<rect x="185.4" y="523.5" fill="#333333" width="10.7" height="19"/>
		<rect x="220.8" y="430" fill="#333333" width="14.1" height="25.4"/>
		<rect x="301.8" y="430" fill="#333333" width="14.1" height="25.4"/>
		<rect x="297" y="482.8" fill="#333333" width="14.1" height="14.5"/>
		<rect x="329" y="483" fill="#333333" width="14.1" height="14.5"/>
		<rect x="79" y="441.8" fill="#333333" width="141.9" height="34.3"/>
	</g>
</g>
<g id="Grafiken">
</g>
<g id="Logos">
</g>
</svg>
