<?xml version="1.0" encoding="utf-8"?>
<!-- Generator: Adobe Illustrator 27.5.0, SVG Export Plug-In . SVG Version: 6.00 Build 0)  -->
<svg version="1.1" xmlns="http://www.w3.org/2000/svg" xmlns:xlink="http://www.w3.org/1999/xlink" x="0px" y="0px"
	 viewBox="0 0 588.6 573.4" enable-background="new 0 0 588.6 573.4" xml:space="preserve">
<g id="Bäume">
</g>
<g id="Städte">
	<g id="Stadt-4">
	</g>
	<g id="Stadt-3">
	</g>
	<g id="Stadt-2">
	</g>
	<g id="Stadt-1">
	</g>
	<g id="Stadt-5">
	</g>
</g>
<g id="Wir-suchen">
	<g id="NuRYFa.tif_00000136397932793956946280000006603881177360771233_">
		<g>
			<path fill="#D1D1D1" d="M507.6,303.7c-24.5-42.6-47.3-86.2-72.5-128.3c-0.8-4.4-39.8,14.1-35.7,22.8
				c19.5,41.4,42.1,81.2,67.2,119.6c1.8,2.8,7.1,9.8,11.2,8.1C488.7,319.3,499.9,312.8,507.6,303.7z"/>
			<path fill="#D1D1D1" d="M352.2,231.7c21.1,25.3,50.8,80.8-9.8,60.6c-19.5-5.6-26.9-26.5-44.6-33.9
				C277.3,250.9,78.6,371.8,162.4,378c13.2,1,71.9-51.3,79.2-39.2c-9.5,19.1-100.9,42.5-55,66.2c12.5,6.5,83.3-52.7,71.9-25.4
				c-11.8,10.7-56.2,25-55.1,39.7c13.1,31,50.7-5.5,71.4-10.3c22.8,5-33.2,19.2-38,28.6c-11.1,21.8,44.4,13.6,62,6.9
				c-6.1-17-8.4-38.8,17.8-44.8c8.9-0.8,2.4-16.6,11.2-22c4.6-10,22.4-4.8,20.1-16.3c1-26.1,36.6-33.6,47.6-9.6
				c6.2-16.8,26.7-25.4,40.3-12.9c7.7,1.4,22.1-11.4,18.8-18.5c-15.9-33.7-37.9-67.6-54.9-101.2c-0.4-0.7-3-2.6-1.6-2.6
				C376.3,216.7,369.4,222,352.2,231.7z"/>
			<path fill="#545454" d="M369.4,280c-5.4-21.3-23.8-42.3-36-57.6c-12-15.1-37.8-14.7-55.8-17.9c-31.6-5.6-80.6,21.4-103.3,13
				c-5.7-2.1-5.9-1.3-8.8,3.7c-15.7,32.1-41.4,64.3-52,96.6c9.1,6.5,21.8,28.5,33.6,20.1c33.5-22.2,134.8-114.1,166.9-82.2
				C324.4,266.1,363.3,303.4,369.4,280z"/>
			<path fill="#545454" d="M96.9,326.4c23.2-42.7,57.2-89,71.6-132.4c-26.9-12.4-29.4-33.2-44.5-1c-20.4,36.5-41.2,72.8-61.3,109.5
				C62.6,311.7,88.7,320.9,96.9,326.4z"/>
			<path fill="#545454" d="M356.7,364.4c7.3,14.7,32.6,64.1,51.8,46.5c18.6-19.4-22.2-55.9-24.3-57.8
				C371.8,341.3,354.7,352.2,356.7,364.4z"/>
			<path fill="#545454" d="M364.1,437.7c11.8,0.1,22.4-14,15-23.8c-9-12-17-30-31-36.1c-13.5-5.9-24.1,10.6-15.6,23.8
				C340.8,414.4,349.2,433.4,364.1,437.7z"/>
			<path fill="#545454" d="M302.5,425.9c6.4,17.2,30.5,49.3,42.9,18.8c2.4-12.4-10.6-22.5-17.4-31.8
				C319.7,401.7,299.2,415.4,302.5,425.9z"/>
			<path fill="#545454" d="M403.9,359.5c3.7,9.6,12.5,27.5,25,23.7C465.1,369.7,412.3,317.6,403.9,359.5z"/>
		</g>
	</g>
</g>
<g id="Grafiken">
</g>
<g id="Logos">
</g>
</svg>
