<?xml version="1.0" encoding="utf-8"?>
<!-- Generator: Adobe Illustrator 27.5.0, SVG Export Plug-In . SVG Version: 6.00 Build 0)  -->
<svg version="1.1" xmlns="http://www.w3.org/2000/svg" xmlns:xlink="http://www.w3.org/1999/xlink" x="0px" y="0px"
	 viewBox="0 0 854.2 854.6" enable-background="new 0 0 854.2 854.6" xml:space="preserve">
<g id="Bäume">
</g>
<g id="Städte">
	<g id="Stadt-4">
	</g>
	<g id="Stadt-3">
	</g>
	<g id="Stadt-2">
	</g>
	<g id="Stadt-1">
	</g>
	<g id="Stadt-5">
	</g>
</g>
<g id="Wir-suchen">
</g>
<g id="Grafiken">
</g>
<g id="Logos">
	<path fill="#99D100" d="M427,853.6c-17.1,0-33.2-6.7-45.2-18.8l0,0c0,0,0,0,0,0l-363-363C6.7,459.7,0,443.7,0,426.6
		c0-17.1,6.7-33.2,18.8-45.2l363-363C393.8,6.2,409.9-0.4,427-0.4c17.1,0,33.2,6.7,45.2,18.7l363,363c12.1,12.1,18.7,28.2,18.7,45.2
		c0,17.1-6.7,33.2-18.7,45.2l-363,363C460.2,846.9,444.1,853.6,427,853.6z M73.3,426.6L427,780.2l353.7-353.7L427,72.9L73.3,426.6z"
		/>
	<path fill="#99D100" d="M638.5,669.1l-40.3,23.2l-322.5-0.2c28.2-28.3,56-56.9,83.1-84.7c42-42.8,178.4-180.6,219.8-221.4l-472.4,0
		l0-22.8c65.3,0,407.1,0,472.4,0c20.1,0,40.6,0.3,60.3,0.3v59.6c-26.5,26.4-146.5,148.6-171.2,173.7c-36.1,35.2-38.4,37.6-72.7,73.4
		L638.5,669.1z"/>
	<path fill="#020233" d="M369.5,225.1c0-31.1,24.4-58.9,56.4-58.9c33.7,0,58.1,26.1,58.1,58.9c0,32-23.6,59.8-58.1,59.8
		C393,284.8,369.5,256.2,369.5,225.1z M377.9,527.7V328.4h97.6v199.3H377.9z"/>
	<path fill="#99D100" d="M638.9,423.1c-26.5,26.4-146.5,148.6-171.2,173.7c-36.1,35.2-38.4,37.6-72.7,73.4l243.5-1.1l-40.3,23.2
		l-322.5-0.2c28.2-28.3,56-56.9,83.1-84.7c42-42.8,178.4-180.6,219.8-221.4"/>
</g>
</svg>
