<?xml version="1.0" encoding="UTF-8"?>
<svg id="Ebene_1" data-name="Ebene 1" xmlns="http://www.w3.org/2000/svg" viewBox="0 0 764.4 900.1">
  <defs>
    <style>
      .cls-1 {
        fill: none;
        stroke: #f9ecd7;
      }

      .cls-1, .cls-2 {
        stroke-miterlimit: 10;
        stroke-width: 3px;
      }

      .cls-3 {
        fill: #f9ecd7;
      }

      .cls-4 {
        fill: #01a287;
      }

      .cls-5 {
        fill: #018974;
      }

      .cls-6 {
        fill: #f5f1c6;
      }

      .cls-7 {
        fill: #fff;
      }

      .cls-8 {
        fill: #ece7af;
      }

      .cls-9 {
        fill: #1a2933;
      }

      .cls-10, .cls-2 {
        fill: #99d100;
      }

      .cls-11 {
        fill: #54b67d;
      }

      .cls-2 {
        stroke: #1a2933;
      }
    </style>
  </defs>
  <g id="Grafiken">
    <g>
      <path class="cls-9" d="m559.1,224.2c-5.5,0-10,4.5-10,10v20.5c0,5.5-.6,10-1.4,9.9l-.7-.5-.9-.6c-.9-.5-5.1-3.3-9.1-6.2h-3.9c-9.1,0-16.4,8.5-16.4,18.9s7.4,18.9,16.4,18.9h4c4.1-2.9,8.2-5.7,9-6.2l.9-.6.7-.5c.8,0,1.5,4.5,1.5,10v20.5c0,5.5,4.5,10,10,10h18.7c5.5,0,10.5-1.5,11.1-3.2l-1-1.5-.6-.9c-.6-1-3.2-5-5.9-9v-4.5c0-10.2,9.6-18.4,21.5-18.4s21.5,8.2,21.5,18.4v4.4c-2.7,4-5.3,8.1-5.9,9.1l-.7,1-1,1.5c.6,1.7,5.5,3.1,11,3.1h20.9c5.5,0,10-4.5,10-10v-84.3c0-5.5-4.5-10-10-10h-89.7v.2Z"/>
      <path class="cls-9" d="m662.3,541.9c0-5.5,4.5-10,10-10h82c5.5,0,10,4.5,10,10v85.3c0,5.5-4.5,10-10,10h-82c-5.5,0-10-4.5-10-10v-85.3Z"/>
      <path class="cls-9" d="m674.4,638.7c-5.5,0-10,4.5-10,10v8.7c0,5.5-2.4,11.9-5.2,14.2l-2.5-1.7-1-.7c-1-.6-5.1-3.2-9.1-5.9h-4.4c-10.2,0-18.4,9.6-18.4,21.5s8.2,21.5,18.4,21.5h4.5c4-2.7,8.1-5.4,9-5.9l.9-.6,2.5-1.7c3,2.4,5.4,8.8,5.4,14.3v15.8c0,5.5,4.5,10,10,10h82.5c5.5,0,10-4.5,10-10v-79.4c0-5.5-4.5-10-10-10h-82.6v-.1Z"/>
      <path class="cls-9" d="m398.6,637.5c-5.5,0-10,4.5-10,10v14.3c0,5.5-2.8,13-6.3,16.6l-3.2-2.2-1-.7c-1-.6-5.1-3.2-9.1-5.9h-4.4c-10.2,0-18.4,9.6-18.4,21.5s8.2,21.5,18.4,21.5h4.5c4-2.7,8.1-5.4,9-5.9l.9-.6,3.1-2.2c3.6,3.7,6.5,11.2,6.5,16.7v7.4c0,5.5,4.5,10,10,10h135.9c5.5,0,10-4.5,10-10v-80.5c0-5.5-4.5-10-10-10h-135.9Z"/>
      <path class="cls-10" d="m502.1,596.4l-.9.6c-1,.6-5,3.2-9,5.9h-4.5c-10.2,0-18.4-9.6-18.4-21.5s8.2-21.5,18.4-21.5h4.4c4,2.7,8.1,5.3,9.1,5.9l1,.7,1.2.8c1.4-.2,2.5-4.9,2.5-10.4v-14.3c0-5.5-4.5-10-10-10h-91.8c-5.5,0-10,4.5-10,10v82.3c0,5.5,4.5,10,10,10h91.8c5.5,0,10-4.5,10-10v-18.9c0-5.5-1.2-10.2-2.6-10.5q0,.1-1.2.9Z"/>
      <path class="cls-9" d="m648.7,859.8c5.5,0,10-4.5,10-10v-28.5c0-5.5-1.9-11.1-4.3-12.5l-1.9,1.4-.9.6c-1,.6-5,3.2-9,5.9h-4.5c-10.2,0-18.4-9.6-18.4-21.5s8.2-21.5,18.4-21.5h4.4c4,2.7,8.1,5.3,9.1,5.9l1,.7,2,1.3c2.3-1.3,4.2-6.8,4.2-12.3v-19.6c0-5.5-4.5-10-10-10h-89.2c-5.5,0-10,4.5-10,10v16.3c0,5.5-2.6,12.4-5.8,15.4l-2.8-2-1-.7c-1-.6-5.1-3.2-9.1-5.9h-4.4c-10.2,0-18.4,9.6-18.4,21.5s8.2,21.5,18.4,21.5h4.5c4-2.7,8.1-5.4,9-5.9l.9-.6,2.8-2c3.3,3,6,10,6,15.5v26.9c0,5.5,4.5,10,10,10h17.2c5.5,0,11.7,2.3,13.9,5.1l-1.7,2.4-.7,1c-.6,1-3.2,5.1-5.9,9.1v4.4c0,10.2,9.6,18.4,21.5,18.4s21.5-8.2,21.5-18.4v-4.5c-2.7-4-5.4-8.1-5.9-9l-.6-.9-1.7-2.4c2.2-2.9,8.5-5.2,14-5.2h17.4v.1Z"/>
      <path class="cls-9" d="m37.8,532.6c-5.5,0-10,4.5-10,10v82.9c0,5.5,4.5,10,10,10h12.3c5.5,0,10.5-1.5,11.2-3.3l-1-1.5-.6-.9c-.6-1-3.2-5-5.9-9v-4.5c0-10.2,9.6-18.4,21.5-18.4s21.5,8.2,21.5,18.4v4.4c-2.7,4-5.3,8.1-5.9,9.1l-.7,1-1,1.5c.6,1.7,5.5,3.2,11,3.2h30.3c5.5,0,10-4.5,10-10v-82.9c0-5.5-4.5-10-10-10H37.8Z"/>
      <path class="cls-9" d="m656,702l-1,.7c-1.1.6-4.9,2.9-8.5,4.9h-5.2c-11.8,0-19.3-9.2-19.3-23s7.6-23,19.3-23h5.1c3.5,2,7.4,4.2,8.6,4.9l1.1.8,2,1.3c2.3-1,4.2-6.3,4.2-11.8v-9.8c0-5.5-4.5-10-10-10h-94.1c-5.5,0-10,4.5-10,10v80.8c0,5.5,4.5,10,10,10h94.1c5.5,0,10-4.5,10-10v-15.2c0-5.5-1.9-10.9-4.3-12t-2,1.4Z"/>
      <path class="cls-3" d="m359.2,531.6c-5.5,0-11,1.8-12.2,4.1l1.3,1.8.6.9c.6,1,3.2,5,5.9,9v4.5c0,10.2-9.6,18.4-21.5,18.4s-21.5-8.2-21.5-18.4v-4.4c2.7-4,5.3-8.1,5.9-9.1l.7-1,1.3-1.8c-1.1-2.2-6.5-3.9-12-3.9h-20.9c-5.5,0-10,4.5-10,10v82.6c0,5.5,4.5,10,10,10h94.9c5.5,0,10-4.5,10-10v-82.6c0-5.5-4.5-10-10-10h-22.5v-.1Z"/>
      <path class="cls-9" d="m671.1,434.4c-5.5,0-10,4.5-10,10v14c0,5.5,1.3,10.4,2.9,10.8l1.3-.9.9-.6c1-.6,5-3.2,9-5.9h4.5c10.2,0,18.4,9.6,18.4,21.5s-8.2,21.5-18.4,21.5h-4.4c-4-2.7-8.1-5.3-9.1-5.9l-1-.7-1.3-.9c-1.5.4-2.8,5.2-2.8,10.7v11.7c0,5.5,4.5,10,10,10h83.3c5.5,0,10-4.5,10-10v-75.3c0-5.5-4.5-10-10-10h-83.3Z"/>
      <path class="cls-9" d="m545.8,292.6c-.3.2-3.9,2.6-7.9,5.3h-4.5c-10.2,0-18.4-9.6-18.4-21.5s8.2-21.5,18.4-21.5h4.4c4,2.7,7.5,5,7.9,5.2l.4.2v-28.1c0-5.5-4.5-10-10-10h-92.4c-5.5,0-10,4.5-10,10v189.6c0,5.5,4.5,10,10,10h20.7c5.5,0,10.2-.7,10.5-1.5s-1-3.7-1.7-4.7l-.5-.9c-3.1-3.2-4.9-7.3-4.9-11.7,0-10.2,12.2-14.8,12.2-14.8,5.1-2,13.5-2,18.7,0,0,0,12.2,4.7,12.2,14.8,0,4.4-1.8,8.4-4.8,11.6-.5.9-1.1,1.9-1.7,2.9l-1,1.4c.5,1.6,5.3,3,10.8,3h22c5.5,0,10-4.5,10-10v-129.5l-.4.2Z"/>
      <path class="cls-9" d="m235.8,433.9c-5.5,0-10.9,1.8-12.1,4l1.3,1.8.6.9c.6,1,3.2,5,5.9,9v4.5c0,10.2-9.6,18.4-21.5,18.4s-21.5-8.2-21.5-18.4v-4.4c2.7-4,5.3-8.1,5.9-9.1l.7-1,1.2-1.8c-1.1-2.1-6.4-3.9-11.9-3.9h-30.7c-5.5,0-10,4.5-10,10v75.6c0,5.5,4.5,10,10,10h29.2c5.5,0,11.7-2.3,13.8-5.1l-1.6-2.3-.6-.9c-.6-1-3.2-5-5.9-9v-4.5c0-10.2,9.6-18.4,21.5-18.4s21.5,8.2,21.5,18.4v4.4c-2.7,4-5.3,8.1-5.9,9.1l-.7,1-1.6,2.4c2,2.7,8.2,5,13.7,5h27.8c5.5,0,10-4.5,10-10v-75.6c0-5.5-4.5-10-10-10h-29.1v-.1Z"/>
      <path class="cls-9" d="m684.9,133.7h-4.5c-4,2.7-8.1,5.4-9,5.9l-.9.6c-4.3,3-6.3.3-6.3.3-3.2-4.5-5.8-12.7-5.8-18.2v-31.2c0-5.5-4.5-10-10-10h-23.8c-5.5,0-10.8,1.7-11.9,3.9l1.2,1.8.6.9c.6,1,3.2,5,5.9,9v4.5c0,10.2-9.6,18.4-21.5,18.4s-21.5-8.2-21.5-18.4v-4.4c2.7-4,5.3-8.1,5.9-9.1l.7-1,1.2-1.8c-1-2.1-6.2-3.7-11.7-3.7h-15c-5.5,0-10,4.5-10,10v118.6c0,5.5,4.5,10,10,10h89.9c5.5,0,10-4.5,10-10v-21.7c0-5.5,2.5-13.7,5.7-18.2,0,0,1.8-2.7,6.3.4l1,.7c1,.6,5.1,3.2,9.1,5.9h4.4c10.2,0,18.4-9.6,18.4-21.5,0-12-8.2-21.7-18.4-21.7Z"/>
      <path class="cls-3" d="m679.2,464.6h-4c-4.1,2.9-8.2,5.7-9,6.2l-.9.6-2.3,1.6c-2.5-2.7-4.6-9.3-4.6-14.8v-15.7c0-5.5-4.5-10-10-10h-87.5c-5.5,0-10,4.5-10,10v77.3c0,5.5,4.5,10,10,10h13.7c5.5,0,10.2-1.1,10.4-2.5l-.8-1.2-.6-.9c-.6-1-3.2-5-5.9-9v-4.5c0-10.2,9.6-18.4,21.5-18.4s21.5,8.2,21.5,18.4v4.4c-2.7,4-5.3,8.1-5.9,9.1l-.7,1-.8,1.1c.2,1.3,4.9,2.4,10.4,2.4h24.7c5.5,0,10-4.5,10-10v-11c0-5.5,2-12.1,4.5-14.7l2.4,1.6.9.6c.9.5,5.1,3.3,9.1,6.2h3.9c9.1,0,16.4-8.5,16.4-18.9,0-10.4-7.3-18.9-16.4-18.9Z"/>
      <path class="cls-5" d="m671.1,334c-5.5,0-10,4.5-10,10v6.9c0,5.5-2.2,13.9-5,18.7,0,0-.8,1.3-4.5-1.3l-.9-.6c-.9-.5-5.1-3.3-9.1-6.2h-3.9c-9.1,0-16.4,8.5-16.4,18.9s7.4,18.9,16.4,18.9h4c4.1-2.9,8.2-5.7,9-6.2l.9-.6c3.7-2.6,4.5-1.1,4.5-1.1,2.8,4.7,5.1,13.1,5.1,18.6v12.3c0,5.5,4.5,10,10,10h83.3c5.5,0,10-4.5,10-10v-78.3c0-5.5-4.5-10-10-10h-83.4Z"/>
      <path class="cls-9" d="m636.8,359h4.4c4,2.7,8.1,5.3,9.1,5.9l1,.7,2.3,1.6c2.7-2,4.9-8.1,4.9-13.6v-11.5c0-5.5-4.5-10-10-10h-19.3c-5.5,0-12.9-2.3-16.5-5l1.9-2.8.6-.9c.5-.9,3.3-5.1,6.2-9.1v-3.9c0-9.1-8.5-16.4-18.9-16.4s-18.9,7.4-18.9,16.4v4c2.9,4.1,5.7,8.2,6.2,9l.6.9,1.9,2.8c-3.6,2.9-11.1,5.2-16.6,5.2h-14.9c-5.5,0-10,4.5-10,10v78c0,5.5,4.5,10,10,10h87.7c5.5,0,10-4.5,10-10v-12.5c0-5.5-2.3-11.7-5.1-13.7l-2.3,1.6-.9.6c-1,.6-5,3.2-9,5.9h-4.5c-10.2,0-18.4-9.6-18.4-21.5.2-12.1,8.4-21.7,18.5-21.7Z"/>
      <path class="cls-9" d="m624.5,533c-5.5,0-12.2-2-14.8-4.5l1.6-2.4.6-.9c.5-.9,3.3-5.1,6.2-9.1v-3.9c0-9.1-8.5-16.4-18.9-16.4s-18.9,7.4-18.9,16.4v4c2.9,4.1,5.7,8.2,6.2,9l.6.9,1.7,2.4c-2.7,2.5-9.5,4.6-15,4.6h-55.6c-5.5,0-10,4.5-10,10v14.7c0,5.5-1.8,11.5-3.9,13.4l-2-1.4-.9-.6c-.9-.5-5.1-3.3-9.1-6.2h-3.9c-9.1,0-16.4,8.5-16.4,18.9s7.4,18.9,16.4,18.9h4c4.1-2.9,8.2-5.7,9-6.2l.9-.6,2-1.4c2.2,1.9,4,8,4,13.5v18.9c0,5.5,4.5,10,10,10h131.4c5.5,0,10-4.5,10-10v-82c0-5.5-4.5-10-10-10h-25.2Z"/>
      <path class="cls-9" d="m239.8,532.6c-5.5,0-13.9-2.2-18.7-4.9,0,0-1.5-.9,1.1-4.7l.6-.9c.5-.9,3.3-5.1,6.2-9.1v-3.9c0-9.1-8.5-16.4-18.9-16.4s-18.9,7.4-18.9,16.4v4c2.9,4.1,5.7,8.2,6.2,9l.6.9c2.6,3.8,1,4.7,1,4.7-4.8,2.8-13.2,5-18.7,5h-26.7c-5.5,0-10,4.5-10,10v82.1c0,5.5,4.5,10,10,10h26.8c5.5,0,10.9-1.8,12.1-4l-1.3-1.8-.6-.9c-.6-1-3.2-5-5.9-9v-4.5c0-10.2,9.6-18.4,21.5-18.4s21.5,8.2,21.5,18.4v4.4c-2.7,4-5.3,8.1-5.9,9.1l-.7,1-1.2,1.8c1,2.1,6.4,3.9,11.9,3.9h32.2c5.5,0,10-4.5,10-10v-82.1c0-5.5-4.5-10-10-10h-24.2v-.1Z"/>
      <path class="cls-9" d="m104.2,434.4c-5.5,0-10.6-1.3-11.3-2.8l.9-1.4.6-.9c.5-.9,3.3-5.1,6.2-9.1v-3.9c0-9.1-8.5-16.4-18.9-16.4s-18.9,7.4-18.9,16.4v4c2.9,4.1,5.7,8.2,6.2,9l.6.9,1,1.4c-.8,1.6-5.9,2.9-11.4,2.9h-21.2c-5.5,0-10,4.5-10,10v15c0,5.5.5,9.9,1.1,9.7l.5-.4.9-.6c1-.6,5-3.2,9-5.9h4.5c10.2,0,18.4,9.6,18.4,21.5s-8.2,21.5-18.4,21.5h-4.4c-4-2.7-8.1-5.3-9.1-5.9l-1-.7-.5-.3c-.5-.2-1,4.2-1,9.7v11.8c0,5.5,4.5,10,10,10h93c5.5,0,10-4.5,10-10v-75.4c0-5.5-4.5-10-10-10h-26.8v-.1Z"/>
      <path class="cls-9" d="m373.4,459.5h4.4c4,2.7,8.1,5.3,9.1,5.9l1,.7.8.5c.9.1,1.6-4.3,1.6-9.8v-12.4c0-5.5-4.5-10-10-10h-21c-5.5,0-10.6-1.3-11.3-2.8l.9-1.4.6-.9c.5-.9,3.3-5.1,6.2-9.1v-3.9c0-9.1-8.5-16.4-18.9-16.4s-18.9,7.4-18.9,16.4v4c2.9,4.1,5.7,8.2,6.2,9l.6.9,1,1.4c-.8,1.6-5.9,2.9-11.4,2.9h-27.3c-5.5,0-10,4.5-10,10v74.5c0,5.5,4.5,10,10,10h18.9c5.5,0,13.5,2.4,17.7,5.4l-2.1,3.1-.6.9c-.5.9-3.3,5.1-6.2,9.1v3.9c0,9.1,8.5,16.4,18.9,16.4s18.9-7.4,18.9-16.4v-4c-2.9-4.1-5.7-8.2-6.2-9l-.6-.9-2.1-3.1c4.3-3,12.3-5.5,17.8-5.5h19c5.5,0,10-4.5,10-10v-13.5c0-5.5-.8-10-1.7-9.9l-.8.6-.9.6c-1,.6-5,3.2-9,5.9h-4.5c-10.2,0-18.4-9.6-18.4-21.5-.1-11.9,8.1-21.6,18.3-21.6Z"/>
      <path class="cls-9" d="m514.3,433.7c-5.5,0-11.7-1.9-13.8-4.1l1.5-2.2.6-.9c.5-.9,3.3-5.1,6.2-9.1v-3.9c0-9.1-8.5-16.4-18.9-16.4s-18.9,7.4-18.9,16.4v4c2.9,4.1,5.7,8.2,6.2,9l.6.9,1.5,2.1c-2.2,2.3-8.5,4.2-14,4.2h-62.3c-5.5,0-10,4.5-10,10v15c0,5.5-1,10.3-2.3,10.7l-1.2-.8-.9-.6c-.9-.5-5.3-3.6-9.7-6.9,0,0-.4-.3-4.3-.3-9.1,0-17.4,9.5-17.4,19.9s6.7,19.9,18.4,19.9h4c4.1-3.5,8.2-6.7,9-7.2l.9-.6,1.2-.8c1.3.4,2.4,5.3,2.4,10.8v16.6c0,5.5,4.5,10,10,10h135.4c5.5,0,10-4.5,10-10v-75.8c0-5.5-4.5-10-10-10h-24.2v.1Z"/>
      <g>
        <path class="cls-3" d="m456.5,296.4c0,2.8-1,5-2.3,5s-2.3-2.2-2.3-5v-2.8c0-2.8,1-5,2.3-5s2.3,2.2,2.3,5v2.8Z"/>
        <path class="cls-3" d="m475,296.4c0,2.8-1,5-2.3,5-1.2,0-2.3-2.2-2.3-5v-2.8c0-2.8,1-5,2.3-5,1.2,0,2.3,2.2,2.3,5v2.8Z"/>
        <path class="cls-3" d="m512,296.4c0,2.8-1,5-2.3,5s-2.3-2.2-2.3-5v-2.8c0-2.8,1-5,2.3-5s2.3,2.2,2.3,5v2.8Z"/>
        <path class="cls-3" d="m530.5,299.7c0,.9-1,1.7-2.3,1.7s-2.3-1.2-2.3-2.7,1-2.2,2.3-1.7c1.3.6,2.3,1.8,2.3,2.7Z"/>
        <path class="cls-3" d="m493.5,296.2c0,2.8-1,5-2.3,5-1.2,0-2.3-2.2-2.3-5v-2.8c0-2.8,1-5,2.3-5,1.2,0,2.3,2.2,2.3,5v2.8Z"/>
      </g>
      <g>
        <path class="cls-3" d="m456.5,324.4c0,2.8-1,5-2.3,5s-2.3-2.2-2.3-5v-2.8c0-2.8,1-5,2.3-5s2.3,2.2,2.3,5v2.8Z"/>
        <path class="cls-3" d="m475,324.4c0,2.8-1,5-2.3,5-1.2,0-2.3-2.2-2.3-5v-2.8c0-2.8,1-5,2.3-5,1.2,0,2.3,2.2,2.3,5v2.8Z"/>
        <path class="cls-3" d="m512,324.4c0,2.8-1,5-2.3,5s-2.3-2.2-2.3-5v-2.8c0-2.8,1-5,2.3-5s2.3,2.2,2.3,5v2.8Z"/>
        <path class="cls-3" d="m493.5,324.2c0,2.8-1,5-2.3,5-1.2,0-2.3-2.2-2.3-5v-2.8c0-2.8,1-5,2.3-5,1.2,0,2.3,2.2,2.3,5v2.8Z"/>
        <path class="cls-3" d="m530.5,324.2c0,2.8-1,5-2.3,5s-2.3-2.2-2.3-5v-2.8c0-2.8,1-5,2.3-5s2.3,2.2,2.3,5v2.8Z"/>
      </g>
      <g>
        <path class="cls-3" d="m456.5,352.4c0,2.8-1,5-2.3,5s-2.3-2.2-2.3-5v-2.8c0-2.8,1-5,2.3-5s2.3,2.2,2.3,5v2.8Z"/>
        <path class="cls-3" d="m475,352.4c0,2.8-1,5-2.3,5-1.2,0-2.3-2.2-2.3-5v-2.8c0-2.8,1-5,2.3-5,1.2,0,2.3,2.2,2.3,5v2.8Z"/>
        <path class="cls-3" d="m512,352.4c0,2.8-1,5-2.3,5s-2.3-2.2-2.3-5v-2.8c0-2.8,1-5,2.3-5s2.3,2.2,2.3,5v2.8Z"/>
        <path class="cls-3" d="m493.5,352.2c0,2.8-1,5-2.3,5-1.2,0-2.3-2.2-2.3-5v-2.8c0-2.8,1-5,2.3-5,1.2,0,2.3,2.2,2.3,5v2.8Z"/>
        <path class="cls-3" d="m530.5,352.2c0,2.8-1,5-2.3,5s-2.3-2.2-2.3-5v-2.8c0-2.8,1-5,2.3-5s2.3,2.2,2.3,5v2.8Z"/>
      </g>
      <g>
        <path class="cls-3" d="m456.5,380.4c0,2.8-1,5-2.3,5s-2.3-2.2-2.3-5v-2.8c0-2.8,1-5,2.3-5s2.3,2.2,2.3,5v2.8Z"/>
        <path class="cls-3" d="m475,380.4c0,2.8-1,5-2.3,5-1.2,0-2.3-2.2-2.3-5v-2.8c0-2.8,1-5,2.3-5,1.2,0,2.3,2.2,2.3,5v2.8Z"/>
        <path class="cls-3" d="m512,380.4c0,2.8-1,5-2.3,5s-2.3-2.2-2.3-5v-2.8c0-2.8,1-5,2.3-5s2.3,2.2,2.3,5v2.8Z"/>
        <path class="cls-3" d="m493.5,380.2c0,2.8-1,5-2.3,5-1.2,0-2.3-2.2-2.3-5v-2.8c0-2.8,1-5,2.3-5,1.2,0,2.3,2.2,2.3,5v2.8Z"/>
        <path class="cls-3" d="m530.5,380.2c0,2.8-1,5-2.3,5s-2.3-2.2-2.3-5v-2.8c0-2.8,1-5,2.3-5s2.3,2.2,2.3,5v2.8Z"/>
      </g>
      <path class="cls-1" d="m452,267.7l31-20.9c4.6-3.1,12-3.1,16.6-.1l22.5,14.8"/>
      <path class="cls-9" d="m703,366.6c0,5.5-4.5,10-10,10h-7.1c-5.5,0-10-4.5-10-10v-7.1c0-5.5,4.5-10,10-10h7.1c5.5,0,10,4.5,10,10v7.1Z"/>
      <path class="cls-9" d="m748.2,366.6c0,5.5-4.5,10-10,10h-6.3c-5.5,0-10-4.5-10-10v-6.3c0-5.5,4.5-10,10-10h6.3c5.5,0,10,4.5,10,10v6.3Z"/>
      <path class="cls-9" d="m706.5,426.8c0,2.8-2.2,5-5,5h-20.6c-2.8,0-5-2.2-5-5v-31.4c0-2.8,2.2-5,5-5h20.6c2.8,0,5,2.2,5,5v31.4Z"/>
      <path class="cls-9" d="m748.6,407.8c0,5.5-4.5,10-10,10h-6.7c-5.5,0-10-4.5-10-10v-6.8c0-5.5,4.5-10,10-10h6.7c5.5,0,10,4.5,10,10v6.8Z"/>
      <g>
        <path class="cls-10" d="m677.9,458.7c0,2.8-1,5-2.3,5s-2.3-2.2-2.3-5v-2.8c0-2.8,1-5,2.3-5s2.3,2.2,2.3,5v2.8Z"/>
        <path class="cls-10" d="m696.5,458.7c0,2.8-1,5-2.3,5s-2.3-2.2-2.3-5v-2.8c0-2.8,1-5,2.3-5s2.3,2.2,2.3,5v2.8Z"/>
        <path class="cls-10" d="m733.5,458.7c0,2.8-1,5-2.3,5s-2.3-2.2-2.3-5v-2.8c0-2.8,1-5,2.3-5s2.3,2.2,2.3,5v2.8Z"/>
        <path class="cls-10" d="m715,458.5c0,2.8-1,5-2.3,5s-2.3-2.2-2.3-5v-2.8c0-2.8,1-5,2.3-5s2.3,2.2,2.3,5v2.8Z"/>
        <path class="cls-10" d="m752,458.5c0,2.8-1,5-2.3,5s-2.3-2.2-2.3-5v-2.8c0-2.8,1-5,2.3-5s2.3,2.2,2.3,5v2.8Z"/>
      </g>
      <g>
        <path class="cls-10" d="m733.5,486.7c0,2.8-1,5-2.3,5s-2.3-2.2-2.3-5v-2.8c0-2.8,1-5,2.3-5s2.3,2.2,2.3,5v2.8Z"/>
        <path class="cls-10" d="m715,486.5c0,2.8-1,5-2.3,5s-2.3-2.2-2.3-5v-2.8c0-2.8,1-5,2.3-5s2.3,2.2,2.3,5v2.8Z"/>
        <path class="cls-10" d="m752,486.5c0,2.8-1,5-2.3,5s-2.3-2.2-2.3-5v-2.8c0-2.8,1-5,2.3-5s2.3,2.2,2.3,5v2.8Z"/>
      </g>
      <rect class="cls-10" x="731.2" y="573.3" width="20.8" height="65.4"/>
      <path class="cls-10" d="m739.2,554l-10.9,16.6c-1.3,1.9.1,4.4,2.4,4.4h21.8c2.3,0,3.6-2.5,2.4-4.4l-10.9-16.6c-1.2-1.8-3.7-1.8-4.8,0Z"/>
      <path class="cls-10" d="m698.6,613.4l-31.1,18.5c-2.5,1.5-1.4,5.3,1.5,5.3h62.2c2.9,0,4-3.8,1.5-5.3l-31.1-18.5c-1-.5-2.1-.5-3,0Z"/>
      <g>
        <path class="cls-3" d="m413.6,661.9c0,2.8-1,5-2.3,5-1.2,0-2.3-2.2-2.3-5v-2.8c0-2.8,1-5,2.3-5,1.2,0,2.3,2.2,2.3,5v2.8Z"/>
        <path class="cls-3" d="m478,661.9c0,2.8-1,5-2.3,5-1.2,0-2.3-2.2-2.3-5v-2.8c0-2.8,1-5,2.3-5,1.2,0,2.3,2.2,2.3,5v2.8Z"/>
        <path class="cls-3" d="m515,661.9c0,2.8-1,5-2.3,5s-2.3-2.2-2.3-5v-2.8c0-2.8,1-5,2.3-5s2.3,2.2,2.3,5v2.8Z"/>
        <path class="cls-3" d="m496.5,661.7c0,2.8-1,5-2.3,5-1.2,0-2.3-2.2-2.3-5v-2.8c0-2.8,1-5,2.3-5,1.2,0,2.3,2.2,2.3,5v2.8Z"/>
        <path class="cls-3" d="m533.5,661.7c0,2.8-1,5-2.3,5s-2.3-2.2-2.3-5v-2.8c0-2.8,1-5,2.3-5s2.3,2.2,2.3,5v2.8Z"/>
      </g>
      <g>
        <path class="cls-3" d="m422.1,689.9c0,2.8-1,5-2.3,5s-2.3-2.2-2.3-5v-2.8c0-2.8,1-5,2.3-5s2.3,2.2,2.3,5v2.8Z"/>
        <path class="cls-3" d="m440.6,689.9c0,2.8-1,5-2.3,5s-2.3-2.2-2.3-5v-2.8c0-2.8,1-5,2.3-5s2.3,2.2,2.3,5v2.8Z"/>
        <path class="cls-3" d="m495.8,689.9c0,2.8-1,5-2.3,5s-2.3-2.2-2.3-5v-2.8c0-2.8,1-5,2.3-5s2.3,2.2,2.3,5v2.8Z"/>
        <path class="cls-3" d="m477.3,689.7c0,2.8-1,5-2.3,5-1.2,0-2.3-2.2-2.3-5v-2.8c0-2.8,1-5,2.3-5,1.2,0,2.3,2.2,2.3,5v2.8Z"/>
        <path class="cls-3" d="m514.3,689.7c0,2.8-1,5-2.3,5-1.2,0-2.3-2.2-2.3-5v-2.8c0-2.8,1-5,2.3-5,1.2,0,2.3,2.2,2.3,5v2.8Z"/>
      </g>
      <g>
        <path class="cls-3" d="m440.3,723.1c0,2.8-1,5-2.3,5s-2.3-2.2-2.3-5v-2.8c0-2.8,1-5,2.3-5s2.3,2.2,2.3,5v2.8Z"/>
        <path class="cls-3" d="m458.8,723.1c0,2.8-1,5-2.3,5-1.2,0-2.3-2.2-2.3-5v-2.8c0-2.8,1-5,2.3-5,1.2,0,2.3,2.2,2.3,5v2.8Z"/>
        <path class="cls-3" d="m495.8,723.1c0,2.8-1,5-2.3,5s-2.3-2.2-2.3-5v-2.8c0-2.8,1-5,2.3-5s2.3,2.2,2.3,5v2.8Z"/>
        <path class="cls-3" d="m477.3,722.9c0,2.8-1,5-2.3,5-1.2,0-2.3-2.2-2.3-5v-2.8c0-2.8,1-5,2.3-5,1.2,0,2.3,2.2,2.3,5v2.8Z"/>
        <path class="cls-3" d="m514.3,722.9c0,2.8-1,5-2.3,5-1.2,0-2.3-2.2-2.3-5v-2.8c0-2.8,1-5,2.3-5,1.2,0,2.3,2.2,2.3,5v2.8Z"/>
      </g>
      <path class="cls-3" d="m382.9,235.8l-65.3-81.1c-2.9-3.6-8.3-3.6-11.1,0l-65.3,81.1h-95.7v194.3h45c3.1,1.6,10,5.8,7.5,9.6-.6.9-1.1,1.7-1.5,2.6-2.7,2.8-5.3,7.4-5.3,11.4,0,9.1,8.5,16.4,18.9,16.4s18.9-7.4,18.9-16.4c0-4-2.6-8.6-5.3-11.5-.9-1.7-.8-1.5-1.4-2.4-2.6-3.7,4.4-8,7.5-9.7h91.5c-.6-.9-1.1-1.7-1.6-2.6-3.1-3.2-4.9-7.3-4.9-11.7,0-10.2,9.6-18.4,21.5-18.4s21.5,8.2,21.5,18.4c0,4.4-1.8,8.4-4.8,11.6-.5.9-1,1.8-1.6,2.7h66.8v-194.3h-35.3Z"/>
      <path class="cls-10" d="m91,262.3c-2.8-4.3-9.1-4.3-12,0l-51,71.9v98.2h39.7c0-.7-.2-1.4-.7-2.1-.6-.9-1.1-1.8-1.6-2.6-3.1-3.2-4.9-7.3-4.9-11.7,0-10.2,9.6-18.4,21.5-18.4s21.5,8.2,21.5,18.4c0,4.4-1.8,8.4-4.8,11.6-.5.9-1.1,1.9-1.7,2.9-.4.6-.6,1.3-.7,2h45.7v-98.2l-51-72Z"/>
      <rect class="cls-3" x="61.9" y="286.6" width="47.8" height="2"/>
      <rect class="cls-3" x="41.14" y="327.63" width="2" height="104.6"/>
      <rect class="cls-3" x="109.53" y="329.51" width="2" height="104.6"/>
      <rect class="cls-5" x="33.75" y="327.64" width="2" height="104.6"/>
      <rect class="cls-5" x="103.64" y="327.63" width="2" height="104.6"/>
      <path class="cls-5" d="m508.7,455.7c0-2.8-2.2-5-5-5h-4c-2.8,0-5,2.2-5,5v9.3c0,2.8,2.2,5,5,5h4c2.8,0,5-2.2,5-5v-9.3Z"/>
      <path class="cls-5" d="m508.8,486.6c0-2.8-2.2-5-5-5h-4.1c-2.8,0-5,2.2-5,5v4.1c0,2.8,2.2,5,5,5h4.1c2.8,0,5-2.2,5-5v-4.1Z"/>
      <path class="cls-5" d="m508.3,509.1c0-2.8-2.2-5-5-5h-3.2c-2.8,0-5,2.2-5,5v3.2c0,2.8,2.2,5,5,5h3.2c2.8,0,5-2.2,5-5v-3.2Z"/>
      <path class="cls-5" d="m463.2,509.1c0-2.8,2.1-5,4.7-5s4.7,2.2,4.7,5v11.4c0,2.8-2.1,5-4.7,5s-4.7-2.2-4.7-5v-11.4Z"/>
      <path class="cls-5" d="m463.2,462.3c0-2.8,2.1-5,4.7-5s4.7,2.2,4.7,5v11.6c0,2.8-2.1,5-4.7,5s-4.7-2.2-4.7-5v-11.6Z"/>
      <path class="cls-5" d="m441.7,449.2c0-2.8,1.2-5,2.7-5s2.7,2.2,2.7,5v15.8c0,2.8-1.2,5-2.7,5s-2.7-2.2-2.7-5v-15.8Z"/>
      <path class="cls-5" d="m447,496.5c0-2.8,1.5-5,3.4-5s3.4,2.2,3.4,5v9.2c0,2.8-1.5,5-3.4,5s-3.4-2.2-3.4-5v-9.2Z"/>
      <rect class="cls-3" x="411.6" y="441.6" width="4.5" height="12.8"/>
      <rect class="cls-3" x="411.6" y="489.3" width="4.5" height="12.8"/>
      <rect class="cls-3" x="411.7" y="466.4" width="4.5" height="12.8"/>
      <rect class="cls-3" x="411.6" y="511" width="4.5" height="12.8"/>
      <rect class="cls-3" x="247.4" y="595.7" width="4.5" height="37.8"/>
      <path class="cls-5" d="m231.2,563.6c0-2.8,1.2-5,2.7-5s2.7,2.2,2.7,5v15.8c0,2.8-1.2,5-2.7,5s-2.7-2.2-2.7-5v-15.8Z"/>
      <path class="cls-5" d="m230.5,610.9c0-2.8,1.5-5,3.4-5s3.4,2.2,3.4,5v9.2c0,2.8-1.5,5-3.4,5s-3.4-2.2-3.4-5v-9.2Z"/>
      <path class="cls-5" d="m88.1,485.9c-1.9-1.9-2.7-4.4-1.6-5.4s3.5-.3,5.4,1.6l37,37c1.9,1.9,2.7,4.4,1.6,5.4-1,1-3.5.3-5.4-1.6l-37-37Z"/>
      <path class="cls-3" d="m77.6,440.7c-1.9-1.9-2.7-4.4-1.6-5.4,1-1,3.5-.3,5.4,1.6l20.6,20.6c1.9,1.9,2.7,4.4,1.6,5.4-1,1-3.5.3-5.4-1.6l-20.6-20.6Z"/>
      <g>
        <path class="cls-10" d="m677.2,516.9c0,2.8-1,5-2.3,5-1.2,0-2.3-2.2-2.3-5v-2.8c0-2.8,1-5,2.3-5,1.2,0,2.3,2.2,2.3,5v2.8Z"/>
        <path class="cls-10" d="m695.7,516.9c0,2.8-1,5-2.3,5s-2.3-2.2-2.3-5v-2.8c0-2.8,1-5,2.3-5s2.3,2.2,2.3,5v2.8Z"/>
        <path class="cls-10" d="m732.7,516.9c0,2.8-1,5-2.3,5s-2.3-2.2-2.3-5v-2.8c0-2.8,1-5,2.3-5s2.3,2.2,2.3,5v2.8Z"/>
        <path class="cls-10" d="m714.2,516.7c0,2.8-1,5-2.3,5s-2.3-2.2-2.3-5v-2.8c0-2.8,1-5,2.3-5s2.3,2.2,2.3,5v2.8Z"/>
        <path class="cls-10" d="m751.2,516.7c0,2.8-1,5-2.3,5s-2.3-2.2-2.3-5v-2.8c0-2.8,1-5,2.3-5s2.3,2.2,2.3,5v2.8Z"/>
      </g>
      <rect class="cls-3" x="656.3" y="469" width="104.6" height="2"/>
      <path class="cls-5" d="m726.2,716.2l-31.1,18.5c-2.5,1.5-1.4,5.3,1.5,5.3h62.2c2.9,0,4-3.8,1.5-5.3l-31.1-18.5c-1-.5-2.1-.5-3,0Z"/>
      <path class="cls-5" d="m330.3,252.7v145.9c2.3-.9,4.9-1.4,7.7-1.4,10.5,0,18.9,7.4,18.9,16.4,0,3.9.4,8.5-2.3,11.4-.4.8-.9,1.7-1.5,2.6-.6.8-.7,1.7-.5,2.5h59.7v-122.4l-82-55Z"/>
      <g>
        <path class="cls-3" d="m345.4,328.3c0,2.8-1,5-2.3,5-1.2,0-2.3-2.2-2.3-5v-2.8c0-2.8,1-5,2.3-5,1.2,0,2.3,2.2,2.3,5v2.8Z"/>
        <path class="cls-3" d="m363.9,328.3c0,2.8-1,5-2.3,5-1.2,0-2.3-2.2-2.3-5v-2.8c0-2.8,1-5,2.3-5,1.2,0,2.3,2.2,2.3,5v2.8Z"/>
        <path class="cls-3" d="m400.9,328.3c0,2.8-1,5-2.3,5s-2.3-2.2-2.3-5v-2.8c0-2.8,1-5,2.3-5s2.3,2.2,2.3,5v2.8Z"/>
        <path class="cls-3" d="m382.4,328.1c0,2.8-1,5-2.3,5s-2.3-2.2-2.3-5v-2.8c0-2.8,1-5,2.3-5s2.3,2.2,2.3,5v2.8Z"/>
      </g>
      <g>
        <path class="cls-3" d="m346,354.8c0,2.8-1,5-2.3,5s-2.3-2.2-2.3-5v-2.8c0-2.8,1-5,2.3-5s2.3,2.2,2.3,5v2.8Z"/>
        <path class="cls-3" d="m364.5,354.8c0,2.8-1,5-2.3,5s-2.3-2.2-2.3-5v-2.8c0-2.8,1-5,2.3-5s2.3,2.2,2.3,5v2.8Z"/>
        <path class="cls-3" d="m401.6,354.8c0,2.8-1,5-2.3,5-1.2,0-2.3-2.2-2.3-5v-2.8c0-2.8,1-5,2.3-5,1.2,0,2.3,2.2,2.3,5v2.8Z"/>
        <path class="cls-3" d="m383,354.6c0,2.8-1,5-2.3,5-1.2,0-2.3-2.2-2.3-5v-2.8c0-2.8,1-5,2.3-5,1.2,0,2.3,2.2,2.3,5v2.8Z"/>
      </g>
      <g>
        <path class="cls-3" d="m346,381.4c0,2.8-1,5-2.3,5s-2.3-2.2-2.3-5v-2.8c0-2.8,1-5,2.3-5s2.3,2.2,2.3,5v2.8Z"/>
        <path class="cls-3" d="m364.5,381.4c0,2.8-1,5-2.3,5s-2.3-2.2-2.3-5v-2.8c0-2.8,1-5,2.3-5s2.3,2.2,2.3,5v2.8Z"/>
        <path class="cls-3" d="m401.6,381.4c0,2.8-1,5-2.3,5-1.2,0-2.3-2.2-2.3-5v-2.8c0-2.8,1-5,2.3-5,1.2,0,2.3,2.2,2.3,5v2.8Z"/>
        <path class="cls-3" d="m383,381.2c0,2.8-1,5-2.3,5-1.2,0-2.3-2.2-2.3-5v-2.8c0-2.8,1-5,2.3-5,1.2,0,2.3,2.2,2.3,5v2.8Z"/>
      </g>
      <g>
        <path class="cls-3" d="m345.3,301.6c0,2.8-1,5-2.3,5s-2.3-2.2-2.3-5v-2.8c0-2.8,1-5,2.3-5s2.3,2.2,2.3,5v2.8Z"/>
        <path class="cls-3" d="m363.8,301.6c0,2.8-1,5-2.3,5s-2.3-2.2-2.3-5v-2.8c0-2.8,1-5,2.3-5s2.3,2.2,2.3,5v2.8Z"/>
      </g>
      <path class="cls-3" d="m345.3,275.1c0,2.8-1,5-2.3,5s-2.3-2.2-2.3-5v-2.8c0-2.8,1-5,2.3-5s2.3,2.2,2.3,5v2.8Z"/>
      <g>
        <path class="cls-7" d="m221.1,270.5c0,2.8-1,5-2.3,5-1.2,0-2.3-2.2-2.3-5v-2.8c0-2.8,1-5,2.3-5,1.2,0,2.3,2.2,2.3,5v2.8Z"/>
        <path class="cls-7" d="m239.6,270.5c0,2.8-1,5-2.3,5-1.2,0-2.3-2.2-2.3-5v-2.8c0-2.8,1-5,2.3-5,1.2,0,2.3,2.2,2.3,5v2.8Z"/>
        <path class="cls-7" d="m276.7,270.5c0,2.8-1,5-2.3,5s-2.3-2.2-2.3-5v-2.8c0-2.8,1-5,2.3-5s2.3,2.2,2.3,5v2.8Z"/>
        <path class="cls-7" d="m295.2,273.8c0,.9-1,1.7-2.3,1.7s-2.3-1.2-2.3-2.7,1-2.2,2.3-1.7c1.2.5,2.3,1.7,2.3,2.7Z"/>
        <path class="cls-7" d="m258.2,270.3c0,2.8-1,5-2.3,5-1.2,0-2.3-2.2-2.3-5v-2.8c0-2.8,1-5,2.3-5,1.2,0,2.3,2.2,2.3,5v2.8Z"/>
      </g>
      <g>
        <path class="cls-7" d="m221.1,298.5c0,2.8-1,5-2.3,5-1.2,0-2.3-2.2-2.3-5v-2.8c0-2.8,1-5,2.3-5,1.2,0,2.3,2.2,2.3,5v2.8Z"/>
        <path class="cls-7" d="m239.6,298.5c0,2.8-1,5-2.3,5-1.2,0-2.3-2.2-2.3-5v-2.8c0-2.8,1-5,2.3-5,1.2,0,2.3,2.2,2.3,5v2.8Z"/>
        <path class="cls-7" d="m276.7,298.5c0,2.8-1,5-2.3,5s-2.3-2.2-2.3-5v-2.8c0-2.8,1-5,2.3-5s2.3,2.2,2.3,5v2.8Z"/>
        <path class="cls-7" d="m258.2,298.3c0,2.8-1,5-2.3,5-1.2,0-2.3-2.2-2.3-5v-2.8c0-2.8,1-5,2.3-5,1.2,0,2.3,2.2,2.3,5v2.8Z"/>
        <path class="cls-7" d="m295.2,298.3c0,2.8-1,5-2.3,5s-2.3-2.2-2.3-5v-2.8c0-2.8,1-5,2.3-5s2.3,2.2,2.3,5v2.8Z"/>
      </g>
      <g>
        <path class="cls-7" d="m221.1,326.5c0,2.8-1,5-2.3,5-1.2,0-2.3-2.2-2.3-5v-2.8c0-2.8,1-5,2.3-5,1.2,0,2.3,2.2,2.3,5v2.8Z"/>
        <path class="cls-7" d="m239.6,326.5c0,2.8-1,5-2.3,5-1.2,0-2.3-2.2-2.3-5v-2.8c0-2.8,1-5,2.3-5,1.2,0,2.3,2.2,2.3,5v2.8Z"/>
        <path class="cls-7" d="m276.7,326.5c0,2.8-1,5-2.3,5s-2.3-2.2-2.3-5v-2.8c0-2.8,1-5,2.3-5s2.3,2.2,2.3,5v2.8Z"/>
        <path class="cls-7" d="m258.2,326.3c0,2.8-1,5-2.3,5-1.2,0-2.3-2.2-2.3-5v-2.8c0-2.8,1-5,2.3-5,1.2,0,2.3,2.2,2.3,5v2.8Z"/>
        <path class="cls-7" d="m295.2,326.3c0,2.8-1,5-2.3,5s-2.3-2.2-2.3-5v-2.8c0-2.8,1-5,2.3-5s2.3,2.2,2.3,5v2.8Z"/>
      </g>
      <g>
        <path class="cls-7" d="m221.1,354.5c0,2.8-1,5-2.3,5-1.2,0-2.3-2.2-2.3-5v-2.8c0-2.8,1-5,2.3-5,1.2,0,2.3,2.2,2.3,5v2.8Z"/>
        <path class="cls-7" d="m239.6,354.5c0,2.8-1,5-2.3,5-1.2,0-2.3-2.2-2.3-5v-2.8c0-2.8,1-5,2.3-5,1.2,0,2.3,2.2,2.3,5v2.8Z"/>
        <path class="cls-7" d="m276.7,354.5c0,2.8-1,5-2.3,5s-2.3-2.2-2.3-5v-2.8c0-2.8,1-5,2.3-5s2.3,2.2,2.3,5v2.8Z"/>
        <path class="cls-7" d="m258.2,354.3c0,2.8-1,5-2.3,5-1.2,0-2.3-2.2-2.3-5v-2.8c0-2.8,1-5,2.3-5,1.2,0,2.3,2.2,2.3,5v2.8Z"/>
        <path class="cls-7" d="m295.2,354.3c0,2.8-1,5-2.3,5s-2.3-2.2-2.3-5v-2.8c0-2.8,1-5,2.3-5s2.3,2.2,2.3,5v2.8Z"/>
      </g>
      <rect class="cls-10" x="145.5" y="211.7" width="45" height="218.4"/>
      <path class="cls-5" d="m348.9,430.2c.6-.9,1.1-1.7,1.5-2.6,2.7-2.8,5.9-5.6,5.3-11.4-1-9-8.5-16.4-18.9-16.4s-19.3,7.4-18.9,16.4c.2,5.7,2.6,8.6,5.3,11.5.9,1.7.8,1.5,1.4,2.4,1,1.4.3,1.1-.8,2.5l-47,1.8v41.3h78.8c2.1-9.3,9.2-16.1,17.8-16.1,4.4,0,8.4,1.8,11.6,4.8.9.5,1.9,1.1,2.9,1.7.8.5,1.5.7,2.3.7v-32.4l-40.1-1.1c-.9-1.4-2.2-1.7-1.2-3.1Z"/>
      <path class="cls-9" d="m229.7,430.1h82.5v-60.2h-121.7v60.2c3.1,1.6,10,5.8,7.5,9.6-.6.9-1.1,1.7-1.5,2.6-2.7,2.8-5.3,7.4-5.3,11.4,0,9.1,8.5,16.4,18.9,16.4s18.9-7.4,18.9-16.4c0-4-2.6-8.6-5.3-11.5-.9-1.7-.8-1.5-1.4-2.4-2.6-3.8,4.3-8.1,7.4-9.7Z"/>
      <polygon class="cls-9" points="312.2 433 276.8 434.5 276.8 478.7 312.2 478.7 312.2 433"/>
      <rect class="cls-3" x="297.5" y="433" width="4.5" height="37.8"/>
      <rect class="cls-3" x="297.5" y="380" width="4.5" height="37.8"/>
      <path class="cls-5" d="m281.3,400.9c0-2.8,1.2-5,2.7-5s2.7,2.2,2.7,5v15.8c0,2.8-1.2,5-2.7,5s-2.7-2.2-2.7-5v-15.8Z"/>
      <path class="cls-5" d="m280.6,448.2c0-2.8,1.5-5,3.4-5s3.4,2.2,3.4,5v9.2c0,2.8-1.5,5-3.4,5s-3.4-2.2-3.4-5v-9.2Z"/>
      <path class="cls-5" d="m256.5,407.4c0-2.8-2.2-5-5-5h-4c-2.8,0-5,2.2-5,5v9.3c0,2.8,2.2,5,5,5h4c2.8,0,5-2.2,5-5v-9.3Z"/>
      <path class="cls-5" d="m256.7,383.2c0-2.8-2.2-5-5-5h-4.1c-2.8,0-5,2.2-5,5v4.1c0,2.8,2.2,5,5,5h4.1c2.8,0,5-2.2,5-5v-4.1Z"/>
      <path class="cls-5" d="m256.3,440.2c0-2.8-2.2-5-5-5h-3.2c-2.8,0-5,2.2-5,5v3.2c0,2.8,2.2,5,5,5h3.2c2.8,0,5-2.2,5-5v-3.2Z"/>
      <path class="cls-10" d="m222.2,522.9c.6-.9,1.1-1.7,1.5-2.6,2.7-2.8,5.3-7.4,5.3-11.4,0-9.1-8.5-16.4-18.9-16.4s-18.9,7.4-18.9,16.4c0,4,2.6,8.6,5.3,11.5.9,1.7.8,1.5,1.4,2.4,2.6,3.8-4.6,8.1-7.7,9.7h-46.7v26h130.5v-26h-44.1c-3.1-1.5-10.3-5.7-7.7-9.6Z"/>
      <rect class="cls-3" x="247.4" y="542.7" width="4.5" height="37.8"/>
      <path class="cls-4" d="m394.1,575v60h111.8v-36.7c-1.3-.5-2.6-.4-3.7.3-.9.6-1.8,1.1-2.6,1.5-3.2,2.9-7.3,4.7-11.7,4.7-10.2,0-18.4-9.1-18.4-20.3,0-3.4.8-6.6,2.1-9.4h-77.5v-.1Z"/>
      <rect class="cls-4" x="533.5" y="531.6" width="10.9" height="101.9"/>
      <path class="cls-3" d="m625.2,397.1c-4.1-3.9-6.7-9.9-6.7-16.6,0-11.9,8.2-21.5,18.4-21.5,4.4,0,8.4,1.8,11.6,4.8.9.5,1.9,1.1,2.9,1.7.1.1.2.1.3.2.7-2.7.8-5.6.3-8.9-1-7.4,2.1-13.6,6.6-18.7v-6.1h-39.3c-1-.6-2-1.4-2.9-2.2-11,6.8-24.5,12.1-34.8,11.5-8.2-.5-15.6-4.7-21.5-9.3h-9.3v98h43.2c12.2-14.3,22.6-24.7,31.2-32.9Z"/>
      <path class="cls-5" d="m659.5,635v-49.7c-10.7,6.3-33.5,36.5-33.5,36.5,0,0-33.4-28.2-31.7-16.9,1.3,8.5-12.9,23.3-20.1,30.1h85.3Z"/>
      <path class="cls-10" d="m580.4,514.2c.7,3.4,2.9,7.1,5.1,9.4.9,1.7.8,1.5,1.4,2.4,1.7,2.4-.6,5-3.3,7h-14.6l-3.4,19.6-21.2,12.7v34.2l17-15.6,55.3,36.3s-1.9-29.3-12.1-34.9-3.6-21.9,16.4-17.5,19.6-15.1,19.6-15.1c0,0,.9-19.6-26.3-19.6-16.2-.1-27.5-10.6-33.9-18.9Z"/>
      <path class="cls-10" d="m616.5,797.4c7.8-22.7,3-45.3-1.2-49.6s-30,13.4-37.8,36.1c-7.8,22.7-.3,42.7,9.4,46.1,9.7,3.3,21.7-9.9,29.6-32.6Z"/>
      <path class="cls-2" d="m579.9,839.8s9.1-40.8,18-52"/>
      <path class="cls-10" d="m568.9,831c6.5-4.9,3.1-18.5-8.3-33.5-11.4-15-28.2-21.7-32.8-20.9-4.4.8-4.4,22.7,5.2,37.8,1.9-.8,3.6-2,5.1-3.5.9-.5,1.8-1,2.6-1.6,2.8-2,6.2.7,8.8,3.6v16.8c7.9,4,15.5,4.3,19.4,1.3Z"/>
      <path class="cls-2" d="m572.3,839.8s-22.6-23.7-26-34.4"/>
      <path class="cls-3" d="m457.2,597.6s-4.3-33.3-19.6-36.6"/>
      <path class="cls-8" d="m448.9,536.9c.3,7.6.6,15.3.9,22.9-.3,3.2-.6,6.4-.9,9.6-.8-.5-1.8-.8-2.3-1.5-5.1-6.5-10.1-13-15.2-19.5-.9-1.1-1.9-3.3-3.6-2.2-1.4.8-.9,3-.2,4.4,1.3,2.7,2.7,5.4,4.5,7.8,4.6,6.3,9.5,12.5,14.3,18.8-5,.2-16.2-3-17.4-2.8-12.2-4.5-20.5-13.9-28.4-23.7-3.4-4.2-1.9-6.8,3.2-7.9,7.4-1.4,38.8-5.6,45.1-5.9Z"/>
      <path class="cls-6" d="m446.3,577.2c-4.8-6.3-9.6-12.4-14.3-18.8-1.8-2.4-3.2-5.1-4.5-7.8-.7-1.4-1.1-3.6.2-4.4,1.7-1.1,2.7,1.1,3.6,2.2,5.1,6.5,10.1,13,15.2,19.5.5.7,1.5,1,2.3,1.5.8,3.2,1.5,6.4,2.3,9.5-.3,2.3-1.8.9-2.8,1-.6-.9-1.3-1.8-2-2.7Z"/>
      <path class="cls-10" d="m549.1,261.3c2.8.9,5.8,1.3,8.9,1.3,16.4,0,29.7-13.3,29.7-29.7,0-3.1-.5-6-1.3-8.8h-37.2v37.2h-.1Z"/>
      <g>
        <path class="cls-11" d="m508.4,99.4c.7-.2,1.3-.4,2-.7-.7.2-1.4.4-2,.7Z"/>
        <path class="cls-11" d="m518.9,79.7c-.6.2-1.2.5-1.8.7.6-.3,1.2-.5,1.8-.7Z"/>
        <path class="cls-11" d="m525.7,80.7c.4.2.7.4,1.1.6-.4-.2-.8-.4-1.1-.6Z"/>
        <path class="cls-3" d="m567.6,50.1c-2.5.4-4.3,2-5.6,3.7-3.2,4.2-13.1,10-13.6,10.3-.2.1-.3,1.6.6,1.3,1.3.1,2.5.6,3.9-.5.3-.1.6-.3.9-.4,2.9-.8,5.5-2.2,7.7-4.3.5-.4,4.7-6,6.3-8.3,1.1-1,1.3-1.7-.2-1.8Z"/>
        <path class="cls-9" d="m675.4,22.8c-2.4-.1-4.3,1.3-5.8,2.8-3.5,3.7-13.7,7.8-14.1,8-.2.1-.5,1.6.5,1.4,1.2.3,2.4,1.1,3.8.2.3-.1.6-.2.9-.2,2.9-.2,5.5-1.2,7.9-3,.5-.4,5.1-5.2,6.9-7.3,1-.7,1.3-1.4-.1-1.9Z"/>
        <path class="cls-11" d="m439.6,64.2c.6-.1,1.2-.2,1.8-.2-.6,0-1.2.1-1.8.2Z"/>
        <path class="cls-11" d="m432.7,65.6c-.5,0-.9,0-1.4.1.4,0,.9-.1,1.4-.1Z"/>
        <path class="cls-5" d="m702.7,191.5c-1.4-1.9-3.7-2.5-5.7-2.7-5.1-.4-14.5-5.6-15-5.8-.2-.1-1.5.6-.8,1.3.5,1.2.6,2.5,2.2,3.1.3.2.5.4.8.6,2,2.1,4.4,3.5,7.2,4.2.6.2,7.2.6,9.9.7,1.2.2,1.9,0,1.4-1.4Z"/>
        <path class="cls-11" d="m434,71.5c.3.1.6.2.9.3-.2-.1-.5-.2-.9-.3Z"/>
        <path class="cls-9" d="m446.2,63.3c-2.8-.9-5.7-.7-8.2-.2-6.1,1.1-20,.2-20.6.2-.3,0-1.4.8-.2,1.1,1.2.6,2.2,1.5,4.3,1.4.4.1.8.1,1.2.2,3.5.9,7.1,1.1,10.7.8.8-.1,8.7-1.5,11.9-2.2,1.7-.2,2.4-.5.9-1.3Z"/>
        <path class="cls-11" d="m480.8,85.3c.7.2,1.4.4,2.1.6-.7-.2-1.4-.4-2.1-.6Z"/>
        <path class="cls-11" d="m475,78.8c-.5-.1-1.1-.1-1.6-.2.5.1,1,.1,1.6.2Z"/>
        <path class="cls-5" d="m507.5,154.8c-2.3-1.8-5-2.6-7.5-2.9-6-.9-18.5-6.4-19.1-6.6-.3-.1-1.6.3-.6,1,.9,1,1.5,2.2,3.5,2.8.4.2.7.4,1.1.6,2.9,2,6.1,3.4,9.6,4.3.7.2,8.6,1.4,11.7,1.8,1.6.2,2.4.2,1.3-1Z"/>
        <path class="cls-11" d="m458.7,122.3c.3.2.6.4.8.5-.2-.2-.5-.4-.8-.5Z"/>
        <path class="cls-3" d="m352.8,135.8c-2.6,0-4.9,1.4-6.7,2.8-4.3,3.5-15.9,7.6-16.4,7.9-.2.1-.7,1.4.3,1.3,1.3.3,2.4.9,4.1,0,.3-.1.7-.2,1-.3,3.2-.3,6.2-1.4,9-3.1.6-.4,6.3-4.9,8.5-6.9,1.3-.8,1.7-1.4.2-1.7Z"/>
        <path class="cls-11" d="m369,90c.7.2,1.3.4,1.9.6-.6-.2-1.2-.4-1.9-.6Z"/>
        <path class="cls-11" d="m355.7,78.4c-.4.3-.9.6-1.3.8.4-.2.9-.5,1.3-.8Z"/>
        <path class="cls-11" d="m372.2,107.4c.4.1.7.2,1.1.3-.4-.1-.7-.2-1.1-.3Z"/>
        <path class="cls-10" d="m333.8,178.1c-3,.1-5.8,1.2-8,2.3-5.6,2.9-19.4,6.4-20,6.6-.3.1-1.1,1.2.1,1,1.4.2,2.6.7,4.6,0,.4-.1.8-.1,1.2-.2,3.7-.3,7.2-1.2,10.7-2.6.8-.3,8-4.1,10.9-5.7,1.6-.7,2.2-1.2.5-1.4Z"/>
        <path class="cls-3" d="m465.9,48.1c-2.6-.9-5.5-.7-7.8-.2-5.8,1.2-19.1.3-19.7.3-.3,0-1.3.9-.2,1.2,1.2.7,2.1,1.6,4.1,1.5.4.1.8.1,1.2.2,3.3.9,6.7,1.2,10.2.8.8-.1,8.3-1.7,11.3-2.5,1.5-.2,2.2-.5.9-1.3Z"/>
        <path class="cls-9" d="m23,406.9c-2-1.4-4.3-1.2-6.3-.7-4.9,1.3-15.5-.6-16-.7-.2-.1-1.2,1.1-.4,1.5.8.9,1.4,2.2,3.1,2.2.3.1.6.2.9.3,2.5,1.4,5.3,1.9,8.2,1.6.6,0,7-1.7,9.6-2.6,1.3-.1,1.9-.5.9-1.6Z"/>
        <path class="cls-3" d="m449,195.9c-2.5-1.7-5.4-2.5-7.9-2.9-6.3-1-19.6-6.5-20.2-6.7-.3-.1-1.6.3-.5.9,1,1,1.7,2.1,3.8,2.7.4.2.8.4,1.1.6,3.2,1.9,6.6,3.4,10.2,4.3.8.2,9,1.5,12.2,2,1.7.3,2.5.2,1.3-.9Z"/>
        <path class="cls-9" d="m253.9,692.1c-2.8-.1-5.6.8-7.7,1.9-5.4,2.7-18.7,5.5-19.3,5.7-.3,0-1.1,1.2.1,1.1,1.3.3,2.5.9,4.5.3.4-.1.8-.1,1.2-.2,3.5-.1,6.9-.7,10.3-2,.7-.3,7.7-3.9,10.5-5.4,1.4-.5,2-1,.4-1.4Z"/>
        <path class="cls-5" d="m639.3,288c-2.4-.1-4.2,1.3-5.6,2.8-3.3,3.8-13.1,7.9-13.5,8.1-.2.1-.4,1.6.5,1.5,1.2.4,2.4,1.1,3.8.2.3-.1.6-.2.9-.2,2.8-.2,5.4-1.2,7.6-3,.5-.4,4.8-5.3,6.5-7.4,1-.9,1.2-1.6-.2-2Z"/>
        <path class="cls-3" d="m279.8,298.1c-2.5-.7-5.1-.1-7.1.7-5.1,2.1-17.4,2.7-17.9,2.8-.3,0-1.1,1.2,0,1.3,1.2.6,2.1,1.6,4,1.2.4,0,.7,0,1.1.1,3.1.6,6.3.5,9.4-.4.7-.2,7.4-2.9,10.1-4.2,1.2-.3,1.8-.8.4-1.5Z"/>
        <path class="cls-9" d="m328.8,593.2c-2.4-.8-4.8-.2-6.8.7-4.9,2.2-16.6,2.6-17.1,2.7-.2,0-1.1,1.2-.1,1.4,1.1.7,2,1.7,3.8,1.4.3,0,.7,0,1,.1,3,.7,6,.6,9-.2.7-.2,7.1-3,9.6-4.3,1.3-.5,1.9-1,.6-1.8Z"/>
        <path class="cls-3" d="m423.4,578.8c-1.8-1.5-4.1-1.5-6.1-1.1-4.9,1.1-15.2-1.5-15.6-1.5-.2-.1-1.3,1-.5,1.5.8,1,1.2,2.3,2.9,2.4.3.1.6.2.9.3,2.4,1.5,5,2.2,7.9,2.1.6,0,7-1.4,9.6-2.1,1.1,0,1.8-.4.9-1.6Z"/>
        <path class="cls-9" d="m516.8,309.9c-2.3-.6-4.3.3-6,1.5-4,2.9-14.4,4.7-14.8,4.9-.2,0-.8,1.5.2,1.6,1.1.6,2,1.7,3.6,1.1h.9c2.8.4,5.5,0,8-1.2.6-.2,5.8-4.1,7.9-5.8,1.1-.7,1.5-1.4.2-2.1Z"/>
        <path class="cls-5" d="m393.5,319.8c-2.1-1.5-4.7-1.9-7-1.8-5.6.2-17.3-3.4-17.8-3.5-.2-.1-1.5.7-.5,1.2.9,1,1.4,2.2,3.3,2.5.3.1.7.3,1,.4,2.8,1.7,5.8,2.6,9,2.9.7.1,8-.2,10.9-.4,1.4.1,2.1-.1,1.1-1.3Z"/>
        <path class="cls-3" d="m456.4,762.1c-2.7.4-5,2-6.8,3.5-4.3,3.9-16.1,9.4-16.6,9.7-.3.1-.7,1.4.4,1.2,1.3.1,2.6.5,4.3-.6.4-.1.7-.3,1.1-.4,3.3-.8,6.3-2.1,9.1-4.1.6-.4,6.3-5.5,8.5-7.7,1.2-.9,1.6-1.6,0-1.6Z"/>
        <path class="cls-11" d="m624.2,157c.7-.3,1.3-.5,2-.8-.7.3-1.4.6-2,.8Z"/>
        <path class="cls-5" d="m622.5,775.9c-2.5-.4-4.8.6-6.6,1.8-4.5,3-15.8,5.5-16.3,5.7-.2,0-.8,1.4.2,1.4,1.2.5,2.2,1.3,3.9.7.3,0,.7-.1,1-.1,3.1.2,6-.4,8.8-1.8.6-.3,6.4-4.2,8.7-5.9,1.2-.6,1.7-1.2.3-1.8Z"/>
        <path class="cls-3" d="m759,121.9c-1.8-1.8-4.3-2.5-6.5-2.7-5.5-.5-16.4-5.6-16.9-5.8-.2-.1-1.5.5-.7,1.2.7,1.1,1,2.4,2.8,2.9.3.2.6.4.9.5,2.4,2,5.2,3.4,8.3,4.1.7.2,7.8.8,10.7.9,1.5.4,2.2.2,1.4-1.1Z"/>
        <path class="cls-9" d="m121.9,165.3c-2-1.3-4.4-1.1-6.3-.5-4.9,1.4-15.6-.1-16.1-.1-.2,0-1.2,1.1-.3,1.5.9.9,1.5,2.2,3.2,2.1.3.1.6.2.9.3,2.6,1.3,5.4,1.7,8.2,1.4.6-.1,7-2,9.6-2.9,1.2-.3,1.8-.7.8-1.8Z"/>
        <path class="cls-10" d="m724.7,44c-2.9,0-5.6,1-7.8,2.1-5.4,2.9-18.9,6-19.5,6.2-.3.1-1.1,1.2.1,1.1,1.4.3,2.5.8,4.5.1.4-.1.8-.1,1.2-.2,3.6-.2,7-1,10.4-2.3.7-.3,7.8-4,10.6-5.6,1.5-.6,2.1-1.1.5-1.4Z"/>
        <path class="cls-11" d="m675.8,564.1c.6-.3,1.2-.5,1.7-.8-.5.3-1.1.6-1.7.8Z"/>
        <path class="cls-5" d="m116.6,564.5c-2.6-.3-5.1.6-7,1.8-4.8,2.8-17,5.3-17.5,5.4-.3,0-.9,1.3.1,1.3,1.2.4,2.3,1.2,4.1.6.4,0,.7-.1,1.1-.1,3.2.1,6.4-.5,9.4-1.8.7-.3,7-4,9.5-5.6,1.3-.5,1.8-1.1.3-1.6Z"/>
        <path class="cls-3" d="m45,333.7c-2.7-.9-5.6-.7-8-.3-6,1.1-19.7.1-20.3.1-.3,0-1.4.8-.2,1.1,1.2.7,2.1,1.6,4.3,1.5.4.1.8.1,1.2.2,3.4.9,6.9,1.2,10.5.9.8,0,8.6-1.5,11.7-2.2,1.5-.2,2.2-.5.8-1.3Z"/>
        <path class="cls-9" d="m555.2,297.8c-1.9-1.3-4.1-1.1-5.9-.4-4.6,1.6-14.6.1-15,.1-.2,0-1.2,1.2-.3,1.6.8,1,1.3,2.3,2.9,2.2.3.1.6.2.9.3,2.4,1.3,5,1.8,7.7,1.3.6-.1,6.6-2.2,9-3.2,1-.3,1.6-.8.7-1.9Z"/>
        <path class="cls-10" d="m681.2,274c-2.4-1.3-5.2-1.3-7.5-1.1-5.8.7-18.4-1.7-19-1.8-.3-.1-1.4.8-.4,1.2,1,.8,1.8,1.9,3.8,2,.4.1.7.2,1.1.3,3.1,1.3,6.3,2,9.7,1.9.7,0,8.2-.9,11.2-1.4,1.6.2,2.3-.1,1.1-1.1Z"/>
        <path class="cls-11" d="m226.1,204.7c.7-.1,1.3-.2,2-.3-.7.1-1.4.2-2,.3Z"/>
        <path class="cls-11" d="m701.1,283.8c-.5.1-1,.2-1.5.2.5,0,1-.1,1.5-.2Z"/>
        <path class="cls-11" d="m468.2,0c.4.2.8.4,1.1.6-.3-.2-.7-.4-1.1-.6Z"/>
        <path class="cls-3" d="m506.6,296.6c-2.5-1.3-5.3-1.5-7.6-1.4-5.9.4-18.8-2.5-19.4-2.6-.3-.1-1.5.7-.4,1.1,1.1.9,1.8,1.9,3.8,2.1.4.1.7.2,1.1.3,3.1,1.4,6.4,2.2,9.9,2.3.8.1,8.4-.5,11.5-.8,1.6.3,2.3,0,1.1-1Z"/>
        <path class="cls-9" d="m165.1,235.6c-2.6-.3-5,.7-7,1.8-4.8,2.9-16.8,5.4-17.3,5.6-.3,0-.9,1.3.2,1.3,1.2.4,2.3,1.2,4.1.6.4,0,.7-.1,1.1-.1,3.2.1,6.3-.5,9.3-1.8.7-.3,6.9-4.1,9.3-5.7,1.3-.6,1.8-1.2.3-1.7Z"/>
        <path class="cls-10" d="m129.4,322c-2.6-1.5-5.6-2-8.1-2.1-6.3-.4-20-4.5-20.6-4.6-.3-.1-1.6.4-.4.9,1.1.9,1.8,1.9,4,2.4.4.1.8.3,1.2.4,3.3,1.6,6.8,2.7,10.5,3.3.8.1,9,.6,12.3.7,1.6.1,2.3,0,1.1-1Z"/>
      </g>
    </g>
  </g>
</svg>