<svg width="1280" height="2180" viewBox="0 0 1280 2180" fill="none" xmlns="http://www.w3.org/2000/svg">
<path fill-rule="evenodd" clip-rule="evenodd" d="M855.524 97.6144C455.594 7.5676 185.846 -37.8836 13.9983 39.3998C-191.086 131.63 -233.285 374.095 -325.072 583.289C-416.952 792.694 -250.639 1024.72 -171.159 1239.37C-107.379 1411.63 -16.8582 1562.32 91.797 1709.15C207.999 1866.19 308.373 2046.79 484.697 2125.69C670.689 2208.91 879.494 2178.59 1080.76 2151.67C1314.04 2120.46 1620.21 2160.8 1745.58 1957C1875.93 1745.1 1673.54 1476.78 1649.22 1227.61C1631.92 1050.36 1664.7 877.746 1623.35 704.728C1574.15 498.907 1673.41 333.271 1505.04 210.043C1336.32 86.5615 1116.05 156.274 855.524 97.6144Z" fill="#1A2933"/>
</svg>

