<svg width="320" height="3026" viewBox="0 0 320 3026" fill="none" xmlns="http://www.w3.org/2000/svg">
<path fill-rule="evenodd" clip-rule="evenodd" d="M-90.7079 132.836C534.497 10.2982 956.191 -51.553 1224.84 53.6162C1545.45 179.126 1611.41 509.078 1754.9 793.754C1898.54 1078.72 1638.54 1394.46 1514.29 1686.57C1414.59 1920.98 1273.08 2126.04 1103.22 2325.86C921.56 2539.56 327.275 2820.68 51.629 2928.04C-239.13 3041.29 -302.859 3040.71 -617.498 3004.07C-982.173 2961.6 -1286.13 2940.47 -1482.13 2663.13C-1685.9 2374.78 -1369.51 2009.64 -1331.49 1670.56C-1304.44 1429.36 -1355.69 1194.46 -1291.04 959.012C-1214.13 678.925 -1369.29 453.523 -1106.08 285.832C-842.328 117.795 -497.985 212.661 -90.7079 132.836Z" fill="#1A2933"/>
</svg>
