<svg width="768" height="3400" viewBox="0 0 768 3400" fill="none" xmlns="http://www.w3.org/2000/svg">
<path fill-rule="evenodd" clip-rule="evenodd" d="M104.62 149.254C813.51 11.571 1291.65 -57.9247 1596.25 60.243C1959.77 201.265 2034.57 571.998 2197.27 891.859C2360.13 1212.04 2065.33 1566.81 1924.45 1895.02C1811.4 2158.4 1650.95 2388.81 1458.35 2613.33C1252.38 2853.43 578.55 3169.3 266.009 3289.94C-63.668 3417.18 -135.927 3416.53 -492.682 3375.36C-906.169 3327.64 -1250.81 3303.9 -1473.04 2992.28C-1704.09 2668.29 -1345.35 2258.02 -1302.24 1877.03C-1271.57 1606.03 -1329.68 1342.09 -1256.38 1077.54C-1169.18 762.837 -1345.1 509.577 -1046.66 321.16C-747.605 132.354 -357.172 238.945 104.62 149.254Z" fill="#1A2933"/>
</svg>
