<svg width="411" height="2943" viewBox="0 0 411 2943" fill="none" xmlns="http://www.w3.org/2000/svg">
<path fill-rule="evenodd" clip-rule="evenodd" d="M-51.0319 129.193C591.171 10.0157 1024.33 -50.1389 1300.28 52.1456C1629.61 174.212 1697.37 495.115 1844.76 771.982C1992.3 1049.13 1725.24 1356.21 1597.61 1640.31C1495.19 1868.29 1349.83 2067.73 1175.35 2262.06C988.759 2469.9 378.315 2743.31 95.1749 2847.73C-203.489 2957.87 -268.951 2957.31 -592.145 2921.67C-966.735 2880.37 -1278.95 2859.82 -1480.28 2590.08C-1689.6 2309.64 -1364.6 1954.52 -1325.55 1624.74C-1297.76 1390.16 -1350.41 1161.7 -1284 932.707C-1205 660.303 -1364.38 441.084 -1094.01 277.992C-823.087 114.564 -469.382 206.828 -51.0319 129.193Z" fill="#1A2933"/>
</svg>
