<?xml version="1.0" encoding="utf-8"?>
<!-- Generator: Adobe Illustrator 27.5.0, SVG Export Plug-In . SVG Version: 6.00 Build 0)  -->
<svg version="1.1" id="Ebene_1" xmlns="http://www.w3.org/2000/svg" xmlns:xlink="http://www.w3.org/1999/xlink" x="0px" y="0px"
	 viewBox="0 0 1024 1024" enable-background="new 0 0 1024 1024" xml:space="preserve">
<g>
	<path fill="#B9D3FF" d="M960,723.1c-0.4,2.5,1.3,3.5,3,4.6c4.1,2.6,7.9,5.7,10.2,10c5.4,9.6,3.2,18.6-2.7,27.1
		c-7.8,11.2-18.8,18.6-30.5,25.1c-19.7,10.8-40.4,19.2-61.6,26.3c-21.9,7.3-44.1,13.1-66.5,18.8c-1.5-1.5-1.8-0.2-2.1,0.9
		c-8.4,0.1-16.3,2.8-24.3,4.5c-20.6,4.1-41.2,8.1-62,10.7c-15.9,2-31.7,4.8-47.6,6.6c-8.2,0.9-16.5,1.2-24.7,2.1
		c-9,1-18.1,1.5-27.2,2.2c-0.7-1-1.3-1-1.9,0c-5.4,0.3-10.7,0.6-16.1,1c-0.7-1-1.3-1-1.9,0.1c-12.7,0.6-25.3,1.2-38,1.9
		c-2.7-1.4-5.3-1.5-8,0c-1,0-2,0-3.1,0.1c-1-1.3-2-1.3-2.9,0c-25,0-50,0-75.1,0c-1.6-1.5-3.3-1.5-4.9,0c-19-0.7-38-1.3-56.9-2.2
		c-6.1-0.3-12-2.2-18.1-1.8c-1-1.3-1.9-1.3-2.9,0c-9.6-1.4-19.3-2.3-29-2.1c-0.2-1.2-0.5-2.4-1.9-0.8c-2-0.1-4-0.2-6-0.3
		c-0.6-2-1.5-2.5-3.1-0.9c-8.4-0.7-16.9-0.7-25.1-2.4c-4.6-1-9.3-1.6-14-2.5c-0.6-1.1-1.2-1.1-1.9-0.1c-2-0.3-4.1-0.7-6.1-1
		c-0.7-1.2-1.8-1-2.9-0.8c-16.2-1.2-32.1-4.6-48.1-7.5c-19.7-3.5-39.4-7.1-58.7-12.5c-19.5-5.4-38.9-11-58-17.9
		c-20.3-7.3-40.1-15.7-58.5-27c-11-6.7-20.9-14.8-27.8-26c-4.6-7.5-5-19.6,4.7-27.9c2.4-2.1,6.7-3,6.3-7.6c1.2-1.6,3.6-0.5,4.9-2
		c0.7,1.1,1.5,0.9,2.6,0.4c10.9-4.5,22.2-7.7,33.8-9.8c14.8-2.8,29.5-6,44.6-6.5c-1,7.3-1.4,14.6-2.9,21.9c-0.6,2.8,0.9,5.3,3.8,5.1
		c2.3-0.1,5.8-0.7,5.3-4.4c-0.6-4.5,0.7-8.9,1.3-13.2c0.7-4.4-0.5-9.1,1.5-13.3c1.3,1.7,3,2.1,5.1,2.1c4.9-0.2,9.8-0.1,14.6-0.1
		c1.1,1.8,2.2,3.7,3.3,5.4c1.3,2,2.3,4.7,5.6,3.3c3.1-1.4,2.7-4.1,2.1-6.7c-0.2-0.9-0.6-1.9-0.9-2.8c4.9-2.3,10.2-0.6,15.3-1.2
		c4.3,2.1,8.2,0.8,12.1-1.1c4.7,2.5,9.3,5.1,14.6,6c2.4,0.4,3.1,1.4,3.6,3.8c0.9,4.3,2.5,8.5,3.9,12.7c0.9,2.7,2.9,3.5,5.5,2.9
		c2.8-0.6,2.6-2.8,2.3-4.7c-0.6-3.2-0.8-6.5-2.4-9.5c-0.8-1.5-1-3.2,1.4-3c6.5,0.6,12.7-1.4,19.1-2c1.7,1.7,3.8,0.9,5.7,0.9
		c22.3,0,44.7-0.6,66.9,0.2c11.1,0.4,21.7-2.2,32.3-3.9c12.9-2.1,25.9-3.2,38.9-4.1c9.7-0.7,19.2-3.3,29-2.5c3,0.2,6.2-0.9,9.4-0.8
		c1.5,0.1,2.7-0.3,2.8-2.1c16.7,1.9,33.4,4.1,50.3,4c3.3,0,2.7,2.2,2.7,4.1c0,13.1,0.1,26.3-0.1,39.4c0,3.3,0.7,4.9,4.4,4.6
		c3.3-0.3,6.7-0.3,10,0c3.7,0.4,4.9-0.9,4.8-4.7c-0.2-12.6,0.2-25.3-0.2-37.9c-0.1-4.6,1.4-5.6,5.6-5.4c6.5,0.3,13,0.4,19.4-0.1
		c10.3-0.7,20.6-2,30.9-3.1c3.8,2,8.2,2.3,12.2,2.7c9.5,0.9,19.2,1.2,28.7,2.3c10.2,1.2,20.3,2.6,30.5,3.5
		c9.3,0.8,18.1,3.9,27.6,3.7c21.3-0.3,42.6-0.1,64-0.1c1.7,0,3.7,0.7,5.2-1c7.8,3.8,16.2,0.9,24.5,2.4c-1.3,4.3-3.1,8.3-3.5,12.7
		c-0.2,2.1,0.2,4.8,2.5,4.6c2.1-0.2,5.7,0.3,6.2-2.8c0.6-3.3,2.2-6.3,2.9-9.6c0.5-2.6,0-6.9,3.7-8.1c5.3-1.7,9.8-4.8,14.6-7.5
		c1.9,4.2,5.5,1.4,8.2,2.1c1.3,1.5,2.6,1.5,3.9,0.1c9.3,0.5,18.6,1.5,28,1.1c0.3,1.3-0.6,2.2-1.2,3.1c-2.1,2.7-2.9,5.9,0.5,7.3
		c2.6,1,6.2-0.1,7.3-3.7c0.7-2.2,2.1-3.9,3.3-5.8c4.7,3.8,9.8,2.1,14.9,1.1c0.1,1.3-0.2,2.8,0.4,3.9c1.4,3-0.6,7.7,3.3,9.1
		c3.9,1.4,4.8,3.6,5,7.1c0.1,1.8,1.1,3.5,1.3,5.2c0.3,2.9,1.6,4.4,4.5,3.8c2.6-0.5,4.8-1.7,4-5c-0.5-2.4-1.1-4.9-1.4-7.3
		c-0.4-4.6-4-8.7-1.9-13.6c2,0,4-0.3,6,0c13.6,1.9,27.4,2.7,40.5,7.4c8.2,2.9,17.1,2.7,25.3,5.5c1.7,0.6,3.5,3.2,5.7,0.6
		C955,722.9,956.9,724.5,960,723.1z M115,749c-1.1,0.1-2.8-0.5-3,1.8c-0.2,2.3,1.5,2.7,3,3c1.7,0.3,2.7-0.8,3-2.5
		C118.3,749.2,116.9,749,115,749z M105.9,749c-1,0.2-2.9-0.4-2.8,2c0,1.7,0.6,3.4,2.4,2.7c1.2-0.5,3.6,0,3.7-2.4
		C109.1,749.2,107.8,748.9,105.9,749z"/>
	<path fill="#1A2933" d="M576.9,695.9c-10.3,1-20.6,2.3-30.9,3.1c-6.5,0.5-13,0.4-19.4,0.1c-4.2-0.2-5.7,0.8-5.6,5.4
		c0.4,12.6,0,25.3,0.2,37.9c0.1,3.8-1.1,5-4.8,4.7c-3.3-0.3-6.7-0.4-10,0c-3.7,0.4-4.4-1.3-4.4-4.6c0.2-13.1,0.1-26.3,0.1-39.4
		c0-1.9,0.6-4.1-2.7-4.1c-16.9,0.1-33.6-2.1-50.3-4c-0.4-0.9-1.3-0.8-2.1-0.9c-5.6-0.7-11.1-2-16.4-4.1c-1.7-0.7-4-1.6-3.4-4
		c0.6-2.7,3.3-2.4,5-1.7c8.8,3.6,18.2,5.4,27.5,6.2c10.1,0.9,20.2,3.5,30.4,2.2c0.6,0,1.3,0,1.9,0.1c0.7,0,1.4,0,2.1,0.1
		c1.6,0.4,3.3,0.5,4.9,0.1c0.7,0,1.4,0,2,0c1.1,0,1.2-0.9,1.2-1.7c-0.1-6.7-0.2-13.4-0.2-20.1c0-1,0-2.1,0-3.1
		c0.3-1.1,0.5-2.3-0.4-3.3l-0.2-0.3l-0.3,0.2l-0.2,0.3c-1.3-0.1-2.7-0.2-4-0.2c-60.7,0-121.3,0-182,0c-1.3,0-2.7,0-4,0.1
		c-1,0.1-1.6,0.4-2.1,1.6c-8.4,20.9-23.6,34.2-45,40.7c-6.4,0.6-12.6,2.6-19.1,2c-2.4-0.2-2.2,1.5-1.4,3c1.6,3,1.8,6.3,2.4,9.5
		c0.3,1.9,0.6,4.2-2.3,4.7c-2.6,0.5-4.6-0.3-5.5-2.9c-1.4-4.2-3-8.4-3.9-12.7c-0.5-2.4-1.2-3.4-3.6-3.8c-5.3-0.9-9.9-3.5-14.6-6
		c-1.4-1-2.7-1.9-4.1-2.9c-7.2-7.7-13.2-16-14.2-26.9c0.4-1.3,0.4-2.7-0.2-4c0-1-0.1-2-0.1-3c0.9-7.4,0.9-7.4-4.6-6.6
		c-9,1-18,2-27.4,3.1c5.4,10.5,10.6,20.6,16,30.6c2.2,4.1,4.7,8,7.1,12c0.3,0.9,0.7,1.8,0.9,2.8c0.7,2.7,1,5.3-2.1,6.7
		c-3.2,1.4-4.3-1.2-5.6-3.3c-1.1-1.8-2.2-3.6-3.3-5.4c-5.4-9.9-9.6-20.3-16.1-30.8c-2.3,10.2-2.5,19.6-3.7,28.9
		c-2.1,4.2-0.8,8.9-1.5,13.3c-0.7,4.3-1.9,8.7-1.3,13.2c0.5,3.7-3,4.3-5.3,4.4c-2.9,0.2-4.4-2.3-3.8-5.1c1.5-7.2,2-14.6,2.9-21.9
		c0.7-7.3,1.4-14.6,2.2-21.9c1.8-1.8,0.9-4,0.8-6c0.1-1,0.1-2,0.2-3c1.8-1.4,1-3.3,0.8-5c0-0.7,0-1.3,0-2c0.4-2,1.9-3.8,1-6
		c-7.2-2.1-14.5-0.5-21.8-0.8c-6.3-0.1-12.5-0.8-18.5-2.5c-9.9-2.9-9.9-3-14.4,6.1c-0.3,0.6-0.3,1.3-0.5,1.9l0.1,0.3l-0.1-0.3
		c-0.9,1.4-3,2.1-2.6,4.3c-0.3,0.2-0.3,0.4-0.2,0.7c-1.8,1.3-2.3,3.3-3,5.2l0,0c-2.3,1.3-2.4,3.8-3.2,5.9l0,0
		c-1.2,1.8-2.4,3.5-3.6,5.3c-5.7,11.5-13,22.1-18.3,33.8c-1.3,1.5-3.7,0.4-4.9,2c-4.5-1.6-5-3.5-2.7-7.6
		c9.3-16.4,18.5-32.8,27.6-49.2c0.1-0.3,0.1-0.7,0.1-1c4.3-4.6,5.8-10.9,9.6-15.8c2-2.6,1-5.2-0.3-7.7c-4.6-9.1-7.1-18.8-9.2-28.6
		c-2.8-12.9-5.4-25.8-6.2-39.1c-0.8-13.4-2.2-26.9-4.1-40.2c-0.7-4.9-0.9-9.8-1.4-14.7c-0.7-6.7-2.1-13.9,2.4-20.2
		c8.4-11.8,32-13.8,42.2-3.3c14.8,15.1,24.5,33.1,28.7,53.6c1.2,5.8,3.2,6.2,7.5,5.9c14.8-1,29.6-2,44.3-3
		c5.2-0.4,10.5,1.1,15.6-0.9c1.6-0.7,1-1.9,0.8-3.1c0.1-6.4,0.2-12.9,0.2-19.3c0-2.7,0.4-5.2,2.9-6.9c2-0.1,4-0.2,5.9-0.3
		c8.4,0,16.7,0,25.1,0c2.6,0.5,5.3,0.5,7.9,0c1.4,0,2.7,0,4.1,0c1,0,2,0,2.9,0c4.7,0,9.4,0,14.1-0.1c1.1,0.3,2.2,0.7,3-0.5
		c2.3-2.4,0.5-4.9,0.2-7.4l0.4-0.1l-0.3-0.2c0-11.9,0-23.8,0-35.6c0.1-0.1,0.3-0.3,0.3-0.4c0-0.3-0.2-0.6-0.3-0.9
		c0-18.9,0-37.9,0-56.8c0.7-3.4,0.7-6.8,0-10.2c0-35.3,0-70.5,0-105.8c0.6-2.4,0.6-4.8,0-7.2c-0.1-1.4-0.2-2.9-0.2-4.3
		c-0.1-3.4-0.2-6.9-0.3-10.3c-0.1-1,0.7-2.5-1.3-2.6c-1.2,0-1.9,0.4-2.6,1.7c-3.4,6.6-8.4,12-13.7,17
		c-30.7,28.5-76.1,31.3-109.9,6.4c-16.2-11.9-29.2-26.6-32.6-47.6c-0.1-0.6-1.1-1.1-1.7-1.7c-2.5-11.5-2.3-23.1-1-34.7
		c0.8-7.8,3.7-15,6.1-22.3c0,0,0,0,0,0c0.5-0.2,1-0.4,0.8-1.1c0.2-0.2,0.3-0.5,0.2-0.8c0.5-0.2,1-0.5,0.8-1.2
		c0.2-0.3,0.3-0.5,0.2-0.9c0.5-0.2,1-0.4,0.8-1.1c0.2-0.3,0.3-0.5,0.2-0.9c2.1-1.8,3.2-4.3,4.4-6.7l-0.3,0c0,0,0.3-0.1,0.3-0.1
		c1.5-2.1,3-4.3,4.5-6.4c12.8-14.9,27.9-26.3,47.5-30.6c8.7-1.9,17.6-2.7,26.6-2.5c1.9,0.7,3.9,1.6,6,0.8c0.6,0.1,1.3,0.3,1.9,0.4
		c0.2,0.2,0.4,0.7,0.6,0.7c21.2,2.7,38.3,13.3,51.6,29.3c12.1,14.5,18.3,32,20,50.9c0,5.3,0,10.7,0,16c0,3.8-2.3,7.3-1.6,11.2
		c-1.8,5.1-3.1,10.5-5.5,15.3c-1.7,3.2-0.9,3.5,1.9,3.4c1.1-0.1,2.2-0.4,3.4-0.6c1.1,0,2.2,0,3.3,0c1.4,0.7,2.9,0.7,4.3,0.1
		c6.7,0,13.5,0,20.2,0c1.5,0.1,3,0.4,4.4,0.4c63.5,0,127,0,190.5,0c1.3,0,2.6-0.3,3.9-0.4c1.7,0,3.4,0,5.1,0c0.3,0,0.6,0,0.9,0
		c2,0,4.1,0,6.1,0c1.1,0.1,2.3,0.4,3.4,0.4c34.3,0,68.6,0,102.9,0c1.1,0,2.3-0.3,3.4-0.4c9.9,0.1,19.9-0.3,29.8,0.4
		c7.4,0.5,13.3-1.2,17.4-7.6c0.4-0.3,0.7-0.6,1.1-0.9L689,266c0,0,0.2,0.2,0.2,0.2c0.3-0.4,0.6-0.7,0.8-1.1
		c9-5.2,17.8-10.3,28.5-11.6c2.8-0.3,6.5-0.3,9.3-2.3c0.6,1.3,1.5,1.9,3.1,2c15.7,1.3,28.9,7.7,39.4,19.4c1.6,1.8,3.4,2.4,5.7,2
		c4.1-0.6,7,1,8.7,4.8c0,87.8,0.1,175.6,0.1,263.4c0,2.2,0.2,4.3,0,6.5c-0.3,2.8,0.7,3.8,3.6,3.7c4.3-0.2,8.7-0.3,13,0.1
		c12.9,1.2,25.7,1.5,38.6,2c2.7,0.1,4.8-0.6,5.8-3.5c2-5.6,4.8-11,7.5-16.3c6.3-12.2,14.2-23.2,23.2-33.5c4.2-4.8,9-8.9,15.5-10.3
		c11.7-2.5,23.5-2.2,35.1-0.6c8.3,1.1,14.9,6.2,16.6,14.9c1,5.5,0.8,11.3,0.2,16.9c-1.6,14.4-2.6,28.8-3.9,43.2
		c-0.7,7.2-1.9,14.3-2.5,21.5c-0.7,8.5-2.5,16.8-4.4,25c-1.9,8.4-4,16.7-7.3,24.6c-1.4,3.6-5,7.5-3.5,10.8
		c3.6,8.2,7.7,16.4,13.4,23.6c0,0-0.1-0.1-0.1-0.1c0.8,2.8,1.5,5.6,4.2,7.4c5.1,9.3,10.3,18.6,15.4,27.9c2.1,3.7,4.1,7.5,6.1,11.2
		c1.2,2.2,1,4.1-1.4,5.4c-3.1,1.4-5-0.2-6.6-2.5c-3.7-6.1-7.8-11.9-11-18.3c-6.1-12.2-12.9-23.9-20.2-35.4c-1.2-2.8-2.4-5.7-3.8-8.4
		c-1.2-2.4-2.8-3.2-5.6-2c-7.2,3.2-15.1,3.6-22.8,4.6c-7,0.1-14,0.1-21,0.2c-0.7,0-1.3,0-2-0.1c-0.7-0.2-1.1-0.1-1,0.7
		c0,2.1-0.6,4.3,1.1,6c0,1,0.1,2,0.1,3c-0.9,1.6,1.1,2.5,0.9,4c0.6,7.6,2.8,14.9,4.5,22.3c0.8,3.3,0.1,7.2,3.2,9.8
		c-2,4.9,1.5,9,1.9,13.6c0.2,2.5,0.8,4.9,1.4,7.3c0.7,3.4-1.4,4.5-4,5c-2.9,0.6-4.3-0.8-4.5-3.8c-0.2-1.8-1.2-3.5-1.3-5.2
		c-0.2-3.5-1.1-5.8-5-7.1c-3.9-1.4-1.9-6.1-3.3-9.1c-0.5-1.1-0.3-2.6-0.4-3.9c-1-8.2-1.9-16.3-2.9-24.5c-4.5,7.7-9.4,14.9-12,23.4
		c-1.2,1.9-2.7,3.6-3.3,5.8c-1.1,3.6-4.7,4.7-7.3,3.7c-3.5-1.4-2.7-4.6-0.5-7.3c0.7-0.8,1.5-1.8,1.2-3.1c7.1-13.3,14.1-26.6,20-40.5
		c-0.5-0.2-0.9-0.4-1.3-0.4c-8-0.2-15.9-1.9-24-2.2c-6.6-0.3-13.3-1.8-20-1.4c-0.2,0.1-0.3,0.2-0.5,0.3c0.1,0.1,0.2,0.1,0.3,0.2
		c0,3.5,0,7,0,10.6c-0.1,0.1-0.3,0.2-0.3,0.3c0,0.3,0.1,0.6,0.2,0.9c-1.9,11.2-5.9,21.4-14.6,29.2c-4.8,2.6-9.3,5.8-14.6,7.5
		c-3.7,1.2-3.2,5.4-3.7,8.1c-0.6,3.4-2.3,6.3-2.9,9.6c-0.5,3.1-4.1,2.6-6.2,2.8c-2.3,0.2-2.7-2.5-2.5-4.6c0.4-4.4,2.2-8.5,3.5-12.7
		c-8.2-1.5-16.7,1.4-24.5-2.4c-20.7-5.8-34.1-20.2-43.7-38.4c-1.8-3.4-3.5-4-6.6-4c-33.9,0-67.9,0-101.8,0
		c-21.3,0-42.6,0.2-63.9,0.3c-2.7,0.1-5.5-1.6-7.8,1.1c0,5.7,0,11.4-0.1,17c0,3.4-1.5,6.9,0.9,10c16.1,0.7,32.1,0,48-2.2
		c7.7-1.1,15.4-2,23-4.5c3.4-1.1,7.1-2.8,11-2.3c1.2,0.1,2.8-0.4,3,1.6c0.1,1.5-0.5,2.7-1.9,3.2c-2.3,0.8-4.7,1.4-7,2.2
		C591.2,693.6,583.9,693.9,576.9,695.9z M513.3,460.3c0.1,0.3,0.3,0.6,0.6,0.1c3.6,0,7.3,0,10.9,0.1c9,0,17.9,0.1,26.9,0.1
		c1.7,0,3.4,0,3.4,2.5c0,2.5-1.7,2.4-3.4,2.5c-1.5,0.1-3,0-4.5,0.1c-11.1,0.1-22.2,0.2-33.3,0.3c-0.8,0-0.9,0.4-0.8,1
		c0,4.4,0,8.7,0,13.1c0,1,0,2,0,2.9c0,15.4,0,30.7,0,46.1c0,1.6,0,3.3,0,4.9c0,2,0,4.1,0,6.1c0,4.3,0,8.6,0,12.9c0,1,0,2.1,0,3.1
		c0,2.6,0,5.3,0,7.9c0,6.3,0,12.7,0,19c1.8,4.1,5.2,1.3,7.8,1.9c5.6,0.4,11.2-0.3,16.8,1.1c2.5,0.6,3.9-0.9,5-3
		c1.2-2.6-1.5-2.1-2.3-2.9c-3.9-3.4-8.7-6.4-9.2-11.8c-0.8-9.3,0.1-18.7,2.8-27.8c2.8-9.5,11.8-15.4,23.1-15.7
		c7.3-0.2,14.7-0.1,22-0.2c0.4,0,0.8,0,1.2,0c0-0.2-0.1-0.4-0.1-0.7c-0.1-0.8-0.1-1.7-0.3-2.4c-2.3-7.4-3.7-14.9-2.2-22.7
		c3-16,9-30.8,17.1-44.9c6.7-11.7,15.7-19.9,29.7-21.3l0.3,0.1l0.2-0.3c8.5-0.3,17-0.6,25.5,0.2l0.3,0c13.9,2.9,22.7,11.6,27,24.8
		c5.5,17.2,8.4,34.9,9.7,52.9c0.7,10.5-0.3,21.1-1.7,31.3c-1.3,9.5-3.7,19-5.9,28.5c-0.7,2.9-1.6,6.7-4.9,8.1
		c-3.7,1.6-2.7,3.8-1.4,6.3c4,7.4,8.1,14.8,12.1,22.3c1.8,3.4,3.5,7,5.2,10.5c0.5,1,0.5,2.5,2,2.5c1.9,0,1.1-1.7,1.4-2.7
		c2.3-7.2,3.5-14.6,6.7-21.6c6.4-13.6,15.3-24.8,28.3-32.6c1.6-1.1,0.8-2.8,0.8-4.1c0-50.6,0.1-101.3,0-151.9c0-1.4,0.7-3-0.9-4.1
		c-2.2-1.2-4.6-0.7-6.8-0.7c-61.6,0-123.2,0-184.8,0c-7.8,0-15.6,0.2-23.4,0.3c-1.2-0.1-1.1,0.6-1,1.4c0,18.4,0,36.7,0.1,55.1
		C513.2,459.4,513.3,459.9,513.3,460.3z M395.9,581.5l-0.4-0.1l-0.2,0.3c-0.8,1.4-0.6,2.9-0.2,4.3c0,7.7,0,15.4,0,23c0,1,0,2,0,3
		c0,8,0.1,16,0.1,24c0,3,0.1,6.1,0.1,9.1c-0.7,1.8,0.2,4-2.8,5.1c-5.5,2-5.8-1.7-6.7-5.2c0-3,0.1-6,0.1-8.9
		c0.1-10,0.2-20.1,0.2-30.1c0.5-0.4,0.4-0.9-0.1-1.1c-0.5-0.2-0.9,0.2-0.8,0.9c-5.4,9.3-10.2,19.1-14.9,28.8
		c-1.5,0.3-1.3,1.6-1.6,2.6c-0.9,2.8-3.9,2-5.8,2.7c-1.5,0.6-2.2-1.5-2.6-2.9c0.6-2.2,1.2-4.3,2.3-6.4c7.4-14.3,14.7-28.6,21.9-43
		c2.3-4.5,1.9-5.1-3-5.1c-11.1,0-22.3,0.3-33.4,0.1c-4.6-0.1-6.7,2-8.4,5.8c-6,13.1-11.9,26.4-18.8,39.1c-5.2,9.6-6.9,19.8-8.3,30.3
		c-1.2,1.6-0.6,2.1,1.2,1.9c2.5,0.1,5,0.2,7.5,0.2c47.6,0,95.1,0,142.7,0c12.3,0,24.6-0.2,36.9-0.3c0.6,0.3,0.8,0.2,0.8-0.5
		c0.1-8.6,0-17.3,0.4-25.9c0.1-3.4-1.1-4.2-4.2-4.1c-9.2,0.2-18.4,0.1-28.1-1.9c2.5,6.4,4.7,12.2,6.4,18.3c0.6,2.3,1.4,4.6-1.2,5.4
		c-2.7,0.8-5.8,0.6-7-2.9c-1.8-5.4-3.8-10.7-5.1-16.2c-0.8-3.5-2.6-5.1-6-5.7c-10.7-1.9-21.5-3.6-31.9-6.9c-4.6-1.5-8.3-4-11.5-7.3
		c-3.7-3.8-1.8-12.1,3.1-14.5c2.6-1.3,5.4-2.3,8.2-3.3c10.4-4,21.7-4.2,32.1-7.5c-0.5-1.7-1-3.2-1.5-4.7c-0.3-0.6-0.7-0.5-1.1,0
		c-19.5,0-38.9,0.1-58.4,0.1L395.9,581.5z M424.3,531.1c0,1,0,1.9,0,2.9c0.4,1.3,1.6,1,2.5,1c8.7,0,17.5-0.1,26.2-0.1
		c1,0.4,2,0.8,3,1.1c4.7,2.6,6.7,7.1,8.2,12c-1.1,5.3,1,10.4,0.9,15.7c0,3.4-1.1,4.2-4.2,4.2c-27.9-0.1-55.9,0-83.8,0.1
		c-2.4,0-2.9-0.3-3.4-3c-1.3-6.2-1.1-12.5-1.4-18.6c-0.5-12-4.9-20.1-16.8-23.3l0-0.3l-0.1,0.3c-7.1-0.9-14.3-0.5-21.4-0.6
		c-3.7,0-5-1.4-5.1-5.4c-0.6-19.1,2.5-37.6,8.7-55.7c3.4-10.1,9-17,19.8-18.7l0.3,0c7.5,0,15.1-0.1,22.6-0.1l0.2,0.2l0.2-0.2
		c6.8,1.1,13.1,3.1,17.4,9c1.1,1.5,3,2.3,4.3,1c1.5-1.3-0.4-2.7-1.2-3.7c-2.4-3-5.2-5.3-8.8-7.1c-10.2-5.1-21.1-3.5-31.7-3.4
		c-11.3,0-19.6,5.4-24.5,15.6c-3.4,7-4.9,14.7-6.7,22.3c-3.4,14-4.5,28.1-4.4,42.4c0,5.4,2.9,8.3,8.2,8.4c6,0.1,12,0,18,0.3
		c8.1,0.4,14.5,5.2,15.6,12c1.5,9.4,1.7,19,1.9,28.5c-1.3,0.1-2.5,0.2-3.8,0.3c-8.7,0-17.3,0-26,0c-1.4,0-3.1-0.1-3,2.2
		c0.1,2,1.4,2.5,3,2.6c1.3,0.1,2.7,0.1,4,0.1c11.8,0,23.6,0,35.5,0c27.3,0,54.6,0,81.9,0c6.4,0,8.3-2.2,8.7-8.7
		c0.4-6.3-1.2-12.5-1.3-18.8c0-3-1-6.4-3.7-8.7c-0.1-0.6-0.4-1-1.1-0.9c-3.5-2.4-7-5.2-11.3-5.5c-8.6-0.6-17.1-0.7-25.7,0
		C425.3,530.3,424.6,530,424.3,531.1z M611,637c0.3-0.5,0.9-1.1,0.9-1.6c-0.1-11.2,0.6-22.3-0.2-33.5c0-0.6,0-1.3,0-1.9
		c0.1-5.1,0.2-10.2,0.3-15.3c0-1.2,0.3-2.9-1.9-2.5c-0.7,0-1.3,0-2,0c-2-0.4-4-0.4-6,0c-1,0-2,0-3,0c-1.3-0.4-2.6-0.4-4,0
		c-1.3,0-2.7,0-4,0c-1.3-0.4-2.6-0.4-4,0c-11.3,0-22.7,0-34,0c-2.4,0.6-2.8,1.6-0.9,3.4c2.1,0.5,4.1,1.2,6.2,1.4
		c11.1,0.6,22,2.2,32.7,5.2c6.9,2,14.5,3.2,19.1,9.9c0,3,0,6,0,9c-3.5,4.7-8.5,7.2-13.9,8.8c-15.5,4.5-31.3,7.8-47.6,8.2
		c-2.9,0.1-4,0.9-5.2,3.8c-2.3,5.4-3.3,11.2-6,16.5c-1.5,3-3.4,3.2-6,2.4c-3.1-0.9-2.9-3.2-2.1-5.6c1.6-4.6,3.5-9.1,5.2-13.7
		c0.5-1,1.3-2.6-0.4-2.6c-4.3,0.1-8.9-1.3-13,1.1c0,6,0,12-0.1,18c0,0.3,0,0.6,0,0.9c0,3,0,6,0,9c-0.2,0.7,0,1.2,0.8,1.3
		c0.5,0,1.1,0,1.6,0.1c0.8,0.5,1.6,0.5,2.4,0.1c29.9,0.1,59.8,0.3,89.7,0.3c27.1,0,54.2-0.1,81.3-0.2c1.7-0.4,1.2-1,0.2-1.7
		c-0.8-3.8-1.4-7.7-2.6-11.4c-3.9-12-11.1-22.5-16.3-33.8c-4.1-8.9-9.1-17.4-13.1-26.5c-1.2-2.8-2.7-3.7-5.5-3.7
		c-11,0.1-22,0.1-32.9,0.1c-7.5,0-7.5,0-4,6.2c0.5,0.9,0.8,1.8,1.3,2.7c7.9,15.4,15.9,30.8,23.8,46.3c-5.8,3.6-5.9,3.6-10.4-2.4
		c-5.8-9.6-10.4-20-15.6-29.9c0-0.9-0.5-1.2-1.1-0.8c-0.4,0.2-0.5,0.7,0,1.1c-0.1,2.1-0.1,4.3-0.2,6.4l-0.2,0.2c0,0,0.2,0.2,0.2,0.2
		c0,1.9,0,3.8,0,5.7c-0.5,1.1-0.5,2.2,0,3.3c0,1.9,0,3.8,0,5.7c-0.6,2.1-0.6,4.2,0,6.2c0.1,1.1,0.2,2.2,0.3,3.3
		c-0.7,2.7-0.4,5.5,0,8.2c-0.2,1-0.3,2.1-0.5,3.1l-0.2,0.1l0.1,0.2c-6.5,3.6-7.7,3.1-9.3-3.6C610.9,642.3,610.9,639.7,611,637
		C611,637,611,637,611,637z M290.7,341.4l-0.3,0.2l0.2,0.3c0,1.9-0.1,3.7-0.1,5.6c-0.6,3.3-0.6,6.7,0.1,10c0,5,0,10,0,15
		c-0.7,6-0.7,12.1-0.1,18.1c0,6.6,0,6.7,6.5,6.7c66.1,0,132.2,0,198.2,0c13.3,0,13.3,0,12.7-13.3c0.1-12.5-0.1-25,0.4-37.4
		c0.2-4.8-1.4-5.7-5.9-5.7c-68.5,0.1-136.9,0.1-205.4,0.2C295,341,292.8,340.5,290.7,341.4z M105,593.2c-2.5,0.3-4.4-0.9-6-2.6
		c-3.3-3.4-4.8-7.4-5.2-12.3C93,566.1,91.5,554,89.9,542c-1.2-8.9-0.6-18-2.8-26.9c-1.5-6.1,0.9-12.8,6-13.5
		c7.7-1.1,16.2-3.2,22.6,4c1.6,1.8,3.4,2.3,4.7,0.9c1.5-1.6-0.6-3-1.6-4.1c-7.2-7.1-16.1-7.6-25.2-5.5c-8.3,1.9-11.1,8.8-10.4,18.8
		c0.5,6.8,1.3,13.7,2,20.5c1.5,13.7,2.7,27.4,3.9,41.1c1.1,12.3,6.3,21.7,21.9,20.6c7.6-0.5,15.3-0.4,23,0
		c6.4,0.3,11.2,3.1,14.3,9.6c3.3,7.2,4.8,14.9,7.6,22.3c2.5,6.4,4.2,13.1,6.3,19.6c0.5,1.4,1.4,2.1,3.2,1.6c2-0.6,1.8-1.4,1.1-2.8
		c-1-1.9-1.1-4.1-1.9-6.1c-3.4-8.9-7-17.8-9.5-27c-2.7-10-6.5-18.6-17.7-21.3C126.7,592,115.8,593.3,105,593.2z M925.6,500.6
		c5.4,1.5,9.5,4.9,9.1,10.7c-0.5,7-1.3,14-1.9,21c-1.3,15.5-3.3,30.9-4.8,46.4c-0.9,9.4-3.1,12.4-12.1,14.5c-10-0.2-20-0.6-29.9,0.2
		c-8.6,1.1-14.4,6-17.2,14c-4.7,13.4-8.9,27-13.4,40.5c-0.6,1.7-0.7,3.2,1,3.7c1.6,0.5,3-0.6,3.6-2.4c3.4-11,6.9-21.9,10-32.9
		c2.5-8.7,6-16.3,15.9-18.5l0.5,0.1l0.4-0.2c9.7,0.1,19.3,0.3,29,0.1c8.2-0.1,15.5-5.6,16.2-15.2c0.6-8.2,1.4-16.4,2-24.6
		c1.3-15.4,3-30.7,4-46.1c0.7-9.4-6.5-15.2-14.2-15.8c-6.1-0.9-12.3-0.4-18.4-0.3c-3.2,0-6.6-1-9.6,1.1c-6.1,0.1-10,4.2-14.1,7.9
		c-0.7,0.7-0.9,1.4-0.6,2.2c0.3,1,1.3,0.8,2.1,0.9c2,0.4,3-1,4.2-2.1c2.8-2.6,5.8-4.7,9.8-5.2l0.3,0.2c0,0,0.2-0.3,0.2-0.3
		c9.1,0,18.2,0,27.4,0l0.2,0.2L925.6,500.6z M285.3,565.6c0.1-0.1,0.3-0.1,0.4-0.2c-0.1,0-0.2-0.1-0.2-0.1c0-9.6,0-19.1,0-28.7
		c0.6-1.7,0.6-3.5,0-5.2c0.4-2.5-0.4-3.6-3.1-3.6c-18.3,0.1-36.6,0.1-54.9,0.1c-1.4,0-3.2-0.4-3,2.1c-0.1,7.3-1.4,14.6,0.6,21.8
		c3.5,0.1,6.9,0.1,10.4,0.2c11,0.4,21.7,1.6,32.2,5.2C273.9,559.4,279.1,563.4,285.3,565.6z M290.6,516.3l-0.1,0.3
		c-0.7,1.7-0.5,3.5-0.2,5.3c4.2,1.9,8.5,0.7,12.7,0.7c4.7,0,9.4,0,14.1,0c0.7,0.2,1.4,0.5,1.5-0.7c-0.5-19,1.7-37.7,6.1-56.2
		l-0.1-0.4l-0.3,0.3c-10,0-20,0.1-29.9-0.1c-3.2-0.1-3.9,1.1-3.9,4c0.2,12,0.1,23.9,0.1,35.9c-0.7,2.7-0.6,5.3,0,8
		C290.6,514.4,290.6,515.4,290.6,516.3z M208.5,284.4c-0.7,2.7-0.6,5.4,0,8.2c0.1,6.8,0.3,13.6,0.1,20.4c-0.1,4,1.8,4.6,4.9,3.8
		c4.6-1.3,9.4-1.5,14-2.5c20.8-4.6,36.1-16.5,48.1-33.9c-0.9-0.3-1.3-0.5-1.8-0.5c-20.5,0-40.9,0-61.4-0.1
		C208.7,279.7,208.5,281.7,208.5,284.4z M779.4,337.9c0-0.2,0-0.5,0-0.7C779.4,337.4,779.4,337.7,779.4,337.9
		c-0.5,0.6-1.1,1.2-1.5,1.8c-12.8,22.6-32.1,34.3-58.1,31c-24.9-3.1-41.7-17.4-49.8-41.5c-0.4-1.2-0.6-2.2-1.9-2.6
		c0-7.5-0.3-14.9,0.2-22.4c0.5-8.5,3.5-16.4,8.3-23.5c0.1-0.4,0.2-0.7,0.3-1.1c-0.2,0-0.5-0.1-0.7-0.1c-2-0.1-4-0.3-6-0.3
		c-48.8,0-97.6,0-146.3,0c-3.3,0-6.6,0.2-9.9,0.4c-2.1,6.7-0.6,13.4-0.7,20.2c0,11,0,22,0,33c-0.1,1.1-1.1,2.4,0.8,2.9
		c3.6,0,7.3,0,10.9,0.1c4.2,0.2,4.3,2.1,2,5c-3.6,0.1-7.2,0.1-10.9,0.2c-0.7,0-1.4,0-2.1,0c-0.7-0.2-0.9,0.1-0.8,0.8
		c0,5.7,0,11.3,0,17c0,1.3,0,2.6,0,3.9c0,11,0,22,0,33c-0.2,0.7,0,1.1,0.8,1c13.5,0.1,27,0.2,40.4,0.2c57.3,0,114.5,0,171.8,0
		c3.9,0,7.4,0.4,8.7,4.8c0,0.6,0.1,1.3,0.1,1.9c0,3.4,0,6.7,0,10.1c-0.5,3.7-0.4,7.3,0,11c0,1,0,2,0,3c0,0.7,0,1.3,0,2
		c0,6,0,12,0,18.1c-0.4,2.3-0.4,4.6,0,6.9c0,20.7,0,41.4,0,62.1c-0.5,13-0.4,26,0,38.9c0,0.7,0,1.3,0,2c0.9,2.2,2.1,1.1,3.3,0.2
		c2.5-0.8,4.9-1.7,7.5-2.4c10.9-2.7,22-4,33.2-4.1c0.6,0.1,0.9-0.2,0.5-0.8c0-0.7,0-1.4,0-2c0-0.6,0-1.3,0-1.9c0-3,0-6.1,0-9.1
		c0.1-1.3,0.3-2.6,0.3-3.9c0-58.3,0-116.7-0.1-175c0-1.3-0.2-2.6-0.4-3.9c0-0.6-0.1-1.2-0.1-1.9C780,348.1,779.6,343,779.4,337.9z
		 M629,568.2c-25.7,0-51.4,0-77.1,0c-2.6-0.4-5.3-0.4-7.9,0c-2.3-0.5-3.3-1.7-3.1-4.2c0.5-5.2,0.7-10.5,1.3-15.6
		c0.7-6.3,3.8-11.7,10.8-13.4c8.1,0.1,16.2,0.2,24.4,0.1c1.5,0,3.4,1,4.4-1.1c0.4-1.9,0.9-3.8-2.1-3.7c-8.8,0.1-17.7-0.9-26.4,0.6
		c-6.8,1.2-11.2,5.6-13.6,12.4c-2.4,6.7-1.1,13.6-2.3,20.4c-0.9,5.3,3.4,9.3,8.3,9.3c39.8,0,79.7,0.1,119.5,0c1.5,0,3.5,0.7,4.3-1.5
		c0.9-1.7,1.3-3.2-1.4-3.4c-7.4-0.6-14.7-0.2-22.1,0c-0.6,0-1.3,0-1.9,0c-1.7,0-3.4,0-5.1,0c-0.3-0.3-0.6-0.2-0.9,0
		c-2.7,0-2.3-2.1-2-3.6c1.1-6.6,0.4-13.2,1.1-19.8c1.3-12.6,9.1-18.3,19.6-17.7c5.1,0.3,10.3,0.3,15.5,0.1c4-0.2,6.9-1.7,8.1-6.4
		c2-8.5,0-16.9-0.7-25c-1.1-11.9-3.4-23.8-7.5-35.2c-4.7-13.1-10.2-20.6-25.8-22.2c-6.4-0.6-13-0.3-19.5,0
		c-8.8,0.4-16.2,4.1-21.8,11.1c-1,1.3-1.8,2.7-0.2,3.9c1.4,1.1,2.3,0,3.2-1.2c4.1-5.3,9.6-8.4,16.1-9.6c0.6-0.1,1.3-0.1,1.9-0.2
		c1.1,0,2.1-0.1,3.2-0.1c2.9,0.6,5.9,0.6,8.8,0c2.1,0,4.1,0,6.2,0c1.3,0.1,2.6,0.2,3.9,0.2c7.5,1.4,14.2,4.6,17.2,11.8
		c5.7,13.8,9.8,28.1,10.7,43.1c0.3,5.5-0.4,11.1,0.4,16.5c0.5,3.3,0.3,5.8-1.8,8.3c-0.4,0.1-0.8,0.2-1.1,0.2
		c-6.8,0.1-13.6-0.1-20.4,0.3c-10.9,0.6-15.9,4.6-18.8,14.8c-2.5,8.5-2.2,17.5-2.2,26.4c0,1.6,1,3.9-2,4.2
		C629.6,568.2,629.3,568.2,629,568.2z M290.5,560.5c0,1,0,2,0,2.9c-0.5,1.4-0.5,2.8,0,4.2c-0.2,2.3,0.6,3.9,2.4,5.6
		c6.7,6.7,11.5,14.6,15.6,23.1c3.4,7.1,4.5,14.7,6.9,22.2c0.7-0.6,1.3-0.8,1.4-1.2c5.8-11.9,11.4-23.8,17.3-35.7
		c0.8-1.6-0.2-1.7-1-2.3c-2.7-2.2-5.2-5.1-5.9-8.4c-2.7-12.7-6.4-25.2-7.3-38.3c-0.3-3.6-1.9-5.5-6.3-5.1c-6.4,0.6-13,0.3-19.5,0.2
		c-2.8-0.1-3.8,0.8-3.7,3.7c0.2,8.3,0.1,16.6,0.2,24.9C290,557.8,290,559.2,290.5,560.5z M781.3,623.8c0.5-0.1,1-0.1,1.5-0.2
		c20.6-0.1,41.3-0.2,61.9-0.1c3.2,0,4.5-0.7,4.3-4.1c-0.6-9.3-3.1-18.2-4.6-27.4c-1.5-9.2-4.2-18.2-1.6-27.6c0.5-1.9,0-3.4-2.7-3.4
		c-8.9,0.2-17.8-1.6-26.8-1c-1.3,0.1-2.7,0-4-0.1c-12.8-0.9-25.6-2.5-38.6-2c-6.9-0.1-13.6,0.8-20.4,2.6
		c-16.5,4.4-29.2,13.4-38.6,27.4c-14.2,21.3-18.6,51.8-4.6,79.6c5.7,11.3,13.1,20.9,24.7,27.6c11.3,6.6,22.7,9.3,35.4,8.8
		c3.4-0.1,5-1.4,5.8-4.7c2.9-11.9,6.2-23.8,9.3-35.7c0.7-2.9,2.7-6.5,1.6-8.4c-1.3-2.3-5.5-0.8-8.4-1.1c-6-0.6-9.4-3.8-7.3-8.6
		c3.1-7.2,3.9-15.5,9.8-21.4C779.2,623.9,780.3,623.9,781.3,623.8z M526,590.2c-16.6-1-33,0.9-49.5,1.6c-13.2,0.5-26.1,2.3-39.1,4.4
		c-6.5,1-13.2,2.6-18.2,7.6c-2,2-2.2,4.8-0.1,5.7c2.8,1.3,4.9,3.6,8,4.5c9.3,2.8,19,4.2,28.5,6c7.3,1.3,14.6,1.8,22,2.3
		c9.2,0.7,18.3,1.5,27.5,1.3l0.4,0l0.2-0.3c14.9-0.3,29.8,0.2,44.7-1.2c11.6-1.1,23.2-2.4,34.5-5.1c5.9-1.4,11.8-2.6,17-6
		c3.5-2.3,4.2-6.3,1.3-8.1c-2.5-1.6-5.2-3-8-3.7c-20.1-5.1-40.7-7.1-61.4-8.1c-0.2-0.4-0.4-0.9-1-0.5c-2-0.1-4-0.2-6-0.2
		C526.7,590.2,526.3,590.2,526,590.2z M718.5,258.9c-34.4,6.9-53.4,38.6-42.5,70.8c6.7,19.9,26.3,35.1,46.6,36.2
		c22.6,1.2,42.2-10.3,51.2-30.3c10.2-22.7,5.4-43.3-8.3-60c-8.2-10-19.4-14.7-31.9-16.7l0-0.3l-0.1,0.2c-4.3-0.5-8.5-1.2-12.8-0.1
		C719.9,258.1,719.1,258.1,718.5,258.9z M230,623.9c0.7,0.3,1.6,0.5,2.2,1c6.7,5.9,8.5,14.1,9.7,22.2c0.6,4-3,6-6.7,6.8
		c-1.6,0.3-3.3,0.2-5,0.1c-2.8-0.1-3.3,0.9-2.6,3.6c3.6,14.2,8.8,27.9,13,41.8c0.8,2.7,2.4,3.8,5.1,3.7c6.5-0.2,13-0.1,19.5-2.1
		c16.8-5.3,28.2-16.8,36.9-31.5c4.6-7.7,5.5-16.5,7.7-24.9c2.3-8.6,1.7-17.6,0-26.3c-5.6-28.7-21.2-49.1-50-57.7
		c-7.2-2.1-14.7-4.3-22.4-1.8c-1.3-1.5-3.1-0.8-4.7-0.8c-11.4-0.1-22.7,1.3-34.1,1.7c-10.8,0.4-21.5,1.4-32.3,1.3
		c-4.3,0-8.5,1.4-12.8,1c-1.5-0.1-2.4,0.9-2.6,2.4c-0.7,8.2-1.5,16.4-2.1,24.6c-0.1,0.9-0.2,1.9,0.6,2.8c7.6,8,11,18.1,13.9,28.4
		c0.8,2.8,1.9,3.4,4.7,3.4C188.8,623.6,209.4,623.8,230,623.9z M290.6,299.5c-0.6,8.4-0.6,16.8,0,25.2c0,3.5,0.1,7.1,0.1,10.6
		l-0.3,0.2l0.3,0.1c1.2,1,2.6,0.5,3.9,0.5c17.3,0,34.6,0,52,0c52.1,0,104.2-0.1,156.4,0.1c4,0,5.4-0.9,5.3-5.1
		c-0.3-15.6-0.1-31.3-0.1-47c0-1.5-0.3-2.9-0.5-4.4l-0.1-0.3l-0.2,0.2c-1.2,0-2.4-0.1-3.6-0.1l-0.2-0.2l-0.2,0.2
		c-66.6,0-133.2,0-199.8,0c-3.3,0-6.7,0.2-10,0.2c-1.9,0-3.4,0.2-3.2,2.6c-0.5,2.5-0.5,4.9,0.1,7.3c0,1.3,0,2.6,0,3.8
		c-0.1,0.1-0.3,0.3-0.3,0.4c0,0.3,0.2,0.5,0.3,0.8C290.5,296.2,290.6,297.8,290.6,299.5z M488.8,584.6c4.3-0.1,8.7-0.6,13-0.3
		c4.8,0.4,6.4-0.9,6.4-6.1c-0.3-35.5-0.3-71,0-106.5c0-5.3-1.7-6.3-6.4-6.2c-15.2,0.2-30.3,0.2-45.5,0.1c-1.6,0-3.9,0.7-4.4-2
		c-0.5-2.8,1.7-2.7,3.4-3.1c1.4,0.5,2.8,0.6,4.3,0c14.8,0,29.6,0,44.3,0.1c2.3,0,4.2,0.1,4.1-3.2c-0.2-18.1-0.2-36.2-0.3-54.3
		c0.1-0.7-0.2-0.9-0.8-0.6c-2-0.1-4-0.3-6-0.3c-67.6,0-135.2,0-202.8,0.1c-8.1,0-7.8-2-7.6,8.2c-0.6,3.7-0.6,7.3,0,11
		c0.1,13-0.6,25.9,0.7,38.9l0.2,0.3l0.3-0.2c11.5,0,23,0.1,34.5,0.1l0.4,0.1l0.1-0.4c4.8-15,13.7-25.9,30.2-27.8
		c7.6-0.9,15.3-0.6,23-0.2c12.5,0.7,22.4,6.3,28.9,17.1c4.7,7.8,9.2,15.8,12.5,24.3c5.1,13.3,10.3,26.7,6.6,41.5
		c-0.5,2.2-1.4,4.4-1,6.7c-0.5,0.6-1.3,1.1-1.4,1.7c0,0.7,0.9,0.6,1.5,0.5c0.6,0.1,1.3,0.2,1.9,0.3c2.3,0.5,4.6,0.5,6.9,0
		c5.7,0,11.4,0,17.1,0c0.3,0,0.6,0.1,0.9,0.1c0.5,0.4,1,1,1.6,1.1c10.3,1.6,15.4,8,17.7,17.8c1.2,5.2,0.8,10.4,1.4,15.6
		c1,8,2.5,17.2-8.7,20.5c-1.3,0.4-2.8,1.3-1.6,3.3c0.9,1.6,1.5,3.7,3.8,3c6.6-1.9,13.5-0.2,20.1-1.3l0.3,0.1L488.8,584.6z
		 M277.5,274.4c0.4,0.4,0.7,0.4,1,0c6-8.9,8.7-19,9.8-29.6l0.3-0.3l-0.2-0.4c1.8-17.2-1.3-33.4-9.5-48.6
		c-23.3-43.5-77.1-54.7-115.2-29.4c-20.1,13.4-32.4,32.8-36.2,56.2c-2.9,17.8-0.7,36,9.3,52.2c10.5,17,24.1,30.5,43.5,37.1
		c5.5,1.9,11.3,3,16.9,4.5c5.2,1.4,5.9,1.1,5.9-4.1c0-10.2,0-20.3-0.1-30.5c0-3.3,0.8-6,4.5-6.8c0.4,0,0.8-0.1,1.2-0.1
		C231.6,274.5,254.5,274.4,277.5,274.4z M203,664.6c0.1,15.8,9.1,29.8,22.8,35.5c1.3,0.5,2.7,1.9,4,0.5c0.9-1,0.3-2.5,0-3.8
		c-3-10.7-5.7-21.4-8.9-32c-3.3-10.8-0.4-8.5-11.7-8.9c-4.7-0.1-6.9,1.4-6.2,6.2C203.1,663,203,663.8,203,664.6z M805.2,665.1
		c-0.1-8.6-0.1-8.6-8.8-9.2c-0.5,0-1.1,0.1-1.5-0.1c-2.1-1.1-2.6-0.4-3,1.9c-2.2,13.2-6.8,25.8-9.9,38.8c-0.2,1-1.8,2-0.6,3.1
		c1.3,1.2,2.5-0.1,3.6-0.6C798.9,691.9,804.8,680.2,805.2,665.1z M236,646.3c-1.8-5.2-3.3-9.8-5-14.3c-0.5-1.4-2-0.9-3.1-0.9
		c-1.1,0.1-1.2,1.2-0.9,1.9c1.8,4.5,2.3,9.4,4.9,13.6c0.6,0.9,1.3,1.8,2.3,1.2C235.1,647.5,236.1,646.9,236,646.3z M783.1,633.8
		c-0.3-0.9,0.4-2.2-0.8-2.6c-1-0.3-1.9-0.1-2.5,1c-2.3,4.4-3.1,9.2-4.6,13.9c-0.4,1.1,0.3,1.9,1.5,2.1c0.9,0.1,1.9,0,2.1-0.9
		C779.9,642.7,782.5,638.5,783.1,633.8z M779.2,287.5c-0.7-2.8,0.5-4.6-0.1-6.6c-0.3-1.1-0.6-1.9-1.8-1.8c-0.8,0-1.7-0.1-2.2,0.8
		c-0.5,0.9,0.2,1.5,0.7,2.2C776.7,283.6,777.7,285.1,779.2,287.5z"/>
	<path fill="#F0F6FE" d="M294.1,229c-1.7-18.9-7.9-36.4-20-50.9c-13.3-16-30.4-26.6-51.6-29.3c-0.2,0-0.4-0.5-0.6-0.7
		c2.5-1.5,4.7-2.3,7.7-0.5c3.3,2,7.1,1,10.6,0.2c18.8-4.4,37.4-9.8,56.3-13.1c9.8-1.7,19.6-4.1,29.7-4.6c3.7-0.2,6.9-1.9,10.5-2.4
		c20.1-2.8,40.4-4.6,60.6-6.8c14.6-1.6,29.2-2.4,43.8-3.1c13.2-0.6,26.5-0.8,39.8-1.5c6.2-0.4,12.5-0.1,18.7-0.2
		c32.5-0.5,64.9,0.6,97.3,1.1c14.3,0.2,28.4,2.6,42.7,3.3c13.8,0.7,27.6,3.2,41.4,4.8c10.9,1.2,21.6,3.9,32.5,5.3
		c11.2,1.4,22.6,3.5,33.4,6.9c7.7,2.4,15.7,1.8,23.1,4.5c-1.1,0.4-2.1,1-3.2,1.1c-16.8,1.7-29.2,10.6-38.8,23.8
		c-5.7,7.8-9.6,16.4-10.1,26.3c-1.6,5-1.5,10-0.1,14.9c0.1,2.3,0.2,4.6,0.2,6.8c-0.7,6.6,0.3,13,2.3,19.4c1.9,6,6,10.9,7.5,17
		c-2.7,2.1-6.5,2-9.3,2.3c-10.7,1.3-19.5,6.4-28.5,11.6c-0.3,0.4-0.6,0.7-0.8,1.1L689,266c0,0,0.2,0.2,0.2,0.2c-0.6,0-1,0.3-1.1,0.9
		c-4.1,6.4-10,8.1-17.4,7.6c-9.9-0.6-19.9-0.3-29.8-0.4c-1.1-0.1-2.3-0.4-3.4-0.4c-34.3,0-68.7,0-103,0c-1.1,0-2.3,0.3-3.4,0.5
		c-2,0-4.1,0-6.1,0c-0.3,0-0.6,0-0.9,0c-1.7,0-3.4,0-5.1,0c-1.7-0.9-3.6-0.5-5.4-0.5c-62.8,0-125.7,0-188.5,0
		c-1.6,0-3.3-0.4-4.9,0.5c-6.7,0-13.5,0-20.2,0c-1.4-0.7-2.9-0.5-4.3-0.1c-1.1,0-2.2,0-3.3,0c-1.4-1-0.9-2.1-0.7-3.5
		c0.6-4.8,2.5-9.6,0.9-14.6c-0.7-3.9,1.6-7.4,1.6-11.2C295.6,239.7,295.7,234.3,294.1,229z"/>
	<path fill="#F0F6FE" d="M935.7,671.3c-5.7-7.1-9.8-15.3-13.4-23.6c-1.5-3.3,2-7.3,3.5-10.8c3.2-8,5.4-16.3,7.3-24.6
		c1.9-8.2,3.7-16.5,4.4-25c0.6-7.2,1.9-14.3,2.5-21.5c1.3-14.4,2.3-28.8,3.9-43.2c0.6-5.6,0.9-11.4-0.2-16.9
		c-1.7-8.7-8.2-13.8-16.6-14.9c-11.6-1.6-23.4-1.9-35.1,0.6c-6.5,1.4-11.3,5.5-15.5,10.3c-9,10.3-16.9,21.3-23.2,33.5
		c-2.7,5.4-5.4,10.7-7.5,16.3c-1,2.8-3.2,3.6-5.8,3.5c-12.9-0.5-25.8-0.7-38.6-2c-4.3-0.4-8.7-0.3-13-0.1c-2.9,0.1-3.9-0.9-3.6-3.7
		c0.2-2.1,0-4.3,0-6.5c0-87.8-0.1-175.6-0.1-263.4c0.2-2,0.8-3,3.2-3.5c16-2.7,28.7-11.2,37.2-24.7c7.8-12.4,12.5-26.1,11.8-41.1
		c-0.2-4.2,0-8.3-0.1-12.5c0-1.6,0.5-3.4-1-4.7c-2.3-10.7-5.9-20.9-12.5-29.8c9.4,1.6,18.6,4.7,26.9,9.1
		c10.6,5.6,21.5,10.8,31.9,16.9c8.1,4.7,16.3,9,24,14.4c10.2,7.3,19.5,15.6,27.9,25c3.9,4.4,9.6,7.5,11.8,13.1
		c3,7.6,9.7,12.3,12.8,20.2c3.5,9.1,7.8,18,10.5,27.4c1.3,4.6,4.4,9.2,2.9,14.6c-1.6,5.5,2.1,10.5,2.1,16
		C974,414.4,974,509,974,603.6c0,14-2.1,27.7-9.2,39.9c-3.9,6.8-10.4,11.6-17.5,15.4c-2.7,1.5-5.6,2.8-8.5,3.8
		C934,664.3,935.8,668.1,935.7,671.3z"/>
	<path fill="#F0F6FE" d="M128.1,199c-2.4,7.3-5.3,14.5-6.1,22.3c-1.2,11.6-1.4,23.2,1,34.7c0.1,11.6,2.9,22.7,7.7,33.1
		c4.9,10.7,12.6,19.4,21.2,27.3c19.1,17.9,42.1,24.1,67.6,21.3c8.1-0.9,16.3-2.9,23.8-6.5c16-7.9,28.9-19.3,38.2-34.7
		c0.8-1.4,1.4-3.6,3.8-3.4c0.1,1.4,0.2,2.9,0.2,4.3c-0.6,2.4-0.6,4.8,0,7.2c0,35.3,0,70.5,0,105.8c-0.6,3.4-0.6,6.8,0,10.2
		c0,18.9,0,37.9,0,56.8c-0.5,0.4-0.5,0.8,0,1.2c0,11.9,0,23.8,0,35.6c0,0-0.2,0.1-0.2,0.1l0.1,0.2c0.2,2.5,2,5-0.2,7.4
		c-1-0.1-2.1-0.4-3,0.5c-4.7,0-9.4,0-14.1,0.1c-1-0.9-2-0.9-2.9,0c-1.4,0-2.7,0-4.1,0c-2.6-1.1-5.3-1.1-7.9,0c-8.4,0-16.7,0-25.1,0
		c-2-1-4-1.1-5.9,0.3c-2.5,1.7-2.9,4.2-2.9,6.9c0,6.4-0.1,12.9-0.2,19.3c-1.1,0.8-0.8,2-0.8,3.1c-5.1,2-10.4,0.5-15.6,0.9
		c-14.8,1-29.6,2-44.3,3c-4.3,0.3-6.3-0.1-7.5-5.9c-4.2-20.5-14-38.5-28.7-53.6c-10.2-10.4-33.8-8.4-42.2,3.3
		c-4.5,6.3-3,13.5-2.4,20.2c0.5,4.8,0.7,9.8,1.4,14.7c1.9,13.3,3.3,26.7,4.1,40.2c0.8,13.3,3.5,26.2,6.2,39.1
		c2.1,9.8,4.6,19.6,9.2,28.6c1.3,2.6,2.3,5.2,0.3,7.7c-3.8,4.9-5.3,11.2-9.6,15.8c0.4-4-1.7-5.6-5.5-6.1c-6.3-1-11.8-3.9-16.8-7.8
		c-2.1-1.6-3.7-3.8-6.1-5.1c-4.4-2.3-4.8-7.3-6-10.9c-2.3-6.3-5.8-12.2-5.8-19.5c0.3-97.6,0.3-195.2,0.1-292.9
		c0-17.9,2.7-35,9.9-51.4c3.9-9.1,8.9-17.3,14.9-25.4c4.4-5.9,8.6-12.1,13.7-17.5c7.6-8,15.4-15.7,24.8-21.9
		C117.3,204.3,122.4,201.2,128.1,199z"/>
	<path fill="#042881" d="M823.4,163.2c6.7,8.9,10.2,19.1,12.5,29.8c0.2,9.3,0,18.6-3.2,27.4c-11.4,31.2-43,43.9-70.7,37.1
		c-20.8-5.2-35.1-18.8-41.8-39.6c-0.4-1.3-0.4-2.7-2.1-3.1c-0.1-2.3-0.2-4.6-0.2-6.8c0-5,0-10,0.1-14.9c0.5-9.9,4.4-18.5,10.1-26.3
		c9.6-13.2,22-22.2,38.8-23.8c1.1-0.1,2.1-0.7,3.2-1.1c8.7-0.1,17.3,0.5,25.8,2.3c0.7,0.3,1.4,0.7,2.2,1c0,0-0.1-0.1-0.1-0.1
		c0.1,0.6,0.4,0.9,1.1,0.8c0.3,0,0.7,0,1,0c3.3,1.5,6,4.2,9.9,4.4c0.6,0.6,1.2,1.3,1.8,1.9c0.4,0.3,0.9,0.6,1.3,0.9
		c1.2,1,2.5,2,3.7,3c0.4,0.4,0.8,0.8,1.2,1.2c1,0.9,1.9,1.9,2.9,2.8c0.4,0.4,0.7,0.8,1.1,1.2c0,0-0.1-0.1-0.1-0.1
		c0.4,0.4,0.7,0.9,1.1,1.3C823,162.7,823.2,163,823.4,163.2z M777.8,146.9c-26.5-0.8-54.5,21-55.3,52.9
		c-0.7,29.9,28.1,54.7,54.1,54.2c30.1-0.5,53.6-23.9,54.3-52.2C831.6,173.1,806.4,145.8,777.8,146.9z"/>
	<path fill="#F0F6FE" d="M809.9,150.2c-3.8-0.2-6.6-2.9-9.9-4.4C805.3,144.2,808.9,145.8,809.9,150.2z"/>
	<path fill="#F0F6FE" d="M139.9,180c-1.5,2.1-3,4.3-4.5,6.4C134.4,182.5,134.4,179.2,139.9,180z"/>
	<path fill="#F0F6FE" d="M135.4,186.4c-1.2,2.4-2.2,4.9-4.4,6.7C128.9,188.6,132.1,187.5,135.4,186.4z"/>
	<path fill="#F0F6FE" d="M939.8,678.6c-2.6-1.8-3.4-4.6-4.2-7.4C939,672.6,939.5,675.5,939.8,678.6z"/>
	<path fill="#F0F6FE" d="M472,865.1c1.7-1.5,3.3-1.5,4.9,0C475.3,866.4,473.7,866.5,472,865.1z"/>
	<path fill="#F0F6FE" d="M220,147.7c-2.1,0.8-4.1,0-6-0.8C216.2,145.8,218.4,144.7,220,147.7z"/>
	<path fill="#F0F6FE" d="M558,865c2.7-1.5,5.3-1.4,8,0C563.4,865,560.7,865,558,865z"/>
	<path fill="#F0F6FE" d="M552,865.1c1-1.3,1.9-1.3,2.9,0C554,866.3,553,866.3,552,865.1z"/>
	<path fill="#F0F6FE" d="M394,861.1c1-1.3,2-1.3,2.9,0C396,862.3,395,862.3,394,861.1z"/>
	<path fill="#F0F6FE" d="M354,857.1c1.6-1.6,2.5-1.1,3.1,0.9C356,858,354.8,858.2,354,857.1z"/>
	<path fill="#F0F6FE" d="M363.1,858.2c1.4-1.6,1.7-0.4,1.9,0.8C364.3,858.7,363.7,858.5,363.1,858.2z"/>
	<path fill="#F0F6FE" d="M313,852.1c0.7-1,1.3-1,1.9,0.1C314.3,853.1,313.6,853,313,852.1z"/>
	<path fill="#F0F6FE" d="M604,863.1c0.6-1.1,1.3-1.1,1.9-0.1C605.4,864,604.7,864,604,863.1z"/>
	<path fill="#F0F6FE" d="M622,862.1c0.6-1.1,1.3-1.1,1.9,0C623.4,863,622.7,863,622,862.1z"/>
	<path fill="#F0F6FE" d="M809.9,835.9c0.4-1.1,0.7-2.4,2.1-0.9C811.5,835.9,810.7,836,809.9,835.9z"/>
	<path fill="#F0F6FE" d="M304.1,850.2c1.1-0.2,2.2-0.4,2.9,0.8C305.9,851,304.8,851.2,304.1,850.2z"/>
	<path fill="#F0F6FE" d="M797.9,145.1c-0.7-0.3-1.4-0.7-2.2-1C796.7,144,797.5,144.1,797.9,145.1z"/>
	<path fill="#F0F6FE" d="M129.8,196c0.2,0.7-0.2,1-0.8,1.2C129.3,196.8,129.6,196.4,129.8,196z"/>
	<path fill="#F0F6FE" d="M128.9,198c0.2,0.7-0.3,0.9-0.8,1.1C128.3,198.7,128.6,198.4,128.9,198z"/>
	<path fill="#F0F6FE" d="M822.9,162.4c-0.4-0.4-0.7-0.9-1.1-1.3C822.4,161.3,822.8,161.7,822.9,162.4z"/>
	<path fill="#F0F6FE" d="M821.9,161.2c-0.4-0.4-0.7-0.8-1.1-1.2C821.1,160.5,821.5,160.9,821.9,161.2z"/>
	<path fill="#F0F6FE" d="M817.9,157.3c-0.4-0.4-0.8-0.8-1.2-1.2C817.1,156.5,817.5,156.9,817.9,157.3z"/>
	<path fill="#F0F6FE" d="M813,153.1c-0.4-0.3-0.9-0.6-1.3-0.9C812.1,152.5,812.5,152.8,813,153.1z"/>
	<path fill="#F0F6FE" d="M799,145.8c-0.7,0.2-1-0.1-1.1-0.8C798.2,145.3,798.6,145.6,799,145.8z"/>
	<path fill="#F0F6FE" d="M130.8,194c0.2,0.7-0.3,0.9-0.8,1.1C130.3,194.8,130.6,194.4,130.8,194z"/>
	<path fill="#F0F6FE" d="M264,707.1c21.4-6.5,36.6-19.8,45-40.7c0.5-1.2,1-1.5,2.1-1.6c1.3-0.1,2.7-0.1,4-0.1c60.7,0,121.3,0,182,0
		c1.3,0,2.7,0.1,4,0.2c0.1,1.1-0.1,2.3,1,3.1c0,1,0,2.1,0,3.1c-1.4,1.3-0.9,3.1-0.9,4.6c-0.1,5.7-0.1,11.5-0.1,17.2
		c-0.7,0-1.4,0-2,0c-1.6-1.3-3.2-1.2-4.9-0.1c-0.7,0-1.4,0-2.1-0.1c-0.6-0.9-1.3-0.9-1.9-0.1c-10.3,1.3-20.3-1.2-30.4-2.2
		c-9.3-0.8-18.6-2.7-27.5-6.2c-1.6-0.7-4.3-1-5,1.7c-0.6,2.4,1.7,3.3,3.4,4c5.3,2.1,10.8,3.3,16.4,4.1c0.8,0.1,1.7,0,2.1,0.9
		c-0.2,1.8-1.3,2.1-2.8,2.1c-3.2-0.1-6.4,1-9.4,0.8c-9.8-0.8-19.3,1.8-29,2.5c-13,0.9-26,2-38.9,4.1c-10.6,1.7-21.2,4.3-32.3,3.9
		c-22.3-0.8-44.6-0.2-66.9-0.2C267.8,708,265.7,708.8,264,707.1z"/>
	<path fill="#F0F6FE" d="M521.1,683c0-5.7,0-11.4,0.1-17c2.6-0.5,5.5,1,7.8-1.1c21.3-0.1,42.6-0.3,63.9-0.3c33.9,0,67.9,0,101.8,0
		c3.1,0,4.8,0.6,6.6,4c9.7,18.2,23,32.6,43.7,38.4c-1.5,1.6-3.4,1-5.2,1c-21.3,0.1-42.7-0.1-64,0.1c-9.4,0.1-18.3-3-27.6-3.7
		c-10.2-0.8-20.4-2.3-30.5-3.5c-9.5-1.1-19.2-1.4-28.7-2.3c-3.9-0.4-8.4-0.7-12.2-2.7c7-2,14.3-2.3,21.2-4.9c2.3-0.8,4.7-1.4,7-2.2
		c1.4-0.5,2-1.6,1.9-3.2c-0.2-2.1-1.8-1.5-3-1.6c-3.9-0.5-7.6,1.2-11,2.3c-7.5,2.5-15.3,3.4-23,4.5c-15.9,2.2-31.9,2.9-48,2.2
		C521.6,689.7,522.9,686.2,521.1,683z"/>
	<path fill="#F0F6FE" d="M159,702c1.2-9.3,1.4-18.7,3.7-28.9c6.4,10.5,10.7,21,16.1,30.8c-4.9,0-9.8,0-14.6,0.1
		C162,704.1,160.3,703.7,159,702z"/>
	<path fill="#F0F6FE" d="M845.9,702.8c2.6-8.4,7.4-15.7,12-23.4c1,8.2,1.9,16.3,2.9,24.5C855.7,704.9,850.6,706.7,845.9,702.8z"/>
	<path fill="#042881" d="M115,749c1.9-0.1,3.3,0.2,3,2.3c-0.2,1.6-1.2,2.8-3,2.5c-1.5-0.3-3.2-0.7-3-3
		C112.2,748.5,113.9,749.1,115,749z"/>
	<path fill="#F0F6FE" d="M204,701.9c1.5-1.6,3.4-0.9,5.2-0.9c2.2,0,2.9-1.2,2.8-3.1c1.4,1,2.7,1.9,4.1,2.9
		C212.3,702.7,208.3,704,204,701.9z"/>
	<path fill="#042881" d="M105.9,749c1.9-0.1,3.3,0.1,3.2,2.2c-0.1,2.5-2.5,2-3.7,2.4c-1.8,0.7-2.4-1-2.4-2.7
		C103,748.6,104.8,749.2,105.9,749z"/>
	<path fill="#F0F6FE" d="M804,700.9c1.3-1.2,2.6-1.3,3.9,0.1C806.6,702.3,805.3,702.4,804,700.9z"/>
	<path fill="#F0F6FE" d="M513.2,359c0-5.7,0-11.3,0-17c0.3-0.3,0.5-0.5,0.8-0.8c0.7,0,1.4,0,2.1,0c3.6,1.2,7.3,1.4,10.9-0.2
		c2.3-2.9,2.2-4.8-2-5c-3.6-0.1-7.3-0.1-10.9-0.1c-0.1-1,0.2-2.1-0.8-2.9c0-11,0-22,0-33c1.8-6.7,0.4-13.5,0.7-20.2
		c3.3-0.1,6.6-0.4,9.9-0.4c48.8,0,97.6,0,146.3,0c2,0,4,0.2,6,0.3c0.1,0.4,0.3,0.8,0.4,1.2c-4.8,7.1-7.8,14.9-8.3,23.5
		c-0.4,7.4-0.2,14.9-0.2,22.4c0.1,24.7,10.7,43.4,32.5,55.1c22,11.8,47.3,7.6,65.1-9.9c5.6-5.5,9.6-12.1,13.6-18.8
		c0,0.6,0.1,1.2,0.1,1.9c-0.8,1.2-0.5,2.6-0.5,3.9c0,58.2,0,116.4,0,174.7c0,1.5-0.4,3,0.6,4.4c0,3,0,6.1,0,9.1
		c-0.8,0.6-0.7,1.3,0,1.9c0,0.7,0,1.4,0,2c-0.2,0.3-0.3,0.5-0.5,0.8c-11.2,0.1-22.3,1.4-33.2,4.1c-2.5,0.6-5,1.6-7.5,2.4
		c-1.1-0.1-2.2-0.2-3.3-0.2c0-0.7,0-1.3,0-2c1.4-1.4,0.8-3.1,0.8-4.7c0-9.8,0-19.6,0-29.5c0-1.6,0.5-3.4-0.8-4.7
		c0-20.7,0-41.4,0-62.1c1.3-2.3,1.3-4.6,0-6.9c0-6,0-12,0-18.1c0.9-0.7,0.9-1.3,0-2c0-1,0-2,0-3c1.4-3.7,1.4-7.3,0-11
		c0-3.4,0-6.7,0-10.1c0.9-0.7,0.9-1.3-0.1-1.9c-1.4-4.4-4.8-4.8-8.7-4.8c-57.3,0.1-114.5,0.1-171.8,0c-13.5,0-27-0.1-40.4-0.2
		c-0.3-0.3-0.5-0.7-0.8-1c0-11,0-22,0-33C514.3,361.7,514.3,360.3,513.2,359z"/>
	<path fill="#F0F6FE" d="M514.1,402.5c7.8-0.1,15.6-0.3,23.4-0.3c61.6,0,123.2,0,184.8,0c2.3,0,4.7-0.6,6.8,0.7
		c0,53.4,0,106.8,0,160.2c-13,7.8-21.8,19-28.3,32.6c-3.3,7-4.5,14.4-6.7,21.6c-0.3,1,0.5,2.6-1.4,2.7c-1.5,0-1.5-1.5-2-2.5
		c-1.7-3.5-3.4-7-5.2-10.5c-4-7.5-8.1-14.9-12.1-22.3c-1.4-2.5-2.4-4.6,1.4-6.3c3.3-1.4,4.2-5.2,4.9-8.1c2.3-9.4,4.7-18.9,5.9-28.5
		c1.4-10.3,2.4-20.8,1.7-31.3c-1.2-18-4.1-35.7-9.7-52.9c-4.3-13.3-13.1-21.9-27-24.8c0,0-0.1-0.3-0.1-0.3l-0.2,0.3
		c-8.5-0.8-17-0.5-25.5-0.2c0,0-0.3-0.2-0.3-0.2l-0.2,0.3c-14,1.4-22.9,9.6-29.7,21.3c-8.1,14.1-14,28.9-17.1,44.9
		c-1.5,7.8-0.1,15.3,2.2,22.7c0.2,0.8,0.2,1.6,0.3,2.4c-0.4,0.2-0.7,0.4-1.1,0.6c-7.3,0.1-14.7,0-22,0.2
		c-11.3,0.3-20.3,6.2-23.1,15.7c-2.7,9-3.6,18.4-2.8,27.8c0.5,5.4,5.3,8.4,9.2,11.8c0.8,0.7,3.5,0.3,2.3,2.9c-1,2.2-2.5,3.7-5,3
		c-5.5-1.4-11.2-0.7-16.8-1.1c-1.9-3.5-5.3-1-7.8-1.9c0-6.3,0-12.7,0-19c1.3-2.6,1.3-5.3,0-7.9c0-1,0-2.1,0-3.1
		c1.3-4.3,1.3-8.6,0-12.9c0-2,0-4.1,0-6.1c1.2-1.6,1.2-3.3,0-4.9c0-15.4,0-30.7,0-46.1c1-1,1-2,0-2.9c0-4.4,0-8.7,0-13.1
		c0.3-0.3,0.5-0.7,0.8-1c11.1-0.1,22.2-0.2,33.3-0.3c1.5,0,3,0,4.5-0.1c1.7-0.1,3.4,0,3.4-2.5c0-2.5-1.7-2.5-3.4-2.5
		c-9,0-17.9-0.1-26.9-0.1c-3.6,0-7.3,0-10.9-0.1c0.2-0.1,0.2-0.3,0.1-0.5c-0.3-0.3-0.6-0.6-0.8-0.9c0-18.4,0-36.7-0.1-55.1
		C513.4,403.5,513.7,403,514.1,402.5z"/>
	<path fill="#99D100" d="M207.5,274.6c-3.7,0.9-4.5,3.5-4.5,6.8c0.1,10.2,0.1,20.3,0.1,30.5c0,5.2-0.7,5.5-5.9,4.1
		c-5.6-1.5-11.3-2.6-16.9-4.5c-19.5-6.6-33-20.1-43.5-37.1c-10-16.2-12.2-34.3-9.3-52.2c3.8-23.4,16-42.9,36.2-56.2
		c38.1-25.3,92-14.1,115.2,29.4c8.1,15.2,11.3,31.5,9.5,48.6c-0.2,0.2-0.2,0.4-0.1,0.7c-1.1,10.6-3.7,20.6-9.7,29.6
		c-0.3,0-0.7,0-1,0c-22.9,0-45.8,0.1-68.8,0.1C208.3,274.2,207.8,274.2,207.5,274.6z M222.2,165c-2-0.4-3.1,0.6-3.8,2.4
		c-0.9,2.4,1.1,2.8,2.4,3.6c1.1,0.7,2.5,0.9,3.7,1.4c19.1,6.6,34.4,17.9,43.8,36.2c1.3,2.5,3,4.4,5.8,3.1c3.3-1.5,1.6-4.1,0.6-6.4
		c-7-15.1-18.8-25.7-33-33.6C235.7,168.4,229.1,165.9,222.2,165z"/>
	<path fill="#F0F6FE" d="M290.6,410.5c-0.2-10.2-0.5-8.2,7.6-8.2c67.6-0.1,135.2-0.1,202.8-0.1c2,0,4,0.2,6,0.3
		c0.3,0.2,0.5,0.4,0.8,0.6c0.1,18.1,0.1,36.2,0.3,54.3c0,3.4-1.8,3.2-4.1,3.2c-14.8-0.1-29.6-0.1-44.3-0.1c-1.4-0.6-2.9-0.7-4.3,0
		c-1.7,0.4-3.9,0.3-3.4,3.1c0.5,2.7,2.8,2,4.4,2c15.2,0.1,30.3,0.1,45.5-0.1c4.7-0.1,6.5,0.9,6.4,6.2c-0.3,35.5-0.3,71,0,106.5
		c0,5.3-1.5,6.5-6.4,6.1c-4.3-0.3-8.7,0.2-13,0.3c0,0-0.3-0.2-0.3-0.2l-0.2,0.3c-6.6,1.2-13.5-0.6-20.1,1.3c-2.3,0.7-2.9-1.5-3.8-3
		c-1.2-2,0.3-2.9,1.6-3.3c11.1-3.4,9.6-12.5,8.7-20.5c-0.6-5.2-0.2-10.4-1.4-15.6c-2.3-9.8-7.4-16.2-17.7-17.8
		c-0.6-0.1-1.1-0.7-1.6-1.1c-0.3-0.5-0.6-0.6-0.9-0.1c-5.7,0-11.4,0-17.1,0c-2.3-1-4.6-1-6.9,0c-0.6-0.1-1.3-0.2-1.9-0.3
		c0-0.7-0.1-1.5-0.1-2.2c-0.4-2.4,0.4-4.5,1-6.7c3.6-14.8-1.5-28.1-6.6-41.5c-3.3-8.5-7.8-16.5-12.5-24.3
		c-6.5-10.9-16.4-16.4-28.9-17.1c-7.6-0.4-15.4-0.7-23,0.2c-16.5,2-25.4,12.8-30.2,27.8c0,0-0.4-0.1-0.4-0.1l-0.1,0.3
		c-11.5,0-23-0.1-34.5-0.1c0,0-0.2-0.3-0.2-0.3l-0.3,0.2c-1.3-12.9-0.5-25.9-0.7-38.9C291.2,417.9,291.2,414.2,290.6,410.5z
		 M444,463.4c-0.1-3.1-2.1-2.3-3.6-2.4c-1.6-0.1-2.5,0.4-2.4,2.2c0.1,2.3,1.6,2.7,3.4,2.7C443.1,465.9,444.1,464.9,444,463.4z"/>
	<path fill="#F0F6FE" d="M290.6,335.3c0-3.5-0.1-7.1-0.1-10.6c0.7-8.4,0.7-16.8,0-25.2c0-1.6,0-3.3,0-4.9c0.5-0.4,0.5-0.8,0-1.2
		c0-1.3,0-2.6,0-3.8c0.6-2.5,0.7-4.9-0.1-7.3c-0.2-2.4,1.3-2.6,3.2-2.6c3.3,0,6.7-0.2,10-0.2c66.6,0,133.2,0,199.8,0
		c0,0,0.2,0.3,0.2,0.3l0.2-0.3c1.2,0,2.4,0.1,3.6,0.1c0,0,0,0.3,0,0.3l0.2-0.2c0.2,1.5,0.5,2.9,0.5,4.4c0,15.7-0.1,31.3,0.1,47
		c0.1,4.3-1.3,5.1-5.3,5.1c-52.1-0.1-104.2-0.1-156.4-0.1c-17.3,0-34.6,0-52,0c-1.3,0-2.7,0.5-3.8-0.5
		C290.7,335.6,290.6,335.3,290.6,335.3z"/>
	<path fill="#F0F6FE" d="M508,383.9c0.6,13.3,0.6,13.3-12.7,13.3c-66.1,0-132.2,0-198.2,0c-6.5,0-6.5,0-6.5-6.7
		c0.7-6,0.6-12.1,0.1-18.1c0-5,0-10,0-14.9c0.6-3.3,0.6-6.7-0.1-10c0-1.9,0.1-3.7,0.1-5.6c0,0,0.4,0.2,0.4,0.2
		c22.3,0,44.6-0.1,67-0.1c47.8,0,95.6,0.1,143.4-0.1c4.6,0,6,1.3,5.8,5.9c-0.3,10.3-0.1,20.7-0.1,31
		C507.1,380.5,506.5,382.4,508,383.9z"/>
	<path fill="#88AD04" d="M778.2,624c-5.9,5.9-6.7,14.2-9.8,21.4c-2.1,4.8,1.3,8,7.3,8.6c2.9,0.3,7.1-1.2,8.4,1.1
		c1.1,1.9-0.9,5.6-1.6,8.4c-3.1,11.9-6.3,23.7-9.3,35.7c-0.8,3.4-2.4,4.6-5.8,4.7c-12.7,0.5-24.1-2.2-35.4-8.8
		c-11.6-6.8-19-16.3-24.7-27.6c-14-27.8-9.6-58.3,4.6-79.6c9.4-14,22-23,38.6-27.4c6.9-1.8,13.5-2.7,20.4-2.6c3.7,8.7,5,18,7.1,27.1
		c-0.9,3.1-1.9,6.3,0.9,9.1c0.1,1.3,0.1,2.6,0.2,3.9c-1.2,4.3-1.2,8.7,0,13C778.1,615.3,777.7,619.6,778.2,624z"/>
	<path fill="#88AD04" d="M237.5,558.9c7.7-2.4,15.3-0.3,22.4,1.8c28.8,8.6,44.3,29,50,57.7c1.7,8.7,2.2,17.7,0,26.3
		c-2.2,8.4-3.2,17.2-7.7,24.9c-8.7,14.7-20.1,26.2-36.9,31.5c-6.5,2.1-12.9,1.9-19.5,2.1c-2.7,0.1-4.3-1.1-5.1-3.7
		c-4.3-14-9.4-27.7-13-41.8c-0.7-2.7-0.2-3.7,2.6-3.6c1.7,0.1,3.4,0.2,5-0.1c3.7-0.8,7.3-2.8,6.7-6.8c-1.2-8.2-3-16.4-9.7-22.2
		c-0.6-0.5-1.5-0.7-2.2-1c1.4-1.9,1.1-4.1,0.9-6.2c-0.8-9.6-0.6-19.2,0-28.8c1.1-1,1.2-1.9,0.1-3c1-5.8,1.5-11.7,3.2-17.2
		C235.4,565.5,234.9,561.7,237.5,558.9z"/>
	<path fill="#99D100" d="M720.6,258.7c4.3-1.1,8.5-0.3,12.8,0.1c0,0,0.1,0,0.1,0c12.5,2,23.7,6.7,31.9,16.7
		c13.7,16.7,18.5,37.3,8.3,60c-9,20-28.6,31.5-51.2,30.3c-20.3-1.1-39.9-16.3-46.6-36.2c-10.9-32.3,8.1-63.9,42.5-70.8
		C719.2,258.8,719.9,258.8,720.6,258.7z"/>
	<path fill="#F0F6FE" d="M501,659.5c-12.3,0.1-24.6,0.3-36.9,0.3c-47.6,0-95.1,0-142.7,0c-2.5,0-5-0.1-7.5-0.2
		c-0.4-0.6-0.8-1.3-1.2-1.9c1.4-10.5,3.1-20.7,8.3-30.3c6.9-12.7,12.7-25.9,18.8-39.1c1.8-3.9,3.8-5.9,8.4-5.8
		c11.1,0.2,22.3-0.1,33.4-0.1c4.9,0,5.3,0.6,3,5.1c-7.3,14.4-14.5,28.7-21.9,43c-1.1,2.1-1.8,4.2-2.3,6.4c-2.8,1.3-5.8,1.1-8.8,1
		c-2.8,0-5.6,0.1-8.3,1c-1.2,0.4-2.3,0.5-2.3,2.1c0,1.9,1.5,1.8,2.8,2c13.9,2.2,27.9,2.2,42,2c0.9,3.4,1.2,7.1,6.7,5.2
		c3-1.1,2.2-3.3,2.8-5.1c12.1,0.2,24.2-0.1,36.1-2.1c1.9-0.3,4.9-0.2,4.8-2.3c-0.1-2.5-3.2-1.3-5-1.8c-11.9-2.7-24.1-1.2-36-3
		c0-8-0.1-16-0.1-24c1.1-1,1-2,0-3c0-7.7,0-15.4,0-23c1.3-1.2,0.6-2.8,0.9-4.2c19.5,0,38.9-0.1,58.4-0.1c0.4,0,0.7,0,1.1,0
		c0.5,1.5,1,3.1,1.5,4.7c-10.5,3.3-21.8,3.5-32.1,7.5c-2.7,1.1-5.6,2-8.2,3.3c-4.9,2.4-6.8,10.7-3.1,14.5c3.2,3.2,6.8,5.8,11.5,7.3
		c10.5,3.3,21.2,5,31.9,6.9c3.4,0.6,5.1,2.1,6,5.7c1.3,5.5,3.3,10.8,5.1,16.2c1.2,3.5,4.3,3.7,7,2.9c2.6-0.8,1.9-3,1.2-5.4
		c-1.6-6.1-3.9-11.9-6.4-18.3c9.7,1.9,18.9,2.1,28.1,1.9c3.2-0.1,4.4,0.7,4.2,4.1c-0.3,8.6-0.3,17.3-0.4,25.9
		C501.6,659.1,501.3,659.3,501,659.5z"/>
	<path fill="#F0F6FE" d="M647.8,637.9c-7.9-15.4-15.9-30.8-23.8-46.3c-0.5-0.9-0.8-1.8-1.3-2.7c-3.5-6.2-3.5-6.2,4-6.2
		c11,0,22,0,32.9-0.1c2.9,0,4.3,0.8,5.5,3.7c3.9,9,8.9,17.6,13.1,26.5c5.3,11.4,12.4,21.8,16.3,33.8c1.2,3.7,1.7,7.6,2.6,11.4
		c-0.1,0.6-0.1,1.1-0.2,1.7c-27.1,0.1-54.2,0.2-81.3,0.2c-29.9,0-59.8-0.2-89.7-0.3c-0.8-0.7-1.6-0.6-2.4-0.1c-0.5,0-1.1,0-1.6-0.1
		c-0.3-0.4-0.5-0.9-0.8-1.3c0-3,0-6,0-9c0.1-0.1,0.4-0.2,0.4-0.2c-0.1-0.2-0.2-0.5-0.4-0.7c0-6,0-12,0.1-18
		c4.5,0.7,9.3-1.7,13.5,1.5c-1.7,4.6-3.6,9.1-5.2,13.7c-0.8,2.3-1,4.7,2.1,5.6c2.6,0.8,4.5,0.6,6-2.4c2.7-5.3,3.7-11.1,6-16.5
		c1.2-2.9,2.3-3.7,5.2-3.8c16.2-0.5,32-3.7,47.6-8.2c5.4-1.6,10.4-4.1,13.9-8.8c1.4,1.3,0.9,3.1,0.9,4.7c0.1,7.1,0,14.2,0,21.3
		c0,0,0,0,0,0c-13.5-0.1-27-0.1-41.2,2.8c1.9,1.7,3.1,2,4.4,2.2c9.7,1.6,19.4,2.4,29.2,2c2.5-0.1,5,0.2,7.4,1
		c1.6,6.7,2.7,7.2,9.3,3.6c0,0,0.4-0.1,0.4-0.1l-0.3-0.3c0.2-1,0.3-2.1,0.5-3.1c10.9-0.4,21.8-0.6,32.7-1.2
		c4.1-0.2,8.1-1.1,12.2-1.7c0.9-0.2,2.1-0.4,2.2-1.6c0.1-1.3-1-1.6-2-1.8C659.8,637.9,653.9,635.8,647.8,637.9z"/>
	<path fill="#F0F6FE" d="M231,589c-0.7,9.6-0.8,19.2,0,28.8c0.2,2.1,0.5,4.3-0.9,6.2c-20.6-0.1-41.2-0.3-61.9-0.3
		c-2.7,0-3.9-0.6-4.7-3.4c-2.9-10.3-6.3-20.4-13.9-28.4c-0.8-0.9-0.7-1.8-0.6-2.8c0.7-8.2,1.4-16.4,2.1-24.6c0.1-1.6,1-2.6,2.6-2.4
		c4.3,0.4,8.5-1,12.8-1c10.8,0.1,21.5-0.9,32.3-1.3c11.4-0.4,22.7-1.8,34.1-1.7c1.6,0,3.4-0.7,4.7,0.8c-2.6,2.8-2.2,6.6-3.2,9.9
		c-1.8,5.5-2.2,11.4-3.2,17.2C230.3,587,230.1,588,231,589z"/>
	<path fill="#F0F6FE" d="M778.9,598c-0.1-1.3-0.1-2.6-0.2-3.9c0.9-3.1-1.2-6-0.9-9.1c-2.1-9.1-3.3-18.4-7.1-27.1
		c12.9-0.5,25.7,1.1,38.6,2c1.3,0.1,2.7,0.1,4,0.1c9-0.5,17.8,1.2,26.8,1c2.7-0.1,3.3,1.5,2.7,3.4c-2.6,9.4,0,18.5,1.6,27.6
		c1.5,9.1,4,18.1,4.6,27.4c0.2,3.4-1.1,4.1-4.3,4.1c-20.6-0.1-41.3,0-61.9,0.1c-0.6-0.5-1.1-0.6-1.5,0.2c-1,0.1-2.1,0.1-3.1,0.2
		c-0.5-4.4-0.1-8.7,0.7-13C779.5,606.7,779.5,602.3,778.9,598z"/>
	<path fill="#B9D3FF" d="M285.2,293.1c-2.5-0.2-3,2-3.8,3.4c-9.3,15.4-22.2,26.8-38.2,34.7c-7.5,3.7-15.7,5.6-23.8,6.5
		c-25.5,2.8-48.4-3.4-67.6-21.3c-8.5-8-16.3-16.7-21.2-27.3c-4.8-10.4-7.6-21.5-7.7-33.1c0.6,0.6,1.6,1.1,1.7,1.7
		c3.4,21,16.4,35.7,32.6,47.6c33.8,24.9,79.2,22,109.9-6.4c5.4-5,10.3-10.4,13.7-17c0.7-1.3,1.3-1.7,2.6-1.7c2,0.1,1.2,1.6,1.3,2.6
		C285,286.3,285.1,289.7,285.2,293.1z"/>
	<path fill="#F0F6FE" d="M290.6,556.5c0-8.3,0-16.6-0.2-24.9c-0.1-2.8,0.9-3.7,3.7-3.7c6.5,0.2,13,0.4,19.5-0.2
		c4.4-0.4,6,1.6,6.3,5.1c0.9,13.1,4.6,25.6,7.3,38.3c0.7,3.3,3.2,6.1,5.9,8.4c0.8,0.7,1.8,0.7,1,2.3c-5.9,11.8-11.5,23.8-17.3,35.7
		c-0.2,0.4-0.7,0.6-1.4,1.2c-2.5-7.5-3.5-15.1-6.9-22.2c-4.2-8.6-9-16.5-15.6-23.1c-1.7-1.7-2.6-3.3-2.4-5.6c0.6-1.4,0.7-2.8,0-4.2
		c0-1,0-2,0-2.9C291.2,559.2,291.1,557.8,290.6,556.5z"/>
	<path fill="#F0F6FE" d="M669.4,571.6c-0.8,2.2-2.8,1.5-4.3,1.5c-39.8,0-79.7,0-119.5,0c-5,0-9.2-4-8.3-9.3
		c1.2-6.8-0.1-13.7,2.3-20.4c2.4-6.8,6.8-11.2,13.6-12.4c8.7-1.5,17.6-0.5,26.4-0.6c3,0,2.5,1.9,2.1,3.7c-7.1,0-14.1-0.1-21.2,0.1
		c-2.5,0.1-5.2-1-7.6,0.9c-7,1.7-10,7.2-10.8,13.4c-0.6,5.1-0.8,10.4-1.3,15.6c-0.2,2.4,0.8,3.7,3.1,4.2c2.6,1.3,5.3,1.3,7.9,0
		c25.7,0,51.4,0,77.1,0c0.3,0.5,0.6,0.6,0.9,0c3-0.3,2-2.6,2-4.2c0-8.9-0.3-17.9,2.2-26.4c3-10.1,7.9-14.1,18.8-14.8
		c6.8-0.4,13.6-0.2,20.4-0.3c0.5,0.5,0.9,0.4,1.1-0.2c2-2.5,2.2-5,1.8-8.3c-0.8-5.4-0.1-11-0.4-16.5c-0.9-15-5-29.3-10.7-43.1
		c-3-7.2-9.7-10.4-17.2-11.8c-1.2-1.1-2.5-1-3.9-0.2c-2.1,0-4.1,0-6.2,0c-2.9-0.8-5.9-0.8-8.8,0c-1.1,0-2.1,0.1-3.2,0.1
		c-0.7-0.7-1.4-0.6-1.9,0.2c-6.6,1.2-12,4.3-16.1,9.6c-0.9,1.2-1.8,2.3-3.2,1.2c-1.6-1.2-0.8-2.6,0.2-3.9c5.6-7,12.9-10.7,21.8-11.1
		c6.5-0.3,13-0.7,19.5,0c15.6,1.6,21.2,9.1,25.8,22.2c4.1,11.4,6.4,23.3,7.5,35.2c0.7,8.2,2.7,16.6,0.7,25c-1.1,4.7-4,6.2-8.1,6.4
		c-5.2,0.2-10.3,0.2-15.5-0.1c-10.5-0.6-18.3,5-19.6,17.7c-0.7,6.5,0.1,13.2-1.1,19.8c-0.3,1.5-0.7,3.5,2,3.6c0.3,0.5,0.6,0.5,0.9,0
		c1.7,0,3.4,0,5.1,0c0.6,0.9,1.3,0.9,1.9,0c7.4-0.2,14.7-0.5,22.1,0C668.5,569.3,668.9,570.4,669.4,571.6z"/>
	<path fill="#B9D3FF" d="M779.4,353.2c-3.9,6.7-7.9,13.2-13.6,18.8c-17.8,17.5-43.1,21.7-65.1,9.9c-21.8-11.7-32.4-30.4-32.5-55.1
		c1.3,0.4,1.6,1.4,1.9,2.6c8,24.1,24.9,38.4,49.8,41.5c26,3.2,45.3-8.4,58.1-31c0.4-0.7,1-1.2,1.6-1.8c0,0-0.1,0-0.1,0
		C779.6,343,780,348.1,779.4,353.2z"/>
	<path fill="#99D100" d="M208.5,284.4c-0.1-2.7,0.1-4.7,3.9-4.7c20.5,0.2,40.9,0.1,61.4,0.1c0.4,0,0.9,0.2,1.8,0.5
		c-12.1,17.4-27.3,29.3-48.1,33.9c-4.7,1-9.4,1.3-14,2.5c-3.1,0.9-5,0.2-4.9-3.8c0.2-6.8-0.1-13.6-0.1-20.4
		C209.1,289.8,209,287.1,208.5,284.4z"/>
	<path fill="#F0F6FE" d="M357.4,442.7c-10.9,1.8-16.4,8.7-19.8,18.7c-6.2,18.1-9.2,36.5-8.7,55.7c0.1,4,1.4,5.3,5.1,5.4
		c7.1,0.1,14.3-0.4,21.4,0.6c0,0,0.1,0,0.1,0c11.9,3.3,16.3,11.3,16.8,23.3c0.3,6.1,0.1,12.4,1.4,18.6c0.6,2.8,1,3,3.4,3
		c27.9-0.1,55.9-0.2,83.8-0.1c3.2,0,4.2-0.8,4.2-4.2c0-5.3-2.1-10.4-0.9-15.7c1.6-1.6,0.4-3.3,0-4.9c-0.6-2-1.5-3.9-1.2-6.1l0,0
		c0.4,0,0.7,0,1.1-0.1c2.7,2.3,3.6,5.8,3.7,8.7c0.1,6.3,1.7,12.4,1.3,18.8c-0.4,6.5-2.2,8.7-8.7,8.7c-27.3,0-54.6,0-81.9,0
		c-11.8,0-23.6,0-35.5,0c-1.3,0-2.7,0-4-0.1c-1.6-0.1-2.9-0.6-3-2.6c-0.1-2.3,1.6-2.2,3-2.2c8.7,0,17.3,0,26,0
		c1.3,1.1,2.6,1.4,3.8-0.3c-0.2-9.5-0.4-19.1-1.9-28.5c-1.1-6.8-7.5-11.6-15.6-12c-6-0.3-12-0.1-18-0.3c-5.3-0.1-8.2-3-8.2-8.4
		c-0.1-14.3,1-28.3,4.4-42.4c1.8-7.6,3.3-15.2,6.7-22.3c4.9-10.2,13.2-15.5,24.5-15.6c10.7,0,21.5-1.7,31.7,3.4
		c3.6,1.8,6.4,4.1,8.8,7.1c0.8,1,2.7,2.4,1.2,3.7c-1.4,1.2-3.2,0.5-4.3-1c-4.3-5.9-10.6-8-17.4-9c0,0-0.2-0.3-0.2-0.3l-0.2,0.3
		c-7.5,0-15.1,0.1-22.6,0.1c0,0-0.2-0.3-0.2-0.3L357.4,442.7z"/>
	<path fill="#F0F6FE" d="M324.6,465.7c-4.4,18.5-6.6,37.2-6.1,56.2c-0.5,0.2-1,0.5-1.5,0.7c-4.7,0-9.4,0-14.1,0
		c-4.2-1.4-8.5-0.4-12.7-0.7c-0.3-1.8-0.5-3.6,0.2-5.3c0,0,0.3-0.1,0.3-0.1l-0.2-0.2c0-1,0-1.9,0-2.8c0.6-2.7,0.6-5.3,0-8
		c0-12,0-23.9-0.1-35.9c0-2.9,0.7-4.1,3.9-4c10,0.2,20,0.1,29.9,0.1c0,0,0.1,0.2,0.1,0.2L324.6,465.7z"/>
	<path fill="#B9D3FF" d="M718.1,214.8c1.6,0.4,1.7,1.8,2.1,3.1c6.7,20.8,21.1,34.5,41.8,39.6c27.7,6.9,59.3-5.8,70.7-37.1
		c3.2-8.8,3.4-18.1,3.2-27.4c1.6,1.3,1,3.1,1,4.7c0.1,4.2-0.1,8.3,0.1,12.5c0.6,15-4.1,28.8-11.8,41.1c-8.5,13.5-21.2,22-37.2,24.7
		c-2.4,0.4-3,1.5-3.2,3.5c-1.7-3.8-4.7-5.4-8.7-4.8c-2.3,0.3-4.1-0.2-5.7-2c-10.5-11.8-23.7-18.2-39.4-19.4c-1.5-0.1-2.4-0.8-3.1-2
		c-1.5-6.1-5.6-11-7.4-17C718.4,227.8,717.4,221.4,718.1,214.8z"/>
	<path fill="#F0F6FE" d="M285.4,536.6c0,9.6,0,19.1,0,28.7c0,0-0.3,0.1-0.3,0.1l0.1,0.2c-6.1-2.2-11.4-6.2-17.6-8.3
		c-10.5-3.6-21.3-4.9-32.2-5.2c-3.5-0.1-6.9-0.1-10.4-0.2c-0.4-7.3,0.8-14.5-0.6-21.8c-0.2-2.5,1.6-2.1,3-2.1
		c18.3,0,36.6,0,54.9-0.1c2.8,0,3.6,1.1,3.1,3.6C284.8,533.1,284.8,534.9,285.4,536.6z"/>
	<path fill="#F0F6FE" d="M924,496.2c7.7,0.6,14.9,6.4,14.2,15.8c-1.1,15.4-2.8,30.7-4,46.1c-0.7,8.2-1.4,16.4-2,24.6
		c-0.7,9.6-8,15.1-16.2,15.2c-9.7,0.1-19.3-0.1-29-0.1c-0.3-0.5-0.6-0.4-0.9,0.1c-9.9,2.2-13.4,9.9-15.9,18.5
		c-3.2,11-6.7,21.9-10,32.9c-0.6,1.8-1.9,2.9-3.6,2.4c-1.7-0.5-1.6-2-1-3.7c4.5-13.5,8.7-27.1,13.4-40.5c2.8-8,8.6-12.9,17.2-14
		c10,0.8,20,1.2,29.9-0.2c9-2.1,11.2-5.1,12.1-14.5c1.4-15.5,3.5-30.9,4.8-46.4c0.6-7,1.4-14,1.9-21c0.4-5.7-3.7-9.1-9.1-10.7
		c0,0-0.2-0.3-0.2-0.3s-0.2,0.2-0.2,0.2c-9.1,0-18.2,0-27.4,0c0,0-0.3-0.2-0.3-0.2l-0.2,0.3c-3.9,0.5-7,2.6-9.8,5.2
		c-1.2,1.1-2.2,2.5-4.2,2.1c-0.8-0.2-1.7,0.1-2.1-0.9c-0.3-0.8-0.1-1.5,0.6-2.2c4.1-3.7,8-7.8,14.1-7.9c4.1,0,8.3,0.2,12.4,0
		C913.6,496.6,918.8,497.9,924,496.2z"/>
	<path fill="#F0F6FE" d="M137.4,593.7c11.2,2.7,15,11.3,17.7,21.3c2.5,9.2,6.1,18.1,9.5,27c0.8,2,0.9,4.2,1.9,6.1
		c0.7,1.4,0.9,2.3-1.1,2.8c-1.9,0.5-2.7-0.1-3.2-1.6c-2.1-6.5-3.9-13.2-6.3-19.6c-2.8-7.3-4.3-15.1-7.6-22.3
		c-3-6.5-7.8-9.3-14.3-9.6c-7.6-0.4-15.3-0.5-23,0c-15.6,1.1-20.9-8.4-21.9-20.6c-1.2-13.7-2.5-27.4-3.9-41.1
		c-0.7-6.8-1.5-13.7-2-20.5c-0.7-10,2.1-16.9,10.4-18.8c9.1-2.1,18-1.5,25.2,5.5c1.1,1.1,3.2,2.4,1.6,4.1c-1.4,1.5-3.1,0.9-4.7-0.9
		c-6.4-7.1-14.9-5.1-22.6-4c-5.1,0.8-7.5,7.5-6,13.5c2.2,8.8,1.6,17.9,2.8,26.9c1.6,12,3,24.1,3.9,36.2c0.3,5,1.8,8.9,5.2,12.3
		c1.7,1.7,3.5,2.9,6,2.6C115.8,595,126.6,593.8,137.4,593.7z"/>
	<path fill="#88AD04" d="M203,664.6c0-0.8,0.1-1.7,0-2.5c-0.6-4.8,1.6-6.4,6.2-6.2c11.3,0.3,8.3-2,11.7,8.9
		c3.2,10.6,5.9,21.3,8.9,32c0.4,1.3,0.9,2.8,0,3.8c-1.3,1.4-2.7,0.1-4-0.5C212.1,694.5,203.1,680.4,203,664.6z"/>
	<path fill="#88AD04" d="M805.2,665.1c-0.4,15-6.3,26.8-20.1,33.8c-1.1,0.5-2.3,1.8-3.6,0.6c-1.2-1.1,0.4-2.1,0.6-3.1
		c3.1-13,7.6-25.6,9.9-38.8c0.4-2.3,0.9-3,3-1.9c0.4,0.2,1,0.1,1.5,0.1C805,656.6,805,656.6,805.2,665.1z"/>
	<path fill="#F0F6FE" d="M611.6,600c0,0.6,0,1.3,0,1.9c-0.5,0-1.1,0.1-1.6,0.1c-4.6-6.7-12.1-7.9-19.1-9.9
		c-10.7-3-21.6-4.5-32.7-5.2c-2.1-0.1-4.1-0.9-6.2-1.4c-0.1-1.2,0.2-2.3,0.9-3.4c11.3,0,22.7,0,34,0c1.3,1.2,2.6,1.2,4,0
		c1.3,0,2.7,0,4,0c1.3,1.2,2.6,1.1,4,0c1,0,2,0,3,0c2,1.2,4,1.2,6,0c0.7,0,1.3,0,2,0c1.3,1.9,0.8,4.1,1,6.2
		C611.3,592.2,610.1,596.2,611.6,600z"/>
	<path fill="#F0F6FE" d="M922.1,666.9c-18.3,1-36.7,1-55,1.1c-1.7-1.8-1.2-3.9-1.1-6c0.3-0.2,0.7-0.5,1-0.7c0.7,0,1.3,0,2,0.1
		c7,1.1,14,1.4,21-0.2c7.7-1,15.5-1.4,22.8-4.6c2.8-1.2,4.4-0.5,5.6,2C919.7,661.3,920.9,664.1,922.1,666.9z"/>
	<path fill="#F0F6FE" d="M153.8,668c-18.1-0.4-36.1-0.9-54.2-1.3c0.1-0.6,0.2-1.4,0.5-1.9c4.5-9.1,4.5-9,14.4-6.1
		c6,1.8,12.2,2.5,18.5,2.5c7.2,1.8,14.5,0.4,21.8,0.8C155.7,664.2,154.2,666,153.8,668z"/>
	<path fill="#B9D3FF" d="M385.9,645c-14,0.2-28,0.2-42-2c-1.3-0.2-2.8-0.1-2.8-2c0-1.5,1.1-1.7,2.3-2.1c2.7-0.9,5.5-1,8.3-1
		c3,0,5.9,0.2,8.8-1c0.4,1.5,1.1,3.5,2.6,2.9c2-0.7,4.9,0.1,5.8-2.7c0.3-1,0.1-2.4,1.6-2.6c1,1.7,2.7,1.6,4.3,1.6
		c3.7,0,7.5,0,11.2,0C386,639,385.9,642,385.9,645z"/>
	<path fill="#B9D3FF" d="M647.8,637.9c6.1-2,12,0,18,1c1,0.2,2.1,0.5,2,1.8c-0.1,1.3-1.2,1.5-2.2,1.6c-4.1,0.7-8.1,1.5-12.2,1.7
		c-10.9,0.6-21.8,0.8-32.7,1.2c-0.4-2.7-0.6-5.5,0-8.2c2.1,0,4.3,0.2,6.4,0c3.4-0.4,7.2,1.4,10.3-1.4
		C641.9,641.5,642,641.5,647.8,637.9z"/>
	<path fill="#F0F6FE" d="M637.4,635.5c-3.1,2.8-6.9,1-10.3,1.4c-2.1,0.2-4.2,0-6.4,0c-0.1-1.1-0.2-2.2-0.3-3.3
		c0.7-2.1,0.7-4.2,0-6.3c0-1.9,0-3.8,0-5.7c0.7-1.1,0.7-2.2,0-3.3c0-1.9,0-3.8,0-5.7c0,0,0.3-0.2,0.3-0.2l-0.3-0.2
		c0.1-2.1,0.1-4.3,0.2-6.4c0.4-0.1,0.8-0.2,1.1-0.3C627.1,615.5,631.6,625.9,637.4,635.5z"/>
	<path fill="#B9D3FF" d="M395.3,636c11.9,1.8,24.1,0.3,36,3c1.8,0.4,4.9-0.7,5,1.8c0.1,2.1-2.9,2-4.8,2.3c-12,2-24,2.3-36.1,2.1
		C395.4,642,395.3,639,395.3,636z"/>
	<path fill="#F0F6FE" d="M386,636.1c-3.7,0-7.5,0-11.2,0c-1.6,0-3.3,0.1-4.3-1.6c4.7-9.7,9.4-19.4,14.9-28.8
		c0.3,0.1,0.6,0.1,0.9,0.2C386.2,616,386.1,626,386,636.1z"/>
	<path fill="#B9D3FF" d="M508,383.9c-1.5-1.5-0.9-3.5-0.9-5.2c-0.1-10.3-0.3-20.7,0.1-31c0.1-4.6-1.2-5.9-5.8-5.9
		c-47.8,0.2-95.6,0.1-143.4,0.1c-22.3,0-44.6,0.1-67,0.1c0-0.3-0.1-0.5-0.3-0.7c2.1-0.9,4.3-0.5,6.4-0.5c68.5,0,136.9,0,205.4-0.2
		c4.4,0,6,0.9,5.9,5.7C507.9,359,508.1,371.5,508,383.9z"/>
	<path fill="#B9D3FF" d="M610.8,645c-2.4-0.7-4.8-1.1-7.4-1c-9.8,0.4-19.5-0.4-29.2-2c-1.3-0.2-2.5-0.6-4.4-2.2
		c14.2-2.9,27.7-2.9,41.2-2.8C610.9,639.7,610.9,642.3,610.8,645z"/>
	<path fill="#B9D3FF" d="M320.1,274.4c1.6-0.8,3.3-0.5,4.9-0.5c62.8,0,125.7,0,188.5,0c1.8,0,3.7-0.4,5.4,0.5
		c-1.3,0.1-2.6,0.4-3.9,0.4c-63.5,0-127,0-190.5,0C323,274.8,321.6,274.5,320.1,274.4z"/>
	<path fill="#B9D3FF" d="M779.5,538c-1-1.3-0.6-2.9-0.6-4.4c0-58.2,0-116.4,0-174.7c0-1.3-0.3-2.7,0.5-3.9c0.1,1.3,0.4,2.6,0.4,3.9
		c0,58.3,0.1,116.7,0.1,175C779.9,535.3,779.7,536.6,779.5,538z"/>
	<path fill="#B9D3FF" d="M729.1,563.1c0-53.4,0-106.8,0-160.2c1.5,1.1,0.9,2.8,0.9,4.1c0,50.6,0,101.3,0,151.9
		C729.9,560.4,730.7,562,729.1,563.1z"/>
	<path fill="#F0F6FE" d="M424.2,533.9c0-1,0-1.9,0-2.9c0.6-0.2,1.1-0.3,1.7-0.5c8.6-0.7,17.1-0.6,25.7,0c4.4,0.3,7.9,3,11.3,5.5
		c0,0.3,0,0.6,0,1c0,0,0,0,0,0c-2.6,1.4-4.4-2.7-7-1c-1-0.4-2-0.8-3-1.1c-1.4-1.4-3.1-0.8-4.7-0.8C440.2,534,432.2,534,424.2,533.9z
		"/>
	<path fill="#B9D3FF" d="M531.1,274.4c1.1-0.2,2.3-0.5,3.4-0.5c34.3,0,68.7,0,103,0c1.1,0,2.3,0.3,3.4,0.4c-1.1,0.1-2.3,0.4-3.4,0.4
		c-34.3,0-68.6,0-102.9,0C533.4,274.8,532.2,274.5,531.1,274.4z"/>
	<path fill="#F0F6FE" d="M236,646.3c0.1,0.6-0.9,1.2-1.7,1.6c-1.1,0.5-1.8-0.3-2.3-1.2c-2.6-4.2-3.1-9.1-4.9-13.6
		c-0.3-0.7-0.2-1.8,0.9-1.9c1.1-0.1,2.5-0.6,3.1,0.9C232.7,636.5,234.2,641.1,236,646.3z"/>
	<path fill="#F0F6FE" d="M783.1,633.8c-0.6,4.7-3.2,8.9-4.3,13.5c-0.2,0.8-1.2,1-2.1,0.9c-1.2-0.2-1.8-1.1-1.5-2.1
		c1.5-4.6,2.4-9.5,4.6-13.9c0.6-1.1,1.5-1.4,2.5-1C783.5,631.6,782.8,632.8,783.1,633.8z"/>
	<path fill="#B9D3FF" d="M292.5,256.2c1.6,5-0.4,9.7-0.9,14.6c-0.2,1.4-0.6,2.6,0.7,3.5c-1.1,0.2-2.2,0.5-3.4,0.6
		c-2.8,0.2-3.6-0.1-1.9-3.4C289.4,266.7,290.7,261.3,292.5,256.2z"/>
	<path fill="#B9D3FF" d="M610.1,602c0.5,0,1.1-0.1,1.6-0.1c0.8,11.2,0.2,22.3,0.2,33.5c0,0.5-0.6,1.1-0.9,1.6c0-7.1,0-14.2,0-21.3
		c0-1.6,0.5-3.3-0.9-4.7C610.1,608,610.1,605,610.1,602z"/>
	<path fill="#B9D3FF" d="M735.1,517c1.4,1.4,0.8,3.1,0.8,4.7c0,9.8,0,19.6,0,29.5c0,1.6,0.5,3.4-0.8,4.7
		C734.7,543,734.6,530,735.1,517z"/>
	<path fill="#B9D3FF" d="M456,536c2.6-1.7,4.4,2.4,7,1c-0.4,2.2,0.6,4.1,1.2,6.1c0.5,1.6,1.7,3.3,0,4.9
		C462.7,543.1,460.7,538.7,456,536z"/>
	<path fill="#B9D3FF" d="M137.4,593.7c-10.8,0-21.6,1.2-32.4-0.6C115.8,593.3,126.7,592,137.4,593.7z"/>
	<path fill="#B9D3FF" d="M916,593.2c-10,1.5-19.9,1-29.9,0.2C896,592.6,906,593,916,593.2z"/>
	<path fill="#B9D3FF" d="M424.2,533.9c8,0,16,0,24,0.1c1.6,0,3.4-0.5,4.7,0.8c-8.7,0-17.5,0.1-26.2,0.1
		C425.8,535,424.7,535.2,424.2,533.9z"/>
	<path fill="#B9D3FF" d="M553,534.9c2.3-1.9,5-0.9,7.6-0.9c7.1-0.1,14.1-0.1,21.2-0.1c-1,2.1-2.9,1.1-4.4,1.1
		C569.3,535.1,561.2,535,553,534.9z"/>
	<path fill="#B9D3FF" d="M924,496.2c-5.1,1.8-10.4,0.5-15.6,0.7c-4.1,0.2-8.3,0-12.4,0c3-2.1,6.4-1.1,9.6-1.1
		C911.7,495.8,917.9,495.3,924,496.2z"/>
	<path fill="#81DB8C" d="M290.6,299.5c0.6,8.4,0.7,16.8,0,25.2C289.9,316.3,289.9,307.9,290.6,299.5z"/>
	<path fill="#B9D3FF" d="M224.4,530c1.4,7.2,0.3,14.5,0.6,21.8C223,544.6,224.3,537.3,224.4,530z"/>
	<path fill="#B9D3FF" d="M501,692.9c0-5.7,0-11.5,0.1-17.2c0-1.6-0.5-3.3,0.9-4.6c0.1,6.7,0.2,13.4,0.2,20.1
		C502.2,692,502.1,692.8,501,692.9z"/>
	<path fill="#B9D3FF" d="M779.2,287.5c-1.6-2.4-2.5-3.9-3.5-5.4c-0.4-0.7-1.2-1.3-0.7-2.2c0.5-0.9,1.4-0.8,2.2-0.8
		c1.2,0,1.5,0.7,1.8,1.8C779.8,282.9,778.6,284.7,779.2,287.5z"/>
	<path fill="#B9D3FF" d="M154.8,662c-7.3-0.4-14.6,1-21.8-0.8C140.3,661.5,147.6,659.9,154.8,662z"/>
	<path fill="#B9D3FF" d="M890,661.1c-7,1.6-14,1.3-21,0.2C876,661.3,883,661.2,890,661.1z"/>
	<path fill="#B9D3FF" d="M513.9,279.8c-0.4,6.7,1,13.5-0.7,20.2C513.3,293.2,511.8,286.4,513.9,279.8z"/>
	<path fill="#B9D3FF" d="M611.6,600c-1.5-3.8-0.3-7.7-0.6-11.6c-0.2-2.1,0.4-4.3-1-6.2c2.2-0.4,1.9,1.2,1.9,2.5
		C611.8,589.8,611.7,594.9,611.6,600z"/>
	<path fill="#81DB8C" d="M290.6,372.5c0.5,6,0.6,12.1-0.1,18.1C290,384.5,289.9,378.5,290.6,372.5z"/>
	<path fill="#B9D3FF" d="M513.2,583c2.5,0.9,5.9-1.6,7.8,1.9C518.4,584.2,515,587.1,513.2,583z"/>
	<path fill="#B9D3FF" d="M294.1,229c1.6,5.3,1.5,10.7,0,16C294.1,239.7,294.1,234.3,294.1,229z"/>
	<path fill="#B9D3FF" d="M534.6,631.5c-4.2-3.2-9-0.8-13.5-1.5c4.2-2.3,8.7-0.9,13-1.1C535.9,628.9,535.1,630.5,534.6,631.5z"/>
	<path fill="#B9D3FF" d="M513.2,540c1.3,4.3,1.3,8.6,0,12.9C513.2,548.7,513.2,544.3,513.2,540z"/>
	<path fill="#B9D3FF" d="M290.2,522c4.2,0.3,8.6-0.8,12.7,0.7C298.7,522.7,294.4,523.9,290.2,522z"/>
	<path fill="#81DB8C" d="M290.6,410.5c0.6,3.7,0.6,7.3,0,11C290,417.8,290,414.2,290.6,410.5z"/>
	<path fill="#B9D3FF" d="M526.9,341c-3.6,1.6-7.2,1.4-10.9,0.2C519.7,341.1,523.3,341.1,526.9,341z"/>
	<path fill="#81DB8C" d="M290.5,347.5c0.7,3.3,0.7,6.7,0.1,10C289.9,354.2,290,350.8,290.5,347.5z"/>
	<path fill="#81DB8C" d="M285.4,420.6c-0.6-3.4-0.6-6.8,0-10.2C286.1,413.8,286.1,417.2,285.4,420.6z"/>
	<path fill="#B9D3FF" d="M197.6,664c-1.2-2.4,0.4-6.8-4.6-6.6C198.5,656.6,198.5,656.6,197.6,664z"/>
	<path fill="#B9D3FF" d="M735.1,414c1.4,3.6,1.4,7.3,0,11C734.7,421.3,734.6,417.7,735.1,414z"/>
	<path fill="#B9D3FF" d="M521.1,683c1.8,3.2,0.5,6.7,0.9,10C519.6,689.9,521.1,686.4,521.1,683z"/>
	<path fill="#F0F6FE" d="M94,676.9c-0.3,2.4,0.3,5.3-3.2,5.9C91.5,680.7,91.7,678.2,94,676.9z"/>
	<path fill="#F0F6FE" d="M90.8,682.8c0.3,2.8-0.1,5.1-3.6,5.3C88.4,686.3,89.6,684.5,90.8,682.8z"/>
	<path fill="#81DB8C" d="M290.6,505.5c0.6,2.7,0.6,5.3,0,8C289.9,510.8,289.9,508.2,290.6,505.5z"/>
	<path fill="#F0F6FE" d="M99.7,666.7c0.4,2.2,0.8,4.4-2.6,4.3C96.7,668.8,98.8,668.1,99.7,666.7z"/>
	<path fill="#F0F6FE" d="M96.9,671.7c0.1,2.4,0.1,4.6-3,5.2C94.6,675,95.1,673,96.9,671.7z"/>
	<path fill="#21BC50" d="M208.5,284.4c0.4,2.7,0.6,5.5,0,8.2C208,289.8,207.9,287.1,208.5,284.4z"/>
	<path fill="#B9D3FF" d="M629.1,442.4c2.9-0.8,5.9-0.8,8.8,0C635,443,632,443,629.1,442.4z"/>
	<path fill="#81DB8C" d="M285.5,304.6c-0.6-2.4-0.6-4.8,0-7.2C286.1,299.8,286.1,302.2,285.5,304.6z"/>
	<path fill="#81DB8C" d="M290.4,282.2c0.8,2.4,0.8,4.9,0.1,7.3C289.9,287.1,289.9,284.7,290.4,282.2z"/>
	<path fill="#B9D3FF" d="M528.9,664.9c-2.4,2.1-5.2,0.5-7.8,1.1C523.4,663.3,526.3,665,528.9,664.9z"/>
	<path fill="#B9D3FF" d="M253,522.6c2.6-1,5.3-1.1,7.9,0C258.3,523.1,255.7,523.1,253,522.6z"/>
	<path fill="#B9D3FF" d="M513.2,556c1.3,2.6,1.3,5.3,0,7.9C513.2,561.3,513.2,558.7,513.2,556z"/>
	<path fill="#B9D3FF" d="M552,568.1c-2.6,1.3-5.3,1.3-7.9,0C546.7,567.7,549.3,567.7,552,568.1z"/>
	<path fill="#B9D3FF" d="M735.1,448c1.3,2.3,1.3,4.6,0,6.9C734.7,452.7,734.7,450.3,735.1,448z"/>
	<path fill="#B9D3FF" d="M429,524.6c2.3-1,4.6-1,6.9,0C433.6,525.1,431.3,525.1,429,524.6z"/>
	<path fill="#81DB8C" d="M620.5,627.4c0.7,2.1,0.7,4.2,0,6.3C619.9,631.5,619.9,629.5,620.5,627.4z"/>
	<path fill="#81DB8C" d="M285.4,536.6c-0.6-1.7-0.6-3.5,0-5.2C286,533.1,286,534.9,285.4,536.6z"/>
	<path fill="#F0F6FE" d="M867.3,671c2.5,0.8,2.1,2.3,0.9,4C868.4,673.5,866.4,672.6,867.3,671z"/>
	<path fill="#F0F6FE" d="M152,684.1c0.2-2-0.7-4.2,0.8-6C152.9,680.1,153.8,682.2,152,684.1z"/>
	<path fill="#B9D3FF" d="M222,522.9c1.9-1.4,3.9-1.2,5.9-0.3C226,522.7,224,522.8,222,522.9z"/>
	<path fill="#B9D3FF" d="M608,582.2c-2,1.2-4,1.3-6,0C604,581.8,606,581.8,608,582.2z"/>
	<path fill="#B9D3FF" d="M427,522.1c0,0.7,0.1,1.5,0.1,2.2c-0.6,0.1-1.5,0.3-1.5-0.5C425.7,523.2,426.5,522.6,427,522.1z"/>
	<path fill="#F0F6FE" d="M153,675.1c0.1-1.7-0.6-3.5,0.8-5C154,671.8,154.8,673.6,153,675.1z"/>
	<path fill="#B9D3FF" d="M494,692.8c1.7-1.1,3.3-1.2,4.9,0.1C497.3,693.3,495.7,693.2,494,692.8z"/>
	<path fill="#81DB8C" d="M290.6,556.5c0.6,1.4,0.6,2.7-0.1,4C290,559.2,290,557.8,290.6,556.5z"/>
	<path fill="#B9D3FF" d="M513.2,529c1.2,1.6,1.2,3.3,0,4.9C513.2,532.3,513.2,530.7,513.2,529z"/>
	<path fill="#81DB8C" d="M455.4,460.5c1.4-0.7,2.9-0.6,4.3,0C458.2,461.1,456.8,461,455.4,460.5z"/>
	<path fill="#B9D3FF" d="M553,582.2c-0.7,1-1.1,2.1-0.9,3.4C550.2,583.9,550.6,582.8,553,582.2z"/>
	<path fill="#81DB8C" d="M290.5,563.4c0.7,1.4,0.6,2.8,0,4.2C289.9,566.3,289.9,564.8,290.5,563.4z"/>
	<path fill="#B9D3FF" d="M513.2,359c1.1,1.3,1.2,2.6,0,3.9C513.2,361.7,513.2,360.3,513.2,359z"/>
	<path fill="#B9D3FF" d="M197.9,671c-1.1-1.3-1.2-2.6-0.2-4C198.2,668.3,198.2,669.7,197.9,671z"/>
	<path fill="#B9D3FF" d="M368.8,567.9c-1.2,1.7-2.4,1.3-3.8,0.3C366.3,568,367.6,567.9,368.8,567.9z"/>
	<path fill="#B9D3FF" d="M669.4,571.6c-0.5-1.1-0.9-2.2-1.4-3.4C670.7,568.4,670.4,569.9,669.4,571.6z"/>
	<path fill="#81DB8C" d="M621.8,605.6c-0.4,0.1-0.8,0.2-1.1,0.3c-0.5-0.4-0.4-0.9,0-1.1C621.4,604.4,621.9,604.7,621.8,605.6z"/>
	<path fill="#B9D3FF" d="M396,581.8c-0.3,1.4,0.4,3-0.9,4.2c-0.3-1.5-0.5-2.9,0.2-4.3c0,0,0.3,0,0.3,0l0.2-0.2L396,581.8z"/>
	<path fill="#B9D3FF" d="M295.6,274.3c1.4-0.4,2.9-0.6,4.3,0.1C298.4,274.9,297,274.9,295.6,274.3z"/>
	<path fill="#B9D3FF" d="M591,582.2c-1.3,1.2-2.6,1.2-4,0C588.3,581.8,589.7,581.8,591,582.2z"/>
	<path fill="#B9D3FF" d="M599,582.2c-1.3,1.1-2.6,1.1-4,0C596.3,581.8,597.7,581.8,599,582.2z"/>
	<path fill="#81DB8C" d="M620.5,618.4c0.7,1.1,0.7,2.2,0,3.3C620,620.6,620,619.5,620.5,618.4z"/>
	<path fill="#81DB8C" d="M386.3,605.9c-0.3-0.1-0.6-0.1-0.9-0.2c-0.1-0.6,0.2-1,0.8-0.9C386.7,605,386.8,605.5,386.3,605.9z"/>
	<path fill="#B9D3FF" d="M644.1,442.4c1.3-0.7,2.7-0.8,3.9,0.2C646.7,442.6,645.4,442.5,644.1,442.4z"/>
	<path fill="#B9D3FF" d="M502,668c-1.1-0.8-0.9-2-1-3.1c0,0,0.2-0.3,0.2-0.3c0,0,0.2,0.2,0.2,0.2l0.2-0.1
		C502.5,665.7,502.3,666.8,502,668z"/>
	<path fill="#B9D3FF" d="M735.1,558c1.1,0.1,2.2,0.2,3.3,0.2C737.2,559.1,736,560.2,735.1,558z"/>
	<path fill="#B9D3FF" d="M513.2,333c1,0.8,0.7,1.9,0.8,2.9C512.1,335.4,513.1,334.1,513.2,333z"/>
	<path fill="#B9D3FF" d="M218.1,552.1c0-1.1-0.3-2.3,0.8-3.1C219.1,550.2,219.7,551.4,218.1,552.1z"/>
	<path fill="#B9D3FF" d="M395.2,609c1.1,1,1.1,2,0,3C395.2,611,395.2,610,395.2,609z"/>
	<path fill="#B9D3FF" d="M282,522.6c0.9-0.9,2-0.6,3-0.5C284.2,523.3,283.1,522.8,282,522.6z"/>
	<path fill="#B9D3FF" d="M513.2,480c1,1,1,2,0,2.9C513.2,482,513.2,481,513.2,480z"/>
	<path fill="#B9D3FF" d="M265,522.6c1-0.9,2-0.9,2.9,0C267,522.6,266,522.6,265,522.6z"/>
	<path fill="#B9D3FF" d="M312.8,657.8c0.4,0.6,0.8,1.3,1.2,1.9C312.2,659.9,311.6,659.4,312.8,657.8z"/>
	<path fill="#21BC50" d="M720.6,258.7c-0.7,0.1-1.4,0.2-2.1,0.2C719.1,258.1,719.9,258.1,720.6,258.7z"/>
	<path fill="#B9D3FF" d="M624,442.7c0.6-0.9,1.2-0.9,1.9-0.2C625.3,442.5,624.7,442.6,624,442.7z"/>
	<path fill="#81DB8C" d="M674.5,522.2c-0.3,0.7-0.6,0.8-1.1,0.2C673.8,522.4,674.2,522.3,674.5,522.2z"/>
	<path fill="#B9D3FF" d="M490,692.6c0.7-0.8,1.3-0.8,1.9,0.1C491.3,692.7,490.7,692.7,490,692.6z"/>
	<path fill="#B9D3FF" d="M779.5,549c-0.7-0.6-0.7-1.3,0-1.9C779.5,547.7,779.5,548.3,779.5,549z"/>
	<path fill="#21BC50" d="M277.5,274.4c0.3,0,0.7,0,1,0C278.2,274.8,277.8,274.8,277.5,274.4z"/>
	<path fill="#B9D3FF" d="M735.1,428c0.9,0.7,0.9,1.3,0,2C735.1,429.3,735.1,428.7,735.1,428z"/>
	<path fill="#B9D3FF" d="M735,402c1,0.6,1,1.2,0.1,1.9C735,403.3,735,402.7,735,402z"/>
	<path fill="#B9D3FF" d="M426,530.6c-0.6,0.2-1.1,0.3-1.7,0.5C424.6,530,425.3,530.3,426,530.6z"/>
	<path fill="#81DB8C" d="M781.3,623.8c0.4-0.8,1-0.7,1.5-0.2C782.4,623.7,781.8,623.7,781.3,623.8z"/>
	<path fill="#21BC50" d="M207.5,274.6c0.4-0.5,0.8-0.5,1.2-0.1C208.3,274.6,207.9,274.6,207.5,274.6z"/>
	<path fill="#81DB8C" d="M779.4,337.9C779.4,337.9,779.5,337.9,779.4,337.9c0-0.2,0-0.5,0-0.7C779.4,337.4,779.4,337.7,779.4,337.9z
		"/>
	<path fill="#81DB8C" d="M810.6,668.4c0.5,0.4,0.5,0.8-0.1,1.2c-0.1-0.3-0.2-0.6-0.2-0.9C810.2,668.6,810.4,668.5,810.6,668.4z"/>
	<path fill="#81DB8C" d="M290.5,293.4c0.5,0.4,0.5,0.8,0,1.2c-0.1-0.3-0.2-0.5-0.3-0.8C290.3,293.7,290.4,293.5,290.5,293.4z"/>
	<path fill="#B9D3FF" d="M514.1,402.5c-0.3,0.5-0.6,1-1,1.4C512.9,403.2,512.8,402.4,514.1,402.5z"/>
	<path fill="#B9D3FF" d="M317,522.6c0.5-0.2,1-0.5,1.5-0.7C318.4,523.1,317.7,522.8,317,522.6z"/>
	<path fill="#81DB8C" d="M676.6,280.9c-0.1-0.4-0.3-0.8-0.4-1.2c0.2,0,0.5,0.1,0.7,0.1C676.8,280.2,676.7,280.5,676.6,280.9z"/>
	<path fill="#B9D3FF" d="M579,524.6c0.4-0.2,0.7-0.4,1.1-0.6c0,0.2,0.1,0.4,0.1,0.7C579.8,524.6,579.4,524.6,579,524.6z"/>
	<path fill="#81DB8C" d="M455.5,581.7c-0.4,0-0.7,0-1.1,0C454.8,581.1,455.1,581.1,455.5,581.7z"/>
	<path fill="#B9D3FF" d="M523.5,659.4c0.8-0.4,1.7-0.5,2.4,0.1C525.1,659.9,524.3,659.9,523.5,659.4z"/>
	<path fill="#B9D3FF" d="M696.9,659.6c0.1-0.6,0.1-1.1,0.2-1.7C698.2,658.6,698.6,659.2,696.9,659.6z"/>
	<path fill="#B9D3FF" d="M646,568.2c-0.6,0.9-1.3,0.9-1.9,0C644.7,568.2,645.3,568.2,646,568.2z"/>
	<path fill="#81DB8C" d="M285.4,478.6c-0.5-0.4-0.5-0.8,0-1.2c0.1,0.3,0.2,0.6,0.3,0.9C285.7,478.4,285.5,478.5,285.4,478.6z"/>
	<path fill="#B9D3FF" d="M453,524.6c0.4-0.5,0.7-0.4,0.9,0.1C453.7,524.7,453.3,524.6,453,524.6z"/>
	<path fill="#B9D3FF" d="M507.8,403c-0.3-0.2-0.5-0.4-0.8-0.6C507.6,402.1,507.9,402.3,507.8,403z"/>
	<path fill="#B9D3FF" d="M513.9,465.9c-0.3,0.3-0.5,0.7-0.8,1C513,466.3,513.1,465.9,513.9,465.9z"/>
	<path fill="#81DB8C" d="M324.6,465.7l-0.2,0.1c0,0-0.1-0.2-0.1-0.2c0,0,0.3-0.3,0.3-0.3L324.6,465.7z"/>
	<path fill="#81DB8C" d="M810.7,657.4l0.1,0.3c0,0-0.3,0.2-0.3,0.2c-0.1-0.1-0.2-0.1-0.3-0.2C810.4,657.5,810.6,657.5,810.7,657.4z"
		/>
	<path fill="#B9D3FF" d="M521.1,658c0.3,0.4,0.5,0.9,0.8,1.3C521,659.2,520.9,658.7,521.1,658z"/>
	<polygon fill="#81DB8C" points="620.2,648.3 620.5,648.5 620.1,648.6 620,648.4 	"/>
	<path fill="#B9D3FF" d="M501,659.5c0.3-0.2,0.5-0.3,0.8-0.5C501.9,659.7,501.6,659.8,501,659.5z"/>
	<path fill="#B9D3FF" d="M521.1,648c0.1,0.2,0.3,0.5,0.4,0.7c0,0-0.2,0.2-0.4,0.2C521.1,648.7,521.1,648.3,521.1,648z"/>
	<path fill="#81DB8C" d="M513.9,460.4c-0.3,0.5-0.4,0.2-0.6-0.1c0.2-0.1,0.5-0.2,0.7-0.3C514.1,460.1,514.1,460.3,513.9,460.4z"/>
	<path fill="#B9D3FF" d="M867,661.3c-0.3,0.2-0.7,0.5-1,0.7C865.9,661.2,866.3,661,867,661.3z"/>
	<path fill="#21BC50" d="M288.2,244.8c-0.1-0.2-0.1-0.5,0.1-0.7c0,0,0.2,0.4,0.2,0.4L288.2,244.8z"/>
	<path fill="#81DB8C" d="M501.6,664.7l-0.2,0.1c0,0-0.2-0.2-0.2-0.2c0,0,0.3-0.2,0.3-0.2L501.6,664.7z"/>
	<polygon fill="#21BC50" points="733.5,258.8 733.4,258.8 733.5,258.6 	"/>
	<path fill="#B9D3FF" d="M689.2,266.2c0.3-0.4,0.6-0.7,0.8-1.1C689.8,265.5,689.5,265.8,689.2,266.2z"/>
	<path fill="#81DB8C" d="M326.3,460.6l0.1-0.3c0,0,0.4,0.1,0.4,0.1s-0.1,0.4-0.1,0.4L326.3,460.6z"/>
	<path fill="#B9D3FF" d="M688.1,267.1c0.1-0.6,0.5-0.9,1.1-0.9C688.9,266.5,688.5,266.8,688.1,267.1z"/>
	<path fill="#81DB8C" d="M897.3,500.6l0.2-0.3c0,0,0.3,0.2,0.3,0.2c0,0-0.2,0.3-0.2,0.3L897.3,500.6z"/>
	<path fill="#81DB8C" d="M505.2,623.6c0.1-0.5,0.3-0.6,0.7-0.3c0,0-0.2,0.3-0.2,0.3L505.2,623.6z"/>
	<path fill="#81DB8C" d="M291.2,460.4l0.3-0.2c0,0,0.2,0.3,0.2,0.3s-0.3,0.2-0.3,0.2L291.2,460.4z"/>
	<path fill="#81DB8C" d="M620.5,612.3l0.3,0.2c0,0-0.3,0.2-0.3,0.2c0,0-0.2-0.2-0.2-0.2L620.5,612.3z"/>
	<path fill="#B9D3FF" d="M514,459.9c-0.2,0.1-0.5,0.2-0.7,0.3c0-0.4-0.1-0.8-0.1-1.3C513.4,459.3,513.7,459.6,514,459.9z"/>
	<path fill="#B9D3FF" d="M524,274.4c0.3,0,0.6,0,0.9,0C524.7,274.4,524.3,274.4,524,274.4z"/>
	<path fill="#81DB8C" d="M925.2,500.6l0.2-0.2c0,0,0.2,0.3,0.2,0.3c0,0-0.2,0.2-0.2,0.2L925.2,500.6z"/>
	<path fill="#B9D3FF" d="M886,597.8c0.3-0.5,0.6-0.6,0.9-0.1c0,0-0.4,0.2-0.4,0.2L886,597.8z"/>
	<path fill="#81DB8C" d="M285.3,514.6l-0.1-0.2c0,0,0.2-0.1,0.2-0.1c0,0,0.3,0.2,0.3,0.2L285.3,514.6z"/>
	<path fill="#81DB8C" d="M380.3,442.6l0.2-0.3c0,0,0.2,0.3,0.2,0.3s-0.2,0.2-0.2,0.2L380.3,442.6z"/>
	<path fill="#81DB8C" d="M357.4,442.7l0.1-0.3c0,0,0.2,0.3,0.2,0.3C357.7,442.7,357.4,442.7,357.4,442.7z"/>
	<path fill="#81DB8C" d="M650.3,432.8l0.2-0.3c0,0,0.1,0.3,0.1,0.3S650.3,432.8,650.3,432.8z"/>
	<path fill="#81DB8C" d="M290.6,516.3l0.2,0.2c0,0-0.3,0.1-0.3,0.1C290.4,516.6,290.6,516.3,290.6,516.3z"/>
	<path fill="#B9D3FF" d="M534,590.9c-0.3-0.2-0.7-0.3-1-0.5C533.6,590,533.8,590.5,534,590.9z"/>
	<path fill="#81DB8C" d="M624.3,432.7l0.2-0.3c0,0,0.3,0.2,0.3,0.2c0,0-0.2,0.3-0.2,0.3L624.3,432.7z"/>
	<path fill="#81DB8C" d="M503.7,279.4l-0.2,0.3c0,0-0.2-0.3-0.2-0.3s0.2-0.2,0.2-0.2L503.7,279.4z"/>
	<path fill="#B9D3FF" d="M527,590.2c-0.3,0.5-0.7,0.5-1,0C526.3,590.2,526.7,590.2,527,590.2z"/>
	<path fill="#B9D3FF" d="M514,341.2c-0.3,0.3-0.5,0.5-0.8,0.8C513.1,341.3,513.3,341,514,341.2z"/>
	<path fill="#81DB8C" d="M488.3,584.7l0.2-0.3c0,0,0.3,0.2,0.3,0.2s-0.2,0.2-0.2,0.2L488.3,584.7z"/>
	<path fill="#B9D3FF" d="M513.1,396c0.3,0.3,0.5,0.7,0.8,1C513.2,397.1,513,396.7,513.1,396z"/>
	<path fill="#81DB8C" d="M395.9,581.5l-0.2,0.2c0,0-0.3,0-0.3,0c0,0,0.2-0.3,0.2-0.3L395.9,581.5z"/>
	<path fill="#B9D3FF" d="M639,568.1c-0.3,0.5-0.6,0.6-0.9,0C638.4,567.9,638.6,567.9,639,568.1z"/>
	<path fill="#B9D3FF" d="M630,568.2c-0.3,0.5-0.6,0.5-0.9,0C629.3,568.2,629.6,568.2,630,568.2z"/>
	<path fill="#81DB8C" d="M285.3,565.6l-0.1-0.2c0,0,0.3-0.1,0.3-0.1c0.1,0.1,0.2,0.1,0.2,0.1C285.5,565.5,285.4,565.5,285.3,565.6z"
		/>
	<path fill="#B9D3FF" d="M779,551.8c0.2-0.3,0.3-0.5,0.5-0.8C779.8,551.6,779.6,551.8,779,551.8z"/>
	<polygon fill="#81DB8C" points="355.5,523.1 355.4,523 355.5,522.8 	"/>
	<path fill="#B9D3FF" d="M463,537c0-0.3,0-0.6,0-1c0.7-0.1,1,0.3,1.1,0.9C463.7,537,463.4,537,463,537z"/>
	<polygon fill="#81DB8C" points="290.6,335.3 290.7,335.6 290.4,335.5 	"/>
	<polygon fill="#81DB8C" points="507.6,279.7 507.3,279.8 507.3,279.6 507.5,279.4 	"/>
	<path fill="#81DB8C" d="M290.7,341.4c0.2,0.2,0.3,0.4,0.3,0.7c0,0-0.4-0.2-0.4-0.2c0,0-0.2-0.3-0.2-0.3L290.7,341.4z"/>
	<path fill="#B9D3FF" d="M717.9,193c0,5,0,10-0.1,14.9C716.4,203,716.3,198,717.9,193z"/>
	<path fill="#88AD04" d="M777.8,146.9c28.7-1.1,53.8,26.2,53.2,54.9c-0.7,28.4-24.2,51.7-54.3,52.2c-26.1,0.5-54.8-24.3-54.1-54.2
		C723.3,167.9,751.3,146.1,777.8,146.9z"/>
	<path fill="#F0F6FE" d="M222.2,165c6.9,0.9,13.6,3.4,19.5,6.7c14.2,7.9,26,18.5,33,33.6c1,2.2,2.8,4.8-0.6,6.4
		c-2.8,1.3-4.5-0.6-5.8-3.1c-9.4-18.3-24.7-29.6-43.8-36.2c-1.3-0.4-2.6-0.7-3.7-1.4c-1.3-0.8-3.3-1.2-2.4-3.6
		C219,165.7,220.2,164.7,222.2,165z"/>
	<path fill="#042881" d="M444,463.4c0.1,1.5-0.8,2.5-2.6,2.5c-1.7,0-3.3-0.4-3.4-2.7c-0.1-1.8,0.8-2.3,2.4-2.2
		C441.9,461.1,443.9,460.3,444,463.4z"/>
	<path fill="#81DB8C" d="M777.9,585c-0.3,3.1,1.7,6,0.9,9.1C776.1,591.3,777,588.1,777.9,585z"/>
	<path fill="#81DB8C" d="M778.9,598c0.6,4.3,0.6,8.7,0,13C777.7,606.7,777.7,602.3,778.9,598z"/>
	<path fill="#81DB8C" d="M231,589c-0.9-1-0.7-2,0.1-3C232.2,587,232.1,588,231,589z"/>
</g>
</svg>
