<?xml version="1.0" encoding="utf-8"?>
<!-- Generator: Adobe Illustrator 27.5.0, SVG Export Plug-In . SVG Version: 6.00 Build 0)  -->
<svg version="1.1" id="Ebene_1" xmlns="http://www.w3.org/2000/svg" xmlns:xlink="http://www.w3.org/1999/xlink" x="0px" y="0px"
	 viewBox="0 0 1232 928" enable-background="new 0 0 1232 928" xml:space="preserve">
<g>
	<path fill="#FFFEFE" d="M1053.9,358.1c-1.6-1.3-2.5-2.7-3.4-2.7c-0.8,0-2.4,1.6-2.3,2.3c0.1,1,1.3,2.3,2.3,2.7
		C1051.2,360.7,1052.4,359.2,1053.9,358.1z M1073.7,107.4c0.5-0.9,1-1.5,0.9-1.9c-0.1-0.4-0.9-1.1-1.3-1c-0.4,0-1,0.8-1,1.3
		C1072.3,106.2,1073,106.6,1073.7,107.4z M983.3,156.9c-1.5-0.4-2.1-0.7-2.6-0.6c-0.4,0.1-0.7,0.8-1,1.2c0.4,0.2,0.9,0.5,1.3,0.5
		C981.5,157.8,982,157.5,983.3,156.9z M988.7,156.9c-0.7-0.3-1.1-0.6-1.4-0.5c-0.3,0.1-0.5,0.6-0.8,0.9c0.4,0.2,0.8,0.6,1.1,0.5
		C987.9,157.8,988.2,157.3,988.7,156.9z M1138.3,469.1c0.3,0.2,0.6,0.4,0.8,0.5c0.1,0,0.3-0.3,0.3-0.3c-0.1-0.3-0.3-0.5-0.5-0.7
		C1138.7,468.7,1138.5,468.9,1138.3,469.1z"/>
	<path fill="#FDFEFC" d="M1053.9,358.1c-1.5,1.2-2.7,2.6-3.3,2.4c-1-0.4-2.2-1.7-2.3-2.7c-0.1-0.7,1.4-2.3,2.3-2.3
		C1051.4,355.4,1052.4,356.7,1053.9,358.1z"/>
	<path fill="#FDFEFC" d="M1073.7,107.4c-0.7-0.8-1.4-1.2-1.4-1.6c0-0.5,0.6-1.2,1-1.3c0.4,0,1.2,0.6,1.3,1
		C1074.7,105.9,1074.1,106.4,1073.7,107.4z"/>
	<path fill="#FDFEFC" d="M983.3,156.9c-1.3,0.6-1.8,1-2.3,1.1c-0.4,0-0.9-0.3-1.3-0.5c0.3-0.4,0.6-1.1,1-1.2
		C981.2,156.1,981.8,156.5,983.3,156.9z"/>
	<path fill="#FDFEFC" d="M988.7,156.9c-0.5,0.4-0.8,0.9-1.1,0.9c-0.4,0-0.7-0.3-1.1-0.5c0.3-0.3,0.5-0.8,0.8-0.9
		C987.6,156.3,988,156.6,988.7,156.9z"/>
	<path fill="#FDFEFC" d="M1138.3,469.1c0.3-0.2,0.5-0.4,0.7-0.6c0.2,0.2,0.3,0.4,0.5,0.7c0,0.1-0.2,0.4-0.3,0.3
		C1138.8,469.4,1138.6,469.3,1138.3,469.1z"/>
	<path fill="#0A42A4" d="M465.3,393c1.4-23.7,7.4-46.4,14.8-68.9c4.7-8,9.3-16.1,14-24.1c0.3-0.4,0.6-0.7,0.9-1.1
		c1-1.3,2.1-2.6,3.1-3.9c3.6-3.4,7.3-6.8,10.9-10.2c0.3-0.3,0.6-0.6,1-0.8c0,0,0,0,0,0c7-4,14.1-7.9,21.1-11.9
		c3.3-0.6,6.6-1.2,9.9-1.8c1.7,0.6,3.4,1.7,5.2,1.7c54.3,0.5,87,38.9,82,92.3c-3.3,35.1-1.7,70.7-2.2,106.1c0,2.7,0.8,5.5,1.2,8.3
		c0.4,2.7-5.1,3.9-7.6,1.3c-10.2-10.6-19.3-21.9-24-36.2c-2-5.9-5-11.5-7.6-17.2c-0.4,7-1.5,13.9-1.2,20.9
		c0.7,18.1,12.4,30.5,22.7,44c5.7,7.5,12.7,16.8,7.9,26.7c-9.4,19.4-27.4,27.8-47.3,32.8c-1.6,0.1-3.3,0.1-4.9,0.2
		c-14.7,1.8-25.8,0.4-23.7-19.5c1-9.1-0.2-19.5-3.8-27.8c-17.2-38.9-36.8-76.6-65.4-108.8c11.5,3.9,22.9,7.9,34.4,11.5
		c1.8,0.6,5.9-0.7,5.9-1.3c0.3-3.8-0.3-7.7-0.5-11.6c-0.9,0.1-2-0.1-2.6,0.3c-2.2,1.8-4.2,3.8-6.2,5.7c1.3-2.2,3-4.2,3.8-6.6
		c12.3-38.6,29.8-74.7,49.1-110.1c0.9-1.6,0.1-4.2,0.1-6.3c-1.6,1.3-3.8,2.2-4.7,3.9c-16.5,28.3-30.4,57.9-41.7,88.6
		c-0.3,0.8-1.5,1.2-2.3,1.9c0-1.1-0.4-2.4,0-3.4c7.1-20,15.1-39.8,21-60.1c2.3-7.9-0.2-17.1-0.5-25.7c-7,3.5-15.2,5.5-20.6,10.6
		c-29.1,27.2-34.5,63.8-38.3,100.8C467.7,393.1,466.5,393.1,465.3,393z"/>
	<path fill="#FC9401" d="M1069.8,524.6c10.3,0.5,20.6,1,30.9,1.5c1.3,0.5,2.5,0.9,3.8,1.4c1.2,7.4,3.6,14.8,3.6,22.2
		c0.2,90.5,0,180.9,0.3,271.4c0,10.9-3.8,15.3-14.9,14.8c-21.4-0.8-42.9-0.7-64.4-1c-0.1-85.3-0.1-170.7-0.3-256
		c0-2.5-1.4-5-2.1-7.6c0-0.5,0-1.1-0.1-1.6c0.5-7.9,2.2-15.9,1.3-23.6c-1.7-13.1,5.6-18.1,16.1-21.3c2,0.2,4,0.4,5.9,0.6
		c4.7-0.5,9.4-0.9,14-1.4c1.4,0,2.8-0.1,4.2-0.1C1068.7,524.2,1069.3,524.4,1069.8,524.6z"/>
	<path fill="#09CC5F" d="M1026.7,571.4c0.7,2.5,2.1,5,2.1,7.6c0.2,85.3,0.2,170.7,0.3,256c-0.4,0.3-0.8,0.6-1.3,1
		c-27.3-0.1-54.6-0.2-81.9-0.3c0.1-1.4,0.3-2.8,0.3-4.2c0.2-86.8,0.3-173.5,0.4-260.3C973.3,571.1,1000,571.2,1026.7,571.4z"/>
	<path fill="#DEF6FB" d="M955,228.1c0.6,1.9,1.8,3.7,1.8,5.6c0.1,23.1-0.3,46.3,0.3,69.4c0.3,11-6.8,25,14.5,27.7
		c25.7,3.3,41.2,27.5,64.7,36.2c28.9,10.7,59.5,5.4,89.3,8.1c3.4,0.3,6.7,1.3,10.1,2c-2.4,2-4.5,4.7-7.3,5.9
		c-62.5,26.7-114.4,69.7-168.4,109.5c-8.1,6-17.9,9.8-26.8,14.8c-1.1,0.6-1.8,1.8-2.6,2.7c1.3,0.4,2.6,1.1,4,1.1
		c21.5,0.7,43,1.2,64.5,1.8c-36,0-72,0-107.9-0.1c-1.1-13.6-2.2-27.2-3.2-40.7c-0.3-1.3-0.7-2.7-1-4c-0.5-9.7-1-19.3-1.5-29
		c8.5-6.6,18.2-2.5,27.2-2.6c43.6-0.5,45.2-1.7,42.3-41.2c0-53.7,0-107.4,0-161.1C954.8,232.1,954.9,230.1,955,228.1z"/>
	<path fill="#0A42A4" d="M379.7,398.3c2.1-2.7,4.2-5.5,6.3-8.2c1.7-1.3,3.4-2.7,5.2-4c0.6-0.4,1.2-0.8,1.8-1.2
		c10.7-3.9,21.8-4.6,33-3c13.2,3,24.3,10,35,18c0.7,0.4,1.3,0.8,2,1.1c18.6,17.6,30,40,36.6,63.9c12,43,22.1,86.7,31.8,130.3
		c2.3,10.5,5,24.5-6.1,31.2c-7.4,4.4-18.6,2.4-28,3.8c-9.2,1.3-18.3,3.1-27.4,4.7c-3.3-0.9-6.7-1.7-10-2.6c-2.5-0.1-5.1,0.2-7.5-0.4
		c-23.4-5.9-38.6-21.9-50.3-41.9c-0.8-1.6-1.5-3.3-2.3-4.9l0,0c-1.3-3.3-2.6-6.7-3.9-10c-0.1-0.6-0.2-1.3-0.4-1.9
		c-0.6-2-1.1-4-1.7-6c-1.3-4.3-2.7-8.7-4-13c-0.1-0.3-0.2-0.6,0-1c-0.3-1.7-0.7-3.3-1-5c0.1-1.3,0.2-2.6,0.3-4
		c6.8,15.8,12.9,32,20.6,47.3c4.9,9.7,11.7,23.1,22.2,22.1c8.6-0.8,2-14.7,2.7-22.6c3.9-46.6,7.1-93.3,10.1-140
		c0.6-9.2-2.4-19-0.3-27.8c4.4-18.2,0.1-31.2-18.2-36.4C406.5,381,388,385.3,380,406c-10.7,27.4,1.1,54.9,3.4,82.3
		c0.6,7.5,6.3,15,0.8,22.8c-1.4-5.4-2.8-10.8-4.1-16.2c0.2-1.8,0.5-3.6,0.7-5.4c-1.5-9.1-3-18.2-4.5-27.3
		c-0.8-5.7-1.6-11.4-2.4-17.1c-0.2-9.7-0.4-19.5-0.5-29.2c0.7-2.3,1.4-4.5,2.2-6.8c-0.1-0.6-0.2-1.1-0.3-1.7
		c1.1-2.4,2.3-4.8,3.4-7.1C379,399.6,379.4,398.9,379.7,398.3z"/>
	<path fill="#020446" d="M891,512.7c36,0,72,0,107.9,0.1c20.3,17.1,20.3,33,0,40.4c-0.3,0-0.6,0.1-1,0.1c-22.7,0-45.3,0-68,0
		c-8.3,4.6-2.5,11.4-2.8,17.3c-0.1,1.4-0.3,2.8-0.4,4.2c-0.6,1.7-1.7,3.5-1.7,5.2c-0.1,82.3-0.1,164.5,0,246.8
		c0,1.7,1.1,3.4,1.7,5.2c-0.2,1.1-0.5,2.2-0.7,3.4c-21,0.2-42,0.4-63.1,0.7c-1.3,0-2.7,0-4,0c-26.6-0.3-53.3-0.5-79.9-0.8
		c1.7-1.1,3.4-2.3,5.1-3.4c6-0.1,11.9-0.2,17.9-0.2c8,0,16,0,24,0c5.3,0,10.7,0,16,0c0.7-2,2.1-4.1,2.1-6.1
		c0.2-90.5,0.3-181,0.4-271.6c4.9-0.2,3.5,3.4,3.5,5.9c0,88.1-0.9,176.3,1,264.4c0.3,14.8,18.6,3.5,28.2,6.4
		c5.1,1.6,4.7-4.1,4.7-7.2c-0.1-31.8-0.6-63.6-0.7-95.4c-0.1-49.7-0.7-99.5,0.8-149.2c0.2-8.3-9.3-24.9,8.5-26.4
		c33.5-2.8,67.1-3.1,100.7-4.5c10.1-0.4,18.2-4.4,17.3-15.6c-0.8-9-6.3-14.9-17.1-14.6c-21.1,0.5-42.4,1.5-63.4-0.4
		c-12.3-1.1-25.5,4.2-37-4C891.2,513.2,891.2,513,891,512.7z"/>
	<path fill="#FC9401" d="M394.5,834.7c-21.7,1.1-43.5,2.9-65.2-0.9c-0.1-0.7-0.2-1.4-0.3-2c-0.4-36.7-0.6-73.5-1.3-110.2
		c-0.3-13.3-1-26.2,17.1-27.8c1.2,0.2,2.4,0.3,3.7,0.5c9.1,0.7,20.9,7.9,26-4.2c7.1-16.8,11.1-34.8,16.7-52.3
		c0.4-1.4,2.4-2.3,3.7-3.4c0.6,1.6,2.2,3.5,1.8,4.8c-3.4,11.1-6.8,22.3-10.8,33.2c-4,10.9-5.8,21-3,21.3c2,0.4,4.1,0.7,6.1,1.1
		c17.2-1.6,20.6,7.9,20.1,22.9c-0.7,22.3,0.2,44.7,0.5,67c-0.7,0.4-1.4,0.8-2.1,1.2C404.7,802.5,388.4,815.6,394.5,834.7z"/>
	<path fill="#020446" d="M394.5,834.7c-6.1-19.1,10.2-32.3,13-49c38.2,0.2,76.4,0.5,114.6,0.7c0.2,0,0.5-1,0.7-1.5
		c0-15-0.1-30-0.1-44.9c0-2,0-4,0-6c0-4,0-8,0-12c0-1.3,0-2.7,0-4c0-3.7,0-7.3,0-11c0-3.7,0-7.3,0-11c0-9.3,0-18.7,0-28
		c0-2.3,0-4.7,0-7c0-5.3,0-10.7,0-16c0-1.7,0-3.3,0-5c0-2,0-4,0-5.9c0.1-0.4,0.3-0.7,0.4-1.1c13-0.7,26-1.4,38.9-2.1
		c8.3,2.8,16.7,5.5,25,8.5c1,0.3,1.4,2.2,2,3.4c-1.2,0.7-2.5,1.9-3.7,1.9c-11.4,0.2-22.9,0.3-34.3,0.4c-0.3,0.3-0.6,0.6-0.9,0.9
		c-0.1,42-0.2,83.9-0.3,125.9c0,2.1,0,4.1,0,6.2c-0.7,1.3-1.3,2.6-2,3.9c-4.5,0.1-3.8-3.2-3.8-6c0-27-0.1-53.9,0.1-80.9
		c0.1-7.2-4.2-7.8-9.6-8.1c-6.2-0.4-5.5,3.6-5.5,7.5c-0.3,28.1-0.6,56.2-1,84.3c-0.1,5.8-2.7,11.8-8.4,11.9
		c-30.1,0.9-60.2,1-90.3,1.1c-11.3,0-25.7-4.9-21.6,16.1c0.4,2.2-4.2,5-5.1,7.9c-1.4,4.6-10.9,4.8-6.7,11.7c3,4.9,8.3,4.4,13.4,2.8
		c8.1-2.5,4.6-9.4,5.7-14.5c1.4,1.4,2.7,2.7,4.1,4.1c-0.3,3.3-0.7,6.7-1,10c0.3,0.6,0.6,1.2,0.9,1.8c30.7,0.1,61.5-0.2,92.2,0.7
		c10.6,0.3,13.6-2.9,11.4-12.5c0-0.7,0-1.3,0-2c0-1,0-2-0.1-3c-0.6-0.4-1.1-0.7-1.7-1.1c-33.6,0-67.3,0.1-100.9,0.1
		c-0.7-0.2-1.3-0.4-2-0.6c1.4-1.2,2.8-3.3,4.3-3.4c30.7-0.8,61.4-1.4,92.1-2.1c12.3-0.3,15.1,7,14.6,17.5c-0.1,2.1,1.5,6.1,2.5,6.1
		c4.3,0.3,9.7,2,11.8-4.2c1.5-4.4,3-8.9,4.5-13.3c0.6,5.9,1.3,11.8,1.9,17.8c0.4,0,0.9-0.1,1.3-0.1c12.3,0,24.6,0,37,0
		c0.3-0.2,0.6-0.5,0.9-0.7c0-4.4,0-8.8,0.1-13.2c0.3-0.4,0.7-0.8,1-1.2c-0.7-0.9-1.4-1.7-2-2.6c-11.7,0-23.3,0.1-35,0.1
		c-1-0.1-2.1-0.2-3.1-0.3c-0.3-0.3-0.6-0.6-0.9-0.9c6-10.6,15.8-2.9,23.7-4.7c8-1.9,22.4,0.6,22.6-6.3c0.3-13.2,8.4-10.6,15.1-13
		c5.2-1.9,12.1,1.9,15.6-5c2.8,0.9,5.6,2.6,8.5,2.7c14.2,0.7,28.4,1,42.6,1.4c0.2,0.3,0.4,0.6,0.6,0.9c2.1,8.2-8.4,20.2,7.3,24.2
		c0.3,0.3,0.5,0.7,0.8,1c0.3,0.3,0.6,0.7,0.9,1c0.4,0.8,0.9,1.6,1.3,2.5c0.4,2.8,0.9,5.6,1.3,8.3c-0.1,3.1-0.6,6.6,4.5,5.2
		c0,0.3,0,0.6,0.1,0.8c0,1.1-0.1,2.3-0.1,3.4c-34,0.2-68,0.5-101.9,0.7c-0.7,0-1.3,0-2,0c-61.1,0-122.1,0.1-183.2,0
		C402.7,836,398.6,835.2,394.5,834.7z M664.5,813.9c-0.8,0-1.7,0-2.5,0c-14.5-0.1-29-0.3-43.5-0.4c-1.8,0.4-3.6,0.9-5.4,1.3
		c0.4,5.4,0.7,10.8,1.1,16.2c0.2,0.2,0.5,0.4,0.7,0.7c16-7.1,42.3,18.2,49.7-15.8c0.3-0.4,0.7-0.9,1-1.3
		C665.3,814.3,664.9,814.1,664.5,813.9z"/>
	<path fill="#031F68" d="M562,630.9c-13,0.7-26,1.4-38.9,2.1c-1,0.1-2,0.2-3.1,0.3c-1.3,0.1-2.7,0.2-4,0.3c-0.7,0.1-1.3,0.1-2,0.2
		c-4.7,0.1-9.3,0.3-14,0.4c-3,0.4-6,0.7-9,1.1c-5.7,0-11.3,0.1-17,0.1c-1.3-0.2-2.7-0.4-4-0.5c9.1-1.6,18.2-3.5,27.4-4.7
		c9.4-1.3,20.6,0.7,28-3.8c11.1-6.7,8.4-20.7,6.1-31.2c-9.7-43.6-19.8-87.2-31.8-130.3C493,441,481.6,418.6,463,401
		c0.3-1,0.6-2,0.8-3c0.5-1.6,1-3.3,1.5-4.9c1.2,0,2.4,0.1,3.6,0.1c1.1,0.6,2.1,1.2,3.2,1.9c28.6,32.2,48.2,69.9,65.4,108.8
		c3.7,8.3,4.8,18.7,3.8,27.8c-2.1,19.9,9.1,21.3,23.7,19.5c-6.8,0.4-13.7,0.3-20.3,1.5c-5.5,1-15.3-7.1-16,3.9
		c-0.6,9.7,5.6,22,15.1,22.9c31.4,3.1,63,4,94.6,4.3c14.5,0.2,23.7,4,21.4,19.8c-2.1,14.1-13.5,19.2-25.4,17
		c-22-4.1-42.7,2.3-64,4.4c-0.9,0.1-1.8,0.6-2.7,0.8c0.8,0.7,1.5,1.5,2.3,2.2C567.3,628.9,564.7,629.9,562,630.9z M562.9,626.3
		l0,0.4l0.4-0.2L562.9,626.3z"/>
	<path fill="#DEF6FB" d="M642.2,352c7.4-0.3,14.9-0.7,22.3-1c0,6.8-1.7,14.2,0.6,20.2c3,8-10.5,21.7,8,24.2
		c-12.3,3-6.9,13.5-6.1,19.5c0.8,6.4,3.3,14.9,14.8,14.5c26-1,52.2-0.4,78.2-0.3c60.6,0.1,121.1,0.2,181.7,0.4
		c-2.9,0.5-5.7,1.5-8.6,1.5c-35.4,0.4-70.8,0.6-106.2,0.9c-45.4,0.2-90.8,0.4-136.3,0.7c-0.5,0-1,0.5-1.5,0.8
		c0.9,0.4,1.8,1.2,2.6,1.2c44.1,0.3,88.1,0.6,132.2,0.8c4.1,0.1,8.1,0.3,12.2,0.4c0.3,0.5,0.6,0.9,1,1.4c-0.2,0.8-0.5,1.6-0.7,2.3
		c-0.3,0.7-0.5,1.4-0.8,2c0.2,2.9,0.4,5.8,0.7,8.8c-1.7,14.3-3.3,28.5-5,42.8c-5.1,0.2-10.2,0.3-15.2,0.5c-1.1-0.2-2.2-0.5-3.4-0.7
		c-1.1-3.2,3.3-9.1-2.7-9.4c-11.9-0.6-23.9,0.3-35.8,0.6c-6-2.5-11.9-5.5-18.2-7.3c-8.6-2.4-21-9.9-25.5-3.1
		c-7.3,11.2-0.9,21.2,13.8,23.7c3,0.5,5.4,4.2,8,6.5c-2.4-0.2-4.9-0.3-7.3-0.5c-1-1.3-1.7-3.3-3-3.9c-5.6-2.3-11.4-4.1-17.2-6.1
		c6.3-22.8-5.1-33.7-25.8-38.3c-0.3-0.3-0.7-0.5-1-0.8c-0.4-0.2-0.8-0.4-1.2-0.7c-1.3-0.4-2.5-0.9-3.8-1.3c-0.7-0.1-1.3-0.3-2-0.4
		c-2.6-1.3-5.1-2.6-7.7-3.9c-12.1-6.1-32.7-10.2-34.8-18.8C642.4,404.4,643.8,377.8,642.2,352z M732.4,466c-0.6,0.3-1.7,0.9-2.7,1.4
		c1,0.5,1.9,1.4,2.9,1.5c11.9,1,23.1,4.4,33.6,10.1c1,0.6,2.4,0.5,3.7,0.7c-0.6-1.2-0.9-2.9-1.9-3.6
		C757.7,467.9,744.8,469.4,732.4,466z"/>
	<path fill="#031F68" d="M693,452.2c1.3,0.4,2.5,0.9,3.8,1.3c-2.2,0.8-4.4,1.9-0.7,3.6c5.6,2.6,11.3,4.7,17,7.2
		c13.3,5.8,4.3,16.9,5.5,25.5c0.3,2.4-4.3,7.8-6.8,7.9c-21.9,0.6-43.9,0.7-65.8,0.1c-6-0.2-11.9-3.2-17.8-4.9
		c-0.9,1-1.9,2.1-2.8,3.1c0.3,5.9,0.5,11.8,0.8,17.8c-0.8,16.2-41.1,42.9-56.1,37.1c19.9-5,38-13.4,47.3-32.8
		c4.8-9.9-2.2-19.2-7.9-26.7c-10.2-13.4-21.9-25.9-22.7-44c-0.3-6.9,0.8-13.9,1.2-20.9c2.6,5.7,5.6,11.3,7.6,17.2
		c4.8,14.3,13.9,25.6,24,36.2c2.5,2.6,8,1.4,7.6-1.3c-0.4-2.8-1.3-5.5-1.2-8.3c0.5-35.4-1.1-71,2.2-106.1c5-53.3-27.7-91.8-82-92.3
		c-1.7,0-3.4-1.1-5.2-1.7c5.6-0.5,11.3-1,16.9-1.4c14.7,1.6,28.2,6.8,41,13.9c21.5,14.4,34.1,34.9,41.1,59.3c0.7,3,1.4,6,2.1,9
		c0,0.3,0,0.7,0,1c1.6,25.8,0.3,52.4,6.4,77.1c2.1,8.6,22.7,12.7,34.8,18.8c2.6,1.3,5.1,2.6,7.7,3.9c0.3,0.6,0.7,1.2,1,1.7
		C692.4,453.1,692.7,452.6,693,452.2z"/>
	<path fill="#020446" d="M673,395.4c-18.4-2.6-5-16.2-8-24.2c-2.2-5.9-0.5-13.4-0.6-20.2c0.1-40.6,0.1-81.3,0.2-121.9
		c0.1-1,0.1-2,0.2-3c2.2-8.4,8-11.7,16.3-11.7c85.1,0,170.3,0.1,255.4,0c9.9,0,16.2,4,18.5,13.7c-0.1,2-0.2,4-0.3,6
		c-1.2,1.7-3.5,3.3-3.6,5.1c-1.2,45.5-2.1,91-3.3,136.4c0,1.5-1.6,2.9-2.4,4.4c-0.1-31-0.3-62-0.4-93c-0.1-19.9-0.3-39.9-0.4-59.8
		c-0.6-0.6-1.2-1.3-1.8-1.9c-1.5-0.4-3-1.1-4.5-1.1c-85.6,0-171.2,0-256.8,0c-1.8,0-3.7,0.7-5.5,1.1c-0.7,1.6-1.5,3.3-2.2,4.9
		c-5.8-1.7-5.7,2.3-5.8,6c-0.4,49.3-0.7,98.5-0.9,147.8c0,2.8-2.5,8.2,3.6,7.8c5.2-0.3,5.2-4.6,4.3-8.7c2.6-0.1,5.3-0.2,7.9-0.2
		c1.1,0.2,2.1,0.3,3.2,0.5c3.6,0,7.2,0,10.8,0c1-0.1,2-0.2,2.9-0.4c0.4,0,0.8,0,1.2,0c3.7,0,7.3,0,11,0c1-0.3,2-0.6,3-0.9
		c10.7,0.3,21.3,0.6,32,1c0.7,0,1.3,0,2,0c3.7,0,7.4,0,11,0c13,0,26.1-0.1,39.1-0.1c0.6,0,1.2,0,1.8,0c2,0,4,0,6,0c1.3,0,2.7,0,4,0
		c0.7-0.2,1.4-0.4,2.1-0.6c1-0.1,2-0.2,3-0.2c10.6,0.3,21.2,0.5,31.7,0.8c0.4,0,0.9,0.1,1.3,0.1c4.3-0.1,8.7-0.1,13-0.2
		c1,0.1,1.9,0.3,2.9,0.4c3.3,0,6.5,0,9.8,0c0.9-0.1,1.9-0.2,2.8-0.4c4.8,0,9.6,0,14.4-0.1c1,0.1,2,0.3,3,0.4c1.2,0,2.5,0,3.7,0
		c1.8,0,3.5,0,5.3,0c0.9,0,1.8,0,2.7,0c0.7-0.1,1.5-0.2,2.2-0.3c0.4,0,0.7-0.1,1.1-0.1c5.3,0,10.7-0.1,16-0.1
		c3.3,0.1,6.6,0.2,9.8,0.2c1.7,0,3.3,0.1,5,0.1c1.3-0.1,2.6-0.2,4-0.3c-5.1,4.1-5,6.8,2,8c0.6,0.1,0.7,2.9,1,4.5
		C856.2,395.3,764.6,395.4,673,395.4z"/>
	<path fill="#DEF6FB" d="M845.1,174.9c2.8-7.9,8.3-2.6,11.9-1.7c25.2,6.9,46.1-4.4,66.5-15.8c13.5-7.5,19.2,4.4,27,9.4
		c24.6,15.6,71.3,7.9,89.4-15.3c7-9,15.4-16.9,23.3-25.1c3.4-3.5,7.7-4.6,12.3-2.5c4.5,2.1,5.6,5.8,5.5,10.7
		c-0.3,14.6,0.3,29.3-0.3,44c-0.2,4.9,2.7,6.1,5.2,8.4c-79.6,0-159.2-0.1-238.9-0.1c-0.7-0.5-1.4-1.1-2.1-1.6
		C845,181.8,845.1,178.4,845.1,174.9z"/>
	<path fill="#0A42A4" d="M926.7,574.9c0.1-1.4,0.3-2.8,0.4-4.2c6.5,0.1,13,0.3,19.6,0.4c-0.1,86.8-0.3,173.5-0.4,260.3
		c0,1.4-0.2,2.8-0.3,4.2c-0.3,0.2-0.7,0.4-1,0.6c-0.7,0-1.3,0-2,0c-3.7,0-7.3,0-11,0c-0.7,0-1.4,0-2,0c-1.3,0-2.6,0-4,0
		c-0.2-0.3-0.2-0.5,0-0.8c0.2-1.1,0.5-2.2,0.7-3.4C926.7,746.3,926.7,660.6,926.7,574.9z"/>
	<path fill="#020446" d="M558.6,201c3.2-6.9-6.2-18.8,8.4-21.1c3.3-0.9,6.7-1.8,10-2.7c13.6-2,28.6-8.6,40.4-4.9
		c23.8,7.4,21.5,23,4.5,38c-5.7,0.4-13-2.7-14.4,7c-0.4,2.9-2.3,4.2-5.1,1.2c-1.4-1.5-3.8-2.7-5.8-2.7c-1.2,0-3.3,2.5-3.3,4
		c-0.1,2.6,0.6,7,1.9,7.4c4.2,1.3,3.3,4.1,2.9,6.5c-2,12.3-27.4,23-38.4,16.4c-0.3-6-0.5-11.9-0.8-17.9c-0.1-9-0.2-18-0.3-27
		C558.6,203.7,558.6,202.4,558.6,201z"/>
	<path fill="#DEF6FB" d="M191.1,512.1c2.9-15.7,14.5-26.1,24.6-36.7c16.5-17.3,34.4-33.4,60.1-35.6c4.3-0.4,8.7,0.4,7.9,5.2
		c-0.9,5.3,3,13.5-6.8,15c-7,1.1-15.3-3.1-20.8,4.7c0,0-0.3-0.1-0.3-0.1c-1.2,0.7-3.5,1.6-3.4,2.1c1.6,9.4-3.9,19.5,2.7,28.4
		c1.5,1.9,2.9,3.8,4.4,5.8c0.3-0.8,0.5-1.5,0.8-2.3c1.1,0.7,2.3,1.4,3.4,2c-2.8,2.9,0.2,3.3,1.9,3.6c2.7,0.4,6.5,3.5,7.6-2.2
		c0.7-0.1,1.4-0.2,2-0.3c6.5,2.7,17.7-2.4,18,10.7C259.1,512.3,225.1,512.2,191.1,512.1z"/>
	<path fill="#055BE2" d="M164,360.1c11.4-17.2,22.7-34.4,34.1-51.6c0.4-0.6,1.2-0.9,1.8-1.4c4.3,7.1-6.8,8.5-4.9,17.7
		c5,23.9,2.9,24.3,16.9,28.3c-23.7,34.4-52.5,60.8-97.2,62.6c-3.4,0.1-6.8-0.4-10.2-0.6c2.6-1.7,5.3-3.4,7.9-5.1
		c16.3-10.5,33.9-19.5,42.9-38.2c1.6-2,3.1-4,4.7-5.9c0.3-0.3,0.7-0.6,1-0.9c0,0,0-0.1,0-0.1c0.3-0.6,0.7-1.3,1-1.9
		C162.8,362.1,163.4,361.1,164,360.1z"/>
	<path fill="#020446" d="M250.6,679.9c-0.1-42.3-0.3-84.7-0.4-127c0,0,0,0,0,0c6.1-1.4,5.9,2.8,5.9,6.7c0,88.1,0.1,176.2-0.1,264.4
		c0,6.1,2.7,8.6,7.5,6.7c6.8-2.7,20.1,8,20.3-6.6c0.7-88.1,0.3-176.2,0.5-264.4c0-1.9,1.7-3.8,2.6-5.7c0.3,0.3,0.7,0.5,1,0.8
		c0.4,7.4,0.8,14.8,1.2,22.1c0,1,0,2,0,3c0,41.3,0,82.6,0,124c0,30.7,0,61.3,0,92c0,3.7,0,7.3,0,11c0,7.3,0,14.7,0,22
		c-0.1,0.1-0.2,0.2-0.2,0.3c0,0.2,0.1,0.4,0.2,0.7c0,0.3,0,0.6,0,1c-0.4,1.6-0.8,3.2-1.2,4.7c-12.2,0-24.5,0-36.7,0
		C251,783.7,250.8,731.8,250.6,679.9z"/>
	<path fill="#FC9401" d="M332.1,452.9c3.3-0.3,6.6-0.5,9.9-0.8c1.4,0.5,2.8,1,4.2,1.6c22.8-1.5,17.5,15,17.8,27.8
		c0.2,9.8-0.1,19.6-0.1,29.4c-0.1,0.4-0.2,0.8-0.3,1.1c-15.9,0-31.7-0.1-47.6-0.1c-0.3-17.1-1.1-34.3-0.3-51.4
		c0.1-2.9,7.2-5.4,11-8.2C328.4,452.5,330.2,452.7,332.1,452.9z"/>
	<path fill="#DEF6FB" d="M117.7,477.5c1.5-12.3,7.9-15.1,19-13c14,2.6,21.8-10.7,33.4-14.8c12-4.3,20.7-10.7,26.1-24.2
		c4.7-11.7,16.9,2.6,25.8-1.2c19.7-8.4,39.6-16.2,59.2-24.7c5.3-2.3,9.8-5.5,4.1-12.4c-3.5-4.3-9.7-9.7-4-15.5
		c5-5.1,10.9-13.3,19.1-9.4c7.2,3.4,18.9,5.6,14.8,18.9c-1.1,3.7-0.1,4.9,13.4-0.6c34.8-14,72.8-22.7,98.1-53.7
		c9-11,16.2-23.5,24.2-35.4c0.8-1.2,1.9-2.2,2.8-3.3c0,1.5,0.4,3.3-0.2,4.6c-21.8,46.4-61.9,69.3-107.9,86.1
		c-42.5,15.5-84,33.7-125.7,51.3c-5.1,2.1-1,14.1-8.2,14.1c-18.2,0-35.1,3.4-49.5,14.6c-6.8,5.3-18.9,5.4-17.9,19.6
		c0.5,6.8-7.1,12.3-15.1,11.1C122.8,488.7,118.8,484,117.7,477.5z M313.8,375.9c-5.8-4-11-10.2-15.8-10c-5,0.2-14.3,8.5-13.6,10.3
		c2.6,7.2,8.3,13.3,12.9,19.8C302.4,389.8,307.5,383.6,313.8,375.9z M195.4,435.4c0.4,4.9,4,7.5,8.1,7.8c6.7,0.4,10.2-3.8,10.1-10.4
		c0-5.7-3.9-7.2-9-7.6C197,424.7,196.5,430.1,195.4,435.4z"/>
	<path fill="#DEF6FB" d="M245.1,553.4c-5,2.2-0.3,4.6-0.2,7c0.5,23.6-18.9,11.6-28.2,13.7c-22.4,5-45.9,5.5-69,7.7
		c-1.6,0.2-3.4-0.7-5.1-1.1c0.5-1.6,0.7-3.5,1.6-4.8c6.5-9,13.2-18,19.9-26.9c5.4,1.3,10.8,3.7,16.3,3.8
		C201.9,553.3,223.5,553.2,245.1,553.4z"/>
	<path fill="#020446" d="M847,186.9c79.6,0,159.2,0.1,238.9,0.1c4.3,2,4,4.6,1,7.5c-51,0.1-102,0.1-153,0.2c-0.6,0-1.3,0-1.9,0
		c-2.7,0-5.4,0-8.1,0c-15,0-29.9,0.1-44.9,0.1c-11.7,0-23.4,0-35.1,0c-17.3,0-34.6,0-51.9,0c-1,0-2,0-3.1,0c-3.3-1.9-9.8,2.7-10.3-4
		c-0.4-5.7,5.6-2.6,8.4-4.3c0.7,0,1.4,0,2.1,0c17.9,0.2,35.8,0.5,53.7,0.7C844.3,187.1,845.6,187,847,186.9z"/>
	<path fill="#DEF6FB" d="M160.4,591c-51.8,0-86.6,52.9-66.4,100.4c10,23.6,27.2,39,52.3,43.3c32.7,5.6,58.7-6.3,77.3-34
		c0.7-1.1,2.3-1.6,3.5-2.4c-0.1,1.5,0.3,3.2-0.3,4.4c-15.3,28.2-54.4,45.2-83.6,36.4c-38.2-11.5-60.1-41.9-58.4-78
		c1.5-31.8,15.8-57.2,44.3-67.2c46.1-16.2,76-5.8,98.8,29.5c13.2,20.5,12.5,44,5.1,67c-0.3,1-2.1,1.5-3.2,2.2
		c-0.2-1.8-1-3.7-0.5-5.3C245,637.6,211.7,591,160.4,591z"/>
	<path fill="#FC9401" d="M208,694.8c-8.9,21.3-29.9,24.3-46.9,6.6c-0.5-0.5-1-1-1.5-1.6c2.7-27.5,11.2-46.3,43.6-28.6
		C204.7,679.1,206.3,687,208,694.8z"/>
	<path fill="#FFFEFE" d="M310,417.3c1.4,2.3,2.7,4.3,4,6.4c0.7-1,2.1-2.2,1.9-3c-0.7-2.9-1.9-5.6-2.9-8.3
		C312.1,413.8,311.3,415.2,310,417.3z"/>
	<path fill="#FC9401" d="M842.9,187.3c-17.9-0.2-35.8-0.5-53.7-0.7c-0.6-1-1.2-2.1-1.9-3.1c0.9-12,1.9-24,2.8-36
		c6.6,0.6,13.2,1.2,19.8,1.8c11.7,8.6,23.5,17.2,35.2,25.7c-0.1,3.4-0.1,6.9-0.2,10.3C844.2,185.9,843.6,186.6,842.9,187.3z"/>
	<path fill="#FC9401" d="M622.2,231c0,3.7,0,7.4,0,11.1c-0.1,1.7-0.3,3.3-0.4,5c-2.3,3.9-4.6,7.7-6.9,11.6
		c-5.6,1.8-16.1,3.4-16.2,5.4c-0.5,14.3-6.7,12.9-16.1,7.9c-4.2-2.3-9-3.7-13.6-4.7c-5.5-1.2-9.2-3.4-7.9-9.7
		c1.2-5.7,6.3-4.1,9.8-4.1c14.4-0.1,24.4-5.9,30.3-19.7c1.7-3.8-3.7-7,1.9-11.2C615.9,213.3,622.4,213.3,622.2,231z"/>
	<path fill="#FFFEFE" d="M982.7,496c-0.5,0.3-0.9,0.5-1.2,0.8c0.2,0.3,0.5,0.9,0.8,0.9c0.3,0.1,0.7-0.3,1.1-0.5
		C983.2,496.8,983,496.5,982.7,496z"/>
	<path fill="#020446" d="M245.1,553.4c-21.6-0.2-43.2-0.1-64.7-0.6c-5.5-0.1-10.8-2.5-16.3-3.8c-0.4-0.6-0.8-1.3-1.2-1.9
		c-0.3-0.3-0.5-0.5-0.8-0.8c-10.8-23-5-29.9,29-34.1c34,0.1,68,0.2,102,0.4c3.6-0.1,7.3-0.1,10.9-0.2c0.4,0,0.7,0,1.1,0
		c3.6-0.1,7.2-0.3,10.8-0.4c15.9,0,31.7,0.1,47.6,0.1c6.2,0.4,12.3,0.8,18.5,1.2c-5.1,8.2-13.2,3.3-19.3,3.3
		c-61.3,0.7-122.6,0.4-183.9,0.5c-8.9,0-14.6,5.7-15.4,14c-0.8,8.4,3.4,15.5,12.8,15.8c21.7,0.8,43.5,0.7,65.2,1.1
		c3.6,0.1,8.1-0.8,8.8,4.9c0,0,0,0,0,0C248.5,553,246.8,553.2,245.1,553.4z"/>
	<path fill="#DEF6FB" d="M250.6,679.9c0.2,51.9,0.4,103.8,0.6,155.7c-23.4,0.7-46.7,1.6-70.1,2c-17.5,0.4-35.1,0.3-52.6,0.1
		c-2.4,0-4.8-2-7.2-3.1c2-1.3,4-3.6,5.9-3.6c38.5-0.2,77-0.2,115.5,0c5,0,6.5-1.2,6.5-6.3c-0.2-46.3-0.1-92.6,0-138.9
		C249.1,683.8,250.1,681.9,250.6,679.9z"/>
	<path fill="#FC9401" d="M275.1,501.7c-0.7,0.1-1.4,0.2-2,0.3c-1,0-2,0-2.9,0c-1.3-0.2-2.7-0.5-4-0.7c-0.8-0.2-1.6-0.5-2.5-0.7
		c-1.1-0.7-2.3-1.4-3.4-2c-0.9-0.9-1.7-1.7-2.6-2.6c-0.8-1.2-1.6-2.4-2.3-3.6c0.2-9.2,0.3-18.5,0.5-27.7c0,0,0.3,0.1,0.3,0.1
		c10.4,0,24.3-5.8,30.1,2.3c5.5,7.6,4.7,21.3-3.1,31c-0.8,0.6-1.5,1.3-2.3,1.9C278.9,500.5,277,501.1,275.1,501.7z"/>
	<path fill="#DEF6FB" d="M159.5,699.9c0.5,0.5,1,1,1.5,1.6c-7.8,11.3-19.9,9.7-29.5,6.5c-14.2-4.7-22.1-16.4-20-32.2
		c2.7-19.8,14.3-29.5,34.7-28.9c10.6,0.3,7.2-11.2,12.1-16.3c13.6-14,28.9-15.4,43-4.1c14.5,11.8,13.7,27.6,5.9,44.4
		c-3,6.5,0.3,15.9,0.8,23.9c-1.6-7.9-3.2-15.8-4.9-23.6c0.9-1.4,1.8-2.8,2.8-4.1c7.7-15,6.1-29.2-7.9-38.5c-12.1-8-26-9.1-36.8,4.4
		c-8.6,3.7,0.3,21.1-12.7,19.1c-15.3-2.3-24.7,3.7-31.1,15.4c-6.1,11.1-2.9,23.1,5.7,31.2C133.9,708.9,147.1,707.8,159.5,699.9z"/>
	<path fill="#FC9401" d="M146.3,772.8c0.6-0.6,1.1-1.2,1.7-1.8c1.2-0.8,2.4-1.5,3.7-2.3c11.5-1.4,21.3,1.1,21.1,14.9
		c-0.2,15.4-10.9,16.6-23,14.3C143.7,790.3,141.4,782.1,146.3,772.8z"/>
	<path fill="#DEF6FB" d="M622.2,231c0.2-17.7-6.3-17.7-19-8.4c-5.6,4.1-0.2,7.4-1.9,11.2c-5.9,13.7-15.9,19.5-30.3,19.7
		c-3.5,0-8.6-1.6-9.8,4.1c-1.3,6.2,2.4,8.4,7.9,9.7c4.7,1,9.5,2.5,13.6,4.7c9.4,5.1,15.5,6.4,16.1-7.9c0.1-2,10.5-3.6,16.2-5.4
		c-11.5,3.9-15.9,12.6-15.9,24.1c-12.8-7.1-26.3-12.3-41-13.9c0-6.6,0.1-13.2,0.1-19.7c0.5,0.3,1.1,0.6,1.6,0.9
		c11,6.6,36.4-4.1,38.4-16.4c0.4-2.4,1.3-5.2-2.9-6.5c-1.3-0.4-2-4.8-1.9-7.4c0-1.4,2.1-4,3.3-4c2,0,4.4,1.2,5.8,2.7
		c2.8,3,4.7,1.7,5.1-1.2c1.4-9.7,8.7-6.5,14.4-7C622,217.2,622.1,224.1,622.2,231z"/>
	<path fill="#DEF6FB" d="M809.9,149.2c-6.6-0.6-13.2-1.2-19.8-1.8c-6.6-6-4.3-13.7-3.3-20.8c0.3-1.8,5.2-4.3,7.9-4.3
		c7.8,0.2,11.8,6.7,13.3,12.7C809,139.4,821.5,143.2,809.9,149.2z"/>
	<path fill="#DEF6FB" d="M1071,504c5.1-17.7,15.6-32.2,28.3-45c5.6-5.7,12.4-18.6,19.7-11.3c7.1,7-6.6,13.2-11.7,18.6
		c-15.2,15.9-25.8,34.4-35.1,54c-0.4,0.7-1.5,1.1-2.2,1.7c7.4-27,23.9-47.9,44.3-66.3c1.5-1.4,2-3.9,3-5.8c-1.9,0.7-4.1,0.9-5.6,2.1
		C1093.5,465.7,1082.1,484.7,1071,504z"/>
	<path fill="#031F68" d="M693.9,835.2c0-1.1,0.1-2.3,0.1-3.4c16.3,0,32.6,0.1,48.9,0.1c9.2,0,18.4,0.2,27.6-0.3
		c3.1-0.2,6.1-2.2,9.1-3.3c-1.9-3.3-3.4-7-5.9-9.8c-3.2-3.8-7.2-7.1-10.8-10.5c11.7,3.9,19.9,10.9,21.1,24c-1.7,1.1-3.4,2.3-5.1,3.4
		c-3,0.3-6.1,0.5-9.1,0.8c-2.3,0-4.7,0-7,0c-1.3,0-2.7,0-4,0c-2.7,0-5.3,0-8,0C732,835.7,713,835.5,693.9,835.2z"/>
	<path fill="#DEF6FB" d="M558.6,201c0,1.3,0,2.7,0,4c-20.8,4.8-38.4,16-55.6,28c-19.4,13.5-33.1,32-45.2,51.8
		c-0.4,0.7-1.4,1-2.2,1.5c0.3-1.5,0.2-3.1,0.9-4.4C478.9,240.3,514.7,215.5,558.6,201z"/>
	<path fill="#0A42A4" d="M1071,504c11.1-19.3,22.4-38.4,40.6-52.1c1.5-1.2,3.7-1.4,5.6-2.1c-1,2-1.5,4.4-3,5.8
		c-20.4,18.3-36.9,39.3-44.3,66.3c0,0-0.1,0.2-0.1,0.2c-0.6,0.6-1.2,1.3-1.7,1.9c-1.4,0-2.8,0.1-4.2,0.1
		C1066.3,517.4,1068.7,510.7,1071,504z"/>
	<path fill="#DEF6FB" d="M946.7,571c-6.5-0.1-13-0.3-19.6-0.4c0.4-5.9-5.4-12.7,2.8-17.3c-0.5,4.8-1,9.5-1.4,14.3
		c6.5,0,12.9-0.2,19.4-0.1c26.2,0.3,52.6-3.4,78.7,2.2c0,0.5,0,1.1,0.1,1.6C1000,571.2,973.3,571.1,946.7,571z"/>
	<path fill="#DEF6FB" d="M933.9,194.7c51-0.1,102-0.1,153-0.2c-1.1,0.5-2.2,1.5-3.3,1.5c-48.9,0.1-97.9,0.1-146.8,0
		C935.9,196,934.9,195.2,933.9,194.7z"/>
	<path fill="#020446" d="M1104.5,527.6c-1.3-0.5-2.5-0.9-3.8-1.4c6.9-18.9,13.7-37.8,20.7-56.7c0.3-0.8,2.2-1,3.3-1.4
		c0.4,1.6,1.5,3.4,1,4.6C1118.8,491,1111.6,509.3,1104.5,527.6z"/>
	<path fill="#020446" d="M1049.9,525.5c-2-0.2-4-0.4-5.9-0.6c-1-19.8-2.1-39.5-3-59.3c-0.1-1.5,1.4-3.1,2.2-4.7
		c0.9,1.6,2.5,3.2,2.6,4.9c0.6,6.7,0.8,13.5,1.1,20.2c0.6,10.2,1.2,20.4,1.7,30.6C1049.1,519.6,1049.5,522.6,1049.9,525.5z"/>
	<path fill="#020446" d="M346.2,453.6c-1.4-0.5-2.8-1-4.2-1.6c2.1-15.3,6.7-29.3,18.7-39.9c1.4-1.3,4-1.2,6.1-1.8
		c-0.8,1.9-1,4.5-2.3,5.7C352.8,426,349.9,440,346.2,453.6z"/>
	<path fill="#020446" d="M328.9,415c0-1,0-2,0-3c1.2-2,2.3-3.9,3.5-5.9c0.9,2.1,2.7,4.2,2.5,6.2c-0.7,13.5-1.8,27-2.8,40.5
		c-1.8-0.2-3.6-0.4-5.4-0.6C327.4,439.9,328.1,427.4,328.9,415z"/>
	<path fill="#DEF6FB" d="M287.9,835.6c0.4-1.6,0.8-3.2,1.2-4.7c0.3-0.1,0.6-0.1,0.9-0.2c13,0.4,26,0.7,39.1,1.1
		c0.1,0.7,0.2,1.4,0.3,2C315.7,838.9,301.8,835.9,287.9,835.6z"/>
	<path fill="#DEF6FB" d="M944.9,836.2c0.3-0.2,0.7-0.4,1-0.6c27.3,0.1,54.6,0.2,81.9,0.3c-3.9,0.7-7.9,2-11.8,1.9
		C992.3,837.4,968.6,836.8,944.9,836.2z"/>
	<path fill="#DEF6FB" d="M206.6,782.9c1.5,3.9-0.6,5.7-9,4.9c-7.1-0.7-14.9,3.8-21.3-2.6C186.3,784.4,196.4,783.7,206.6,782.9z"/>
	<path fill="#DEF6FB" d="M426,381.9c-11.2-1.6-22.3-0.9-33,3C403.4,377.5,414.5,376.6,426,381.9z"/>
	<path fill="#DEF6FB" d="M843.9,194.8c11.7,0,23.4,0,35.1,0C867.3,194.8,855.6,194.8,843.9,194.8z"/>
	<path fill="#DEF6FB" d="M382,513.2c-6.2-0.4-12.3-0.8-18.5-1.2c0.1-0.4,0.2-0.8,0.3-1.1c13,2.4,21.4,0.1,16.3-16
		c1.4,5.4,2.8,10.8,4.1,16.2c-0.3,0.6-0.7,1.1-1,1.7C382.8,512.9,382.4,513.1,382,513.2z"/>
	<path fill="#0A42A4" d="M206.6,782.9c-10.1,0.8-20.2,1.5-30.3,2.3c0.6-1.1,1.3-2.2,1.9-3.3c9,0,17.9-0.1,26.9-0.1
		C205.5,782.2,206,782.5,206.6,782.9z"/>
	<path fill="#DEF6FB" d="M1048.7,516.7c-0.6-10.2-1.2-20.4-1.7-30.6C1047.5,496.2,1048.1,506.4,1048.7,516.7z"/>
	<path fill="#055BE2" d="M376.3,462.2c1.5,9.1,3,18.2,4.5,27.3C379.3,480.4,377.8,471.3,376.3,462.2z"/>
	<path fill="#DEF6FB" d="M494.1,300c-4.7,8-9.3,16.1-14,24.1C482.3,314.7,486.2,306.2,494.1,300z"/>
	<path fill="#DEF6FB" d="M373.4,415.8c0.2,9.7,0.4,19.5,0.5,29.2c-4.3-9.9-4.1-19.9-1-30C373.1,415.3,373.2,415.6,373.4,415.8z"/>
	<path fill="#DEF6FB" d="M146.3,772.8c-4.9,9.2-2.6,17.4,3.5,25.1C139.6,790.8,139.5,782.3,146.3,772.8z"/>
	<path fill="#DEF6FB" d="M205,781.8c-9,0-18,0.1-26.9,0.1C187.1,781.9,196.1,781.8,205,781.8z"/>
	<path fill="#DEF6FB" d="M531.1,272.1c-7,4-14.1,7.9-21.1,11.9C515.5,277.4,522.4,273.1,531.1,272.1z"/>
	<path fill="#031F68" d="M559.7,250c-0.5-0.3-1.1-0.6-1.6-0.9c0.3-5.7,0.6-11.3,0.8-17C559.2,238.1,559.5,244,559.7,250z"/>
	<path fill="#DEF6FB" d="M577,177.2c-3.3,0.9-6.7,1.8-10,2.7C570.4,179,573.7,178.1,577,177.2z"/>
	<path fill="#DEF6FB" d="M923.9,194.7c2.7,0,5.4,0,8.1,0C929.3,194.7,926.6,194.7,923.9,194.7z"/>
	<path fill="#DEF6FB" d="M642.2,351c-0.7-3-1.4-6-2.1-9C640.8,345,641.5,348,642.2,351z"/>
	<path fill="#FFFEFE" d="M210.9,462.8c0.8,1,1.6,1.6,1.9,2.4c0.1,0.4-0.8,1.1-1.2,1.6c-0.7-0.6-1.6-1-2-1.7
		C209.4,464.7,210.2,463.9,210.9,462.8z"/>
	<path fill="#055BE2" d="M373.4,415.8c-0.2-0.3-0.3-0.5-0.5-0.8c0.1-0.9,0.2-1.8,0.3-2.7c0.4-0.4,0.7-0.9,1.1-1.3
		c0.1-0.3,0.3-0.5,0.4-0.8c0-0.1-0.1-0.3-0.2-0.4c0.4-0.2,0.7-0.5,1.1-0.7C374.8,411.3,374.1,413.6,373.4,415.8z"/>
	<path fill="#DEF6FB" d="M391.2,386.1c-1.7,1.3-3.4,2.7-5.2,4C387.8,388.8,389.5,387.4,391.2,386.1z"/>
	<path fill="#DEF6FB" d="M932,836.2c3.7,0,7.3,0,11,0C939.3,836.2,935.6,836.2,932,836.2z"/>
	<path fill="#DEF6FB" d="M621.8,247c0.1-1.7,0.3-3.3,0.4-5C622,243.7,621.9,245.4,621.8,247z"/>
	<path fill="#DEF6FB" d="M151.7,768.8c-1.2,0.8-2.5,1.5-3.7,2.3C149.2,770.3,150.5,769.6,151.7,768.8z"/>
	<path fill="#DEF6FB" d="M498.1,295.1c-1,1.3-2.1,2.6-3.1,3.9C496,297.7,497.1,296.4,498.1,295.1z"/>
	<path fill="#DEF6FB" d="M787.3,183.4c0.6,1,1.2,2.1,1.9,3.1c-0.7,0-1.4,0-2.1,0C787.1,185.5,787.2,184.5,787.3,183.4z"/>
	<path fill="#DEF6FB" d="M751,836c2.7,0,5.3,0,8,0C756.3,836,753.6,836,751,836z"/>
	<path fill="#DEF6FB" d="M763,836c2.3,0,4.7,0,7,0C767.6,836,765.3,836,763,836z"/>
	<path fill="#DEF6FB" d="M463.8,398c-0.3,1-0.6,2-0.8,3c-0.7-0.4-1.3-0.8-2-1.1C462,399.2,462.9,398.6,463.8,398z"/>
	<path fill="#DEF6FB" d="M664.8,226.1c-0.1,1-0.1,2-0.2,3C664.7,228.1,664.8,227.1,664.8,226.1z"/>
	<path fill="#DEF6FB" d="M280.8,499.9c0.8-0.6,1.5-1.3,2.3-1.9C282.3,498.7,281.5,499.3,280.8,499.9z"/>
	<path fill="#FFFEFE" d="M216.9,455.4c0.3,0.3,0.5,0.5,0.6,0.7c-0.3,0.3-0.6,0.6-1,0.8c0,0-0.4-0.3-0.4-0.4
		C216.4,456.2,216.6,455.8,216.9,455.4z"/>
	<path fill="#DEF6FB" d="M859,836c1.3,0,2.7,0,4,0C861.6,836,860.3,836,859,836z"/>
	<path fill="#DEF6FB" d="M379.7,398.3c-0.4,0.6-0.7,1.3-1.1,1.9c-0.3-0.5-0.6-0.9-1-1.4C378.4,398.7,379.1,398.5,379.7,398.3z"/>
	<path fill="#DEF6FB" d="M926,836.1c1.3,0,2.6,0,4,0C928.6,836.2,927.3,836.1,926,836.1z"/>
	<path fill="#FFFEFE" d="M216.5,457.7c-0.6,0.3-1,0.6-1.4,0.8c-0.1,0-0.4-0.3-0.5-0.5c0.3-0.3,0.6-0.6,1-0.8
		C215.7,457.1,215.9,457.3,216.5,457.7z"/>
	<path fill="#DEF6FB" d="M1068.1,524c0.6-0.6,1.2-1.3,1.7-1.9c0,0.8,0,1.6,0,2.4C1069.3,524.4,1068.7,524.2,1068.1,524z"/>
	<path fill="#DEF6FB" d="M788.9,194.9c1,0,2,0,3.1,0C791,194.9,790,194.9,788.9,194.9z"/>
	<path fill="#DEF6FB" d="M375.6,409c-0.4,0.2-0.7,0.5-1.1,0.7c0.3-0.8,0.5-1.6,0.8-2.4C375.4,407.9,375.5,408.5,375.6,409z"/>
	<path fill="#DEF6FB" d="M162.1,363.1c-0.3,0.6-0.7,1.3-1,1.9C161.5,364.4,161.8,363.7,162.1,363.1z"/>
	<path fill="#DEF6FB" d="M305.1,512.3c-0.4,0-0.7,0-1.1,0c0.1-0.2,0.2-0.5,0.4-0.7C304.6,511.8,304.8,512,305.1,512.3z"/>
	<path fill="#DEF6FB" d="M590,836c0.7,0,1.3,0,2,0C591.3,835.9,590.7,835.9,590,836z"/>
	<path fill="#DEF6FB" d="M374.3,411c-0.4,0.4-0.7,0.9-1.1,1.3C373.5,411.9,373.9,411.5,374.3,411z"/>
	<path fill="#DEF6FB" d="M161.1,365.1c-0.3,0.3-0.7,0.6-1,0.9C160.4,365.7,160.7,365.4,161.1,365.1z"/>
	<path fill="#DEF6FB" d="M162.1,546.2c0.3,0.3,0.5,0.5,0.8,0.8C162.6,546.7,162.4,546.4,162.1,546.2z"/>
	<path fill="#DEF6FB" d="M997.9,553.3c0.3,0,0.6-0.1,1-0.1C998.6,553.2,998.3,553.3,997.9,553.3z"/>
	<path fill="#DEF6FB" d="M510,284c-0.3,0.3-0.6,0.6-1,0.8C509.3,284.6,509.7,284.3,510,284z"/>
	<path fill="#020446" d="M570,550.9c15,5.7,55.3-20.9,56.1-37.1c2.7,0,5.3,0.1,8,0.1c73.3-0.2,146.6-0.4,219.9-0.6
		c-0.1,4.9-3.8,3.7-6.6,3.7c-64.8,0-129.7,0-194.5,0.1c-1.8,0-3.6,1-5.4,1.5c1.1,1,2,2.7,3.3,3c38.4,11.2,76.8,22.2,115.2,33.3
		c1,0.3,2,0.6,3,0.8c1.1,0.4,2.1,0.9,3.2,1.2c34.2,11.6,53.6,36.5,44.8,61.2c-21.9,61.6-45.4,122.6-68.2,183.9
		c-1.9-0.4-3.8-0.9-5.7-1.3c-14.6-5.4-29.3-10-45.1-8.2c-0.9,0-1.8,0.1-2.7,0.1c-0.4-0.3-0.8-0.6-1.2-0.9c1.3-7.5,2.2-15.1,3.9-22.5
		c9.3-42.2,18.7-84.3,28.1-126.5c0.5-1.3,1.1-2.7,1.6-4c0.1-1,0.2-2,0.3-3c0.2-1.1,0.5-2.3,0.7-3.4c-0.9,1.1-1.9,2.2-2.8,3.4
		c-35.6,46.4-71.2,92.7-106.9,139.1c-1.3,0.3-2.6,0.6-3.8,0.8c-14.5-11.5-30.6-19.7-49.2-22.2c-0.9,0.1-1.8,0.2-2.7,0.3
		c0.5-2.8,0.5-5.9,1.7-8.4c14.3-28.6,28.8-57,43.2-85.5c0.3-0.7,0.6-1.3,0.9-2c0,0,0,0,0,0c0.9-1.7,1.7-3.4,2.6-5.1
		c0.4-0.7,0.9-1.4,1.3-2.1c0.6-1.6,1.3-3.3,1.9-4.9c1.1-2,2.2-4,3.3-6c0.2-0.7,0.5-1.3,0.7-2c1-1.6,2.1-3.3,3.1-4.9
		c0.3-0.4,0.5-0.7,0.8-1.1c0.4-1,0.8-2,1.2-3c0.3-0.3,0.5-0.7,0.8-1c0.1-0.3,0.2-0.6,0.2-1c0.3-0.3,0.5-0.7,0.8-1
		c0.1-0.3,0.2-0.7,0.3-1c-1-0.6-2.1-1.2-3.1-1.9c-0.7,0-1.4,0-2,0c-4.3,0.6-8.7,1.2-13,1.7c-12.7,1-25.3,2.1-38,3.1
		c-0.8-0.7-1.5-1.5-2.3-2.2c0.9-0.3,1.8-0.7,2.7-0.8c21.3-2.1,42-8.5,64-4.4c11.9,2.2,23.4-2.9,25.4-17c2.3-15.8-6.8-19.7-21.4-19.8
		c-31.6-0.3-63.2-1.2-94.6-4.3c-9.5-0.9-15.7-13.2-15.1-22.9c0.7-11,10.4-2.9,16-3.9c6.7-1.2,13.6-1.1,20.3-1.5
		C566.7,551,568.3,550.9,570,550.9z"/>
	<path fill="#055BE2" d="M472.1,395c-1.1-0.6-2.1-1.2-3.2-1.9c3.8-37,9.2-73.6,38.3-100.8c5.4-5.1,13.7-7.1,20.6-10.6
		c0.3,8.6,2.8,17.8,0.5,25.7c-5.9,20.4-13.9,40.1-21,60.1c-0.4,1,0,2.3,0,3.4c0.8-0.6,2-1.1,2.3-1.9c11.3-30.7,25.2-60.3,41.7-88.6
		c1-1.7,3.1-2.6,4.7-3.9c0,2.1,0.8,4.6-0.1,6.3c-19.3,35.4-36.9,71.6-49.1,110.1c-0.8,2.4-2.5,4.4-3.8,6.6c2.1-1.9,4.1-3.9,6.2-5.7
		c0.6-0.5,1.7-0.2,2.6-0.3c0.3,3.9,0.8,7.7,0.5,11.6c0,0.6-4.2,1.8-5.9,1.3C494.9,402.9,483.5,398.9,472.1,395z"/>
	<path fill="#031F68" d="M945.5,380c0.8-1.5,2.4-2.9,2.4-4.4c1.1-45.5,2.1-91,3.3-136.4c0-1.7,2.3-3.4,3.6-5.1
		c0,53.7,0,107.4,0,161.1c-2.2,0.3-4.4,0.6-6.6,1c-0.3-0.2-0.4-0.5-0.2-0.9c-0.3-1.6-0.4-4.4-1-4.5c-7-1.2-7.1-3.9-2-8
		C945.1,381.9,945.3,380.9,945.5,380z"/>
	<path fill="#0A42A4" d="M948.1,396.1c2.2-0.3,4.4-0.6,6.6-1c2.9,39.6,1.4,40.7-42.3,41.2c-9,0.1-18.7-4-27.2,2.6
		c-14.8-0.6-29.6-1.1-44.4-1.7c11.8-0.4,23.6-0.9,35.5-1.3c0.8,0,1.6-0.3,2.4-0.4c-0.2-0.2-0.5-0.5-0.7-0.5
		c-14,0.2-27.9,0.4-41.9,0.6c-4.1-0.1-8.1-0.3-12.2-0.4c1-1.2,2-2.3,3-3.5c35.4-0.3,70.8-0.5,106.2-0.9c2.9,0,5.7-1,8.6-1.5
		C954.3,420.3,945,407,948.1,396.1z"/>
	<path fill="#020446" d="M840.8,437.3c14.8,0.6,29.6,1.1,44.4,1.7c0.5,9.7,1,19.3,1.5,29c-1.3-1.1-2.7-2-3.9-3.2
		c-12.2-12.4-26.3-18.8-44-14c-0.9-0.2-1.8-0.4-2.7-0.6c-0.2-2.9-0.4-5.8-0.6-8.8c0.3-0.7,0.5-1.4,0.8-2c0.2-0.8,0.5-1.6,0.7-2.3
		C838.3,437.1,839.6,437.2,840.8,437.3z"/>
	<path fill="#0A42A4" d="M887.8,471.9c1.1,13.6,2.2,27.2,3.2,40.7c0.2,0.3,0.2,0.5,0,0.8c-9.4-0.4-18.8-0.9-28.2-1.3
		c7.2-5.4,24,10.7,23.9-10.5c-0.1-10.2-1.2-20.4-1.8-30.6C885.9,471.3,886.8,471.6,887.8,471.9z"/>
	<path fill="#031F68" d="M887.8,471.9c-0.9-0.3-1.9-0.6-2.8-0.9c-11.4-15.6-27.4-20.9-46-20.2c17.7-4.9,31.8,1.5,44,14
		c1.2,1.2,2.6,2.1,3.9,3.2C887.1,469.3,887.4,470.6,887.8,471.9z"/>
	<path fill="#031F68" d="M382,513.2c0.4-0.2,0.8-0.3,1.2-0.5c0.7,2.1,1.3,4.1,2,6.2c0.9,5.3,1.9,10.7,2.8,16c0.1,0.7,0.1,1.3,0.2,2
		c0.2,1.7,0.5,3.4,0.7,5.1c0.1,0.7,0.2,1.3,0.3,2c-0.1,1.3-0.2,2.6-0.3,4c-31.1,0-62.2,0-93.4,0c-3.5,0-7-0.1-6.5,5.1
		c0,0,0.1,0.2,0.1,0.2c-0.8,0.3-1.6,0.5-2.4,0.8c-0.9,1.9-2.6,3.8-2.6,5.7c-0.1,88.1,0.3,176.2-0.5,264.4
		c-0.1,14.7-13.5,3.9-20.3,6.6c-4.8,1.9-7.5-0.6-7.5-6.7c0.2-88.1,0.1-176.2,0.1-264.4c0-4,0.2-8.1-5.9-6.7
		c-0.6-5.7-5.2-4.8-8.8-4.9c-21.7-0.4-43.5-0.3-65.2-1.1c-9.4-0.3-13.6-7.4-12.8-15.8c0.8-8.3,6.5-14,15.4-14
		c61.3-0.1,122.6,0.2,183.9-0.5C368.8,516.5,376.9,521.4,382,513.2z"/>
	<path fill="#055BE2" d="M388.2,537c-0.1-0.7-0.1-1.3-0.2-2c-0.9-5.3-1.9-10.7-2.8-16c-0.7-2.1-1.3-4.1-2-6.2c0.3-0.6,0.7-1.1,1-1.7
		c5.4-7.7-0.2-15.3-0.8-22.8c-2.3-27.5-14.1-55-3.4-82.3c8.1-20.6,26.6-25,46.5-19.3c18.3,5.2,22.6,18.2,18.2,36.4
		c-2.1,8.7,0.9,18.5,0.3,27.8c-3,46.7-6.2,93.4-10.1,140c-0.7,7.9,5.9,21.8-2.7,22.6c-10.5,1-17.3-12.4-22.2-22.1
		c-7.8-15.3-13.8-31.5-20.6-47.3c-0.1-0.7-0.2-1.3-0.3-2C388.7,540.4,388.5,538.7,388.2,537z"/>
	<path fill="#FDFEFC" d="M514.6,769.7c0.5,2.2,1,4.3,1.5,6.4c0.3-1.8,0.9-3.6,0.9-5.4c0-2.3-0.6-4.6-0.9-6.9
		C515.5,765.7,515.1,767.7,514.6,769.7z"/>
	<path fill="#020446" d="M389.1,553.4c-0.7,0-1.3,0-2,0.1c-29.7,0-59.3,0-89,0c-3-0.1-6-0.3-9-0.4c-0.5-5.1,3-5.1,6.5-5.1
		c31.1,0,62.2,0,93.4,0c0.3,1.7,0.7,3.3,1,5C389.7,553.1,389.4,553.3,389.1,553.4z"/>
	<path fill="#DEF6FB" d="M474,635.3c-5,0.6-10.3,2.3-14-3.1c3.3,0.9,6.7,1.7,10,2.6C471.3,635,472.7,635.2,474,635.3z"/>
	<path fill="#DEF6FB" d="M400,585c-1.3-3.3-2.6-6.7-3.9-10C397.4,578.3,398.7,581.6,400,585z"/>
	<path fill="#DEF6FB" d="M395.7,573c-0.6-2-1.1-4-1.7-6C394.6,569,395.2,571,395.7,573z"/>
	<path fill="#DEF6FB" d="M402.3,589.9c-0.8-1.6-1.5-3.3-2.3-4.9C400.8,586.6,401.5,588.2,402.3,589.9z"/>
	<path fill="#DEF6FB" d="M389.1,553.4c0.3-0.1,0.6-0.2,1-0.3c-0.1,0.3-0.1,0.6,0,1C389.7,553.8,389.4,553.6,389.1,553.4z"/>
	<path fill="#031F68" d="M862.8,512.2c9.4,0.4,18.8,0.9,28.2,1.3c11.5,8.2,24.7,2.9,37,4c21,1.9,42.2,0.9,63.4,0.4
		c10.8-0.3,16.3,5.6,17.1,14.6c0.9,11.2-7.2,15.2-17.3,15.6c-33.6,1.3-67.3,1.6-100.7,4.5c-17.8,1.5-8.3,18.1-8.5,26.4
		c-1.5,49.7-0.9,99.5-0.8,149.2c0.1,31.8,0.6,63.6,0.7,95.4c0,3.1,0.4,8.7-4.7,7.2c-9.6-2.9-27.9,8.4-28.2-6.4
		c-1.9-88.1-0.9-176.3-1-264.4c0-2.5,1.4-6.2-3.5-5.9c-0.8-0.4-1.7-0.9-2.5-1.3c-1.5-1.2-3-3.5-4.5-3.5c-19.6-0.1-39.3-0.1-58.9,0.6
		c-3,0.1-8-2.9-9.6,2.9c0.2,0.2,0.2,0.5,0.2,0.8c-1,0.4-2.1,0.9-3.1,1.3c-38.4-11.1-76.8-22.1-115.2-33.3c-1.3-0.4-2.2-2-3.3-3
		c1.8-0.5,3.6-1.5,5.4-1.5c64.8-0.1,129.7-0.1,194.5-0.1c2.8,0,6.5,1.2,6.6-3.7c1.1-0.5,2.2-0.9,3.3-1.4
		C859.1,511.9,860.9,512.1,862.8,512.2z M988.6,531.7c-3.8,1.3-10.7-2-10.2,3.9c0.5,6.3,7.6,2.7,11.7,3.3c2.8,0.4,7.1,1.2,6.7-3.8
		C996.4,528.4,990.9,534,988.6,531.7z"/>
	<path fill="#DEF6FB" d="M842,827.9c0-90.6,0-181.3,0-271.9c0-0.9,0.1-1.8,0.1-2.6c-0.3-0.2-0.3-0.4-0.1-0.7
		c0.8,0.4,1.7,0.9,2.5,1.3c-0.1,90.5-0.2,181-0.4,271.6c0,2-1.3,4.1-2.1,6.1C841.9,830.4,842,829.2,842,827.9z"/>
	<path fill="#031F68" d="M926.7,574.9c0,85.7,0,171.4,0,257.1c-0.6-1.7-1.7-3.4-1.7-5.2c-0.1-82.3-0.1-164.5,0-246.8
		C925,578.3,926.1,576.6,926.7,574.9z"/>
	<path fill="#FDFEFC" d="M842,827.9c0,1.3,0,2.5,0,3.8c-5.3,0-10.7,0-16,0C831.8,832.7,831.8,808.4,842,827.9z"/>
	<path fill="#09CC5F" d="M344.8,693.7c-0.6-2.6-1.3-5.2-1.9-7.8c-1-20.6-9.4-38.7-18.8-56.5c-1-2-1.6-4.1-2.4-6.2
		c2.4,1.8,5.5,3.1,7,5.4c12.9,19.6,16.8,42.4,21.3,64.8c-0.5,0.3-1,0.5-1.5,0.7C347.3,694,346,693.9,344.8,693.7z"/>
	<path fill="#020446" d="M382.9,693.6c5.1-15.5,10.1-31,15.4-46.4c0.5-1.4,2.9-2.1,4.4-3.2c0.2,1.4,1,3,0.6,4.3
		c-4.7,15.5-9.5,30.9-14.2,46.4C386.9,694.3,384.9,694,382.9,693.6z"/>
	<path fill="#DEF6FB" d="M409.6,784.6c37.7,0.1,75.5,0.2,113.2,0.3c-0.2,0.5-0.5,1.5-0.7,1.5c-38.2-0.2-76.4-0.4-114.6-0.7
		C408.2,785.4,408.9,785,409.6,784.6z"/>
	<path fill="#031F68" d="M615.2,775.8c1.3-0.3,2.6-0.6,3.8-0.8c2.3,3,4.7,5.9,7,8.9c-3.5,6.9-10.5,3.1-15.6,5
		c-6.7,2.4-14.8-0.2-15.1,13c-0.2,6.9-14.6,4.4-22.6,6.3c-7.9,1.8-17.6-5.9-23.7,4.7c-0.4,0.4-0.8,0.8-1.2,1.2
		c-1.5,4.4-2.9,8.9-4.5,13.3c-2.1,6.2-7.5,4.5-11.8,4.2c-1-0.1-2.5-4-2.5-6.1c0.4-10.5-2.3-17.7-14.6-17.5
		c-30.7,0.7-61.4,1.2-92.1,2.1c-1.5,0-2.9,2.2-4.3,3.4c-1,0.8-2,1.6-2.9,2.4c-1.1,5.1,2.3,12-5.7,14.5c-5.2,1.6-10.4,2.1-13.4-2.8
		c-4.3-6.9,5.3-7.1,6.7-11.7c0.9-2.9,5.5-5.7,5.1-7.9c-4.1-21,10.3-16.1,21.6-16.1c30.1-0.1,60.2-0.2,90.3-1.1
		c5.7-0.2,8.3-6.2,8.4-11.9c0.4-28.1,0.7-56.2,1-84.3c0-3.9-0.7-7.9,5.5-7.5c5.5,0.4,9.7,1,9.6,8.1c-0.2,27-0.1,53.9-0.1,80.9
		c0,2.7-0.7,6.1,3.8,6c0.4,1,0.8,2,1.1,3c-0.2,0.5-0.3,1-0.5,1.5c0.5-0.1,1-0.1,1.5-0.2c7.6,0.2,15.2,0.4,22.8,0.5
		c6.6,0.1,14.5,2.4,19.6-0.3c7.3-4,23.1,9.6,22.5-10.4L615.2,775.8z M589.8,798.3c0.5-1,0.9-1.5,0.9-2c0-0.3-0.7-0.9-0.8-0.8
		c-0.5,0.3-1.1,0.7-1.3,1.2C588.4,796.9,589.1,797.4,589.8,798.3z"/>
	<path fill="#055BE2" d="M689.8,814.9c0.1-3.2,0.2-6.4,0.4-9.7c1.3-2.1,2.6-4.2,4-6.3c2.6-1.7,5.3-3.4,7.9-5.1
		c1.3,0.1,2.5,0.3,3.8,0.4c0.7,0.2,1.5,0.4,2.2,0.6c0.6,0.1,1.2,0.2,1.9,0.2c1.5,0.5,2.9,1,4.4,1.4c0.9,0.1,1.8,0.2,2.7,0.2
		c2.3,0.4,4.7,0.8,7,1.3c0.6,0.1,1.2,0.1,1.8,0.2c1.1,0.3,2.1,0.6,3.2,0.8c0.9,0.1,1.8,0.2,2.8,0.3c0.7,0.3,1.5,0.5,2.2,0.8
		c0.6,0.1,1.2,0.1,1.8,0.2c24.7,24.1,24.7,24.1,7.1,31.7c-16.3,0-32.6-0.1-48.9-0.1c-0.1-0.3-0.1-0.6-0.1-0.8
		c-1.8-1.5,1.8-7.6-4.5-5.2c-0.4-2.8-0.9-5.6-1.3-8.3C688.7,816.6,689.3,815.7,689.8,814.9z"/>
	<path fill="#055BE2" d="M552.8,771.9c1.4-2.3,2.7-4.6,4.1-7c4.4-2.8,8.9-5.7,13.3-8.5c2.5,0.9,5.1,1.7,7.6,2.6
		c2.1,1.2,4.2,2.4,6.3,3.6c0.6,0.1,1.2,0.2,1.7,0.3c3.6,5.6,14.5,7.5,11.4,16c-3.6,9.7-13.8,4.9-21.2,6.1c-1.1,0.2-2.2,1.1-3.2,1.7
		c-7.6-0.2-15.2-0.4-22.8-0.5c-0.3-0.4-0.7-0.8-1-1.3c-0.4-1-0.8-2-1.1-3c0.7-1.3,1.3-2.6,2-3.9C550.8,776,551.8,773.9,552.8,771.9z
		"/>
	<path fill="#FDFEFC" d="M522.7,696c-1.2-1.1-2.4-2.1-3.6-3.2c7.6-7.3-11.8-18.6,3.6-24.8C522.7,677.3,522.7,686.6,522.7,696z"/>
	<path fill="#FDFEFC" d="M522.7,661c-2.4-4.4-4.7-8.8-7.1-13.1c2.4-1,4.7-1.9,7.1-2.9C522.7,650.3,522.7,655.6,522.7,661z"/>
	<path fill="#FDFEFC" d="M522.7,733.9c-1.2-2.4-3.1-4.8-3.4-7.4c-0.2-1.4,2.2-3.1,3.4-4.7C522.7,725.9,522.7,729.9,522.7,733.9z"/>
	<path fill="#0A42A4" d="M550.2,814.9c0,5-0.1,10-0.1,15.1c-0.1,0.6-0.2,1.2-0.4,1.8c-0.6-5.9-1.3-11.8-1.9-17.8
		c0.4-0.4,0.8-0.8,1.2-1.2c0.3,0.3,0.6,0.6,0.9,0.9C550,814.1,550.1,814.5,550.2,814.9z"/>
	<path fill="#FDFEFC" d="M522.7,717.9c-1.2-2.2-3-4.3-3.3-6.6c-0.2-1.3,2.1-3,3.3-4.4C522.7,710.6,522.7,714.3,522.7,717.9z"/>
	<path fill="#FDFEFC" d="M522.7,640c-2.2-2.1-4.5-4.3-6.7-6.4c1.3-0.1,2.7-0.2,4-0.3c0.9,0.3,1.8,0.5,2.7,0.8
		C522.7,636,522.7,638,522.7,640z"/>
	<path fill="#DEF6FB" d="M689.5,825.8c6.3-2.4,2.7,3.7,4.5,5.2C688.9,832.4,689.4,828.8,689.5,825.8z"/>
	<path fill="#DEF6FB" d="M552.8,771.9c-1,2-2,4.1-3,6.1c0-2.1,0-4.1,0-6.2C550.8,771.9,551.8,771.9,552.8,771.9z"/>
	<path fill="#DEF6FB" d="M420,813.9c-0.3,2-0.6,3.9-0.9,5.9c-1.4-1.4-2.7-2.7-4.1-4.1c1-0.8,2-1.6,2.9-2.4
		C418.7,813.6,419.4,813.8,420,813.9z"/>
	<path fill="#0A42A4" d="M618.6,813.4c-1.8,0.4-3.6,0.9-5.4,1.3C615,814.3,616.8,813.8,618.6,813.4z"/>
	<path fill="#DEF6FB" d="M689.8,814.9c-0.5,0.8-1.1,1.7-1.6,2.5c-0.4-0.8-0.9-1.6-1.3-2.5C687.8,815,688.8,814.9,689.8,814.9z"/>
	<path fill="#0A42A4" d="M589,817.7c0-0.5,0.1-1.1,0.1-1.6c0.3,0.1,0.6,0.3,0.9,0.4C589.7,816.9,589.3,817.3,589,817.7z"/>
	<path fill="#0A42A4" d="M664.7,815.8c-0.3-0.3-0.5-0.6-0.8-0.9c0.2-0.3,0.4-0.7,0.6-1c0.4,0.2,0.8,0.4,1.2,0.6
		C665.4,814.9,665.1,815.4,664.7,815.8z"/>
	<path fill="#DEF6FB" d="M590,816.5c-0.3-0.1-0.6-0.3-0.9-0.4c-0.4-0.7-0.7-1.5-1.1-2.2C588.7,814.7,589.3,815.6,590,816.5z"/>
	<path fill="#DEF6FB" d="M550.2,814.9c-0.1-0.4-0.2-0.8-0.3-1.2c1,0.1,2.1,0.2,3.1,0.3C552.1,814.3,551.2,814.6,550.2,814.9z"/>
	<path fill="#DEF6FB" d="M522.7,634c-0.9-0.3-1.8-0.5-2.7-0.8c1-0.1,2-0.2,3.1-0.3C523,633.3,522.8,633.7,522.7,634z"/>
	<path fill="#DEF6FB" d="M522.7,819.9c0-0.7,0-1.3,0-2C522.7,818.6,522.7,819.2,522.7,819.9z"/>
	<path fill="#DEF6FB" d="M418.2,829.9c0.3,0.6,0.6,1.2,0.9,1.8C418.8,831.1,418.5,830.5,418.2,829.9z"/>
	<path fill="#DEF6FB" d="M549.7,831.7c0.1-0.6,0.2-1.2,0.4-1.8c0.3,0.6,0.6,1.1,1,1.7C550.6,831.7,550.2,831.7,549.7,831.7z"/>
	<path fill="#DEF6FB" d="M522.7,815c-0.6-0.4-1.1-0.7-1.7-1.1C521.5,814.2,522.1,814.6,522.7,815z"/>
	<path fill="#DEF6FB" d="M664.5,813.9c-0.2,0.3-0.4,0.7-0.6,1c-0.6-0.3-1.3-0.7-1.9-1C662.9,813.9,663.7,813.9,664.5,813.9z"/>
	<path fill="#DEF6FB" d="M685.1,813c0.3,0.3,0.5,0.7,0.8,1C685.7,813.6,685.4,813.3,685.1,813z"/>
	<path fill="#031F68" d="M677.2,787.9c0.2,0.3,0.4,0.6,0.6,0.9C677.6,788.5,677.4,788.2,677.2,787.9z"/>
	<path fill="#DEF6FB" d="M588,831.6c0.3-0.2,0.6-0.5,0.9-0.7C588.6,831.2,588.3,831.4,588,831.6z"/>
	<path fill="#DEF6FB" d="M614.3,830.9c0.2,0.2,0.5,0.4,0.7,0.7C614.7,831.4,614.5,831.1,614.3,830.9z"/>
	<path fill="#DEF6FB" d="M551,645c-0.3,0.3-0.6,0.6-0.9,0.9C550.4,645.6,550.7,645.3,551,645z"/>
	<path fill="#FDFEFC" d="M514,633.7c-4.7,0.7-9.3,1.5-14,2.2c0-0.6,0-1.2,0-1.8C504.7,634,509.4,633.9,514,633.7z"/>
	<path fill="#DEF6FB" d="M500.1,634.2c0,0.6,0,1.2,0,1.8c-2.7,0.1-5.4,0.1-8,0.2c-0.3-0.3-0.7-0.6-1-0.9
		C494,634.9,497,634.5,500.1,634.2z"/>
	<polygon fill="#020446" points="562.9,626.3 563.3,626.5 562.9,626.6 	"/>
	<path fill="#FDFEFC" d="M948.1,396.1c-3,10.9,6.2,24.2-6.5,33.2c-60.6-0.1-121.1-0.3-181.7-0.4c-26.1,0-52.2-0.6-78.2,0.3
		c-11.5,0.4-14-8.1-14.8-14.5c-0.8-6-6.2-16.5,6.1-19.5c91.6,0,183.2-0.1,274.8-0.1C947.7,395.6,947.8,395.9,948.1,396.1z
		 M805.2,421.1c5.3,0,5.9-0.8,4.5-14.4c-0.2-1.6-4.5-4.5-6-4c-4.2,1.4-9.3,3.2-8.7,9.3C795.5,416.9,796.9,421.4,805.2,421.1z"/>
	<path fill="#055BE2" d="M862.8,512.2c-1.9-0.1-3.7-0.2-5.6-0.3c-0.7-3-1.5-6-2.2-9c-0.7-0.3-1.4-0.5-2-0.8
		c-0.4-0.9-0.8-1.9-1.2-2.8c-2-12.6-11.5-3.4-17-5.8c-1.2-0.1-2.3-0.3-3.5-0.4c1.7-14.3,3.3-28.5,5-42.8c0.9,0.2,1.8,0.4,2.7,0.6
		c18.6-0.6,34.6,4.6,46,20.2c0.6,10.2,1.7,20.4,1.8,30.6C886.8,522.9,870,506.8,862.8,512.2z"/>
	<path fill="#FDFEFC" d="M625.3,496c0.9-1,1.9-2.1,2.8-3.1c6.4,2.8,12.7,5.5,19.1,8.3c1.2,0.4,2.5,0.7,3.7,1.1
		c22.7,0.1,45.4,0.2,68.1,0.2c8.7,0.3,17.3,0.6,26,0.9c2.4,0.2,4.9,0.3,7.3,0.5c6.5-0.4,13-0.9,19.5-1.3c1.1,0.4,2.2,0.7,3.3,1.1
		c24.6,0.5,49.2,0.9,73.8,1.6c2,0.1,5.6,1.6,5.8,2.9c0.6,4.5-3.4,3-5.6,3c-62,0.1-124,1.1-185.9-0.8
		C650.8,509.8,627.9,526,625.3,496z"/>
	<path fill="#FC9401" d="M771.8,502.4c-6.5,0.4-13,0.9-19.5,1.3c-2.7-2.3-5.1-6-8-6.5c-14.7-2.5-21.1-12.6-13.8-23.7
		c4.5-6.9,16.9,0.6,25.5,3.1c6.2,1.8,12.1,4.8,18.2,7.3c2.3,2.9,4.6,5.8,6.9,8.7C778,495.9,774.9,499.2,771.8,502.4z"/>
	<path fill="#020446" d="M719,502.4c-22.7-0.1-45.4-0.2-68.1-0.2c-1.2-0.4-2.5-0.7-3.7-1.1c-6.4-2.8-12.7-5.5-19.1-8.3
		c5.9,1.7,11.9,4.8,17.8,4.9c21.9,0.6,43.9,0.5,65.8-0.1c2.5-0.1,7.2-5.5,6.8-7.9c-1.3-8.6,7.8-19.7-5.5-25.5
		c-5.6-2.5-11.4-4.6-17-7.2c-3.6-1.7-1.5-2.8,0.7-3.6c0.4,0.2,0.8,0.4,1.2,0.7c0.3,0.3,0.7,0.5,1,0.8c20.7,4.6,32.1,15.6,25.8,38.3
		C722.9,496.3,720.9,499.4,719,502.4z"/>
	<path fill="#055BE2" d="M826.8,431.7c-1,1.2-2,2.3-3,3.5c-44.1-0.3-88.1-0.5-132.2-0.8c-0.9,0-1.8-0.8-2.6-1.2
		c0.5-0.3,1-0.8,1.5-0.8C736,432.2,781.4,431.9,826.8,431.7z"/>
	<path fill="#0A42A4" d="M771.8,502.4c3.1-3.3,6.2-6.6,9.3-9.8c10.5,0,21.1,0,31.6,0.1c1.1,0.2,2.2,0.5,3.4,0.7
		c3.9,10.9-7.7,5.1-10.1,9.3c-10.3,0.3-20.6,0.5-30.9,0.8C773.9,503.2,772.9,502.8,771.8,502.4z"/>
	<path fill="#09CC5F" d="M812.6,492.7c-10.5,0-21.1,0-31.6-0.1c-2.3-2.9-4.6-5.8-6.9-8.7c11.9-0.3,23.9-1.2,35.8-0.6
		C815.9,483.6,811.6,489.5,812.6,492.7z"/>
	<path fill="#031F68" d="M805.9,502.7c2.3-4.2,13.9,1.6,10.1-9.3c5.1-0.2,10.2-0.3,15.2-0.5c1.2,0.1,2.3,0.3,3.5,0.4
		c4.8,4.5,13.4-2.1,17,5.8c0.4,0.9,0.8,1.9,1.2,2.8c-0.1,0.2-0.2,0.4-0.1,0.7C837.2,502.7,821.6,502.7,805.9,502.7z"/>
	<path fill="#0A42A4" d="M719,502.4c1.9-3,3.9-6.1,5.8-9.1c5.7,2,11.5,3.8,17.2,6.1c1.3,0.5,2,2.5,3,3.9
		C736.3,503,727.7,502.7,719,502.4z"/>
	<path fill="#FDFEFC" d="M732.4,466c12.4,3.4,25.3,2,35.5,10.1c1,0.8,1.3,2.4,1.9,3.6c-1.2-0.2-2.6-0.1-3.7-0.7
		c-10.5-5.8-21.7-9.1-33.6-10.1c-1-0.1-1.9-1-2.9-1.5C730.7,466.8,731.8,466.3,732.4,466z"/>
	<path fill="#055BE2" d="M840.8,437.3c-1.3-0.1-2.5-0.2-3.8-0.3c-0.3-0.5-0.6-0.9-1-1.4c14-0.2,27.9-0.4,41.9-0.6
		c0.2,0,0.5,0.3,0.7,0.5c-0.8,0.1-1.6,0.4-2.4,0.4C864.4,436.4,852.6,436.9,840.8,437.3z"/>
	<path fill="#055BE2" d="M836.4,439.4c-0.3,0.7-0.5,1.4-0.8,2C835.8,440.7,836.1,440,836.4,439.4z"/>
	<path fill="#020446" d="M693,452.2c-0.3,0.4-0.6,0.9-1,1.3c-0.3-0.6-0.7-1.2-1-1.7C691.7,451.9,692.3,452.1,693,452.2z"/>
	<path fill="#031F68" d="M699,455c-0.3-0.3-0.7-0.5-1-0.8C698.4,454.4,698.7,454.7,699,455z"/>
	<path fill="#DEF6FB" d="M805.9,502.7c15.7,0,31.3-0.1,47-0.1c0.7,0,1.4,0.1,2.1,0.1c0.7,3,1.5,6,2.2,9c-1.1,0.5-2.2,0.9-3.3,1.4
		c-73.3,0.2-146.6,0.4-219.9,0.6c-2.7,0-5.3-0.1-8-0.1c-0.3-5.9-0.5-11.8-0.8-17.8c2.7,30,25.5,13.8,37.8,14.2
		C725,512,787,511,849,510.9c2.2,0,6.2,1.5,5.6-3c-0.2-1.2-3.7-2.8-5.8-2.9c-24.6-0.7-49.2-1.1-73.8-1.6
		C785.3,503.3,795.6,503,805.9,502.7z"/>
	<path fill="#FDFEFC" d="M676,225.2c1.8-0.4,3.7-1.1,5.5-1.1c85.6-0.1,171.2-0.1,256.8,0c1.5,0,3,0.7,4.5,1.1
		c0.6,0.6,1.2,1.3,1.8,1.9c0.1,19.9,0.3,39.9,0.4,59.8c-8.1-4.4-20.5-14.3-22.2,1.7c-3.1,28.5-0.9,57.5-0.8,86.4
		c0,2.7,2.5,5.9-3.1,6.1c-4.9,0.2-6.2-1.4-6.1-6.2c0.3-13.5,0-27,0.1-40.5c0.1-7.1-5.3-8.8-10-8c-4.9,0.9-13.7-2.8-13.9,6.9
		c-0.4,14.5-0.2,29,0,43.5c0,2.8,0.4,4.5-3.2,4.2c-2.9-0.3-6.3,0.9-6-4.2c0.5-8.3,0.8-16.6,1-24.9c0.3-9.6-5.6-10.4-13.4-10.2
		c-7.1,0.2-9.8,2.9-9.8,9.9c0,3.1-2.1,6.2-3.3,9.3c-9.9-16.1-26.2-8.8-37.9-6.8c-14.4,2.5-13.6-2.8-13.8-12.5
		c-0.1-6.4,3.8-17.3-3.2-18.5c-12.6-2.1-26.2-5.3-39.1,0c-1.4,0.6-2.4,3.8-2.4,5.8c-0.2,15.5-0.1,31-0.1,46.5c0,3,0.3,5.6-4.2,5.5
		c-4.3-0.1-3.8-2.6-3.8-5.3c0-22.3,1.7-44.8-0.5-66.9c-1.9-18-18-5.7-27.2-8.5c-5.7-1.7-11.3,0.4-11.3,8.5c0.1,24.3,0,48.6,0,73
		c-2.7,0-5.3,0-8,0c0-15.7,0.1-31.3,0-47c-0.1-9.9-7.4-8.7-14-8.9c-6.3-0.2-9.2,2.4-9.1,8.8c0.2,13.8,0.1,27.7,0,41.5
		c0,1.5-1.2,3.1-1.8,4.6c-0.7-1.6-2-3.2-2-4.8C676,325.8,676,275.5,676,225.2z M712.2,261.3c0.5,0.3,1,0.6,1.5,0.9
		c50.2,0.2,100.4,0.4,150.6,0.5c0.7,0,1.5-1.8,2.2-2.8c-0.2-0.2-0.4-0.4-0.5-0.6c-49.8-0.2-99.5-0.3-149.3-0.4
		c-1.3,0-2.6,0.8-3.9,1.3C712.7,260.6,712.5,260.9,712.2,261.3z M896.6,297.8c0.7-0.6,1.5-1.2,2.2-1.7c-0.7-0.6-1.5-1.2-2.2-1.8
		c-34,0.2-67.9,0.3-101.9,0.5c-0.6,0.5-1.1,0.9-1.7,1.4c0.6,0.4,1.2,0.9,1.8,1.3c0.1,0.3,0.1,0.5,0.1,0.8c0.9,0.6,1.7,1.8,2.6,1.8
		c32.2,0.1,64.5,0.1,96.7,0C895,299.9,895.8,298.5,896.6,297.8L896.6,297.8z M830.5,284c18.6,0,37.3,0.2,55.9-0.2
		c3.2-0.1,6.2-3.3,9.3-5c-2.3-1.9-4.6-5.5-7-5.5c-38-0.3-76-0.3-114,0c-2.5,0-5,3.4-7.6,5.2c2.6,1.8,5.2,5.2,7.9,5.3
		C793.5,284.2,812,284,830.5,284z"/>
	<path fill="#DEF6FB" d="M711,381.8c0-24.3,0.1-48.6,0-73c0-8.1,5.6-10.3,11.3-8.5c9.2,2.8,25.4-9.5,27.2,8.5
		c2.3,22.1,0.5,44.6,0.5,66.9c0,2.7-0.4,5.3,3.8,5.3c4.5,0.1,4.2-2.5,4.2-5.5c0-15.5-0.1-31,0.1-46.5c0-2,1-5.3,2.4-5.8
		c12.9-5.4,26.5-2.2,39.1,0c7,1.2,3.1,12.1,3.2,18.5c0.2,9.7-0.6,14.9,13.8,12.5c11.7-2,28-9.2,37.9,6.8c1.2-3.1,3.3-6.2,3.3-9.3
		c0-7,2.6-9.7,9.8-9.9c7.8-0.3,13.7,0.5,13.4,10.2c-0.2,8.3-0.5,16.6-1,24.9c-0.3,5,3.1,3.9,6,4.2c3.6,0.3,3.2-1.4,3.2-4.2
		c-0.3-14.5-0.4-29,0-43.5c0.3-9.7,9-6.1,13.9-6.9c4.8-0.8,10.1,0.9,10,8c-0.1,13.5,0.2,27-0.1,40.5c-0.1,4.8,1.2,6.4,6.1,6.2
		c5.6-0.2,3.1-3.4,3.1-6.1c-0.1-28.8-2.3-57.9,0.8-86.4c1.8-16,14.2-6.1,22.2-1.7c0.1,31,0.3,62,0.4,93c-0.2,0.9-0.4,1.9-0.6,2.8
		c-1.3,0.1-2.6,0.2-4,0.3c-0.7-0.5-1.5-0.9-2.2-1.4c0.3-30.9,0.8-61.9,0.6-92.8c0-6.9-6.4-2.9-9.8-3.7c-3.9-0.9-3.7,2.2-3.7,4.7
		c0.1,30.9,0.2,61.9,0.2,92.8c-5.3,0-10.7,0.1-16,0.1c-0.2-0.4-0.5-0.7-0.7-1.1c0.3-13.1,1-26.2,0.5-39.3c-0.2-4.4,4.7-12-6.2-12.8
		c-10.6-0.8-12.5,3.5-12,12.7c0.7,13.4,0.2,26.9,0.3,40.4c-4.8,0-9.6,0-14.4,0.1c0-9.5-0.2-19,0.2-28.4c0.3-6.6-0.4-10.3-8.8-10.2
		c-8.7,0-7.2,5.1-7.2,10.1c0,9.5,0.1,19,0.2,28.4c-4.3,0.1-8.7,0.1-13,0.2c-0.4-0.4-0.9-0.7-1.3-1.1c-0.4-1.5-0.7-2.9-1.1-4.4
		c-2-6.4,5-17.1-3.5-18.9c-17.2-3.6-35.3-3.9-27.1,23.6c-1,0.1-2,0.2-3,0.2c-0.7,0.2-1.4,0.4-2.1,0.6c-1.3,0-2.7,0-4,0c-2,0-4,0-6,0
		c-0.6,0-1.2,0-1.8,0c-0.2-0.3-0.4-0.6-0.5-0.9c0.2-15.4,0-30.9,0.9-46.3c0.5-8.6-2.5-9.8-10.7-11c-23.2-3.5-32,4.5-28,28
		c1.6,9.5,0.2,19.6,0.2,29.4c-0.3,0.4-0.7,0.7-1,1.1c-3.7,0-7.4,0-11,0c-0.7-0.3-1.3-0.7-2-1c0-24.1,0.6-48.2-0.4-72.3
		c-0.5-10.9-10.4-4.4-15.2-4.4c-5.3,0-15.7-6.3-16.3,4.5c-1.2,24-0.2,48.2-0.1,72.3c-1,0.3-2,0.6-3,0.9
		C711.6,382.6,711.3,382.2,711,381.8z"/>
	<path fill="#09CC5F" d="M714.9,382c-0.1-24.1-1-48.2,0.1-72.3c0.5-10.8,11-4.4,16.3-4.5c4.8,0,14.8-6.5,15.2,4.4
		c1,24.1,0.4,48.2,0.4,72.3c0,0.3,0,0.7,0,1C736.3,382.7,725.6,382.4,714.9,382z"/>
	<path fill="#09CC5F" d="M926.1,382.7c-0.1-30.9-0.2-61.9-0.2-92.8c0-2.5-0.2-5.6,3.7-4.7c3.4,0.8,9.8-3.2,9.8,3.7
		c0.1,30.9-0.4,61.9-0.6,92.8c-0.9,0.4-1.8,0.8-2.8,1.3C932.7,382.9,929.4,382.8,926.1,382.7z"/>
	<path fill="#031F68" d="M675,383c0.9,4.1,1,8.4-4.3,8.7c-6.1,0.3-3.6-5-3.6-7.8c0.2-49.3,0.6-98.5,0.9-147.8c0-3.7,0-7.7,5.8-6
		c0.2,6,0.5,11.9,0.5,17.9C674.6,293,674.8,338,675,383z"/>
	<path fill="#09CC5F" d="M892.1,382.8c0-13.5,0.5-27-0.3-40.4c-0.5-9.3,1.3-13.6,12-12.7c10.9,0.9,6,8.4,6.2,12.8
		c0.4,13.1-0.3,26.2-0.5,39.3c-0.1,0.4-0.3,0.8-0.4,1.2c-0.7,0.1-1.5,0.2-2.2,0.3c-0.9,0-1.8,0-2.7,0c-1.8,0-3.5,0-5.3,0
		c-1.2,0-2.5,0-3.7,0C894.1,383.1,893.1,383,892.1,382.8z"/>
	<path fill="#09CC5F" d="M686.1,383.3c-1.1-0.2-2.1-0.3-3.2-0.5c-0.1-13.8-0.2-27.6-0.2-41.4c0-5.9-2-11.9,8.5-12
		c10.4,0,9,5.8,8.9,12.1c-0.1,13.8-0.2,27.6-0.3,41.4c-1,0.1-2,0.2-2.9,0.4C693.3,383.3,689.7,383.3,686.1,383.3z"/>
	<path fill="#055BE2" d="M816,382.1c-8.1-27.5,10-27.2,27.1-23.6c8.4,1.8,1.5,12.5,3.5,18.9c0.4,1.4,0.8,2.9,1.1,4.4
		c0,0.3,0,0.7,0,1C837.2,382.6,826.6,382.3,816,382.1z"/>
	<path fill="#DEF6FB" d="M699.8,382.9c0.1-13.8,0.1-27.6,0.3-41.4c0.1-6.3,1.5-12.1-8.9-12.1c-10.4,0-8.5,6.1-8.5,12
		c0,13.8,0.2,27.6,0.2,41.4c-2.6,0.1-5.3,0.2-7.9,0.2c-0.2-45-0.4-90-0.7-135.1c0-6-0.3-11.9-0.5-17.9c0.7-1.6,1.5-3.3,2.2-4.9
		c0,50.3,0,100.6,0.1,150.9c0,1.6,1.3,3.2,2,4.8c0.6-1.5,1.8-3.1,1.8-4.6c0.1-13.8,0.2-27.7,0-41.5c-0.1-6.5,2.8-9,9.1-8.8
		c6.5,0.2,13.9-1,14,8.9c0.1,15.7,0,31.3,0,47c-0.7,0.4-1.3,0.7-2,1.1C700.6,382.9,700.2,382.9,699.8,382.9z"/>
	<path fill="#09CC5F" d="M862.1,382.8c-0.1-9.5-0.2-19-0.2-28.4c0-5-1.5-10.1,7.2-10.1c8.4,0,9.1,3.6,8.8,10.2
		c-0.4,9.5-0.2,19-0.2,28.4c-0.9,0.1-1.9,0.2-2.8,0.4c-3.3,0-6.5,0-9.8,0C864.1,383.1,863.1,382.9,862.1,382.8z"/>
	<path fill="#031F68" d="M760,383c0.3-0.4,0.7-0.7,1-1.1c12.5,0,25,0,37.6,0c0.2,0.3,0.4,0.6,0.5,0.9C786.1,382.9,773,383,760,383z"
		/>
	<path fill="#031F68" d="M701,383c0.7-0.4,1.3-0.7,2-1.1c2.7,0,5.3,0,8,0c0.3,0.4,0.7,0.8,1,1.1C708.3,383,704.6,383,701,383z"/>
	<path fill="#031F68" d="M800.9,382.9c2,0,4,0,6,0C804.9,382.9,802.9,382.9,800.9,382.9z"/>
	<path fill="#031F68" d="M686.1,383.3c3.6,0,7.2,0,10.8,0C693.3,383.3,689.7,383.3,686.1,383.3z"/>
	<path fill="#031F68" d="M865,383.2c3.3,0,6.5,0,9.8,0C871.6,383.2,868.3,383.2,865,383.2z"/>
	<path fill="#031F68" d="M935.9,383c0.9-0.4,1.8-0.8,2.8-1.3c0.7,0.5,1.5,0.9,2.2,1.4C939.2,383.1,937.6,383,935.9,383z"/>
	<path fill="#031F68" d="M747,383c0-0.3,0-0.7,0-1c0.7,0.3,1.3,0.7,2,1C748.3,383,747.6,383,747,383z"/>
	<path fill="#031F68" d="M895.1,383.2c1.2,0,2.5,0,3.7,0C897.6,383.2,896.3,383.2,895.1,383.2z"/>
	<path fill="#DEF6FB" d="M944.7,227.1c-0.6-0.6-1.2-1.3-1.8-1.9C943.5,225.8,944.1,226.5,944.7,227.1z"/>
	<path fill="#031F68" d="M811,382.9c0.7-0.2,1.4-0.4,2.1-0.6C812.3,382.5,811.7,382.7,811,382.9z"/>
	<path fill="#031F68" d="M904.1,383.3c0.9,0,1.8,0,2.7,0C905.9,383.3,905,383.3,904.1,383.3z"/>
	<path fill="#031F68" d="M909,382.9c0.1-0.4,0.3-0.8,0.4-1.2c0.2,0.4,0.5,0.7,0.7,1.1C909.7,382.9,909.4,382.9,909,382.9z"/>
	<path fill="#031F68" d="M847.8,382.8c0-0.3,0-0.7,0-1c0.4,0.4,0.9,0.7,1.3,1.1C848.6,382.9,848.2,382.9,847.8,382.8z"/>
	<path fill="#09CC5F" d="M212,353.2c-14-4-11.9-4.5-16.9-28.3c-1.9-9.2,9.2-10.7,4.9-17.7c23.1-29,54.5-42.2,90.1-47.2
		c40.4-5.6,65-31.6,83.9-65c28.4-50,67.7-80.3,128.7-70.3c20.4,3.4,38.2,13.2,53.8,26.9c0.7,0.6,1.1,1.6,1.7,2.4
		c-0.9,0-1.9,0.3-2.6,0c-74.8-27.8-111.4,25.4-132.9,80.3c-20.6,52.6-59.3,86.7-123.1,78.2c-35.7-4.8-63,11.6-85.5,37.8
		c-0.7-0.2-1.4-0.3-2.1-0.5c0.5,0.4,1,0.8,1.5,1.1C212.9,351.7,212.4,352.4,212,353.2z"/>
	<path fill="#055BE2" d="M213.4,350.9c-0.5-0.4-1-0.8-1.5-1.1c0.7,0.2,1.4,0.3,2.1,0.5C214,350.6,213.8,350.9,213.4,350.9z"/>
	<path fill="#031F68" d="M842.9,187.3c0.7-0.7,1.3-1.3,2-2c0.7,0.5,1.4,1.1,2.1,1.6C845.6,187,844.3,187.1,842.9,187.3z"/>
	<path fill="#FDFEFC" d="M255.7,464.6c-0.2,9.2-0.3,18.5-0.5,27.7c0,0.9-0.1,1.8-0.1,2.6l-0.1,0.1c-6.6-8.9-1.1-19-2.7-28.4
		C252.2,466.2,254.5,465.3,255.7,464.6z"/>
	<path fill="#FDFEFC" d="M270.1,502c1,0,2,0,2.9,0c-1.1,5.6-4.9,2.6-7.6,2.2c-1.6-0.2-4.7-0.7-1.9-3.6c0.8,0.2,1.6,0.5,2.5,0.7
		C267.4,501.5,268.8,501.7,270.1,502z"/>
	<path fill="#FDFEFC" d="M257.6,495.9c0.9,0.9,1.7,1.7,2.6,2.6c-0.3,0.8-0.5,1.5-0.8,2.3c-1.5-1.9-2.9-3.8-4.4-5.8
		c0,0,0.1-0.1,0.1-0.1C255.9,495.3,256.8,495.6,257.6,495.9z"/>
	<path fill="#FDFEFC" d="M298.1,553.5c-3,7.8-6,15.7-9,23.5c-0.4-7.4-0.8-14.8-1.2-22.1c0.4,0,0.9,0.1,1.3,0.1
		c0.1-0.3,0.2-0.6,0.4-0.9c0-0.3-0.1-0.6-0.3-0.8c0,0-0.1-0.2-0.1-0.2C292.1,553.2,295.1,553.3,298.1,553.5z"/>
	<path fill="#FDFEFC" d="M289.1,795.9c1,1.8,2.8,3.7,2.8,5.5c0,1.8-1.8,3.7-2.8,5.5C289.1,803.3,289.1,799.6,289.1,795.9z"/>
	<path fill="#0A42A4" d="M289.2,555c-0.4,0-0.9-0.1-1.3-0.1c-0.3-0.3-0.7-0.5-1-0.8c0.8-0.3,1.6-0.5,2.4-0.8
		c0.2,0.3,0.3,0.5,0.3,0.8C289.4,554.4,289.3,554.7,289.2,555z"/>
	<path fill="#FFFEFE" d="M289.1,829.9c0.3,0.3,0.6,0.5,0.8,0.8c-0.3,0.1-0.6,0.1-0.9,0.2C289.1,830.6,289.1,830.2,289.1,829.9z"/>
	<path fill="#09CC5F" d="M313.8,375.9c-6.3,7.7-11.4,13.9-16.5,20.1c-4.6-6.5-10.4-12.5-12.9-19.8c-0.7-1.9,8.6-10.1,13.6-10.3
		C302.8,365.7,307.9,371.9,313.8,375.9z"/>
	<path fill="#055BE2" d="M195.5,435.3c1-5.2,1.6-10.6,9.2-10.1c5.1,0.4,8.9,1.9,9,7.6c0,6.5-3.5,10.8-10.1,10.4
		C199.4,442.9,195.8,440.3,195.5,435.3z"/>
	<path fill="#09CC5F" d="M205.9,667.1c-0.9,1.4-1.8,2.8-2.8,4.1c-32.4-17.6-40.9,1.1-43.6,28.6c-12.4,7.9-25.6,9-36.4-1.2
		c-8.5-8.1-11.8-20-5.7-31.2c6.4-11.7,15.8-17.8,31.1-15.4c12.9,2,4-15.4,12.7-19.1c1.7-0.3,3.3-0.5,5-0.8c5,18.7,17,29.6,36.2,32.5
		C203.5,665.5,204.7,666.3,205.9,667.1z"/>
	<path fill="#FDFEFC" d="M310,417.3c1.3-2.1,2.1-3.6,3-5c1,2.8,2.2,5.5,2.9,8.3c0.2,0.8-1.2,2-1.9,3
		C312.7,421.7,311.4,419.7,310,417.3z"/>
	<path fill="#FDFEFC" d="M982.7,496c0.3,0.5,0.5,0.8,0.6,1.2c-0.4,0.2-0.8,0.6-1.1,0.5c-0.3,0-0.5-0.6-0.8-0.9
		C981.8,496.6,982.2,496.3,982.7,496z"/>
	<path fill="#DEF6FB" d="M270.1,502c-1.3-0.2-2.7-0.5-4-0.7C267.4,501.5,268.8,501.7,270.1,502z"/>
	<path fill="#DEF6FB" d="M257.6,495.9c-0.8-0.3-1.7-0.6-2.5-1c0-0.9,0.1-1.8,0.1-2.6C256,493.5,256.8,494.7,257.6,495.9z"/>
	<path fill="#0A42A4" d="M205.9,667.1c-1.2-0.8-2.3-1.6-3.5-2.4c8-12.1,5.2-23.2-4.6-32.3c-10-9.3-21-8.8-31.7-0.2
		c-1.7,0.3-3.3,0.5-5,0.8c10.8-13.5,24.7-12.4,36.8-4.4C211.9,637.8,213.6,652.1,205.9,667.1z"/>
	<path fill="#0A42A4" d="M743,831.9c17.5-7.6,17.5-7.6-7.1-31.7c2.4,0.2,4.8,0.4,7.2,0.6c1.9,0.4,3.8,0.9,5.7,1.3
		c4.8,1.9,9.5,3.8,14.3,5.8c3.6,3.5,7.6,6.7,10.8,10.5c2.4,2.9,3.9,6.5,5.9,9.8c-3,1.2-6,3.2-9.1,3.3
		C761.4,832.1,752.2,831.9,743,831.9z"/>
	<path fill="#031F68" d="M577.9,759.1c-2.5-0.9-5.1-1.7-7.6-2.6c-1.4-0.9-2.9-1.9-4.3-2.8c18.6,2.4,34.7,10.6,49.2,22.2
		c0,0-0.2,0.2-0.2,0.2c-9.7-4.3-19.3-8.6-29-13c-0.6-0.1-1.2-0.2-1.7-0.3C582.1,761.5,580,760.3,577.9,759.1z"/>
	<path fill="#031F68" d="M743,800.9c-2.4-0.2-4.8-0.4-7.2-0.6c-0.6-0.1-1.2-0.1-1.8-0.2c-0.7-0.3-1.5-0.5-2.2-0.8
		c-0.9-0.1-1.8-0.2-2.8-0.3c-1.1-0.3-2.1-0.6-3.2-0.8c-0.6-0.1-1.2-0.1-1.8-0.2c-2.3-0.4-4.7-0.8-7-1.3c-0.9-0.1-1.8-0.2-2.7-0.2
		c-1.5-0.5-2.9-1-4.4-1.4c-0.6-0.1-1.2-0.2-1.9-0.2c-0.7-0.2-1.5-0.4-2.2-0.6c-1.3-0.1-2.5-0.3-3.8-0.4c-1.4-0.4-2.7-0.8-4.1-1.2
		C713.8,790.8,728.5,795.4,743,800.9z"/>
	<path fill="#0A42A4" d="M566,753.6c1.4,0.9,2.9,1.9,4.3,2.8c-4.4,2.8-8.9,5.7-13.3,8.5c2.1-3.7,4.2-7.4,6.3-11.1
		C564.2,753.8,565.1,753.7,566,753.6z"/>
	<path fill="#DEF6FB" d="M694.1,798.9c-1.3,2.1-2.6,4.2-4,6.3c1.3-4.4,2.6-8.9,3.9-13.3c0.4,0.3,0.8,0.6,1.2,0.9
		C694.8,794.8,694.5,796.8,694.1,798.9z"/>
	<path fill="#0A42A4" d="M694.1,798.9c0.3-2,0.7-4.1,1-6.1c0.9,0,1.8-0.1,2.7-0.1c1.4,0.4,2.7,0.8,4.1,1.2
		C699.4,795.5,696.7,797.2,694.1,798.9z"/>
	<path fill="#DEF6FB" d="M621,623.1c-4.3,0.6-8.7,1.2-13,1.7C612.3,624.3,616.6,623.7,621,623.1z"/>
	<path fill="#DEF6FB" d="M613,650.9c0.6-1.6,1.3-3.3,1.9-4.9C614.3,647.6,613.6,649.2,613,650.9z"/>
	<path fill="#DEF6FB" d="M727.9,635.9c-0.7,0-1.4,0-2.1-0.1c0.9-1.1,1.9-2.2,2.8-3.4C728.4,633.7,728.2,634.8,727.9,635.9z"/>
	<path fill="#DEF6FB" d="M609.1,658c0.9-1.7,1.7-3.4,2.6-5.1C610.8,654.6,609.9,656.3,609.1,658z"/>
	<path fill="#DEF6FB" d="M769.1,553.6c0,0.7-0.1,1.4-0.1,2.2c-1-0.3-2-0.6-3-0.8C767.1,554.5,768.1,554,769.1,553.6z"/>
	<path fill="#DEF6FB" d="M726,642.9c0.5-1.3,1.1-2.7,1.6-4C727.1,640.3,726.5,641.6,726,642.9z"/>
	<path fill="#DEF6FB" d="M626.1,625c-1-0.6-2.1-1.2-3.1-1.9C624.1,623.8,625.1,624.4,626.1,625z"/>
	<path fill="#DEF6FB" d="M608.2,660c0.3-0.7,0.6-1.3,0.9-2C608.8,658.7,608.5,659.3,608.2,660z"/>
	<path fill="#DEF6FB" d="M618.2,640c0.2-0.7,0.5-1.3,0.7-2C618.7,638.7,618.4,639.3,618.2,640z"/>
	<path fill="#DEF6FB" d="M625.1,627c0.3-0.3,0.5-0.7,0.8-1C625.6,626.3,625.3,626.7,625.1,627z"/>
	<path fill="#DEF6FB" d="M624.1,629c0.3-0.3,0.5-0.7,0.8-1C624.6,628.3,624.3,628.7,624.1,629z"/>
	<path fill="#DEF6FB" d="M622.1,633.1c0.3-0.4,0.5-0.7,0.8-1.1C622.6,632.4,622.3,632.7,622.1,633.1z"/>
	<path fill="#0A42A4" d="M385.2,519c0.9,5.3,1.9,10.7,2.8,16C387.1,529.7,386.1,524.3,385.2,519z"/>
	<path fill="#0A42A4" d="M388.2,537c0.2,1.7,0.5,3.4,0.7,5.1C388.7,540.4,388.5,538.7,388.2,537z"/>
	<path fill="#DEF6FB" d="M350,693.4c-4.5-22.5-8.3-45.2-21.3-64.8c-1.5-2.3-4.7-3.6-7-5.4c0.8,2.1,1.4,4.2,2.4,6.2
		c9.4,17.8,17.8,35.9,18.8,56.5c-7.4-19.7-11.6-40.6-23.6-58.5c-0.8-1.2,1.8-4.5,2.8-6.9c2.4,1.1,5.7,1.5,6.9,3.3
		c13.2,20.2,20,42.6,22.8,66.4C351.9,691.2,350.6,692.3,350,693.4z"/>
	<path fill="#FFFEFE" d="M514.6,769.7c0.5-2,1-4,1.4-5.9c0.3,2.3,0.9,4.6,0.9,6.9c0,1.8-0.6,3.6-0.9,5.4
		C515.5,774,515.1,771.9,514.6,769.7z"/>
	<path fill="#020446" d="M816,553.4c-15.7-0.2-31.4-0.4-47.1-0.6c1.6-5.9,6.7-2.8,9.6-2.9c19.6-0.7,39.3-0.7,58.9-0.6
		c1.5,0,3,2.3,4.5,3.5c-0.2,0.3-0.2,0.5,0.1,0.7c-2.4,0-4.7,0-7.1,0C828.6,553.4,822.3,553.4,816,553.4z"/>
	<path fill="#DEF6FB" d="M988.6,531.7c2.2,2.3,7.8-3.3,8.2,3.4c0.3,5-3.9,4.2-6.7,3.8c-4.2-0.6-11.2,3-11.7-3.3
		C977.9,529.7,984.8,533,988.6,531.7z"/>
	<path fill="#FDFEFC" d="M835,553.4c2.4,0,4.7,0,7.1,0c0,0.9-0.1,1.8-0.1,2.6C839.6,555.1,837.3,554.2,835,553.4z"/>
	<path fill="#FDFEFC" d="M510.7,678.8c-0.7,8-1.2,14.7-1.8,21.5c-0.9-6.3-2.6-12.6-2.6-18.9c0-7.3,1.4-14.7,2.2-22
		C509.2,666.2,510,673,510.7,678.8z"/>
	<path fill="#FDFEFC" d="M511.9,642.9c-1.5,1.1-2.3,2.3-3.4,2.5c-0.6,0.1-1.5-1.3-2.3-2c1.1-1.1,2.1-2.1,3.2-3.2
		C510,640.9,510.7,641.6,511.9,642.9z"/>
	<path fill="#0A42A4" d="M585.9,763c9.7,4.3,19.3,8.6,29,13c0.6,20-15.2,6.4-22.5,10.4c-5.1,2.8-13,0.4-19.6,0.3
		c1.1-0.6,2.1-1.5,3.2-1.7c7.4-1.2,17.6,3.6,21.2-6.1C600.4,770.5,589.5,768.6,585.9,763z"/>
	<path fill="#020446" d="M589.8,798.3c-0.7-0.9-1.3-1.4-1.2-1.7c0.2-0.5,0.8-0.9,1.3-1.2c0.1-0.1,0.9,0.6,0.8,0.8
		C590.6,796.8,590.3,797.3,589.8,798.3z"/>
	<path fill="#0A42A4" d="M549,784.9c0.3,0.4,0.7,0.8,1,1.3c-0.5,0.1-1,0.1-1.5,0.2C548.7,785.9,548.8,785.4,549,784.9z"/>
	<path fill="#0A42A4" d="M717,796.7c2.3,0.4,4.7,0.8,7,1.3C721.7,797.6,719.3,797.2,717,796.7z"/>
	<path fill="#0A42A4" d="M709.9,795.1c1.5,0.5,2.9,1,4.4,1.4C712.8,796,711.3,795.5,709.9,795.1z"/>
	<path fill="#0A42A4" d="M725.8,798.2c1.1,0.3,2.1,0.6,3.2,0.8C727.9,798.7,726.9,798.4,725.8,798.2z"/>
	<path fill="#0A42A4" d="M731.8,799.3c0.7,0.3,1.5,0.5,2.2,0.8C733.2,799.8,732.5,799.5,731.8,799.3z"/>
	<path fill="#0A42A4" d="M705.8,794.2c0.7,0.2,1.5,0.4,2.2,0.6C707.3,794.6,706.5,794.4,705.8,794.2z"/>
	<path fill="#0A42A4" d="M577.9,759.1c2.1,1.2,4.2,2.4,6.3,3.6C582.1,761.5,580,760.3,577.9,759.1z"/>
	<path fill="#020446" d="M805.2,421.1c-8.3,0.3-9.7-4.2-10.2-9.2c-0.6-6.1,4.5-7.9,8.7-9.3c1.5-0.5,5.8,2.4,6,4
		C811.1,420.3,810.5,421.1,805.2,421.1z"/>
	<path fill="#0A42A4" d="M851.8,499.1c-3.6-7.9-12.2-1.3-17-5.8C840.2,495.8,849.7,486.5,851.8,499.1z"/>
	<path fill="#0A42A4" d="M855,502.8c-0.7,0-1.4-0.1-2.1-0.1c-0.1-0.2-0.1-0.5,0.1-0.7C853.7,502.2,854.3,502.5,855,502.8z"/>
	<path fill="#0A42A4" d="M647.2,501.1c1.2,0.4,2.5,0.7,3.7,1.1C649.7,501.8,648.5,501.5,647.2,501.1z"/>
	<path fill="#DEF6FB" d="M830.5,284c-18.5,0-37,0.2-55.4-0.2c-2.7-0.1-5.3-3.4-7.9-5.3c2.5-1.8,5-5.2,7.6-5.2c38-0.3,76-0.3,114,0
		c2.3,0,4.7,3.6,7,5.5c-3.1,1.7-6.2,4.9-9.3,5C867.8,284.3,849.1,284,830.5,284z M831.3,279.8c18.1,0,36.3,0,54.4-0.1
		c1.4,0,2.8-0.9,4.3-1.3c-1.3-0.4-2.7-1.2-4-1.2c-36.4,0-72.9,0-109.3,0.1c-1.5,0-2.9,0.8-4.4,1.3c1.5,0.4,3.1,1.1,4.6,1.1
		C795,279.8,813.2,279.8,831.3,279.8z"/>
	<path fill="#020446" d="M712.9,260.2c1.3-0.4,2.6-1.3,3.9-1.3c49.8,0.1,99.5,0.3,149.3,0.4c0,0.3,0.2,0.5,0.5,0.6
		c-0.7,1-1.5,2.8-2.2,2.8c-50.2-0.1-100.4-0.3-150.6-0.5c-0.3-0.5-0.5-0.9-0.8-1.4C713,260.6,713,260.4,712.9,260.2z"/>
	<path fill="#020446" d="M794.7,294.7c34-0.2,67.9-0.3,101.9-0.5c0,1.2,0,2.4,0,3.6c0,0,0,0,0,0c-33.9,0.2-67.8,0.3-101.7,0.5
		c0-0.3,0-0.5-0.1-0.8C794.8,296.5,794.8,295.6,794.7,294.7z"/>
	<path fill="#DEF6FB" d="M794.9,298.2c33.9-0.2,67.8-0.3,101.7-0.5c-0.8,0.8-1.6,2.2-2.5,2.2c-32.2,0.1-64.5,0.1-96.7,0
		C796.6,299.9,795.8,298.8,794.9,298.2z"/>
	<path fill="#0A42A4" d="M794.7,294.7c0,0.9,0.1,1.8,0.1,2.7c-0.6-0.4-1.2-0.9-1.8-1.3C793.6,295.6,794.2,295.2,794.7,294.7z"/>
	<path fill="#DEF6FB" d="M896.6,297.8c0-1.2,0-2.4,0-3.6c0.7,0.6,1.5,1.2,2.2,1.8C898.1,296.6,897.4,297.2,896.6,297.8z"/>
	<path fill="#0A42A4" d="M713,260.9c0.3,0.5,0.5,0.9,0.8,1.4c-0.5-0.3-1-0.6-1.5-0.9C712.5,261.2,712.8,261,713,260.9z"/>
	<path fill="#031F68" d="M713,260.9c-0.2,0.2-0.5,0.3-0.8,0.4c0.2-0.4,0.4-0.8,0.6-1.1C713,260.4,713,260.6,713,260.9z"/>
	<path fill="#031F68" d="M866.6,259.9c-0.3,0-0.5-0.2-0.5-0.6C866.3,259.5,866.4,259.7,866.6,259.9z"/>
	<path fill="#09CC5F" d="M798.6,382c-12.5,0-25,0-37.6,0c0-9.8,1.4-19.8-0.2-29.4c-4-23.4,4.8-31.5,28-28c8.1,1.2,11.2,2.4,10.7,11
		C798.6,351,798.8,366.5,798.6,382z"/>
	<path fill="#055BE2" d="M166.2,632.2c10.6-8.6,21.7-9.1,31.7,0.2c9.8,9.1,12.6,20.2,4.6,32.3C183.2,661.8,171.1,650.9,166.2,632.2z
		"/>
	<path fill="#09CC5F" d="M831.3,279.8c-18.1,0-36.3,0-54.4,0c-1.5,0-3.1-0.7-4.6-1.1c1.5-0.4,2.9-1.3,4.4-1.3
		c36.4-0.1,72.9-0.2,109.3-0.1c1.3,0,2.7,0.8,4,1.2c-1.4,0.5-2.8,1.3-4.3,1.3C867.6,279.8,849.4,279.8,831.3,279.8z"/>
</g>
</svg>
