<?xml version="1.0" encoding="utf-8"?>
<!-- Generator: Adobe Illustrator 27.5.0, SVG Export Plug-In . SVG Version: 6.00 Build 0)  -->
<svg version="1.1" id="Ebene_1" xmlns="http://www.w3.org/2000/svg" xmlns:xlink="http://www.w3.org/1999/xlink" x="0px" y="0px"
	 viewBox="0 0 1232 928" enable-background="new 0 0 1232 928" xml:space="preserve">
<polygon fill="#FFFFFF" points="270.5,763.7 269,723 221,722.9 222.7,762.2 "/>
<polygon fill="#FFFFFF" points="339,331 341.1,719.9 853,734 874.2,342.9 "/>
<g>
	<path fill="#DAF3FC" d="M512.2,149c66.7-23.9,105.7,16.4,142.6,61.6c0.9,1.1,2.6,1.6,3.9,2.4c0,0.3,0.1,0.7,0.1,1
		c0.1,11,0.1,21.9,0.2,32.9c-0.2,14.7-0.4,29.4-0.6,44c-0.4,0-0.8,0-1.3,0c-6.2-21.6-13.2-43-26.4-61.6c-7.6-10.8-17.3-20-31.6-19.1
		c-14.3,0.9-19.8,12.6-23.1,24.5c-5.3,19.5-9.7,39.3-14.4,59c-14.7-37.6-35.9-71.5-59.6-103.9c-1.2-1.7-4-2.2-6.1-3.2
		c0.5,1.9,0.7,4.1,1.7,5.7c9.7,15.3,19.6,30.5,29.4,45.7c-5.9,22.6-11.9,45.3-17.8,67.9c-7.8-1.3-9.1,2.5-8.6,9.4
		c0.7,8.4,0.1,16.9,0.1,25.4c-6.6,0-13.3,0-19.9,0c-0.3-0.2-0.5-0.5-0.8-0.7l-0.5,0.1c-0.2-0.5-0.5-0.9-0.7-1.4c-0.3,0-0.7,0-1,0
		c-0.1,0.2-0.1,0.3,0.1,0.5c-1,0-2,0-3.1,0c-1-0.2-2-0.3-3.1-0.5c-2.9-0.2-5.8-0.4-8.8-0.7c-0.4-18.2-0.9-36.5-1.3-54.7
		c-2.6,0-5.2-0.1-7.8-0.1c-4.4,0-8.8,0-13.1,0c-0.4,0-0.7-0.1-1.1-0.1c-7.7,1.8-21.2-7.4-19.6,11.9c1.3,15.1-0.1,30.4-0.3,45.7
		c-11.4,0-22.8,0-34.2,0.1c-0.2,0-0.4,0-0.6,0c-12.7,1.4-18.7,9.4-20.9,21.2c0.1,0.3,0.1,0.6,0.2,1c-0.2,0.4-0.3,0.7-0.5,1.1
		c-8-1.6-10.2,1.4-10,9.6c0.6,27.2,0.3,54.5,0.1,81.7c0,4.6-1.3,9.1-1.9,13.7c-0.4-3.4-0.8-6.7-1.2-10.1c0.1-1.7,0.2-3.3,0.3-5
		c0.3-0.7,0.5-1.3,0.8-2c-0.1-0.4-0.1-0.8-0.2-1.2c0.1-0.6,0.2-1.2,0.3-1.9c0-4,0-7.9,0.1-11.9c0.1-65.1,0.2-130.2,0.2-195.4
		c0-2.7,1.3-5.9-4-5.9c-26.7,0.2-53.3,0-80,0.2c-1.4,0-3.9,2.3-3.9,3.5c-0.2,25.8-0.1,51.6,0,77.5c-5.6,1.9-11.3,3.8-16.9,5.8
		c-8.5-31.5,8-64-12-97.2c-14.9-24.8-18.3-58.9-17-90.4c27-14.2,54.7-26.1,85.2-30.1c45.9-6.1,83.8,14.3,121.5,35.9
		c4.6,2.6,9.5,4.7,14.3,7.1c1.1,30.4,22.3,47.9,48.4,39.9c0.3-0.3,0.6-0.5,0.9-0.8c1-0.4,2-0.8,3-1.3c0.7-0.5,1.5-1,2.2-1.5l0.1,0
		C507.9,176.4,513.2,164.3,512.2,149z M353.9,181.8c0,0-0.2,0.2-0.2,0.2c-0.6,0.6-1.2,1.3-1.8,1.9c-0.3,0.7-0.7,1.4-1,2.1
		c-1.5,2.7-3,5.4-4.6,8.1c-0.1,5-0.2,10-0.3,14.9c2.1,12.8,10.6,20.3,22.4,21.7c16.4,2,27.5-5.9,31.2-22.6c-0.3-4.7-0.5-9.4-0.8-14
		c-0.7-1.7-1.5-3.4-2.2-5.1c-0.2-0.3-0.5-0.6-0.7-1l0,0c-10.9-16.5-25.1-16.4-40.9-7.9C354.7,180.6,354.3,181.2,353.9,181.8z"/>
	<path fill="#DAF3FC" d="M128.9,701.1c1.6,0,3.2,0,4.7,0c-0.6-1.7-0.9-3.5-1.7-5.1c-34.6-62.2-60-127.3-60-199.9
		C71.8,434,80.7,373,99.5,313.9c19.6-61.5,54.2-114.3,98.8-160.6c4.7-4.9,10.9-8.3,16.4-12.4c-0.3,8.2,1.8,17.5-1.4,24.3
		c-10.9,23.5-14.5,50-22.5,73.9c-13.3,39.6-3.4,86.9-3.3,131c-1.8,2.4-3.6,4.9-5.4,7.3c-9.4,1-23.9-5.3-27,2.8
		c-4.4,11.4-0.9,25.8-0.8,38.9c-0.1,1-0.2,1.9-0.3,2.9c-0.2,0.3-0.3,0.6-0.2,0.9c-0.1,0.2-0.2,0.4-0.2,0.7c-0.9,1.7-1.9,3.5-2.8,5.2
		l0,0c-19.4,40.3-30,82.2-24.4,127.2c2.3,24.9,11.8,46.7,27.8,65.9c0,7.2,0,14.3,0,21.5c0,0.5-0.1,1.1-0.1,1.6
		c-0.7,0.7-1.4,1.4-2.2,2.1c-0.3,0.3-0.7,0.6-1,0.8c-0.3,0.3-0.7,0.6-1,0.9c-0.4,0.3-0.8,0.7-1.2,1c-1,0.9-1.9,1.9-2.9,2.8
		c-0.5,0.4-1.1,0.8-1.6,1.2c-1.1,2.2-2.3,4.5-3.4,6.7c-0.2,0.4-0.4,0.8-0.7,1.2c-0.4,1-0.9,2-1.3,3c-0.2,0.3-0.5,0.7-0.7,1
		c0.4,9.4,0.7,18.7,1.1,28.1c1.8,6.4,3.7,12.9,5.5,19.3c-5.2-3.9-10.4-7.9-15.6-11.8C129,701.4,129,701.2,128.9,701.1z"/>
	<path fill="#DAF3FC" d="M1006.1,363c95.5-16.9,154.8,60.7,154.8,128.2c0,36.6-28.1,67.1-72.1,78.9c-5.6,1.5-11.1,3.3-16.7,5
		c1.3-5.8,2.7-11.7,4-17.5l0.2,0l-0.2-0.1c0.1-4.3,0.1-8.6,0.2-12.9c-0.3-0.8-0.5-1.5-0.8-2.3c-5.2-13.7-14.5-11.1-24.4-6.2
		c-2.2-12.5-2.6-12.9-7-8.6c-10.8,10.6-21.3,21.4-32,32.1c-2.1,2.1-4.4,4.1-6.7,6.1c0.3-3.8-0.6-8.3,1.2-11.2
		c15.5-24,31.6-47.6,47.1-71.7c1.9-2.9,1-7.7,1.4-11.6c-3.6,1.6-7.7,2.6-10.7,5c-15.4,11.7-26.3,27.5-37.5,42.9
		c-0.3-0.3-0.7-0.7-1-1c-0.1-2-0.2-4-0.3-6c0-0.7,0-1.3,0-2c0-2,0-4,0.1-6c0-0.3,0-0.7,0-1c0-3.4,0-6.7,0-10.1c0-4.6,0-9.2,0-13.8
		c0-9.1,0-18.1,0-27.2c0-1.6,0-3.2,0-4.8C1005.9,419.1,1006,391,1006.1,363z"/>
	<path fill="#799902" d="M970.1,793.2c-0.3-0.1-0.7-0.3-1-0.4c0-0.3,0-0.6,0.1-0.9c9.1-3.1,22.6,7.7,27.4-6.9
		c3-9.1,1.8-19.6,2.4-29.5c5.3-14.3,2.4-22.7-14.8-21.2c6-32.1,1.1-63.4-7.3-94.5c1.7-3.6,3.4-7.3,5.2-10.9
		c18.5-32.8,37.9-64.9,66.6-90.1c0.8-0.6,1.6-1.3,2.3-1.9l0,0c2.2,0.4,4.4,0.9,6.6,1.3c-7.4,30.9-5.3,62.1-1.4,93.1
		c1.3,10-5.8,20.4,2,29.8c-23.2,15.2-44.1,32.9-61,55.1c-2.7,3.5-5.7,7.8-1.7,11.4c4.3,3.8,8.4,0.7,11.4-3.1
		c13.6-17.2,27.6-34.1,45-47.7c0.2,33.1,0.4,66.2,0.4,99.3c0,4.9-1.8,10.1,4.6,12.6c-8.3,1.4-16.6,2.8-25,4.2
		C1011.3,793.1,990.7,793.1,970.1,793.2z"/>
	<path fill="#769604" d="M128.9,701.1c0.1,0.1,0.1,0.3,0.2,0.4c5.2,3.9,10.4,7.9,15.6,11.8c-1.8-6.4-3.7-12.9-5.5-19.3
		c35.1,3.1,65.9,18.5,96.7,34.1c2.7,2,5.4,4.1,8.1,6.1c-13.8,1.5-8.1,11.4-8.1,18.8c0.3,0.4,0.6,0.8,0.9,1.2c0,0,0,0,0,0
		c0.4,0.3,0.8,0.6,1.1,0.9c0.7,0.6,1.4,1.2,2.1,1.8c2,9.8,2.7,20.1,6.3,29.2c2.6,6.4,1.1,6-3.9,6c-15.7,0-31.5,0.4-47.2,0.6
		c-37.5-0.7-65.6-17.6-86-48.7c-11.8-17.9-20.5-37.2-26.8-57.6c-0.5-1.8-0.2-5.3,0.9-5.8c2.2-1.1,5.7-1.9,7.7-0.9
		c12.4,6.5,24.5,13.6,36.7,20.5C128,700.5,128.5,700.8,128.9,701.1C129,701.1,128.9,701.1,128.9,701.1z M130.7,734.7
		c-1,0.3-2.7,0.9-4.3,1.4c0.5,0.9,1,2.4,1.7,2.6c21.3,4.6,40.6,14,59.7,24c1.5,0.8,4.4-1.1,6.7-1.8c-1-2.2-1.3-5.4-3-6.4
		C173.1,743.2,152.6,738,130.7,734.7z"/>
	<path fill="#52A8C6" d="M1005.8,451.9c0,9.1,0,18.1,0,27.2c0,4.6,0,9.2,0,13.8c0,3.4,0,6.7,0,10.1c-0.1,0.1-0.3,0.2-0.3,0.3
		c0,0.2,0.2,0.5,0.2,0.7c0,2,0,4-0.1,6c0,0.7,0,1.3,0,2c0.1,2,0.2,4,0.3,6c-0.4,0.6-0.7,1.3-1.1,1.9c-8-31.3-24.4-60.5-24-94
		c0-1.5-0.7-3-1.1-4.5c-0.6,0.8-1.3,1.5-1.8,2.4c-0.6,1.2-1,2.4-1.4,3.7c-0.7-1.2-1.6-2.4-2.1-3.7c-2-4.9-3.9-9.8-5.8-14.8
		c-1.9,4.4-3.8,8.7-5.7,13.1c0-54.3,0.1-108.7,0.1-163c1.3-0.1,2.6-0.2,3.8-0.2c2.7,0,5.5,0,8.2,0c0.9,0.1,1.9,0.1,2.8,0.2
		c0.7,7.7,1.4,15.3,2.1,23c0.3,1.7,0.6,4.7,0.9,4.8c6.9,0,13.8-0.3,20.6-0.6c0.1,0,0.2-1.8,0.3-2.7c-5.4-0.5-10.9-1-16.3-1.4
		c-1.8-0.1-3.6,0-5.5,0c0-7.7,0.1-15.4,0.1-23.1c2.6-0.1,5.2-0.1,7.8-0.2c4.1,0,8.2,0,12.3-0.1c2.3,0.4,6.3-1.9,5.5,3.4
		c0,1.3,0,2.5,0,3.8c0,0.8,0,1.5,0,2.3c0,4.6,0,9.2,0,13.8c0,1.4,0,2.8,0,4.2c0,9.6,0,19.2,0,28.8c0,4.1,0,8.1,0,12.2
		c0,2.6,0,5.2,0,7.8c0,2.7,0,5.5,0,8.2c0,3.3,0,6.5,0,9.8c0.1,3.4,0.3,6.7,0.4,10.1c-0.1,28-0.2,56.1-0.4,84.1
		C1005.8,448.7,1005.8,450.3,1005.8,451.9z M980.9,352.5c0-19.3,0-38.7-0.1-58c0-1.4-1-2.8-1.5-4.1c-0.5,1.3-1.3,2.6-1.3,3.9
		c-0.1,38.8-0.1,77.6,0,116.5c0,1.3,0.8,2.6,1.3,3.9c0.5-1.4,1.5-2.7,1.5-4.1C981,391.1,980.9,371.8,980.9,352.5z"/>
	<path fill="#8FB504" d="M1058.3,661.2c-7.8-9.4-0.7-19.8-2-29.8c-4-31-6-62.2,1.4-93.1c-2.2-0.4-4.4-0.9-6.6-1.3
		c0.1-0.3,0.1-0.6,0.2-0.9c9.9-4.9,19.2-7.5,24.4,6.2c0.3,0.8,0.5,1.5,0.8,2.3c-0.1,4.3-0.1,8.6-0.2,12.9c0,0,0,0.1,0,0.1
		c-1.3,5.8-2.7,11.7-4,17.5c-0.5,1.5-1,2.9-1.4,4.4c-4.2,10.2-8.5,20.4-12.7,30.6c-0.4,0.9-0.5,2-0.7,3c1-0.2,2.1-0.3,3-0.7
		c11-5.1,22.4-8.6,34.7-8.2c-5.7,7.4-5.1,15.9-5.1,24.6c0.1,43.4,0.1,86.8,0,130.2c0,6,1.7,8.9,7.9,8
		c-10.3,11.1-23.6,16.9-37.9,20.7c-0.3,0.1-0.6,0.3-0.9,0.4c0,0,0-0.1,0-0.1c-0.4,0.3-0.7,0.5-1.1,0.8c-0.4,0-0.7,0-1.1-0.1
		c-6.4-2.4-4.6-7.6-4.6-12.6c0-33.1-0.2-66.2-0.4-99.3c0.3-0.3,0.6-0.7,0.8-1c1-0.7,2.1-1.4,3.1-2.1c7.3-5.6,14.7-11.2,22-16.8
		c0.1-0.1,0.4-0.2,0.4-0.2c0-0.3-0.1-0.5-0.2-0.7c0-0.7-0.1-1.3-0.1-2c0.1-0.1,0.2-0.2,0.3-0.3c-0.2-0.2-0.4-0.3-0.6-0.5l0.1,0
		c-1.6,0-3.2-0.1-4.8-0.1c-0.9,0.3-1.8,0.7-2.7,1c-0.5,0.3-0.9,0.6-1.4,0.8c-0.2,0.2-0.4,0.2-0.6,0.2c-0.5,0.3-0.9,0.6-1.4,0.9
		C1064.1,657.8,1061.2,659.5,1058.3,661.2z"/>
	<path fill="#52A8C6" d="M187.5,370.1c-0.1-44.1-10-91.4,3.3-131c8-23.8,11.6-50.4,22.5-73.9c3.2-6.8,1.1-16.2,1.4-24.3
		c0.7-3.5,1.3-6.9,2-10.4c0.7,1.5,1.3,3,2,4.5c-1.2,31.6,2.1,65.6,17,90.4c20,33.2,3.5,65.7,12,97.2
		C223,332.5,205.6,351.8,187.5,370.1z M216.9,281.2c-7.6,3.7-22.6-3.4-22.4,3.9c0.2,8.4,14.5,3.2,22.3,3.2c7.9,0,22.5,5.1,22.7-3.1
		C239.6,277.4,224.8,285,216.9,281.2z M217,305.6c7.7-3.9,21.4,4.7,22.6-4.6c0.8-6.1-14.7-2.6-22.5-2.6c-7.9,0-22.8-4.3-22.5,3
		C194.9,309.8,209.2,301.9,217,305.6z M217.4,266.2c-7.9,3.4-16.9-3.6-24.1,3.8c7.3,6.9,16.2,2.6,24.2,2.7c7.7,0,23.1,2.9,22.1-2.2
		C237.9,261.4,225,269.8,217.4,266.2z"/>
	<path fill="#146390" d="M195.1,792.7c15.7-0.2,31.5-0.6,47.2-0.6c5,0,6.5,0.5,3.9-6c-3.6-9.1-4.3-19.4-6.3-29.2
		c2.5,0.1,5,0.2,7.5,0.4c1.2,0.5,2.4,1,3.5,1.4c0.4-0.1,0.8-0.2,1.1-0.3c0.5-0.3,1-0.6,1.6-0.9c-0.1,0.3-0.2,0.5-0.2,0.8
		c1.4,0.6,2.7,1.4,4.2,1.7c30.5,6.7,61.6,2.5,92.4,5c-2.9,19.7,3.2,29.9,25.4,27.3c14.3-1.7,29.1-1.9,43.3,0c21.8,3,24-10.4,25-26
		c48.4,0.5,96.8,1,145.2,1.5c-8.6,3.9-5.9,17-16,19.8c-0.8,0.2-1.1,2.1-1.6,3.3c1.4,0.3,2.7,1,4.1,1c17.4,0.3,34.9,0.6,52.3,0.9
		c-2.2,0-4.3,0.1-6.5,0.1c-141.4,0-282.9,0-424.3,0.1C196.4,792.9,195.8,792.8,195.1,792.7z"/>
	<path fill="#153D99" d="M658.9,214c0-0.3-0.1-0.7-0.1-1c0.1-14,0.3-28,0.4-42.1c0.2-0.2,0.5-0.5,0.7-0.7c12.4-1.3,24.7-2.7,37.1-4
		c-0.1,5.4-0.2,10.7-0.3,16.1c-8.3-0.9-17.9-3.6-15.7,10.8c-0.3,0-0.6,0.1-0.9,0.2c-0.7,0-1.4,0-2.2,0c-10.6-1.7-8.5,4.8-6.9,10.8
		c0,1,0,2,0,3c0,3,0.1,6,0.1,9c0,0.4,0,0.7,0,1.1c0,3,0,6,0,8.9c1.5,8.7-8.6,21.4,4.9,25.6c26.1,8,19.1-12.4,19.7-25.7
		c0-2.6,0-5.2,0.1-7.8c0-0.7-0.1-1.5-0.1-2.2c0-3.2,0-6.5,0-9.7c0.4-4.4,0.8-8.7,1.2-13.1c1,0,2-0.1,3.1-0.1
		c0.7,2.3,1.5,4.6,2.2,6.8c1.3-3.2,2.5-6.4,3.8-9.6c0.8,0,1.5-0.1,2.3-0.1c0.7,3.9-2.9,10.3,5.6,9.6c0,1.2,0,2.4,0.1,3.5
		c-3.6-0.4-6.8-0.7-6.7,4.7c0.1,5.8,3.9,3.7,6.8,3.9c0,1.4,0,2.9,0,4.3c-2.4,0.6-6.4-2.2-6.7,3c-0.2,4.7,2.1,6.6,6.7,5.7
		c0,1.4,0.1,2.8,0.1,4.2c-2.1-0.2-4.1-0.4-6.2-0.5c-0.2,3.4-0.9,6.9-0.3,10.2c0.2,1.2,3.7,1.7,5.7,2.5c-0.9,7.4,4.8,8.1,9.6,8.6
		c4.3,0.5,6.9,2.7,7,6.4c0.3,19.7-2,39.8,1,59.2c2.8,18.6-8.3,13.5-17.1,13.5c-16,0-31.9-0.6-47.9-0.9c-2.5-11.8-5.1-23.7-7.6-35.5
		c0.2-0.5,0.3-1,0.5-1.5c0.2-14.7,0.4-29.4,0.6-44C659,236,658.9,225,658.9,214z M689.3,280.9c4.2-9.6,17.7-5.9,25.4-13.9
		c-8.8-3.6-17.5-9.5-26.5-10.1c-5.5-0.4-15.1,6.6-16.4,11.9C669.5,278,678,281.1,689.3,280.9z M705.5,232.7
		c-0.8-1.1-2.1-2.9-3.4-4.7c-1,1.8-2.9,3.5-2.9,5.3c-0.1,2.3-2.2,6.3,2.7,6.6C706.5,240.2,704.4,236.3,705.5,232.7z M708.1,204.4
		c-2.1-0.5-4.2-1.5-5.8-1.1c-1.1,0.3-2.2,2.9-2.1,4.4c0.1,1.4,1.6,2.8,2.5,4.2C703.7,210.5,704.7,209.2,708.1,204.4z M698.8,220.7
		c1.4,1.7,2.4,2.9,3.4,4.1c0.9-1.6,2.4-3.2,2.5-4.9c0.1-1.1-1.6-2.5-2.4-3.7C701.3,217.4,700.3,218.8,698.8,220.7z"/>
	<path fill="#99D100" d="M969.1,791.9c0,0.3-0.1,0.6-0.1,0.9c-66.7,0.2-133.4,0.4-200.1,0.7c-1.3-0.2-2.6-0.4-4-0.6
		c-2.2-0.3-4.5-0.7-6.7-0.8c-14-0.7-33.4,6.5-29.2-20.3c0.4-2.6,0.6-5.3,1-8c7.4-0.9,14.8-1.7,22.2-2.6c2.9-0.1,5.8-0.1,8.7-0.2
		c17.4-0.6,34.7-1.2,52.1-1.8c0.3-0.1,0.6-0.2,0.9-0.2c0.7-0.2,1.4-0.4,2.1-0.6c5.7,0.1,11.4,0.2,17.1,0.3c3.6,0.2,7.3,0.3,10.9,0.5
		c1,0.1,2,0.1,3,0.2c2.9,0.4,5.9,0.7,8.8,1.1c1.1,0.1,2.2,0.2,3.3,0.2c5.6,0.6,11.1,1.2,16.7,1.8c0.8,0.1,1.5,0.1,2.3,0.2
		c9,1.5,18,2.9,27.1,4.4C927.3,773.1,948.8,780.9,969.1,791.9z"/>
	<path fill="#1A2933" d="M963.1,259c0,54.3-0.1,108.7-0.1,163c-5.7,24.7-11.4,49.4-17.2,74.1c-7-5.4-7.4-13.8-9.7-21.3
		c0.1-1.3,0.1-2.5,0.2-3.8c0-5.4,0-10.8-0.1-16.3c0.1-3,0.3-6,0.4-8.9c0-17.6,0.1-35.1,0.1-52.7c0-1.4,0-2.9,0-4.3
		c0-14.6,0-29.1,0.1-43.7c-0.6-0.4-1.2-0.8-1.9-1.1c-1.6,0.1-3.2,0.2-4.8,0.3c-0.7-0.1-1.5-0.2-2.2-0.3c0-0.3,0-0.7,0-1
		c0-9.3,0-18.7,0.1-28c0.1-18.5,0.2-36.9,0.3-55.4c0,0,0.3-0.1,0.3-0.1s-0.1-0.3-0.1-0.3c10.5-0.2,21.1-0.4,31.6-0.6
		c0,0,0.4,0.2,0.4,0.2l0.4-0.2C961.6,258.8,962.3,258.9,963.1,259z"/>
	<path fill="#99D100" d="M1097.8,767c-6.2,0.9-8-2-7.9-8c0.2-43.4,0.2-86.8,0-130.2c0-8.6-0.7-17.2,5.1-24.6c1,0,2,0.1,3,0.1
		c0.6,0,1.3,0,1.9,0c0.7,0.1,1.4,0.2,2.1,0.3c0.7,0.1,1.3,0.3,2,0.4c6.4,2.9,12.7,5.8,19.1,8.7c0.7,0.4,1.3,0.8,2,1.2c0,0,0,0,0,0
		c0.3,0.4,0.6,0.7,0.8,1.1c0,0,0,0.3,0,0.3c3.3,6.9,6.6,13.8,9.9,20.7c0.3,0.3,0.6,0.7,0.9,1c0.2,0.6,0.4,1.3,0.7,1.9
		c1.1,17.3-0.4,34.3-4.5,51.1c-1.3,5-2.5,10-3.8,15C1123.2,728.6,1115.1,750.2,1097.8,767z"/>
	<path fill="#FAC85C" d="M901.9,131.6c4.4-0.3,8.8-0.7,13.3-1c1.2,0.1,2.5,0.1,3.7,0.2c35,12.3,51.2,34.1,45.6,66.9
		c-4.4,26.2-22,41.9-48.9,45.7c-3.2,0.5-6.6-0.2-9.9-0.4c-0.3-0.2-0.5-0.4-0.8-0.6c-0.7-29.8-1.3-59.7-2.1-89.5
		C902.7,145.8,902.3,138.7,901.9,131.6z"/>
	<path fill="#DAF3FC" d="M733.9,224c19.2,1.6,31.6,15.1,45.5,26c0,30.2,0,60.4,0,90.6c-5.2,0.1-10.5,0.1-15.7,0.2
		c-0.5-0.3-0.9-0.6-1.4-1c-0.1-9.1-0.2-18.2-0.4-27.3c-0.3-0.1-0.7-0.3-1-0.4l0-0.2c-0.7,0-1.4,0-2-0.1c-0.1,0.2-0.1,0.3,0.1,0.5
		c-0.7-0.2-1.4-0.4-2-0.5c-0.3-1.3-0.6-2.5-0.9-3.8c-0.1-0.6-0.2-1.3-0.4-1.9c-0.2-0.7-0.4-1.4-0.7-2.1c-0.8-2.3-1.5-4.6-2.3-6.9
		c-0.9,0.6-2.6,1-2.7,1.7c-2,13.8-9.6,26.7-6.5,41.2c-0.2,0.2-0.4,0.5-0.6,0.7c-3,0.1-5.9,0.1-8.9,0.2
		C734.1,301.9,734,263,733.9,224z"/>
	<path fill="#153D99" d="M779.5,340.6c0-30.2,0-60.4,0-90.6c0.2-3.7,0.3-7.4,0.5-11c19.4,0,38.7-0.1,58.1-0.1
		c-0.9,1.8-1.7,3.6-2.7,5.2c-18.2,29.8-31.7,61.3-34.2,96.7C793.9,340.7,786.7,340.7,779.5,340.6z"/>
	<path fill="#FAC85C" d="M488.1,187.9c-26.1,8-47.3-9.5-48.4-39.9c6.2-22.8,20.3-33.7,44.4-30.1c0.8,0.3,1.6,0.6,2.4,0.9l0.2-0.2
		c0,0,0.3,0.1,0.3,0.1c0.9,0.4,1.7,0.8,2.6,1.1l0.2-0.2c0,0,0.2,0.1,0.2,0.1c0.7,0.4,1.4,0.7,2.1,1.1c0,0-0.1-0.1-0.1-0.1
		c0.7,0.4,1.4,0.7,2.1,1.1c0,0,0-0.1,0-0.1c0.1,20.8,0.2,41.6,0.2,62.4c0,0-0.1,0-0.1,0c-0.7,0.5-1.5,1-2.2,1.5c-1,0.4-2,0.8-3,1.3
		C488.7,187.4,488.4,187.6,488.1,187.9z"/>
	<path fill="#1A2933" d="M733.9,224c0.1,39,0.1,77.9,0.2,116.9c-22.5-0.1-45-0.1-67.5-0.2c-0.3-4.2-0.6-8.5-1-12.7
		c16,0.3,31.9,0.9,47.9,0.9c8.7,0,19.9,5.1,17.1-13.5c-2.9-19.3-0.6-39.4-1-59.2c-0.1-3.7-2.6-6-7-6.4c-4.9-0.5-10.5-1.2-9.6-8.6
		c0.3-4.1,0.6-8.1,0.9-12.2c0-1.4-0.1-2.8-0.1-4.2c0-2.9,0-5.8,0-8.7c0-1.4,0-2.9,0-4.3c0-2.9-0.1-5.7-0.1-8.6c0-1.2,0-2.4-0.1-3.5
		c-0.8-3.9,3.7-10.7-5.6-9.7c-0.8,0-1.5,0.1-2.3,0.1c-2,0.9-4,1.8-6,2.7c-1,0-2,0.1-3.1,0.1c0-3.6,0-7.2,0-10.8
		c0.1-5.4,0.2-10.7,0.3-16.1C725.6,175.1,740,193,733.9,224z"/>
	<path fill="#99D100" d="M892.4,239.8c-24.6-10-36-29-35.1-54.9c0.8-22.4,11-39.5,32.1-48.9c0.8,0.8,2.4,1.6,2.4,2.3
		C892.1,172.2,892.2,206,892.4,239.8z"/>
	<path fill="#153D99" d="M844.6,241.9c0.2,18.4,0.4,36.7,0.6,55.1c-0.1,15.3-0.3,30.7-0.4,46c-2.1,0.4-4.1,0.7-6.2,1.1
		c-10.8-5.7-22.5-2-33.7-3.4c5.4-35.7,17.6-68.9,38.2-98.7l0.4,0l0.4,0l0.4,0L844.6,241.9z"/>
	<path fill="#DAF3FC" d="M844.7,343c0.1-15.3,0.3-30.7,0.4-46c13.4-0.3,26.8-0.6,40.1-0.9c-2,8.7-3.9,17.3-5.9,25.9
		c-1.7,7-3.5,13.9-5.2,20.9c-0.3,0.2-0.4,0.5-0.4,0.9C864.1,343.5,854.4,343.3,844.7,343z"/>
	<path fill="#153D99" d="M785.6,231.9c5.8-19.8,11.6-39.7,17.5-59.5c0.3-1.1,0.9-2.1,1.4-3.1c0.5,0.8,1.2,1.5,1.5,2.3
		c7.9,20.1,15.8,40.2,23.7,60.3C815,231.9,800.3,231.9,785.6,231.9z"/>
	<path fill="#8FB504" d="M892.4,239.8c-0.1-33.8-0.2-67.6-0.5-101.5c0-0.8-1.6-1.6-2.4-2.3c4.2-1.5,8.3-3,12.5-4.4
		c0.3,7.1,0.8,14.2,1,21.3c0.7,29.8,1.4,59.7,2.1,89.5c0,0,0,0.4,0,0.4C900.8,241.8,896.6,240.8,892.4,239.8z"/>
	<path fill="#DAF3FC" d="M928,315c0,9.3,0,18.7-0.1,28c-0.3,0.2-0.6,0.5-0.9,0.7c-7.9,0.1-15.9,0.1-23.8,0.2
		c-2.2-7.3-4.4-14.7-6.5-22c-2.2-8.3-4.4-16.6-6.6-24.9C904.6,299.1,916,307.8,928,315z"/>
	<path fill="#E08870" d="M494.3,184.3c-0.1-20.8-0.2-41.6-0.2-62.4c11,5.7,15.8,15.6,18.1,27.1C513.2,164.3,507.9,176.4,494.3,184.3
		z"/>
	<path fill="#52A8C6" d="M844.6,241.9l-0.3,0.1c0,0-0.4,0-0.4,0c-0.3,0-0.5,0-0.8,0c-20.7,29.8-32.8,63-38.2,98.7
		c-1.2,0-2.5,0.1-3.7,0.1c2.5-35.4,16.1-66.9,34.2-96.7c1-1.7,1.8-3.5,2.7-5.2c2.8-0.9,5.6-1.8,8.5-2.8
		C845.9,238,845.2,239.9,844.6,241.9z"/>
	<path fill="#D0EAFB" d="M764.9,792.9c1.3,0.2,2.6,0.4,4,0.6c-1.8,0.2-3.6,0.6-5.4,0.6c-186.6,0-373.2,0-559.8-0.1
		c-2.2,0-4.5-0.6-6.7-0.9c141.4,0,282.9,0,424.3-0.1c2.2,0,4.3-0.1,6.5-0.1c0.8,0,1.5,0,2.3,0c21.6,0,43.2,0,64.8,0
		C718.3,792.9,741.6,792.9,764.9,792.9z"/>
	<path fill="#52A8C6" d="M846.5,236.1c-2.8,0.9-5.6,1.8-8.5,2.8c-19.4,0-38.7,0.1-58.1,0.1c-2.1-5.5,1.8-6.2,5.6-7
		c14.7,0,29.4,0,44,0c9,1.5,16.4-0.3,21.4-9.1c1.4-2.5,4.9-3.7,7.4-5.6c-1.2,2.9-2.1,6.1-3.8,8.7
		C852.3,229.6,849.3,232.7,846.5,236.1z"/>
	<path fill="#DAF3FC" d="M1098.1,604.3c-1,0-2-0.1-3-0.1c-12.3-0.4-23.7,3.1-34.7,8.2c-0.9,0.4-2,0.5-3,0.7c0.2-1,0.3-2.1,0.7-3
		c4.2-10.2,8.5-20.4,12.7-30.6c-2.1,15.8,14.6,9.5,19.9,16.8c2.2,3,5.6,5,8.4,7.5C1098.7,603.9,1098.4,604.1,1098.1,604.3z"/>
	<path fill="#146390" d="M890.1,297c2.2,8.3,4.4,16.6,6.6,24.9c-5.8,0.1-11.5,0.1-17.3,0.2c2-8.6,3.9-17.3,5.9-26
		c0.6-1.7,1.3-3.4,1.9-5C888.2,293,889.1,295,890.1,297z"/>
	<path fill="#D0EAFB" d="M970.1,793.2c20.6-0.1,41.3-0.2,61.9-0.3C1011.3,793.1,990.7,793.1,970.1,793.2z"/>
	<path fill="#153D99" d="M980,282c-0.7-7.7-1.4-15.3-2.1-23c0.7,0,1.5,0,2.2,0C980.1,266.6,980,274.3,980,282L980,282z"/>
	<path fill="#1BE190" d="M1135.8,636.9c-3.3-6.9-6.6-13.8-9.9-20.7C1132.7,621.5,1135.8,628.5,1135.8,636.9z"/>
	<path fill="#DAF3FC" d="M1129.1,706c1.3-5,2.5-10,3.8-15C1131.6,696,1130.4,701,1129.1,706z"/>
	<path fill="#4777E9" d="M1005.7,314.9c0-9.6,0-19.2,0-28.8C1005.8,295.7,1005.8,305.3,1005.7,314.9z"/>
	<path fill="#4777E9" d="M1005.7,281.9c0-4.6,0-9.2,0-13.8C1005.7,272.7,1005.7,277.3,1005.7,281.9z"/>
	<path fill="#6DA0F5" d="M1000.2,258.7c-4.1,0-8.2,0-12.3,0.1C992,258.7,996.1,258.7,1000.2,258.7z"/>
	<path fill="#4777E9" d="M1005.7,352.9c0-3.3,0-6.5,0-9.8C1005.8,346.4,1005.8,349.6,1005.7,352.9z"/>
	<path fill="#4777E9" d="M1005.8,334.9c0-2.6,0-5.2,0-7.8C1005.8,329.7,1005.8,332.3,1005.8,334.9z"/>
	<path fill="#6DA0F5" d="M975.1,258.8c-2.7,0-5.5,0-8.2,0C969.6,258.7,972.4,258.7,975.1,258.8z"/>
	<path fill="#1BE190" d="M1104,605.1c-0.7-0.1-1.3-0.3-2-0.4C1102.7,604.8,1103.3,604.9,1104,605.1z"/>
	<path fill="#D0EAFB" d="M1137.4,639.8c-0.2-0.6-0.4-1.3-0.7-1.9C1136.9,638.6,1137.1,639.2,1137.4,639.8z"/>
	<path fill="#4777E9" d="M1005.7,265.9c0-1.3,0-2.5,0-3.8C1005.7,263.4,1005.7,264.6,1005.7,265.9z"/>
	<path fill="#DAF3FC" d="M918.9,130.8c-1.2-0.1-2.5-0.1-3.7-0.2C916.4,130.6,917.7,130.7,918.9,130.8z"/>
	<path fill="#E08870" d="M489.6,119.9c-0.9-0.4-1.7-0.8-2.6-1.1C487.8,119.2,488.7,119.5,489.6,119.9z"/>
	<path fill="#E08870" d="M492.1,120.9c-0.7-0.4-1.4-0.7-2.1-1.1C490.7,120.2,491.4,120.5,492.1,120.9z"/>
	<path fill="#E08870" d="M494.1,121.9c-0.7-0.4-1.4-0.7-2.1-1.1C492.7,121.2,493.4,121.6,494.1,121.9z"/>
	<path fill="#1BE190" d="M1125.1,614.9c-0.7-0.4-1.3-0.8-2-1.2C1123.7,614.2,1124.4,614.6,1125.1,614.9z"/>
	<path fill="#E08870" d="M486.5,118.9c-0.8-0.3-1.6-0.6-2.4-0.9C484.9,118.2,485.7,118.5,486.5,118.9z"/>
	<path fill="#1BE190" d="M1098.1,604.3c0.3-0.2,0.6-0.4,1-0.6c0.3,0.2,0.6,0.4,0.9,0.6C1099.3,604.3,1098.7,604.3,1098.1,604.3z"/>
	<path fill="#4777E9" d="M928.5,259.2l0.1,0.3c0,0-0.3,0.1-0.3,0.1c0,0-0.1-0.3-0.1-0.3L928.5,259.2z"/>
	<path fill="#6DA0F5" d="M960.9,258.7l-0.4,0.2c0,0-0.4-0.2-0.4-0.2C960.4,258.7,960.6,258.7,960.9,258.7z"/>
	<path fill="#DAF3FC" d="M905,242.8c0,0,0-0.4,0-0.4c0.3,0.2,0.5,0.4,0.8,0.6C905.5,243,905.2,242.9,905,242.8z"/>
	<path fill="#1CC393" d="M1059.1,788.1c0.3-0.1,0.6-0.3,0.9-0.4C1059.7,787.9,1059.4,788.1,1059.1,788.1z"/>
	<path fill="#1CC393" d="M1058,788.8c0.4-0.3,0.7-0.5,1.1-0.8C1058.7,788.3,1058.4,788.6,1058,788.8z"/>
	<path fill="#DAF3FC" d="M129,701.1c-0.5-0.3-0.9-0.6-1.4-0.9C128,700.5,128.5,700.8,129,701.1z"/>
	<path fill="#146390" d="M659.9,170.2c-0.2,0.2-0.5,0.5-0.7,0.7c0,0-0.4,0.1-0.4,0.1c0.2-0.3,0.3-0.6,0.3-0.9
		C659.4,170,659.7,170.1,659.9,170.2z"/>
	<path fill="#DAF3FC" d="M659.1,170.1c0,0.3-0.1,0.6-0.3,0.9c0-0.3-0.1-0.5-0.1-0.8C658.7,170.2,658.9,170.1,659.1,170.1z"/>
	<path fill="#1BE190" d="M1125.9,616c-0.3-0.4-0.6-0.7-0.8-1.1C1125.3,615.3,1125.6,615.7,1125.9,616z"/>
	<path fill="#1A2933" d="M264.8,317c-0.1-25.8-0.2-51.6,0-77.5c0-1.2,2.5-3.5,3.9-3.5c26.7-0.2,53.3,0,80-0.2c5.3,0,4,3.2,4,5.9
		c0,65.1-0.1,130.2-0.2,195.4c0,4,0,7.9-0.1,11.9c-0.1,0.6-0.2,1.2-0.3,1.9c-2.7-6.2-5.4-12.4-8.1-18.7c-0.2-1.7,0-4.5-0.7-4.8
		c-7.7-2.7-15.3-1.9-21.4,3.6c-14.4,12.9-12.5,29.9-10.7,46.7c-2.1,2.2-4.2,4.5-6.2,6.7c-0.7-1.5-1.3-3-2.1-4.5
		c-11-20.4-15-45.5-38.2-57.8c0.1-33.3,0.2-66.6,0.3-99.8c1.4-1.1,2.8-2.2,4.2-3.3C267.6,318.2,266.2,317.6,264.8,317z M302.8,296.5
		c7,0.1,14.1,0.2,21.1,0.3c2.7,0,5.5,0,8.2,0c3.7,0,7.4,0,11.1-0.1c1-1.5,1.9-3,2.9-4.4c-1.6-0.8-3.3-2.2-4.9-2.2
		c-12.4-0.2-24.8-0.2-37.2-0.2c-0.3,0-0.6,0.1-0.9,0.1C300.4,292,299.6,294.1,302.8,296.5z M314.9,327.8c-2.9-0.2-5.9-0.4-8.8-0.6
		c-9.5,0-19-0.2-28.4,0.1c-1.9,0.1-3.8,2.2-5.7,3.4c1.8,1.1,3.6,3.2,5.5,3.2c11.3,0.3,22.6,0.2,33.9,0.2
		C316.3,334,317.3,331.8,314.9,327.8z M343.1,318.2c0.3-0.1,0.6-0.1,0.9-0.2c2.8-4.6,1.9-7-3.8-7c-13.4,0.1-26.8,0.1-40.2,0.2
		c-0.3,0.2-0.6,0.3-0.9,0.5c-0.5,1.4-1.8,3.7-1.5,3.9c1.5,1.1,3.3,2.3,5.1,2.3C316.1,318.2,329.6,318.2,343.1,318.2z"/>
	<path fill="#010361" d="M801.1,340.8c1.2,0,2.5-0.1,3.7-0.1c11.2,1.4,22.9-2.2,33.7,3.4c6.2,5.3,10.9,11.4,11.6,19.9
		c0,0.7,0.1,1.3,0.1,2c0,47.7,0,95.3,0,143c0,0.4,0,0.7,0,1.1c0,0.4-0.1,0.7-0.1,1.1c-0.4,0.2-0.8,0.4-1.1,0.6c-4-0.3-8-0.6-12-0.9
		c0-45.3-0.1-90.6-0.1-135.9c0-6.5-2.8-9.4-9.2-9.4c-147.4,0.1-294.8,0.1-442.2,0.1c-3.7,0-7.5,0-8.6,4.8l-0.3,0.1l0.2,0.2
		c-0.2,42.1-0.3,84.2-0.5,126.4c-0.3,0.2-0.6,0.3-0.9,0.5c-3.9-5.8-7.7-11.7-11.6-17.5c0.1-16.7,0.3-33.4,0.4-50.1c0-2.7,0-5.3,0-8
		c0-11.7,0-23.4,0-35c0.1-7.3,0.1-14.6,0.2-21.9c-0.1-0.3-0.2-0.7-0.4-1c0.2-0.4,0.3-0.7,0.5-1.1c0.1-0.1,0.3-0.3,0.2-0.3
		c-0.1-0.2-0.3-0.4-0.5-0.6c2.2-11.8,8.2-19.8,20.9-21.2c0,0,0.3,0.2,0.3,0.2l0.3-0.2c11.4,0,22.8,0,34.2-0.1c6.2,0,12.5,0,18.7,0.1
		c12.1-0.5,24.2-1.1,36.3-1.6c1,0,2,0,3.1,0c0.5,0.3,1.1,0.6,1.6,0.9c0,0,0.5-0.1,0.5-0.1c0.3,0.2,0.5,0.5,0.8,0.7
		c6.6,0,13.3,0,19.9,0c9.6,0,19.2,0.1,28.9,0.1c5.5,0,11.1-0.1,16.6-0.1c7.2-0.1,14.5-0.2,21.7-0.2c1.6,0.1,3.2,0.1,4.8,0.2
		c31.2,0,62.5,0.1,93.7,0.1c22.5,0.1,45,0.1,67.5,0.2c3-0.1,5.9-0.1,8.9-0.2c0,0,0.4,0.2,0.4,0.2l0.4,0c5.1,0,10.2-0.1,15.3-0.1
		c1,0,1.9,0,2.9,0c0.6,0,1.1,0,1.7,0c5.2-0.1,10.5-0.1,15.7-0.2C786.7,340.7,793.9,340.7,801.1,340.8z M629.3,351.4
		c-2.9-1.7-4.7-3.5-5.8-3.2c-1.7,0.6-3.6,2.4-4.1,4.1c-0.3,0.9,2.5,4,3.2,3.8C624.5,355.5,626.2,353.8,629.3,351.4z"/>
	<path fill="#52A8C6" d="M666.6,340.7c-31.2,0-62.5-0.1-93.7-0.1c-3.7-15.6-7.4-31.2-11.1-46.9c4.7-19.7,9-39.5,14.4-59
		c3.3-11.9,8.7-23.6,23.1-24.5c14.3-0.9,24,8.3,31.6,19.1c13.1,18.6,20.2,40,26.4,61.6c0.3,0.5,0.5,1,0.8,1.5
		c2.5,11.8,5.1,23.7,7.6,35.5C666,332.2,666.3,336.5,666.6,340.7z"/>
	<path fill="#1A2933" d="M546.4,340.7c-5.5,0-11.1,0.1-16.6,0.1c-3.7-13.4,13.9-39.3-20.4-34.9c5.9-22.6,11.9-45.3,17.8-67.9
		c1,1.7,2.1,3.4,3.1,5c0.9,3.4,1.7,6.9,2.9,10.3c6.5,19.7,13.2,39.3,19.8,59C550.8,321.8,548.6,331.2,546.4,340.7z"/>
	<path fill="#1A2933" d="M475,339.2c-12.1,0.5-24.2,1.1-36.3,1.6c0.4-18.9,0.8-37.9,1.2-56.8c0.3-0.2,0.7-0.5,1-0.7
		c4.4,0,8.8,0,13.1,0c2.6,0,5.2,0.1,7.8,0.1c0.4,18.2,0.9,36.5,1.3,54.7c2.9,0.2,5.8,0.4,8.8,0.7C473,338.8,474,339,475,339.2z"/>
	<path fill="#6DA0F5" d="M364.2,387c0,11.7,0,23.4,0,35c0,2.7,0,5.3,0,8c-0.1,16.7-0.3,33.4-0.4,50.1c-3.9-2.4-7.8-4.8-11.6-7.2
		c0-1.3,0.1-2.5,0.1-3.8c0.7-4.6,1.9-9.1,1.9-13.7c0.2-27.2,0.5-54.5-0.1-81.7c-0.2-8.2,2.1-11.2,10-9.6c0.1,0.3,0.2,0.7,0.4,1
		C364.3,372.4,364.3,379.7,364.2,387z"/>
	<path fill="#52A8C6" d="M439.9,283.9c-0.4,18.9-0.8,37.9-1.2,56.8c-6.2,0-12.5,0-18.7-0.1c0.2-15.2,1.6-30.6,0.3-45.7
		c-1.7-19.2,11.8-10,19.6-11.9C439.9,283.4,439.9,283.7,439.9,283.9z"/>
	<path fill="#52A8C6" d="M509.4,305.9c34.3-4.4,16.7,21.5,20.4,34.9c-9.6,0-19.2-0.1-28.9-0.1c0-8.5,0.6-17-0.1-25.4
		C500.3,308.5,501.6,304.6,509.4,305.9z"/>
	<path fill="#99D100" d="M399.7,208.1c-3.7,16.7-14.8,24.6-31.2,22.6c-11.9-1.4-20.3-8.9-22.4-21.7
		C364,208.7,381.9,208.4,399.7,208.1z"/>
	<path fill="#6DA0F5" d="M530.3,243.1c-1-1.7-2.1-3.4-3.1-5c-9.8-15.2-19.7-30.4-29.4-45.7c-1-1.6-1.1-3.8-1.7-5.7
		c2.1,1.1,4.9,1.6,6.1,3.2c23.7,32.4,44.9,66.3,59.6,103.9c3.7,15.6,7.4,31.2,11.1,46.9c-1.6-0.1-3.2-0.1-4.8-0.2
		c-3.4-12.8-6.7-25.6-10.1-38.4C551.7,281,543.3,260.9,530.3,243.1z"/>
	<path fill="#4777E9" d="M264.8,317c1.4,0.6,2.8,1.2,4.2,1.8c-1.4,1.1-2.8,2.2-4.2,3.3c-6,2.3-12,4.5-18.1,6.8
		c-45.9,22.8-71,63.9-93.7,107c-0.3,0.7-0.7,1.4-1,2.1c-0.4-3.1-0.8-6.1-1.2-9.2c0,0,0,0,0,0c0.9-1.7,1.9-3.5,2.8-5.2
		c0-0.2,0.1-0.5,0.2-0.7c0.1-0.1,0.4-0.1,0.4-0.2c0-0.2-0.1-0.5-0.2-0.7c0.1-1,0.2-1.9,0.3-2.9c9.3-13.9,18.5-27.8,27.8-41.7
		c1.8-2.4,3.6-4.9,5.4-7.3c18.1-18.4,35.4-37.7,60.3-47.4C253.5,320.8,259.1,318.9,264.8,317z"/>
	<path fill="#8FB504" d="M399.7,208.1c-17.9,0.3-35.8,0.6-53.6,0.9c0.1-5,0.2-10,0.3-14.9c17.5,0,35,0,52.5,0
		C399.2,198.7,399.5,203.4,399.7,208.1z"/>
	<path fill="#F89F9F" d="M343.9,432.1c2.7,6.2,5.4,12.4,8.1,18.7c0.1,0.4,0.1,0.8,0.2,1.2c-0.3,0.7-0.5,1.3-0.8,2
		c-0.1,1.7-0.2,3.3-0.3,5c-8.9,0.8-11.5,4.9-6.8,12.8c1.3,4.8-0.7,8-5.2,8.8c-6.9,1.3-11.4-1.9-13.1-8.8c0.6-5.5-0.3-11.9,2.2-16.3
		C332.8,447.5,333.2,436.2,343.9,432.1z"/>
	<path fill="#769604" d="M351,186c0.3-0.7,0.7-1.4,1-2.1c0.6-0.6,1.2-1.3,1.8-1.9c0,0,0.2-0.2,0.2-0.2c0.4-0.6,0.8-1.1,1.2-1.7
		c15.8-8.5,29.9-8.5,40.9,7.9C381,187.3,366,186.7,351,186z"/>
	<path fill="#799902" d="M351,186c15,0.7,30,1.3,45,2c0,0,0,0,0,0c0.2,0.3,0.5,0.6,0.7,1c0.7,1.7,1.5,3.4,2.2,5.1
		c-17.5,0-35,0-52.5,0C347.9,191.4,349.5,188.7,351,186z"/>
	<path fill="#06287A" d="M344.2,471.9c-4.7-8-2.1-12.1,6.8-12.8c0.4,3.4,0.8,6.7,1.2,10.1c0,1.3-0.1,2.5-0.1,3.8
		c-0.4,0.2-0.8,0.4-1.2,0.6C348.6,472.9,346.4,472.4,344.2,471.9z"/>
	<path fill="#146390" d="M658.9,214c0.1,11,0.1,21.9,0.2,32.9C659,236,658.9,225,658.9,214z"/>
	<path fill="#D0EAFB" d="M352.3,449c0-4,0-7.9,0.1-11.9C352.3,441,352.3,445,352.3,449z"/>
	<path fill="#D0EAFB" d="M471.9,338.7c-2.9-0.2-5.8-0.4-8.8-0.7C466.1,338.2,469,338.4,471.9,338.7z"/>
	<path fill="#153D99" d="M461.9,283.3c-2.6,0-5.2-0.1-7.8-0.1C456.7,283.3,459.3,283.3,461.9,283.3z"/>
	<path fill="#E08870" d="M492,185.8c0.7-0.5,1.5-1,2.2-1.5C493.5,184.8,492.8,185.3,492,185.8z"/>
	<path fill="#D0EAFB" d="M351.3,454c0.3-0.7,0.5-1.3,0.8-2C351.8,452.7,351.6,453.3,351.3,454z"/>
	<path fill="#D0EAFB" d="M353.8,181.9c-0.6,0.6-1.2,1.3-1.8,1.9C352.6,183.2,353.2,182.6,353.8,181.9z"/>
	<path fill="#D0EAFB" d="M355.1,180.1c-0.4,0.6-0.8,1.1-1.2,1.7C354.3,181.2,354.7,180.6,355.1,180.1z"/>
	<path fill="#D0EAFB" d="M658.1,292.5c-0.3-0.5-0.5-1-0.8-1.5c0.4,0,0.8,0,1.3,0C658.4,291.5,658.2,292,658.1,292.5z"/>
	<path fill="#06287A" d="M479.7,340.1c-0.5-0.3-1.1-0.6-1.6-0.9c-0.2-0.1-0.2-0.3-0.1-0.5c0.3,0,0.7,0,1,0
		C479.2,339.2,479.5,339.6,479.7,340.1z"/>
	<path fill="#D0EAFB" d="M479,338.7c-0.3,0-0.7,0-1,0C478.3,338.7,478.6,338.7,479,338.7z"/>
	<path fill="#153D99" d="M439.9,283.9c0-0.3,0-0.5-0.1-0.8c0.4,0,0.7,0.1,1.1,0.1C440.6,283.5,440.3,283.7,439.9,283.9z"/>
	<path fill="#6DA0F5" d="M385.8,340.8l-0.3,0.2c0,0-0.3-0.2-0.3-0.2C385.4,340.8,385.6,340.8,385.8,340.8z"/>
	<path fill="#1C919D" d="M396.7,188.9c-0.2-0.3-0.5-0.6-0.7-1C396.2,188.3,396.5,188.6,396.7,188.9z"/>
	<path fill="#E08870" d="M488.1,187.9c0.3-0.3,0.6-0.5,0.9-0.8C488.7,187.4,488.4,187.6,488.1,187.9z"/>
	<path fill="#D0EAFB" d="M481,340.7c-0.3-0.2-0.5-0.5-0.8-0.7C480.4,340.2,480.7,340.4,481,340.7z"/>
	<path fill="#06287A" d="M364.3,362c0.2,0.2,0.3,0.4,0.5,0.6c0,0.1-0.2,0.2-0.2,0.3C364.4,362.7,364.4,362.3,364.3,362z"/>
	<path fill="#99D100" d="M236,728.1c-30.7-15.6-61.5-31-96.7-34.1c-0.4-9.4-0.7-18.7-1.1-28.1c0.2-0.3,0.5-0.7,0.7-1
		c0.4-1,0.9-2,1.3-3c0.2-0.4,0.4-0.8,0.7-1.2c1.1-2.2,2.3-4.5,3.4-6.7c0.5-0.4,1.1-0.8,1.6-1.2c1-0.9,1.9-1.9,2.9-2.8
		c0.4-0.3,0.8-0.7,1.2-1c0.3-0.3,0.7-0.6,1-0.9c0.3-0.3,0.7-0.6,1-0.8c0.7-0.7,1.4-1.4,2.2-2.1c2.9-1.4,5.9-2.8,8.8-4.1l0.3-0.2
		l0.3,0c0.8-0.3,1.6-0.6,2.4-0.9l0.3-0.1l0.3,0.1c9.5-1.3,19-2.6,28.5-3.9c1,0,2,0.1,2.9,0.1c7.3,1,14.7,1.9,22,2.9c0,0,0,0,0,0
		c2.4,0.6,4.8,1.3,7.3,1.9c0.6,0.1,1.1,0.2,1.7,0.2c0.6,0.3,1.3,0.6,1.9,0.9l0.1,0c0.7,0.3,1.4,0.6,2.1,0.9c0-1.3,0-2.7,0-4l0,0
		c-0.3-0.7-0.7-1.3-1-2l0,0c-1.3-2.4-2.6-4.7-3.9-7.1l0,0c-1.3-3-2.7-5.9-4-8.9c0,0,0,0,0,0c-1.9-5.1-3.9-10.2-5.8-15.3
		c0-0.2,0-0.5-0.2-0.7c-1.4-9-2.8-18-4.2-26.9c0.1-21.4,16.6-33.4,37-26.8c0.4,0.3,0.7,0.5,1.1,0.8c0.3,0,0.6,0.1,0.9,0.2
		c1.6,5,5.1,10.2,4.7,15.1c-3.1,34.3-1.2,68.4,2.9,102.5c0.7,6,3.7,14.4-6.8,16.4c-0.3,0.1-0.5,0-0.8-0.2c-0.7-0.3-1.4-0.6-2.1-0.8
		c0,0,0,0,0,0c-1.1-0.3-2.2-0.7-3.4-1c-0.2,0.1-0.4,0.1-0.5,0c-1.1-0.3-2.1-0.7-3.2-1l0.1,0c-4.6-0.8-9.2-1.6-13.8-2.4
		c-0.7,0-1.4,0-2.1-0.1c-1.3-0.3-2.7-0.5-4-0.8c-3.9,0.3-7.8,0.6-11.7,0.9c2.9,1.7,5.8,3.3,8.7,5c1.1,0.3,2.3,0.7,3.4,1l0.3-0.1
		c0,0,0.3,0.1,0.3,0.1c1.1,0.3,2.2,0.7,3.4,1c0,0,0.3,0,0.3,0l0.3,0.2c0.7,0.3,1.4,0.6,2.1,0.9c0,0,0,0,0,0c2.1,0.7,4.2,1.4,6.3,2
		c0,0,0.3-0.1,0.3-0.1s0.3,0.2,0.3,0.2c0.8,0.3,1.5,0.6,2.3,0.9c0,0,0.4,0,0.4,0l0.3,0.2C239.3,704,237.6,716.1,236,728.1z"/>
	<path fill="#6DA0F5" d="M150.8,428.8c0.4,3.1,0.8,6.1,1.2,9.2c-13.9,34-23.3,68.9-22.1,106.1c-0.1,0.1-0.3,0.2-0.3,0.3
		c0.1,0.2,0.2,0.4,0.3,0.6c0.4,3.7,0.8,7.3,1.2,11c-1.6,0-3.1,0.1-4.7,0.1C120.8,511,131.4,469.1,150.8,428.8z"/>
	<path fill="#6DA0F5" d="M182.1,377.4c-9.3,13.9-18.5,27.8-27.8,41.7c-0.1-13.1-3.6-27.5,0.8-38.9
		C158.2,372.1,172.8,378.4,182.1,377.4z"/>
	<path fill="#4777E9" d="M126.4,556c1.6,0,3.1-0.1,4.7-0.1c3.3,20.4,8.5,40.1,22.9,56c2.7,3.4,5.4,6.8,8,10.1
		c-0.3,0.7-0.6,1.4-0.9,2.1c0,0.3-0.1,0.6-0.3,0.9c-2.2-1-4.4-2.1-6.6-3.1C138.3,602.8,128.8,580.9,126.4,556z"/>
	<path fill="#6DA0F5" d="M154.3,621.9c2.2,1,4.4,2.1,6.6,3.1c0,2.7,0,5.3,0,8c-0.1,0.1-0.3,0.2-0.3,0.3c0,0.2,0.2,0.5,0.3,0.7
		c0,1.7-0.1,3.3-0.1,5c-0.2,0.7-0.5,1.4-0.7,2.2c-1.9,0.8-3.9,1.5-5.8,2.3C154.3,636.3,154.3,629.1,154.3,621.9z"/>
	<path fill="#1BE190" d="M154.3,643.4c1.9-0.8,3.9-1.5,5.8-2.3c0.3,0,0.6-0.2,0.8-0.4c0.7,0,1.4,0.1,2.1,0.1
		c-2.9,1.4-5.9,2.8-8.8,4.1C154.2,644.5,154.3,644,154.3,643.4z"/>
	<path fill="#6DA0F5" d="M153.6,423.6c-0.9,1.7-1.9,3.5-2.8,5.2C151.7,427.1,152.7,425.3,153.6,423.6z"/>
	<path fill="#1BE190" d="M145.9,652.8c-0.5,0.4-1.1,0.8-1.6,1.2C144.8,653.6,145.4,653.2,145.9,652.8z"/>
	<path fill="#1BE190" d="M140.9,660.7c-0.2,0.4-0.4,0.8-0.7,1.2C140.4,661.5,140.7,661.1,140.9,660.7z"/>
	<path fill="#1BE190" d="M150,648.9c-0.4,0.3-0.8,0.7-1.2,1C149.2,649.6,149.6,649.2,150,648.9z"/>
	<path fill="#1BE190" d="M152,647.2c-0.3,0.3-0.7,0.6-1,0.8C151.3,647.7,151.7,647.4,152,647.2z"/>
	<path fill="#6DA0F5" d="M154.1,422c0.1,0.2,0.2,0.5,0.2,0.7c0,0.1-0.2,0.1-0.4,0.2C153.8,422.6,153.9,422.3,154.1,422z"/>
	<path fill="#1BE190" d="M138.9,664.9c-0.2,0.3-0.5,0.7-0.7,1C138.5,665.6,138.7,665.2,138.9,664.9z"/>
	<path fill="#153D99" d="M945.8,496.1c5.7-24.7,11.4-49.4,17.2-74.1c1.9-4.4,3.8-8.7,5.7-13.1c1.9,4.9,3.8,9.9,5.8,14.8
		c0.5,1.3,1.4,2.5,2.1,3.7c0.5-1.2,0.8-2.5,1.4-3.7c0.4-0.9,1.2-1.6,1.8-2.4c0.4,1.5,1.1,3,1.1,4.5c-0.4,33.5,16,62.7,24,94
		c0.4,0.7,0.7,1.4,1.1,2.1c0.3-1,0.6-2,0.9-3c11.2-15.4,22.1-31.2,37.5-42.9c3.1-2.3,7.1-3.3,10.7-5c-0.4,3.9,0.5,8.7-1.4,11.6
		c-15.5,24-31.6,47.6-47.1,71.7c-1.8,2.8-0.9,7.4-1.2,11.2c2.2-2,4.5-4,6.7-6.1c10.7-10.7,21.2-21.6,32-32.1c4.4-4.3,4.8-3.9,7,8.6
		c-0.1,0.3-0.1,0.6-0.2,0.9c0,0,0,0,0,0c-0.8,0.6-1.6,1.3-2.3,1.9c-28.7,25.2-48.2,57.3-66.6,90.1c0.9-7.9,2.3-15.8,2.6-23.7
		c0.2-7.3,4-17-3.7-21.2c-7.5-4-11.7,5.1-15.9,9.8c-9.2,10.2-17.3,21.3-25.9,32.1c-0.7,0.8-1.4,1.6-2.2,2.4c0-1.2-0.3-2.5,0.1-3.5
		c6.7-19.1,13.5-38.1,20-57.3c1.7-4.9,3.1-11.1-1.9-14.1c-2.1-1.3-7.4,2.8-11.3,4.5c-1.7-8.3-3.3-16.7-5-25c0-1.9,0-3.9,0-5.8
		C941.2,516.8,943.5,506.5,945.8,496.1z"/>
	<path fill="#4777E9" d="M1005.7,492.9c0-4.6,0-9.2,0-13.8C1005.7,483.7,1005.7,488.3,1005.7,492.9z"/>
	<path fill="#6DA0F5" d="M1006.9,519.1c-0.3,1-0.6,2-0.9,3c-0.4-0.7-0.7-1.4-1.1-2.1c0.4-0.6,0.7-1.3,1.1-1.9
		C1006.3,518.4,1006.6,518.7,1006.9,519.1z"/>
	<path fill="#4777E9" d="M1005.8,451.9c0-1.6,0-3.2,0-4.8C1005.8,448.7,1005.8,450.3,1005.8,451.9z"/>
	<path fill="#6DA0F5" d="M1076.4,544.5c-0.3-0.8-0.5-1.5-0.8-2.3C1075.9,543,1076.1,543.8,1076.4,544.5z"/>
	<path fill="#6DA0F5" d="M1005.7,512c0-0.7,0-1.3,0-2C1005.7,510.7,1005.7,511.3,1005.7,512z"/>
	<polygon fill="#6DA0F5" points="1076.1,557.5 1076.2,557.4 1076.4,557.5 	"/>
	<path fill="#6DA0F5" d="M1005.7,504c-0.1-0.2-0.2-0.5-0.2-0.7c0-0.1,0.2-0.2,0.3-0.3C1005.8,503.3,1005.7,503.7,1005.7,504z"/>
	<path fill="#146390" d="M943.9,557.9c3.8-1.7,9.1-5.7,11.3-4.5c5,2.9,3.5,9.2,1.9,14.1c-6.5,19.1-13.4,38.2-20,57.3
		c-0.4,1.1-0.1,2.3-0.1,3.5c0.7-0.8,1.5-1.6,2.2-2.4c8.6-10.7,16.7-21.8,25.9-32.1c4.2-4.6,8.4-13.8,15.9-9.8
		c7.7,4.2,3.9,13.8,3.7,21.2c-0.3,7.9-1.7,15.8-2.6,23.7c-1.7,3.6-3.4,7.3-5.2,10.9c-2.9,4.7-5.9,9.4-8.8,14.1
		c0.3-11.3,0.7-22.6,0.9-33.9c0.1-2.7-0.5-5.4-0.7-8.2c-0.4,2.6-0.9,5.2-1.2,7.8c-1.1,10.2-2,20.4-3.1,30.7
		c-0.2,1.6-0.9,3.1-1.4,4.6c-0.8-1.4-1.9-2.6-2.4-4.1c-2.3-6.8-4.4-13.7-6.6-20.6c1.8,8.2,3.5,16.3,5.5,24.4c1,4.1,2.6,8.1,3.9,12.2
		c-3.6,7.7-7.2,15.5-10.8,23.2c-3.9,4-8,7.8-11.6,12.1c-2.7,3.3-4.8,7.2-7.1,10.9c2.9-2.9,5.8-5.9,8.8-8.8c2.2-2.1,4.5-4.2,6.7-6.3
		c-4.3,12.1-8.5,24.2-12.8,36.3c-7.6,0.1-15.2,0.3-22.8,0.4c-0.1-3.1-0.2-6.1-0.3-9.2c-0.3-12.5-0.6-24.9-0.9-37.4
		c0.1-0.1,0.3-0.2,0.3-0.3c-0.1-0.2-0.2-0.5-0.3-0.7c0.2-3.2,0.4-6.3,0.7-9.5c8,1.5,15.9,3.1,23.9,4.3c2.7,0.4,5.6-0.5,8.3-0.8
		c-2.5-0.6-5-1.2-7.5-1.7c-8.2-1.8-16.4-3.5-24.7-5.3c0.8-6.3,1.6-12.6,2.4-18.9c2.1-2,4.3-3.9,6.4-5.9c-1.9,0.2-3.7,0.5-5.6,0.7
		c2.5-23.1,18.4-44.9,6.8-69.4c-1.6-7-3.1-13.9-4.7-20.9c3.7,0.8,7.4,1.6,11,2.3c1.4,1.9,2.8,3.8,4.2,5.7c0.8-1.9,1.6-3.7,2.4-5.6
		C938.5,560.8,941.2,559.4,943.9,557.9z M925,646c-0.3,0.1-0.6,0.1-1,0.2c0.1,0.2,0.2,0.3,0.2,0.5C924.5,646.4,924.8,646.2,925,646
		c0-0.1,0.1-0.2,0.2-0.3C925.1,645.8,925.1,645.9,925,646z"/>
	<path fill="#D0EAFB" d="M913.3,734.6c7.6-0.1,15.2-0.3,22.8-0.4c16,0.1,32,0.2,48,0.2c17.3-1.6,20.2,6.9,14.8,21.2
		c-4.7,1-9.3,1.9-13.9,2.9c-43.2,0.2-86.3,0.4-129.5,0.5c-2.8,0.1-5.7,0.2-8.5,0.2c-1-0.1-2-0.1-3-0.2c-3.6-0.2-7.3-0.3-10.9-0.5
		c-5.7-0.1-11.4-0.2-17.1-0.3c-0.6-0.1-1.2-0.2-1.8-0.2c-4.3-4.7-9.5-6.8-15.8-5.8c-0.1-0.2-0.3-0.3-0.5-0.4
		c-0.3-0.3-0.5-0.6-0.8-0.9c0.1-5.4,0.2-10.8,0.2-16.1c0.6-0.2,1.2-0.4,1.7-0.6c18-0.1,36-0.2,54-0.2c8,0.3,15.9,0.5,23.9,0.8
		c0.6,0.1,1.3,0.2,1.9,0.3c6,11.8-8.5,6.2-9.9,11.7c-2.5,1.9-5,3.8-7.5,5.7c1.5,0.4,3.1,0.9,4.6,1.3c0.3-0.1,0.6-0.1,1-0.2
		c1,0.1,2,0.1,3,0.2c0.3,0,0.7,0,1,0.1c4.7,0,9.3,0,14-0.1c0.7,0.1,1.3,0.1,2,0.2c4.5,0.2,8.9,0.4,13.4,0.5c2.8,0.1,5.6,0.1,8.4,0.1
		c8.6,0.1,9.2-0.9,5.3-7.6C913.8,742.7,913.5,738.7,913.3,734.6z"/>
	<path fill="#769604" d="M984.1,734.4c-16-0.1-32-0.2-48-0.2c4.3-12.1,8.5-24.2,12.8-36.3c1.1-2.6,2.2-5.3,3.2-7.9
		c3.6-7.7,7.2-15.5,10.8-23.2c1.4-3.6,2.8-7.2,4.2-10.8c0.3-0.4,0.5-0.7,0.8-1.1c0-0.3,0.1-0.6,0.1-0.9c2.9-4.7,5.9-9.4,8.8-14.1
		C985.1,670.9,990.1,702.2,984.1,734.4z"/>
	<path fill="#769604" d="M985,758.4c4.6-1,9.3-1.9,13.9-2.9c-0.7,9.9,0.6,20.4-2.4,29.5c-4.8,14.6-18.3,3.8-27.4,6.9
		c-20.3-11-41.8-18.9-64-25c-0.1-0.3-0.1-0.6-0.1-0.9C931.9,765.7,959,767.7,985,758.4z"/>
	<path fill="#1A2933" d="M1070.4,654.2c0.9-0.3,1.8-0.7,2.7-1c1.6,0,3.2,0.1,4.8,0.1c0,0-0.1,0-0.1,0c0,0.3,0.1,0.6,0.3,0.8
		c0,0.7,0.1,1.3,0.1,2c-0.1,0.3-0.1,0.6-0.2,1c-7.3,5.6-14.7,11.2-22,16.8c-1,0.7-2.1,1.4-3.1,2.1c-0.3,0.3-0.6,0.7-0.8,1
		c-17.4,13.6-31.4,30.5-45,47.7c-3,3.8-7.1,6.9-11.4,3.1c-4.1-3.6-1-7.9,1.7-11.4c16.9-22.2,37.8-39.9,61-55.1
		c2.9-1.7,5.8-3.4,8.7-5.2c0.5-0.3,0.9-0.6,1.4-0.9c0.2,0,0.4,0,0.6-0.2C1069.5,654.7,1069.9,654.5,1070.4,654.2z"/>
	<path fill="#1BE190" d="M1048.6,538.9c0.8-0.6,1.6-1.3,2.3-1.9C1050.2,537.6,1049.4,538.3,1048.6,538.9z"/>
	<path fill="#8FB504" d="M236,728.1c1.7-12,3.4-24.1,5-36.1c14,6.6,28,13.3,42,19.9c0.6,0.4,1.3,0.7,1.9,1.1l0,0
		c0.4,0.3,0.7,0.6,1.1,0.9l0,0c0.7,0.4,1.3,0.7,2,1.1l0,0c0.4,0.3,0.7,0.6,1.1,0.9l0-0.1c0.7,0.3,1.3,0.7,2,1l0,0
		c7.5,16.7-4.4,16.4-15.1,17.1c-3.4,0.3-6.7,0.5-10.1,0.8c-7.3-0.2-14.5-0.3-21.8-0.5C241.4,732.2,238.7,730.2,236,728.1z"/>
	<path fill="#1A2933" d="M130.7,734.7c21.9,3.3,42.4,8.5,60.8,19.8c1.7,1,2,4.2,3,6.4c-2.3,0.6-5.2,2.5-6.7,1.8
		c-19.1-10-38.4-19.4-59.7-24c-0.7-0.2-1.1-1.7-1.7-2.6C128.1,735.6,129.7,735.1,130.7,734.7z"/>
	<path fill="#D0EAFB" d="M236,753c0.3,0.4,0.6,0.8,0.9,1.2C236.6,753.8,236.3,753.4,236,753z"/>
	<path fill="#D0EAFB" d="M236.8,754.1c0.4,0.3,0.8,0.6,1.1,0.9C237.6,754.8,237.2,754.5,236.8,754.1z"/>
	<path fill="#153D99" d="M980.9,352.5c0,19.3,0,38.7-0.1,58c0,1.4-1,2.7-1.5,4.1c-0.4-1.3-1.3-2.6-1.3-3.9
		c-0.1-38.8-0.1-77.6,0-116.5c0-1.3,0.8-2.6,1.3-3.9c0.5,1.4,1.5,2.8,1.5,4.1C981,313.8,980.9,333.2,980.9,352.5z"/>
	<path fill="#4777E9" d="M980,282c1.8,0,3.7-0.2,5.5,0c5.4,0.4,10.9,0.9,16.3,1.4c-0.1,1-0.1,2.7-0.3,2.7
		c-6.9,0.4-13.8,0.7-20.6,0.6C980.6,286.7,980.3,283.6,980,282C980,282,980,282,980,282z"/>
	<path fill="#1CC393" d="M1077.9,653.2c-1.6,0-3.2-0.1-4.8-0.1C1074.7,653.2,1076.3,653.2,1077.9,653.2z"/>
	<path fill="#1CC393" d="M1052.8,675.9c1-0.7,2.1-1.4,3.1-2.1C1054.9,674.5,1053.8,675.2,1052.8,675.9z"/>
	<path fill="#1CC393" d="M1077.9,657c0.1-0.3,0.1-0.6,0.2-1c0.1,0.2,0.2,0.5,0.2,0.7C1078.3,656.8,1078.1,656.9,1077.9,657z"/>
	<path fill="#1CC393" d="M1068.4,655.2c-0.5,0.3-0.9,0.6-1.4,0.9C1067.5,655.8,1067.9,655.5,1068.4,655.2z"/>
	<path fill="#1CC393" d="M1070.4,654.2c-0.5,0.3-0.9,0.6-1.4,0.8C1069.5,654.7,1069.9,654.5,1070.4,654.2z"/>
	<path fill="#1CC393" d="M1078,654c-0.2-0.2-0.3-0.5-0.3-0.8c0.2,0.2,0.4,0.3,0.6,0.5C1078.2,653.8,1078.1,653.9,1078,654z"/>
	<path fill="#D0EAFB" d="M216.9,281.2c7.9,3.8,22.7-3.8,22.6,4.1c-0.1,8.2-14.7,3.1-22.7,3.1c-7.8,0-22,5.1-22.3-3.2
		C194.4,277.9,209.3,284.9,216.9,281.2z"/>
	<path fill="#D0EAFB" d="M217,305.6c-7.8-3.7-22.1,4.2-22.4-4.2c-0.3-7.3,14.6-3,22.5-3c7.9,0,23.3-3.5,22.5,2.6
		C238.4,310.3,224.7,301.7,217,305.6z"/>
	<path fill="#D0EAFB" d="M217.4,266.2c7.6,3.6,20.5-4.7,22.2,4.2c1,5.2-14.4,2.3-22.1,2.2c-8,0-16.9,4.2-24.2-2.7
		C200.5,262.6,209.5,269.5,217.4,266.2z"/>
	<path fill="#6DA0F5" d="M253.5,758.4c4.2-0.4,8.3-0.7,12.5-1.1c9.7,0.2,19.3,0.3,29,0.5c2.3,0.1,4.6,0.2,7,0.2
		c149.7,0,299.4,0,449.1,0.1c0.4,1,0.8,2.1,1.1,3.1c-7.4,0.9-14.8,1.7-22.2,2.6c-11.3,1.2-22.7,2.4-34,3.5c-1.1-0.1-2.2-0.1-3.3-0.2
		c-1.2,0.1-2.3,0.1-3.5,0.2c-33.4,0.2-66.8,0.5-100.2,0.7c-48.4-0.5-96.8-1-145.2-1.5c-31.3-0.4-62.5-0.9-93.8-1.3
		c-30.8-2.5-61.9,1.7-92.4-5C256.2,759.7,254.9,758.9,253.5,758.4z"/>
	<path fill="#1A2933" d="M350.1,765c31.3,0.4,62.5,0.9,93.8,1.3c-1,15.6-3.2,29-25,26c-14.2-1.9-29.1-1.7-43.3,0
		C353.3,795,347.1,784.7,350.1,765z"/>
	<path fill="#769604" d="M589,767.9c33.4-0.2,66.8-0.5,100.2-0.7c0.2,0.3,0.4,0.5,0.7,0.6c-19.9,8.4-39.9,16.7-59.8,25.1
		c-0.8,0-1.5,0-2.3,0c-17.4-0.3-34.9-0.5-52.3-0.9c-1.4,0-2.8-0.6-4.1-1c0.5-1.1,0.8-3.1,1.6-3.3C583.1,784.9,580.4,771.8,589,767.9
		z"/>
	<path fill="#D0EAFB" d="M247.5,757.3c2.1,0.1,4.2,0.2,6.2,0.3c-0.5,0.3-1,0.6-1.6,0.9c-0.4,0.1-0.8,0.2-1.1,0.3
		C249.9,758.2,248.7,757.7,247.5,757.3z"/>
	<path fill="#6DA0F5" d="M251,758.7c0.4-0.1,0.8-0.2,1.1-0.3C251.8,758.5,251.4,758.6,251,758.7z"/>
	<path fill="#2F62D1" d="M696.7,182.2c0,3.6,0,7.2,0,10.8c-0.4,4.4-0.8,8.7-1.2,13.1c-11.8-4.9-9.7,10-10.6,11.6
		c-9.3,17,8.3,3,10.7,8.1c-0.6,13.3,6.4,33.7-19.7,25.7c-13.5-4.1-3.4-16.9-4.9-25.6c3.3-0.1,7.1,0.9,7-4.7c-0.2-5.5-4-3.9-7-4.2
		c0-0.4,0-0.7,0-1.1c3.5,0,7.1,0.7,7-4.9c-0.1-6-4.3-3.4-7.1-4c0-1,0-2,0-3c9.8,1.2,6.4-6.1,6.9-10.8c0.7,0,1.4,0,2.2,0
		c1.5,3.2-3.5,8.8,3.5,9.6c1,0.1,2.9-2.6,3.3-4.3c1.2-4.9-1.8-5.9-5.8-5.4C678.9,178.6,688.4,181.3,696.7,182.2z M689.1,210.7
		c-2.8-2.2-4.3-3.4-5.9-4.6c-1.1,1.4-3.1,2.8-3,4.2c0.1,1.9,1.7,3.7,2.6,5.6C684.5,214.5,686.2,213.1,689.1,210.7z M690.6,237.9
		c-4.9-6-6-7.4-7.2-8.7c-1.1,1.8-2.9,3.5-3.2,5.4c-0.2,1.3,1.6,3.9,2.8,4.2C685.2,239.2,687.7,238.3,690.6,237.9z"/>
	<path fill="#52A8C6" d="M689.3,280.9c-11.4,0.3-19.8-2.9-17.5-12.1c1.3-5.3,10.9-12.2,16.4-11.9c9,0.6,17.7,6.5,26.5,10.1
		C707,275,693.5,271.3,689.3,280.9z"/>
	<path fill="#4777E9" d="M695.7,225.9c-2.4-5.1-20,9-10.7-8.1c0.9-1.6-1.3-16.6,10.6-11.6c0,3.2,0,6.5,0,9.7
		c0.1,0.7,0.1,1.5,0.1,2.2C695.7,220.7,695.7,223.3,695.7,225.9z"/>
	<path fill="#2F62D1" d="M714,229c-0.3,4.1-0.6,8.1-0.9,12.2c-2-0.8-5.5-1.4-5.7-2.5c-0.6-3.3,0.1-6.8,0.3-10.2
		C709.8,228.7,711.9,228.9,714,229z"/>
	<path fill="#4777E9" d="M677.9,193.2c-0.5,4.8,2.8,12-6.9,10.8C669.4,197.9,667.3,191.5,677.9,193.2z"/>
	<path fill="#2F62D1" d="M705.5,232.7c-1.1,3.6,1,7.5-3.7,7.2c-4.8-0.3-2.7-4.3-2.7-6.6c0.1-1.8,1.9-3.6,2.9-5.3
		C703.5,229.8,704.8,231.6,705.5,232.7z"/>
	<path fill="#4777E9" d="M681,193c4.1-0.4,7.1,0.6,5.8,5.4c-0.4,1.7-2.3,4.4-3.3,4.3c-7-0.8-2-6.4-3.5-9.6
		C680.4,193.1,680.7,193,681,193z"/>
	<path fill="#2F62D1" d="M713.7,203.2c0,2.9,0.1,5.7,0.1,8.6c-2.9-0.2-6.7,1.9-6.8-3.9C706.9,202.5,710.1,202.8,713.7,203.2z"/>
	<path fill="#4777E9" d="M671,207c2.7,0.6,7-2,7.1,4c0.1,5.7-3.5,5-7,4.9C671.1,213,671,210,671,207z"/>
	<path fill="#4777E9" d="M671.1,217c3,0.3,6.8-1.3,7,4.2c0.2,5.7-3.7,4.6-7,4.7C671.1,223,671.1,220,671.1,217z"/>
	<path fill="#2F62D1" d="M713.8,216.2c0,2.9,0,5.8,0,8.7c-4.6,0.9-6.9-1-6.7-5.7C707.4,213.9,711.4,216.8,713.8,216.2z"/>
	<path fill="#2F62D1" d="M708.1,190.1c9.3-1.1,4.9,5.8,5.6,9.7C705.2,200.4,708.8,194,708.1,190.1z"/>
	<path fill="#2F62D1" d="M699.8,192.9c2-0.9,4-1.8,6-2.7c-1.3,3.2-2.5,6.4-3.8,9.6C701.3,197.5,700.5,195.2,699.8,192.9z"/>
	<path fill="#2F62D1" d="M708.1,204.4c-3.5,4.8-4.4,6.1-5.4,7.5c-0.9-1.4-2.4-2.8-2.5-4.2c-0.1-1.5,1-4,2.1-4.4
		C704,202.9,706,204,708.1,204.4z"/>
	<path fill="#2F62D1" d="M698.8,220.7c1.5-1.9,2.5-3.3,3.5-4.6c0.9,1.2,2.6,2.6,2.4,3.7c-0.2,1.7-1.6,3.3-2.5,4.9
		C701.2,223.6,700.2,222.4,698.8,220.7z"/>
	<path fill="#2F62D1" d="M695.8,218.1c0-0.7-0.1-1.5-0.1-2.2C695.7,216.6,695.7,217.4,695.8,218.1z"/>
	<path fill="#8FB504" d="M696,767.3c11.3-1.2,22.7-2.4,34-3.5c-0.3,2.7-0.5,5.3-1,8c-4.2,26.8,15.2,19.7,29.2,20.3
		c2.3,0.1,4.5,0.6,6.7,0.8c-23.3,0-46.7,0-70,0C671.3,783.3,697.4,775.9,696,767.3z"/>
	<path fill="#6DA0F5" d="M985,758.4c-26,9.3-53.1,7.3-79.9,7.6c-9-1.2-18-2.3-27-3.5c-0.8-0.1-1.5-0.1-2.3-0.2
		c-5.6-0.6-11.1-1.2-16.7-1.8c-1.1-0.1-2.2-0.2-3.3-0.2c-0.1-0.5-0.2-0.9-0.3-1.4C898.6,758.8,941.8,758.6,985,758.4z"/>
	<path fill="#010361" d="M798.3,752.3c6.3-1,11.6,1,15.8,5.8c-0.1,0.3-0.2,0.6-0.3,0.9c-0.3,0-0.6,0.1-0.9,0.2
		c-8.7-0.3-17.4-0.7-26.1-1c1-1.9,1.9-3.7,2.9-5.6C792.6,752.4,795.5,752.4,798.3,752.3z"/>
	<path fill="#010361" d="M752.1,761.1c-0.4-1-0.8-2.1-1.1-3.1c0.9-0.7,1.8-1.4,2.7-2.1c2.6,0,5.2-0.1,7.8-0.1
		c4.8,1.3,10.8-2.3,14.7,3.2c-5.1,0.6-10.2,1.3-15.4,1.9C758,761,755.1,761.1,752.1,761.1z"/>
	<path fill="#1BE190" d="M760.9,760.9c5.1-0.6,10.2-1.3,15.4-1.9c3.5-0.3,7.1-0.6,10.6-0.9c8.7,0.3,17.4,0.7,26.1,1
		C795.6,759.7,778.2,760.3,760.9,760.9z"/>
	<path fill="#1BE190" d="M878,762.6c9,1.2,18,2.3,27,3.5c0,0.3,0,0.6,0.1,0.9C896.1,765.5,887.1,764,878,762.6z"/>
	<path fill="#1BE190" d="M859.1,760.5c5.6,0.6,11.1,1.2,16.7,1.8C870.2,761.8,864.7,761.2,859.1,760.5z"/>
	<path fill="#1BE190" d="M855.5,758.9c0.1,0.5,0.2,0.9,0.3,1.4c-2.9-0.4-5.9-0.7-8.8-1.1C849.8,759.1,852.6,759,855.5,758.9z"/>
	<path fill="#1BE190" d="M833,758.6c3.6,0.2,7.3,0.3,10.9,0.5C840.3,758.9,836.6,758.7,833,758.6z"/>
	<path fill="#1BE190" d="M813.9,758.9c0.1-0.3,0.2-0.6,0.3-0.9c0.6,0.1,1.2,0.2,1.8,0.2C815.3,758.5,814.6,758.7,813.9,758.9z"/>
	<path fill="#146390" d="M903.2,343.9c7.9-0.1,15.9-0.1,23.8-0.2c0.3,0.1,0.6,0.2,1,0.3c0.7,0.1,1.5,0.2,2.2,0.3
		c-12.3,11-24.6,22-36.8,33.2c-3.7,3.4-6.9,7.3-10.3,11c4.4,0.2,8.9,0.4,13.3,0.4c13.5,0,26.9-0.1,40.4-0.2c0,1.4,0,2.9,0,4.3
		c-13.7,12.4-27.3,24.8-40.9,37.3c0,0,0.8,1.5,1.4,1.8c10.7,4.4,12.6,14.1,14.7,23.7c-8.5-1.5-16.3-1.6-19,9.1
		c0.7,2.4,1.3,4.7,2,7.1c-3.8,9.8,1.1,17.9,5,26.2c-0.4,0.3-0.9,0.6-1.3,0.9c-4.3,1.6-8.5,3.2-12.8,4.8c-5.8-16.3-8.1-32.8-17.9-49
		c-8.3-13.8-1.3-37-1-56c3.4-3,6.8-5.9,10.1-8.9c-3.4-0.3-6.7-0.7-10.1-1c2.2-15.1,4.5-30.2,6.7-45.3c0-0.3,0.1-0.6,0.4-0.9
		C883.9,343.2,893.5,343.6,903.2,343.9z"/>
	<path fill="#769604" d="M912,456c-2.1-9.6-4-19.4-14.7-23.7c-0.6-0.3-1.5-1.7-1.4-1.8c13.6-12.5,27.2-24.9,40.9-37.3
		c0,17.6-0.1,35.1-0.1,52.7c-4.5,4.1-9.1,8.2-13.6,12.3C919.4,457.4,915.7,456.7,912,456z"/>
	<path fill="#010361" d="M912,456c3.7,0.7,7.4,1.5,11.1,2.2c0,0,0.3,0,0.3,0c3.9,4.2,7.8,8.5,11.7,12.7c0.3,1.3,0.7,2.6,1,3.9
		c2.3,7.5,2.7,15.9,9.7,21.3c-2.3,10.3-4.6,20.6-6.9,31c-1.3-3-2.7-6.1-4-9.1c-0.2-0.8-0.4-1.6-0.6-2.4c0.1-0.3,0-0.4-0.2-0.6
		c-0.3-0.5-0.5-0.9-0.8-1.4c0-0.3,0-0.5-0.3-0.6c-0.6-0.8-1.1-1.7-1.7-2.5c-0.4-0.5-0.7-1.1-1.1-1.6c-1.3-1.3-2.7-2.7-4-4l0,0
		c-1-0.6-2-1.2-3.1-1.8c-2.7-1-5.3-2-8-3c-0.7-2.4-2.7-5.5-1.8-7.2c8.4-16.9,0.4-24.2-15.4-27.3c-0.2,0.1-0.5,0.3-0.7,0.4l-0.1,0.1
		c-1.3-0.4-2.7-0.7-4-1.1C895.7,454.3,903.5,454.5,912,456z"/>
	<path fill="#52A8C6" d="M936.8,388.8c-13.5,0.1-26.9,0.2-40.4,0.2c-4.4,0-8.9-0.3-13.3-0.4c3.4-3.7,6.6-7.6,10.3-11
		c12.2-11.2,24.5-22.1,36.8-33.2c1.6-0.1,3.2-0.2,4.8-0.3c0.6,0.4,1.2,0.8,1.9,1.1C936.8,359.7,936.8,374.2,936.8,388.8z"/>
	<path fill="#1C919D" d="M935.1,471c-3.9-4.2-7.8-8.5-11.7-12.8c4.3-1.1,8.6-2.3,12.9-3.4c0,5.4,0,10.8,0.1,16.3
		C935.9,471,935.5,471,935.1,471z"/>
	<path fill="#146390" d="M936.3,454.8c-4.3,1.1-8.6,2.3-12.9,3.4c0,0-0.3,0-0.3,0c4.5-4.1,9.1-8.2,13.6-12.3
		C936.5,448.8,936.4,451.8,936.3,454.8z"/>
	<path fill="#00CE8E" d="M935.1,471c0.4,0,0.8,0.1,1.3,0.1c-0.1,1.3-0.1,2.5-0.2,3.8C935.8,473.5,935.4,472.3,935.1,471z"/>
	<path fill="#146390" d="M936.8,345.1c-0.6-0.4-1.2-0.8-1.9-1.1C935.6,344.4,936.2,344.7,936.8,345.1z"/>
	<path fill="#D0EAFB" d="M928,344c-0.3-0.1-0.6-0.2-1-0.3c0.3-0.2,0.6-0.5,0.9-0.7C928,343.3,928,343.7,928,344z"/>
	<path fill="#1A2933" d="M759.2,340.8c-5.1,0-10.2,0.1-15.3,0.1c0.1-0.3,0-0.6-0.2-0.9c-3.1-14.6,4.5-27.5,6.5-41.2
		c0.1-0.7,1.7-1.1,2.7-1.7c0.8,2.3,1.5,4.6,2.3,6.9c0.2,0.7,0.4,1.4,0.7,2.1c0.1,0.6,0.2,1.3,0.4,1.9c0.3,1.3,0.6,2.5,0.9,3.8
		c0.7,0.2,1.4,0.4,2,0.5C759.1,321.8,759.2,331.3,759.2,340.8z"/>
	<path fill="#146390" d="M759.2,340.8c-0.1-9.5-0.1-18.9-0.2-28.4c-0.1-0.1-0.2-0.3-0.1-0.5c0.7,0,1.4,0,2,0.1c0,0,0,0.2,0,0.2
		c0.3,0.1,0.7,0.3,1,0.4c0.1,9.1,0.2,18.2,0.4,27.3c-0.2,0.3-0.3,0.6-0.3,0.9C761.2,340.8,760.2,340.8,759.2,340.8z"/>
	<path fill="#D0EAFB" d="M757,311.8c-0.3-1.3-0.6-2.5-0.9-3.8C756.4,309.3,756.7,310.6,757,311.8z"/>
	<path fill="#D0EAFB" d="M755.8,306.1c-0.2-0.7-0.4-1.4-0.7-2.1C755.3,304.7,755.6,305.4,755.8,306.1z"/>
	<path fill="#6DA0F5" d="M762.1,340.8c0-0.3,0.1-0.6,0.3-0.9c0.5,0.3,0.9,0.6,1.4,1C763.2,340.8,762.7,340.8,762.1,340.8z"/>
	<path fill="#D0EAFB" d="M761,311.9c-0.7,0-1.4,0-2-0.1C759.7,311.9,760.3,311.9,761,311.9z"/>
	<path fill="#6DA0F5" d="M762.1,312.5c-0.3-0.1-0.7-0.3-1-0.4C761.4,312.3,761.7,312.4,762.1,312.5z"/>
	<path fill="#6DA0F5" d="M743.7,340c0.2,0.3,0.3,0.6,0.2,0.9c0,0-0.4,0-0.4,0s-0.4-0.2-0.4-0.2C743.3,340.5,743.5,340.2,743.7,340z"
		/>
	<path fill="#769604" d="M867,399c-0.2,19-7.3,42.2,1,56c9.7,16.1,12.1,32.7,17.9,49c-4.3,8-8.5,16.1-12.8,24.1
		c-0.7,0.9-1.4,1.8-2.1,2.8c-8.4-4.8-9.3-17.8-21-18.9c0-0.3,0-0.5,0-0.8c0-0.4,0.1-0.7,0.1-1.1c0.1-0.1,0.3-0.2,0.3-0.3
		c0-0.3-0.1-0.5-0.2-0.7c0-47.7,0-95.3,0-143c0-0.7-0.1-1.3-0.1-2c-0.7-8.5-5.4-14.6-11.6-19.9c2.1-0.4,4.1-0.7,6.2-1.1
		c9.7,0.3,19.4,0.5,29.1,0.8c-2.3,15.1-4.5,30.2-6.8,45.3C867,392.4,867,395.7,867,399z"/>
	<path fill="#146390" d="M843.1,241.9c0.3,0,0.5,0,0.8,0c0,0-0.4,0-0.4,0L843.1,241.9z"/>
	<path fill="#153D99" d="M903.2,343.9c-9.7-0.3-19.4-0.6-29.1-1c1.7-7,3.5-13.9,5.2-20.9c5.8-0.1,11.5-0.1,17.3-0.2
		C898.9,329.2,901,336.5,903.2,343.9z"/>
	<path fill="#799902" d="M696,767.3c1.5,8.6-24.6,16.1-1,25.6c-21.6,0-43.2,0-64.8,0c19.9-8.4,39.9-16.7,59.8-25.1
		c0.9-0.2,1.8-0.5,2.8-0.7C693.8,767.1,694.9,767.2,696,767.3z"/>
	<path fill="#769604" d="M264.5,422c23.2,12.3,27.2,37.4,38.2,57.8c0.8,1.4,1.4,3,2.1,4.5c-4.5,11.6-9.1,23.2-13.6,34.9
		c-2.4-5.1-4.4-10.3-7.1-15.2c-10.2-18.4-11.5-42.3-32.9-53.9C253.9,439.8,254.4,428.6,264.5,422z"/>
	<path fill="#DAF3FC" d="M264.5,422c-10.2,6.6-10.7,17.8-13.3,28c-1.1,1.4-2.2,2.7-3.3,4.1c-0.6,0-1.3,0.1-1.9,0.1
		c0.2-30,0.3-60,0.5-90c0.1-11.7,0.2-23.5,0.2-35.2c6-2.3,12-4.5,18.1-6.8C264.7,355.4,264.6,388.7,264.5,422z"/>
	<path fill="#F89F9F" d="M291.2,519.1c4.5-11.6,9.1-23.3,13.6-34.9c2.1-2.2,4.2-4.5,6.2-6.7c2.5-1.1,5-2.1,7.5-3.2
		c9.6,15.1,0.7,28.1-4.6,41.5c-1.2,1.8-2.3,3.6-3.5,5.3c1.4-0.2,2.7-0.4,4.1-0.5c14.3-2.8,28.5-5.7,42.8-8.5
		c-3.4,2.3-6.9,4.5-10.3,6.8c-10,4.7-20,9.4-30,14c-3.7,0.9-7.5,1.8-11.2,2.7C286.1,543.4,287.8,531.9,291.2,519.1z"/>
	<path fill="#010361" d="M318.5,474.4c-2.5,1.1-5,2.1-7.5,3.2c-1.8-16.8-3.7-33.8,10.7-46.7c6.1-5.4,13.7-6.3,21.4-3.6
		c0.7,0.3,0.5,3.1,0.7,4.8c-10.7,4.1-11.1,15.4-15.8,23.5c-2.5,4.4-1.6,10.8-2.2,16.3C323.4,472.7,321,473.6,318.5,474.4z"/>
	<path fill="#D0EAFB" d="M299.9,311.3c13.4-0.1,26.8-0.1,40.2-0.2c5.7,0,6.6,2.4,3.8,7c-0.3-0.1-0.6,0-0.9,0.2
		c-13.5-0.1-27,0-40.5-0.3c-1.7,0-3.6-1.2-5.1-2.3c-0.3-0.2,1-2.5,1.5-3.9C299.3,311.6,299.6,311.4,299.9,311.3z"/>
	<path fill="#D0EAFB" d="M314.9,327.8c2.3,4,1.4,6.3-3.5,6.3c-11.3,0-22.6,0.1-33.9-0.2c-1.8-0.1-3.6-2.1-5.5-3.2
		c1.9-1.2,3.7-3.3,5.7-3.4c9.5-0.3,19-0.1,28.4-0.1C309.1,327.4,312,327.6,314.9,327.8z"/>
	<path fill="#D0EAFB" d="M332.1,296.7c-2.7,0-5.5,0-8.2,0c-7-0.1-14.1-0.2-21.1-0.3c-3.2-2.3-2.4-4.5,0.3-6.6c0,0,0.5,0.1,0.5,0.1
		l0.4-0.2c12.4,0,24.8,0,37.2,0.2c1.7,0,3.3,1.5,4.9,2.2c-1,1.5-1.9,3-2.9,4.4C339.5,296.7,335.8,296.7,332.1,296.7z"/>
	<path fill="#6DA0F5" d="M302.8,296.5c7,0.1,14.1,0.2,21.1,0.3C316.8,296.7,309.8,296.6,302.8,296.5z"/>
	<path fill="#6DA0F5" d="M332.1,296.7c3.7,0,7.4,0,11.1-0.1C339.5,296.7,335.8,296.7,332.1,296.7z"/>
	<path fill="#6DA0F5" d="M314.9,327.8c-2.9-0.2-5.9-0.4-8.8-0.6C309.1,327.4,312,327.6,314.9,327.8z"/>
	<path fill="#153D99" d="M343.1,318.2c0.3-0.2,0.6-0.3,0.9-0.2C343.7,318.1,343.4,318.2,343.1,318.2z"/>
	<path fill="#6DA0F5" d="M299.9,311.3c-0.3,0.2-0.6,0.3-0.9,0.5C299.3,311.6,299.6,311.4,299.9,311.3z"/>
	<path fill="#153D99" d="M304,289.8l-0.4,0.2c0,0-0.5-0.1-0.5-0.1C303.3,289.8,303.7,289.8,304,289.8z"/>
	<path fill="#6DA0F5" d="M796.9,549.3c2.2-4.7,5.2-9.2,6.5-14.1c4.7-17.3,10.8-32.1,33.5-24.3c4,0.3,8,0.6,12,0.9
		c0.4,0,0.8,0.1,1.2,0.1c11.7,1.1,12.6,14.1,21,18.9c1,1.3,2,2.7,3.1,4c0.2,4,0.5,7.8-5.2,8.2c-15.4,1.1-30.3,1.2-39.8-14.2
		c-1.2-1.8-2.3-3.7-3.5-5.5c-1.2,2.2-2.4,4.5-3.7,6.7c-3.6,7.7-7.2,15.4-10.9,23.1c-6,2.9-12,5.9-18,8.8
		C794.4,557.7,795.7,553.5,796.9,549.3z"/>
	<path fill="#6DA0F5" d="M376.3,497.1c14.5-18.5,33.1-27.7,56.9-25.2c-1.7,2.4-3.3,4.8-5,7.2c-6.4,7.5-12.7,15.1-19.1,22.6
		c-10.7,12.9-24.5,19.3-41.1,19.7c-1-0.1-2-0.2-2.9-0.3c-1.8,0-3.5,0-5.3,0c-4.3-0.7-8.5-1.5-12.8-2.2c3.4-2.3,6.9-4.5,10.3-6.8
		c2.6-2.1,5.3-4.1,8-6.2c3.4-2.8,6.7-5.6,10.1-8.4C375.7,497.4,376,497.3,376.3,497.1z"/>
	<path fill="#52A8C6" d="M558,302c3.4,12.8,6.7,25.6,10.1,38.4c-7.2,0.1-14.5,0.2-21.7,0.2c2.2-9.4,4.4-18.9,6.5-28.3
		C554.6,308.9,556.3,305.5,558,302z"/>
	<path fill="#F89F9F" d="M375.4,497.6c-3.4,2.8-6.7,5.6-10.1,8.4c-4.8-10.8-9.6-21.7-14.4-32.5c0.4-0.2,0.8-0.4,1.2-0.6
		c3.9,2.4,7.8,4.8,11.6,7.2C367.6,485.9,371.5,491.7,375.4,497.6z"/>
	<path fill="#6DA0F5" d="M629.3,351.4c-3.1,2.3-4.8,4.1-6.8,4.8c-0.6,0.2-3.4-2.9-3.2-3.8c0.5-1.7,2.4-3.6,4.1-4.1
		C624.6,347.9,626.4,349.7,629.3,351.4z"/>
	<path fill="#06287A" d="M364.2,387c0.1-7.3,0.1-14.6,0.2-21.9C364.3,372.4,364.3,379.7,364.2,387z"/>
	<path fill="#06287A" d="M364.2,430c0-2.7,0-5.3,0-8C364.2,424.7,364.2,427.3,364.2,430z"/>
	<path fill="#146390" d="M850.2,364c0,0.7,0.1,1.3,0.1,2C850.3,365.3,850.2,364.7,850.2,364z"/>
	<polygon fill="#6DA0F5" points="376.9,370.4 377,370.6 376.8,370.7 376.6,370.5 	"/>
	<path fill="#146390" d="M850.3,509c0.1,0.2,0.2,0.5,0.2,0.7c0,0.1-0.2,0.2-0.3,0.3C850.2,509.7,850.3,509.3,850.3,509z"/>
	<path fill="#146390" d="M850.1,511.9c-0.4,0-0.8-0.1-1.2-0.1c0.4-0.2,0.8-0.4,1.1-0.6C850.1,511.4,850.1,511.6,850.1,511.9z"/>
	<path fill="#DAF3FC" d="M558,302c-1.7,3.5-3.4,6.9-5.1,10.4c-6.6-19.7-13.2-39.3-19.8-59c-1.1-3.4-1.9-6.9-2.9-10.3
		C543.3,260.9,551.7,281,558,302z"/>
	<path fill="#52A8C6" d="M246.7,328.9c-0.1,11.7-0.2,23.5-0.2,35.2c-40.4-0.7-40.4-0.7-40.4,39.1c0,10.6,0,21.3,0,31.9
		c-16.7-2.5-18.7,5.8-18.6,20.6c0.5,45.8-0.8,91.7-1.5,137.6c0,1.7-1.3,3.3-2.1,5c-5.9-4.5-11.8-9-17.8-13.5
		c0.3-27.4,0.6-54.9,0.8-82.3c0-1.5-1.3-2.9-2-4.4c-1.3,0.8-3.6,1.6-3.6,2.4c0.1,28.9,0.4,57.7,0.7,86.6c0.5,6,1,11.9,1.5,17.9
		c-0.5,5.7-1,11.4-1.6,17.1c-2.7-3.4-5.4-6.8-8-10.1c0-50.6,0.1-101.2,0-151.8c0-8.1-0.6-16.1-1-24.2
		C175.7,392.8,200.8,351.7,246.7,328.9z"/>
	<path fill="#DAF3FC" d="M153,435.9c0.3,8.1,1,16.1,1,24.2c0.1,50.6,0,101.2,0,151.8c-14.3-15.9-19.6-35.6-22.9-56
		c-0.4-3.7-0.8-7.3-1.2-11c0.1-0.3,0.1-0.6,0-0.9c-1.2-37.1,8.2-72.1,22.1-106.1C152.3,437.3,152.6,436.6,153,435.9z"/>
	<path fill="#E08870" d="M350.9,473.5c4.8,10.8,9.6,21.7,14.4,32.5c-2.6,2.1-5.3,4.1-8,6.2c-14.3,2.8-28.5,5.7-42.8,8.5
		c-0.2-1.6-0.4-3.2-0.6-4.8c5.3-13.4,14.2-26.5,4.6-41.5c2.4-0.8,4.9-1.6,7.3-2.5c1.7,6.9,6.2,10.1,13.1,8.8
		c4.5-0.8,6.5-4.1,5.2-8.8C346.4,472.4,348.6,472.9,350.9,473.5z"/>
	<path fill="#146390" d="M291.2,519.1c-3.4,12.8-5.1,24.2,14.7,16.6c1.6,5.4,3.2,10.7,4.9,16.1c0.1,0.7,0.3,1.4,0.4,2.1
		c-9.1,14.9-1.2,30.1-0.6,45.1c-1.8-1.7-3.7-3.4-5.5-5.1l0,0c-0.3-0.3-0.6-0.7-1-1l0,0c-0.3-0.3-0.7-0.7-1-1l0,0
		c-0.3-0.4-0.7-0.7-1-1.1c-11.8-10.8-23.5-21.7-35.3-32.5c3.7-4.1,7.5-8.3,11.2-12.4c0.1-0.1,0.1-0.2,0.2-0.3
		c-0.1,0.1-0.1,0.2-0.2,0.4c-5,3.3-10.1,6.7-15.1,10c-1-0.6-2-1.2-3-1.8c-2.1-21.6-4.2-43.2-6.4-64.7c-0.6-5.9-1.8-11.8-2.7-17.6
		c0,6.2,0,12.3,0.2,18.5c0.1,3.8,0.4,7.6,0.9,11.4c2.3,18.3,0.1,20.6-14.4,15.5c-0.3-0.1-0.8,0.1-1.2,0.1c0.6,1.5,0.9,3.3,1.8,4.5
		c6.9,9.6,20.3,15.6,17,30.9c-0.7-0.2-1.4-0.4-2.1-0.6c-0.3-0.1-0.6-0.2-0.9-0.2c-0.4-0.3-0.7-0.5-1.1-0.8
		c-20.4-6.5-36.9,5.5-37,26.8c-7.7,0.7-15.4,1.3-23.1,2c-0.3,0-0.6,0.1-1,0.1c2.3-11.2-6-27.4,13.4-30.7c3.6-0.6,4.8-0.6,4.7-4.2
		c-0.8-20.1-1.5-40.1-2.2-60.2c8.5-0.6,12.7,5.6,17.8,10.7c1.5,1.5,3.9,8,6.3,2.6c5.6-12.5,9.5-25.7,14.1-38.6
		c0.9-1.2,1.8-2.5,2.7-3.7c0.4-0.6,0.8-1.3,1.1-1.9c1.1-1.4,2.2-2.7,3.3-4.1c21.4,11.6,22.7,35.5,32.9,53.9
		C286.8,508.8,288.8,514,291.2,519.1z"/>
	<path fill="#8FB504" d="M260,554.2c1,0.6,2,1.2,3,1.8c1.3,0.8,2.6,1.5,3.8,2.3c11.8,10.8,23.5,21.7,35.3,32.5
		c0.3,0.4,0.7,0.7,1,1.1c0,0,0,0,0,0c0.3,0.3,0.7,0.7,1,1c0,0,0,0,0,0c0.3,0.3,0.6,0.7,1,1c0,0,0,0,0,0c3.5,6.9,5.7,14,5.1,22.1
		c-1.7,24-2.2,48-4.6,71.9c-0.6,5.8,1.4,15.7-9.4,16.9l-0.1,0c-0.4-0.3-0.8-0.5-1.2-0.8c-13.7-6-27.4-12-41.1-18
		c10.4-2,7.5-10.4,6.8-16.4c-4.1-34.1-6-68.2-2.9-102.5c0.4-4.9-3-10.1-4.7-15.1c0.7,0.2,1.4,0.4,2.1,0.6
		C256.7,553.2,258.3,553.7,260,554.2z"/>
	<path fill="#1A2933" d="M253.8,686.1c13.7,6,27.4,12,41.1,18c0.4,0.3,0.8,0.5,1.2,0.8c0,0,0.1,0,0.1,0c0.8,3.1,2.4,6.3,2.1,9.3
		c-0.1,1.1-4.6,1.8-7,2.6c0,0,0,0,0,0c-0.7-0.3-1.3-0.7-2-1c0,0,0,0.1,0,0.1c-0.4-0.3-0.7-0.6-1.1-0.9c0,0,0,0,0,0
		c-0.7-0.4-1.3-0.7-2-1.1c0,0,0,0,0,0c-0.4-0.3-0.7-0.6-1.1-0.9c0,0,0,0,0,0c-0.6-0.4-1.3-0.7-1.9-1.1c-14-6.6-28-13.3-42-19.9
		c0,0-0.3-0.2-0.3-0.2s-0.4,0-0.4,0c-0.8-0.3-1.5-0.6-2.3-0.9l-0.3-0.2c0,0-0.3,0.1-0.3,0.1c-2.1-0.7-4.2-1.4-6.3-2c0,0,0,0,0,0
		c-0.7-0.3-1.4-0.6-2.1-0.9l-0.3-0.2c0,0-0.3,0-0.3,0c-1.1-0.3-2.2-0.7-3.4-1l-0.3-0.1c0,0-0.3,0.1-0.3,0.1c-1.1-0.3-2.3-0.7-3.4-1
		c-2.9-1.7-5.8-3.3-8.7-5c3.9-0.3,7.8-0.6,11.7-0.9c1.3,0.3,2.7,0.5,4,0.8c0.7,0,1.4,0,2.1,0.1c4.6,0.8,9.2,1.6,13.8,2.4
		c0,0-0.1,0,0,0c1.1,0.3,2.1,0.7,3.2,1c0.2,0.2,0.3,0.2,0.5,0c1.1,0.3,2.2,0.7,3.4,1c0,0,0,0,0,0c0.7,0.3,1.4,0.6,2.1,0.8
		C253.2,686.1,253.5,686.2,253.8,686.1z"/>
	<path fill="#146390" d="M229,641.1c-0.6-0.1-1.1-0.2-1.7-0.2c-2.4-0.6-4.8-1.3-7.3-1.9c0,0,0,0,0,0c-4.4-1-8.7-1.9-13.1-2.9
		c-0.1-0.3,0-0.7,0-1c-1.4-3.3-2.8-6.6-4.2-10c-0.3-9-0.5-18-0.8-27c6.4-0.1,13.6-1.9,16.2,6.9c0.1,0.2,0.2,0.4,0.2,0.7
		c1.9,5.1,3.9,10.2,5.8,15.3c0,0,0,0,0,0c1.3,3,2.7,5.9,4,8.9c0,0,0,0,0,0c1.3,2.4,2.6,4.7,3.9,7.1c0,0,0,0,0,0c0.3,0.7,0.7,1.3,1,2
		c0,0,0,0,0,0c-0.8,0.7-1.5,1.5-2.3,2.2C230.2,641.1,229.6,641.1,229,641.1z"/>
	<path fill="#769604" d="M218.2,604.9c-2.6-8.8-9.7-7-16.2-6.9c-3.7-6-7.4-12-11.1-18.1c7.7-0.7,15.4-1.3,23.1-2
		C215.4,587,216.8,596,218.2,604.9z"/>
	<path fill="#153D99" d="M163,640.9c-0.7,0-1.4-0.1-2.1-0.1c0-0.6-0.1-1.2-0.1-1.8c0-1.7,0.1-3.3,0.1-5c0.1-0.3,0.1-0.6,0-1
		c0-2.7,0-5.3,0-8c0.2-0.3,0.3-0.5,0.3-0.9c2.3-0.1,4.6-0.1,6.9-0.2c1.3,4.4,2.6,8.9,3.9,13.3c-1.8,0.8-3.7,1.7-5.5,2.5l-0.3-0.1
		c0,0-0.3,0.1-0.3,0.1c-0.8,0.3-1.6,0.6-2.4,0.9l-0.3,0L163,640.9z"/>
	<path fill="#1BE190" d="M166.5,639.8c1.8-0.8,3.7-1.7,5.5-2.5c2.7-0.5,5.4-0.9,8-1.4c0.7-0.1,1.4-0.2,2.1-0.2
		c1.3-0.2,2.6-0.3,3.9-0.5c1,0,1.9-0.1,2.9-0.1c2,0,4.1,0,6.1,0c0,0.3,0,0.5,0,0.8C185.6,637.2,176,638.5,166.5,639.8z"/>
	<path fill="#1BE190" d="M207,636c4.4,1,8.7,1.9,13.1,2.9c-7.3-1-14.7-1.9-22-2.9c0.7-0.3,1.4-0.5,2-0.8c1.7,0.2,3.4,0.4,5.1,0.5
		C205.8,635.8,206.4,635.9,207,636z"/>
	<path fill="#1C919D" d="M224.2,620.9c-1.9-5.1-3.9-10.2-5.8-15.3C220.3,610.7,222.2,615.8,224.2,620.9z"/>
	<path fill="#1BE190" d="M243.9,683.2c-4.6-0.8-9.2-1.6-13.8-2.4C234.7,681.6,239.3,682.4,243.9,683.2z"/>
	<path fill="#1C919D" d="M228.2,629.8c-1.3-3-2.7-5.9-4-8.9C225.5,623.9,226.9,626.8,228.2,629.8z"/>
	<path fill="#1C919D" d="M232.1,636.9c-1.3-2.4-2.6-4.7-3.9-7.1C229.5,632.2,230.8,634.6,232.1,636.9z"/>
	<path fill="#1BE190" d="M220.1,638.9c2.4,0.6,4.8,1.3,7.3,1.9C224.9,640.2,222.5,639.6,220.1,638.9z"/>
	<path fill="#1C919D" d="M230.9,641.1c0.8-0.7,1.5-1.5,2.3-2.2c0,1.3,0,2.7,0,4c-0.7-0.3-1.4-0.6-2.1-0.9c0,0-0.1,0-0.1,0
		C230.9,641.7,230.9,641.4,230.9,641.1z"/>
	<path fill="#1BE190" d="M228,680.7c-1.3-0.3-2.7-0.5-4-0.8C225.4,680.2,226.7,680.4,228,680.7z"/>
	<path fill="#1BE190" d="M231.1,688.8c2.1,0.7,4.2,1.4,6.3,2C235.3,690.2,233.2,689.5,231.1,688.8z"/>
	<path fill="#1C919D" d="M200,635.2c-0.7,0.3-1.4,0.5-2,0.8c-1,0-2-0.1-2.9-0.1c0-0.3,0-0.5,0-0.8
		C196.7,635.1,198.4,635.2,200,635.2z"/>
	<path fill="#1BE190" d="M247,684.1c-1.1-0.3-2.1-0.7-3.2-1C244.9,683.5,246,683.8,247,684.1z"/>
	<path fill="#1BE190" d="M163.6,640.7c0.8-0.3,1.6-0.6,2.4-0.9C165.2,640.2,164.4,640.5,163.6,640.7z"/>
	<path fill="#1BE190" d="M221,685.8c1.1,0.3,2.3,0.7,3.4,1C223.3,686.5,222.2,686.1,221,685.8z"/>
	<path fill="#1BE190" d="M225,686.9c1.1,0.3,2.2,0.7,3.4,1C227.2,687.5,226.1,687.2,225,686.9z"/>
	<path fill="#1BE190" d="M250.9,685.2c-1.1-0.3-2.2-0.7-3.4-1C248.7,684.5,249.8,684.8,250.9,685.2z"/>
	<path fill="#1BE190" d="M229,688c0.7,0.3,1.4,0.6,2.1,0.9C230.4,688.5,229.7,688.2,229,688z"/>
	<path fill="#1BE190" d="M238,690.9c0.8,0.3,1.5,0.6,2.3,0.9C239.5,691.6,238.8,691.2,238,690.9z"/>
	<path fill="#1C919D" d="M233.1,638.9c-0.3-0.7-0.7-1.3-1-2C232.4,637.6,232.8,638.3,233.1,638.9z"/>
	<path fill="#1BE190" d="M253,686c-0.7-0.3-1.4-0.6-2.1-0.8C251.6,685.4,252.3,685.7,253,686z"/>
	<path fill="#1BE190" d="M230.9,641.1c0.1,0.3,0.1,0.6,0.1,0.9c-0.6-0.3-1.3-0.6-1.9-0.9C229.6,641.1,230.2,641.1,230.9,641.1z"/>
	<path fill="#1BE190" d="M231,642c0.7,0.3,1.4,0.6,2.1,0.9C232.4,642.6,231.7,642.3,231,642z"/>
	<path fill="#1BE190" d="M251,551.2c0.4,0.3,0.7,0.5,1.1,0.8C251.8,551.7,251.4,551.4,251,551.2z"/>
	<path fill="#4777E9" d="M129.9,544.1c0.1,0.3,0.1,0.6,0,0.9c-0.1-0.2-0.2-0.4-0.3-0.6C129.6,544.3,129.8,544.1,129.9,544.1z"/>
	<path fill="#2F62D1" d="M168.1,624c-2.3,0.1-4.6,0.1-6.9,0.2c0.3-0.7,0.6-1.4,0.9-2.1c0.5-5.7,1-11.4,1.6-17.1
		C165.1,611.3,166.6,617.7,168.1,624z"/>
	<path fill="#4777E9" d="M160.8,639c0,0.6,0.1,1.2,0.1,1.8c-0.2,0.2-0.5,0.3-0.8,0.4C160.3,640.4,160.5,639.7,160.8,639z"/>
	<path fill="#4777E9" d="M160.9,633c0.1,0.3,0.1,0.6,0,1c-0.1-0.2-0.2-0.4-0.3-0.7C160.6,633.2,160.8,633.1,160.9,633z"/>
	<path fill="#F89F9F" d="M829.2,528.8c9.5,15.4,24.4,15.3,39.8,14.2c5.7-0.4,5.4-4.2,5.2-8.2c0.2-0.1,0.4-0.2,0.6-0.2
		c0.7,0.5,1.4,1,2.2,1.5c0.8,0.4,1.6,0.8,2.4,1.1c0.9,0.5,1.8,0.9,2.6,1.4c0.6,0.2,1.2,0.3,1.7,0.5c8.6,2.1,17.1,4.1,25.7,6.2
		l0.1-0.1c1.8,0,3.7,0,5.5,0c1.9,0.1,3.7,0.3,5.6,0.4c0.7-1.6,1.4-3.3,2.1-4.9c5.4-2.6,10.8-5.2,16.2-7.8c1.7,8.3,3.3,16.7,5,25
		c-2.7,1.4-5.4,2.9-8.1,4.3c-2.2,0-4.4-0.1-6.6-0.1c-3.7-0.8-7.4-1.6-11-2.3c-6.7-2.3-13.3-4.6-20-7c-10.9-3.7-26.7-23.5-27.1,8.1
		c-3.9,0.3-7.8,0.6-11.8,0.9c-0.7-0.3-1.4-0.7-2.1-1c-2-1.3-3.9-2.7-5.9-4c-4.8-3.6-9.5-7.2-14.3-10.8c-3.8-5.2-15.7-4.8-10.8-15.9
		C827.1,529.6,828.2,529.2,829.2,528.8z"/>
	<path fill="#799902" d="M920.6,545.7c-1.9-0.1-3.7-0.3-5.6-0.4c-2.9-12.8,3.9-27.3-6.8-38.8c0.2-0.4,0.4-0.9,0.7-1.3
		c2-1.7,4.1-3.3,6.1-5c2.7,1,5.3,2,8,3c1,0.6,2,1.2,3.1,1.8c0,0,0,0,0,0c1.3,1.3,2.7,2.7,4,4c0.4,0.5,0.7,1.1,1.1,1.6
		c0.6,0.8,1.1,1.7,1.7,2.5c0.2,0.1,0.3,0.3,0.3,0.6c0.3,0.5,0.5,0.9,0.8,1.4c0.2,0.1,0.3,0.3,0.2,0.6c0.2,0.8,0.4,1.6,0.6,2.4
		c1.3,3,2.7,6.1,4,9.1c0,1.9,0,3.9,0,5.8c-5.4,2.6-10.8,5.2-16.2,7.7C922,542.3,921.3,544,920.6,545.7z"/>
	<path fill="#1A2933" d="M915.2,655.1c-0.8,6.3-1.6,12.6-2.4,18.9c0,1.2-0.1,2.3-0.1,3.5c-0.2,3.2-0.4,6.3-0.7,9.5c0,0.3,0,0.7,0,1
		c0.3,12.5,0.6,24.9,0.9,37.4c-3.7,0.2-7.4,0.5-11.1,0.7c-3.6-6.7-7.2-13.4-10.9-20c-0.4-0.5-0.8-1-1.2-1.5c0.1,0.5,0.2,1,0.3,1.5
		c-0.3,6.7-0.6,13.5-0.8,20.2c-3.7-0.1-7.4-0.1-11.1-0.2c-1-3-2.1-6-3.1-9c-0.7-2.6-1.4-5.3-2.1-7.9c-3-18-5.9-36-8.9-54
		c-0.2-0.4-0.4-0.7-0.6-1.1c0.2-5.7,0.3-11.3,0.5-17c0.1-8.3,0.1-16.6,0.2-24.9c0.6-4.1,1.3-8.2,1.9-12.2c1-5.6,2.1-11.2,3.1-16.8
		c4.6,1.4,9.2,2.9,13.8,4.3c0.4,0,0.7,0.1,1.1,0.1c1.3,0.1,2.7,0.3,4,0.4c3.8-0.1,7.5-0.2,11.3-0.2c0.9,0,1.7,0,2.6,0
		c8.1,1.2,14.3-3.4,20.9-6.9c11.6,24.5-4.4,46.3-6.8,69.4C915.7,651.7,915.4,653.4,915.2,655.1z"/>
	<path fill="#799902" d="M922.8,580.6c-6.6,3.4-12.8,8-20.9,6.9c-9.9-10.6-8.3-22.5-3.8-34.7c6.7,2.3,13.3,4.6,20,7
		C919.7,566.7,921.2,573.7,922.8,580.6z"/>
	<path fill="#F89F9F" d="M901.8,726.1c3.7-0.2,7.4-0.5,11.1-0.7c0.1,3.1,0.2,6.1,0.3,9.2c0.3,4.1,0.6,8.2,0.9,12.2
		c-6,4.1-12.1,0.7-18.1,0c4.3-2.7,10.8-4.1,6.9-11.6C902.6,732.2,902.2,729.1,901.8,726.1z"/>
	<path fill="#06287A" d="M968,654c-0.1,0.3-0.1,0.6-0.1,0.9c-0.3,0.4-0.5,0.7-0.8,1.1c-1.4,3.6-2.8,7.2-4.2,10.8
		c-1.3-4-2.9-8-3.9-12.2c-2-8.1-3.7-16.3-5.5-24.4c2.2,6.9,4.3,13.7,6.6,20.6c0.5,1.5,1.6,2.8,2.4,4.1c0.5-1.5,1.2-3,1.4-4.6
		c1.1-10.2,2.1-20.4,3.1-30.7c0.3-2.6,0.8-5.2,1.2-7.8c0.3,2.7,0.8,5.4,0.7,8.2C968.7,631.4,968.4,642.7,968,654z"/>
	<path fill="#06287A" d="M912.6,677.6c0-1.2,0.1-2.3,0.1-3.5c8.2,1.8,16.4,3.5,24.7,5.3c2.5,0.5,5,1.1,7.5,1.7
		c-2.8,0.3-5.7,1.2-8.3,0.8C928.5,680.7,920.6,679,912.6,677.6z"/>
	<path fill="#06287A" d="M952.1,690c-1.1,2.6-2.2,5.3-3.2,7.9c-2.2,2.1-4.5,4.2-6.7,6.3c-3,2.9-5.8,5.9-8.8,8.8
		c2.3-3.6,4.3-7.6,7.1-10.9C944.1,697.8,948.2,694,952.1,690z"/>
	<path fill="#2F62D1" d="M929.1,562.1c2.2,0,4.4,0.1,6.6,0.1c-0.8,1.9-1.6,3.7-2.4,5.6C932,566,930.6,564,929.1,562.1z"/>
	<path fill="#06287A" d="M915.2,655.1c0.3-1.7,0.5-3.4,0.8-5.2c1.9-0.2,3.7-0.5,5.6-0.7C919.4,651.2,917.3,653.2,915.2,655.1z"/>
	<path fill="#06287A" d="M925,646c-0.2,0.2-0.4,0.4-0.7,0.7c-0.1-0.2-0.2-0.3-0.2-0.5C924.4,646.1,924.7,646.1,925,646
		C925,646,925,646,925,646z"/>
	<path fill="#06287A" d="M925,646c0.1-0.1,0.1-0.2,0.2-0.3C925.1,645.8,925,645.9,925,646C925,646,925,646,925,646z"/>
	<path fill="#06287A" d="M912,688c-0.1-0.3-0.1-0.6,0-1c0.1,0.2,0.3,0.4,0.3,0.7C912.3,687.8,912.1,687.9,912,688z"/>
	<path fill="#146390" d="M875,717c1,3,2.1,6,3.1,9c0.2,2.6,0.5,5.1,0.7,7.7c-0.6,0.4-1.3,0.7-1.9,1.1c-8-0.3-15.9-0.5-23.9-0.8
		c-1-4.4-1.9-8.7-2.9-13.1c0-13.2,0.1-26.5,0.1-39.7c4.7-2.3,9.5-4.6,14.2-6.9c-4.7,1.5-9.5,3-14.2,4.5c0.2-17,0.3-34,0.5-51
		c4.4,3,8.7,6.1,13.1,9.1c-0.2,5.7-0.3,11.3-0.5,17c0.2,0.4,0.4,0.7,0.6,1.1c3,18,5.9,36,8.9,54c-0.8,4.6-1.7,9.2-2.5,13.8
		C871.9,720.9,873.4,719,875,717z"/>
	<path fill="#06287A" d="M850.1,720.9c1,4.4,1.9,8.7,2.9,13.1c-18,0.1-36,0.2-54,0.2c-0.6-0.1-1.2-0.1-1.8-0.2
		c-0.1-3.7-0.2-7.3-0.3-11c2.2,0,4.3,0,6.5-0.1C819,722.3,834.5,721.6,850.1,720.9z"/>
	<path fill="#E08870" d="M796.9,723c0.1,3.7,0.2,7.3,0.3,11c-0.1,0.3-0.1,0.5,0,0.8c-0.1,5.4-0.2,10.8-0.2,16.1
		c0.3,0.3,0.5,0.6,0.8,0.9c0.2,0,0.4,0.2,0.5,0.4c-2.9,0.1-5.7,0.2-8.6,0.2c-0.6-6.1-1.1-12.2-1.7-18.3c-0.7-3.8-1.5-7.5-2.2-11.3
		c-0.2-2.9-0.4-5.9-0.6-8.8c3.8,0.1,7.7,0.2,11.5,0.3C796.8,717.3,796.8,720.2,796.9,723z"/>
	<path fill="#010361" d="M896,746.8c6,0.7,12.1,4.1,18.1,0c3.9,6.8,3.3,7.7-5.3,7.6c-2.8,0-5.6,0-8.4-0.1c-4.5-0.1-8.9-0.3-13.4-0.5
		c-0.3-0.8-0.6-1.6-0.9-2.4c-0.4,0.7-0.7,1.5-1.1,2.2c-4.7,0-9.3,0-14,0.1c-0.3,0-0.7,0-1-0.1c-1-0.1-2-0.1-3-0.2
		c-0.3,0.1-0.6,0.1-1,0.2c-1.5-0.4-3.1-0.9-4.6-1.3c2.5-1.9,5-3.8,7.5-5.7c1.9,0.5,3.8,1,5.6,1.5c4.6,0,9.2,0,13.7-0.1
		c0.3-0.1,0.7-0.2,1-0.3C891.6,747.5,893.8,747.2,896,746.8z"/>
	<path fill="#F89F9F" d="M889.4,747.9c-0.3,0.1-0.7,0.2-1,0.3c-4.6,0-9.2,0-13.7,0.1c-1.9-0.5-3.8-1-5.6-1.5
		c1.4-5.5,15.9,0.1,9.9-11.7c0-0.5,0-0.9,0-1.4c-0.2-2.6-0.5-5.1-0.7-7.7c3.7,0.1,7.4,0.1,11.1,0.2c0.1,2.9,0.2,5.8,0.2,8.8
		C889.4,739.3,889.4,743.6,889.4,747.9z"/>
	<path fill="#153D99" d="M885,753.7c0.4-0.7,0.7-1.5,1.1-2.2c0.3,0.8,0.6,1.6,0.9,2.4C886.3,753.8,885.7,753.8,885,753.7z"/>
	<path fill="#6DA0F5" d="M878.8,733.7c0,0.5,0,0.9,0,1.4c-0.6-0.1-1.3-0.2-1.9-0.3C877.6,734.4,878.2,734.1,878.8,733.7z"/>
	<path fill="#6DA0F5" d="M797.2,734.8c-0.1-0.3-0.1-0.5,0-0.8c0.6,0.1,1.2,0.1,1.8,0.2C798.4,734.4,797.8,734.6,797.2,734.8z"/>
	<path fill="#F89F9F" d="M797.8,751.9c-0.3-0.3-0.5-0.6-0.8-0.9C797.3,751.3,797.5,751.6,797.8,751.9z"/>
	<path fill="#153D99" d="M866,753.8c0.3-0.1,0.7-0.1,1-0.2C866.7,753.6,866.3,753.7,866,753.8z"/>
	<path fill="#153D99" d="M870,753.7c0.3,0,0.7,0,1,0.1C870.7,753.7,870.3,753.7,870,753.7z"/>
	<path fill="#146390" d="M967.1,656.1c0.3-0.4,0.5-0.7,0.8-1.1C967.7,655.3,967.4,655.7,967.1,656.1z"/>
	<path fill="#799902" d="M291.1,716.8c2.5-0.9,6.9-1.5,7-2.6c0.3-3-1.2-6.2-2.1-9.3c10.9-1.2,8.9-11.1,9.4-16.9
		c2.4-23.9,2.9-48,4.6-71.9c0.6-8.1-1.6-15.1-5.1-22.1c1.8,1.7,3.7,3.4,5.5,5.1c1.2,8.9,2.4,17.9,3.6,26.8c1.3,9.7,2.6,19.3,4,29
		l0,0c0.7,4.7,1.3,9.3,2,14c0.2,0.7,0.5,1.4,0.7,2.2c0.4,3.9,0.9,7.9,1.3,11.8c0.2,0.7,0.5,1.4,0.7,2.1c0.4,3.6,0.8,7.3,1.2,10.9
		c1,2.8,1.9,5.5,2.9,8.3c0.7,6.2,1.3,12.3,2,18.5c-1,3.8-2,7.5-3.1,11.3c-11,0.2-21.9,0.4-32.9,0.6c-5.7-0.2-11.3-0.4-17-0.5
		C286.7,733.3,298.6,733.6,291.1,716.8z"/>
	<path fill="#DAF3FC" d="M276,734c5.7,0.2,11.3,0.4,17,0.5c6.1,7.3,2.3,15.4,2,23.2c-9.7-0.2-19.3-0.3-29-0.5c0-7.5-0.1-15-0.1-22.5
		C269.3,734.5,272.6,734.2,276,734z"/>
	<path fill="#1CC393" d="M283,711.9c0.6,0.4,1.3,0.7,1.9,1.1C284.3,712.7,283.7,712.3,283,711.9z"/>
	<path fill="#1CC393" d="M286.1,713.9c0.7,0.4,1.3,0.7,2,1.1C287.4,714.6,286.7,714.2,286.1,713.9z"/>
	<path fill="#1CC393" d="M289.1,715.8c0.7,0.3,1.3,0.7,2,1C290.4,716.5,289.8,716.2,289.1,715.8z"/>
	<path fill="#1CC393" d="M288,715c0.4,0.3,0.7,0.6,1.1,0.9C288.8,715.6,288.4,715.3,288,715z"/>
	<path fill="#1CC393" d="M285,713c0.4,0.3,0.7,0.6,1.1,0.9C285.7,713.6,285.4,713.3,285,713z"/>
	<path fill="#D0EAFB" d="M295,757.7c0.4-7.8,4.1-15.9-2-23.2c11-0.2,21.9-0.4,32.9-0.6c11.7,0.3,23.4,0.5,35.1,0.8
		c0.7-0.2,1.5-0.4,2.2-0.6c129.6,0,259.2,0,388.9,0c0.2,0,0.4,0,0.6,0c0.3,0,0.7-0.1,1-0.1c0.2,4.4,0.5,8.7,0.7,13.1
		c-0.1,1.3-0.2,2.6-0.2,3.9c-0.2,1.6-0.3,3.3-0.5,4.9c-0.9,0.7-1.8,1.4-2.7,2.1c-149.7,0-299.4,0-449.1-0.1
		C299.6,758,297.3,757.8,295,757.7z M609,751.1c13.7,0,27.3,0,41,0c3.6,0,6-1.1,6.1-5.4c0.1-4.4-2.2-5.9-6.1-5.9
		c-27,0-54,0-80.9-0.1c-3.7,0-6.2,1.4-6.3,5.4c-0.1,4.2,2.2,6,6.3,6C582.4,751.1,595.7,751.1,609,751.1z"/>
	<path fill="#4777E9" d="M692.7,767.1c-0.9,0.2-1.8,0.5-2.8,0.7c-0.3-0.1-0.6-0.3-0.7-0.6C690.3,767.2,691.5,767.1,692.7,767.1z"/>
	<path fill="#4777E9" d="M689.1,210.7c-3,2.5-4.6,3.9-6.3,5.2c-0.9-1.9-2.5-3.7-2.6-5.6c0-1.4,2-2.8,3-4.2
		C684.8,207.3,686.3,208.4,689.1,210.7z"/>
	<path fill="#52A8C6" d="M690.6,237.9c-2.9,0.4-5.4,1.3-7.5,0.9c-1.3-0.3-3-2.9-2.8-4.2c0.2-1.9,2-3.6,3.2-5.4
		C684.5,230.5,685.7,231.9,690.6,237.9z"/>
	<path fill="#D0EAFB" d="M788,734.2c0.6,6.1,1.1,12.2,1.7,18.3c-1,1.9-1.9,3.7-2.9,5.6c-3.5,0.3-7.1,0.6-10.6,0.9
		c-3.9-5.6-9.9-1.9-14.7-3.2c1.4-7.2,2.8-14.4,4.2-21.6C773.2,734.2,780.6,734.2,788,734.2z"/>
	<path fill="#E08870" d="M765.7,734.2c-1.4,7.2-2.8,14.4-4.2,21.6c-2.6,0-5.2,0.1-7.8,0.1c0.2-1.6,0.3-3.3,0.5-4.9
		c0.1-1.3,0.2-2.6,0.2-3.9c-0.2-4.4-0.5-8.7-0.7-13.1c1.4-2.6-2.8-7.6,4.4-8C765.2,725.6,766.3,728.6,765.7,734.2z"/>
	<path fill="#99D100" d="M908.2,506.5c10.7,11.4,3.9,26,6.8,38.8c-1.8,0-3.7,0-5.5,0c0,0-0.3-0.2-0.3-0.2c-8.5-2-17-3.9-25.5-5.9
		c-0.6-0.2-1.2-0.3-1.7-0.5c-0.9-0.5-1.8-0.9-2.6-1.4c-0.8-0.4-1.6-0.8-2.4-1.1c-0.6-1.1-1.2-2.1-1.8-3.2c-0.7-1.6-1.3-3.3-2-4.9
		c4.3-8,8.5-16.1,12.8-24.1c4.3-1.6,8.5-3.2,12.8-4.8c0.3,3.4,0,7.2,5.2,7c1.1-0.1,2.2-0.1,3.3-0.2
		C907.5,506.2,907.9,506.3,908.2,506.5z"/>
	<path fill="#F89F9F" d="M907.2,506c-1.1,0.1-2.2,0.1-3.3,0.2c-1.3-2.6-2.6-5.2-3.9-7.9c-3.9-8.3-8.8-16.4-5-26.2c0.7-2,1.4-4,2-6
		c0,0,0.1-0.1,0.1-0.1c0.3,0,0.6-0.1,0.7-0.4c15.8,3.1,23.8,10.4,15.4,27.3c-0.8,1.7,1.1,4.8,1.8,7.2c-2,1.7-4.1,3.3-6.1,5
		C908.3,505.4,907.7,505.7,907.2,506z"/>
	<path fill="#06287A" d="M867,399c0-3.3,0-6.6,0-9.9c3.4,0.3,6.7,0.7,10.1,1C873.8,393.1,870.4,396,867,399z"/>
	<path fill="#06287A" d="M897,466.1c-0.7,2-1.4,4-2,6c-0.7-2.4-1.3-4.7-2-7.1C894.3,465.4,895.7,465.7,897,466.1z"/>
	<path fill="#E08870" d="M900,498.3c1.3,2.6,2.6,5.2,3.9,7.9c-5.2,0.2-4.9-3.6-5.2-7C899.1,498.9,899.6,498.6,900,498.3z"/>
	<path fill="#1CC393" d="M930.1,508.9c-1.3-1.3-2.7-2.7-4-4C927.4,506.3,928.8,507.6,930.1,508.9z"/>
	<path fill="#1CC393" d="M926.1,504.9c-1-0.6-2-1.2-3.1-1.8C924,503.7,925,504.3,926.1,504.9z"/>
	<path fill="#1CC393" d="M932.9,513c-0.6-0.8-1.1-1.7-1.7-2.5C931.8,511.4,932.3,512.2,932.9,513z"/>
	<path fill="#1CC393" d="M934.9,518c-0.2-0.8-0.4-1.6-0.6-2.4C934.4,516.4,934.6,517.2,934.9,518z"/>
	<path fill="#06287A" d="M897.8,465.6c-0.1,0.3-0.4,0.4-0.7,0.4C897.4,465.8,897.6,465.7,897.8,465.6z"/>
	<path fill="#00CE8E" d="M934,515c-0.3-0.5-0.5-0.9-0.8-1.4C933.4,514.1,933.7,514.5,934,515z"/>
	<path fill="#FAC85C" d="M873.1,528.1c0.7,1.6,1.3,3.3,2,4.9c-0.1,0.5-0.3,1.1-0.4,1.6c-0.2,0-0.4,0.1-0.6,0.2c-1-1.3-2-2.7-3.1-4
		C871.8,529.9,872.5,529,873.1,528.1z"/>
	<path fill="#4777E9" d="M246.8,456c-0.9,1.2-1.8,2.5-2.7,3.7c-2.8-7.7,6.1-19.9-4.4-23.2c-10.3-3.2-22.4-0.6-33.7-0.6
		c0-0.3,0-0.6,0-0.9c0-10.6,0-21.3,0-31.9c0-39.9,0-39.9,40.4-39.1c-0.2,30-0.3,60-0.5,90C246.3,454.8,246.5,455.4,246.8,456z"/>
	<path fill="#6DA0F5" d="M246.8,456c-0.3-0.6-0.5-1.2-0.8-1.9c0.6,0,1.3-0.1,1.9-0.1C247.5,454.7,247.2,455.4,246.8,456z"/>
	<path fill="#E08870" d="M311.1,554c-0.1-0.7-0.3-1.4-0.4-2.1c2.1-6.3,4.2-12.6,6.3-18.8c10-4.7,20-9.4,30-14
		c4.3,0.7,8.5,1.5,12.8,2.2c0.1,3.3,0.3,6.7,0.4,10c0.2,4,0.4,8,0.6,12.1c0.1,3.2,0.3,6.5,0.4,9.7C344.7,560.3,327.9,557,311.1,554z
		"/>
	<path fill="#06287A" d="M317,533c-2.1,6.3-4.2,12.6-6.3,18.8c-1.6-5.4-3.2-10.7-4.9-16.1C309.6,534.8,313.3,533.9,317,533z"/>
	<path fill="#153D99" d="M314,515.9c0.2,1.6,0.4,3.2,0.6,4.8c-1.4,0.2-2.7,0.4-4.1,0.5C311.6,519.4,312.8,517.7,314,515.9z"/>
	<path fill="#99D100" d="M529,422.3c-28.1,0.1-56.3,0.5-84.4,0.2c-7.5-0.1-13-5.2-14.2-12.3c-1.4-8-1.4-16.5,8.5-20.3
		c27.7-0.3,55.5-0.6,83.2-0.9C525,400,538.9,408.6,529,422.3z M490,401c-0.3,0-0.7,0-1-0.1c-0.7,0-1.4,0-2.1,0c-3.3,0-6.6,0-9.9,0
		c-9.5,0.1-18.9,0.2-28.4,0.3c-1,1.2-2.1,2.5-3.1,3.7c0,0.7,0.1,1.5,0.1,2.2c-0.1,0.1-0.2,0.3-0.2,0.3c0.1,0.2,0.3,0.4,0.4,0.6
		c11,0.7,22.1,1.5,33.1,2.2c4,0,8-0.1,12-0.1c0.2-0.3,0.3-0.6,0.3-0.9c0.3,0,0.5-0.1,0.7-0.4c0.3-0.3,0.5-0.5,0.8-0.8
		c0.3-0.2,0.4-0.5,0.4-0.8c0.1-0.4,0.3-0.8,0.4-1.2c-0.8-1.4-1.6-2.8-2.4-4.2c-0.4-0.1-0.8-0.2-1.2-0.4
		C489.9,401.3,489.9,401.1,490,401z"/>
	<path fill="#8FB504" d="M529,422.3c10-13.7-4-22.3-7-33.3c27.3,0,54.7,0,82,0l0,0c1.7,1,3.4,2,5.1,3c0,0,0,0,0,0
		c0.3,0.4,0.7,0.7,1,1.1l0,0c0.7,1,1.4,2,2,3c0,0,0,0,0,0c0.3,5.2,0.7,10.4,1,15.6c0,0,0,0.4,0,0.4c-0.7,1.3-1.4,2.7-2.1,4
		c-0.3,0.4-0.6,0.7-0.9,1.1c-0.4,0.3-0.7,0.7-1.1,1c0,0,0,0,0,0c-0.4,0.3-0.7,0.7-1.1,1l0,0c-0.6,0.4-1.3,0.8-1.9,1.2
		c0,0,0.1-0.1,0.1-0.1c-0.4,0.3-0.8,0.5-1.2,0.8l-0.3,0.3c0,0-0.4,0-0.4,0c-0.8,0.3-1.5,0.5-2.3,0.8c-4,0.1-8,0.2-12,0.3
		c-0.7,0-1.3,0-2,0C568.3,422.3,548.6,422.3,529,422.3z"/>
	<path fill="#D0EAFB" d="M428.2,479.1c1.7-2.4,3.3-4.8,5-7.2c102.6,0,205.2,0,307.8,0.1c2.4,0,4.9,1.1,7.3,1.7
		c-1.1,2.8-2.2,5.5-3.2,8.3c-1-0.7-2-1.9-2.9-1.9c-30.6-0.1-61.1,0-91.7-0.1C576.3,479.8,502.3,479.4,428.2,479.1z"/>
	<path fill="#010361" d="M745.1,482.1c1.1-2.8,2.2-5.5,3.2-8.3c11.1-10.6,22.3-15.1,33.9-0.8c-0.8,2-1.5,4.1-2.3,6.1
		c-21.6,4.4-28.8,24-15.1,41.1c1.4,2.6,2.9,5.3,4.3,7.9c-1.1,5.3-2.1,10.6-3.2,15.9c1.6-11-0.9-23.6-9.9-27.1
		c-7.8-3.1-11.1,9.3-13.8,16.8c-0.8,2.1-1,4.4-1.5,6.6c-6.1,0.6-9.6-3.5-13.1-7.4c-0.6-1.6-1.1-3.3-1.7-4.9c0-0.6-0.1-1.3-0.1-1.9
		c0-0.7-0.1-1.4-0.1-2.1c0.2-2.4,0.5-4.8,0.7-7.2c0.9-1.6,1.9-3.2,2.8-4.7c2.6-3.3,5.2-6.7,7.9-10c0.3-0.4,0.6-0.7,0.9-1.1
		c1.4-3,2.8-5.9,4.2-8.9C743.1,488.8,744.1,485.4,745.1,482.1z"/>
	<path fill="#1A2933" d="M765.9,544c1.1-5.3,2.1-10.6,3.2-15.9c2.6,0.7,5.2,1.5,7.8,2.2c6.5,0.6,1.6-7.2,6-8.2
		c2.4,2.8,4.7,5.6,7.1,8.4c0.2,0.2,0.5,0.4,0.7,0.7c2,6,4.1,12.1,6.1,18.2c-1.2,4.2-2.4,8.4-3.7,12.6c-11.4,6.6-24,7.9-36.8,9
		c1.2-7,2.3-13.9,3.5-20.9c1.7-1.7,3.5-3.3,5.2-5C765.5,544.7,765.7,544.3,765.9,544L765.9,544z"/>
	<path fill="#D0EAFB" d="M587.9,455c-15.7,0-31.3,0.1-47-0.2c-1.7,0-3.3-2.5-4.9-3.8c1.6-1.7,3.2-4.7,4.9-4.8
		c31.3-0.3,62.6-0.3,94,0c1.9,0,3.9,3.1,5.8,4.8c-1.9,1.3-3.8,3.8-5.8,3.8C619.2,455.1,603.5,455,587.9,455z"/>
	<path fill="#2F62D1" d="M650,455.4c-1.3-2-2.6-4-3.9-5.9c1.9-1.2,3.9-3.3,5.8-3.3c29.2-0.2,58.5-0.2,87.7-0.1c1.8,0,4.9,1.2,5,2
		c0.1,2.3-1,4.7-1.6,7.1c-28.6,0.1-57.3,0.2-85.9,0.3c-2,0-4,0-6.1,0C650.7,455.4,650.3,455.4,650,455.4z"/>
	<path fill="#2F62D1" d="M444,455.4c-3,0-6,0-9.1,0c-0.3,0-0.7-0.1-1-0.1c-1-2-2-4.1-3-6.1c2.2-1,4.5-2.9,6.7-3
		c29.1-0.3,58.2-0.3,87.3-0.3c0,0,0.5,0.2,0.5,0.2l0.5-0.1c4.6,3.1,4.8,6.2,0,9.3C498.7,455.3,471.4,455.4,444,455.4z"/>
	<path fill="#E08870" d="M764.8,520.2c-13.8-17.1-6.6-36.7,15.1-41.1c0.4,1,0.9,1.9,1.3,2.9c0.3,3.4,0.5,6.7,0.8,10.1
		c0.1,3,0.2,5.9,0.4,8.9c0.9,5.8-10.3,3.8-7,11.1c0.1,0.6,0.3,1.1,0.4,1.7C770.9,513.9,766.2,514.2,764.8,520.2z"/>
	<path fill="#D0EAFB" d="M771.5,455.7c-6.1-3.6-20.6,1.2-18.1-3.8c5.6-11.6,20.1-2.4,30.7-4.7c3.1-0.7,9.4-0.2,7.5,4
		C787.4,460.1,778,452.3,771.5,455.7z"/>
	<path fill="#1CC393" d="M604,389c-27.3,0-54.7,0-82,0c-27.7,0.3-55.5,0.6-83.2,0.9c2.6-0.7,5.3-2,7.9-2
		c51.8-0.2,103.5-0.2,155.3-0.2c0,0,0.4,0.2,0.4,0.2l0.5-0.1C603.3,388.2,603.7,388.6,604,389z"/>
	<path fill="#D0EAFB" d="M782.3,501c-0.1-3-0.2-5.9-0.4-8.9c3.9,0.8,10.5-2.8,10.7,4.3C792.9,503.6,786.2,500.2,782.3,501z"/>
	<path fill="#D0EAFB" d="M781.1,482c-0.4-1-0.8-1.9-1.3-2.9c0.8-2,1.5-4.1,2.3-6.1c3.7-1,8.8-2.5,9.5,2.6
		C792.5,483.1,784.9,480.2,781.1,482z"/>
	<path fill="#D0EAFB" d="M657.1,455.4c28.6-0.1,57.3-0.2,85.9-0.3C714.3,455.2,685.7,455.3,657.1,455.4z"/>
	<path fill="#D0EAFB" d="M444,455.4c27.3-0.1,54.6-0.1,81.9-0.2C498.7,455.3,471.4,455.4,444,455.4z"/>
	<path fill="#DAF3FC" d="M775.7,513.7c-0.1-0.6-0.3-1.1-0.4-1.7c11.7,1,22.2,3.1,15.5,19.1c-0.2-0.2-0.5-0.4-0.7-0.7
		c0.4-8.2-1.2-14.9-11.1-15.9c-0.8-0.3-1.5-0.5-2.3-0.8C776.4,513.8,776,513.8,775.7,513.7z"/>
	<path fill="#1CC393" d="M613.1,411.6c-0.3-5.2-0.7-10.4-1-15.6C612.4,401.1,612.7,406.4,613.1,411.6z"/>
	<path fill="#1CC393" d="M609.1,392c-1.7-1-3.4-2-5.1-3C605.7,390,607.4,391,609.1,392z"/>
	<path fill="#1CC393" d="M611,416c0.7-1.3,1.4-2.7,2.1-4C612.4,413.3,611.7,414.6,611,416z"/>
	<path fill="#1CC393" d="M612.1,396c-0.7-1-1.4-2-2-3C610.7,394,611.4,395,612.1,396z"/>
	<path fill="#1CC393" d="M588,422.3c0.7,0,1.3,0,2,0C589.3,422.3,588.7,422.3,588,422.3z"/>
	<path fill="#1CC393" d="M602,421.9c0.8-0.3,1.5-0.5,2.3-0.8C603.6,421.4,602.8,421.7,602,421.9z"/>
	<path fill="#1CC393" d="M606.1,420.2c0.6-0.4,1.3-0.8,1.9-1.2C607.4,419.4,606.7,419.8,606.1,420.2z"/>
	<path fill="#1CC393" d="M605,420.9c0.4-0.3,0.8-0.5,1.2-0.8C605.8,420.4,605.4,420.6,605,420.9z"/>
	<path fill="#1CC393" d="M608,419c0.4-0.3,0.7-0.7,1.1-1C608.7,418.4,608.4,418.7,608,419z"/>
	<path fill="#D0EAFB" d="M434,455.2c0.3,0,0.7,0.1,1,0.1C434.7,455.3,434.3,455.3,434,455.2z"/>
	<path fill="#1CC393" d="M609,418.1c0.4-0.4,0.7-0.7,1.1-1C609.7,417.4,609.4,417.7,609,418.1z"/>
	<path fill="#D0EAFB" d="M650,455.4c0.3,0,0.7,0,1,0.1C650.7,455.4,650.3,455.4,650,455.4z"/>
	<path fill="#1CC393" d="M610,393c-0.3-0.4-0.7-0.7-1-1.1C609.4,392.3,609.7,392.6,610,393z"/>
	<path fill="#D0EAFB" d="M603,387.8l-0.5,0.1c0,0-0.4-0.2-0.4-0.2C602.3,387.7,602.7,387.8,603,387.8z"/>
	<path fill="#DAF3FC" d="M526,445.9l-0.5,0.1c0,0-0.5-0.2-0.5-0.2C525.3,445.8,525.7,445.9,526,445.9z"/>
	<path fill="#E08870" d="M811.2,553.1c-1.9,8.5-5.4,15.6-15.3,16.9c-14.8,5.2-28.1,15.1-44.8,14c-3.4-1.3-6.7-2.6-10.1-3.9
		c-0.5-4.4-1-8.7-1.4-13.1c0.1-0.4,0.1-0.8,0.2-1.2c-0.1-2.9-0.1-5.9-0.2-8.8c0.1-2.7,0.3-5.4,0.4-8.1c6.6,0.4,13.3,0.8,19.9,1.2
		c-1.2,7-2.3,13.9-3.5,20.9c12.7-1.1,25.4-2.4,36.8-9C799.2,559,805.2,556,811.2,553.1z"/>
	<path fill="#DAF3FC" d="M826.1,530.1c-1.4,0-2.7,0-4.1-0.1c1.2-2.2,2.4-4.5,3.7-6.7c1.2,1.8,2.3,3.7,3.5,5.5
		C828.2,529.2,827.1,529.6,826.1,530.1z"/>
	<path fill="#1A2933" d="M376.4,531c0.5,34.2,0.9,68.2,6,102.5c3,20.3-8,43.1-6.5,65.7c0.5,8,2.8,10.2,10.4,10.2
		c115.3-0.1,230.6,0,345.9,0c6.3,0.2,12.6,0.4,18.9,0.6c-0.5,4.6,5.9,12.7-3.9,12.8c-128,0.3-255.9,0.2-383.9,0.2
		c0.1-6.6,0.3-13.3,0.4-19.9c0-1,0-2,0-3.1c0-1.6,0-3.3,0-4.9c0-2.3,0-4.7,0-7c-0.1-0.7-0.1-1.5-0.2-2.2c-0.5,0.7-1,1.5-1.5,2.2
		c-2.1,5.3-4.1,10.6-6.2,15.9c0,0,0.1,0,0.1,0c-0.7,0.3-1.3,0.7-2,1l-0.1,0c-3.3-0.7-6.6-1.4-9.9-2.1c-0.3-0.6-0.7-1.1-1-1.7
		l-0.1-0.2c-0.2-0.6-0.4-1.3-0.7-1.9c0.1-0.7,0.1-1.4,0.2-2.2c0.1-0.1,0.2-0.2,0.2-0.3c-0.1-0.2-0.2-0.4-0.3-0.6
		c0-0.4-0.1-0.7-0.1-1.1c0.6-2.7,1.2-5.3,1.7-8c0,0,0.1-0.1,0.1-0.1c0.3-1.6,0.7-3.2,1-4.8c1.8-11.4,3.6-22.7,5.4-34.1
		c1.4-6.4,4.8-12.7,0.8-19.4c-1.7-4.3-3.4-8.7-5.2-13c-0.6,4.1-1.4,8.2-1.8,12.4c-0.3,3.6-0.1,7.3-0.2,11l-0.2,0.1
		c-0.1,3.3-0.2,6.6-0.3,9.8c-1.2,15.7-2.3,31.5-3.5,47.2c-0.6,2.3-1.3,4.7-1.9,7c-3.7,0.4-7.5,0.8-11.2,1.2c-1-2.8-1.9-5.5-2.9-8.3
		c-0.4-3.6-0.8-7.3-1.2-10.9c-0.2-0.7-0.5-1.4-0.7-2.1c-0.4-3.9-0.9-7.9-1.3-11.8c-0.2-0.7-0.5-1.4-0.7-2.2c-0.7-4.7-1.3-9.3-2-14
		c0,0,0,0,0,0c-1.3-9.7-2.6-19.3-4-29c-1.2-8.9-2.4-17.9-3.6-26.8c-0.6-15.1-8.5-30.2,0.6-45.1c16.8,3,33.5,6.3,50.1-1
		c1.2,1.9,2.4,3.8,3.7,5.6c0-2.8,0.1-5.7,0.1-8.5c0-9.6,0-19.3,0.1-28.9c1,0.1,2,0.2,2.9,0.3c2.7,2.8,5.5,5.7,8.2,8.5
		C376.3,530.3,376.3,530.7,376.4,531z"/>
	<path fill="#F89F9F" d="M376.2,530c-2.7-2.8-5.5-5.7-8.2-8.5c16.7-0.4,30.5-6.8,41.1-19.7c-4.3,16.7-13,28.5-32.2,28.4
		C376.7,530,376.4,530,376.2,530z"/>
	<path fill="#06287A" d="M365.1,521.1c0,9.6,0,19.3-0.1,28.9c0,2.8-0.1,5.7-0.1,8.5c-1.2-1.9-2.4-3.8-3.7-5.6
		c-0.1-3.2-0.3-6.5-0.4-9.7c-0.2-4-0.4-8-0.6-12.1c-0.1-3.3-0.3-6.7-0.4-10C361.6,521.2,363.3,521.1,365.1,521.1z"/>
	<path fill="#2F62D1" d="M206,435.1c0,0.3,0,0.6,0,0.9c0,16.3-0.1,32.6-0.1,49c0.7,20.1,1.4,40.1,2.2,60.2c0.1,3.7-1,3.6-4.7,4.2
		c-19.4,3.3-11,19.4-13.4,30.7c-1,7.3-2,14.7-3,22c-1-1.3-2-2.5-3.1-3.8c0.7-1.7,2-3.3,2.1-5c0.7-45.9,2-91.7,1.5-137.6
		C187.3,441,189.3,432.6,206,435.1z"/>
	<path fill="#010361" d="M183.9,598.3c1,1.3,2,2.5,3.1,3.8c5.3,7.7,10.6,15.3,15.9,23c1.4,3.3,2.8,6.6,4.2,10
		c-0.6,0.2-1.2,0.5-1.8,0.7c-1.7-0.2-3.4-0.4-5.1-0.5c-1.7-0.1-3.3-0.1-5-0.2c-2,0-4.1,0-6.1,0c-1,0-1.9,0.1-2.9,0.1
		c-1.3,0.2-2.6,0.3-3.9,0.5c-0.7,0.1-1.4,0.2-2.1,0.2c-2.7,0.5-5.4,0.9-8,1.4c-1.3-4.4-2.6-8.9-3.9-13.3c-1.5-6.4-3-12.7-4.5-19.1
		c-0.5-6-1-11.9-1.5-17.9c1.4-0.8,2.7-1.5,4.1-2.3C172,589.2,178,593.7,183.9,598.3z"/>
	<path fill="#4777E9" d="M166.1,584.7c-1.4,0.8-2.7,1.5-4.1,2.3c-0.3-28.9-0.6-57.7-0.7-86.6c0-0.8,2.4-1.6,3.6-2.4
		c0.7,1.5,2,2.9,2,4.4C166.8,529.9,166.4,557.3,166.1,584.7z"/>
	<path fill="#153D99" d="M205.9,485c0-16.3,0.1-32.6,0.1-49c11.3-0.1,23.5-2.7,33.7,0.6c10.5,3.3,1.6,15.5,4.4,23.2
		c-4.6,12.9-8.5,26.1-14.1,38.6c-2.4,5.4-4.9-1.2-6.3-2.6C218.6,490.5,214.4,484.3,205.9,485z"/>
	<path fill="#1A2933" d="M260,554.2c-1.6-0.5-3.3-1-4.9-1.5c3.3-15.2-10.1-21.3-17-30.9c-0.9-1.3-1.2-3-1.8-4.5
		c0.4,0,0.9-0.2,1.2-0.1c14.6,5.1,16.7,2.8,14.4-15.5c-0.5-3.8-0.8-7.6-0.9-11.4c-0.2-6.2-0.1-12.3-0.2-18.5
		c0.9,5.9,2.1,11.7,2.7,17.6C255.8,511.1,257.9,532.6,260,554.2z"/>
	<path fill="#153D99" d="M202.9,625.1c-5.3-7.7-10.6-15.3-15.9-23c1-7.3,2-14.7,3-22c0.3,0,0.6-0.1,1-0.1c3.7,6,7.4,12,11.1,18.1
		C202.3,607,202.6,616.1,202.9,625.1z"/>
	<path fill="#06287A" d="M266.8,558.4c-1.3-0.8-2.6-1.5-3.8-2.3c5-3.3,10.1-6.7,15.1-10l0,0C274.2,550.1,270.5,554.3,266.8,558.4z"
		/>
	<path fill="#1CC393" d="M305,594c-0.3-0.3-0.6-0.7-1-1C304.3,593.3,304.7,593.7,305,594z"/>
	<path fill="#1CC393" d="M304,593c-0.3-0.3-0.7-0.7-1-1C303.4,592.3,303.7,592.6,304,593z"/>
	<path fill="#06287A" d="M278,546c0.1-0.1,0.1-0.2,0.2-0.4C278.1,545.8,278,545.9,278,546C278,546,278,546,278,546z"/>
	<path fill="#1CC393" d="M303,592c-0.3-0.4-0.7-0.7-1-1.1C302.4,591.2,302.7,591.6,303,592z"/>
	<path fill="#1CC393" d="M296,704.9c-0.4-0.3-0.8-0.5-1.2-0.8C295.2,704.4,295.6,704.6,296,704.9z"/>
	<path fill="#1C919D" d="M205.2,635.8c0.6-0.2,1.2-0.5,1.8-0.7c-0.1,0.3-0.1,0.7,0,1C206.4,635.9,205.8,635.8,205.2,635.8z"/>
	<path fill="#1C919D" d="M186,635.2c1,0,1.9-0.1,2.9-0.1C188,635.1,187,635.2,186,635.2z"/>
	<path fill="#1C919D" d="M180,635.9c0.7-0.1,1.4-0.2,2.1-0.2C181.5,635.8,180.7,635.9,180,635.9z"/>
	<path fill="#010361" d="M836.7,554c0.1-2.7,0.2-5.3,0.2-8c4.8,3.6,9.5,7.2,14.3,10.8c-0.2,23.7-0.3,47.4-0.5,71.1
		c-0.2,17-0.3,34-0.5,51c0,0.8,0,1.6,0,2.4c0,13.2-0.1,26.5-0.1,39.7c-15.6,0.7-31.2,1.4-46.7,2.1c-2.2,0.1-4.3,0.1-6.5,0.1
		c-0.1-2.9-0.1-5.8-0.2-8.7c0.1-1.4,0.2-2.9,0.3-4.3c0.6-0.2,1.1-0.4,1.7-0.6c1.9,0,3.7,0,5.6,0c4.1,0,8.2,0,12.3-0.1
		c2.5,0,5.1,0,7.6,0c1.5,0,2.9,0,4.4,0c0.8,0,1.7-0.1,2.5-0.1c0.2,0,0.4,0,0.5-0.1c5.7-1.8,4.9-7.1,5-11.1c0.2-47.1,0-94.1,0-141.2
		C836.7,556,836.7,555,836.7,554z"/>
	<path fill="#99D100" d="M898.1,552.8c-4.5,12.2-6.1,24.1,3.8,34.7c-0.9,0-1.7,0-2.6,0c-3.8,0.1-7.5,0.2-11.3,0.2
		c-1.3-0.1-2.7-0.3-4-0.4c-0.4,0-0.7-0.1-1.1-0.1c-4.6-1.4-9.2-2.9-13.8-4.3c0.6-7.3,1.3-14.7,1.9-22
		C871.4,529.3,887.1,549.1,898.1,552.8z"/>
	<path fill="#1C919D" d="M850.7,627.8c0.2-23.7,0.3-47.4,0.5-71.1c2,1.3,3.9,2.7,5.9,4c2.3,17.1,4.6,34.2,6.9,51.3
		c-0.1,8.3-0.1,16.6-0.2,24.9C859.5,633.9,855.1,630.9,850.7,627.8z"/>
	<path fill="#1C919D" d="M871,560.9c-0.6,7.3-1.3,14.7-1.9,22c-1,5.6-2.1,11.2-3.1,16.8c-2.2-12.7-4.5-25.3-6.7-38
		C863.1,561.5,867,561.2,871,560.9z"/>
	<path fill="#06287A" d="M859.2,561.8c2.2,12.7,4.5,25.3,6.7,38c-0.6,4.1-1.3,8.2-1.9,12.2c-2.3-17.1-4.6-34.2-6.9-51.3
		C857.8,561.1,858.5,561.4,859.2,561.8z"/>
	<path fill="#1BE190" d="M883.7,539.2c8.5,2,17,3.9,25.5,5.9c0,0,0.2,0.3,0.2,0.3C900.8,543.3,892.3,541.2,883.7,539.2z"/>
	<path fill="#6DA0F5" d="M920.6,545.7c0.7-1.7,1.4-3.3,2.1-5C922,542.4,921.3,544,920.6,545.7z"/>
	<path fill="#1BE190" d="M874.8,534.6c0.1-0.5,0.3-1.1,0.4-1.6c0.6,1.1,1.2,2.1,1.8,3.2C876.2,535.7,875.5,535.1,874.8,534.6z"/>
	<path fill="#1BE190" d="M879.3,537.3c0.9,0.5,1.8,0.9,2.6,1.4C881.1,538.2,880.2,537.8,879.3,537.3z"/>
	<polygon fill="#6DA0F5" points="909.4,545.4 909.2,545 909.5,545.3 	"/>
	<path fill="#E08870" d="M907.2,506c0.6-0.3,1.2-0.6,1.7-0.9c-0.2,0.4-0.4,0.9-0.7,1.3C907.9,506.3,907.5,506.2,907.2,506z"/>
	<path fill="#1C919D" d="M889.4,735c-0.1-2.9-0.2-5.8-0.2-8.8c0.3-6.7,0.6-13.5,0.9-20.2c0.3,0,0.6,0,0.9,0
		c3.6,6.7,7.3,13.4,10.9,20c0.4,3,0.7,6.1,1.1,9.1C898.4,735.1,893.9,735,889.4,735z"/>
	<path fill="#153D99" d="M875,717c-1.5,2-3.1,3.9-4.6,5.9c0.8-4.6,1.7-9.2,2.5-13.8C873.6,711.7,874.3,714.4,875,717z"/>
	<path fill="#1C919D" d="M888,587.7c3.8-0.1,7.5-0.2,11.3-0.2C895.5,587.6,891.8,587.7,888,587.7z"/>
	<path fill="#06287A" d="M891,706c-0.3,0-0.6,0-0.9,0c-0.1-0.5-0.2-1-0.3-1.5C890.2,705,890.6,705.5,891,706z"/>
	<path fill="#06287A" d="M864,655c-0.2-0.4-0.4-0.7-0.6-1.1C863.6,654.3,863.8,654.7,864,655z"/>
	<path fill="#1C919D" d="M882.9,587.2c0.4,0,0.7,0.1,1.1,0.1C883.6,587.3,883.2,587.3,882.9,587.2z"/>
	<path fill="#D0EAFB" d="M889.4,735c4.5,0.1,9,0.1,13.5,0.2c3.8,7.5-2.7,8.9-6.9,11.6c-2.2,0.4-4.4,0.7-6.7,1.1
		C889.4,743.6,889.4,739.3,889.4,735z"/>
	<path fill="#06287A" d="M850.2,681.2c0-0.8,0-1.6,0-2.4c4.7-1.5,9.5-3,14.2-4.5C859.7,676.6,855,678.9,850.2,681.2z"/>
	<path fill="#1A2933" d="M797.1,710.1c-0.1,1.4-0.2,2.9-0.3,4.3c-3.8-0.1-7.7-0.2-11.5-0.3c-0.7-1.4-1.5-2.7-2.2-4.1
		c0-0.3,0-0.6-0.1-0.9c-1.6-7.2-3.1-14.5-4.7-21.7c-0.6-2.8-1.6-5.5-2.4-8.2c-0.6,2.6-1.3,5.2-1.7,7.8c-1.2,6.7-2.2,13.4-3.4,20.1
		c-0.1,0-0.3,0.1-0.3,0.1c0,0.2,0.1,0.4,0.1,0.6c0.2,0.4,0.4,0.9,0.6,1.3c-0.1,0.2-0.1,0.5-0.1,0.8c-0.8,4.1-1.6,8.2-2.4,12.3
		c5.7,0.2,11.5,0.5,17.2,0.7c0.7,3.8,1.5,7.5,2.2,11.3c-7.4,0-14.9,0-22.3,0c0.6-5.6-0.5-8.6-7.5-8.2c-7.2,0.4-3,5.4-4.4,8
		c-0.3,0-0.7,0.1-1,0.1c-0.2-0.2-0.4-0.2-0.6,0c-129.6,0-259.2,0-388.9,0c-0.7-0.1-1.5-0.1-2.2-0.1c0-0.3,0-0.6,0-0.9
		c0.8-3.4,1.6-6.8,2.3-10.2c128,0,255.9,0.2,383.9-0.2c9.8,0,3.4-8.2,3.9-12.8c0-0.3-0.1-0.5-0.2-0.8c-2.3-33.8-4.6-67.5-7-101.3
		c0.2-2.5,0.4-5.1,0.7-7.6c0.8-3.4,1.6-6.9,2.4-10.3c1.3-2,2.7-4.1,4-6.1c16.7,1.1,30-8.8,44.8-14c-0.1,23.2-0.2,46.4-0.4,69.6
		c-0.1,3.1-0.2,6.1-0.3,9.2c0.2,9,0.5,18,0.7,27c0.4,11.2,0.8,22.4,1.1,33.5C797,709.6,797,709.9,797.1,710.1z"/>
	<path fill="#010361" d="M783,710c0.7,1.4,1.5,2.7,2.2,4.1c0.2,2.9,0.4,5.9,0.6,8.8c-5.7-0.2-11.5-0.5-17.2-0.7
		c0.8-4.1,1.6-8.2,2.4-12.3c0.6-0.2,1.2-0.4,1.8-0.6c0.8,0,1.6,0,2.4,0c0.2,0,0.4,0,0.6,0c1.5,0,2.9,0,4.4,0
		C781.1,709.6,782,709.8,783,710z"/>
	<path fill="#E08870" d="M874.6,748.2c4.6,0,9.2,0,13.7-0.1C883.7,748.2,879.2,748.2,874.6,748.2z"/>
	<path fill="#010361" d="M361,733.1c0,0.3,0,0.6,0,0.9c-0.1,0.2-0.1,0.5,0,0.7c-11.7-0.3-23.4-0.5-35.1-0.8c1-3.8,2-7.5,3.1-11.3
		c3.4-0.8,9.5,9.3,10.2-2.5c0.7-0.1,1.3-0.2,2-0.2c3.2,0.2,6.5,0.3,9.7,0.5C354.2,724.6,357.6,728.9,361,733.1z"/>
	<path fill="#F89F9F" d="M339.1,720.1c-0.7,11.8-6.8,1.7-10.2,2.5c-0.7-6.2-1.3-12.3-2-18.5c3.7-0.4,7.5-0.8,11.2-1.2
		C338.5,708.7,338.8,714.4,339.1,720.1z"/>
	<path fill="#1C919D" d="M314.1,625.9c1.3,9.7,2.6,19.3,4,29C316.8,645.3,315.5,635.6,314.1,625.9z"/>
	<path fill="#1C919D" d="M318.1,655c0.7,4.7,1.3,9.3,2,14C319.4,664.3,318.8,659.6,318.1,655z"/>
	<path fill="#1C919D" d="M320.8,671.1c0.4,3.9,0.9,7.9,1.3,11.8C321.7,679,321.2,675,320.8,671.1z"/>
	<path fill="#1C919D" d="M322.8,685c0.4,3.6,0.8,7.3,1.2,10.9C323.6,692.3,323.2,688.6,322.8,685z"/>
	<path fill="#4777E9" d="M609,751.1c-13.3,0-26.6,0-40,0c-4.1,0-6.3-1.8-6.3-6c0.1-4,2.6-5.4,6.3-5.4c27,0,54,0,80.9,0.1
		c4,0,6.2,1.5,6.1,5.9c-0.1,4.3-2.5,5.4-6.1,5.4C636.3,751.1,622.7,751.1,609,751.1z"/>
	<path fill="#F89F9F" d="M754.4,747.1c-0.1,1.3-0.2,2.6-0.2,3.9C754.3,749.7,754.4,748.4,754.4,747.1z"/>
	<path fill="#153D99" d="M361,734.7c0-0.2,0-0.5,0-0.7c0.7,0,1.5,0.1,2.2,0.2C362.5,734.4,361.7,734.5,361,734.7z"/>
	<path fill="#6DA0F5" d="M752.1,734.1c0.2-0.2,0.4-0.2,0.6,0C752.5,734.1,752.3,734.1,752.1,734.1z"/>
	<path fill="#153D99" d="M360.2,531.2c0.2,4,0.4,8,0.6,12.1C360.6,539.2,360.4,535.2,360.2,531.2z"/>
	<path fill="#1BE190" d="M479.1,410.2c3.7-0.2,7.3-0.4,11-0.5c0.3,0.1,0.6,0.3,1,0.4C487,410.1,483,410.2,479.1,410.2z"/>
	<path fill="#1BE190" d="M487,400.9c-3.3,0-6.6,0-9.9,0C480.3,400.9,483.7,400.9,487,400.9z"/>
	<path fill="#1BE190" d="M448.7,401.2c-1,1.2-2.1,2.5-3.1,3.7C446.6,403.6,447.6,402.4,448.7,401.2z"/>
	<path fill="#D0EAFB" d="M491.2,401.8c-0.4-0.1-0.8-0.2-1.2-0.4C490.4,401.6,490.8,401.7,491.2,401.8z"/>
	<path fill="#D0EAFB" d="M491,410.1c-0.3-0.1-0.6-0.3-1-0.4c0.4-0.2,0.8-0.3,1.2-0.5C491.3,409.5,491.2,409.8,491,410.1z"/>
	<path fill="#1BE190" d="M490,401c-0.3,0-0.7,0-1-0.1C489.3,400.9,489.7,400.9,490,401z"/>
	<path fill="#D0EAFB" d="M492,408.8c0.3-0.3,0.5-0.5,0.8-0.8C492.5,408.3,492.3,408.5,492,408.8z"/>
	<path fill="#1BE190" d="M445.6,407.1c0.2,0.3,0.3,0.6,0.3,0.9c-0.2-0.2-0.3-0.4-0.4-0.6C445.4,407.4,445.6,407.2,445.6,407.1z"/>
	<path fill="#D0EAFB" d="M493.2,407.2c0.1-0.4,0.3-0.8,0.4-1.2C493.4,406.4,493.3,406.8,493.2,407.2z"/>
	<path fill="#D0EAFB" d="M737,501c-9.7,0-19.4,0-29.1,0c-65.3-0.3-130.5-0.6-195.8-0.9c-25.2-0.1-50.4,0-75.6,0
		c-2.8,0-5.4,0-5.5-3.9c0-3.9,2.4-4.1,5.3-4.1c102,0.1,203.9,0.1,305.9,0.1c-1.4,3-2.8,5.9-4.2,8.9C737.6,501,737.3,501,737,501z"/>
	<path fill="#D0EAFB" d="M740.7,541.2c-85.8,0.3-171.5,0.6-257.3,0.8c-15,0-30,0.2-45-0.2c-2.4-0.1-6.6-2.6-6.8-4.4
		c-0.6-4.1,3.2-4.4,6.7-4.4c96.5,0,192.9-0.1,289.4-0.1c3.6,3.9,7.1,7.9,13.1,7.4C740.8,540.5,740.7,540.9,740.7,541.2z"/>
	<path fill="#D0EAFB" d="M725.6,524c-2.2-0.7-4.5-1.9-6.7-1.9c-73.3-0.1-146.6-0.1-219.9-0.2c-3,0-7.8,2.1-7.9-3.8
		c-0.1-6,4.7-4.1,7.7-4.1c75.7-0.1,151.5-0.1,227.2-0.1c0.1,1,0.2,1.9,0.4,2.9C726.1,519.2,725.9,521.6,725.6,524z"/>
	<path fill="#FAC85C" d="M740.7,541.2c0.1-0.3,0.1-0.6,0.1-0.9c0.5-2.2,0.8-4.5,1.5-6.6c2.8-7.5,6-19.9,13.8-16.8
		c9,3.5,11.4,16.1,9.9,27.1c0,0,0.1,0,0.1,0c-0.3,0.4-0.5,0.7-0.8,1.1c-1.7,1.7-3.5,3.3-5.2,5c-6.6-0.4-13.3-0.8-19.9-1.2
		C740.3,546.3,740.5,543.7,740.7,541.2z"/>
	<path fill="#FAC85C" d="M775.7,513.7c0.3,0,0.7,0.1,1,0.1c-0.2,5.5,7.9,10.8,0.3,16.4c-2.6-0.7-5.2-1.5-7.8-2.2
		c-1.4-2.6-2.9-5.3-4.3-7.9C766.2,514.2,770.9,513.9,775.7,513.7z"/>
	<path fill="#DAF3FC" d="M726.4,516.8c-0.1-1-0.2-1.9-0.4-2.9c1.1-0.6,2.1-1.2,3.2-1.9C728.2,513.7,727.3,515.2,726.4,516.8z"/>
	<path fill="#D0EAFB" d="M725.9,528c0-0.6-0.1-1.3-0.1-1.9C725.8,526.7,725.8,527.3,725.9,528z"/>
	<path fill="#DAF3FC" d="M737,501c0.3,0,0.6,0,1,0c-0.3,0.4-0.6,0.7-0.9,1.1C737,501.7,737,501.4,737,501z"/>
	<path fill="#FAC85C" d="M778.9,514.6c9.9,1,11.5,7.7,11.1,15.9c-2.4-2.8-4.7-5.6-7.1-8.4C781.6,519.6,780.3,517.1,778.9,514.6z"/>
	<path fill="#010361" d="M778.9,514.6c1.3,2.5,2.6,5,4,7.4c-4.3,1,0.6,8.7-6,8.2c7.6-5.6-0.5-10.9-0.3-16.4
		C777.4,514.1,778.2,514.4,778.9,514.6z"/>
	<path fill="#010361" d="M765.2,545c0.3-0.4,0.5-0.7,0.8-1.1C765.7,544.3,765.5,544.7,765.2,545z"/>
	<path fill="#146390" d="M796,675.9c-0.2-9-0.5-18-0.7-27c0.2,0,0.3,0,0.5-0.2C795.8,657.7,795.9,666.8,796,675.9z"/>
	<path fill="#146390" d="M816.7,709.4c-4.1,0-8.2,0-12.3,0.1C808.5,709.5,812.6,709.4,816.7,709.4z"/>
	<path fill="#4777E9" d="M795.7,648.6c-0.1,0.2-0.3,0.2-0.5,0.2c0.1-3.1,0.2-6.2,0.3-9.2C795.6,642.6,795.7,645.6,795.7,648.6z"/>
	<path fill="#D0EAFB" d="M836.7,554c0,1,0,2,0,3C836.7,556,836.7,555,836.7,554z"/>
	<path fill="#146390" d="M828.7,709.4c-1.5,0-2.9,0-4.4,0C825.8,709.4,827.2,709.4,828.7,709.4z"/>
	<path fill="#146390" d="M797.1,710.1c-0.1-0.2-0.1-0.5,0-0.7c0.6,0,1.1,0.1,1.7,0.1C798.2,709.7,797.6,709.9,797.1,710.1z"/>
	<path fill="#146390" d="M831.8,709.3c-0.2,0-0.4,0-0.5,0.1c0,0,0.2-0.2,0.2-0.2L831.8,709.3z"/>
	<path fill="#D0EAFB" d="M751.1,583.9c-1.3,2-2.7,4.1-4,6.1c-5.4,0-10.7-0.1-16.1-0.1c-78.9,0-157.9,0.1-236.8,0
		c-18.6,0-37.2-0.6-55.9-0.9c-3.2-0.1-7.2,0.4-7-4.1c0.1-4.1,3.6-5,7.3-4.9c63.3,0.4,126.5,0.8,189.8,0.9c37.6,0,75.2-0.6,112.7-0.9
		C744.4,581.3,747.7,582.6,751.1,583.9z"/>
	<path fill="#D0EAFB" d="M739,566c-56.8,0-113.6,0-170.3,0c-3.3,0-7.4,0.7-7.4-4.2c0-4.9,3.9-4.8,7.6-4.8c56.9,0,113.9,0,170.8,0
		c0.1,2.9,0.1,5.9,0.2,8.8C739.5,565.8,739.3,565.9,739,566z"/>
	<path fill="#F89F9F" d="M739,566c0.3-0.1,0.6-0.1,0.8-0.2c-0.1,0.4-0.1,0.8-0.2,1.2C739.4,566.6,739.2,566.3,739,566z"/>
	<path fill="#D0EAFB" d="M744.7,600.4c-0.2,2.5-0.4,5.1-0.7,7.6c-102.1,0-204.2,0.1-306.4-0.1c-1.9,0-3.8-2.3-5.7-3.6
		c1.1-1.4,2.2-4.1,3.3-4.1C538.4,600.1,641.5,600.3,744.7,600.4z"/>
	<path fill="#99D100" d="M432.9,558c39.4-0.2,78.8-0.5,118.2-0.5c1,0,2.9,3.4,2.7,5.1c-0.2,1.5-2.5,4.1-3.9,4.1
		c-38,0.3-75.9,0.3-113.9,0.2c-5.4,0-6.3-3.4-4-7.9C432.3,558.7,432.6,558.3,432.9,558z"/>
	<path fill="#D0EAFB" d="M584,635c-18,0-36,0.1-53.9-0.2c-2,0-5.4-2.4-5.8-4.2c-0.8-3.9,2.5-4.7,5.9-4.7c36.1,0,72.3,0,108.4,0
		c3.3,0,6.8,0.5,6.1,4.4c-0.3,1.9-4,4.4-6.2,4.4C620.3,635.1,602.2,635,584,635z"/>
	<path fill="#99D100" d="M474.4,635.2c-12.5,0-25,0.2-37.4-0.2c-2.1-0.1-4-3.1-6-4.8c2-1.5,4-4.3,6-4.3c24.6-0.3,49.2-0.2,73.8-0.1
		c3.3,0,6.4,0.8,6.3,5.2c-0.1,4.3-3.1,4.3-6.3,4.3C498.6,635.1,486.5,635.1,474.4,635.2z"/>
	<path fill="#99D100" d="M482,515c0.6,1.8,2.2,4.1,1.6,5.4c-0.7,1.4-3.3,2.6-5.1,2.7c-13.8,0.2-27.7,0.3-41.5-0.1
		c-2-0.1-5.3-2.4-5.7-4.3c-0.8-3.7,2.3-5,5.7-5c13.8-0.1,27.6-0.3,41.5-0.4C479.6,513.8,480.8,514.4,482,515z"/>
	<path fill="#153D99" d="M751,709.2c0.1,0.2,0.1,0.5,0.2,0.8c-6.3-0.2-12.6-0.4-18.9-0.6C738.5,709.3,744.7,709.3,751,709.2z"/>
	<path fill="#D0EAFB" d="M482,515c-1.2-0.6-2.4-1.1-3.6-1.7C479.6,513.8,480.8,514.4,482,515z"/>
	<path fill="#DAF3FC" d="M432.9,558c-0.3,0.3-0.6,0.7-0.9,1C432.3,558.7,432.6,558.3,432.9,558z"/>
	<path fill="#6DA0F5" d="M376.2,530c0.3,0,0.5,0,0.8,0.1c-0.2,0.3-0.3,0.6-0.5,0.9C376.3,530.7,376.3,530.3,376.2,530z"/>
	<path fill="#146390" d="M361,733.1c-3.4-4.2-6.8-8.5-10.2-12.7c1-5.1,2.1-10.3,3.1-15.4c0,0,0.1,0,0.1,0c0.7-0.3,1.3-0.7,2-1
		c0,0-0.1,0-0.1,0c2.6-0.3,5.2-0.6,7.8-0.9c-0.1,6.6-0.3,13.3-0.4,19.9C362.5,726.3,361.8,729.7,361,733.1z"/>
	<path fill="#1C919D" d="M340,696.1c1.2-15.7,2.3-31.5,3.5-47.2c0.1-3.3,0.2-6.6,0.3-9.8c0,0,0.2-0.1,0.2-0.1c2,2.6,4.1,5.2,6.1,7.8
		c0.1,0.4,0.2,0.8,0.2,1.2c-1.8,11.4-3.6,22.7-5.4,34.1c-0.3,1.6-0.7,3.2-1,4.8c0,0-0.1,0.1-0.1,0.1c-0.6,2.7-1.2,5.3-1.7,8
		c0,0.4,0.1,0.7,0.1,1.1c-0.1,0.3,0,0.6,0.2,0.8c-0.1,0.7-0.1,1.4-0.2,2.2c-0.4,0.1-0.7,0.1-1.1,0.2
		C340.8,698.2,340.4,697.1,340,696.1z"/>
	<path fill="#F89F9F" d="M353.9,705c-1,5.1-2.1,10.3-3.1,15.4c-3.2-0.2-6.5-0.3-9.7-0.5c0.7-5.6,1.4-11.2,2.1-16.9
		c0.3,0,0.6,0,0.9-0.2C347.3,703.6,350.6,704.3,353.9,705z"/>
	<path fill="#146390" d="M350.1,646.8c-2-2.6-4.1-5.2-6.1-7.8c0-3.7-0.2-7.3,0.2-11c0.4-4.2,1.2-8.3,1.8-12.4
		c1.7,4.3,3.4,8.7,5.2,13C350.7,634.6,350.4,640.7,350.1,646.8z"/>
	<path fill="#146390" d="M343.2,703c-0.7,5.6-1.4,11.2-2.1,16.9c-0.7,0.1-1.3,0.2-2,0.2c-0.3-5.7-0.6-11.4-1-17.1
		c0.6-2.3,1.3-4.7,1.9-7c0.4,1.1,0.7,2.1,1.1,3.2c0.6,0.6,1.1,1.2,1.7,1.7c0,0,0.1,0.2,0.1,0.2C343,701.8,343.1,702.4,343.2,703z"/>
	<path fill="#1C919D" d="M363.7,703c-2.6,0.3-5.2,0.6-7.8,0.9c2.1-5.3,4.1-10.6,6.2-15.9c0.5,0,1.1,0,1.6,0c0,2.3,0,4.7,0,7
		c0,1.6,0,3.3,0,4.9C363.7,701,363.7,702,363.7,703z"/>
	<path fill="#2F62D1" d="M350.1,646.8c0.3-6.1,0.7-12.1,1-18.2c4,6.6,0.7,13-0.8,19.4C350.2,647.6,350.1,647.2,350.1,646.8z"/>
	<path fill="#06287A" d="M342.1,695c0.6-2.7,1.2-5.3,1.7-8C343.3,689.7,342.7,692.3,342.1,695z"/>
	<path fill="#06287A" d="M343.8,639c-0.1,3.3-0.2,6.6-0.3,9.8C343.6,645.6,343.7,642.3,343.8,639z"/>
	<path fill="#06287A" d="M344,686.9c0.3-1.6,0.7-3.2,1-4.8C344.6,683.6,344.3,685.3,344,686.9z"/>
	<path fill="#146390" d="M363.8,700c0-1.6,0-3.3,0-4.9C363.8,696.7,363.8,698.3,363.8,700z"/>
	<path fill="#06287A" d="M342.9,701c-0.6-0.6-1.1-1.2-1.7-1.7c0.4-0.1,0.7-0.1,1.1-0.2C342.4,699.7,342.6,700.3,342.9,701z"/>
	<path fill="#146390" d="M363.8,688c-0.5,0-1.1,0-1.6,0c0.5-0.7,1-1.5,1.5-2.2C363.7,686.6,363.7,687.3,363.8,688z"/>
	<path fill="#06287A" d="M343.2,703c-0.1-0.6-0.1-1.3-0.2-1.9c0.3,0.6,0.7,1.1,1,1.7C343.8,703,343.5,703.1,343.2,703z"/>
	<path fill="#1C919D" d="M356,703.9c-0.7,0.3-1.3,0.7-2,1C354.7,704.6,355.3,704.3,356,703.9z"/>
	<path fill="#06287A" d="M342.4,696.9c-0.2-0.3-0.2-0.5-0.2-0.8c0.1,0.2,0.3,0.4,0.3,0.6C342.6,696.7,342.5,696.8,342.4,696.9z"/>
	<path fill="#146390" d="M780.2,709.4c0.9-0.1,1.8-0.2,2.7-0.3c0.1,0.3,0.1,0.6,0.1,0.9C782,709.8,781.1,709.6,780.2,709.4z"/>
	<path fill="#146390" d="M771.1,709.2c0.6,0.1,1.2,0.1,1.8,0.2c-0.6,0.2-1.2,0.4-1.8,0.6C771,709.7,771,709.4,771.1,709.2z"/>
	<path fill="#146390" d="M770.7,707.1c0.2,0.3,0.1,0.6-0.2,0.8c0-0.2-0.1-0.4-0.1-0.6C770.4,707.2,770.6,707.1,770.7,707.1z"/>
	<path fill="#146390" d="M775.2,709.4l0.3-0.2c0,0,0.3,0.2,0.3,0.2C775.6,709.4,775.4,709.4,775.2,709.4z"/>
</g>
</svg>
