<?xml version="1.0" encoding="utf-8"?>
<!-- Generator: Adobe Illustrator 27.5.0, SVG Export Plug-In . SVG Version: 6.00 Build 0)  -->
<svg version="1.1" id="Ebene_1" xmlns="http://www.w3.org/2000/svg" xmlns:xlink="http://www.w3.org/1999/xlink" x="0px" y="0px"
	 viewBox="0 0 1024 1024" enable-background="new 0 0 1024 1024" xml:space="preserve">
<g id="_x38_UYXd1_00000152951656942126653040000015277651349064072087_">
	<g>
		<path fill="#FFFFFF" d="M1023.9,512.5c0,169.1,0,338.3,0.1,507.4c0,3.4-0.7,4.1-4.1,4.1c-338.6-0.1-677.2-0.1-1015.8,0
			c-3.4,0-4.1-0.7-4.1-4.1C0.1,681.3,0.1,342.7,0,4.1C0,0.7,0.7,0,4.1,0c338.6,0.1,677.2,0.1,1015.8,0c3.4,0,4.1,0.7,4.1,4.1
			C1023.9,173.6,1023.9,343,1023.9,512.5z M157.4,847.5c0.9,0.8,1.7,1.6,2.6,2.4c53.5,55.9,116.6,97.6,189.2,123.7
			c95.1,34.2,192.1,37.9,289.9,11.3c89.2-24.3,165.4-70.5,229-137.7c0.3-0.4,0.7-0.8,1-1.2c10-12,20-23.9,30-35.9
			c0.3-0.3,0.7-0.7,1-1c2-2.6,4-5.2,6-7.8c44-60.5,73.9-127,87.1-200.9c14.7-82.6,10-164.1-16.1-243.7
			c-29.3-89.5-81.2-164.3-153.6-224.6C740.1,62.7,643.9,25.8,535.8,20.2c-70.6-3.7-138.8,8.2-204.5,34.7
			c-71,28.7-132.3,71.6-182.1,129.3C40.4,310.3,3,456,36.3,619.2c13.6,66.7,42,127.2,82.8,181.8c2.1,2.7,4.2,5.5,6.3,8.2
			c0.9,0.3,1.8,0.9,2.7,0.9c125.3-0.1,250.6-0.2,375.9-0.3c9.3,0,18.6,0,28,0.1c0.6,0.1,1.3,0.1,1.9,0.2
			c11,12.1,21.9,24.2,32.9,36.3l-0.1-0.1c-0.8-0.1-1.6-0.4-2.4-0.4c-134.6,0-269.2-0.1-403.7,0C159.4,845.8,158.4,846.9,157.4,847.5
			z"/>
		<path fill="#1A2933" d="M119.1,800.9c-40.8-54.6-69.2-115.1-82.8-181.8C3,456,40.4,310.3,149.2,184.2
			C199,126.5,260.3,83.6,331.3,54.9C397,28.4,465.2,16.5,535.8,20.2c108.1,5.6,204.3,42.5,287.7,111.9
			c72.4,60.3,124.3,135.1,153.6,224.6c26,79.6,30.8,161.1,16.1,243.7c-13.2,73.8-43.1,140.4-87.1,200.9c-1.6-0.8-3.2-2.1-4.8-2.2
			c-10.4-0.9-20.8-1.5-31.3-2.2c0-61.6,0.1-123.3,0.1-184.9c0.1-0.1,0.3-0.2,0.2-0.3c-0.1-0.2-0.2-0.5-0.3-0.7
			c-0.6-11.6-0.1-23.3-1.9-34.7c-9.2-58.3-28.6-115.2-25.4-175.3c6.8-2.1,8.3-7.4,7.1-13.4c-1.2-5.9-6.1-6.6-11.3-6.5
			c-10.5,0.1-21,0.3-31.5-0.1c-6.4-0.2-11.6,1.5-13.7,7.5c-2.1,5.9,2.1,9.7,6.5,12.9c0.7,29.1-1.6,58-6.4,86.7
			c-6.8,40.9-20.9,80.7-17.5,123.1c-0.1,0.3-0.2,0.7-0.3,1c-0.1,0.1-0.3,0.2-0.3,0.3c0.1,0.2,0.2,0.4,0.3,0.7c0,8.4,0,16.8,0,25.2
			c0,1.9,0,3.9,0,5.8c0,36.7,0,73.4,0,110.2c0,4.3,0,8.5,0,12.8c0,10,0,20,0,30c-16.3,0.3-32.5,0.7-48.8,1
			c-3.9-6.2-21,2.7-15.8-13.9c0.2-24.9,0.4-49.8,0.6-74.7c35.1-13.4,50.1-39.7,49.1-76.3c-1.2-10.3,11-26.7-14.1-25.1
			c-25.7,1.7-51.7,2.2-77.2-0.4c-22.5-2.3-28.3,6-24.2,26c1.6,36.7,17.1,63.7,53,76.7c0,19.6,0,39.1,0,58.7
			c-2.2,8.6,4.8,18.7-3.6,26c-3.4,2.9-13.1-3.9-12.9,4.8c0.1,7.8,8.7,2.3,13.2,4.2c0.1,1.7,0.1,3.4,0.2,5.1
			c-24,0.1-47.9,0.1-71.9,0.2c-0.7,0-1.4,0-2.2,0c-2.6,0-5.2,0-7.9,0c-27-0.1-54-0.1-81-0.2c-0.3-3.6-0.6-7.2-0.9-10.9
			c5.3-0.1,10.6-0.1,15.9-0.2c9,0,17.9,0,26.9,0c24.6,0,33.6-13.1,24.9-36c0-16,0.1-32,0.1-48c0.3-18.7,1-37.4,0.9-56
			c-0.1-36-0.5-71.9-0.8-107.9c0-12,0-24,0-36c0-1,0-2,0-3c0-2.7,0-5.3-0.1-8c0.3-3.6,1.3-7.2,0.8-10.7
			c-2.2-16.5,10.3-8.8,16.9-10.2c9.5-2.1,8.3,4.6,8.3,10.5c-0.1,22.8,0.1,45.6-0.2,68.4c-0.1,5,1.6,6.1,6.2,6
			c23.7-0.2,47.4-0.1,71.2-0.1c23.8,0,34.3-15.9,25.5-39c-2.1-19.8,12.5-50.4-28.9-45c-15.9,1.8-28.1,2.1-25.6-21.3
			c2.7-25.7,1-51.8,0.6-77.7c-0.2-14.1-8.9-18.5-21.9-16c-9.8,0-19.6,0.4-29.4,0c-11.9-0.5-21.8,1.5-22.4,16.1
			c-0.4,10.3,0,20.6,0.1,30.9c-0.5,0.5-0.9,0.9-1.4,1.4l0-0.1c-3.4-20.1-17.8-23.3-34.6-22c-18.6,1.4-26.7-5.4-25.6-25.4
			c1.5-26.5,0.9-53.2,0.2-79.8c-0.4-13.5-5.7-24.4-21.9-24.7c-15.5,2.2-21.9,11.6-21.8,26.8c0.2,37.9,0.1,75.9-0.1,113.8
			c0,2-1.2,5.1-2.7,6c-13.9,7.7-20.4,19.2-19.1,35.1c-0.1,24.1-0.1,48.3-0.2,72.4c-44.9,0.2-89.9,0.3-134.8,0.5
			c-10.4,1.3-16.5,8-15.9,17.7c1,15.2-8,34.9,15.7,41.7c11.9,0.3,23.9-0.5,35.6,1.1c7.9,1.1,22.4-8.4,22,10.6c0,2,0,4,0,6
			c0,3.3,0,6.6,0,10c0,3.3,0,6.7,0,10c0,3,0,6,0,9c0,0.7,0,1.3,0,2c0,1,0.1,2,0.1,3c0.1,0.4,0.2,0.7,0.3,1.1
			c-0.3,55.6-0.6,111.2-0.9,166.8c-18.7-0.3-37.4-0.6-56.2-0.9c-0.1-7.7-0.3-15.3-0.4-23c0-9.7,0-19.3,0-29
			c-1.1-22,7.2-47.2-14.6-63c-11-8-15.3-15.7-13.4-28.1c2-10.5,5.1-21.8-12.5-19.9c-16.8,0.6-31.3-1.4-26.4-24.3
			c0.6-10.1-0.8-19.7-13.4-20.3c-14.6-0.7-29.3,0-43.9,0c-8.2-0.6-16.4-1.2-24.6-1.8c1.1-2.5,2.3-5.1,3.4-7.6
			c-6.4-1.6-12.7-3.2-19.1-4.9c-1.2-0.1-2.3-0.2-3.5-0.3c-0.3-13.8-12-14.3-21-17.9c-4.3-3-4.2,1.4-4.3,3.1
			c-1.6,17.1-7,30.9-26.7,33.6c-0.8,0.1-1.5,1.1-2.3,1.6c1.2,1.1,2.2,2.5,3.6,3.2c11,5.5,19.4,11.4,14.9,26.5
			c-1,3.3-8.1,12.9,3.2,15.8c4.3,1.1,8.6,2.2,12.9,3.3c0.1,51.3,0.1,102.5,0.2,153.8C140.5,799.8,129.2,794.4,119.1,800.9z
			 M588,214.3c-9.1-7.8-18.7-9.8-27.3-0.1c-8.5,9.6-7.5,19.7,1.3,29c8.9,7.5,18.2,6.9,26-0.8C596.8,233.6,596.9,223.7,588,214.3z
			 M439.1,165c-0.3-0.7-0.5-1.4-0.8-2.2c-9.3-21-26.3-31.1-48.4-29.2c-21.7,1.8-36.7,14.1-42.2,36.2c-0.2,0.5-0.3,0.9-0.5,1.4
			c-0.4,1.6-0.7,3.1-1.1,4.7c-1.8,22.5,7.2,39.4,27.4,49.1c20.8,10,40,5.5,55.9-10.8C443.1,200.3,445.7,183.4,439.1,165
			C439.1,165,439.1,165,439.1,165z M453.1,351.9c-7.4-22.2-23.5-31.2-45.5-27c-22.1,4.3-30.9,20.3-30.4,42c0.3,1.1,0.7,2.1,1,3.2
			c0.1,0.6,0.1,1.2,0.2,1.7c0.2,0.8,0.5,1.5,0.7,2.3c0.1,0.6,0.1,1.2,0.2,1.8c0.2,0.4,0.5,0.8,0.7,1.1c0.4,1.3,0.8,2.6,1.3,3.9
			c0.3,0.4,0.5,0.7,0.8,1.1c0.7,1,1.3,2,2,3c8.3,13.7,21,19.1,36.1,16.9c16.9-2.4,29.3-11.4,33.4-29.2c0.4-2.1,0.7-4.3,1.1-6.4
			c-0.1-2.8-0.2-5.6-0.3-8.4c-0.2-0.9-0.3-1.8-0.5-2.7C453.7,354,453.4,353,453.1,351.9z M244.3,490c47.9-0.4,98.7-41.4,94.4-106.3
			c-3.3-49.6-43.9-79.4-121.2-82.4c-26.9-1.1-69.4,52.8-69.5,87.8C148,446.3,189.7,490,244.3,490z M743.2,233.5
			c-0.4-19.8-12.6-28.7-30.4-29.1c-18.9-0.4-30.7,11.1-30.4,29.7c0.3,18.8,11.3,31.3,31.5,30.9C733.5,264.5,742.7,252.8,743.2,233.5
			z M773.3,386.7c-1.8-14.7-10.1-24-25.6-24.3c-15.2-0.4-24.2,9.3-24.2,23.5c-0.1,14.9,8.1,26.8,24.6,26.7
			C763.4,412.6,772,403.1,773.3,386.7z M828.1,312.7c-0.3-13.5-8.1-21.3-21.8-21.4c-13.5-0.1-21.2,8.1-21.3,21.6
			c-0.1,14,7.6,22.9,21.7,22.8C820.1,335.6,827.9,327.7,828.1,312.7z M550.2,143.3c0.1-11.5-5.1-17.3-15.3-17.1
			c-9.8,0.2-14.8,6.8-14.7,16c0.1,9.2,5.3,15.7,14.9,15.7C544.7,157.8,550.6,152.7,550.2,143.3z M619.6,278.9
			c-8.1,0.1-12.5,4.4-12.4,11.2c0,6.5,4.3,11.1,11.4,11.1c7,0,11.3-3.8,11.4-11C630,283.1,626.2,279.2,619.6,278.9z M298.2,248.2
			c-0.4-5.9-3.3-10-9.7-10.1c-6.3-0.1-10.4,3.3-10.6,9.9c-0.1,5.8,2.3,10.8,8.8,10.8C293,258.8,297.7,255.6,298.2,248.2z
			 M738.3,456.9c-0.5,8.8,3.1,12.8,9,12.7c5.2-0.1,10-3,9.9-9.6c-0.1-6.1-3.4-9.5-9.4-9.9C741.4,449.7,738.8,453.5,738.3,456.9z
			 M259.8,524.9c-6.9,0.2-10.7,3.3-10.9,9.6c-0.3,6.2,3.8,10.1,9.3,10.1c6,0,10.1-3.8,9.8-10.6C267.7,528.5,264.6,525.6,259.8,524.9
			z M357,607.8c-6.2,0.2-9.6,3.4-9.8,9.1c-0.2,5.6,3.7,9.4,8.7,9.7c5.7,0.3,10.2-3.3,10-9.7C365.7,611.5,362.6,608.1,357,607.8z
			 M908.4,523c5.8,0.1,9.2-3.1,9.3-8.7c0.1-5.6-3.3-9-9-9.2c-6-0.2-9.8,3.5-9.5,9C899.5,518.8,902,523.5,908.4,523z M372.1,272.5
			c0.4-5.6-2.8-8.1-7.6-8.2c-4.8-0.1-7.5,3.1-7.4,7.9c0.1,4.4,2.2,7.5,6.9,7.8C369.2,280.4,371.8,277.6,372.1,272.5z M660.7,164.7
			c-0.1,5,2.4,7.9,7.3,8.3c5.3,0.4,7.6-3.4,7.6-7.7c0-3.8-1.9-7.4-6.8-7.4C664.1,157.8,661.2,159.8,660.7,164.7z M675.1,302.2
			c-0.3-4.4-2.4-7.2-7-7.4c-4.8-0.3-7.8,2.7-8,6.9c-0.2,4.4,2.8,7.3,7.5,7.4C672.2,309.2,674.8,306.9,675.1,302.2z M498,202
			c-4.8-0.4-7.1,2.1-7.1,6.7c0,4.7,2.7,7.2,7.1,7.1c4.4-0.1,7.1-2.9,7-7.5C504.8,204.2,502.7,201.5,498,202z M319.2,212.7
			c0.3-5-3.2-7.5-6.9-7.1c-2.4,0.3-6,4.2-6.2,6.6c-0.1,2.5,3.1,6.9,5.4,7.2C315.2,220,319.3,217.9,319.2,212.7z M445.2,243
			c-4.3,0.3-7.4,2.8-6.5,6.9c0.6,2.7,3.7,6.4,6.1,6.7c4.1,0.5,7.5-2.2,7.2-7.3C451.8,244.9,449.3,243.1,445.2,243z M731,310.5
			c-0.3-4.3-2.4-7.1-6.6-7.3c-4.2-0.2-7,2.2-7.3,6.5c-0.3,4.3,2.5,6.9,6.5,7.3C728,317.3,730.2,314.5,731,310.5z M603,158.3
			c-0.5-3.5-2.2-6.2-6.5-6.3c-4.4-0.1-7.9,2.3-7.2,6.6c0.4,2.7,3.6,6.6,6,7C599.3,166.3,602.6,163.4,603,158.3z M806,214.6
			c0.1-4.2-2.1-6.7-6.2-6.7c-4.2-0.1-6.7,2.2-6.9,6.7c-0.2,4.6,2.9,7.1,6.6,7.1C803.1,221.7,806.3,219.2,806,214.6z"/>
		<path fill="#214051" d="M868.1,847.2c-63.5,67.2-139.7,113.4-229,137.7c-97.8,26.7-194.8,22.9-289.9-11.3
			c-72.6-26.1-135.7-67.9-189.2-123.7c3.9-0.6,7.8-1.8,11.7-1.8c77.2-0.1,154.4-0.1,231.5-0.1c88.5,0,177,0,265.5-0.1
			c2,0,4-0.7,6-1.1c11.8,0,23.6,0,35.3,0c29.6,0,59.2,0.1,88.9,0.1c0.6,0,1.2,0,1.9,0c15,0,29.9-0.1,44.9-0.1
			c3.7-0.1,7.4-0.3,11.1-0.4c0.7,0,1.4,0,2.1,0c1,0,1.9,0,2.9,0c0.7,0,1.4,0,2.1,0c0.6,0,1.3,0.1,1.9,0.1
			C866.6,846.6,867.4,846.9,868.1,847.2z"/>
		<path fill="#214051" d="M271.7,609.7c-4.9,22.9,9.6,24.9,26.4,24.3c-12.5,4.1-37.7-12.7-32.8,20c-0.7,6.7,0.9,17.3-2.5,19.4
			c-20.3,12.3-26.9,30.1-25.8,52.3c-6.3-8.2-15-1.7-22.3-3.5c-0.8-0.2-3.3,2.1-3.2,3.2c0.3,5.6-0.4,14.7,2.3,15.9
			c7.1,3.2,15.7,3.1,23.3-1.2c0.1,1.7,0.2,3.4,0.3,5c0,9.5,0,19.1,0,28.6c0.6,8.1,1,23.2,1.8,23.2c33.3,0.8,66.7,0.3,100-0.1
			c18.7,0.3,37.4,0.6,56.2,0.9c24.3,0,48.6,0,72.9-0.2c1.2,0,3.5-2.2,3.5-3.4c0.3-54.4,0.3-108.8,0.4-163.3
			c0.3-37.2,0.6-74.5,0.9-111.7c0-0.3,0.1-0.5,0.1-0.8c0.1-24.1,0.1-48.3,0.2-72.4c2.6,4.5,4.2,10.2,8,13.1
			c11.1,8.5,20.4,17.2,15.9,33c-0.1,0.2-0.3,0.5-0.4,0.8c-6.6,0.8-10.4,4.9-10.6,11.2c-0.4,14.5-0.3,29,0,43.4
			c0.1,6.7,4.3,10.5,10.8,11.6c0.2,0.2,0.3,0.4,0.4,0.6c0,17.5,0,35-0.1,52.5c0,14.9,0,29.8-0.1,44.7c0.2,14.9,0.3,29.8,0.5,44.6
			c-0.3,0.5-0.5,0.9-0.8,1.4c-11.6,1.5-14.6,11-12.4,19.1c4.3,16.2-11.1,37.8,12.7,48.8l0,0c-4.5,22,2.9,32.4,26.5,27.3
			c2.4-0.5,4.9,0,7.4,0.1c0.3,3.6,0.6,7.2,0.9,10.9c0,0.3-0.1,0.6-0.1,0.9c-9.3,0-18.6,0-28-0.1c-0.9-0.3-1.8-0.8-2.7-0.8
			c-125.3,0-250.6,0.1-375.9,0.1c-2.1-2.7-4.2-5.5-6.3-8.2c10.2-6.5,21.4-1.2,32-3c17.1,0,34.3-0.1,51.4,0.2
			c4.5,0.1,5.6-1.4,5.6-5.7c-0.1-42.8-1.7-85.7,0.6-128.3c1.2-22.9-4.6-31.9-27.6-27.3c-1.6,0.3-7.8,3.5-5.9-3.7
			c4.6,1,5.6-1.4,4.8-5.3c-3.1-15-2.7-29,9.8-40.2c8.2,0.6,16.4,1.2,24.6,1.8c-2.6,6.9-12,18.5-3,20.1
			C230.8,613,251.5,610,271.7,609.7z M211.1,672.1c0,9.5,0,19,0,28.5c0,3.9-0.5,6.8,5.5,7.6c14.6,1.8,20.9-2.4,18.7-18.2
			c-1.5-11.6,0.7-23.7-0.7-35.4c-0.7-5.8,7.6-15.7-6.5-17.7c-14.5-2.1-19.6,2.9-17.2,17.3C212,659.9,211.1,666.1,211.1,672.1z"/>
		<path fill="#98C21E" d="M800.9,846.8c-0.6,0-1.2,0-1.9,0c-12-0.1-24-0.1-36-0.2c-4.4,0-8.8-0.1-13.3-0.1
			c-13.2,0.1-26.4,0.1-39.6,0.2c-11.8,0-23.6,0-35.3,0c-4.9-0.1-9.8-0.2-14.6-0.3c-30.7,0.1-61.4,0.2-92.1,0.3
			c-0.5-0.1-0.9-0.3-1.4-0.4c-11-12.1-21.9-24.2-32.9-36.3c26.4-0.3,52.9-0.6,79.3-0.9c2.6,0,5.2,0,7.9,0c0.7,0,1.4,0,2.2,0
			c24-0.1,47.9-0.1,71.9-0.2c64.9,0.1,129.8,0.2,194.8,0.3c3.1,0.3,6.2,0.6,9.3,0.9c-10,12-20,23.9-30,35.9
			c-1.1,0.1-2.1,0.2-3.2,0.3c-0.6,0-1.3-0.1-1.9-0.1c-0.7,0-1.4,0-2.1,0c-1,0-1.9,0-2.9,0c-0.7,0-1.4,0-2.1,0
			c-3.7,0.1-7.4,0.3-11.1,0.4c-4.9-0.1-9.8-0.2-14.6-0.2c-3.8,0-7.5,0.1-11.3,0.1C813.5,846.7,807.2,846.8,800.9,846.8z"/>
		<path fill="#1A3C5E" d="M889.7,809.3c-64.9-0.1-129.8-0.2-194.8-0.3c-0.1-1.7-0.1-3.4-0.2-5.1c1.8-0.1,3.8,0.2,5.4-0.3
			c8.6-3,20,6.9,26.6-5.7c16.3-0.3,32.5-0.7,48.8-1c16.1,0.3,32.1,0.6,48.2,0.9c15.4-0.3,30.8-0.6,46.2-0.9
			c10.4,0.7,20.9,1.3,31.3,2.2c1.7,0.1,3.2,1.4,4.8,2.2c-2,2.6-4,5.2-6,7.8C896.6,809.1,893.2,809.2,889.7,809.3z"/>
		<path fill="#172742" d="M660.2,846.5c4.9,0.1,9.8,0.2,14.6,0.3c-2,0.4-4,1.1-6,1.1c-88.5,0.1-177,0.1-265.5,0.1
			c-77.2,0-154.4,0-231.5,0.1c-3.9,0-7.8,1.2-11.7,1.8c-0.9-0.8-1.7-1.6-2.6-2.4c3.8-0.2,7.6-0.6,11.4-0.6
			c124.3,0,248.6,0.1,372.9,0c8.3,0,16.6-0.4,24.9-0.6c0,0,0.1,0.1,0.1,0.1c0.5,0.1,0.9,0.3,1.4,0.4
			C598.7,846.6,629.4,846.6,660.2,846.5z"/>
		<path fill="#66B32E" d="M566.6,846.3c-8.3,0.2-16.6,0.6-24.9,0.6c-124.3,0-248.6,0-372.9,0c-3.8,0-7.6,0.4-11.4,0.6
			c1-0.6,2-1.6,3-1.6c134.6,0,269.2,0,403.7,0C564.9,845.9,565.7,846.1,566.6,846.3z"/>
		<path fill="#66B32E" d="M125.3,809.1c125.3,0,250.6-0.1,375.9-0.1c0.9,0,1.8,0.5,2.7,0.8c-125.3,0.1-250.6,0.2-375.9,0.3
			C127.1,810.1,126.2,809.5,125.3,809.1z"/>
		<path fill="#435774" d="M613,809.2c-26.4,0.3-52.9,0.6-79.3,0.9c-0.6-0.1-1.3-0.1-1.9-0.2c0.1-0.3,0.1-0.6,0.1-0.9
			C559,809,586,809.1,613,809.2z"/>
		<path fill="#435774" d="M889.7,809.3c3.5-0.1,6.9-0.1,10.4-0.2c-0.3,0.3-0.7,0.7-1,1C896,809.8,892.9,809.5,889.7,809.3z"/>
		<path fill="#435774" d="M865.9,846.3c1.1-0.1,2.1-0.2,3.2-0.3c-0.3,0.4-0.7,0.8-1,1.2C867.4,846.9,866.6,846.6,865.9,846.3z"/>
		<path fill="#77C8D5" d="M244.3,490c-54.6,0-96.2-43.7-96.2-100.9c0-35,42.6-88.8,69.5-87.8c77.3,3,117.9,32.8,121.2,82.4
			C343,448.6,292.2,489.6,244.3,490z M206.9,410.8c-2.9-1.9-5.8-5.2-7.4-4.7c-8.6,2.7-19.3,2.4-23.2,12.9c-0.5,1.4,4.3,6.9,5.3,6.5
			C190.2,422.4,200.3,421.3,206.9,410.8z M185.2,364.7c-7.2-1.4-10.9,0.7-9.7,4.7c3.3,11,14.5,9.8,22.8,12.6
			c3.9,1.3,7.9-2.2,6.6-5.8C201.1,366,190.1,367.7,185.2,364.7z M310.7,416.5c-4.6-6.7-14-8.2-22.7-10.4c-3.5-0.9-7,2.3-5.7,5.6
			c3.9,10.3,14.4,10.9,23.1,13.6C308.8,426.2,311.5,423.3,310.7,416.5z M291.3,381.6c5.5-3.3,16.9-0.8,20.4-11.9
			c1.1-3.5-2.3-7.3-5.8-6.2c-8.6,2.8-19.2,3.4-23.4,13.2C281.1,380,284.8,382.6,291.3,381.6z M268.8,330.2
			c-6.9,3.4-9.4,12.1-12.4,20.2c-0.4,1.2,4.3,6.1,5.5,5.7c9.6-3.2,12.3-12.3,15.1-20.6C278.2,332,275.1,329.8,268.8,330.2z
			 M232.6,351.5c-5.1-8.5-5.8-18.2-15.1-21.6c-3.4-1.3-7.3,1.3-6.5,5.3c1.8,8.6,5,17,13.9,20.7C226.5,356.5,229.6,353.3,232.6,351.5
			z M230.8,439.3c0.5-5.6-1.1-9.2-4.8-8.1c-9.7,2.7-11.7,12.1-14.7,20.1c-0.5,1.4,4.2,6.7,5.4,6.4
			C226.9,455,227.3,444.9,230.8,439.3z M265.2,432.3c-6.9-0.7-9.1,1.9-8.1,5.3c2.3,8,4,17.1,13.7,19.9c1.4,0.4,6.3-4.6,5.9-5.9
			C274,443.7,271.4,435.5,265.2,432.3z"/>
		<path fill="#98C21E" d="M823.8,797.8c-16.1-0.3-32.1-0.6-48.2-0.9c0-10,0-20,0-30c0-4.3,0-8.5,0-12.8c0-36.7,0-73.4,0-110.2
			c0-1.9,0-3.9,0-5.8c0-8.4,0-16.8,0-25.2c0-0.3,0-0.6,0-0.9c0.1-0.3,0.2-0.7,0.3-1c7.5-2.2,22.1,5,22.1-3.9
			c0.1-54.9,19.7-107.9,16.3-162.5c-0.8-13.5,21.7-40.1-14.4-43.4c-4.4-3.2-8.7-6.9-6.5-12.9c2.2-6,7.4-7.7,13.7-7.5
			c10.5,0.4,21,0.3,31.5,0.1c5.2-0.1,10.1,0.7,11.3,6.5c1.2,6-0.3,11.3-7.1,13.4c-30.9-3.9-18.3,20.5-17.1,31.1
			c11.9,108.6,21,217.3,16.3,326.7c-0.1,2.9-1.4,8.4-2.2,8.4C814.6,767.2,826.5,786.3,823.8,797.8z"/>
		<path fill="#214051" d="M652,367.9c13-2.4,21.7,1.9,21.9,16c0.5,25.9,2.2,52.1-0.6,77.7c-2.5,23.4,9.7,23.1,25.6,21.3
			c4.5,18.3-15.9,52.6,28.9,45c8.7,23-1.7,39-25.5,39c-23.7,0-47.4-0.1-71.2,0.1c-4.7,0-6.3-1-6.2-6c0.3-22.8,0.1-45.6,0.2-68.4
			c0-5.9,1.2-12.6-8.3-10.5c-6.6,1.5-19.1-6.3-16.9,10.2c0.5,3.5-0.5,7.1-0.8,10.7c-6.7-13.1-18.7-11.5-30.3-10.7
			c-7.2-0.2-14.4-0.3-21.6-0.5c-4-18.7,2.7-26.6,22.2-22.9c6.6,1.3,13.1-0.2,18.9-4.5c17.4-13.1,9.8-31.5,10.6-48.2
			c0.5-0.5,0.9-0.9,1.4-1.4c10.3,7.8,5.8,27.9,22.3,29.4c9.6,0.9,26.5,7.2,28.5-5.1C654.7,415.9,652,391.7,652,367.9z"/>
		<path fill="#98C21E" d="M472.9,519.1c-0.3,37.2-0.6,74.5-0.9,111.7c-25.3,0.1-50.6,0.1-75.9,0.2c-0.1-0.4-0.2-0.7-0.3-1.1
			c0-1-0.1-2-0.1-3c0-0.7,0-1.3,0-2c0-3,0-6,0-9c0-3.3,0-6.7,0-10c0-3.3,0-6.6,0-10c0-2,0-4,0-6c-1.5-3.9,4.6-11.3-3.8-11.6
			c-17.9-0.7-35.9-0.1-53.8-0.1c-23.7-6.8-14.7-26.6-15.7-41.7c-0.6-9.7,5.4-16.4,15.9-17.7C383.1,518.9,428,519,472.9,519.1z"/>
		<path fill="#77C8D5" d="M396.1,631c25.3-0.1,50.6-0.1,75.9-0.2c-0.1,54.4-0.2,108.8-0.4,163.3c0,1.2-2.3,3.4-3.5,3.4
			c-24.3,0.2-48.6,0.2-72.9,0.2C395.5,742.2,395.8,686.6,396.1,631z"/>
		<path fill="#435774" d="M598.8,416.3c-0.8,16.6,6.8,35.1-10.6,48.2c-5.8,4.3-12.3,5.8-18.9,4.5c-19.5-3.7-26.2,4.2-22.2,22.9
			c-16.7,0.1-33.4,0.1-50.1,0.2c4.5-15.8-4.8-24.5-15.9-33c-3.8-2.9-5.4-8.7-8-13.1c-1.3-15.9,5.2-27.4,19.1-35.1
			c1.6-0.9,2.7-3.9,2.7-6c0.2-37.9,0.3-75.9,0.1-113.8c-0.1-15.2,6.4-24.5,21.8-26.8c0.4,2.2,1.1,4.5,1.1,6.7
			c0.1,35.9-0.3,71.9,0.2,107.8c0.2,15.7,6.7,29.9,23.4,32.9C560.3,415,579.7,414.8,598.8,416.3L598.8,416.3z"/>
		<path fill="#435774" d="M823.8,797.8c2.7-11.5-9.2-30.6,15.9-30.8c0.8,0,2.1-5.4,2.2-8.4c4.7-109.4-4.4-218.1-16.3-326.7
			c-1.2-10.6-13.8-35,17.1-31.1c-3.2,60.2,16.2,117,25.4,175.3c1.8,11.4,1.3,23.1,1.9,34.7c0,0.3,0,0.7,0.1,1
			c0,61.6-0.1,123.3-0.1,184.9C854.6,797.2,839.2,797.5,823.8,797.8z"/>
		<path fill="#435774" d="M175.1,633.1c-1.9,7.2,4.4,4,5.9,3.7c23.1-4.7,28.8,4.3,27.6,27.3c-2.2,42.7-0.7,85.5-0.6,128.3
			c0,4.3-1.1,5.8-5.6,5.7c-17.1-0.3-34.3-0.1-51.4-0.2c-0.1-51.3-0.1-102.5-0.2-153.8c1.6-1.1,4.1-2,4.7-3.5
			C159.3,630.5,163.9,623.5,175.1,633.1z M181.1,708.8c7.8,0.3,14,1.9,14.6-9.6c0.8-15.5-9.2-10.7-16.8-11.2
			c-5.7-0.4-10.5-0.5-11.1,7.9C167.1,707.2,171.4,711,181.1,708.8z M182.5,743c5.6-0.9,14.4,3,13.4-8.3c-0.4-4.7,3.2-13.5-6.8-11.5
			c-7.6,1.5-21.5-8.7-21.3,10.6C168,745.9,176.2,742.2,182.5,743z"/>
		<path fill="#214051" d="M599,550c0.3,36,0.7,71.9,0.8,107.9c0,18.7-0.6,37.4-0.9,56c-6.6-12.9-18.1-13-30.2-11.7
			c-7.3-0.3-14.6-0.7-22-1c0-14.1,0-28.3,0-42.4c0-14.9,0-29.9,0-44.8c0.1-17.9,0.2-35.8,0.3-53.8c7.2-0.5,14.5-0.9,21.7-1.4
			C580.5,561.2,591.5,561.4,599,550z"/>
		<path fill="#77C8D5" d="M236.9,725.7c-1.1-22.2,5.5-40.1,25.8-52.3c3.5-2.1,1.8-12.7,2.5-19.4c15.1,0,30.3-0.1,45.4-0.1
			C308.8,666.3,313,674,324,682c21.7,15.8,13.5,41,14.6,63c-2.1,0.4-4.1,1.2-6.2,1.2c-31.7-0.3-63.5-0.7-95.2-1
			c-0.1-1.7-0.2-3.4-0.3-5C236.9,735.3,236.9,730.5,236.9,725.7z"/>
		<path fill="#77C8D5" d="M760.7,633c1,36.6-14,62.9-49.1,76.3c-0.4,0.2-0.7,0.4-1.1,0.6c-3.8,0.1-7.7,0.2-11.5,0.3
			c-0.3,0-0.6,0-0.9,0c-35.9-13-51.4-40.1-53-76.7C683.7,633.3,722.2,633.2,760.7,633z"/>
		<path fill="#98C21E" d="M346.2,175.9c0.4-1.6,0.7-3.1,1.1-4.7c0.2-0.5,0.3-0.9,0.5-1.4c5.4-22.1,20.5-34.4,42.2-36.2
			c22.1-1.9,39.1,8.2,48.4,29.3c0.3,0.7,0.5,1.4,0.8,2.2c0,0,0,0,0,0c-3.7,5.7-9.2,11-10.6,17.3c-3.2,13.9-9,25.2-23.1,29.8
			c-13.8,4.5-27.1,3.3-37.2-8.4C360.4,194.8,353.5,185.2,346.2,175.9z"/>
		<path fill="#435774" d="M799.9,401.2c36.1,3.3,13.6,29.9,14.4,43.4c3.4,54.6-16.2,107.6-16.3,162.5c0,8.9-14.6,1.7-22.1,3.9
			c-3.4-42.3,10.7-82.2,17.5-123.1C798.2,459.2,800.5,430.3,799.9,401.2z"/>
		<path fill="#214051" d="M598.8,416.2c-19.1-1.3-38.5-1.1-57.2-4.5c-16.7-3-23.1-17.2-23.4-32.9c-0.6-35.9-0.2-71.9-0.2-107.8
			c0-2.2-0.7-4.5-1.1-6.7c16.2,0.3,21.5,11.2,21.9,24.7c0.7,26.6,1.3,53.3-0.2,79.8c-1.1,19.9,7,26.8,25.6,25.4
			C581,392.9,595.4,396,598.8,416.2z"/>
		<path fill="#98C21E" d="M384.1,384.9c-0.7-1-1.3-2-2-3c-0.3-0.4-0.5-0.7-0.8-1.1c-0.4-1.3-0.8-2.6-1.3-3.9
			c-0.2-0.4-0.5-0.8-0.7-1.1c-0.1-0.6-0.1-1.2-0.2-1.8c-0.2-0.8-0.5-1.5-0.7-2.3c-0.1-0.6-0.1-1.2-0.2-1.7c-0.3-1.1-0.7-2.1-1-3.2
			c-0.4-21.7,8.4-37.7,30.4-42c22-4.3,38.2,4.8,45.5,27c0.3,1.1,0.5,2.1,0.8,3.2c0.2,0.9,0.3,1.8,0.5,2.7c0.6,2.8-5.1,5.8,0.3,8.4
			c-0.4,2.1-0.7,4.3-1.1,6.4c-6.6-13.2-10.1-12.3-14,1.9c-2.4,8.8-11.3,12.2-20.2,15.1C406.4,393.7,397.1,376.2,384.1,384.9z"/>
		<path fill="#435774" d="M652,367.9c0,23.8,2.7,48-1,71.2c-2,12.3-18.9,5.9-28.5,5.1c-16.5-1.5-11.9-21.6-22.3-29.4
			c-0.1-10.3-0.5-20.6-0.1-30.9c0.6-14.5,10.5-16.5,22.4-16.1C632.3,368.2,642.2,367.9,652,367.9z"/>
		<path fill="#FFFFFF" d="M760.7,633c-38.5,0.2-77,0.3-115.5,0.5c-4.1-20,1.7-28.3,24.2-26c25.5,2.6,51.6,2,77.2,0.4
			C771.8,606.3,759.6,622.7,760.7,633z"/>
		<path fill="#77C8D5" d="M743.2,233.5c-0.5,19.3-9.7,31.1-29.4,31.5c-20.1,0.4-31.2-12-31.5-30.9c-0.2-18.6,11.5-30.1,30.4-29.7
			C730.6,204.8,742.8,213.6,743.2,233.5z"/>
		<path fill="#FFFFFF" d="M237.2,745.2c31.7,0.4,63.5,0.7,95.2,1c2.1,0,4.1-0.8,6.2-1.2c0,9.7,0,19.3,0,29
			c-33.8-0.1-67.6-0.1-101.4-0.2C237.2,764.2,237.2,754.7,237.2,745.2z"/>
		<path fill="#77C8D5" d="M237.2,773.8c33.8,0.1,67.6,0.1,101.4,0.2c0.1,7.7,0.2,15.3,0.4,23c-33.3,0.4-66.7,0.9-100,0.1
			C238.2,797,237.8,781.9,237.2,773.8z"/>
		<path fill="#77C8D5" d="M773.3,386.7c-1.3,16.3-9.9,25.8-25.2,25.9c-16.5,0-24.7-11.8-24.6-26.7c0.1-14.2,9-23.8,24.2-23.5
			C763.2,362.8,771.5,372.1,773.3,386.7z"/>
		<path fill="#435774" d="M346.2,175.9c7.3,9.3,14.2,18.9,21.9,27.8c10.2,11.7,23.4,12.9,37.2,8.4c14.1-4.6,19.9-15.9,23.1-29.8
			c1.4-6.2,7-11.5,10.6-17.3c6.6,18.3,4.1,35.2-9.6,49.2c-15.8,16.2-35,20.8-55.9,10.8C353.4,215.3,344.4,198.4,346.2,175.9z"/>
		<path fill="#435774" d="M568.7,702.2c12.1-1.2,23.6-1.1,30.2,11.7c0,16-0.1,32-0.1,48c-7.6,11-18.7,11-30.2,9.6
			C568.7,748.4,568.7,725.3,568.7,702.2z"/>
		<path fill="#435774" d="M599,550c-7.5,11.4-18.5,11.2-30.1,8.9c-0.1-22.2-0.2-44.4-0.2-66.6c11.6-0.8,23.6-2.4,30.3,10.7
			c0,2.7,0,5.3,0.1,8c0,1,0,2,0,3C599,526,599,538,599,550z"/>
		<path fill="#77C8D5" d="M138,640.9c-11.2-2.9-4.2-12.4-3.2-15.8c4.5-15.1-3.9-21.1-14.9-26.5c-1.4-0.7-2.4-2.1-3.6-3.2
			c0.8-0.6,1.5-1.5,2.3-1.6c19.7-2.7,25.1-16.5,26.7-33.6c0.2-1.7,0.1-6.1,4.3-3.1c4.2,9.3-3.4,32.3,21,17.9
			c1.2,0.1,2.3,0.2,3.5,0.3c-7.4,14.5-16.8,28.5-12.1,46.3c0.3,1.1-1,2.6-1.6,3.9C141.2,613.6,145.4,635.7,138,640.9z"/>
		<path fill="#77C8D5" d="M828.1,312.7c-0.3,15-8,22.9-21.4,23c-14.1,0.1-21.8-8.8-21.7-22.8c0.1-13.5,7.8-21.7,21.3-21.6
			C820.1,291.4,827.9,299.2,828.1,312.7z"/>
		<path fill="#FFFFFF" d="M699.1,710.2c3.8-0.1,7.7-0.2,11.5-0.3c0.1,24.7,0.3,49.4,0.4,74.1c-5.2,16.6,11.9,7.7,15.8,13.9
			c-6.5,12.6-17.9,2.7-26.6,5.7c-1.6,0.6-3.6,0.3-5.4,0.3c-4.4-1.9-13,3.6-13.2-4.2c-0.1-8.7,9.5-1.8,12.9-4.8
			c8.4-7.2,1.4-17.4,3.6-26C698.5,749.4,698.8,729.8,699.1,710.2z"/>
		<path fill="#1A3C5E" d="M568.6,771.5c11.5,1.3,22.6,1.4,30.2-9.6c8.7,22.9-0.4,36-24.9,36c-9,0-17.9,0-26.9,0
			c0-8.8,0.1-17.7,0.1-26.5C554.3,771.5,561.5,771.5,568.6,771.5z"/>
		<path fill="#435774" d="M547.1,771.4c0,8.8-0.1,17.7-0.1,26.5c-5.3,0.1-10.6,0.1-15.9,0.2c-2.5-0.1-5.1-0.6-7.4-0.1
			c-23.6,5.2-30.9-5.3-26.5-27.3C513.8,771,530.4,771.2,547.1,771.4z"/>
		<path fill="#98C21E" d="M138,640.9c7.5-5.2,3.2-27.3,22.4-15.5c0.6-1.3,1.9-2.8,1.6-3.9c-4.6-17.7,4.8-31.7,12.1-46.3
			c6.4,1.6,12.7,3.2,19.1,4.9c-1.1,2.5-2.3,5.1-3.4,7.6c-12.5,11.2-12.9,25.2-9.8,40.2c0.8,3.8-0.3,6.2-4.8,5.3
			c-11.2-9.7-15.9-2.6-19.6,7.6c-0.6,1.5-3.1,2.3-4.7,3.5C146.6,643.1,142.3,642,138,640.9z"/>
		<path fill="#435774" d="M271.7,609.7c-20.2,0.3-40.8,3.3-60.3-0.1c-9-1.6,0.4-13.3,3-20.1c14.6-0.1,29.3-0.8,43.9,0
			C270.8,590,272.2,599.6,271.7,609.7z"/>
		<path fill="#435774" d="M727.8,528c-44.8,7.6-24.4-26.7-28.9-45C740.4,477.6,725.7,508.2,727.8,528z"/>
		<path fill="#435774" d="M384.1,384.9c13-8.7,22.3,8.8,35.3,4.7c9-2.9,17.8-6.3,20.2-15.1c3.9-14.2,7.4-15.1,14-1.9
			c-4.1,17.8-16.5,26.7-33.4,29.2C405.1,404,392.4,398.6,384.1,384.9z"/>
		<path fill="#FFFFFF" d="M310.6,653.9c-15.1,0-30.3,0.1-45.4,0.1c-4.9-32.7,20.3-15.9,32.8-20C315.7,632.1,312.6,643.4,310.6,653.9
			z"/>
		<path fill="#98C21E" d="M562,243.2c-8.7-9.3-9.8-19.5-1.3-29c8.6-9.7,18.2-7.7,27.3,0.1c-2.3,10.4,2.1,24.4-14.3,27.4
			C569.8,242.5,565.9,242.7,562,243.2z"/>
		<path fill="#77C8D5" d="M550.2,143.3c0.4,9.4-5.5,14.5-15,14.6c-9.7,0-14.9-6.5-14.9-15.7c-0.1-9.2,4.9-15.8,14.7-16
			C545.1,125.9,550.3,131.8,550.2,143.3z"/>
		<path fill="#77C8D5" d="M619.6,278.9c6.6,0.3,10.4,4.2,10.4,11.3c0,7.2-4.3,11-11.4,11c-7.1,0-11.4-4.6-11.4-11.1
			C607.2,283.2,611.5,278.9,619.6,278.9z"/>
		<path fill="#98C21E" d="M298.2,248.2c-0.5,7.4-5.2,10.6-11.5,10.6c-6.5,0-8.9-4.9-8.8-10.8c0.1-6.6,4.3-10,10.6-9.9
			C294.9,238.2,297.8,242.3,298.2,248.2z"/>
		<path fill="#435774" d="M562,243.2c3.9-0.5,7.9-0.8,11.8-1.5c16.3-3.1,12-17,14.3-27.4c8.9,9.4,8.8,19.3,0,28.1
			C580.2,250.1,570.9,250.7,562,243.2z"/>
		<path fill="#98C21E" d="M738.3,456.9c0.5-3.4,3.1-7.2,9.5-6.8c6.1,0.4,9.3,3.9,9.4,9.9c0.1,6.5-4.7,9.4-9.9,9.6
			C741.3,469.7,737.8,465.7,738.3,456.9z"/>
		<path fill="#98C21E" d="M259.8,524.9c4.9,0.6,7.9,3.6,8.2,9.1c0.3,6.8-3.8,10.6-9.8,10.6c-5.5,0-9.6-3.9-9.3-10.1
			C249.1,528.2,252.9,525.1,259.8,524.9z"/>
		<path fill="#435774" d="M170.6,574.9c-24.4,14.5-16.8-8.6-21-17.9C158.6,560.6,170.3,561,170.6,574.9z"/>
		<path fill="#98C21E" d="M357,607.8c5.6,0.3,8.8,3.6,8.9,9.1c0.1,6.4-4.3,10-10,9.7c-5-0.2-8.9-4-8.7-9.7
			C347.4,611.2,350.8,608,357,607.8z"/>
		<path fill="#77C8D5" d="M908.3,523c-6.3,0.5-8.8-4.2-9.1-8.9c-0.3-5.5,3.5-9.2,9.5-9c5.7,0.2,9.1,3.6,9,9.2
			C917.6,520,914.2,523.1,908.3,523z"/>
		<path fill="#77C8D5" d="M372.1,272.5c-0.3,5-2.9,7.8-8.1,7.5c-4.7-0.3-6.9-3.5-6.9-7.8c-0.1-4.8,2.6-8,7.4-7.9
			C369.3,264.4,372.6,267,372.1,272.5z"/>
		<path fill="#77C8D5" d="M660.7,164.6c0.5-4.8,3.4-6.8,8.1-6.8c5,0,6.9,3.6,6.8,7.4c0,4.3-2.3,8.1-7.6,7.7
			C663.1,172.6,660.6,169.6,660.7,164.6z"/>
		<path fill="#77C8D5" d="M675.1,302.2c-0.4,4.6-2.9,6.9-7.4,6.9c-4.8-0.1-7.7-3-7.5-7.4c0.2-4.3,3.2-7.2,8-6.9
			C672.7,295.1,674.8,297.9,675.1,302.2z"/>
		<path fill="#77C8D5" d="M498,202c4.8-0.6,6.8,2.2,7,6.4c0.1,4.5-2.6,7.3-7,7.5c-4.4,0.1-7.2-2.4-7.1-7.1
			C490.9,204.1,493.1,201.7,498,202z"/>
		<path fill="#98C21E" d="M319.2,212.7c0.1,5.2-4,7.3-7.7,6.7c-2.2-0.3-5.5-4.8-5.4-7.2c0.1-2.4,3.7-6.3,6.2-6.6
			C316,205.2,319.6,207.7,319.2,212.7z"/>
		<path fill="#98C21E" d="M445.2,243c4.1,0.1,6.6,2,6.8,6.3c0.2,5.1-3.1,7.8-7.2,7.3c-2.4-0.3-5.5-4-6.1-6.7
			C437.8,245.8,440.9,243.3,445.2,243z"/>
		<path fill="#98C21E" d="M731,310.5c-0.8,4-3.1,6.8-7.4,6.4c-4.1-0.4-6.8-2.9-6.5-7.3c0.3-4.3,3.1-6.7,7.3-6.5
			C728.6,303.4,730.8,306.2,731,310.5z"/>
		<path fill="#98C21E" d="M603,158.3c-0.4,5.1-3.7,8-7.7,7.3c-2.4-0.4-5.6-4.3-6-7c-0.7-4.3,2.8-6.7,7.2-6.6
			C600.8,152,602.6,154.8,603,158.3z"/>
		<path fill="#98C21E" d="M806,214.6c0.3,4.7-2.9,7.1-6.5,7.1c-3.7,0-6.7-2.5-6.6-7.1c0.2-4.5,2.7-6.8,6.9-6.7
			C803.9,207.9,806.1,210.4,806,214.6z"/>
		<path fill="#435774" d="M472.9,519.1c-44.9-0.1-89.8-0.2-134.7-0.3c44.9-0.2,89.9-0.3,134.8-0.5
			C472.9,518.6,472.9,518.8,472.9,519.1z"/>
		<path fill="#1A3C5E" d="M711,784c-0.1-24.7-0.3-49.4-0.4-74.1c0.4-0.2,0.7-0.4,1.1-0.6C711.4,734.2,711.2,759.1,711,784z"/>
		<path fill="#1A3C5E" d="M338,578.2c17.9-0.1,35.9-0.6,53.8,0.1c8.4,0.3,2.3,7.7,3.8,11.6c0.4-19-14.1-9.5-22-10.6
			C361.9,577.8,349.9,578.5,338,578.2z"/>
		<path fill="#435774" d="M699.1,710.2c-0.3,19.6-0.6,39.1-0.9,58.7c0-19.6,0-39.1,0-58.7C698.5,710.2,698.8,710.2,699.1,710.2z"/>
		<path fill="#435774" d="M454.7,366.2c-5.4-2.6,0.2-5.6-0.3-8.4C454.5,360.6,454.6,363.4,454.7,366.2z"/>
		<path fill="#1A3C5E" d="M775.6,754c0,4.3,0,8.5,0,12.8C775.6,762.6,775.6,758.3,775.6,754z"/>
		<path fill="#1A3C5E" d="M395.7,596c0,3.3,0,6.6,0,10C395.7,602.6,395.7,599.3,395.7,596z"/>
		<path fill="#1A3C5E" d="M395.7,616c0,3,0,6,0,9C395.7,622,395.7,619,395.7,616z"/>
		<path fill="#1A3C5E" d="M775.6,638.1c0,1.9,0,3.9,0,5.8C775.6,641.9,775.6,640,775.6,638.1z"/>
		<path fill="#435774" d="M377.2,366.9c0.3,1.1,0.7,2.1,1,3.2C377.9,369,377.5,367.9,377.2,366.9z"/>
		<path fill="#1A3C5E" d="M599,514c0-1,0-2,0-3C599.1,512,599.1,513,599,514z"/>
		<path fill="#435774" d="M378.4,371.8c0.2,0.8,0.5,1.5,0.7,2.3C378.9,373.3,378.6,372.5,378.4,371.8z"/>
		<path fill="#435774" d="M453.9,355.1c-0.3-1.1-0.5-2.1-0.8-3.2C453.4,353,453.7,354,453.9,355.1z"/>
		<path fill="#1A3C5E" d="M395.7,627c0,1,0.1,2,0.1,3C395.8,629,395.7,628,395.7,627z"/>
		<path fill="#435774" d="M623.1,809.2c-0.7,0-1.4,0-2.2,0C621.6,809.2,622.3,809.2,623.1,809.2z"/>
		<path fill="#435774" d="M439.1,165c-0.3-0.7-0.5-1.4-0.8-2.2C438.6,163.6,438.8,164.3,439.1,165z"/>
		<path fill="#435774" d="M379.3,375.8c0.2,0.4,0.5,0.8,0.7,1.1C379.8,376.6,379.6,376.2,379.3,375.8z"/>
		<path fill="#435774" d="M381.3,380.8c0.3,0.4,0.5,0.7,0.8,1.1C381.9,381.6,381.6,381.2,381.3,380.8z"/>
		<path fill="#435774" d="M347.7,169.8c-0.2,0.5-0.3,0.9-0.5,1.4C347.4,170.8,347.6,170.3,347.7,169.8z"/>
		<path fill="#1A3C5E" d="M870.1,612c0-0.3,0-0.7-0.1-1c0.1,0.2,0.2,0.5,0.3,0.7C870.4,611.8,870.2,611.9,870.1,612z"/>
		<path fill="#1A3C5E" d="M775.6,612c0,0.3,0,0.6,0,0.9c-0.1-0.2-0.2-0.4-0.3-0.7C775.3,612.2,775.5,612.1,775.6,612z"/>
		<path fill="#172742" d="M763.1,846.6c12,0.1,24,0.1,36,0.2c-29.6,0-59.2-0.1-88.9-0.1c13.2-0.1,26.4-0.1,39.6-0.2
			C754.2,846.6,758.6,846.6,763.1,846.6z"/>
		<path fill="#172742" d="M800.9,846.8c6.3-0.1,12.6-0.1,19-0.2c3.8,0,7.5-0.1,11.3-0.1c4.9,0.1,9.8,0.2,14.6,0.2
			C830.8,846.8,815.8,846.8,800.9,846.8z"/>
		<path fill="#435774" d="M856.9,846.3c0.7,0,1.4,0,2.1,0C858.3,846.3,857.6,846.3,856.9,846.3z"/>
		<path fill="#435774" d="M861.9,846.3c0.7,0,1.4,0,2.1,0C863.3,846.3,862.6,846.3,861.9,846.3z"/>
		<path fill="#98C21E" d="M547.1,771.4c-16.6-0.2-33.3-0.4-49.9-0.7c0,0,0,0,0,0c-0.1-22.6-0.2-45.3-0.3-67.9
			c0.3-0.5,0.5-0.9,0.8-1.4c16.4-0.1,32.7-0.2,49.1-0.3c7.3,0.3,14.6,0.7,22,1c0,23.1-0.1,46.2-0.1,69.3
			C561.5,771.5,554.3,771.5,547.1,771.4z"/>
		<path fill="#98C21E" d="M568.7,492.3c0.1,22.2,0.2,44.4,0.2,66.6c-7.2,0.5-14.5,0.9-21.7,1.4c-16.6-0.2-33.3-0.4-49.9-0.6
			c-0.1-0.2-0.2-0.4-0.4-0.6c-0.1-22.1-0.2-44.2-0.3-66.2c0.1-0.3,0.2-0.5,0.4-0.8c16.7-0.1,33.4-0.1,50.1-0.2
			C554.3,492,561.5,492.2,568.7,492.3z"/>
		<path fill="#98C21E" d="M546.9,614.1c0,14.9,0,29.9,0,44.8c-11.1,10.1-44.6,8.7-49.6-2c0-14.9,0-29.8,0.1-44.7
			C503.1,603.4,541.1,604.9,546.9,614.1z"/>
		<path fill="#435774" d="M546.9,614.1c-5.8-9.2-43.8-10.7-49.6-1.9c0-17.5,0-35,0.1-52.5c16.6,0.2,33.3,0.4,49.9,0.6
			C547.1,578.2,547,596.1,546.9,614.1z"/>
		<path fill="#435774" d="M497.2,656.8c5,10.7,38.5,12.1,49.6,2c0,14.1,0,28.3,0,42.4c-16.4,0.1-32.7,0.2-49.1,0.3
			C497.5,686.6,497.3,671.7,497.2,656.8z"/>
		<path fill="#435774" d="M211.1,672.1c0-6,0.8-12.1-0.2-18c-2.5-14.4,2.7-19.4,17.2-17.3c14,2,5.7,12,6.5,17.7
			c1.5,11.6-0.8,23.8,0.7,35.4c2.1,15.9-4.2,20-18.7,18.2c-6-0.7-5.5-3.6-5.5-7.6C211.2,691.1,211.1,681.6,211.1,672.1z"/>
		<path fill="#435774" d="M496.9,702.9c0.1,22.6,0.2,45.3,0.3,67.9c-23.7-11-8.3-32.6-12.7-48.8
			C482.3,713.9,485.3,704.4,496.9,702.9z"/>
		<path fill="#435774" d="M496.7,492.8c0.1,22.1,0.2,44.2,0.3,66.2c-6.5-1.2-10.7-4.9-10.8-11.6c-0.3-14.5-0.4-29,0-43.4
			C486.2,497.7,490.1,493.6,496.7,492.8z"/>
		<path fill="#435774" d="M236.9,725.7c0,4.8,0,9.6,0,14.4c-7.6,4.3-16.2,4.4-23.3,1.2c-2.7-1.2-1.9-10.4-2.3-15.9
			c-0.1-1,2.4-3.4,3.2-3.2C221.9,724,230.6,717.5,236.9,725.7z"/>
		<path fill="#435774" d="M660.2,846.5c-30.7,0.1-61.4,0.2-92.1,0.3C598.7,846.6,629.4,846.6,660.2,846.5z"/>
		<path fill="#435774" d="M763.1,846.6c-4.4,0-8.8-0.1-13.3-0.1C754.2,846.6,758.6,846.6,763.1,846.6z"/>
		<path fill="#435774" d="M831.1,846.5c-3.8,0-7.5,0.1-11.3,0.1C823.6,846.6,827.4,846.5,831.1,846.5z"/>
		<path fill="#FFFFFF" d="M206.9,410.8c-6.6,10.5-16.7,11.6-25.4,14.8c-0.9,0.3-5.8-5.1-5.3-6.5c3.9-10.5,14.6-10.2,23.2-12.9
			C201.1,405.6,204,408.9,206.9,410.8z"/>
		<path fill="#FFFFFF" d="M185.2,364.7c4.9,2.9,15.9,1.2,19.7,11.5c1.3,3.6-2.7,7.1-6.6,5.8c-8.3-2.8-19.4-1.6-22.8-12.6
			C174.3,365.4,178,363.3,185.2,364.7z"/>
		<path fill="#FFFFFF" d="M310.7,416.5c0.8,6.8-1.9,9.8-5.3,8.7c-8.7-2.7-19.2-3.3-23.1-13.6c-1.2-3.3,2.2-6.5,5.7-5.6
			C296.7,408.3,306.1,409.8,310.7,416.5z"/>
		<path fill="#FFFFFF" d="M291.3,381.6c-6.5,1-10.2-1.7-8.8-4.9c4.2-9.8,14.8-10.4,23.4-13.2c3.5-1.1,6.9,2.7,5.8,6.2
			C308.2,380.8,296.8,378.3,291.3,381.6z"/>
		<path fill="#FFFFFF" d="M268.8,330.2c6.3-0.4,9.4,1.9,8.2,5.3c-2.9,8.3-5.6,17.3-15.1,20.6c-1.2,0.4-5.9-4.6-5.5-5.7
			C259.4,342.3,261.8,333.6,268.8,330.2z"/>
		<path fill="#FFFFFF" d="M232.6,351.5c-3,1.8-6.1,5-7.6,4.3c-8.9-3.7-12.2-12-13.9-20.7c-0.8-4,3.1-6.6,6.5-5.3
			C226.8,333.2,227.5,343,232.6,351.5z"/>
		<path fill="#FFFFFF" d="M230.8,439.3c-3.6,5.6-3.9,15.7-14,18.3c-1.3,0.3-5.9-5-5.4-6.4c2.9-8,5-17.3,14.7-20.1
			C229.8,430.2,231.4,433.7,230.8,439.3z"/>
		<path fill="#FFFFFF" d="M265.2,432.3c6.3,3.2,8.9,11.4,11.4,19.3c0.4,1.3-4.5,6.3-5.9,5.9c-9.6-2.7-11.3-11.8-13.7-19.9
			C256.1,434.2,258.3,431.6,265.2,432.3z"/>
		<path fill="#98C21E" d="M181.1,708.8c-9.7,2.2-14-1.7-13.2-12.9c0.5-8.5,5.4-8.3,11.1-7.9c7.6,0.5,17.5-4.3,16.8,11.2
			C195.1,710.7,188.9,709.1,181.1,708.8z"/>
		<path fill="#98C21E" d="M182.5,743c-6.3-0.8-14.4,2.9-14.6-9.2c-0.2-19.2,13.7-9,21.3-10.6c10-2,6.4,6.8,6.8,11.5
			C196.8,746,188.1,742.1,182.5,743z"/>
	</g>
</g>
</svg>
