<?xml version="1.0" encoding="utf-8"?>
<!-- Generator: Adobe Illustrator 27.5.0, SVG Export Plug-In . SVG Version: 6.00 Build 0)  -->
<svg version="1.1" id="Ebene_1" xmlns="http://www.w3.org/2000/svg" xmlns:xlink="http://www.w3.org/1999/xlink" x="0px" y="0px"
	 viewBox="0 0 1024 1024" enable-background="new 0 0 1024 1024" xml:space="preserve">
<g id="_x34_7f81A_00000050629552674631927630000017019280401084092853_">
	<g>
		<path fill="#FFFFFF" d="M1023.9,448c-0.1-0.2-0.3-0.4-0.3-0.7c0-0.1,0.2-0.2,0.3-0.3C1023.9,447.4,1023.9,447.7,1023.9,448z"/>
		<path fill="#1A2933" d="M711.1,911c-34.9,18.7-72.4,29.8-110.9,37.6c-76.3,15.4-151.8,10.9-225.9-11.4
			c-48.3-14.5-92.5-38.1-133-68.5c0,0,0,0,0,0c-0.4-0.2-0.8-0.6-1.1-0.9c-1.2-1-2.4-1.9-3.6-2.9c0.2-0.5,0-0.6-0.4-0.3
			c-4-3.1-8.1-6.2-12.1-9.5c-11.1-9.3-21.3-19.4-31.5-29.5c-12.5-12.4-23.5-25.9-34.6-39.4c-13.3-16.1-24.3-33.7-35-51.5
			c-5.9-9.9-11.8-20-16.6-30.5c-7.3-16.2-14.4-32.7-20.1-49.5c-6.1-17.7-11.1-35.8-15.4-54c-3.2-13.4-4.6-27.2-6.5-40.9
			c-1.3-8.9-2.3-17.9-3.1-26.8c-0.3-3.8,0.2-7.6,0.2-11.4c-0.1-10.2-0.6-20.3-0.2-30.5c0.5-11.3,1.6-22.6,2.9-33.9
			c1.4-12.5,3-25,5.2-37.4c1.8-9.9,4.6-19.5,7-29.2c5-19.6,11-38.9,19.4-57.3c6.9-15.1,14-30.1,21.5-44.8
			c5.3-10.3,11-20.5,17.4-30.1c5.6-8.5,12.4-16.3,18.7-24.4c5.9-7.6,11.8-15.2,17.8-22.7c1.9-2.4,3.9-4.9,6.1-7.1
			c9.5-9.4,19.4-18.4,28.6-28.1c12.8-13.6,27.7-24.7,42.6-35.5c23.1-16.8,48-30.7,73.9-42.6c23.9-11,48.6-19.7,73.9-26.6
			c12-3.3,24.5-5.2,36.8-7.4c10.1-1.8,20.3-3.4,30.5-4.8c5.2-0.7,10.5-0.9,15.8-1.2c6.9-0.4,13.9-0.8,20.8-1.2
			c9.4-0.1,18.8-1.5,28,1c11.5,0.7,23.1,1,34.5,2.3c10.7,1.1,21.2,3.2,31.8,5c6.5,1.1,12.9,2.5,19.3,3.9c9.1,2,18.4,3.5,27.3,6.2
			c11.4,3.4,22.6,7.5,33.6,11.9c11.6,4.6,23,9.8,34.4,14.9c4.2,1.9,8.9,3.4,12.3,6.3c5.3,4.5,11.8,6,17.6,9.2
			c5.8,3.3,11.4,7.1,16.9,10.9c11.1,7.6,22.2,15.1,33,23.1c7.4,5.5,14.1,11.8,21,17.9c6.9,6.1,14,12.1,20.5,18.6
			c6.6,6.6,12.8,13.8,19,20.8c6.2,7,12.8,13.8,18.2,21.4c10.9,15.3,21.1,31,31.6,46.6c0.2,0.4,0.5,0.7,0.8,1l0,0
			c0.3,0.4,0.6,0.7,0.9,1l0,0c1,0.8,1.3,2,1.9,3.1c0,0,0,0,0,0c4.4,8.4,8.9,16.7,13.1,25.1c12.2,24.7,22.7,50.2,29,77.1
			c4.6,19.4,8.6,38.9,12.6,58.4c1,5,0.8,10.2,1.1,15.2c-2.8,1.4-4.4-0.8-6-2.2c-4.9-4-9.4-8.4-14.1-12.7
			c-20.6-19.1-42.2-37.1-64.5-54.1c-14.7-11.2-30.1-21.4-46.2-30.3c-2.1-1.1-4.3-2.2-3.2-5.3c1.2-1.8,3-2.5,4.9-3.2
			c11.4-4.1,22.7-8.5,34.5-11.2c1.1-0.3,2.2-0.6,3.3-1.1c4.8-2.1,8.9-4.8,8.9-10.7c0-5.8-3.9-8.4-8.7-10.2
			c-16.7-6.3-33.2-12.8-49.9-19.2c-30.7-11.7-61.1-23.8-91.7-35.7c-51.2-20-102.3-40.2-153.5-60.2c-18.6-7.3-37.2-14.6-55.8-22
			c-5.3-2.1-10.2-2.1-15.4-0.2c-29.7,10.9-59.6,21.4-89.3,32.2c-37.3,13.5-74.5,27-111.9,40.2c-36.9,13.1-73.5,26.9-110.5,39.8
			c-12.4,4.3-24.7,9.1-37.2,13.1c-0.8,0.3-1.6,0.6-2.3,0.9c-3.9,2.1-6.7,5.2-6.9,9.7c-0.1,4.6,2.6,7.8,6.7,9.7
			c8.2,3.8,16.7,6.6,25.1,9.8c65.9,25.6,132.3,50.2,198.2,75.9c43.6,17,87.2,33.9,130.9,50.6c2.8,1.1,5.8,1.7,8,4
			c1.1,1.4,1,3.1,1,4.8c-0.4,15.3-0.1,30.5-0.2,45.8c0,6.6,2,11.8,8.4,15.1c4.6,2.4,4.2,9.7-0.9,12.1c-2.9,1.4-3.5,3.1-3.3,5.8
			c0.3,5.1-1.9,8.9-6,11.8c-3.1,1-5.9-0.1-8.7-1.3c-27.6-11.7-55.7-22.2-83.5-33.3c-29.1-11.6-58.3-23-87.3-34.6
			c-18.6-7.4-37.1-14.8-55.7-22.1c-4.9-1.9-5.9-1.2-6,4.1c-0.1,4.7-0.2,9.3-0.7,14c-0.5,4.5-2.5,7.3-6.8,8.9
			c-4.4,1.6-8.5,3.8-12.1,7c-4.8,4.3-4.8,7-1.4,12.4c5.9,9.5,15.5,15,23.2,22.4c18.3,17.5,38.2,33.2,59,47.7
			c17.5,12.2,35.3,23.9,54.6,33.1c2.6,1.2,5.2,2.4,7,4.7c3.7,5.7,9.9,8.8,14.9,13c25.2,21.3,49.9,43,74.9,64.5
			c18,15.5,36.3,30.7,54.1,46.6c21.3,18.9,43.3,36.9,64.5,55.9c13.4,12,25.9,24.9,39.1,37.1c20.3,18.7,40.1,37.9,60.2,56.9
			C704.3,902,708.5,905.8,711.1,911z"/>
		<path fill="#DBDADA" d="M528,58c-9.3-0.3-18.7-0.7-28-1C509.3,57.3,518.7,57.6,528,58z"/>
		<path fill="#DBDADA" d="M902.8,282.2c-0.6-1-1.2-2.1-1.9-3.1C901.5,280.1,902.2,281.1,902.8,282.2z"/>
		<path fill="#DBDADA" d="M900.9,279.1c-0.3-0.3-0.6-0.7-0.9-1C900.3,278.4,900.6,278.7,900.9,279.1z"/>
		<path fill="#DBDADA" d="M899.9,278c-0.3-0.3-0.6-0.7-0.8-1C899.4,277.4,899.7,277.7,899.9,278z"/>
		<polygon fill="#DBDADA" points="236.1,864.7 236.4,864.7 236.5,865 236.2,865 		"/>
		<path fill="#DBDADA" d="M240.1,867.9c0.4,0.3,0.7,0.6,1.1,0.9C240.8,868.5,240.5,868.2,240.1,867.9z"/>
		<path fill="#0D1519" d="M824.9,354.2c18.3,12.4,37.5,23.9,54.8,37.6c27,21.3,52.7,44.1,79,66.3c1,19,2.1,38,3.1,57
			c-0.7,1.3-0.6,2.5-0.1,3.8c-2.4,101-35.5,190.7-98.7,269.5c-41.7,52-91.7,93.6-152,122.6c-3.2-3-6.3-6.1-9.5-9.1
			c-10.7-10.1-21.5-20.2-32.2-30.3c-2.9-2.7-5.7-5.6-8.6-8.3c-12.4-11.8-24.8-23.5-37.2-35.2c-3.8-3.7-7.4-7.7-11.3-11.2
			c-13.4-11.9-26.9-23.7-40.3-35.5c-11.3-10-22.6-20-34.1-29.9c-13.2-11.4-26.5-22.6-39.7-34c-8.8-7.6-17.4-15.4-26.2-22.9
			c-10.6-9.1-21.3-18-31.8-27.1c-10.1-8.6-20.1-17.4-30.2-26c-4.8-4.1-9.9-7.8-14.6-12c-1.5-1.3-2.2-3.3-3.3-5
			c2.1-0.9,3.9,0.1,5.7,1c31.1,14.4,63.6,23.9,97.8,27.5c5.1,0.5,10.3-0.2,15.3,1.4c13.4-1.5,26.9-1.5,40.3-3.7
			c27.3-4.6,53.4-12.6,78.7-23.9c18.4-8.3,36.1-18,53.2-28.6c4-2.5,7.8-5,11.4-8.1c2.7-1.2,5.6-0.9,8.4-0.9c34.6,0,69.3,0,103.9,0
			c7.5,0,7.6-0.1,5.6-7.1c-10.2-36.2-20.4-72.5-31-108.6c-1.6-5.6-2.8-11.3-4.8-16.8c-0.7-1.6-0.3-3.3,0.3-4.8
			c2.8-6.7,3-13.4,0.5-20.1c-0.5-1.2-0.6-2.6-0.5-3.9c0.1-1.3,0.8-2.5,0.6-3.9c0-0.8-0.2-1.6-0.1-2.4c-0.1-0.6-0.1-1.1-0.1-1.7
			c-0.3-14.5-0.5-28.9-2.4-43.3c-0.5-3.7,0.2-6.5,4.2-7.9c13-4.7,25.8-9.9,38.9-14.2C820.1,353.7,822.5,352.2,824.9,354.2z"/>
		<path fill="#374567" d="M961.8,518.9c0-1.3,0-2.6,0.1-3.8C961.8,516.4,961.8,517.7,961.8,518.9z"/>
		<path fill="#98C21E" d="M151.4,304.2c118.2-42.6,236-86,354.9-126.5c12.1-4.1,30.2,8.5,45.2,14.3
			c105.6,41.1,211.2,82.5,316.7,123.9c-0.8,2.5-3,2.9-5,3.6c-29.9,10.9-60.1,21-89.8,32.3c-5,1.9-9.2,1.5-13.4-2
			c-5.1-4.2-11.2-6.6-17.3-8.7c-17.1-5.7-34.1-11.7-51.2-17c-46.7-14.7-93.6-28.7-141.8-38c-5.4-1-10.8-2-16.2-2.8
			c-2.7-0.5-4.7-2.3-7-3.7c-12.1-7.4-24.2-6.8-35.7,0.8c-10.4,6.9-15.3,17.2-13.6,29.6c1.8,13.6,9.6,22.8,22.8,27.6
			c14.4,5.3,32-3.4,39.4-18.2c0.9-1.9,1.2-4.2,3.7-5c3-0.4,6,0.4,8.9,1c36.1,6.6,71.2,17.1,106.3,27.8c18.8,5.7,37.5,11.7,56.1,18
			c2.1,0.7,4.1,1.3,6.1,2.3c1.9,1,4.2,1.9,4.2,4.5c0,2.6-2.3,3.4-4.4,4.2c-5.2,1.9-10.3,3.7-15.5,5.5
			c-44.8,15.6-89.5,31.5-134.3,47.2c-17.3,6.1-34.6,12-51.8,18.3c-4.9,1.8-9.2,1.7-14-0.2c-29.6-12-59.6-23.3-89.3-35
			c-13.9-5.5-27.8-11.3-41.8-16.5c-69.4-25.9-138.2-53.5-207.5-79.6c-3.4-1.3-7-2.3-10.3-3.8C153.7,307.3,151.8,306.6,151.4,304.2z"
			/>
		<path fill="#98C21E" d="M510.6,655.8c-41.5-2.9-81-13.5-118.6-31.4c-10.8-5.7-21.8-11.1-32.4-17.1c-7-4-13.5-8.9-20.1-13.5
			c-11-7.9-22.4-15.4-32.8-24c-16-13.2-31.3-27.1-46.8-40.9c-4.3-3.8-8-8.2-12.2-12.1c-4.7-4.3-3.9-8.9,0.3-12.4
			c4.4-3.6,10-5.8,14.7-9.1c2.1-1.4,4.4-3.9,4.8-6.1c1-6,1.1-12.3,1.3-18.4c0.1-3.6,1.2-4.4,4.7-3c32.9,13.2,65.8,26.3,98.7,39.3
			c24.1,9.5,48.2,18.9,72.3,28.5c20,8,40,16.1,60,24.1c1.7,0.7,3.5,1,5.2,1.4c0.3,0.1,0.6,0.2,0.9,0.3c2.2,1.8,2.2,4.4,2.2,6.9
			c0.1,26.9,0.1,53.9,0,80.8C512.9,651.6,513.1,654.2,510.6,655.8z"/>
		<path fill="#5F7127" d="M151.4,304.2c2.3,1.2,4.5,2.7,6.9,3.7c45.7,17.6,91.3,35,137,52.6c23.8,9.1,47.5,18.4,71.2,27.6
			c46.2,17.9,92.3,35.8,138.5,53.6c3.3,1.3,6.4,2.4,10.5,1c61.3-21.8,122.7-43.3,184.1-64.9c6.9-2.4,13.8-4.8,20.7-7.3
			c1.3-0.5,2.3-1.5,3.4-2.3c-1.1-0.9-2.1-2.1-3.3-2.8c-1.6-0.9-3.3-1.6-5.1-2.1c-40.1-12.2-80.2-24.7-120.4-36.3
			c-16.4-4.7-33.4-7.4-50.1-11.1c-0.8-0.2-1.5-0.6-2.3-0.9c-1.8-2.3-1.3-5-1.3-7.6c0.2-7.5-1.7-14.3-6.7-20.1
			c-1.3-1.5-2.6-3.1-1.6-5.3c49.9,7.3,98,21.6,145.9,36.8c25,7.9,51,14.1,74.1,25.7c29.9,15.1,49.5-10.4,74.4-14.2
			c14-2.1,27.2-9.5,40.8-14.4c6.5,1.1,10,5,10,11.6c-0.1,9-7.4,11.1-13.8,13.4c-13.1,4.7-26.3,8.9-39.5,13.3
			c-15.7,5.5-31.6,10.6-46.9,17c-1.6,0.6-0.1,8.7,0,13.2c0.3,12.3,0.5,24.6,0.8,36.9l0,0.4c0,0.9,0,1.9,0,2.8c-1,0.6-2,0.6-3.1,0.2
			c-2.5-1.3-4.5-3.4-6.7-5.2c-9-7.2-18.7-9-29.4-4.1c-1.9,0.9-3.9,2.2-6.1,0.6c-2.4-5.1-1-10.5-1.2-15.7c-0.3-10.1,1.3-11-10-6.8
			c-21.9,8.1-44,15.5-66,23.3c-45.7,16.1-91.4,32.1-137.1,48.2c-2.6,0.9-5.2,2.6-8.1,1.1c-18.6-7.1-37.3-14.1-55.9-21.3
			c-40.8-15.7-81.5-31.6-122.4-47.3c-40-15.3-80.1-30.4-120-45.7c-20.5-7.9-41-15.8-61.5-24c-2.8-1.1-5.7-2.9-7.6-5.2
			C138.4,316.1,142.8,305.9,151.4,304.2z"/>
		<path fill="#0D1519" d="M511.1,466.2c71.9-25.3,143.8-50.5,215.7-76c6.9-2.5,7.9-0.7,7.6,5.7c-0.4,6.6,0.3,13.2,0.5,19.9
			c0,2.9-2.1,4.5-3.9,6.1c-11.8,10.7-9.5,22.2-3.9,33.4c1.1,2.2,2.9,4.1,2.9,6.7c-1.8,8.6-5.4,16.7-8.1,25.1c-0.3,0.5-0.6,0.9-1,1.3
			c-0.4,0.4-0.8,0.7-1.3,0.9c-67.6,24.8-135.5,48.7-203.5,72.3c-2.1,0.7-4.2,0.8-6.2-0.4c0,0,0,0,0,0c7.4-6,4.7-16.9,11.9-24
			c2.5-2.5-11.2-8.7-10.9-18.2C511.5,501.4,511.1,483.8,511.1,466.2z"/>
		<path fill="#29331C" d="M509.9,561.1c53.4-18.5,106.8-37.1,160.3-55.6c16.7-5.8,33.5-11.3,50.2-17c1.6,2.2,0.8,4.5,0.3,6.7
			c-1.4,6.7-3.7,13.1-5.4,19.7c-4.8,18.1-10.4,36-15.2,54.2c-2,7.4-3,15-6.1,22c-12.9,8.3-25.3,17.5-38.8,24.9
			c-45,24.7-92.9,39-144.5,39.8C510.4,624.3,510.1,592.7,509.9,561.1z"/>
		<path fill="#5F7127" d="M693.9,591.2c7.1-27.5,14.2-54.9,21.3-82.4c1.7-6.7,3.4-13.5,5.1-20.3c0,0-0.1-0.3-0.1-0.3
			c0-0.4,0.2-0.8,0.5-1c2.9-8.4,5.7-16.8,8.6-25.2c10.1,5,20.2,10.3,32,5.6c1.4-0.2,3,0.2,4.2-0.7c0.3-0.2,0.6-0.4,0.9-0.6
			c0.4-0.3,0.9-0.6,1.3-1c0.3-0.2,0.5-0.5,0.8-0.7c0.4-0.3,0.8-0.6,1.3-0.8c0.3-0.2,0.5-0.4,0.8-0.6c0.2-0.2,0.5-0.5,0.7-0.7
			c0,0,0.3-0.4,0.3-0.4c0.3-0.4,0.5-0.9,0.8-1.3c0.2-0.3,0.4-0.6,0.6-0.9c0.3-0.4,0.6-0.9,0.9-1.4c0.2-0.3,0.4-0.6,0.6-0.9
			c0.5-0.6,1.1-1.1,1.8-1.5c0.2,0,0.4-0.1,0.6-0.1c0.9,1.5,2.2,2.8,2.6,4.4c12.1,41.9,24,83.8,36,125.7c1.3,4.5,1.2,4.5-3.7,4.5
			c-36.3,0-72.6,0-109,0C699.9,590.7,696.9,591,693.9,591.2z"/>
		<path fill="#DBDADA" d="M775,458.4l-0.1,0.2c-0.2,1.1-1,1.8-1.9,2.4l-0.1,0.1c-0.6,0.5-0.3,1.5-1,1.9l0,0c-0.3,0.4-0.6,0.7-1,1
			l0,0c-0.5,0.7-1.4,0.5-1.9,1l-0.1,0.1c-0.6,0.7-1.3,1.3-2,1.9l0,0c-1.3,1.1-3,1.4-4.4,2c-12.4,4.1-23.5,1.8-33.1-6.9
			c-11.4-17-11.7-32.7,5.5-46.3c16.1-8.3,29.8-5.2,41.1,8.9c1.1,0.5,1.9,1.2,1.8,2.5c3.3,9.7,4.2,19.4-0.8,28.9c0,0,0,0,0,0
			C776.4,457,775.5,457.5,775,458.4z"/>
		<path fill="#374567" d="M777.7,427.1c-0.6-0.8-1.2-1.6-1.8-2.5c0.9,0,1.9-0.1,2.8-0.1C778.4,425.4,778.1,426.2,777.7,427.1z"/>
		<path fill="#374567" d="M778.8,421.7l-0.3-0.2c0,0,0.3-0.2,0.3-0.2S778.8,421.7,778.8,421.7z"/>
		<path fill="#374567" d="M533,282.1c8.5,9.4,11.7,20.5,9.6,33c-9,21.1-24.2,32.4-46.6,22.5c-20.4-8.9-27.8-27-16.4-46.8
			C492.7,268.2,512.4,267.8,533,282.1z"/>
		<path fill="#374567" d="M720.8,487.2c-0.2,0.3-0.3,0.7-0.5,1C720.5,487.9,720.6,487.6,720.8,487.2z"/>
		<path fill="#374567" d="M762.5,469c1.5-0.7,3-1.3,4.4-2C765.4,467.6,764,468.3,762.5,469z"/>
		<path fill="#374567" d="M766.9,467c0.7-0.6,1.3-1.3,2-1.9C768.2,465.7,767.6,466.3,766.9,467z"/>
		<path fill="#374567" d="M775,458.4c0.6-0.8,1.3-1.6,1.9-2.4C776.3,456.8,775.6,457.6,775,458.4z"/>
		<path fill="#374567" d="M773,461c0.6-0.8,1.3-1.6,1.9-2.4C774.3,459.4,773.6,460.2,773,461z"/>
		<path fill="#374567" d="M769,465c0.6-0.3,1.3-0.7,1.9-1C770.3,464.3,769.6,464.6,769,465z"/>
		<path fill="#374567" d="M771.9,463c0.3-0.6,0.7-1.3,1-1.9C772.6,461.7,772.2,462.3,771.9,463z"/>
		<path fill="#374567" d="M770.9,464c0.3-0.3,0.7-0.7,1-1C771.6,463.3,771.2,463.6,770.9,464z"/>
	</g>
</g>
</svg>
