<?xml version="1.0" encoding="utf-8"?>
<!-- Generator: Adobe Illustrator 27.5.0, SVG Export Plug-In . SVG Version: 6.00 Build 0)  -->
<svg version="1.1" id="Ebene_1" xmlns="http://www.w3.org/2000/svg" xmlns:xlink="http://www.w3.org/1999/xlink" x="0px" y="0px"
	 viewBox="0 0 1024 1024" enable-background="new 0 0 1024 1024" xml:space="preserve">
<g id="txLJCZ_00000062176327410798688670000015336800185923272865_">
	<g>
		<path fill="#1A2933" d="M81.3,697.7c-0.2-1.3-0.2-2.7-0.7-3.9c-6-13.1-10.5-26.8-15.1-40.4c-3.9-11.5-6.5-23.4-9.2-35.2
			c-2.6-11.3-4.6-22.8-6.4-34.3c-1.7-11-2.7-22-3.9-33.1c-0.9-8.2,0.1-16.4-1.7-24.5c-0.5-2-0.5-4.3,0.8-6.2c0-7,0-14,0-21.1
			c0.7-11.8,0.8-23.6,2.2-35.2c1.5-11.9,3-23.9,5.3-35.8c3-15.6,6.2-31.2,10.6-46.5c6.3-21.9,14.4-43.2,23.7-64.1
			c26.1-58.3,63-108.7,109.7-152.1c18.2-16.9,37.7-32.2,58.4-46C287,97.8,321.4,81,357.8,68.4c25.7-8.9,51.9-15.4,78.8-19.5
			c11.8-1.8,23.7-3.3,35.6-4.4c5.9-0.6,12-1.4,18.1-0.5c1.2,0.2,2.5-0.5,3.7-0.7c1.5,1.5,3.5,0.8,5.2,0.8c11.5,0.1,22.9,0.1,34.4,0
			c1.8,0,3.7,0.5,5.3-0.8c5.9,1.7,12.1,0.8,18.1,1.5c11.4,1.3,22.7,2.5,34,4.5c15.7,2.8,31.4,6.3,46.8,10.6
			c18.9,5.3,37.2,11.8,55.3,19.3c28.3,11.7,54.8,26.8,80,44c11.5,7.9,22.9,16.2,33.4,25.4c7.5,6.6,15.4,12.9,22.5,20.3
			c4.7,4.9,11,9.1,15.3,14.5c5,6.3,10.6,12.3,16.1,17.9c14.4,14.9,26.3,31.5,38.1,48.3c12.5,17.9,23.1,37,32.6,56.6
			c2.7,5.6,6.6,10.7,8.1,16.9c-0.2,0.7,0.2,1,0.8,1c0,0,0,0,0,0c0.1,0.5,0,1,0.2,1.5c9.9,20,16.6,41.2,22.2,62.6
			c5.3,20,9.2,40.4,11.7,61c2,16.2,3.2,32.5,3.9,48.7c1.1,24.5-0.3,49-3.2,73.3c-0.7,5.6-0.3,11.5-2.9,16.8c-2-1.2-3.5-3-4.9-4.9
			c-4.8-6.3-9.6-12.7-14.5-19c-12.9-16.5-25.8-32.9-38.6-49.3c-12.2-15.7-24.4-31.4-36.7-47c-4.2-5.3-7-10.4-4.2-17.5
			c2-5.1,2.1-10.5,1.6-16.1c-1.1-14.7-9.8-25.3-18.3-36.2c-15.5-19.8-30.8-39.9-46.4-59.7c-4.9-6.2-9.1-13-15.3-18.1
			c-0.1-1.3-0.3-2.6-0.4-3.9c-0.1-7.1,0-7-6.9-7c-166.8,0-333.6,0-500.3,0.1c-16.7,0-33.3,0.1-50,0c-3.2,0-4.3,0.9-4.3,4.3
			c0.1,17.2,0,34.3,0,51.5l0.1,0.2c-0.7-0.2-0.9,0.3-1.1,0.9c-2.8,3.3-4.2,7.4-6.2,11.2c-14.1,27.2-28.2,54.3-42.3,81.5
			c-4,7.7-2.9,15.8-1.4,23.6c1.6,8.4,6.5,15.1,12.9,20.9c10.6,9.5,22.5,12,36,8.7c1.6,2.2,1.2,4.8,1.2,7.2c0,87.7,0,175.3,0,263
			c0,2-0.5,4,0.6,5.9c-0.3,0.7-0.9,0.8-1.6,0.8c-29.9,0-59.9-0.1-89.8,0c-2.5,0-3.8-1.3-5.3-3c-10.6-12.5-19.1-26.4-27.8-40.1
			c-8.9-14-16.5-28.8-23.7-43.8C83.7,700.2,83.7,697.9,81.3,697.7z"/>
		<path fill="#C4C4C3" d="M940.2,325.5 M971.8,588 M170.2,826l-29-37.4c29.9,0,59.9,0,89.8,0c0.7,0,1.3-0.1,1.6-0.8
			c0.1-1.7,0.2-3.3,0.2-5c0-61.8,0-123.6,0-185.4c0-28.8,0-57.6,0.1-86.4c8.6-3.2,15.8-8.2,21.2-15.7c2.5-3.5,3-8,6-11.3
			c0.6,1.3,1.3,2.6,1.8,4c5.4,14,20.3,24.7,34.2,25.1c15.4,0.4,35-10.9,38.1-28.1c0.1-0.5,0.9-0.8,1.4-1.2c0.5,1.2,1.1,2.4,1.6,3.6
			c5.9,16.5,25.6,28.2,41.8,24.7c16.4-3.5,32.9-17.7,30.9-36.9c-0.4-3.6,0.1-7.3,0.2-10.9c0.2,1.5,0.4,2.9,0.5,4.4
			c0.3,5.3-0.4,10.7,0.7,15.9c4.1,18.7,27.3,33.3,47,26.9c16.9-5.4,26.7-18.2,26.7-35.8c-0.1-34.7-0.1-69.3-0.1-104
			c0-1.9-0.6-4,0.7-5.8c0.1,1.7,0.2,3.3,0.2,5c0,34.6,0.3,69.3-0.1,103.9c-0.2,13.4,5.1,23.2,15.4,30.9c11.6,8.8,30.2,9.1,41.9,0.7
			c7.5-5.3,12.9-12.3,16.8-20.5c3,6.2,6.8,11.8,11.8,16.6c14.6,13.9,38,13.8,52.6-0.2c5.4-5.2,8.5-11.7,11.4-18.4
			c1.7,1,1.6,2.8,2.1,4.3c5,13.5,21.3,25.2,35.6,24.5c18.6-0.9,31.3-10.6,37.9-28.2c1.4,1.5,2,3.2,2.6,4.9
			c6.3,15.6,27.1,26.2,42.3,22.6c16.8-4,32.5-20.3,30.7-37.7c-0.4-3.4,0.1-7,0.2-10.5c1.1,2.9,0.7,5.9,0.5,8.8
			c-0.5,8.8,0.9,17.1,6.1,24.5c0.4,0.5,0.4,1.2,0.6,1.9c-0.1,0.3,0,0.5,0.3,0.7c-0.1,1.6-0.4,3.3-0.4,4.9c0,45.1,0,90.2,0,135.3
			c0,2.7-0.2,5.3-0.3,8c-0.3,0-0.6,0.1-0.9,0.1c-18.9,4-34.4-1-45.2-18.1c-1.5,2.3-0.9,4.2-0.9,6c-0.1,19.4-0.2,38.9-0.2,58.3
			c-0.3-0.1-0.6-0.2-1-0.3c-0.9-1.9-2.6-1.1-4-1.1c-39.4,0-78.8,0-118.2,0c-1.5,0-3.4-1-4.4,1.1c-1.1,10.1-0.5,20.2-0.4,30.2
			c-2.2-1-0.9-2.9-0.9-4.3c-0.1-21.5,0-42.9,0-64.4c0-6.5,0-6.3-6.3-6.6c-8.6-0.4-16.2-3.1-23.2-8.6c-6-4.7-9.1-11.3-13.3-17.3
			c-0.7,4.1,0.6,8.1-0.8,12c-0.1-3.6-0.3-7.3-0.3-10.9c0-23.9,0-47.9,0.2-71.8c0-4-0.5-5.7-5.3-5.6c-37.4,0.3-74.8,0.2-112.3,0.2
			c-1.6,0-3.3,0.2-4.9,0.4c-0.5,0-0.7,0.2-0.4,0.6c-0.1,18.8-0.2,37.6-0.2,56.4c0,14.3,0.2,28.6,0.2,42.9l-0.2,0.4l0.3,0.3
			c-0.2,0.2-0.3,0.2-0.6,0.2c-15.5,3-29.4,0.3-41.1-12.3c0,28.3,0,55.4,0,82.5c0,1.9,0.8,4-0.9,5.7c-0.1-10,0.6-20-0.4-30
			c-0.6-1.8-2.2-1.1-3.4-1.1c-39.5,0-79.1,0-118.6,0c-1.5,0-3.4-0.9-4.5,1c-0.3,0.2-0.6,0.3-0.9,0.4c-0.1-14.6-0.1-29.3-0.3-43.9
			c-0.1-3.5,2-3.5,4.5-3.5c11.2,0,22.3,0,33.5,0c1.5,0,3.3,0.7,4.8-1c-2.4-4-5.7-7.3-8.4-11c-3.6-5.1-9.2-8.6-11.3-14.9
			c1.5-1.6,3.5-0.9,5.2-0.9c31.7-0.1,63.3-0.1,95,0c3.7,0,4.8-1,4.7-4.7c-0.2-24.7-0.1-49.3,0-74c0-3.2-0.7-4.3-4.1-4.3
			c-39.7,0.1-79.3,0.1-119,0c-3.1,0-4,0.9-3.9,3.9c0.2,10.5,0.2,21,0,31.5c-0.1,5.8,0.7,11.6-0.5,17.3c-0.7-0.4-1.6-0.6-2.1-1.2
			c-9.2-10.9-18.2-21.9-27.4-32.8c-5.7-6.7-11.8-13.2-17-20.7c-1.4,1.9-0.9,3.5-0.9,4.9c0,81.4,0,162.9-0.2,244.3
			c0,4.9,1.7,5.6,6,5.6c68.1-0.1,136.2-0.1,204.4-0.1c2.5,0,5-0.2,7.5-0.3c25.6-0.1,51.1-0.1,76.7-0.2c13.9,0,27.9,0.1,41.8,0.1
			c2.1,0,4.1,0.2,4.1-2.8c0.6,3.9,3.6,3.1,6.1,3.1c66.8,0,133.7,0,200.5,0c4,0,8-0.1,12-0.2c0.7,0,1.4,0.1,2.1,0.1
			c4.8-0.1,9.6-0.3,14.4-0.4c24.4-0.1,48.7-0.2,73.1-0.3 M170.2,826c11.7,15,25.6,26.2,38.8,37.7c31.6,27.5,66.9,50,104.8,67.5
			c53.9,24.9,110.6,40.6,170.3,43.3c33.8,1.5,67.5,1,101-4.6c105.3-17.5,193.8-66.2,267.3-142.7c-0.2-0.4-0.4-0.8-0.6-1.2
			C625.1,826,398.3,826,170.2,826z M682.5,536.2C682.5,536.2,682.5,536.2,682.5,536.2c-19.7,0-39.3,0.1-59-0.1
			c-3.4,0-4.5,0.7-4.5,4.4c0.2,24.7,0.2,49.3,0,74c0,3.8,1.2,4.7,4.8,4.7c39.2-0.1,78.3-0.2,117.5-0.1c3.7,0,4.9-0.9,4.8-4.7
			c-0.1-24.5-0.1-49,0.1-73.5c0-3.7-0.9-4.8-4.7-4.8C721.8,536.3,702.1,536.2,682.5,536.2z"/>
		<path fill="#18233E" d="M539,43.3c-1.6,1.3-3.5,0.7-5.3,0.8c-11.5,0.1-22.9,0.1-34.4,0c-1.8,0-3.7,0.6-5.2-0.8
			c3-0.1,5.9-0.2,8.9-0.4c9.4,0,18.7,0,28.1,0C533.7,43,536.3,43.2,539,43.3z"/>
		<path fill="#C4C4C3" d="M531,42.9c-9.4,0-18.7,0-28.1,0C512.3,41.3,521.7,41.5,531,42.9z"/>
		<path fill="#C4C4C3" d="M45,499c0,7,0,14,0,21.1C43.6,513,43.7,506,45,499z"/>
		<path fill="#C4C4C3" d="M939.9,324c-0.7,0-1-0.3-0.8-1C939.3,323.3,939.6,323.7,939.9,324z"/>
		<path fill="#98C21E" d="M335.7,483.8c-0.5,0.4-1.3,0.7-1.4,1.2c-3.2,17.2-22.7,28.5-38.1,28.1c-13.9-0.4-28.8-11.1-34.2-25.1
			c-0.5-1.4-1.2-2.7-1.8-4c0.1-8.5-0.7-17,0.4-25.4c1.8-13.9,5.2-27.7,7.2-41.6c2.2-15.7,4.5-31.3,7.5-46.9c0.9-4.7-0.6-5.2-4.6-5.2
			c-12.6,0.1-25.3-0.1-37.9-0.2c0-17.2,0.1-34.3,0-51.5c0-3.4,1.1-4.3,4.3-4.3c16.7,0.1,33.3,0,50,0c166.8,0,333.6,0,500.3-0.1
			c6.8,0,6.8,0,6.9,7c0,1.3,0.2,2.6,0.4,3.9c-0.7,14-0.3,27.9-0.1,41.9c0,1.4,0.5,2.4,1.3,3.6c20.5,29.7,40.7,59.5,61.4,89.1
			c4.1,5.9,5.7,11.7,5.9,18.9c0.3,15.9-7.2,26.8-20.2,34.1c-10.6,6-21.9,7.4-33.4,1.5c-5.3-2.7-9.5-6.8-14.5-9.8
			c-0.2-0.2-0.3-0.2-0.6-0.2c-0.2-0.6-0.2-1.4-0.6-1.9c-5.1-7.4-6.6-15.6-6.1-24.5c0.2-2.9,0.6-5.9-0.5-8.8
			c-0.1-1.2-0.1-2.3-0.3-3.5c-2.6-13.7-4.8-27.6-6.6-41.4c-2.2-16.3-5.8-32.5-6.8-48.9c-0.3-4-1.8-5.1-5.8-5.1
			c-21.3,0.2-42.6,0.1-63.9,0.1c-24.9,0-49.9,0.1-74.8,0.2c-0.6-0.2-0.7,0.1-0.7,0.6c0.3,6.4,0.1,12.9,1,19.3
			c1.7,11.1,1.6,22.4,2.8,33.5c1,10,1,20.1,2.2,30.1c1.4,11.7,2.1,23.4,1.6,35.2c-2.8,6.7-6,13.2-11.4,18.4
			c-14.6,14-37.9,14.1-52.6,0.2c-5-4.8-8.9-10.4-11.8-16.6c0.6-38.8-0.6-77.6-1.6-116.3c-0.1-2.9-0.4-4.6-4-4.6
			c-22.5,0.2-45,0.2-67.4,0.2c-0.5-0.2-0.8,0-0.9,0.5l-0.2,0.2c-1.3,1.8-0.7,3.9-0.7,5.8c0,34.7,0,69.3,0.1,104
			c0,17.6-9.8,30.4-26.7,35.8c-19.8,6.4-42.9-8.2-47-26.9c-1.2-5.3-0.4-10.6-0.7-15.9c-0.1-1.5-0.3-2.9-0.5-4.4
			c0.1-0.8,0.2-1.6,0.3-2.4c0-0.9,0.1-1.8,0.1-2.7c0.4-10.2,0.6-20.5,1.4-30.7c0.7-8.6,0.6-17.2,1.1-25.8c0.7-11.2,1.3-22.4,2-33.6
			c0.2-2.6-0.5-4-3.5-3.9c-21.9,0.2-43.9,0.2-65.8,0.2c-0.3,0.2-0.6,0.4-0.9,0.5c-1.7,4.1-1.4,8.6-1.9,12.9c-1,9.6-1.3,19.4-2.2,29
			c-1.1,12.3-2.8,24.5-3.8,36.7C336.1,457.6,335.7,470.7,335.7,483.8z"/>
		<path fill="#050607" d="M794.9,499.3c5,3.1,9.2,7.1,14.5,9.8c11.6,5.9,22.8,4.5,33.4-1.5c13-7.3,20.5-18.2,20.2-34.1
			c-0.1-7.2-1.8-13-5.9-18.9c-20.6-29.6-40.9-59.4-61.4-89.1c-0.8-1.2-1.3-2.2-1.3-3.6c-0.2-14-0.6-27.9,0.1-41.9
			c6.2,5.1,10.4,11.9,15.3,18.1c15.6,19.8,30.8,39.9,46.4,59.7c8.5,10.9,17.2,21.5,18.3,36.2c0.4,5.6,0.4,11.1-1.6,16.1
			c-2.8,7.1,0,12.2,4.2,17.5c12.4,15.6,24.5,31.4,36.7,47c12.9,16.5,25.8,32.9,38.6,49.3c4.9,6.3,9.7,12.6,14.5,19
			c1.4,1.9,2.9,3.7,4.9,4.9c-0.4,10.3-3.3,20.1-5.5,30c-4,17.6-9.3,34.9-15.7,51.8c-10.4,28-23.3,54.8-39.2,80.1
			c-6.2,9.9-12.3,19.7-19.6,28.9c-2.4,3-3.9,6.8-7.1,9.2c-0.7,0.1-1.5,0.2-2.2,0.2c-24.4,0.1-48.7,0.2-73.1,0.3
			c-4.8,0-9.6,0.2-14.4,0.4c-0.3-0.7-0.6-1.3-1-2c1.1-6.2,0-12.5,0.5-18.7c0.3-4.4,0.9-8.8-0.3-13.1c-0.4-25.4-0.4-50.9,0-76.3
			c1-9.9,1-19.8,0.1-29.7c-0.1-0.4-0.3-0.8-0.4-1.2c0.1-2.7,0.3-5.3,0.3-8c0-45.1,0-90.2,0-135.3c0-1.6,0.2-3.3,0.4-4.9
			C794.8,499.7,794.9,499.5,794.9,499.3z"/>
		<path fill="#FEEAD0" d="M232.8,364.8c12.6,0.1,25.3,0.3,37.9,0.2c4,0,5.5,0.5,4.6,5.2c-3.1,15.5-5.3,31.2-7.5,46.9
			c-2,13.9-5.4,27.7-7.2,41.6c-1.1,8.3-0.3,16.9-0.4,25.4c-3,3.2-3.5,7.8-6,11.3c-5.4,7.5-12.6,12.6-21.2,15.7
			c-0.8,0-1.6-0.2-2.1,0.7c-13.5,3.3-25.5,0.8-36-8.7c-6.5-5.8-11.4-12.5-12.9-20.9c-1.4-7.8-2.6-15.9,1.4-23.6
			c14.1-27.2,28.2-54.4,42.3-81.5c2-3.8,3.4-7.9,6.2-11.2c0.4-0.3,0.7-0.6,1.1-0.9L232.8,364.8z"/>
		<path fill="#18233E" d="M230.9,511.7c0.5-0.9,1.3-0.7,2.1-0.7c0,28.8,0,57.6-0.1,86.4c0,61.8,0,123.6,0,185.4c0,1.7-0.1,3.3-0.2,5
			c-1.1-1.9-0.6-3.9-0.6-5.9c0-87.7,0-175.3,0-263C232.1,516.5,232.4,514,230.9,511.7z"/>
		<path fill="#C4C4C3" d="M232.9,365c-0.4,0.3-0.7,0.6-1.1,0.9C232,365.3,232.2,364.8,232.9,365z"/>
		<path fill="#050607" d="M170.2,826c228.1,0,454.9,0,681.6,0c0.2,0.4,0.4,0.8,0.6,1.2c-73.5,76.5-162,125.2-267.3,142.7
			c-33.5,5.6-67.2,6.1-101,4.6c-59.7-2.7-116.4-18.4-170.3-43.3c-37.9-17.5-73.2-40-104.8-67.5C195.8,852.2,181.9,841,170.2,826z"/>
		<path fill="#FEEAD0" d="M304.1,619.9c2.1,6.2,7.7,9.8,11.3,14.9c2.7,3.7,6,7,8.4,11c-1.4,1.7-3.2,1-4.8,1
			c-11.2,0.1-22.3,0.1-33.5,0c-2.5,0-4.6,0-4.5,3.5c0.2,14.6,0.2,29.3,0.3,43.9c0,8.6-0.1,17.1-0.1,25.7c0,1.7-0.7,3.8,1.9,4.4
			c1,0.8,2.2,0.6,3.4,0.6c39.2,0,78.3,0,117.5,0c1.3,0,2.7,0.3,3.8-0.6c0.4-0.1,0.8-0.2,1.3-0.3c1.6-1.7,0.9-3.8,0.9-5.7
			c0.1-27.1,0-54.1,0-82.5c11.7,12.6,25.6,15.3,41.1,12.3c0.2,2.6,0.4,5.2,0.6,7.8c-0.2,2.6-0.4,5.2-0.5,7.8
			c-0.5,3.4-0.7,6.9,0.1,10.3c0,29.6-0.1,59.2-0.1,88.8c-0.5,1.9-0.5,3.7,0,5.6c0,4.1,0,8.2,0,12.4c0,0.9,0,1.8,0,2.6
			c-0.1,0.9-0.2,1.8-0.3,2.7c-0.5,0.2-1.1,0.3-1.6,0.5c0.5,0.2,1,0.4,1.5,0.5c0.3,0.6,0.5,1.1,0.8,1.7c-2.5,0.1-5,0.3-7.5,0.3
			c-68.1,0-136.2,0-204.4,0.1c-4.3,0-6-0.7-6-5.6C234,702,234,620.5,234,539.1c0-1.4-0.5-2.9,0.9-4.9c5.3,7.4,11.3,13.9,17,20.7
			c9.2,10.9,18.3,21.9,27.4,32.8c0.5,0.6,1.4,0.8,2.1,1.2c0.1,9,0.3,17.9,0.2,26.9c0,3.1,0.9,3.9,4,3.8
			C291.8,619.5,298,619.1,304.1,619.9z"/>
		<path fill="#FEEAD0" d="M746.7,694.3c0.1-19.4,0.1-38.9,0.2-58.3c0-1.8-0.5-3.6,0.9-6c10.8,17.1,26.3,22.1,45.2,18.1
			c0,46.9,0,93.8-0.1,140.6c-4,0.1-8,0.2-12,0.2c-66.8,0-133.7,0-200.5,0c-2.5,0-5.5,0.8-6.1-3.1c-0.1-0.3-0.3-0.6-0.4-1
			c0.1-0.6,0.2-1.3,0.4-1.9c0.9-1,0.9-2,0-3.1c0-48.3,0-96.6,0.1-144.9c1.4-3.9,0.1-7.9,0.8-12c4.2,6,7.3,12.6,13.3,17.3
			c6.9,5.5,14.6,8.2,23.2,8.6c6.3,0.3,6.3,0.1,6.3,6.6c0,21.5-0.1,42.9,0,64.4c0,1.4-1.3,3.3,0.9,4.3c1.4,0.1,2.8,0.1,4.2,0.2
			c1,0.8,2.2,0.6,3.4,0.6c38.5,0,77,0,115.6,0c1.3,0,2.7,0.3,3.8-0.7c1.4-1.1,1-2.7,1-4.1C746.9,711.4,746.8,702.9,746.7,694.3z"/>
		<path fill="#FEEAD0" d="M628.9,365.3c24.9-0.1,49.9-0.1,74.8-0.2c21.3,0,42.6,0.1,63.9-0.1c4,0,5.6,1.1,5.8,5.1
			c1.1,16.5,4.7,32.6,6.8,48.9c1.8,13.8,4,27.7,6.6,41.4c0.2,1.1,0.2,2.3,0.3,3.5c-0.1,3.5-0.5,7-0.2,10.5
			c1.8,17.4-13.9,33.6-30.7,37.7c-15.2,3.7-36-7-42.3-22.6c-0.7-1.7-1.2-3.4-2.6-4.9c-6.6,17.6-19.2,27.3-37.9,28.2
			c-14.3,0.7-30.7-11-35.6-24.5c-0.5-1.5-0.5-3.4-2.1-4.3c0.5-11.8-0.2-23.5-1.6-35.2c-1.2-10-1.1-20.1-2.2-30.1
			c-1.2-11.2-1.1-22.4-2.8-33.5c-0.9-6.3-0.7-12.8-1-19.3C628.6,365.8,628.8,365.6,628.9,365.3z"/>
		<path fill="#1A2933" d="M304.1,619.9c-6.1-0.8-12.3-0.4-18.4-0.2c-3.1,0.1-4-0.8-4-3.8c0.1-9-0.1-17.9-0.2-26.9
			c1.2-5.7,0.5-11.6,0.5-17.3c0.1-10.5,0.2-21,0-31.5c0-3,0.8-3.9,3.9-3.9c39.7,0.1,79.3,0.1,119,0c3.4,0,4.1,1.1,4.1,4.3
			c-0.1,24.7-0.2,49.3,0,74c0,3.8-1,4.7-4.7,4.7c-31.7-0.1-63.3-0.1-95,0C307.5,619,305.6,618.3,304.1,619.9z"/>
		<path fill="#1A2933" d="M682.5,536.2c19.7,0,39.3,0.1,59-0.1c3.8,0,4.7,1.1,4.7,4.8c-0.2,24.5-0.2,49-0.1,73.5
			c0,3.8-1.2,4.7-4.8,4.7c-39.2-0.1-78.3-0.1-117.5,0.1c-3.7,0-4.8-0.8-4.8-4.7c0.2-24.7,0.2-49.3,0-74c0-3.6,1.1-4.4,4.5-4.4
			C643.1,536.3,662.8,536.2,682.5,536.2C682.5,536.2,682.5,536.2,682.5,536.2z"/>
		<path fill="#FEEAD0" d="M486.9,365.3c22.5,0,45,0,67.4-0.2c3.6,0,3.9,1.7,4,4.6c1,38.8,2.2,77.5,1.6,116.3
			c-3.9,8.2-9.3,15.2-16.8,20.5c-11.7,8.4-30.3,8.1-41.9-0.7c-10.3-7.8-15.6-17.5-15.4-30.9c0.5-34.6,0.2-69.3,0.1-103.9
			c0-1.7-0.1-3.3-0.2-5c0,0,0.2-0.2,0.2-0.2C486.3,365.6,486.6,365.4,486.9,365.3z"/>
		<path fill="#FEEAD0" d="M345.9,365.3c21.9-0.1,43.9-0.1,65.8-0.2c3,0,3.6,1.3,3.5,3.9c-0.7,11.2-1.3,22.4-2,33.6
			c-0.6,8.6-0.5,17.2-1.1,25.8c-0.8,10.2-0.9,20.5-1.4,30.7c-0.9,0.9-0.9,1.8-0.1,2.7c-0.1,0.8-0.2,1.6-0.3,2.4
			c-0.1,3.7-0.6,7.3-0.2,10.9c2,19.2-14.5,33.4-30.9,36.9c-16.3,3.5-35.9-8.2-41.8-24.7c-0.4-1.2-1-2.4-1.6-3.6
			c0-13.1,0.3-26.2,1.4-39.3c1-12.3,2.7-24.5,3.8-36.7c0.9-9.7,1.2-19.4,2.2-29c0.5-4.3,0.2-8.8,1.9-12.9
			C345.3,365.7,345.6,365.5,345.9,365.3z"/>
		<path fill="#050607" d="M574.3,783c-0.1,0.6-0.2,1.3-0.4,1.9c-1.5-1.3-0.9-3.1-0.9-4.7c-0.1-8.3-0.1-16.6,0-24.9
			c0.1-3.1-0.4-5.2-3.8-6.4c-3.2-1.1-5.3-3.8-3.9-7.5c1.8-4.9-0.1-8.6-3.4-12.1c-2.6-2.7-5.2-5.5-7.7-8.3c-0.1-1.7-0.2-3.5-0.3-5.2
			c0-14,0-28-0.1-41.9c0-10.3,0-20.6-0.1-30.9c0-5.4,1.3-10.8-0.8-16.1c0.2-1,0.2-2,0.5-2.9c3-8.6,3.4-17.4,1-26.2
			c-4-14.9-18.4-26.5-33.8-29c-15-2.5-27.6,1.2-37.9,11.9c-11.9,12.3-14.1,27.2-9.8,43.4c-0.9,0.7-0.9,1.7-0.9,2.7
			c0,9.4,0.1,18.7,0.1,28.1c-0.1,10.9-0.1,21.8-0.2,32.8c-0.1,3.8,2.5,7.7-0.2,11.4c-6,3-8.6,2.2-11.1-3.8c-0.6-1.4-1.1-2.7-1.6-4.1
			c10.3-0.7,13.2-4.5,9.7-12.7c4.5-3.1,3-8,1.5-11.2c-3.4-7.5-8.2-14.4-12.4-21.5c-0.8-1.3-1.9-1.9-3.3-1.6c-1.8,0.4-1.3,2-1.5,3.3
			c-0.6,2.8,1.4,6-1.2,8.4c-0.2-2.6-0.4-5.2-0.6-7.8c0.2,0,0.4,0,0.6-0.2c0,0,0.2-0.4,0.2-0.4l-0.3-0.3c-0.1-14.3-0.2-28.6-0.2-42.9
			c0-18.8,0.1-37.6,0.2-56.4c0.3-0.1,0.4-0.3,0.4-0.6c1.6-0.1,3.3-0.4,4.9-0.4c37.4,0,74.8,0.1,112.3-0.2c4.8,0,5.3,1.6,5.3,5.6
			c-0.2,23.9-0.2,47.9-0.2,71.8c0,3.6,0.2,7.3,0.3,10.9c0,48.3,0,96.6-0.1,144.9C573.9,780.9,573.9,782,574.3,783z"/>
		<path fill="#1A2933" d="M451.8,655.9c2.6-2.5,0.6-5.6,1.2-8.4c0.3-1.2-0.3-2.8,1.5-3.3c1.5-0.3,2.6,0.3,3.3,1.6
			c4.2,7.1,9,14,12.4,21.5c1.4,3.2,2.9,8-1.5,11.2c0,0,0.1-0.1,0.1-0.1c-0.1-1-0.9-1.2-1.7-1.4l-0.2-0.1c-0.4-0.3-0.7-0.6-1.1-0.8
			l0.1,0.1c-1.9-1.8-3.9-1.3-5.9-0.3c-6.5,4.9-6.9,10-1.1,15.3c0.5,1.4,1.1,2.7,1.6,4.1c2.5,6,5,6.8,11.1,3.8
			c0.1,14.3,0.2,28.6,0.1,42.9c0,2.8,0.6,4.1,3.8,4.1c24.8-0.1,49.6-0.1,74.4,0c3,0,4.1-1,4-4c-0.1-7,0.1-14,0.1-21
			c2.6,2.8,5.1,5.6,7.7,8.3c3.3,3.4,5.2,7.1,3.4,12.1c-1.3,3.7,0.8,6.3,3.9,7.5c3.4,1.2,3.8,3.3,3.8,6.4c-0.2,8.3-0.1,16.6,0,24.9
			c0,1.6-0.6,3.4,0.9,4.7c0.1,0.3,0.3,0.6,0.4,1c0,2.9-2,2.8-4.1,2.8c-13.9-0.1-27.9-0.1-41.8-0.1c-25.6,0-51.1,0.1-76.7,0.2
			c-0.3-0.6-0.5-1.1-0.8-1.7c0-0.3,0-0.7,0-1c0.1-0.9,0.2-1.8,0.3-2.7c0.5-0.9,0.5-1.8,0-2.6c0-4.1,0-8.2,0-12.4
			c0.6-1.9,0.6-3.7,0-5.6c0-29.6,0.1-59.2,0.1-88.8c0.6-3.4,0.6-6.9-0.1-10.3C451.4,661,451.6,658.5,451.8,655.9z"/>
		<path fill="#98C21E" d="M283.2,724.3c-2.6-0.6-1.9-2.7-1.9-4.4c0-8.6,0-17.1,0.1-25.7c0.3-0.1,0.6-0.2,0.9-0.4
			c42.2,0,84.3,0,126.5,0.1c1,10,0.3,20,0.4,30c-0.4,0.1-0.8,0.2-1.3,0.3c-1.5-0.1-3-0.2-4.5-0.2c-35.9,0-71.8,0-107.8,0
			C291.5,724,287.4,724.2,283.2,724.3z"/>
		<path fill="#98C21E" d="M623.2,724.4c-1.4-0.1-2.8-0.1-4.2-0.2c-0.2-10.1-0.7-20.2,0.4-30.2c42.2-0.5,84.4-0.3,126.5,0
			c0.3,0.1,0.6,0.2,1,0.3c0,8.6,0.1,17.2,0.1,25.8c0,1.4,0.5,3-1,4.1c-40.4,0-80.8,0-121.2-0.1C624.1,724.1,623.6,724.3,623.2,724.4
			z"/>
		<path fill="#FFFEFF" d="M793,788.8c0-46.9,0-93.8,0.1-140.6c0.3-0.1,0.6-0.1,0.9-0.1c0.1,0.4,0.3,0.8,0.4,1.2
			c-0.5,9.9-0.5,19.8-0.1,29.7c-0.4,25.4-0.4,50.9,0,76.3c-0.1,4.2-0.2,8.5-0.3,12.7c-0.5,6.4-0.7,12.7,0.1,19.1
			c0.3,0.7,0.6,1.3,1,2C794.4,788.9,793.7,788.8,793,788.8z"/>
		<path fill="#203D5E" d="M745.8,693.9c-42.2-0.3-84.4-0.5-126.5,0c1-2.1,2.9-1.1,4.4-1.1c39.4-0.1,78.8-0.1,118.2,0
			C743.2,692.8,744.9,692,745.8,693.9z"/>
		<path fill="#98C21E" d="M408.7,693.9c-42.2,0-84.3,0-126.5-0.1c1.1-1.9,3-1,4.5-1c39.5-0.1,79.1-0.1,118.6,0
			C406.5,692.8,408.1,692.1,408.7,693.9z"/>
		<path fill="#203D5E" d="M882.6,788.2c0.7-0.1,1.5-0.2,2.2-0.2C884.2,788.8,883.4,788.7,882.6,788.2z"/>
		<polygon fill="#203D5E" points="451.6,647.1 451.9,647.4 451.7,647.8 451.4,647.5 		"/>
		<path fill="#203D5E" d="M451.9,547.2c0,0.3-0.1,0.5-0.4,0.6C451.2,547.3,451.4,547.2,451.9,547.2z"/>
		<path fill="#203D5E" d="M794.9,499.3c0,0.2,0,0.4-0.3,0.5c-0.2-0.2-0.3-0.4-0.3-0.7C794.6,499.1,794.7,499.1,794.9,499.3z"/>
		<path fill="#C4C4C3" d="M410.6,461.9c-0.8-0.9-0.8-1.9,0.1-2.7C410.7,460.1,410.6,461,410.6,461.9z"/>
		<path fill="#C4C4C3" d="M628.9,365.3c-0.1,0.3-0.3,0.6-0.7,0.6C628.1,365.4,628.3,365.1,628.9,365.3z"/>
		<path fill="#C4C4C3" d="M486.9,365.3c-0.3,0.2-0.6,0.4-0.9,0.5C486.1,365.2,486.4,365.1,486.9,365.3z"/>
		<path fill="#C4C4C3" d="M345.9,365.3c-0.3,0.2-0.6,0.4-0.9,0.5C345.3,365.7,345.6,365.5,345.9,365.3z"/>
		<path fill="#203D5E" d="M794.4,678.8c-0.4-9.9-0.5-19.8,0.1-29.7C795.4,659,795.4,668.9,794.4,678.8z"/>
		<path fill="#C4C4C3" d="M794.2,786.9c-0.8-6.4-0.6-12.7-0.1-19.1c0.2,0.1,0.4,0.3,0.6,0.4C794.2,774.4,795.2,780.7,794.2,786.9z"
			/>
		<path fill="#203D5E" d="M794.7,768.2c-0.2-0.1-0.4-0.3-0.6-0.4c0.1-4.2,0.2-8.5,0.3-12.7C795.6,759.4,795,763.8,794.7,768.2z"/>
		<path fill="#C4C4C3" d="M283.2,724.3c4.1-0.1,8.3-0.3,12.4-0.3c35.9,0,71.8,0,107.8,0c1.5,0,3,0.2,4.5,0.2c-1.2,1-2.5,0.6-3.8,0.6
			c-39.2,0-78.3,0-117.5,0C285.4,724.9,284.2,725.2,283.2,724.3z"/>
		<path fill="#C4C4C3" d="M451.3,663.6c0.7,3.4,0.7,6.8,0.1,10.3C450.6,670.5,450.8,667.1,451.3,663.6z"/>
		<path fill="#C4C4C3" d="M451.2,762.7c0.6,1.9,0.7,3.7,0,5.6C450.7,766.4,450.7,764.5,451.2,762.7z"/>
		<path fill="#C4C4C3" d="M451.3,780.6c0.5,0.9,0.5,1.8,0,2.6C451.3,782.4,451.3,781.5,451.3,780.6z"/>
		<path fill="#C4C4C3" d="M451,786c0,0.3,0,0.7,0,1c-0.5-0.2-1-0.4-1.5-0.5C449.9,786.3,450.5,786.1,451,786z"/>
		<path fill="#C4C4C3" d="M623.2,724.4c0.5-0.1,1-0.3,1.5-0.3c40.4,0,80.8,0,121.2,0.1c-1.1,1.1-2.5,0.7-3.8,0.7
			c-38.5,0-77,0-115.6,0C625.4,724.9,624.2,725.2,623.2,724.4z"/>
		<path fill="#C4C4C3" d="M574.3,783c-0.4-1-0.4-2.1,0-3.1C575.3,780.9,575.3,782,574.3,783z"/>
		<path fill="#98C21E" d="M554.2,721.1c-0.1,7-0.3,14-0.1,21c0.1,3.1-1,4-4,4c-24.8-0.1-49.6-0.1-74.4,0c-3.2,0-3.8-1.3-3.8-4.1
			c0.1-14.3-0.1-28.6-0.1-42.9c2.7-3.8,0.2-7.6,0.2-11.4c0.1-10.9,0.1-21.8,0.2-32.8c1.6-4.6,0.3-9.4,0.8-14c0.4-3.5-1-7.2,1.2-10.5
			c1.9,0.2,3.2,1.3,4.3,3c3.3,5.5,8,9.6,13.6,12.6c6.8,3.9,13.8,6.6,21.8,5.7c2.5,0.4,4.9,0.1,7.4-0.3c13.2-2.5,22.5-10.4,29.8-21.2
			c2.1,4.1,1,8.8,2.7,13c0,10.3,0,20.6,0.1,30.9c-1.2,1.5-0.7,3.2-0.7,4.8c0,10-0.1,19.9,0,29.9c0,2.4-0.7,5,0.7,7.3
			C554,717.6,554.1,719.4,554.2,721.1z"/>
		<path fill="#98C21E" d="M492,645.9c-5.6-3-10.3-7.1-13.6-12.6c-1-1.7-2.3-2.7-4.3-3c-0.6-2,0.6-4.4-1.2-6.2
			c-4.3-16.2-2.1-31.1,9.8-43.4c10.4-10.7,22.9-14.4,37.9-11.9c15.3,2.6,29.7,14.1,33.8,29c2.4,8.8,2,17.6-1,26.2
			c-0.3,0.9-0.4,1.9-0.5,2.9c-0.6,1-1.3,2.1-1.9,3.1c-7.3,10.8-16.6,18.7-29.8,21.2c-2.5,0.5-4.9,0.8-7.4,0.3
			c-3.4-0.5-7.2,2.3-10-0.7c-1.2-1.2-5.2,0.4-7.3-0.5C493.8,651.6,494.8,647.5,492,645.9z"/>
		<path fill="#FEEAD0" d="M459,691.1c-5.7-5.3-5.4-10.5,1.1-15.3c2,0.1,3.9,0.2,5.9,0.3c0,0-0.1-0.1-0.1-0.1
			c0.4,0.3,0.7,0.6,1.1,0.8c0,0,0.2,0.1,0.2,0.1c0.6,0.5,1.1,0.9,1.7,1.4c0,0-0.1,0.1-0.1,0.1C472.2,686.7,469.3,690.5,459,691.1z"
			/>
		<path fill="#203D5E" d="M553.9,715.9c-1.5-2.3-0.7-4.8-0.7-7.3c-0.1-10-0.1-19.9,0-29.9c0-1.6-0.5-3.3,0.7-4.8
			C553.8,687.9,553.8,701.9,553.9,715.9z"/>
		<path fill="#203D5E" d="M472.9,624.1c1.8,1.8,0.6,4.2,1.2,6.2c-2.1,3.3-0.8,7-1.2,10.5c-0.5,4.7,0.8,9.4-0.8,14
			c0-9.4-0.1-18.7-0.1-28.1C472,625.8,472,624.8,472.9,624.1z"/>
		<path fill="#203D5E" d="M551,630.1c0.6-1,1.3-2.1,1.9-3.1c2.1,5.3,0.8,10.7,0.8,16.1C552,638.9,553.1,634.2,551,630.1z"/>
		<path fill="#18233E" d="M466,676.1c-2-0.1-3.9-0.2-5.9-0.3C462.1,674.8,464.1,674.3,466,676.1z"/>
		<path fill="#18233E" d="M468.9,678.3c-0.6-0.5-1.1-0.9-1.7-1.4C468,677.2,468.7,677.3,468.9,678.3z"/>
		<path fill="#18233E" d="M467,676.9c-0.4-0.3-0.7-0.6-1.1-0.8C466.2,676.3,466.6,676.6,467,676.9z"/>
	</g>
	<polygon fill="#C4C4C3" points="882.6,788.2 851.8,826 170.2,826 	"/>
</g>
</svg>
