<?xml version="1.0" encoding="utf-8"?>
<!-- Generator: Adobe Illustrator 27.5.0, SVG Export Plug-In . SVG Version: 6.00 Build 0)  -->
<svg version="1.1" id="Ebene_1" xmlns="http://www.w3.org/2000/svg" xmlns:xlink="http://www.w3.org/1999/xlink" x="0px" y="0px"
	 viewBox="0 0 1024 1024" enable-background="new 0 0 1024 1024" xml:space="preserve">
<g id="VqNVau_00000036218631853284824470000001211908304706463674_">
	<g>
		<path fill="#98C21E" d="M78.9,376.2c0.2-0.4,0.3-0.8,0.5-1.3c0.2-0.6,0.3-1.1,0.5-1.7c0.2-0.5,0.3-0.9,0.4-1.4
			c0.6-1.8,1.1-3.7,1.7-5.5c0.1-0.1,0.2-0.3,0.2-0.5c0.8-2.2,1.6-4.4,2.4-6.6C128.7,239,209.2,152.1,324.7,97.9
			c56.1-26.3,115.8-38.5,177.5-41.2c8.5-0.1,17-0.1,25.5-0.2c82.3,4.5,159,27.1,228.7,71.6C833,177,889.1,243.8,927,326.2
			c23.9,51.8,35.5,106.5,39.2,163.1c0,0.9,0.1,1.7,0.1,2.6c0.1,9.1,0.1,18.3,0.2,27.4c-2.4,41.5-7.5,82.6-21.2,122.2
			c-45-34.9-90-69.7-135.1-104.6c-0.1-3.3-0.2-6.6-0.2-10c-0.1-17.2,0.1-17.6,3-16.5c29.2,11.5,29.8-9.8,32.7-28.4
			c3.8-2.6,7.5-5.3,11.3-7.9c0.7-0.1,1.4-0.1,2.1-0.2c4.2,0.3,8.4,0.7,12.7,1c6,7.3,6.8,3.9,6-2.9c4.7-2,9.4-3.9,14.2-5.9
			c0.2,1.8,0.4,3.6,0.7,5.4c0,0.1,1.6,0,1.6,0c0.3-2.1,0.4-4.3,0.6-6.4c3.3-1.7,8.4-1.8,7.9-7.2c-0.1-1.9-2.1-5.3-3.2-5.2
			c-15.5,0.2-30,3.8-42.2,14.1c-0.7,0.2-1.4,0.3-2.2,0.5c-4.4,1.6-8.8,3.1-13.2,4.7c-2.7-2.6-9.1,6.5-9.8-4
			c-1.5-20.8-5.9-40.7-28-50.4c-3.1-1.4-0.5-1.6,0.8-2.9c11.5-11,12.6-26.5,13.1-40.4c0.4-10.6-11.3-15.6-21.4-14.8
			c-30.2,2.3-20.7,25-20.8,42.6c-23.1,4.5-40.4,17.5-53.7,36.5c-4.2-3-8.3-6-12.5-9c-19.9-14.4-39.9-28.9-59.8-43.3l0.1,0
			c-0.4-0.4-0.7-0.7-1.1-1.1l0.1,0.1c-0.4-0.3-0.9-0.7-1.3-1c-30.8-25-57.5-23.8-88.5,4c-18.8-14-37.6-28-56.3-42
			c-2.6-2.4-5.2-4.8-7.9-7.1c-5.8-5.7-13.2-3.5-19.4-2.4c-13.4,2.4-23.8,0.8-29.7-13.1c-6.9-16.2-17.8-25.7-36.7-19.3
			c-3.5-1.3-7.4-2-10.4-4c-14.4-10.1-28.6-20.6-42.9-31l0.1,0c-0.8-0.7-1.7-1.4-2.5-2c-34.2-25.6-74.1-14-79.6,23.2
			c-0.1,0.5-0.2,1-0.3,1.5c0,3.8-0.1,7.7-0.1,11.5c0.1,0.5,0.2,1,0.3,1.5c3,19.4,15,31.1,32.7,38c10.6,6.9,21.2,14,32,20.7
			c29.2,18,60.5,10.3,70.6-17.1c15,5.4,21.4,12.8,7.2,26.5c-2.9,2.8-5.6,7.3-6,11.2c-3.8,37.2-7.1,74.5-10.5,111.7
			c-3,3.4-6,6.7-8.9,10.1c-15.5-13-31-26.1-46.5-39.1c4.2-2.2,8.5-4.3,12.7-6.5c0.8,1.6,1.6,3.1,2.5,4.6c0.1,0.1,1.3-0.5,2-0.8
			c-1-1.3-2.1-2.6-3.1-3.9c6.6-5.1,19.6-9.5,2-17.4c-0.7-1.9-1.2-3.9-2.2-5.6c-0.2-0.4-3.4,0.3-3.4,0.7c-0.2,2,0.1,4,0.3,6
			c-0.8,0.3-1.5,0.6-2.3,0.9c-2.1-1.2-4.2-2.4-6.3-3.7c-0.5,2.2-0.9,4.4-1.4,6.5c-0.6,0-1.2,0-1.8,0c-1.6-1.7-3.2-3.4-4.7-5.1
			c-1.2,2.4-2.5,4.7-3.7,7.1c-2.1,2.1-4.3,4.2-6.4,6.3c-8-6-16-12.1-24.1-18.1c-2.9-2.4-6.3-4.4-8.7-7.3
			c-6.4-7.7-24.5-7.2-16.6-25.1c8.9-20.2-2.9-36-24.8-34.2c-10.7,4.3-16.5,10.7-17.2,23.7c-0.5,8.9,11.2,20.6,4.2,22.3
			c-29.3,7.1-34.4,33.4-47.8,53.3c-6.9,10.2-11.5,19.7,1.8,28.3c-7.8,6.2-10,14.5-9,24c-4,4.3-5.8,8.2,1.8,10.4
			c2.1,3.2,4.1,6.4,6.2,9.6c-0.4,1-0.8,2-1.2,2.9c-0.2,0.2-0.4,0.4-0.5,0.6c0.3-0.1,0.6-0.2,1-0.2c1.2,0,2.4-0.1,3.6-0.1
			c1.4,0.9,2.8,1.8,4.2,2.8c-0.5,1.6-0.9,3.2-1.4,4.8c-0.1,0.4-0.1,0.7-0.2,1.1c0.2-0.2,0.4-0.4,0.7-0.6c1.6-1.1,3.2-2.2,4.8-3.3
			c1.2,0.3,2.4,0.7,3.7,1c0.6,0.7,1.2,1.3,1.8,2c-0.9,9-1.8,18-2.8,27c-0.9,9.4-1.8,18.8-2.6,28.2c-0.7,21.3-3.3,42.7-1.3,63.8
			c1.3,14.6-3.9,14.4-14.8,14.3c-30.1-0.4-60.1,0.1-90.2,0.3c-25.3-51.2-36.4-105.9-38.7-162.5C58,474.3,64.9,424.8,78.9,376.2z
			 M198.2,557.1c0.1-0.3,0.1-0.6,0.2-0.9c-0.2,0.2-0.4,0.4-0.6,0.5c-0.1,0.3-0.1,0.6-0.2,0.9C197.8,557.5,198,557.3,198.2,557.1z
			 M189.4,558c0.3-2.4,0.5-3,0.5-3.7c-0.1-0.9-0.3-1.7-0.5-2.5c-0.4,0.6-1.1,1.2-1.2,1.9C188.2,554.5,188.7,555.3,189.4,558z
			 M190.8,549.7c0.3-0.2,0.8-0.3,0.8-0.5c0-0.3-0.3-0.6-0.4-0.9c-0.2,0.2-0.5,0.4-0.6,0.6C190.5,549.2,190.7,549.5,190.8,549.7z"/>
		<path fill="#C1B2AE" d="M527.7,56.5c-8.5,0.1-17,0.1-25.5,0.2C510.7,56.6,519.2,56.5,527.7,56.5z"/>
		<path fill="#C1B2AE" d="M84.8,359.2c-0.8,2.2-1.6,4.4-2.4,6.6C83.1,363.7,84,361.5,84.8,359.2z"/>
		<path fill="#C1B2AE" d="M82.1,366.4c-0.6,1.8-1.1,3.7-1.7,5.5C81,370,81.5,368.2,82.1,366.4z"/>
		<path fill="#C1B2AE" d="M966.3,491.8c0-0.9-0.1-1.7-0.1-2.6C966.3,490.1,966.3,490.9,966.3,491.8z"/>
		<path fill="#C1B2AE" d="M79.9,373.3c-0.2,0.6-0.3,1.1-0.5,1.7C79.6,374.4,79.8,373.8,79.9,373.3z"/>
		<path fill="#1A2933" d="M738.1,895.1c-60,36.4-125.2,56.7-195.1,59.7c-166.7,7.2-299.7-58.3-400.3-190.4
			c-17.9-23.5-32.2-49.6-43.8-76.9c30.1-0.2,60.1-0.8,90.2-0.3c10.8,0.2,16.1,0.3,14.8-14.3c-1.9-21,0.7-42.5,1.3-63.8
			c0.9-9.4,1.8-18.8,2.6-28.2c0.9-9,1.8-18,2.8-27c8.9,3,14.1-1.9,19.2-8.3c6-7.5,14.9-10,23.9-12.2c0.5,6.1,2.4,12.5,1.2,18.2
			c-5.6,26.9,13.6,37.5,31.3,49.3l0,0c0.3,0.3,0.5,0.6,0.8,0.9c2.2,15.4,4.3,30.9,6.5,46.3c-0.1,3.9-0.2,7.9-0.3,11.8
			c-0.1,2.4-0.2,4.8-0.3,7.1c0,0.5-0.1,1.1-0.1,1.6c-0.9,4.8-1.7,9.5-2.6,14.3c0.3,1.3,0.7,2.6,1,3.9c24.3,0,48.5-0.1,72.8-0.1
			c0,0,0,0,0,0c0.4-2.3,0.8-4.6,1.3-6.9c1.4-1.7,2.7-3.5,4.1-5.2c14-4.6,16.2-16.4,17.8-28.7c2.4-8.1,4.7-16.1,7.1-24.2
			c5.7-17.3,11.3-34.5,17-51.8c1.8-5,3.5-10.1,5.3-15.1c20.4-4.9,24.4-29.8,44.2-36c6.9-2.2,10.1-8.4,1.6-14.1
			c-0.3-0.3-0.5-0.6-0.8-0.9c-16-3.2-5.8-7.1-0.9-12.5c8.1-9,15-19.1,22.5-28.7l0.1,0.1c0.3-0.3,0.7-0.7,1-1l-0.1,0
			c0.1-0.6,0.2-1.3,0.3-1.9c-1.8-2.6-3.7-5.3-5.5-7.9c-6.8,5.6-13.4,11.3-20.4,16.6c-5.7,4.4-11.7,8.3-17.6,12.4
			c1.1-5.7,2.1-11.5,3.2-17.2c1.1,1.6,1.5,4.9,4.3,0.9c8.4-11.7,0.1-49.2-12.5-55.5c-0.5-0.2-2.3,0.7-2.3,1.3
			c-2.9,22.2-5.6,44.4-8.3,66.5c-0.6,5-1.3,10-1.9,15c-1.1,4.6-2.2,9.2-3.3,13.9c-3.7,3.9-8,3.9-12.6,2.1c-5.5-2.2-7-6.9-7.6-12.2
			c3.4-37.2,6.7-74.5,10.5-111.7c0.4-3.9,3-8.4,6-11.2c14.2-13.6,7.8-21.1-7.2-26.5c-17.6-14.1-17.2-28.2,0.1-42.3
			c19-6.3,29.8,3.2,36.7,19.3c6,13.9,16.4,15.5,29.7,13.1c6.2-1.1,13.6-3.3,19.4,2.4c-0.7,2.2-1.9,4.5-1.9,6.7
			c-0.1,86.8-0.1,173.6-0.2,260.3c0,2.3-1.1,4.6-1.6,6.9c-2.5-19.8-4.9-39.5-7.3-59.3c0-2.6,0-5.2,0-7.8c-0.2-4.3-0.5-8.5-0.7-12.8
			c-0.1-4.1-0.2-8.1-0.2-12.2c-0.3-0.3-0.6-0.6-0.9-0.8c-0.1,0.1-0.2,0.2-0.3,0.4c-5.1,8.9-10.2,17.8-15.2,26.7
			c-0.2,0.3-0.4,0.5-0.6,0.8L466,548c-0.3,0.4-0.6,0.7-0.9,1.1l0.1-0.1c-0.4,0.6-0.7,1.2-1.1,1.9c0,0-0.1,0.1-0.1,0.1
			c-0.3,0.3-0.6,0.6-0.9,0.9c0,0-0.1,0.1-0.1,0.1c-2.3,4-4.6,8-6.9,12l0,0c-0.3,0.4-0.6,0.7-1,1.1c0,0,0.1-0.1,0.1-0.1
			c-0.3,0.4-0.7,0.7-1,1.1c0,0,0.1-0.1,0.1-0.1c-0.7,1-1.4,2.1-2.1,3.1c-13.7,19.9-21.6,42.1-25.4,65.8c-1.3,1.1-2.6,2.1-3.9,3.2
			c-0.3,15-0.5,30-0.8,45c-0.4,1.1-0.7,2.2-1.1,3.3c3.4-0.5,6.7-0.9,10.1-1.4c1.8,0.3,3.6,0.5,5.3,0.8c0.5,0,1,0,1.5,0
			c2.9,0.4,5.8,0.7,8.7,1.1c3.5,0,7,0,10.5,0c13-0.3,26-0.6,39-0.9c11.7,10.5,23.2,21.3,35.1,31.5
			C600,776.8,669.1,835.9,738.1,895.1z M251.4,684.1c-0.9,0.4,10.8,6.8,11,0.1c1.3-35.5,1.5-71.2-16.9-103.7
			c-0.7-1.3-2.1-2.1-3.2-3.1c-0.8,1.5-2.1,3-2.3,4.7c-3.7,27.7-7.8,55.3-10.8,83C228.1,675.6,219.6,693.6,251.4,684.1z M419.6,670
			c-0.5-6.6-0.9-12.4-1.3-18.2c-3.4,10.5-6.9,21-10,31.5c-0.9,2.8,0,5.3,4,4.8C426.7,686.2,415,674.9,419.6,670z"/>
		<path fill="#1A2933" d="M491.3,613c0.6-2.3,1.6-4.6,1.6-6.9c0.1-86.8,0.1-173.6,0.2-260.3c0-2.2,1.2-4.5,1.9-6.7
			c2.6,2.4,5.2,4.8,7.9,7.1c1.8,3,3.5,6,5.3,8.9c14.4,22.8,36.8,41.6,36.7,71.8c-5.6,5.7-11.3,11.5-16.9,17.2
			c-0.1,0.3,0,0.5,0.1,0.7c0,12.7,0,25.5-0.1,38.2c0,0.3,0,0.7,0,1c-1.6,16.2-2.7,32.6-5,48.7c-2.4,16.6,17.6,36.8,31.9,29.5
			c13.9-7.1,28.2-8.6,42.7-11.9c7-1.5,19.9,10.8,21.7-7.7c1.5-15.6-10.4-8.6-16.4-10.4c-14.1-4.2-36-2.3-37.5-19.1
			c-1.4-15.6,19.8-15.3,32.6-19.2c7-1.3,14-2.5,20.9-3.8c2.5,0.9,5,1.8,7.5,2.6c8.9,1.1,17.9,1.5,26.6,3.4
			c9.4,2.1,21.3,4.5,22.6,15.5c1.4,12.2-11.7,12.7-19.8,16.2c-4.9,2.1-10.5,2.7-15.8,4c-5.6,0.4-11.3,0.9-16.9,1.3
			c-0.3,2-0.5,3.9-0.8,5.9c0,0.6,0,1.3,0,1.9c0.3,4,0.5,7.9,0.8,11.9c3.6,0.4,7.4,0.2,10.8,1.3c7.5,2.4,17.4,2.6,19.9,11.7
			c1.6,5.9-5.6,9.3-10.1,9.6c-23.5,1.5-22.4,17.1-20.4,33.5c0.1,1.7,0.1,3.4,0.2,5.1c0.1,4.3,0.2,8.5,0.3,12.8
			c0,1.4,0.1,2.8,0.1,4.2c0.2,0.9,0.3,1.8,0.5,2.7c-0.1,0.7-0.2,1.4-0.3,2.1c0,0.4,0,0.8,0,1.3c0,10.9,0,21.7,0,32.6
			c-4.5,19,7.1,18.8,20.1,17c3.6,2.1,12.6-3.6,11.2,3.8c-4.9,26.5,8.1,30.8,30,27.6c8.6-1.3,17.6-0.2,26.4-0.2
			c43,32.4,86.1,64.7,129.1,97.1c-30.7,31.4-64.2,59.1-102.9,80.1c-69-59.2-138-118.3-206.9-177.6c-11.9-10.2-23.4-21-35.1-31.5
			c3.7-2,4.6-5,4-9.1C497,655.6,494.2,634.3,491.3,613z M612.5,627.1c0.1,6.6,0.1,13.2,0.2,19.8c-0.1,1.4-0.1,2.7-0.2,4.1
			c0.2,0.3,0.4,0.6,0.6,0.9c1.6,1.1,4.3,2,4.6,3.3c0.3,1.7-0.9,4.1-2.1,5.8c-5.4,7.3-1,15.5-2,23.2c-0.1,0.6,3.9,1.7,6.1,2.5
			c0.1-0.3,0.3-0.5,0.4-0.8c0-0.7,0.1-1.3,0.1-2c0.2-6.7,0.5-13.5,0.7-20.2c-0.3-5.9-0.5-11.9-0.8-17.8c0-0.3-0.1-0.7-0.1-1
			c0-6,0-12,0-18c0-5.6,0-11.3,0-16.9c-0.7-9.6-1.3-19.3-2-28.9c-2.4,0.6-4.7,1.2-7.1,1.8c3.9,12.7-7.8,28.1,6.5,39
			C615.8,623.6,614.2,625.4,612.5,627.1z M608.2,588.1c0-3.6-3.8-8.5-4.6-5.9c-2.6,8.6-2.1,18.1-2.5,27.3c-0.1,1.8,1.2,3.8,2.3,5.3
			c0.7,1,2.3,1.4,3.5,2.1c-1.3,0.7-2.6,1.5-3.9,2.2c-0.4,10.2-3,21-0.2,30.2c1.5,4.9,1.1,5.9-0.7,9.8c-1.8,4-0.2,9.6-0.1,14.6
			c1-1.3,2-2.6,2.9-3.9c-0.3,2.5-1.4,5.3-0.6,7.3c1.1,2.6,3.6,4.7,5.6,7c-0.3-7.4-0.6-14.8-0.9-22.1c0.1-0.7,0.1-1.3,0.2-2
			c0.2-0.4,0.5-0.7,0.7-1.1c-3.9-12.4,3-26-4.1-38c0.9-2.7,1.7-5.3,2.6-8C608.3,604.6,608.3,596.4,608.2,588.1z M571.2,623.4
			c-2.1-29.9-15.8-52.9-44.9-65.6c-3.6-1.6-5.8-2.1-6.4,3.8c-4,37.9,12.6,73.6,11.3,111.5c-0.5,14.3,3.3,14.4,7.4,11.7
			C560.3,670.5,569.9,649.7,571.2,623.4z M598.1,588.5c0.4-11.1-8.3-4.4-11.9-7.3c-1.3-1-4.1,0-6.2,0c2.5,1.8,5.3,3.3,7.4,5.5
			c0.9,0.9,0.3,3.3,0.8,4.7c2.8,7.4,5.7,14.7,8.6,22c0.1,0.2,0.4,0.3,0.7,0.5c0.2-4.7,1.6-9.8,0.2-14
			C596.2,595.3,594.3,591.6,598.1,588.5z M585.9,687.4c2.2-2.3,7.5,2.4,6.9-3.7c-0.2-2.3-2.5-4.4-3.8-6.6c-3.1,2.8-6.3,5.6-9.4,8.4
			C581.7,686.1,583.8,686.7,585.9,687.4z M599,668.4c-1.5-2.2-2.3-3.6-3.2-4.9c-1.2,1.9-2.5,3.8-3.7,5.6c1.2,0.6,2.3,1.7,3.5,1.7
			C596.5,670.9,597.5,669.6,599,668.4z M599.1,683.5c1.4,1.2,2.7,2.4,4,3.4c0.1,0.1,1.4-1.1,1.3-1.4c-1-2-2.1-3.9-3.2-5.9
			C600.7,680.6,600.1,681.6,599.1,683.5z"/>
		<path fill="#CEDD80" d="M416.3,554.9c-1.8,5-3.5,10.1-5.3,15.1c-11.9-3.6-23.8-7.2-35.7-10.7c-2.2-0.7-4.6-0.8-6.9-1.2
			c0.4,2.7,0.5,5.5,1.1,8.2c2.1,9.2,4.3,18.4,6.5,27.7c-1.3,0.1-2.6,0.2-4,0.3c-3.7,0-7.4,0-11.1,0c-2,0.2-4,0.5-6,0.7
			c-2,0.9-3.9,1.7-5.9,2.6c1,1.1,2.2,3.1,3.1,3c11.4-1.3,9.8,9.2,12.5,14.7c2.6,5.6,1.3,12.2-6.4,15.1c-2.8,1.1-4.4,5.2-0.9,6.6
			c10.9,4.4,7.1,13.2,7.2,21c-6.2-3.5-12.3-7-18.5-10.4c-6.1-3.4-12.3-6.7-18.5-10c1,6.8,2,13.6,3,20.5c0.8,5.6,1.8,11.1,2.6,16.7
			c0.2,1.4,0.3,2.9,0.5,4.3c-1.4-0.8-3-1.3-4.2-2.3c-12.1-9.5-24.1-19-36.1-28.6c-2.2-15.4-4.3-30.9-6.5-46.3
			c-0.3-0.3-0.5-0.6-0.8-0.9c0,0,0,0,0,0c-3.2-25-6.5-50,3-74.6c1.6-4.1,1.7-12,3.4-12.3c23.7-4.2,32.8-15.9,22.4-39.2
			c8.9-5.7,18-11,29.3-8.1c15.5,13,31,26.1,46.5,39.1c-2,7.6-6,14.9-2.6,23.1c-5.7,6.2-1.8,9.1,4,11.2c4.3,3.7,8.5,7.3,12.8,11
			c-0.4,2.1-0.7,4.2-1.1,6.4c1.7-1.9,3.5-3.8,5.2-5.7c0.9,0.1,1.8,0.2,2.7,0.3C413.3,553,414.8,554,416.3,554.9z M401,560.9
			c-0.3,0.3-0.6,0.7-1,1c-0.7,0.3-1.3,0.7-2,1c-0.1,0.1-0.2,0.3-0.2,0.4c0.1-0.1,0.1-0.3,0.2-0.4c0.7-0.3,1.3-0.6,2-1
			C400.4,561.7,400.7,561.3,401,560.9c0.2-0.1,0.3-0.3,0.5-0.5C401.3,560.6,401.1,560.8,401,560.9z M396,551
			c0.2-0.2,0.4-0.5,0.6-0.7c-0.1-0.1-0.3-0.1-0.4-0.2C396.2,550.4,396.1,550.7,396,551c-0.3,0.4-0.6,0.7-1,1
			c-0.9,2.1-1.8,4.2-2.6,6.4c-0.1,0.4,0.6,1,1,1.6c0.5-2.7,1-5.3,1.6-8C395.3,551.6,395.7,551.3,396,551z"/>
		<path fill="#1A2933" d="M845.8,482c-2.9,18.6-3.5,39.9-32.7,28.4c-2.9-1.1-3.1-0.7-3,16.5c0,3.3,0.1,6.6,0.2,10
			c4,8.9-9,9.9-8.1,16c5,32.7,10.9,65.3,16.5,98c-11.2-6-22.4-12-33.6-17.9c-0.5-1.6-1-3.2-1.5-4.8c-0.2-0.3-0.5-0.7-0.7-1l0,0
			c-2.7-20.9-5.3-41.8-8.2-62.6c-0.1-1-2.6-2.3-4.1-2.4c-0.9-0.1-2.6,1.8-2.8,3c-3,16.7-5.8,33.4-8.7,50.1l-0.2-0.2
			c-8.6-4.3-17.2-8.7-25.8-13c0-2.7,0-5.3,0-8c-0.2-2-0.3-4-0.5-6c-0.1-1-0.2-2.1-0.3-3.1c0-3.3,0-6.5-0.1-9.8
			c-5.1,0.3-10.2,0.7-15.3,1c-9-1.6-15.9-6.6-21.8-13.3c-1-2.8-1.5-7.5-3.2-8c-11-3.5-3.6-9.7-3.9-15.7
			c-1.1-20.9,2.1-37.7,25.8-43.1c1,1.7,2,3.5,3,5.2c-14.3,1.2-22.5,10.7-24.3,23.1c-2.5,16.8,0.6,33.7,18.1,42
			c11.7,5.5,22.7-0.2,27.6-11c7.6-16.7,19.3-22.6,36.7-19.6c1,0.2,2.4-1.4,3.6-2.2c-5.2-5.1-10.4-10.2-15.6-15.2
			c-0.8-3.2-1.5-6.4-2.3-9.6c1-10.2,7.5-16.1,15.9-20.6c1.4-0.8,2.9-1.5,4.3-2.3c-1.7-0.6-3.4-1.2-5-1.9c0-27.3,0-54.7,0-82
			c0.1-17.6-9.4-40.3,20.8-42.6c10.1-0.8,21.7,4.3,21.4,14.8c-0.5,13.9-1.6,29.4-13.1,40.4c-1.3,1.3-3.9,1.5-0.8,2.9
			c22.1,9.7,26.6,29.6,28,50.4c0.7,10.5,7.2,1.4,9.8,4C843.3,475.3,844.5,478.6,845.8,482z M784,498C784,498,783.9,498,784,498
			c-0.7,0.1-1.3,0.2-1.9,0.3c-5.6,0.5-12.8-3.3-15.1,5.7c-0.2-0.2-0.5-0.4-0.7-0.6c-0.1,0.1-0.2,0.3-0.2,0.4
			c0.3,0.1,0.6,0.1,0.9,0.2c1.1,1.1,2.2,2.2,3.3,3.3c-6,1.1-5,5-2.2,7.8c0.8,0.8,5.2-2,7.9-3.1l0.1,0.1c10.7,0.4,19.1-5.1,27.8-10.2
			c-0.3-3.2-0.6-6.5-0.9-9.7c0.1-0.6,0.2-1.2,0.3-1.9c0.4-0.2,0.8-0.5,1.2-0.7c-0.5,0.1-1,0.2-1.5,0.3c-6.2,2.5-12.4,5-18.6,7.5
			C784.1,497.5,784,497.7,784,498z M820,483.1c0.9,1.7,1.7,3.5,2.6,5.2c0.1-1.7,0.3-3.5,0.2-5.2c0-0.2-2-0.2-3-0.3
			c-0.6,0.2-1.2,0.3-1.9,0.5c0.1,0.2,0.3,0.6,0.4,0.6C818.9,483.7,819.4,483.4,820,483.1z M808,488.1c1.8,2.7,3.6,5.4,5.4,8.1
			c-0.4-3.3-0.8-6.7-1.3-10c0.6-0.3,1.2-0.6,1.8-0.9c-0.7,0.2-1.4,0.4-2.1,0.5c-1.4,0.6-2.7,1.3-4.1,1.9c-0.4,0.2-0.8,0.4-1.2,0.6
			c0.1,0.1,0.3,0.3,0.3,0.3C807.3,488.6,807.7,488.4,808,488.1z"/>
		<path fill="#CEDD80" d="M818.6,650.9c-5.6-32.7-11.4-65.3-16.5-98c-0.9-6.1,12.1-7.1,8.1-16c45,34.9,90,69.7,135.1,104.6
			c-7.3,23.9-16.7,46.9-28.9,68.8c-30.6-18.5-61.2-36.9-91.8-55.4c-2.1-1.3-4.4-3.6-4.9,1.3C819.4,654.3,819,652.6,818.6,650.9z"/>
		<path fill="#FFFFFF" d="M559.2,388.1c31-27.8,57.7-29,88.5-4c0.4,0.3,0.9,0.7,1.3,1c0,0-0.1-0.1-0.1-0.1c0.4,0.4,0.7,0.7,1.1,1.1
			c0,0-0.1,0-0.1,0c17.4,23.7,20.4,48.8,3.9,73.5c-15.2,22.9-37.7,30.4-64.6,24.1c-26.4-9.7-40.8-28.6-43.5-56.6
			C545.3,412.5,550.8,399.8,559.2,388.1z"/>
		<path fill="#1A2933" d="M314.9,474.9c10.4,23.3,1.3,35-22.4,39.2c-1.8,0.3-1.9,8.2-3.4,12.3c-9.5,24.6-6.2,49.6-3,74.6
			c-17.7-11.8-36.9-22.4-31.3-49.3c1.2-5.7-0.7-12.1-1.2-18.2c-8.9,2.1-17.8,4.7-23.9,12.2c-5.1,6.3-10.3,11.3-19.2,8.3
			c-0.6-0.7-1.2-1.3-1.8-2c4.1-1.9,9.8-2.7,11.9-5.9c9.1-13.7,18.8-25.4,37.6-23.9c1.7,0.1,3.7-2.8,5.5-4.3
			c-1.3-0.6-2.6-1.6-3.8-1.6c-5.3,0.2-11.4,0.5-12.6-5.8c-1.3-6.6,5.4-7.8,9.8-10c4.8-2.4,10.3-3.6,14.3-6.8c2-1.6,1.3-6.6,1.8-10
			c-1.7,0.3-3.6,0.4-5.2,1c-8,2.8-16,5.7-24,8.6c-3.5-9.9,6.9-9.9,10.4-14.8c0.3-0.5-0.4-1.7-0.6-2.6c0.1-34.9,0.2-69.8,0.3-104.7
			c21.9-1.7,33.7,14.1,24.8,34.2c-7.8,17.8,10.2,17.4,16.6,25.1c2.4,2.9,5.8,4.9,8.7,7.3c2.7,8.8,5.3,17.5,8,26.3
			c-2.3,1.2-6,2-6.6,3.8c-2.1,5.9-22.4-1.2-10,13.3C297.3,483.1,308.3,477.2,314.9,474.9z"/>
		<path fill="#CEDD80" d="M589.2,483.7c26.9,6.3,49.4-1.3,64.6-24.1c16.5-24.7,13.5-49.9-3.9-73.5c19.9,14.4,39.9,28.9,59.8,43.3
			c4.2,3,8.3,6,12.5,9c-18.1,17-23.6,35.8-8.3,57.6c-23.7,5.4-26.9,22.2-25.8,43.1c0.3,5.9-7.1,12.1,3.9,15.7c1.8,0.6,2.2,5.3,3.2,8
			c-0.6,3.9-1.2,7.9-1.8,11.8c-0.2,0.2-0.5,0.5-0.7,0.7c1.3-13.4-8.4-18-17.9-23.2c-11.8-6.4-23.2-13.5-34.8-20.3
			c5.3-1.3,10.9-1.8,15.8-4c8.1-3.6,21.2-4,19.8-16.2c-1.3-11-13.2-13.4-22.6-15.5c-8.7-1.9-17.7-2.3-26.6-3.4
			c-1.2-4.7-4.5-3-7.5-2.6c-7,1.3-14,2.5-20.9,3.8C595,490.5,592.1,487.1,589.2,483.7z"/>
		<path fill="#FFFFFF" d="M273.4,303.3c0-3.8,0.1-7.7,0.1-11.5c0.1-0.5,0.2-1,0.3-1.5c5.4-37.2,45.3-48.8,79.6-23.2
			c0.8,0.7,1.7,1.4,2.5,2c0,0-0.1,0-0.1,0c11.5,19,13.6,38.3-0.3,56.9c-12.3,16.4-29.2,21.9-49.2,16.8c-17.6-6.9-29.6-18.6-32.7-38
			C273.6,304.3,273.5,303.8,273.4,303.3z"/>
		<path fill="#152942" d="M713.9,496c-15.2-21.8-9.8-40.6,8.3-57.6c13.3-18.9,30.6-32,53.7-36.5c0,27.3,0,54.7,0,82
			c-13.1,9.2-46.6,2.1-28.5,36.1c3.1,5.8-2,9.4-6.6,11.4c-6.8,3-10-2.1-12.6-7.1c-3.9-7.7-7.5-15.5-11.3-23.3
			C715.9,499.4,714.9,497.7,713.9,496z M737.1,464.5c-0.3-1.1-1-3.4-1.6-5.7c-3.1,4.2-8.6,8.5-8.6,12.7c0.1,5.6,4.6,11.1,7.2,16.6
			C735.1,480.6,736,473.2,737.1,464.5z"/>
		<path fill="#1A2933" d="M254.1,371.3c-0.1,34.9-0.2,69.8-0.3,104.7c-11.7-2.6-18,9-28,10.8c0.1-0.9,0.2-1.8,0.3-2.6
			c-0.1-7.3-0.2-14.6-0.3-21.9c-2.3,9-19.1,12.6-9.7,25.9c2.2,2.1,4.4,4,6.4,6.3c4.8,5.3,14.4,8.6,9.1,18.3c-3.3,6.2-9.6,6-15.8,3.9
			c-1-0.8-1.9-1.6-2.9-2.5l-0.2-0.1c-2.6-2.3-5.3-4.6-7.9-6.9c0,0-0.1-0.1-0.1-0.1c-0.3-0.3-0.6-0.6-0.9-0.9c0,0-0.1-0.1-0.1-0.1
			c-0.4-0.3-0.7-0.5-1.1-0.8c-2.6-2.1-5.2-4.2-7.8-6.3c-13.3-8.7-8.7-18.1-1.8-28.3c13.4-19.9,18.4-46.2,47.8-53.3
			c6.9-1.7-4.7-13.4-4.2-22.3C237.6,382,243.4,375.6,254.1,371.3z"/>
		<path fill="#CEDD80" d="M306.4,342.8c20.1,5,36.9-0.4,49.2-16.8c13.9-18.5,11.7-37.8,0.3-56.9c14.3,10.4,28.4,20.8,42.9,31
			c2.9,2.1,6.9,2.7,10.4,4c-17.3,14-17.7,28.1-0.1,42.3c-10.1,27.4-41.4,35.1-70.6,17.1C327.5,356.9,317,349.7,306.4,342.8z"/>
		<path fill="#2F5E77" d="M404.9,551.1c-4.3-3.7-8.5-7.3-12.8-11c0.8-2.9,2.1-5.8,2-8.7c0-0.9-3.9-1.6-6-2.4
			c-3.3-8.2,0.6-15.5,2.6-23.1c3-3.4,6-6.7,8.9-10.1c0.6,5.3,2,10,7.6,12.2c4.6,1.8,8.9,1.8,12.6-2.1c7-3.2,4.2-8.8,3.3-13.9
			c0.6-5,1.3-10,1.9-15c6-4.8,7.4-16.2,18.9-13.2c-1.1,5.7-2.1,11.5-3.2,17.2c5.9-4.1,11.9-8,17.6-12.4c6.9-5.3,13.6-11.1,20.4-16.6
			c1.8,2.6,3.7,5.3,5.5,7.9c-0.1,0.6-0.2,1.3-0.3,1.9c0,0,0.1,0,0.1,0c-0.3,0.3-0.7,0.7-1,1c0,0-0.1-0.1-0.1-0.1
			c-9,6.9-18.4,13.3-26.9,20.8c-5.1,4.5-15,6.6-12.4,16.4c3,11.4,12,1.6,17.7,4c0.3,0.3,0.5,0.6,0.8,0.9
			c-16.2,11.2-33.6,21.1-40.2,41.8c-0.8,2.6-6.6,3.6-10.1,5.4c-0.9-0.1-1.8-0.2-2.7-0.3C407.7,551.6,406.3,551.4,404.9,551.1z
			 M407.5,526.5c1.5-1.8,3.5-3.5,3.2-4c-1.8-3.6-4.1-7-6.3-10.5c-0.9,0.7-2.6,1.7-2.5,2C403.6,518,405.4,521.9,407.5,526.5z
			 M423.9,532.7c-2.8-1.7-4.4-3.6-5.9-3.5c-1.4,0.1-3.9,2.5-3.7,3.4c0.3,1.6,2.2,3.9,3.7,4.1C419.4,536.9,421,534.7,423.9,532.7z
			 M412.1,539.6c-2.3,1.5-3.7,2.3-5,3.1c1.3,1.3,2.4,3.3,3.9,3.7c1.1,0.3,2.7-1.6,4.1-2.5C414.3,542.6,413.4,541.4,412.1,539.6z"/>
		<path fill="#2F5E77" d="M216,516.5c6.1,2.1,12.4,2.2,15.8-3.9c5.2-9.7-4.4-13-9.1-18.3c-2-2.2-4.3-4.2-6.4-6.2
			c3.2-0.5,6.4-0.9,9.6-1.4c10-1.8,16.3-13.4,28-10.8c0.2,0.9,0.9,2.1,0.6,2.6c-3.5,4.9-13.9,4.9-10.4,14.8c8-2.9,16-5.8,24-8.6
			c1.6-0.6,3.5-0.7,5.2-1c-0.5,3.4,0.2,8.4-1.8,10c-4,3.2-9.6,4.4-14.3,6.8c-4.4,2.2-11.1,3.5-9.8,10c1.2,6.3,7.3,5.9,12.6,5.8
			c1.2,0,2.5,1,3.8,1.6c-1.8,1.5-3.8,4.4-5.5,4.3c-18.7-1.5-28.4,10.2-37.6,23.9c-2.1,3.2-7.9,4-11.9,5.9c-1.2-0.3-2.4-0.7-3.7-1
			c-1.3-0.7-2.6-1.4-3.9-2c-1.4-0.9-2.8-1.8-4.2-2.8c-0.9-1.1-1.9-2.1-2.8-3.2c-2.1-3.2-4.1-6.4-6.2-9.6c1.4-1.7,4.3-4.3,3.9-5.1
			c-1.2-2.2-3.7-3.6-5.7-5.3c-0.9-9.5,1.2-17.8,9-24c2.6,2.1,5.2,4.2,7.8,6.3c0.4,0.3,0.7,0.5,1.1,0.8c0,0,0.1,0.1,0.1,0.1
			c0.3,0.3,0.6,0.6,0.9,0.9c0,0,0.1,0.1,0.1,0.1c0.5,0.6,1.5,1.5,1.4,1.9c-2.1,5.7,0.7,14.6,3.1,14.2c6.5-1.3-1.2-6.1,0-9.5
			c0.1-0.3,2.2,0.2,3.4,0.3c0,0,0.2,0.1,0.2,0.1C214.1,514.9,215.1,515.7,216,516.5z M215,531c0,1.4,0,2.7,0,4.1l-0.1,0.1
			c1,4.5,3.1,2.8,5.2,0.9l0.1-0.1c-0.1-1.6-0.2-3.3-0.2-4.9c-0.3-0.3-0.6-0.6-1-0.9C217.6,530.4,216.4,530.7,215,531
			C215.1,530.9,215,531,215,531z M208,540.9L208,540.9c-2.7,1.4-4.3,3-0.6,5.2l0.1,0c1.5,3.5,3.1,2.4,4.6,0l0,0
			c3.6-1.1,4.6-2.6,1-5.1c0,0-0.1-0.1-0.1-0.1C211.3,540.9,209.7,540.9,208,540.9z"/>
		<path fill="#CEDD80" d="M559.2,388.1c-8.4,11.7-13.9,24.3-13.5,39c-0.3-0.1-0.5-0.2-0.8-0.3c0.1-30.2-22.3-49-36.7-71.8
			c-1.8-2.9-3.5-5.9-5.3-8.9C521.6,360.1,540.4,374.1,559.2,388.1z"/>
		<path fill="#2F5E77" d="M314.9,474.9c-6.6,2.3-17.6,8.3-19.2,6.3c-12.4-14.5,7.9-7.3,10-13.3c0.7-1.8,4.3-2.6,6.6-3.8
			c5.4-2.7,10.7-5.4,16.1-8.1c2.1-2.1,4.3-4.2,6.4-6.3c2.8-0.7,5.7-1.4,8.5-2c0.6,0,1.2,0,1.8,0c2.5-1,5.1-1.9,7.6-2.9
			c0.8-0.3,1.5-0.6,2.3-0.9c1.8-0.4,3.6-0.7,5.3-1.1c17.6,7.9,4.6,12.3-2,17.4c-0.4,0-0.9,0.1-1.3,0.1c-4.2,2.2-8.5,4.3-12.7,6.5
			C332.9,463.9,323.8,469.1,314.9,474.9z"/>
		<path fill="#142C47" d="M871.8,474.8c-4.2-0.3-8.4-0.7-12.7-1c-0.6-2.4-1.2-4.7-1.8-7.1c12.2-10.3,26.7-13.9,42.2-14.1
			c1.1,0,3.1,3.3,3.2,5.2c0.4,5.4-4.7,5.4-7.9,7.2c-1,0.3-2,0.7-2.9,1c-4.7,2-9.4,3.9-14.2,5.9C875.8,472.9,873.8,473.9,871.8,474.8
			z"/>
		<path fill="#CEDD80" d="M328.4,456c-5.4,2.7-10.7,5.4-16.1,8.1c-2.7-8.8-5.3-17.5-8-26.3C312.3,443.9,320.3,449.9,328.4,456z"/>
		<path fill="#152942" d="M845.8,482c-1.3-3.4-2.5-6.7-3.8-10.1c4.4-1.6,8.8-3.1,13.2-4.7c0.6,2.3,1.3,4.6,1.9,6.8
			C853.3,476.7,849.5,479.3,845.8,482z"/>
		<path fill="#152942" d="M186.2,522.9c2,1.7,4.5,3.2,5.7,5.3c0.4,0.8-2.5,3.3-3.9,5.1C180.4,531.1,182.2,527.2,186.2,522.9z"/>
		<path fill="#152942" d="M343.2,447.7c-2.8,0.7-5.7,1.4-8.5,2c1.2-2.4,2.5-4.7,3.7-7.1C340.1,444.3,341.7,446,343.2,447.7z"/>
		<path fill="#2F5E77" d="M352.7,444.8c-2.5,1-5.1,1.9-7.6,2.9c0.5-2.2,0.9-4.4,1.4-6.5C348.5,442.4,350.6,443.6,352.7,444.8z"/>
		<path fill="#152942" d="M360.3,442.8c-1.8,0.4-3.6,0.7-5.3,1.1c-0.1-2-0.5-4.1-0.3-6c0-0.4,3.2-1,3.4-0.7
			C359.2,438.9,359.6,440.9,360.3,442.8z"/>
		<path fill="#AAC2D0" d="M207.8,580.9c-0.9,9.4-1.8,18.8-2.6,28.2C206,599.7,206.9,590.3,207.8,580.9z"/>
		<path fill="#AAC2D0" d="M871.8,474.8c2-1,4-1.9,6-2.9C878.6,478.8,877.8,482.1,871.8,474.8z"/>
		<path fill="#AAC2D0" d="M891.9,466c1-0.3,2-0.7,2.9-1c-0.2,2.1-0.3,4.3-0.6,6.4c0,0.1-1.6,0.1-1.6,0
			C892.3,469.7,892.1,467.8,891.9,466z"/>
		<path fill="#AAC2D0" d="M857,474c-0.6-2.3-1.3-4.6-1.9-6.8c0.7-0.2,1.4-0.3,2.2-0.5c0.6,2.4,1.2,4.7,1.8,7.1
			C858.4,473.9,857.7,474,857,474z"/>
		<path fill="#AAC2D0" d="M356.9,460.3c0.4,0,0.9-0.1,1.3-0.1c1,1.3,2.1,2.6,3.1,3.9c-0.7,0.3-1.9,0.9-2,0.8
			C358.5,463.5,357.8,461.9,356.9,460.3z"/>
		<path fill="#AAC2D0" d="M201.1,548.9c1.3,0.7,2.6,1.4,3.9,2c-1.6,1.1-3.2,2.2-4.8,3.3c-0.2-0.2-0.3-0.3-0.5-0.5
			C200.2,552.1,200.7,550.5,201.1,548.9z"/>
		<path fill="#AAC2D0" d="M189.4,558c-0.8-2.6-1.2-3.5-1.2-4.3c0-0.6,0.8-1.2,1.2-1.9c0.2,0.8,0.4,1.7,0.5,2.5
			C189.9,554.9,189.7,555.6,189.4,558z"/>
		<path fill="#AAC2D0" d="M194.1,542.9c0.9,1.1,1.9,2.1,2.8,3.2c-1.2,0.1-2.4,0.1-3.6,0.1c-0.1-0.1-0.3-0.3-0.4-0.4
			C193.3,544.9,193.7,543.9,194.1,542.9z"/>
		<path fill="#AAC2D0" d="M190.8,549.7c-0.1-0.3-0.3-0.6-0.3-0.8c0.1-0.3,0.4-0.4,0.6-0.6c0.2,0.3,0.4,0.6,0.4,0.9
			C191.6,549.4,191.1,549.6,190.8,549.7z"/>
		<path fill="#AAC2D0" d="M356,269.1c-0.8-0.7-1.7-1.4-2.5-2C354.3,267.8,355.1,268.5,356,269.1z"/>
		<path fill="#C1B2AE" d="M273.9,290.3c-0.1,0.5-0.2,1-0.3,1.5C273.7,291.3,273.8,290.8,273.9,290.3z"/>
		<path fill="#C1B2AE" d="M273.4,303.3c0.1,0.5,0.2,1,0.3,1.5C273.6,304.3,273.5,303.8,273.4,303.3z"/>
		<path fill="#AAC2D0" d="M200.3,554.2c-0.2,0.2-0.4,0.4-0.7,0.6c0.1-0.4,0.1-0.7,0.2-1.1C199.9,553.9,200.1,554,200.3,554.2z"/>
		<path fill="#AAC2D0" d="M197.8,556.8c0.2-0.2,0.4-0.4,0.6-0.5c-0.1,0.3-0.1,0.6-0.2,0.9C198.1,557,197.9,556.9,197.8,556.8z"/>
		<path fill="#AAC2D0" d="M649,385.1c-0.4-0.3-0.9-0.7-1.3-1C648.1,384.4,648.5,384.8,649,385.1z"/>
		<path fill="#AAC2D0" d="M649.9,386.1c-0.4-0.4-0.7-0.7-1.1-1.1C649.2,385.4,649.6,385.7,649.9,386.1z"/>
		<path fill="#AAC2D0" d="M193.3,546.3c-0.3,0.1-0.6,0.2-1,0.2c0.2-0.2,0.4-0.4,0.5-0.6C193,546,193.2,546.1,193.3,546.3z"/>
		<path fill="#AAC2D0" d="M198.2,557.1c-0.2,0.2-0.4,0.4-0.6,0.5c0.1-0.3,0.1-0.6,0.2-0.9C197.9,556.9,198.1,557,198.2,557.1z"/>
		<path fill="#1A2933" d="M733.2,602c8.6,4.3,17.2,8.7,25.8,13c-3.9,20.8-7.1,41.8-11.8,62.4c-9.3,40.8-9.6,40.8,31.9,40.6
			c8.4,0,16.8-1.3,25.2-2c10.1,4.5,20.4,3.6,30.9,1.8c25.6,0.2,51.3,0.4,76.9,0.6c-19.5,35.3-42.6,67.8-71,96.6
			c-43-32.4-86.1-64.7-129.1-97.1c1-5.7,2-11.3,3.1-17C721,668,727.1,635,733.2,602z"/>
		<path fill="#98C21E" d="M912,718.4c-25.6-0.2-51.3-0.4-76.9-0.6c1.2-7.7-6.8-7.8-10-11.9c-1.8-16.6-3.5-33.2-5.3-49.8
			c0.4-4.9,2.8-2.6,4.9-1.3c30.6,18.5,61.2,36.9,91.8,55.4C915,712.9,913.5,715.7,912,718.4z"/>
		<path fill="#2F5E77" d="M491.3,613c2.9,21.3,5.7,42.6,8.7,63.9c0.6,4.1-0.3,7.1-4,9.1c-13,0.3-26,0.6-39,0.9
			c-16.8-13.4-29.1-29.4-30.2-51.9c3.8-23.7,11.6-45.9,25.4-65.8c0.7-1,1.4-2.1,2.1-3.1c0,0-0.1,0.1-0.1,0.1c0.3-0.4,0.7-0.7,1-1.1
			c0,0-0.1,0.1-0.1,0.1c0.3-0.4,0.6-0.7,1-1.1c0,0,0,0,0,0c9.3-3.4,18.6-6.9,27.9-10.3C486.4,573.5,488.9,593.2,491.3,613z"/>
		<path fill="#98C21E" d="M251.4,684.1c-31.8,9.4-23.3-8.5-22.2-19c2.9-27.8,7-55.4,10.8-83c0.2-1.6,1.5-3.1,2.3-4.7
			c1.1,1,2.5,1.9,3.2,3.1c18.4,32.4,18.2,68.2,16.9,103.7C262.2,690.9,250.5,684.6,251.4,684.1z"/>
		<path fill="#98C21E" d="M293.3,648.2c12,9.5,24.1,19.1,36.1,28.6c1.2,1,2.8,1.6,4.2,2.3c-0.2-1.4-0.3-2.9-0.5-4.3
			c-0.9-5.6-1.8-11.1-2.6-16.7c-1-6.8-2-13.6-3-20.5c6.2,3.3,12.4,6.6,18.5,10c6.2,3.4,12.4,6.9,18.5,10.4c0,3.3,0,6.6,0,9.9
			c-0.2,6.3-0.4,12.6-0.6,18.9c0,0,0,0,0,0c-24.3,0-48.5,0.1-72.8,0.1c-0.3-1.3-0.7-2.6-1-3.9c0.9-4.8,1.7-9.5,2.6-14.3
			c0-0.5,0.1-1.1,0.1-1.6c0.1-2.4,0.2-4.8,0.3-7.1C293.1,656,293.2,652.1,293.3,648.2z"/>
		<path fill="#98C21E" d="M376,593.9c-2.2-9.2-4.4-18.4-6.5-27.7c-0.6-2.7-0.7-5.5-1.1-8.2c2.3,0.4,4.7,0.5,6.9,1.2
			c11.9,3.5,23.8,7.1,35.7,10.7c-5.7,17.3-11.3,34.5-17,51.8c-1.1,0.3-2.2,0.9-3.3,0.9c-7.2,0.2-19.3,2.8-20.7,0
			c-3.8-7.4,2.3-15.4,7.6-21.5c1.8-2.1,6.1-2,9.2-2.9c-3.4-1.2-6.8-2.4-10.1-3.6C376.5,594.4,376.3,594.1,376,593.9z"/>
		<path fill="#142C47" d="M376.6,594.7c3.4,1.2,6.8,2.4,10.1,3.6c-3.1,0.9-7.4,0.8-9.2,2.9c-5.3,6.2-11.3,14.2-7.6,21.5
			c1.4,2.8,13.5,0.2,20.7,0c1.1,0,2.2-0.6,3.3-0.9c-2.4,8.1-4.7,16.1-7.1,24.2c-11.9-4.1-21.3-4.9-18,12.8
			c0.9,5.1,0.2,10.6,0.2,15.9c-1.4,1.7-2.7,3.5-4.1,5.2c-0.2-4-0.4-8-0.6-12c0-3.3,0-6.6,0-9.9c-0.1-7.7,3.7-16.5-7.2-21
			c-3.6-1.5-1.9-5.6,0.9-6.6c7.7-3,9.1-9.6,6.4-15.1c-2.6-5.5-1.1-16-12.5-14.7c-0.9,0.1-2.1-2-3.1-3c2-0.9,3.9-1.7,5.9-2.6
			c2-0.2,4-0.5,6-0.7c3.7,0,7.4,0,11.1,0C373.6,594.4,375.1,594.5,376.6,594.7z"/>
		<path fill="#D3E6C3" d="M443.9,463.9c-11.4-2.9-12.9,8.4-18.9,13.2c2.7-22.2,5.5-44.4,8.3-66.5c0.1-0.6,1.9-1.5,2.3-1.3
			c12.7,6.3,20.9,43.8,12.5,55.5C445.4,468.7,445,465.5,443.9,463.9z"/>
		<path fill="#142C47" d="M411.7,552.1c3.5-1.8,9.3-2.8,10.1-5.4c6.6-20.8,24-30.6,40.2-41.8c8.5,5.7,5.3,11.9-1.6,14.1
			c-19.8,6.2-23.8,31.1-44.2,36C414.8,554,413.3,553,411.7,552.1z"/>
		<path fill="#142C47" d="M426.8,635c1.2,22.5,13.4,38.5,30.2,51.9c-3.5,0-7,0-10.5,0c-2.1-2.2-4.2-4.3-6.4-6.5
			c-0.8,1.8-1.6,3.6-2.3,5.4c-0.5,0-1,0-1.5,0c-0.3-2.6-0.5-5.2-0.8-7.7c-1.5,2.3-3,4.7-4.5,7c-3.4,0.5-6.7,0.9-10.1,1.4
			c0.4-1.1,0.7-2.2,1.1-3.3c1-5.1,12.3-4.4,5.8-16.1c-3-5.4-5.9-18.8-5-29C424.2,637.2,425.5,636.1,426.8,635z"/>
		<path fill="#98C21E" d="M369.2,674.7c0-5.3,0.7-10.8-0.2-15.9c-3.3-17.7,6.1-16.9,18-12.8C385.4,658.3,383.2,670.2,369.2,674.7z"
			/>
		<path fill="#142C47" d="M461.2,504c-5.7-2.3-14.7,7.5-17.7-4c-2.6-9.8,7.3-11.9,12.4-16.4c8.5-7.5,17.9-13.9,26.9-20.8
			c-7.4,9.6-14.3,19.7-22.5,28.7C455.4,496.9,445.2,500.8,461.2,504z"/>
		<path fill="#D3E6C3" d="M483.3,533.2c0.2,4.3,0.5,8.5,0.7,12.8c-8.1-1.9-12.3,9.9-21,6.1c0,0,0.1-0.1,0.1-0.1
			c0.3-0.3,0.6-0.6,0.9-0.9c0,0,0.1-0.1,0.1-0.1c0.4-0.6,0.7-1.2,1.1-1.9c0,0-0.1,0.1-0.1,0.1c0.3-0.4,0.6-0.7,0.9-1.1
			c0,0,0.1-0.1,0.1-0.1c0.2-0.3,0.4-0.5,0.6-0.8c5.1-8.9,10.2-17.8,15.2-26.7c0.1-0.1,0.2-0.3,0.3-0.4c0.3,0.3,0.6,0.6,0.9,0.8
			C483.2,525,483.2,529.1,483.3,533.2z"/>
		<path fill="#98C21E" d="M419.6,670c-4.6,4.9,7.2,16.2-7.3,18.1c-4,0.5-4.8-1.9-4-4.8c3.2-10.6,6.6-21,10-31.5
			C418.7,657.6,419.1,663.4,419.6,670z"/>
		<path fill="#CEDD80" d="M422.9,638.2c-1,10.2,1.9,23.5,5,29c6.5,11.6-4.7,10.9-5.8,16.1C422.3,668.3,422.6,653.3,422.9,638.2z"/>
		<path fill="#142C47" d="M463,552c8.7,3.8,12.9-7.9,21-6.1c0,2.6,0,5.2,0,7.8c-9.3,3.4-18.6,6.9-27.9,10.3
			C458.4,560,460.7,556,463,552z"/>
		<path fill="#AAC2D0" d="M291.1,686.9c24.3,0,48.5-0.1,72.8-0.1C339.6,686.8,315.4,686.9,291.1,686.9z"/>
		<path fill="#CEDD80" d="M437.8,685.9c0.8-1.8,1.6-3.6,2.3-5.4c2.1,2.2,4.2,4.3,6.4,6.5C443.6,686.6,440.7,686.3,437.8,685.9z"/>
		<path fill="#CEDD80" d="M431,685.2c1.5-2.3,3-4.7,4.5-7c0.3,2.6,0.5,5.2,0.8,7.7C434.6,685.7,432.8,685.4,431,685.2z"/>
		<path fill="#AAC2D0" d="M292.7,668.7c-0.9,4.8-1.7,9.5-2.6,14.3C291,678.2,291.8,673.5,292.7,668.7z"/>
		<path fill="#142C47" d="M423.1,492c0.9,5.1,3.7,10.6-3.3,13.9C420.9,501.3,422,496.7,423.1,492z"/>
		<path fill="#98C21E" d="M364.5,667.9c0.2,4,0.4,8,0.6,12c-0.4,2.3-0.8,4.6-1.3,6.9C364.1,680.5,364.3,674.2,364.5,667.9z"/>
		<path fill="#AAC2D0" d="M483.3,533.2c-0.1-4.1-0.2-8.1-0.2-12.2C483.2,525,483.2,529.1,483.3,533.2z"/>
		<path fill="#AAC2D0" d="M293.1,660c-0.1,2.4-0.2,4.8-0.3,7.1C292.9,664.7,293,662.4,293.1,660z"/>
		<path fill="#142C47" d="M454.2,566.1c-0.7,1-1.4,2.1-2.1,3.1C452.8,568.2,453.5,567.1,454.2,566.1z"/>
		<path fill="#142C47" d="M465.1,549c-0.4,0.6-0.7,1.2-1.1,1.9C464.4,550.2,464.7,549.6,465.1,549z"/>
		<path fill="#142C47" d="M483.9,462c0.1-0.6,0.2-1.3,0.3-1.9C484.1,460.7,484,461.3,483.9,462z"/>
		<path fill="#142C47" d="M286,600.9c0.3,0.3,0.5,0.6,0.8,0.9C286.5,601.5,286.3,601.2,286,600.9z"/>
		<path fill="#142C47" d="M466.7,547.2c-0.2,0.3-0.4,0.5-0.6,0.8C466.2,547.7,466.5,547.4,466.7,547.2z"/>
		<path fill="#142C47" d="M466,548c-0.3,0.4-0.6,0.7-0.9,1.1C465.3,548.7,465.7,548.4,466,548z"/>
		<path fill="#142C47" d="M482.9,463c0.3-0.3,0.7-0.7,1-1C483.6,462.3,483.3,462.6,482.9,463z"/>
		<path fill="#142C47" d="M455.1,565.1c-0.3,0.4-0.7,0.7-1,1.1C454.4,565.8,454.8,565.4,455.1,565.1z"/>
		<path fill="#142C47" d="M456,564.1c-0.3,0.4-0.6,0.7-1,1.1C455.4,564.8,455.7,564.4,456,564.1z"/>
		<path fill="#142C47" d="M463.9,551c-0.3,0.3-0.6,0.6-0.9,0.9C463.3,551.6,463.6,551.3,463.9,551z"/>
		<path fill="#98C21E" d="M733.2,602c-6.1,33-12.1,66-18.2,99c-1.6-0.7-3.4-1.2-4.7-2.2c-28.7-21.6-57.3-43.3-85.9-65
			c-0.2-0.9-0.3-1.8-0.5-2.7c0-1.4-0.1-2.8-0.1-4.2c-0.1-4.3-0.2-8.5-0.3-12.8c-0.1-1.7-0.1-3.4-0.2-5.1c-2-16.5-3.1-32.1,20.4-33.5
			c4.5-0.3,11.7-3.7,10.1-9.6c-2.5-9.1-12.4-9.3-19.9-11.7c-3.4-1.1-7.2-0.9-10.8-1.3c-0.3-4-0.5-7.9-0.8-11.9c0-0.6,0-1.3,0-1.9
			c0.3-2,0.5-3.9,0.8-5.9c5.6-0.4,11.3-0.9,16.9-1.3c11.6,6.8,23,13.9,34.8,20.3c9.5,5.2,19.3,9.8,17.9,23.2c0.3,0.3,0.7,0.6,1,1
			c1.9,0.6,3.8,1.2,5.8,1.7c0.2,0.1,0.5-0.3,0.8-0.5c-1.9-0.6-3.9-1.3-5.9-1.9c-0.3-0.3-0.7-0.7-1-1c0.6-3.9,1.2-7.9,1.8-11.8
			c5.9,6.6,12.8,11.7,21.8,13.3c5,2,10,4,15,6c0.1,0.9,0.3,1.9,0.4,2.8c0.1,1,0.2,2.1,0.3,3.1c0.2,2,0.3,4,0.5,6
			C733.1,596.6,733.1,599.3,733.2,602z"/>
		<path fill="#98C21E" d="M544.9,426.9c0.3,0.1,0.5,0.2,0.8,0.3c2.7,27.9,17,46.9,43.5,56.6c2.9,3.4,5.9,6.8,8.8,10.2
			c-12.8,3.9-34,3.6-32.6,19.2c1.5,16.8,23.3,14.9,37.5,19.1c6,1.8,17.9-5.2,16.4,10.4c-1.7,18.6-14.7,6.2-21.7,7.7
			c-14.5,3.2-28.8,4.7-42.7,11.9c-14.3,7.3-34.3-12.9-31.9-29.5c2.4-16.1,3.4-32.5,5-48.7c0.1-0.1,0.2-0.2,0.2-0.3
			c0-0.2-0.1-0.5-0.2-0.7c0-12.7,0-25.5,0.1-38.2c0,0,0.2-0.4,0.2-0.4L528,444C533.6,438.3,539.3,432.6,544.9,426.9z"/>
		<path fill="#2F5E77" d="M571.2,623.4c-1.4,26.3-10.9,47.1-32.6,61.4c-4.1,2.7-7.9,2.5-7.4-11.7c1.3-37.9-15.3-73.6-11.3-111.5
			c0.6-5.8,2.8-5.3,6.4-3.8C555.4,570.5,569.1,593.5,571.2,623.4z"/>
		<path fill="#CEDD80" d="M624.4,633.8c28.6,21.7,57.2,43.4,85.9,65c1.4,1,3.1,1.5,4.7,2.2c-1,5.7-2,11.3-3.1,17
			c-8.8,0-17.8-1.1-26.4,0.2c-21.9,3.2-34.9-1.1-30-27.6c1.4-7.4-7.6-1.7-11.2-3.8c-6.7-5.7-13.4-11.4-20.1-17c0-10.9,0-21.7,0-32.6
			c0-0.4,0-0.8,0-1.2C624.2,635.2,624.3,634.5,624.4,633.8z"/>
		<path fill="#98C21E" d="M619.9,610c0,5.6,0,11.3,0,16.9c-0.8-1.7-1.7-3.3-2.5-5c-14.3-11-2.6-26.3-6.5-39c2.4-0.6,4.7-1.2,7.1-1.8
			C618.6,590.7,619.3,600.3,619.9,610z"/>
		<path fill="#CEDD80" d="M604.9,669.8c-1,1.3-2,2.6-2.9,3.9c-0.1-4.9-1.7-10.5,0.1-14.6c1.8-3.9,2.2-4.9,0.7-9.8
			c-2.8-9.2-0.2-20.1,0.2-30.2c0.9,0.6,1.8,1.1,2.8,1.7c7.1,12.1,0.2,25.6,4.1,38c-0.2,0.4-0.5,0.7-0.7,1.1c-0.1,0.7-0.1,1.3-0.2,2
			c-1,1.2-2.1,2.4-3.1,3.6c-0.3,1.5-0.7,2.9-1,4.4C604.9,670,604.9,669.8,604.9,669.8z"/>
		<path fill="#CEDD80" d="M619.6,686.8c-2.1-0.9-6.1-2-6.1-2.5c1.1-7.7-3.4-15.9,2-23.2c1.2-1.6,2.5-4,2.1-5.8
			c-0.3-1.4-3-2.2-4.6-3.3c-0.2-0.3-0.4-0.6-0.6-0.9c0.1-1.4,0.1-2.7,0.2-4.1c2.4-0.3,4.8-0.7,7.3-1c0.3,5.9,0.5,11.9,0.8,17.8
			c-0.2,6.7-0.5,13.5-0.7,20.2c0,0.7-0.1,1.3-0.1,2C619.8,686.2,619.7,686.5,619.6,686.8z"/>
		<path fill="#98C21E" d="M605.8,620.9c-0.9-0.6-1.8-1.1-2.8-1.7c1.3-0.7,2.6-1.5,3.9-2.2c-1.2-0.7-2.7-1.1-3.5-2.1
			c-1.1-1.6-2.4-3.6-2.3-5.3c0.4-9.2-0.1-18.7,2.5-27.3c0.8-2.7,4.6,2.3,4.6,5.9c0.1,8.3,0.1,16.5,0.2,24.8
			C607.5,615.5,606.7,618.2,605.8,620.9z"/>
		<path fill="#98C21E" d="M598.1,588.5c-3.9,3.1-1.9,6.8-0.4,11.4c1.4,4.2,0,9.3-0.2,14c-0.2-0.2-0.6-0.3-0.7-0.5
			c-2.9-7.3-5.8-14.6-8.6-22c-0.6-1.5,0.1-3.8-0.8-4.7c-2.1-2.2-4.9-3.7-7.4-5.5c2.1-0.1,4.9-1,6.2,0
			C589.8,584.1,598.6,577.4,598.1,588.5z"/>
		<path fill="#152942" d="M624.2,669.7c6.7,5.7,13.4,11.4,20.1,17C631.3,688.5,619.6,688.7,624.2,669.7z"/>
		<path fill="#CEDD80" d="M617.4,621.9c0.8,1.7,1.7,3.3,2.5,5c0,6,0,12,0,18c-15-0.7-3-12.7-7.4-17.8
			C614.2,625.4,615.8,623.6,617.4,621.9z"/>
		<path fill="#152942" d="M605.9,665.6c1-1.2,2.1-2.4,3.1-3.6c0.3,7.4,0.6,14.8,0.9,22.1c-1.9-2.3-4.5-4.3-5.6-7
			c-0.8-2,0.3-4.8,0.6-7.3c0,0,0,0.1,0,0.1C605.2,668.5,605.6,667,605.9,665.6z"/>
		<path fill="#CEDD80" d="M585.9,687.4c-2.1-0.6-4.2-1.3-6.3-1.9c3.1-2.8,6.3-5.6,9.4-8.4c1.3,2.2,3.6,4.3,3.8,6.6
			C593.4,689.8,588.1,685.1,585.9,687.4z"/>
		<path fill="#CEDD80" d="M599,668.4c-1.6,1.2-2.5,2.4-3.5,2.5c-1.1,0-2.3-1.1-3.5-1.7c1.2-1.9,2.5-3.8,3.7-5.6
			C596.7,664.9,597.6,666.2,599,668.4z"/>
		<path fill="#AAC2D0" d="M619.9,610c-0.7-9.6-1.3-19.3-2-28.9C618.6,590.7,619.3,600.3,619.9,610z"/>
		<path fill="#CEDD80" d="M612.5,627.1c4.4,5.1-7.6,17,7.4,17.8c0,0.3,0.1,0.7,0.1,1c-2.4,0.3-4.8,0.7-7.3,1
			C612.7,640.3,612.6,633.7,612.5,627.1z"/>
		<path fill="#152942" d="M599.1,683.5c1-1.9,1.5-2.9,2.1-3.9c1.1,2,2.2,3.9,3.2,5.9c0.1,0.2-1.2,1.4-1.3,1.4
			C601.8,685.8,600.5,684.7,599.1,683.5z"/>
		<path fill="#152942" d="M608.4,612.9c-0.1-8.3-0.1-16.5-0.2-24.8C608.3,596.4,608.3,604.6,608.4,612.9z"/>
		<path fill="#152942" d="M620.1,684c0.2-6.7,0.5-13.5,0.7-20.2C620.6,670.5,620.3,677.2,620.1,684z"/>
		<path fill="#152942" d="M618.9,490.2c2.9-0.4,6.3-2,7.5,2.6C623.9,491.9,621.4,491.1,618.9,490.2z"/>
		<path fill="#AAC2D0" d="M622.2,540.9c0.3,4,0.6,7.9,0.8,11.9C622.8,548.9,622.5,544.9,622.2,540.9z"/>
		<path fill="#AAC2D0" d="M623,533.1c-0.3,2-0.5,3.9-0.8,5.9C622.5,537.1,622.8,535.1,623,533.1z"/>
		<path fill="#AAC2D0" d="M623.3,608.9c0.1,1.7,0.1,3.4,0.2,5.1C623.4,612.3,623.4,610.6,623.3,608.9z"/>
		<path fill="#AAC2D0" d="M623.8,626.8c0,1.4,0.1,2.8,0.1,4.2C623.9,629.6,623.8,628.2,623.8,626.8z"/>
		<path fill="#152942" d="M612.5,651c0.2,0.3,0.4,0.6,0.6,0.9C612.9,651.6,612.7,651.3,612.5,651z"/>
		<path fill="#152942" d="M609.2,660c0.2-0.4,0.5-0.7,0.7-1.1C609.7,659.2,609.4,659.6,609.2,660z"/>
		<path fill="#152942" d="M528,483c0.1,0.2,0.2,0.5,0.2,0.7c0,0.1-0.1,0.2-0.2,0.3C528,483.6,528,483.3,528,483z"/>
		<path fill="#152942" d="M528,444l0.3,0.3c0,0-0.2,0.4-0.2,0.4C528,444.5,527.9,444.3,528,444z"/>
		<path fill="#152942" d="M619.6,686.8c0.1-0.3,0.2-0.5,0.4-0.8C619.9,686.2,619.7,686.5,619.6,686.8z"/>
		<path fill="#152942" d="M624.1,635.9c0,0.4,0,0.8,0,1.2C624.1,636.7,624.1,636.3,624.1,635.9z"/>
		<path fill="#142C47" d="M388.1,529c2.1,0.8,6,1.6,6,2.4c0.1,2.9-1.2,5.8-2,8.7C386.3,538,382.4,535.2,388.1,529z"/>
		<path fill="#152942" d="M395,552c-0.5,2.7-1,5.3-1.6,8c-0.3-0.5-1.1-1.2-1-1.6C393.2,556.2,394.2,554.1,395,552L395,552z"/>
		<path fill="#152942" d="M404.9,551.1c1.4,0.2,2.8,0.5,4.2,0.7c-1.7,1.9-3.5,3.8-5.2,5.7C404.2,555.4,404.5,553.3,404.9,551.1z"/>
		<path fill="#152942" d="M361,594.2c-2,0.2-4,0.5-6,0.7C357,594.7,359,594.5,361,594.2z"/>
		<path fill="#98C21E" d="M376.6,594.7c-1.5-0.1-3-0.3-4.5-0.4c1.3-0.1,2.6-0.2,4-0.3C376.3,594.1,376.5,594.4,376.6,594.7z"/>
		<path fill="#152942" d="M396,551c0.1-0.3,0.1-0.6,0.2-0.9c0.1,0.1,0.3,0.1,0.4,0.2C396.4,550.5,396.2,550.7,396,551
			C396,551,396,551,396,551z"/>
		<path fill="#152942" d="M398,563c0.7-0.3,1.3-0.7,2-1l0,0C399.3,562.3,398.7,562.6,398,563L398,563z"/>
		<path fill="#152942" d="M395,552c0.3-0.3,0.7-0.7,1-1c0,0,0,0,0,0C395.7,551.3,395.3,551.6,395,552C395,552,395,552,395,552z"/>
		<path fill="#152942" d="M398,563c-0.1,0.1-0.1,0.3-0.2,0.4C397.9,563.3,398,563.1,398,563C398,563,398,563,398,563z"/>
		<path fill="#152942" d="M400,562c0.3-0.3,0.6-0.7,1-1l0.1,0.1C400.7,561.3,400.4,561.7,400,562C400,562,400,562,400,562z"/>
		<path fill="#152942" d="M401,560.9c0.2-0.2,0.3-0.3,0.5-0.5C401.3,560.7,401.2,560.8,401,560.9C401,561,401,560.9,401,560.9z"/>
		<path fill="#98C21E" d="M804.2,716c-8.4,0.7-16.8,1.9-25.2,2c-41.5,0.2-41.2,0.2-31.9-40.6c4.7-20.6,7.9-41.6,11.8-62.4
			c0,0,0.2,0.2,0.2,0.2c7.9,4,15.8,8,23.7,11.9c0,0,0,0,0,0c0.2,0.3,0.5,0.7,0.7,1c0.5,1.6,1,3.2,1.5,4.8c5.7,26.3,11.3,52.7,17,79
			C802.7,713.3,803.5,714.6,804.2,716z"/>
		<path fill="#CEDD80" d="M716.9,501.2c3.7,7.8,7.3,15.6,11.3,23.3c2.6,5,5.8,10.1,12.6,7.1c4.6-2,9.7-5.5,6.6-11.4
			c-18.1-34,15.4-27,28.5-36.1c1.7,0.6,3.4,1.2,5,1.9c-1.4,0.8-2.9,1.5-4.3,2.3c-8.4,4.5-14.9,10.4-15.9,20.6
			c-4.9,0.8-3.1,4.4-2.3,6.8c0.4,1.3,3,1.9,4.5,2.8c5.2,5.1,10.4,10.2,15.6,15.2c-1.2,0.8-2.5,2.3-3.6,2.2c-17.4-3-29,2.9-36.7,19.6
			c-5,10.9-15.9,16.6-27.6,11c-17.5-8.3-20.6-25.2-18.1-42C694.4,511.8,702.6,502.4,716.9,501.2z M723.8,540.2
			c-3.2-6.4-5.3-10.7-7.3-14.9c-0.5,0.9-1.6,2.1-1.4,2.7c1.6,4.4,3.5,8.6,5.4,12.9C720.7,541.1,722.7,540.5,723.8,540.2z"/>
		<path fill="#1A2933" d="M802,712c-5.7-26.3-11.3-52.7-17-79c11.2,6,22.4,12,33.6,17.9c0.4,1.7,0.8,3.5,1.2,5.2
			c1.8,16.6,3.5,33.2,5.3,49.8C816,702.5,808.8,706.5,802,712z"/>
		<path fill="#CEDD80" d="M782.8,627.1c-7.9-4-15.8-8-23.7-11.9c2.9-16.7,5.7-33.4,8.7-50.1c0.2-1.2,1.9-3.1,2.8-3
			c1.5,0.1,3.9,1.4,4.1,2.4C777.5,585.3,780.2,606.2,782.8,627.1z"/>
		<path fill="#152942" d="M784.2,497.3c6.2-2.5,12.4-5,18.6-7.5c0.1,0.1,0.2,0.3,0.3,0.4c-0.1,0.6-0.2,1.2-0.3,1.9
			c0.3,3.2,0.6,6.5,0.9,9.7c-8.7,5.1-17.1,10.6-27.8,10.2c0.6-1,1.3-1.9,1.9-2.9c0.1-0.2-0.4-0.7-0.6-1c-0.4,1.3-0.9,2.6-1.3,3.9
			c-2.7,1.1-7.1,3.9-7.9,3.1c-2.8-2.8-3.8-6.7,2.2-7.8c-1.1-1.1-2.2-2.2-3.3-3.3l0,0c2.4-9,9.6-5.2,15.1-5.7c-0.3,0.3-0.7,0.7-1,1
			c1,0.2,1.9,0.5,2.9,0.7c0.3,1,0.7,2,1,3c0.6,1.3,1.2,2.6,1.8,3.9c0.4,0.1,0.8,0.1,1.2,0.2c0.2,0,0.3,0.1,0.5,0.1
			c-0.1-0.1-0.2-0.2-0.4-0.3c-0.4-0.3-0.9-0.6-1.3-0.9c-0.6-1-1.1-2.1-1.7-3.1c-0.3-1-0.7-2-1-3c0-0.7,0-1.3,0-2c0,0,0,0,0,0
			c0.6-0.2,1.3-0.3,1.9-0.5C785.3,497.4,784.8,497.4,784.2,497.3z M777.3,505.5c-0.2,0-0.4,0-0.6,0c0.1,0.1,0.2,0.2,0.3,0.2
			C777,505.7,777.2,505.6,777.3,505.5z"/>
		<path fill="#CEDD80" d="M732,582c-5-2-10-4-15-6c5.1-0.3,10.2-0.7,15.3-1C732.2,577.4,732.1,579.7,732,582z"/>
		<path fill="#152942" d="M763,518.3c-1.6-0.9-4.1-1.5-4.5-2.8c-0.8-2.4-2.6-6,2.3-6.8C761.5,511.9,762.2,515.1,763,518.3z"/>
		<path fill="#152942" d="M812.1,486.3c0.4,3.3,0.8,6.7,1.3,10c-1.8-2.7-3.6-5.4-5.4-8.1l-0.3-0.4c1.4-0.6,2.7-1.3,4.1-1.9
			C811.9,486,812,486.1,812.1,486.3z"/>
		<path fill="#AAC2D0" d="M803.8,501.8c-0.3-3.2-0.6-6.5-0.9-9.7C803.2,495.4,803.5,498.6,803.8,501.8z"/>
		<path fill="#152942" d="M819.8,482.8c1.1,0.1,3,0.1,3,0.3c0.1,1.7-0.1,3.5-0.2,5.2c-0.9-1.7-1.7-3.5-2.6-5.2L819.8,482.8z"/>
		<path fill="#CEDD80" d="M732,582c0.1-2.3,0.2-4.6,0.3-6.9c0,3.3,0,6.5,0.1,9.8C732.2,583.9,732.1,583,732,582z"/>
		<path fill="#152942" d="M733.1,594c-0.2-2-0.3-4-0.5-6C732.8,590,733,592,733.1,594z"/>
		<path fill="#AAC2D0" d="M783.9,498c0,0.7,0,1.3,0,2c0,0,0,0,0,0c-1-0.2-1.9-0.5-2.9-0.7c0.3-0.3,0.7-0.7,1-1
			C782.7,498.2,783.3,498.1,783.9,498z"/>
		<path fill="#152942" d="M811.8,485.9c0.7-0.2,1.4-0.4,2.1-0.5c-0.6,0.3-1.2,0.6-1.8,0.9C812,486.1,811.9,486,811.8,485.9z"/>
		<path fill="#152942" d="M820,483.1c-0.6,0.3-1.1,0.5-1.7,0.8c-0.1,0-0.3-0.4-0.4-0.6c0.6-0.2,1.2-0.3,1.9-0.5
			C819.8,482.8,820,483.1,820,483.1z"/>
		<path fill="#AAC2D0" d="M784.2,497.3c0.6,0.1,1.1,0.1,1.7,0.2c-0.6,0.2-1.3,0.3-1.9,0.5C784,497.7,784.1,497.5,784.2,497.3z"/>
		<path fill="#152942" d="M767,504c-0.3-0.1-0.6-0.1-0.9-0.2c0.1-0.1,0.2-0.3,0.2-0.4C766.5,503.6,766.7,503.8,767,504L767,504z"/>
		<path fill="#152942" d="M808,488.1c-0.4,0.2-0.8,0.4-1.2,0.6c0,0-0.2-0.2-0.3-0.3c0.4-0.2,0.8-0.4,1.2-0.6
			C807.8,487.8,808,488.1,808,488.1z"/>
		<path fill="#152942" d="M802.8,489.8c0.5-0.1,1-0.2,1.5-0.3c-0.4,0.2-0.8,0.5-1.2,0.7C803,490.1,802.9,490,802.8,489.8z"/>
		<path fill="#AAC2D0" d="M783.5,628.1c-0.2-0.3-0.5-0.7-0.7-1C783.1,627.5,783.3,627.8,783.5,628.1z"/>
		<path fill="#CEDD80" d="M737.1,464.5c-1.1,8.7-2,16.1-3,23.5c-2.6-5.5-7.1-11-7.2-16.6c-0.1-4.2,5.5-8.4,8.6-12.7
			C736.1,461.1,736.8,463.4,737.1,464.5z"/>
		<path fill="#D3E6C3" d="M225.8,486.7c-3.2,0.5-6.4,0.9-9.6,1.4c-9.5-13.4,7.4-17,9.7-25.9c0.1,7.3,0.2,14.6,0.2,21.9
			C226,484.9,225.9,485.8,225.8,486.7z"/>
		<path fill="#142C47" d="M213,513.9c-1.2-0.1-3.3-0.6-3.4-0.3c-1.2,3.4,6.4,8.2,0,9.5c-2.4,0.5-5.2-8.4-3.1-14.2
			c0.2-0.4-0.9-1.3-1.4-1.9C207.7,509.4,210.3,511.7,213,513.9z"/>
		<path fill="#AAC2D0" d="M226.1,484.1c-0.1-7.3-0.2-14.6-0.2-21.9C226,469.5,226.1,476.8,226.1,484.1z"/>
		<path fill="#142C47" d="M216,516.5c-1-0.8-1.9-1.6-2.9-2.5C214.1,514.9,215.1,515.7,216,516.5z"/>
		<path fill="#142C47" d="M205,507c-0.3-0.3-0.6-0.6-0.9-0.9C204.4,506.4,204.7,506.7,205,507z"/>
		<path fill="#142C47" d="M204,506c-0.4-0.3-0.7-0.5-1.1-0.8C203.3,505.5,203.6,505.8,204,506z"/>
		<path fill="#142C47" d="M407.5,526.5c-2-4.6-3.9-8.5-5.5-12.5c-0.1-0.3,1.6-1.3,2.5-2c2.1,3.5,4.4,6.9,6.3,10.5
			C411,523,409,524.7,407.5,526.5z"/>
		<path fill="#142C47" d="M423.9,532.7c-2.8,2-4.5,4.2-5.9,4c-1.5-0.2-3.4-2.5-3.7-4.1c-0.2-0.9,2.3-3.3,3.7-3.4
			C419.5,529.1,421.1,531,423.9,532.7z"/>
		<path fill="#152942" d="M412.1,539.6c1.3,1.8,2.1,3.1,3,4.3c-1.4,0.9-3,2.8-4.1,2.5c-1.5-0.4-2.6-2.4-3.9-3.7
			C408.5,541.9,409.8,541,412.1,539.6z"/>
		<path fill="#152942" d="M207.5,546.1C207.5,546.1,207.4,546.1,207.5,546.1c0.1-1.7,0.2-3.5,0.4-5.2c0,0,0.1,0.1,0.1,0.1
			c1.7,0,3.3,0,5,0l0.1,0.1c-0.3,1.7-0.7,3.4-1,5.1c0,0,0,0,0,0C210.6,546.1,209.1,546.1,207.5,546.1z"/>
		<path fill="#152942" d="M218.9,530.2c0.3,0.3,0.6,0.6,1,0.9c0.1,1.6,0.2,3.3,0.2,4.9c0,0-0.1,0.1-0.1,0.1
			c-1.7-0.3-3.5-0.6-5.2-0.9c0,0,0.1-0.1,0.1-0.1c0-1.4,0-2.7,0-4.1l0.1-0.1C216.4,530.7,217.6,530.4,218.9,530.2z"/>
		<path fill="#142C47" d="M212.1,546.1c0.3-1.7,0.7-3.4,1-5.1C216.7,543.5,215.7,545,212.1,546.1z"/>
		<path fill="#142C47" d="M214.8,535.1c1.7,0.3,3.5,0.6,5.2,0.9C217.9,537.9,215.8,539.6,214.8,535.1z"/>
		<path fill="#142C47" d="M207.9,540.8c-0.2,1.7-0.3,3.5-0.5,5.2C203.7,543.9,205.3,542.3,207.9,540.8z"/>
		<path fill="#142C47" d="M207.5,546.1c1.5,0,3.1,0,4.6,0C210.6,548.5,209,549.6,207.5,546.1z"/>
		<path fill="#142C47" d="M220.1,536c-0.1-1.6-0.2-3.3-0.2-4.9C220,532.7,220,534.4,220.1,536z"/>
		<path fill="#142C47" d="M218.9,530.2c-1.3,0.3-2.6,0.5-3.9,0.8C216.4,530.7,217.6,530.4,218.9,530.2z"/>
		<path fill="#142C47" d="M213,540.9c-1.7,0-3.3,0-5,0C209.7,540.9,211.3,540.9,213,540.9z"/>
		<path fill="#142C47" d="M215,531c0,1.4,0,2.7,0,4.1C215,533.7,215,532.4,215,531z"/>
		<path fill="#142C47" d="M802,712c6.8-5.4,14-9.4,23.1-6c3.2,4.1,11.2,4.1,10,11.9c-10.4,1.7-20.8,2.7-30.9-1.8
			C803.5,714.6,802.7,713.3,802,712z"/>
		<path fill="#AAC2D0" d="M694.3,575.6c1.9,0.6,3.9,1.3,5.8,1.9c-0.3,0.2-0.6,0.5-0.8,0.5c-1.9-0.5-3.9-1.1-5.8-1.7
			C693.9,576.1,694.1,575.8,694.3,575.6z"/>
		<path fill="#AAC2D0" d="M693.7,576.3c-0.3-0.3-0.7-0.6-1-1c0.2-0.2,0.5-0.5,0.7-0.7c0.3,0.3,0.7,0.7,1,1
			C694.1,575.8,693.9,576.1,693.7,576.3z"/>
		<path fill="#142C47" d="M605.9,665.6c-0.3,1.5-0.7,2.9-1,4.4C605.2,668.5,605.6,667,605.9,665.6z"/>
		<path fill="#152942" d="M723.8,540.2c-1.2,0.2-3.2,0.9-3.3,0.7c-2-4.2-3.8-8.5-5.4-12.9c-0.2-0.7,0.9-1.8,1.4-2.7
			C718.6,529.6,720.7,533.8,723.8,540.2z"/>
		<path fill="#142C47" d="M775.9,512c0.4-1.3,0.9-2.6,1.3-3.9c0.2,0.3,0.7,0.8,0.6,1C777.3,510.1,776.6,511.1,775.9,512
			C776,512,775.9,512,775.9,512z"/>
		<path fill="#AAC2D0" d="M785,503c0.6,1,1.1,2.1,1.7,3.1c0.1,0.3,0.1,0.6,0.1,0.8C786.1,505.6,785.5,504.3,785,503L785,503z"/>
		<path fill="#AAC2D0" d="M784.9,503c-0.3-1-0.7-2-1-3c0,0,0,0,0,0C784.3,501,784.6,502,784.9,503C785,503,784.9,503,784.9,503z"/>
		<path fill="#142C47" d="M777.3,505.5c-0.1,0.1-0.2,0.2-0.3,0.2c-0.1,0-0.2-0.2-0.3-0.2C776.9,505.5,777.1,505.5,777.3,505.5z"/>
		<path fill="#142C47" d="M788,506.9c0.1,0.1,0.2,0.2,0.4,0.3c-0.2,0-0.3-0.1-0.5-0.1C787.9,507.1,788,506.9,788,506.9z"/>
		<path fill="#142C47" d="M786.7,506.9c0-0.3,0-0.6-0.1-0.8c0.4,0.3,0.9,0.6,1.3,0.9c0,0-0.1,0.1-0.1,0.1
			C787.5,507,787.1,507,786.7,506.9z"/>
	</g>
</g>
</svg>
