<?xml version="1.0" encoding="utf-8"?>
<!-- Generator: Adobe Illustrator 27.5.0, SVG Export Plug-In . SVG Version: 6.00 Build 0)  -->
<svg version="1.1" id="Ebene_1" xmlns="http://www.w3.org/2000/svg" xmlns:xlink="http://www.w3.org/1999/xlink" x="0px" y="0px"
	 viewBox="0 0 1024 1024" enable-background="new 0 0 1024 1024" xml:space="preserve">
<circle fill="#98C21E" cx="517.7" cy="517.5" r="467"/>
<g id="UDVPaG_00000003788309988938616760000012711363216888880817_">
	<g>
		<path fill="#98C21E" d="M956.4,461.9c5.7,64.5,29,132.9,6.2,194.2c-87-91.5-193.2-161.5-277.8-254.4
			c-17.2-53.2-99-113.2-138.9-157.3c-9.9-32.9-58.9-40.7-74-6.7c-8.4,17,15.2,36.2,30.2,47.4c48.1,28.4-88.7-27.3-64,134.8
			c5.9,25.3,26.4,20.2,19.2-17.8c2.1-8.3-5-33.8,4.6-35.5c3.7,0.1,4.5,2.4,4.4,5.5c5.5,31.2-14.2,187.5,14.8,187.2
			c-11.1,14.4-14.3,29.1-4.8,45.3c2.8,10.4,24.4,11,19,20.6c-22.3,6.1-42.7,7.4-54.9,29.6c-22.1-28.2-53.4-48.7-77.6-75.4
			c-22.5-20.1-44.8-46.1-68.9-61.2c0.5-1.9,0.6-3.6-2.1-3.7c-2.1-5.9-8-11-14.3-14.6c-3-6-11.6-0.6-15.3-4.6
			c-4.2,3.4-10.9-1.2-14.4,4.3c-7.4,4.7-13.9,10.3-16.2,19c-7.3,13.5-2.2,11.3-0.6,24.2c0.7,4,6.3,5.4,6.6,10
			c6.3,9.8,17.7,10.6,27.8,13.3c-11.6,7.6-27.3-0.5-38.9,7.8c-16.6,5.4-32.8,19.6-31.2,38.4c3.2,16.7-11.3,52.4,15.9,51.3
			c5.1,6,9.2,13.4,18.6,13.3c7.5,20.5-17.6,135.6,27.2,99.6c21.7,33.4,61.4,59.8,90.3,89.5c37.1,42.5,108.3,29,129.2-22.6
			c6.8,2.6,13.5,5.2,20.4,0.2c23.9,14.8,41.8,38.5,63.7,56.3c23.7,23.2,49.9,44.8,72.2,68.8c-10.5,2.8-21.7,5.4-31.8,8.4
			c-115.9,19.8-186.5-32.4-286.7-94.3c-0.5-1.4-2.7-3.3-5-3.2C-123.3,618.5,117.2,1.5,588.6,83.7
			C788.7,118.6,937.1,255.7,956.4,461.9z M909.7,401.8C873.4,282.6,780,182.1,664.2,136.3c-5.8-2.2-10.5,9.3-0.4,12.2
			c112,43.8,199.3,142.1,234.9,256.5C900.4,411.5,910.3,408.5,909.7,401.8z"/>
		<path fill="#173556" d="M297,891.6c0.6,0.4,14.2,16.9,14.8,17.3C311.3,908.5,297.6,892.1,297,891.6z"/>
		<path fill="#738F2B" d="M498.7,297.5c0-0.7,0-1.4,0-2.1c1.4,0,2.7,0.1,4.1,0.1c19.3,0.5,32.9-8.7,40.8-26.4
			c3.7-8.2,2.2-16.4,2.4-24.7c8.1,6.3,14.6,14.5,22.6,20.7c11,8.5,20.2,18.8,30.4,28.1c22.7,20.9,45,42.3,68.1,62.9
			c11.5,10.3,17.2,23.3,20.9,37.5c0.8,3.1,2.2,5.4,4.3,7.6c31.7,31.6,64.9,61.6,98,91.7c21.3,19.3,42,39.3,63,59
			c24.1,22.6,48.7,44.7,72.2,67.9c12.3,12.2,26.8,22.2,37.1,36.4c-3.2,14.8-9.8,28.5-15.3,42.4c-16.4,41.2-40.7,77.8-67.3,112.9
			c-11.6,15.3-25.6,28.6-40.2,41.1c-5.8-4-11.4-8.2-16.4-13.2c-11-11.2-22.7-21.6-34.8-31.7c-6.2-5.2-12.3-10.6-18.3-16
			c-3.5-3.2-3.9-5.5-2-8.4c10.8,3.1,17.3-8.9,17.5-19.7c0.2-17.4,2.1-28.5,2.1-45.9c0.1-34.7-13.1-78.7-10.9-113.4
			c3.2,0,24.2,7.7,27.4,7.7l5.8,7.1c0,11.3-1.8,15.2-1.7,26.5c0,3.2-5.7,1.6-1.9,3.3c0.5,0.1,2.7,4.3,3.1,4.5
			c3.2,4.6-1.3-0.7,3.5-4.7c1.1-0.3,2.4,0.3,3.5,0c2.4-2.3-4.3-0.4-4.7-5.9c0.7-11.4,6.9-19.5,8.4-30.9c2.3-5.3-2.9-8.8-5.8-13.3
			c-0.1-0.9-1.6-2.3-1.7-3.2c-0.3-1.5-12.3-4.6-13.7-4.8c-3.6-6.9-2.9-4.4-9.6-8c-32-16.9-31.9-19.1-63.9-0.6
			c-12.5,7.3-37.6,10.7-37.6,25.7c0.1,13.8,0.9,29.5,0.7,43.3c-11.4,5.1-24.7,3.9-36.9,3.2c-12.6-0.7-25-2.9-34.7-11.3
			c-16.5-14.2-31.9-29.6-48.3-44c-9.3-8.2-16.5-18.7-27.7-24.8c-3.1-5.8-6.3-11.4-11.1-16c10.2-1,17.6-10.1,17.6-22.3
			c0.2-53.9,0.2-107.7,0.4-161.6c0-3.4-1.2-7.5,4.6-7.5c5.9,0,4.5,4.3,4.5,7.5c0.1,16.3,0.1,32.6-0.1,49c0,2.9,0.5,5.3,2.3,7.5
			c4.7,6,10.6,8.1,18,6c7.9-2.3,11.3-8.1,11.3-16c0.1-20.9-0.3-41.9,0-62.8c0.4-29.9-21.3-53.7-49.2-58.6
			C525.9,297.2,512.3,298.5,498.7,297.5z M729.1,548 M779.5,496.1l-0.1,0 M777.9,549.6c0.5-0.5,1-1,1.5-1.5"/>
		<path fill="#738F2B" d="M495.4,625.2c0.7-1.3,1.4-2.7,2.1-4c3.2,0.1,6.4,0,9.6,0.2c12,0.4,20.9-5,27.8-14.3c4.1-2,6.9-0.4,9.9,2.7
			c27.5,27.7,56.4,53.9,85,80.4c28.8,26.7,57.2,53.8,85.8,80.7c2,1.8,6.9,2.4,9.9,2.8c0.5,1.8,0.6,3,2.1,3.9
			c15.7,13,12.9,32.5,12.8,50.4c-0.2,32.3-0.1,64.6-0.1,96.9c-15.1,10.5-31.8,17.6-48.7,24.3c-18,7.1-36.4,13.1-54.6,19.6
			c-1.4,0-2.8,0.1-4.2,0.1c-2.1-5.8-7.8-8.1-11.8-11.9c-20.1-18.9-40-38.1-60.4-56.9c-18.1-16.7-36.4-33.3-53.9-50.6
			c-2.6-2.6-6.5-3.9-9.7-5.7c1-3.8,3.4-7,3.9-11.3c2.2-19.1,0.1-38.3,1.3-57.3c0.5-0.5,1-1,1.5-1.5c7.3-1.5,10.2,1,9.9,8.9
			c-0.5,17.1,0,34.2-0.2,51.3c0,5.6,2.4,9.3,7.3,11.6c4.8,2.3,9.5,1.8,13.9-1.2c4.9-3.3,6.7-7.8,6.7-13.9
			c-0.1-33.7,0.1-67.3,0.1-101c2.4-14.7,2.4-29.3,0-44c0-1.1,0-2.2,0-3.3c1.6-2.2,3.2-4.3,4.8-6.5c4.6-0.5,5,2.4,5.5,6.1
			c1.2,9.7,1.2,19.5,1,29.3c-0.1,5.6,0.6,10.8,6.5,12.6c5.5,1.7,11.4,2.1,15.3-3.8c4-1.6,4.3-5.2,4.3-8.8
			c0.1-13.8,0.5-27.6-0.2-41.4c-0.3-6.7-0.9-14.1-7.8-18.5c-10.3-15-24.4-23.4-42.6-24.7c-0.5,0-1.1-0.1-1.6-0.1
			C516.2,624.4,505.8,625.3,495.4,625.2z"/>
		<path fill="#7B9C2B" d="M740.4,924.8c0-32.3-0.1-64.6,0.1-96.9c0.1-17.9-2.5-39.6-18.2-52.7c17.7,6,23.1,3.7,23.2-15.2
			c0-15.2,3.3-28.3,3.3-43.6c0-4.1,1-7.9,6-8.1c5.7-0.2,5.4,4.2,5.4,8c0,16.3,4.2,30.8,3.7,47.1c-0.3,7.8-2.2,15.5,4.5,19.7
			c-1.9,2.9-1.5,5.1,2,8.4c6,5.5,12.1,10.8,18.3,16c12,10.1,23.7,20.5,34.8,31.7c5,5,10.6,9.2,16.4,13.2
			c-6.3,9.7-15.6,16.3-24.2,23.6C795,893,773,907.8,750,921C747,922.8,744.2,925.2,740.4,924.8z"/>
		<path fill="#009B58" d="M984.5,531.7c-1-1.6-1-3.1,0.1-4.6C984.6,528.6,984.6,530.1,984.5,531.7z"/>
		<path fill="#009B58" d="M983.7,538.5c0.2-0.5,0.4-1.1,0.6-1.6C984.1,537.4,983.9,537.9,983.7,538.5z"/>
		<path fill="#738F2B" d="M260.4,569c1.7-0.9,3.4-1.9,5.1-2.8c2-0.8,4.6-0.5,5.5-3.1c3.2-1.3,6.4-2.6,9.6-3.9c1.9,0.3,3-0.5,3.4-2.4
			c1.4-1.4,2.7-2.7,4.1-4.1c1.9-0.5,3.1-1.5,2.8-3.6c0.7-1.2,1.5-2.4,2.2-3.6c1.4-0.1,1.1-0.7,0.3-1.4c2.7-7.7,3.8-15.6,1.6-23.6
			c3.1-0.2,5.8,0.4,8.2,2.7c19.6,19.1,40.3,37,59.7,56.3c19.6,19.4,39.7,38.5,60.6,56.6c6.7,5.7,12.7,11.3,17,18.8
			c-4.3,18-1.3,36.3-2.2,54.4c-0.3,6,0.4,12.1,6.7,14.4c6.8,2.4,13.5,1.4,17.8-5.7c1.4-0.9,1.5-2,0.3-3.2c0-10.9,0-21.8,0-32.7
			c1.5-4.8,5.3-5.3,9.5-5.1l0.2,0.2c0.1,0.6,0.1,1.2,0.2,1.8c0.4,52.7,0.7,105.4,1.1,158.2c-0.1,0.2-0.4,0.5-0.3,0.6
			c0.2,0.4,0.5,0.6,0.8,1c0.7,1.6,1.4,3.2,2.1,4.8c-4.4,3.8-5.7,9.5-8.6,14.2c-7.8,12.3-17.6,21.4-31.1,27.4
			c-17,7.5-33.2,8.1-51.6,4.2c-16.4-3.5-26.7-13.2-37.8-23.2c-12.9-11.6-26.1-22.9-38.3-35.2c-15.6-15.8-31.8-31-48.8-45.4
			c-2.9-2.5-3.1-5.5-3.2-8.8c0.2-0.7-1.5-0.4-1.2-1.1L255,775l-1.2-2.4c2-1.3,1.8,1.6,0,0c-0.3-0.3,2-2.7,3-2.5
			c-0.1-4.8-2.7-12-2.8-16.7c2.1-14.4-3.8-29.3,3.9-42c0.5-1,2-0.2,2.5-1.2c1.6,0,3.3,0,4.9,0c0.4,1.4,1,2.3,2.6,1.6l0.5,0.2l0,0.5
			c-0.8,0.8-0.6,1.6,0.2,2.2c0.2,3.5,8.5,6.1,8.5,9.6c0.4,17.2-7.1,34.5-5.3,51.7l1.8,1.2l0.4,1c1.4,1.5-1.1,2.1,0.3,3.6l1.3-1.3
			l-0.7,1.6c1.4,0.6,2.7,1.1,4.1,1.7l0.4-0.9l0.2,1.1c2.3-0.1,4.6-0.2,6.9-0.4l-0.4-1.9l0.4-1.5c1.4-0.9,0.1,1.1,1.6,0.1l-0.2-2.9
			c0,0-2-0.4-2-0.4c1.1-1.9-0.1,0.6,0.9-1.3c0,0-4.1-1.3-4.1-1.3l6.2-0.6l-2.2-1.2c0.2-0.1-1.6-1.8-1.4-1.9
			c-0.2-0.4,5.3-1.8,5.1-2.2c0-1.1-2.4,0.3-2.4-0.8c0.2-0.1,1.3-0.4,1.3-0.5c-0.1-0.4,2.6-1.6,2.4-2c-0.9-32.4,4-63,4.4-95.4l0-0.1
			c0-2.9,0-5.7,0-8.5c0.3-7.2-11.2-17.7-10.9-24.8c4.6-3.9,3.1-16,2.1-20.3c-1.7-7.5,12.8,2.1,18.6,4c0.7,1.6,0.7,3.2,0,4.8
			c-0.2,0.2-0.6,0.4-0.5,0.5c0.1,0.4,0.3,0.8,0.5,1.2c0.3,9.8,0.7,19.6,1,29.5c-0.3-0.2-0.7-0.2-1,0c-0.2,0.2-0.5,0.4-0.5,0.5
			c0.1,0.4,0.3,0.8,0.5,1.2c0.6,0.8,1.1,1.6,2.3,1.1c1.2,0.8,2.4,1.6,3.5,2.4c6.7,5.1,11.8,2.8,16.2-3.3c0.6-0.9,1.1-1.8,1.7-2.8
			l0.4-0.1l-0.2-0.3c0.2-6.2,0.4-12.3,0.6-18.5c2-1.6,2-3.3,0-4.9c-0.2-6.2-0.4-12.3-0.6-18.5c1.4-8.3-1.2-15.3-7-21.3
			c-0.5-0.4-1-0.8-1.5-1.2c0.9-2.4-1.4-2.9-2.5-4.1c-2.2-1.7-4.5-3.4-6.7-5.1c-3.7-5.3-9.2-7.1-15.2-7.8c-1.6-0.4-3.2-0.8-4.8-1.2
			c-2.9-1.9-5.9-3.5-9.6-1.9c-1.8-0.2-3.6-0.4-5.4-0.7c-2.9-0.9-5.8-0.8-8.7-0.3C265.7,569.3,263.1,569.1,260.4,569z"/>
		<path fill="#1A2933" d="M498.7,297.5c13.5,1,27.1-0.2,40.7,2.1c27.9,4.8,49.6,28.7,49.2,58.6c-0.3,20.9,0.1,41.9,0,62.8
			c0,7.8-3.4,13.6-11.3,16c-7.3,2.2-13.3,0-18-6c-1.7-2.2-2.3-4.6-2.3-7.5c0.2-16.3,0.2-32.6,0.1-49c0-3.2,1.4-7.5-4.5-7.5
			c-5.8,0-4.6,4.1-4.6,7.5c-0.1,53.9-0.2,107.7-0.4,161.6c0,12.2-7.4,21.3-17.6,22.3c-0.1-0.7-0.1-1.3-0.2-1.9
			c-0.2-2.3-1.2-4.5-3.5-5c-11.8-2.7-11.8-11.4-11.3-20.8c0.4-7.3,0.3-14.7,0-22c-0.3-5.9,1.6-11.9-1.4-17.6c-0.7-1.6-0.7-3.2,0-4.8
			c1.7-1.8,1.6-3.5-0.5-5c-9.1-2.5-10.3-2.2-11.7,3.5c-1.6,18.7-0.5,37.5-0.8,56.2c-0.1,4.5-1.3,7.8-5,10.2
			c-5.7,1.2-9.5,5.7-14.4,8.2c-11-4.2-14.6-9.2-14.6-20.7c-0.1-53.3-0.2-106.7-0.2-160c0-2.2,0-4.4,0-6.5c0-3.1-0.7-5.4-4.4-5.5
			c-3.7-0.1-4.6,2.2-4.6,5.3c0,10.1,0,20.1-0.1,30.2c0,7.1,0.3,14.2-0.2,21.2c-0.5,7.7-8.1,13.9-16.3,13.9
			c-7.5-0.1-14.8-6.5-14.8-14.3c-0.2-22.9-0.8-45.7,0.3-68.5c1.4-28.4,21.5-49.4,49.9-54.1C483.7,299.1,491.2,298.4,498.7,297.5z"/>
		<path fill="#10AE8D" d="M463.1,682c0,10.9,0,21.8,0,32.7c-0.1,1.1-0.2,2.1-0.3,3.2c-4.2,7.1-10.9,8.1-17.8,5.7
			c-6.4-2.3-7-8.3-6.7-14.4c0.9-18.1-2.2-36.4,2.2-54.4c4.7-2.1,4.5-7.6,7.7-11c9.9-10.7,23.5-12.4,36.4-15.7
			c3.6-0.9,7.4-1.3,10.8-3c10.4,0.1,20.8-0.8,31.1,1.1c0.5,0,1.1,0.1,1.6,0.1c18.2,1.3,32.4,9.7,42.6,24.7
			c1.6,5.2,4.2,10.2,4.6,15.5c1.2,17.7,0.3,35.5-1,53.2c-3.9,5.9-9.8,5.5-15.3,3.8c-5.9-1.8-6.6-7.1-6.5-12.6
			c0.2-9.8,0.3-19.5-1-29.3c-0.5-3.7-0.8-6.5-5.5-6.1c-5.2-0.5-5.2,2.8-4.8,6.5c0,1.1,0,2.2,0,3.3c0,14.7,0,29.3,0,44
			c-0.1,33.7-0.3,67.3-0.1,101c0,6-1.8,10.6-6.7,13.9c-4.4,3-9.1,3.5-13.9,1.2c-4.8-2.3-7.3-6-7.3-11.6c0.1-17.1-0.4-34.2,0.2-51.3
			c0.3-7.9-2.6-10.4-9.9-8.9c-0.5,0.5-1,1-1.5,1.5c-1.2,19.1,1,38.2-1.3,57.3c-0.5,4.3-2.9,7.4-3.9,11.3c-6.8,5-13.6,2.4-20.4-0.2
			c-0.7-1.6-1.4-3.2-2.1-4.8c0-0.5-0.2-1-0.4-1.5c-0.4-52.7-0.7-105.4-1.1-158.2c0.1-0.2,0.4-0.4,0.4-0.6c-0.1-0.4-0.4-0.8-0.6-1.2
			c0,0-0.2-0.2-0.2-0.2c-1.2-3.7-4.1-3.2-6.7-2.4C462.3,675.7,462.7,679,463.1,682z"/>
		<path fill="#FFFFFF" d="M329.7,655.2c-40.9,33.5-8.9-50.5-33.6-35.4c-7.5,24.9,18.4,186.4-21.1,162.3c-18-9.6,9.3-79.2-17.1-70.8
			c-3,21.7,2,44.2-0.8,65.3c-8.9,10.3-26.8,9.1-26.3-7.7c-0.8-50.3,1.3-100.4-1.3-150.6c-16.7-12.7-7.3,27.2-10,35.9
			c-20.9,24.1-22.7-10.6-24.2-26.5c-8-63.2,76.1-69.4,116.8-46.3C334.3,597,330.6,631.4,329.7,655.2z"/>
		<path fill="#1A2933" d="M545.9,244.3c-0.2,8.3,1.3,16.5-2.4,24.7c-7.9,17.7-21.5,26.9-40.8,26.4c-1.4,0-2.7-0.1-4.1-0.1
			c-3.8-4.8-10.1-5.6-14.9-9.1c-15-11.2-20.4-31.7-11.9-48.7c9-18.2,26.7-25.7,45.4-20.8C532.4,220.8,540.3,231.1,545.9,244.3z"/>
		<path fill="#AACC60" d="M909.7,401.8c0.2,4.1-2,5.5-4.7,6.5c-3.3,1.2-5.2-0.4-6.3-3.3c-2.9-7.9-6-15.7-8.6-23.7
			c-11-33.3-28.6-62.9-48.7-91.4c-16.3-23.1-34.9-44.1-55-64c-13.2-13.1-28.9-22.8-43.3-34.2c-23.9-19-51.5-31.3-79.3-43.1
			c-4.7-2-8.2-4.8-4.4-10.5c1.1-1.7,2.6-2.7,4.8-1.7c17.8,7.7,35.4,15.4,52.4,25.1c23.5,13.4,44.7,29.4,65.1,46.4
			c18,15.1,35,31.4,49.2,50.5c7.2,9.8,16,18.4,22.7,28.7c7.9,12.3,14.9,25.1,22.5,37.5c13.3,21.7,23.1,44.7,31.2,68.7
			C908.3,396.1,909,399.3,909.7,401.8z"/>
		<path fill="#10AE8D" d="M529.8,556.4c0.1,0.6,0.1,1.3,0.2,1.9c4.8,4.6,8.1,10.2,11.1,16c3.7,12,1.5,22.9-6.1,32.7
			c-6.9,9.3-15.9,14.8-27.8,14.3c-3.2-0.1-6.4-0.1-9.6-0.2c-6.8-5.8-16.4-7.7-21.2-16.6c-7.7-14.4-8.2-28,2.3-41.2
			c1-1.3,1.7-2.8,2.5-4.2c5-2.5,8.7-7,14.4-8.2c7.4-0.2,14.7,0.7,22.1-0.8C522.5,550.7,525.2,555.4,529.8,556.4z"/>
		<path fill="#FFFFFF" d="M288.1,552.7c-25.5,27.4-68.2-0.1-56.3-34.1c7.4-24.6,42.3-29.3,57.3-9c-1.5,2.7,1.7,3.3,2.9,4.9
			c-0.8,2.1,0.6,2.9,2.1,3.7C299.6,530.3,294.2,543.8,288.1,552.7z"/>
		<path fill="#738F2B" d="M219.5,654.1c0.2-1,0.4-2.1,0.5-3.1c0.2-0.1,0.5-0.3,0.5-0.4c-0.1-0.4-0.3-0.8-0.4-1.2
			c-0.7-1.7-0.6-3.4,0.1-5c1.8-3.2,1.7-6.4,0.1-9.6c-0.9-5.6-1.2-11.2,0.1-16.8c3,0.1,6.1,0.2,9.1,0.3c2,19.6,1.2,39.2,0.4,58.8
			c-9.4,0.1-13.5-7.4-18.6-13.3c0.2-0.5,0.2-1,0-1.5c2.7-1.8,5.4-3.5,7.1-6.4C218.7,655.3,219.1,654.7,219.5,654.1z"/>
		<path fill="#AACC60" d="M211.2,662.2c0.2,0.5,0.3,0.9,0,1.5c-12.1,0-16.3-4-16.3-15.8c0-6.8,0.2-13.5,0.4-20.3
			c3.3,5.7,1.1,11.9,1.3,17.8C197,657.4,199.2,660.3,211.2,662.2z"/>
		<path fill="#AACC60" d="M218.4,577.9c-5.5,4.3-11,8.6-16.5,12.9C206,584.8,211.1,580,218.4,577.9z"/>
		<path fill="#AACC60" d="M244.9,570.1c-5.8,2.7-12.1,3.2-18.3,3.9C232.2,570.5,238.3,569.1,244.9,570.1z"/>
		<path fill="#AACC60" d="M198.4,598.1c0,5-1,9.8-3.1,14.3C194.6,607.2,194.9,602.3,198.4,598.1z"/>
		<path fill="#AACC60" d="M230.2,522.7c0,4.4,0,8.9,0,13.3C226.9,531.6,226.8,527.2,230.2,522.7z"/>
		<path fill="#AACC60" d="M242.8,557.4c4.7,0.9,8.3,4.1,12.6,6C250,563.8,245.9,561.5,242.8,557.4z"/>
		<path fill="#AACC60" d="M261.1,564.5c3.3-0.5,6.6-1,9.9-1.5c-0.9,2.6-3.5,2.4-5.5,3.1C264,565.6,262.1,566.2,261.1,564.5z"/>
		<path fill="#AACC60" d="M256.7,496.8c-2.5,2.3-5.6,2.6-8.7,2.8C250.3,496.8,253.2,496,256.7,496.8z"/>
		<path fill="#AACC60" d="M277.7,499.9c-3,0.5-5.2-0.9-7.2-2.8C273.5,496.6,276.1,496.9,277.7,499.9z"/>
		<path fill="#AACC60" d="M237.7,552.9c2.1,0.1,3.8,0.5,3.5,3.2C239.3,555.8,238.4,554.5,237.7,552.9z"/>
		<path fill="#AACC60" d="M290.7,513.2c-1.4-0.8-2.6-1.8-1.6-3.7C291.4,510,291.2,511.6,290.7,513.2z"/>
		<path fill="#AACC60" d="M294,518.2c-1.5-0.8-2.9-1.6-2.1-3.7C294.6,514.6,294.5,516.3,294,518.2z"/>
		<path fill="#AACC60" d="M231.1,542.8c1.8,0.2,3,0.9,1.9,2.9C231.8,545.1,231,544.3,231.1,542.8z"/>
		<path fill="#AACC60" d="M263.1,496.4c-0.7,1-1.4,1-2.1,0c0.5-0.4,0.9-0.7,1.4-1.1C262.6,495.7,262.8,496,263.1,496.4z"/>
		<path fill="#AACC60" d="M232.4,517.9l-0.1,0.6c0,0-0.6,0.1-0.6,0.1c0,0,0.1-0.6,0.1-0.6L232.4,517.9z"/>
		<path fill="#1A2933" d="M768.3,783.2c-17-15.7-4.3-45.7-8.1-66.8c-25.8-42.3,9.3,101.3-37.8,58.8c-5.1-20.7,11.5-175.9-9.3-161.7
			c3.2,18.2-3.7,70.6-25.5,35.7c-27.4-116.5,158-118.6,137.5-5c-4.9,11.9-8.7,17.7-22.5,11.6c-2.3-13.3,4.1-31.9-3.5-42.3
			C764.6,603.1,816.2,798,768.3,783.2z"/>
		<path fill="#7B9C2B" d="M686.7,644.9c2.2,8.8,9.2,16,17.6,15.6c7.1,1.7,9.6,10.1,16.7,11.7c0,1,0,2.1,0,3.1
			c-0.2,0.2-0.5,0.4-0.5,0.5c0.1,0.4,0.3,0.8,0.5,1.2c1.8,2,4.6,0.7,4.6,3.1c0,30.4-3.3,64.7-3.3,95c-3-0.3-4.7-2.6-6.6-4.4
			c-28.6-26.9-57-54-85.8-80.7c-28.6-26.5-57.5-52.7-85-80.4c-3-3-5.8-4.7-9.9-2.7c7.6-9.9,9.8-20.8,6.1-32.7
			c11.2,6.1,18.4,16.6,27.7,24.8c16.3,14.4,31.8,29.8,48.3,44c9.7,8.4,22.2,10.6,34.7,11.3C664.1,655,675.2,650,686.7,644.9z"/>
		<path fill="#1A2933" d="M750.5,486.3c55.7-3.5,45.4,90.4-11.3,69.7C711.2,537.2,716.7,491.7,750.5,486.3z"/>
		<path fill="#05A969" d="M821.7,592.8c-0.9-0.7-1.8-1.5-2.8-2.2C820.3,590.8,821.4,591.3,821.7,592.8z"/>
		<path fill="#05A969" d="M779.5,547.9c0.5-0.6,1-1.1,1.4-1.7C780.5,546.8,780,547.4,779.5,547.9z"/>
		<path fill="#05A969" d="M780.9,497.8c-0.5-0.6-1-1.1-1.5-1.7C780,496.7,780.4,497.2,780.9,497.8z"/>
		<path fill="#05A969" d="M785.7,504.4c-0.5-0.6-0.9-1.3-1.4-1.9C784.8,503.2,785.3,503.8,785.7,504.4z"/>
		<path fill="#05A969" d="M737.3,554.4c0.7,0.5,1.3,1,2,1.6C738.6,555.5,737.9,555,737.3,554.4z"/>
		<path fill="#05A969" d="M776.1,551.1c0.6-0.5,1.1-1,1.7-1.5C777.2,550.2,776.6,550.7,776.1,551.1z"/>
		<path fill="#05A969" d="M777.9,549.6c0.5-0.5,1-1,1.5-1.5C778.9,548.6,778.4,549.1,777.9,549.6z"/>
		<path fill="#05A969" d="M574.4,719.7c1.2-17.7,2.1-35.5,1-53.2c-0.3-5.2-3-10.3-4.6-15.5c6.8,4.3,7.4,11.8,7.8,18.5
			c0.7,13.8,0.2,27.6,0.2,41.4C578.7,714.5,578.4,718.1,574.4,719.7z"/>
		<path fill="#05A969" d="M541.3,729.3c0-14.7,0-29.3,0-44C543.7,700,543.8,714.7,541.3,729.3z"/>
		<path fill="#05A969" d="M541.3,682c-0.4-3.6-0.4-7,4.8-6.5C544.5,677.7,542.9,679.9,541.3,682z"/>
		<path fill="#05A969" d="M502.1,775c0.5-0.5,1-1,1.5-1.5C503.1,774,502.6,774.5,502.1,775z"/>
		<path fill="#05A969" d="M528.1,626.3c-0.5,0-1.1-0.1-1.6-0.1C527.1,626.3,527.6,626.3,528.1,626.3z"/>
		<path fill="#AACC60" d="M329.8,612.9c-2.3-7.1-4.7-14.2-7-21.3C328.6,597.6,331.2,604.6,329.8,612.9z"/>
		<path fill="#AACC60" d="M312.1,581.3c-5.4-2-10.6-4.4-15.2-7.8C303,574.2,308.4,576,312.1,581.3z"/>
		<path fill="#AACC60" d="M292.1,572.3c-3.7,1.7-6.7,0.1-9.6-1.9C286.2,568.8,289.2,570.3,292.1,572.3z"/>
		<path fill="#05A969" d="M463.1,682c-0.5-3-0.8-6.3,2.9-7.5c2.5-0.8,5.5-1.3,6.7,2.4C468.4,676.7,464.7,677.2,463.1,682z"/>
		<path fill="#AACC60" d="M277.1,569.7c-3,1.2-5.9,0.9-8.7-0.3C271.3,568.9,274.2,568.8,277.1,569.7z"/>
		<path fill="#AACC60" d="M288.1,552.7c-0.5-2.3,0.6-3.4,2.8-3.6C291.1,551.2,290,552.2,288.1,552.7z"/>
		<path fill="#AACC60" d="M321.4,590.5c-1.6-0.9-3.4-1.7-2.5-4.1C320,587.6,322.2,588.1,321.4,590.5z"/>
		<path fill="#AACC60" d="M280.6,559.1c0.4-1.9,1.7-2.5,3.4-2.4C283.6,558.6,282.5,559.4,280.6,559.1z"/>
		<path fill="#AACC60" d="M306.9,656c1.7,0.4,1.5,1.6,1.3,2.9c-1.2,0.4-1.7-0.4-2.3-1.2c0-0.6,0-1.1,0-1.7
			C306.3,655.8,306.6,655.8,306.9,656z"/>
		<path fill="#AACC60" d="M293.1,545.4c0.1-0.5,0.2-0.9,0.3-1.4C294.2,544.7,294.5,545.3,293.1,545.4z"/>
		<path fill="#05A969" d="M462.8,717.9c0.1-1.1,0.2-2.1,0.3-3.2C464.3,715.9,464.2,717,462.8,717.9z"/>
		<path fill="#05A969" d="M472.8,677.2c0.2,0.4,0.4,0.8,0.6,1.2c0,0.2-0.3,0.4-0.4,0.6C472.9,678.4,472.9,677.8,472.8,677.2z"/>
		<path fill="#05A969" d="M474.1,837.1c0.2,0.5,0.4,1,0.4,1.5c-0.3-0.3-0.6-0.6-0.8-1C473.7,837.6,473.9,837.3,474.1,837.1z"/>
		<polygon fill="#AACC60" points="296.2,669.8 295.7,669.8 296.2,669.7 		"/>
		<path fill="#AACC60" d="M329.7,655.2l-0.3-0.4c0,0,0.5,0,0.5,0c0,0,0.2,0.3,0.2,0.3L329.7,655.2z"/>
		<path fill="#05A969" d="M305.9,624.9c0,0.6,0,1.1,0,1.7c-0.2-0.4-0.4-0.8-0.5-1.2C305.3,625.2,305.7,625,305.9,624.9z"/>
		<path fill="#738F2B" d="M517.7,550.2c-7.3,1.5-14.7,0.6-22.1,0.8c3.7-2.4,4.9-5.8,5-10.2c0.3-18.7-0.1-43.2,1.5-62
			c8.7-2.8,9.7-6.8,11,2.3c0.4,16.8-0.3,43.8,0,60.6C513.2,545.4,513.5,548.9,517.7,550.2z"/>
		<path fill="#173556" d="M517.7,550.2c-4.2-1.4-4.5-4.8-4.6-8.5c-0.3-16.8-0.7-33.6-1-50.5c0.5,0,1.1-0.1,1.6-0.3
			c3,5.7,1.1,11.7,1.4,17.6c0.3,7.3,0.4,14.7,0,22c-0.5,9.4-0.5,18.1,11.3,20.8c2.3,0.5,3.3,2.7,3.5,5
			C525.2,555.4,522.5,550.7,517.7,550.2z"/>
		<path fill="#173556" d="M513.6,486.1c-0.2-1.7-0.3-3.3-0.5-5C515.2,482.6,515.3,484.3,513.6,486.1z"/>
		<path fill="#05A969" d="M219.5,654.1c-0.4,0.6-0.8,1.2-1.1,1.7C218,654.8,218.4,654.2,219.5,654.1z"/>
		<path fill="#05A969" d="M220.1,649.4c0.1,0.4,0.3,0.8,0.4,1.2c0,0.1-0.3,0.3-0.5,0.4C220,650.5,220.1,649.9,220.1,649.4z"/>
		<path fill="#AACC60" d="M223.6,615.7l-0.3,0.3c0,0-0.3-0.3-0.3-0.3c0,0,0.3-0.3,0.3-0.3L223.6,615.7z"/>
		<path fill="#738F2B" d="M723.6,679c-7.1-1.7-12.2-16.7-19.3-18.4c5.5-7,6.2-11.5,8.5-21.2c-0.5-8.6,0.1-17.2,0.3-25.9
			c2.6-0.1,5.2-0.2,7.8-0.2c2.4,2.8,1.5,6.2,1.5,9.4C722,639.2,725.9,662.5,723.6,679z"/>
		<path fill="#05A969" d="M720.8,613.3c-2.6,0.1-5.2,0.2-7.8,0.2C715.5,608.7,718.1,609.6,720.8,613.3z"/>
		<path fill="#009B58" d="M720.9,677.1c-0.2-0.4-0.4-0.8-0.5-1.2c0-0.1,0.3-0.3,0.5-0.5C720.9,676,720.9,676.5,720.9,677.1z"/>
	</g>
</g>
</svg>
