<?xml version="1.0" encoding="utf-8"?>
<!-- Generator: Adobe Illustrator 27.5.0, SVG Export Plug-In . SVG Version: 6.00 Build 0)  -->
<svg version="1.1" id="Ebene_1" xmlns="http://www.w3.org/2000/svg" xmlns:xlink="http://www.w3.org/1999/xlink" x="0px" y="0px"
	 viewBox="0 0 1024 1024" enable-background="new 0 0 1024 1024" xml:space="preserve">
<g id="mxym7X_00000087409857235019990370000002005587494229732238_">
	<g>
		<path fill="#98C21E" d="M42.8,608.4c-1.7-6.2-4-12.3-4.9-18.7c-2.1-14.8-3.9-29.6-5.2-44.4c-0.5-5.3,0.7-10.7,0.8-16
			c0.2-7.1,0.2-14.3,0.2-21.4c0-6.1-0.2-12.2,0-18.3c0.3-8.2,0.3-16.4,1.5-24.4c2.7-18.4,5-37,9.2-55.1
			c7.4-32.1,17.4-63.4,32.5-92.7c9.9-19.4,20.6-38.5,32-57.1c7.9-12.9,16.9-25.3,26.6-36.9c13.2-15.9,26.7-31.7,41.4-46.1
			c13.4-13.2,28.4-24.9,43.3-36.6c12.4-9.8,25.3-19.1,38.5-27.7c19.7-12.9,40.9-23.2,62.6-32.5c25.5-11,51.7-19.6,78.7-26
			c15.6-3.7,31.7-5.6,47.5-8.4c32.9-5.8,66.2-3.8,99.3-3.7c13.7,0.1,27.4,3,41,5.1c14.7,2.3,29.5,4.5,43.9,8.1
			c15.8,3.9,31.5,8.8,46.9,14.3c24,8.5,47.3,18.8,69.2,32c17.1,10.3,34.3,20.5,50.8,31.7c10.5,7.1,19.8,16,29.6,24.2
			c7.7,6.5,15.7,12.9,22.8,20.1c9.4,9.5,18.5,19.5,27.1,29.7c10.7,12.7,21.5,25.3,30.9,38.9c11.8,17.2,22.9,35,33.1,53.2
			c7.3,13.2,13.4,27.2,18.7,41.3c7.1,18.9,13.4,38.1,19.1,57.5c3.9,13.3,6.8,27,9.3,40.7c1.9,10.4,3.6,21,3.5,31.5
			c-0.1,7.6,1.1,14.6,2.1,21.9c1.7,12.6-0.1,25.8-0.4,38.7c-0.1,3.3,0.2,6.5-0.1,9.8c-1,10.2-3,20.3-3.2,30.5
			c-0.2,6.8-2.8,13.2-2,20.3c0.6,4.9-1.6,10.1-2.6,15.1c-18,5.2-37.1,5.6-53.9,0.3c-10.3-3.3-3.6-19.5-4.3-29.8
			c-1.1-16.1,0.3-32.4-0.6-48.6c-2.1-4.8-5.8-2.9-9.2-2.2c-2.7,0.5-5.5,0.5-8.2,0c-3.4-1.3-6.8-1.1-10.1,0.1
			c-2.9,0.5-5.9,0.5-8.8-0.1c-6-1.8-12-1.3-18,0.4c-7.7,0.9-15.5,0.5-23.3,0.5c-28,0.1-56.1,0-84.1,0c-3.7,0-7.3,0.1-11-0.5
			c-5.8-1.8-11.6-2.1-17.4-0.2c-12.2,1-24.3,0.8-36.5,0.2c-2.1-0.4-4.3-0.7-6.4-0.3c-2.1,0.4-4.2,0.3-6.4,0.2
			c-3.6,0.4-7.1,0.6-10.6-0.7c-2.6-1.1-3.4-4.4-6.2-5.3c-8.8-4.7-17.7-9.2-26.5-13.8c-5.7-3-8.1-7-8.1-13.4
			c0-15.9,2.4-14.6-15.2-14.7c-10.2,0-20.4-0.2-30.5,0.1c-6.5,0.2-11.6-1.9-16.2-6.6c-7-7.1-13.1-14.9-20.5-21.8
			c-25.8-24.1-58.1-21-82,0.1c-7,6.2-12.8,13.6-19.1,20.4c-4.3,4.6-9.2,6.7-15.5,6.6c-11.5-0.3-23-0.2-34.4,0
			c-11.1,0.2-11.9,1-11.9,11.8c0,1.7-0.1,3.5,0,5.2c0.4,5.8-1.8,10-7.2,12.6c-11,5.2-20.4,13.1-31.5,18c-2.7,0.1-5.2,1.2-7.8,1.7
			c-17.2,1.1-34.5,0.4-51.7,0.5c-12.7,0.1-25.4,0.5-38.1-0.3c-1.9-0.2-3.9-0.5-5.8-0.4c-1.6,0-3.1-0.1-4.7-0.4
			c-5.8-1.5-11.6-0.7-17.4-0.8c-13.2-0.1-26.4,0-39.6-0.1c-2.8,0-5.6,0.3-8.3,1.1c-3.1,0.6-6.2,0.7-9.3,0.1c-3.7-1.5-7.4-0.9-11,0.2
			c-19.3,0.8-38.6,0.9-57.9,0c-0.8-0.3-1.5-0.6-2.1-1.3c-0.5-0.6-1.1-0.4-0.2-0.1c0.8,0.3-1,0.9-0.2,0.6c-0.2,1.2-0.4,2.5-0.7,3.7
			c-1.1,4.5-1,9,0.2,13.5c0.3,1.7,0.3,3.5,0,5.2c-1.3,3.2-0.3,6.3,0.5,9.4c0.7,10.7,0.9,21.3-0.1,32c-2.5,5.8,0.1,12.3-2.4,18.1
			c-2,2.4-4.8,2.7-7.6,2.8c-12.7,0.2-25.4,0.1-38,0C47.4,610.6,44.9,610.2,42.8,608.4z"/>
		<path fill="#1A2933" d="M962.9,683.4c-19.9,55.2-50.8,103.9-89.5,147.7C804.2,909.3,718.2,959,616.6,981.7
			c-54.5,12.2-109.2,12.7-164.8,5.8c-77.6-9.6-147.7-37.4-211-81.6C160.1,849.6,99.5,776.2,63.5,683.7c3.2-4.6,8.2-4.5,12.8-4.8
			c11.1-0.7,22.2-0.6,33,2.1c13,3.2,26.2,5.9,38.9,10.6c15,5.7,30.5,9.9,46.4,12.4c16.7,2.6,32.1-0.6,43.6-13.1
			c20.2-22,60.6-22.3,81.8-7.3c16.9,12,34.3,16.8,54.3,8.5c4.9-2,10.5-2.6,15.8-3.6c24-4.3,47.9-3.2,71.7,1.1c5.3,1,9.5,0.2,14-2.7
			c26.4-17.1,53-16.9,79.2,0.4c4.5,3,8.6,3.6,13.9,2.6c32.6-5.9,65.2-5.6,97.2,3.8c14.6,4.3,28.1,3.3,41.1-5c4.4-2.8,9-5.2,13.6-7.6
			c17.3-8.9,35.3-9.6,53.8-4.8c8,2.1,14.6,6.8,20.3,12.5c13.4,13.7,29.3,18.4,48.1,14.5c12.8-2.6,25.2-6.4,37.4-11.1
			c23.4-9,47.3-14.3,72.5-12.2C956.5,680.4,960.4,679.8,962.9,683.4z"/>
		<path fill="#F9F0CF" d="M352.6,523.5c15-12.8,43.8-14.4,37-45.2c0-0.2,3.6-1.9,5.4-1.7c35,4.6,60.5-9.4,86-33.7
			c21.9-20.7,54.1-17.9,73.2,6.5c21.8,27.8,48.1,29.7,78.1,27.4c2.1-0.2,4.3,0.8,6.5,1.3c-7.7,29.4,19.4,30.5,34.1,41.6
			c1.3,1.8,1.7,3.9,1.9,6c0.5,1.5,0.6,3,0.6,4.5c0,32.6,0,65.2,0,97.9c0,3,0,6.1-2,8.7c-2.9,2.7-6.5,1.9-9.9,1.9
			c-97.8,0-195.6,1.2-293.3-1.1c-15.6-0.4-30.6-16.6-47.7-21.7c-2.3-3-2.1-6.5-2.1-10c-0.1-11,0-22.1,0-33.1c0-2.4-0.1-4.8-0.2-7.1
			c-0.2-4.6-2.6-7.6-7.1-7.7c-4.6-0.1-7,2.9-7.2,7.5c-0.4,7.1,0,14.3-0.2,21.4c-0.2,6.9,1,13.9-1.1,20.7c-1.4,2.6-3.7,3.7-6.4,3.1
			c-7.7-1.7-15.3-3.8-22.7-6.7c-1.6-0.6-2.8-1.9-3.5-3.5c-1.9-8.8-0.5-17.7-0.9-26.5c-0.1-3,0.1-6.1-0.4-9.1c-0.7-4.2-3-6.8-7.4-6.7
			c-4.1,0.1-6.3,2.8-6.7,6.7c-0.8,6.5-0.2,13-0.4,19.5c-0.1,4.1,0.5,8.3-1.3,12.2c-8.2,4.7-16.3,9.4-26.4,6.5
			c-2-2.9-1.7-6.2-1.7-9.4c-0.1-9.3,0.1-18.6-0.1-27.9c-0.1-3.9-0.7-7.8-5.7-7.8c-4.6,0-7,3.2-7.3,7.6c-0.7,10.6-0.2,21.2-0.3,31.8
			c-0.1,3.9,0.4,7.8-1,11.6c-8.3,6.7-17.5,10.9-28.6,9.7c-5.7-17.1-1.1-34.7-2.6-52c-0.4-4.3-0.4-8.8-6.1-8.8
			c-5.8-0.1-7,4.1-7.1,8.9c-0.5,19.5,0.5,39-0.5,58.4c0.4,3.7,0.8,7.4-0.8,11c-0.4,0.8-1,1.4-1.8,1.8c-38.8,1.1-77.5,2.2-116.2-0.5
			c-1.9-9.6-3.7-19.3-5.6-28.9c17.4-0.5,34.8-1,52.3-1.6c1.1-5.6,0.2-11.3,0.6-16.9c0-11.3,0.1-22.6,0.1-33.8
			c-0.2-2.6-0.3-5.2,0-7.8c0-1.8,0-3.5,0-5.3c-0.3-4.8-0.3-9.5,0-14.3c0.1-1.3,0.3-2.7,0.4-4c0.4-0.3,0.8-0.4,1.3-0.4
			c20.8,0,41.7,0.1,62.5,0.1c3-0.4,6-0.4,9,0c3.1,0,6.2,0,9.2,0c22.5-0.4,45-0.4,67.6,0c1.3,0,2.7,0,4,0c0.8-0.3,1.7-0.3,2.5,0
			c31.3,0,62.5,0,93.8,0C348.2,523.6,350.7,525,352.6,523.5z"/>
		<path fill="#98C21E" d="M962.9,683.4c-20.1-2.1-40.1-2.4-59.7,3.9c-16.5,5.3-32.9,11-49.5,15.8c-10.6,3.1-21.4,5-32.6,3.1
			c-9.2-1.6-17.9-5.1-23.3-11.9c-19.5-24.4-60.2-23-83.9-6.9c-3.8,2.5-7.7,4.8-11.8,6.8c-10.2,5-21.1,6.2-32,3
			c-18.6-5.5-37.3-9.1-56.9-8.5c-16.4,0.5-32.9-0.6-48.9,4.5c-2.1,0.7-5.6-0.6-7.5-2.1c-13.4-10.5-28.5-14.9-45.4-14.2
			c-13,0.5-24.6,4.7-35,12.3c-4.4,3.2-8.3,4.5-14.2,2.9c-8.5-2.2-17.5-2.4-26.3-3.3c-25.7-2.5-50.7,1.5-75.3,9
			c-10.5,3.2-20.1,0.4-29.2-4.9c-10.6-6.2-20.6-14-33.2-15.9c-21.1-3.2-41.1-1.9-57.2,14.7c-15.4,15.9-34.5,18.1-54.7,13.3
			c-14.7-3.5-29-8.8-43.5-12.9c-19.9-5.6-39.7-12.4-60.8-11c-6.2,0.4-12.4,1.7-18.5,2.7c-4.9-15.3-9.7-30.5-14.6-45.8
			c2.3-1,4.7-0.5,7.1-0.5c36.2-0.1,72.3,0,108.5-0.1c3.5-1.7,7.4-0.9,11.1-1.6c3.3-0.3,6.7-0.4,10,0.1c13.2,0.7,26.4,0.3,39.6,0.2
			c30.1,0,60.1,0.3,90.2-0.2c4.5-0.5,9-0.3,13.4-0.2c3.1,0.5,6.3,0.6,9.5,0.1c3.2-0.3,6.4-0.3,9.5,0c2.9,0.6,5.7,0.2,8.6,0
			c4.1,1.6,8.4,1.6,12.7,1.6c98.6,0,197.2,0,295.7,0c2.6,0,5.2,0.3,7.8-0.2c3.1-1.4,6.4-1,9.6-1c40.3,0,80.6,0,120.9,0
			c2.6,0,5.2,0.1,7.8-0.2c10.2-0.7,20.4,0,30.6-0.4c0.9-0.1,1.7-0.4,2.2-1.3c1.1-5.8-2.7-10.3-3.8-15.5c-0.9-17.5-0.5-35-0.3-52.5
			c0-3.1,0.9-6,2.9-8.5c3.3-4.1,7.5-5.7,12.7-4.4c5.3,1.3,8.5,5.4,8.7,12.3c0.5,19.9,0.1,39.8,0.2,59.7c0,3-0.6,6.1,1.3,8.8
			c2.9,2.5,6.4,2.2,9.9,2.2c31.5,0,63,0,94.5,0c3,0,6.1-0.6,8.7,1.6c-4.1,13.6-8.1,27.3-12.3,40.9
			C965.5,680.4,964,681.8,962.9,683.4z"/>
		<path fill="#F9F0CF" d="M861.9,636.8c0-22.9-0.2-45.8-0.1-68.8c0-6.9-1-13.2-9.5-13.2c-8.1,0-10.6,5.6-10.4,13.1
			c0.3,17.7,0.2,35.4,0.3,53.2c-10.9,4.5-19.4-0.7-27.6-7c-2.4-14.4-0.4-28.9-1.1-43.3c-0.3-5.5,0.8-12.9-7.1-12.9
			c-8.2,0-7.2,7.4-7.6,13.2c-0.8,13.1,1.8,26.3-1.5,39.3c-9.6,2.5-17.6-1.1-25.3-6.2c-2.9-12.1-0.6-24.5-1.4-36.7
			c-0.3-4.7-0.5-9.8-6.7-9.8c-6.1,0-7.6,4.5-8,9.8c-0.7,10.1,1.1,20.3-1.1,30.3c-0.8,1.7-2.3,2.9-4,2.6c-7.1-1.4-14.3-1-21.4-2.5
			c-0.6-0.1-1-0.8-1.4-1.2c-2.8-6-1.2-12.3-1.5-18.5c-0.2-4.1,0-8.2-0.1-12.3c-0.1-4.1-1.1-7.3-5.7-8c-3.8-0.6-7.7,2.7-8.6,7.2
			c-0.7,4-0.3,8.2-0.5,12.3c-0.4,7.9,1.2,16-1.2,23.8c-3.3,4.3-8,5.6-12.7,4c-4.6-1.5-4.4-6.6-3.7-10.1c5.1-24-9.2-46.3-6-70
			c2.4-0.1,4.7-0.3,7.1-0.4c1.3-0.4,2.5-0.4,3.8,0c13.1,0,26.1,0,39.2,0c5.2-0.5,10.3-0.4,15.5,0c40.4,0,80.8,0,121.1,0
			c5.6-0.5,11.2-0.4,16.9,0c3.1,0,6.1,0,9.2,0c3-0.3,6.1-0.4,9.1,0c3,0,6.1,0,9.1,0c3.5-0.3,7-0.6,10.4,0.2
			c0.4,23.1,1.6,46.2,0.8,69.2c-0.4,11.2,2.5,14.2,13.5,13.3c14.2-1.1,28.6-0.3,42.9-0.3c-2.6,10.1-5.2,20.1-7.8,30.2
			C939.6,637.6,900.8,637.9,861.9,636.8z"/>
		<path fill="#93B845" d="M861.9,636.8c12.7,0.1,25.5,0.3,38.2,0.3c26.1,0,52.3-0.1,78.4-0.2c0.1,0.3,0,0.6-0.2,0.8
			c-21.4,0.1-42.9,0.2-64.3,0.3c-15.2,0-30.3,0.1-45.5,0C866.3,638,864.1,637.3,861.9,636.8z"/>
		<path fill="#93B845" d="M165.3,637.7c-38.8,0.1-77.6,0.1-116.4,0.2c-0.3-0.1-0.4-0.3-0.4-0.7c38.9-0.2,77.8-0.3,116.7-0.5l0.5,0.4
			C165.6,637.2,165.3,637.7,165.3,637.7z"/>
		<path fill="#F9F0CF" d="M117.2,302c8.5-16.8,21.4-26.2,41-26.1c2.5,0,5.3-6.4,7.4-10.1c11.5-20.1,29.1-31.2,51.7-29.2
			c23.2,2,40.3,14.3,48.4,37.8c3.5,10.2,13.6,4,20.4,4.3c16.5,0.8,28.7,7,35.8,22.3c0,0.5-0.1,1-0.2,1.6c-1.8,0.1-3.6,0.2-5.5,0.3
			c-1.4,0.2-2.7,0.3-4.1,0c-11.7,0-23.3,0.1-35,0.1c-5.2,0.2-10.5,0.2-15.7,0c-44.7,0-89.3,0-134-0.1
			C124.1,302.7,120.5,303.9,117.2,302z"/>
		<path fill="#93B845" d="M728.8,596.2c8.3,0.5,16.6,1,24.9,1.5c6.6,1.7,13.3,2.7,19.3,6.2c7.8,2.1,15.6,4.3,23.4,6.4
			c7-0.9,13.3,1.5,19.6,4.1c8.8,2.2,17.6,4.5,26.3,6.7c1.5,5.2,3,10.4,4.6,15.6c-0.1,0.5-0.4,0.8-0.9,0.9c-11.3,0-22.6,0.1-33.9,0.1
			c-45.9-0.9-91.8-0.1-137.6-0.4c-0.9,0.1-1.6-0.3-2-1.2c0.3-37.1,0.7-74.1,1-111.2c1-1.4,2.2-1.2,3.4-0.5c3.7,0.1,7.4,0.2,11.1,0.3
			c3.2,25.2,10.8,49.8,8.9,75.9c-0.4,5.8,8.3,1.4,12.7-0.6C715.7,598.1,722,595.8,728.8,596.2z"/>
		<path fill="#F9F0CF" d="M578.1,449.2c-11-7.7-22-15.4-33-23.1c0.9-4.5,4.8-3.6,7.7-3.7c4.1-0.2,5.7-2,5.7-6
			c-0.1-9.1,0.1-18.1-0.1-27.2c-0.1-3.6-1.3-6.4-5.2-7.1c-3.5-0.7-5.6,1.4-7.3,4.2c-1.7,2.9-2.2,6-2.2,9.3
			c-0.1,6.7,0.1,13.4-0.1,20.1c-0.1,2.7,0.2,5.7-2.4,7.7c-4.2-0.9-8.4-1.8-12.6-2.7c-4.7-6.7-2-14.3-2.4-21.5
			c-0.5-8.9-1.8-17.3-12.9-17.3c-11.3,0-12,8.8-12.6,17.5c-0.5,6.7,2.6,13.9-2.6,20c-4.2,1.3-8.3,2.6-12.5,3.9
			c-7.8-8.8-2.1-19.4-3.6-29c-0.8-5.3,0.2-12.2-7.5-11.9c-7.2,0.2-7.6,6.7-7.4,12.3c0.4,12.1-5.2,26.7,13,31.4
			c-6.3,4.3-12.8,8.4-18.8,13.1c-3,2.3-5.1,5.7-7.7,8.5c-0.8,0.8-2.1,1.2-3.2,1.9c-0.4-1.1-1.1-2.1-1.1-3.2
			c-0.1-26.2,0-52.5-0.1-78.7c0-3.3,1.4-3.9,4.3-3.9c24.1,0,48.1-0.2,72.2,0c17.5,0.1,35,0.8,52.5,1.3c0.6,26.4,0.4,52.7,0.1,79.1
			c0,1.4,0,2.9,0,4.3C578.3,448.6,578.3,448.9,578.1,449.2z"/>
		<path fill="#1A2933" d="M113.2,479.2c-8.3,0-16.7,0-25,0c-0.3,0-0.6,0-0.8,0l-0.1-0.1c-1.2-0.9-1.3-2-0.6-3.3
			c11.2-28.7,22.5-57.3,33.4-86c3-8.1,4.6-16.7,6.8-25.1c5,7.2,8.4,15.8,12.2,23c14.9,28.2,25,58.8,36.9,88.6c0.1,0.7,0,1.4-0.2,2
			c-4.4,0.3-8.8,0.6-13.3,0.9c-11.7,0.1-23.4,0.3-35-0.1c-2.6,0-5.3,0-7.9,0C117.5,479.3,115.4,479.3,113.2,479.2z"/>
		<path fill="#1A2933" d="M938.1,478.7c-27.9,0.1-55.9,0.2-83.8,0.4c-6.7,0-4.9-3.6-3.4-7.2c11.3-27.4,21.8-55.2,34.4-82
			c3.7-7.9,12.8-13.2,11.6-23.8c-0.1-0.4,0.7-1,1.1-1.4c0.4,0.5,1,1,1.2,1.6c13.1,37.2,26.2,74.3,39.4,111.5
			C938.8,478.3,938.7,478.6,938.1,478.7z"/>
		<path fill="#F9F0CF" d="M514.3,327c-18.6,0-37.3-0.1-55.9,0.1c-4.8,0.1-6.8-0.5-5.6-6.3c2.7-12.9,8.6-23.5,18.5-32.2
			c8-7,16.6-10.5,27.4-9.9c11.2,0.6,22.6,0.6,33.8,0c9.2-0.5,16.4,3.6,23,8.6c11.2,8.5,17.6,20.2,20.7,33.8c0.9,3.8,0.2,5.8-4.6,5.8
			c-19.1-0.3-38.2-0.1-57.3-0.1C514.3,326.9,514.3,327,514.3,327z"/>
		<path fill="#F9F0CF" d="M113.2,510.8c-5.2,0-10.5,0-15.7,0c-0.4,0.2-0.8,0.2-1.2-0.1c-1.3-5.9-3.8-11.9,1.3-17.4
			c0.4-0.2,0.8-0.3,1.2,0c80.7,0,161.4,0,242.1,0c3.4-0.6,6.9-0.7,10.3,0.1c3.7,2.6,11.5-4.3,11.6,3.5c0,2.5-9.6,5-14.7,7.7
			c-3.8,2.1-7.3,4.6-11,6.9c-1.7-0.9-3.7,0-5.4-0.8c-72,0-144.1,0-216.1,0C114.9,511.2,114.1,511.2,113.2,510.8z"/>
		<path fill="#F9F0CF" d="M711.9,510.8c-6.5,0-13.1,0-19.6,0c-0.8,0.5-1.7,0.5-2.5,0c-3.9,0.3-6.2-1.8-9.2-4.1
			c-5.5-4-12.1-6.5-18.2-9.7c-1.1-0.6-2.1-1.2-3.2-1.8c1.3-0.5,2.6-1.2,4-1.4c1.9-0.3,3.9-0.2,5.8-0.3c2.5-0.9,5.1-0.6,7.7-0.2
			c56.8,0,113.5,0.1,170.3,0.1c23.2,0,46.4,0.1,69.6-0.1c7.5-0.1,13.8-1.6,13.1,10.4c-0.7,12.2-8.6,6.7-13.1,6.7
			c-65.2,0.4-130.4,0.3-195.7,0.3C717.9,511.4,714.9,511.4,711.9,510.8z"/>
		<path fill="#F9F0CF" d="M663.9,478.1c-2.9,0.4-5.9,1.4-8.6,0.9c-1.4-0.2-2.8-3.2-3.2-5c-0.7-4.1,2.1-10.1-6.2-9.3
			c-0.4,0-1.7-3.1-1.6-4.7c0.4-9.6,1-19.1,1.5-28.7c0-0.4-0.5-1.2-0.9-1.3c-1-0.2-2.5,0.3-3.2-0.3c-2.2-1.7-4.2-3.8-6.3-5.7
			c2.4-1.1,4.8-3,7.2-3.1c18.2-0.3,36.4-0.2,54.6,0c1.8,0,4.6,1.2,5.2,2.6c1.4,3.2-1,5.4-4,5.8c-3.8,0.4-3.6,2.7-3.6,5.4
			c0,12.8-0.2,25.6,0.1,38.4c0.1,4.7-1.3,7-6.2,6.3c-4-0.5-8-0.9-12-1.4c-0.5-7.1,0.7-14.1,0.3-21.2c-0.1-2.4-0.1-4.7-0.1-7.1
			c-0.1-4.4-1.6-7.9-6.6-7.8c-4.7,0.2-6.7,3.5-6.9,7.9c-0.2,8-0.7,16,0.4,23.9C664.1,475.1,664.5,476.6,663.9,478.1z"/>
		<path fill="#F9F0CF" d="M512.3,217.3c14.9,1.3,26.3,6.4,26.4,24.1c0.1,16.8-9.2,26.3-25,26.8c-16.6,0.5-27.2-8.7-27.1-26.2
			C486.8,226,496.1,218.1,512.3,217.3z"/>
		<path fill="#F9F0CF" d="M767.9,479.1c-8.4,0-16.9,0.1-25.3,0c-10.2-0.1-20.5-0.4-30.7-0.7c9.1-4.9,19.2-8.6,27.1-14.9
			c33.7-26.8,57.6,3.5,84.8,13.9c0.4,0.2,0.6,0.9,1,1.3c-1,0.2-2,0.4-3,0.4C803.8,479.2,785.9,479.1,767.9,479.1z"/>
		<path fill="#F9F0CF" d="M260.3,479.1c-2.6,0-5.2,0-7.8,0c-16.2-0.1-32.4-0.2-48.5-0.3c0.4-0.4,0.7-1,1.1-1.2
			c17.7-9,35.5-17.9,53.2-26.9c6.3,2.4,12.9,4.4,19,7.4c13.2,6.6,26.2,13.7,39.3,20.6c-14.9,0.1-29.7,0.2-44.6,0.3
			C268.1,479.1,264.2,479.1,260.3,479.1C260.3,479.1,260.3,479.1,260.3,479.1z"/>
		<path fill="#F9F0CF" d="M382.4,432.5c-1,18.7,6.9,42.2-22.6,46.4c-47.4,6.9-21.7-28.8-26.7-46.7c1.9-1.8,4.3-1.7,6.7-1.7
			c12,0,24,0,36,0C378.2,430.6,380.6,430.5,382.4,432.5z"/>
		<path fill="#F9F0CF" d="M473.4,340.3c35.5,0,71,0,106.5,0c4.1,0,7.2-0.5,7.2,5.7c0,5.8-2.4,6-6.9,5.9
			c-44.4-0.5-88.8-0.8-133.2-1.4c-3.2,0-8.8,3-8.6-4.7c0.2-7.9,5.9-4,8.9-4.2c8.6-0.5,17.3-0.2,26-0.2
			C473.4,341,473.4,340.6,473.4,340.3z"/>
		<path fill="#F9F0CF" d="M516.9,176.9c14.3,3.6,24.3,19.5,17.8,26c-7.3,7.3-25.8,3.6-39.4,4.1c-1.5,0.1-4.5-3.6-4.5-5.6
			c0.1-12.2,2.9-22.9,17.9-24.3C511.4,175.8,514.1,174.9,516.9,176.9z"/>
		<path fill="#1A2933" d="M498,419.3c4.8-13.6-10.3-39.5,15.6-39c26.5,0.5,10,26.5,15,40.4C518.4,420.2,508.2,419.7,498,419.3z"/>
		<path fill="#1A2933" d="M516.9,176.9c-2.7,0.1-5.5,0.1-8.2,0.2c-0.9-16.1,9.1-33.5-6.6-47.9c-6.3-5.8-3.7-13.1,0.9-18.7
			c3.2-3.9,8.2-6.3,12.3-9.4c3.1,8.9,19.8,15.5,10.1,25.5C510.2,142.7,519.6,160.3,516.9,176.9z"/>
		<path fill="#F9F0CF" d="M673,381.3c12.7,3.8,20.6,16.2,14,24.2c-5.1,6.2-21.8,2.9-33.3,3.3c-1.4,0.1-3.8-2.9-4.2-4.7
			c-2.7-13.2,3.7-20.3,16.3-22.8C668.2,379.8,670.6,379.7,673,381.3z"/>
		<path fill="#F9F0CF" d="M360.5,381.5c13.5,2.5,14.6,12.7,14.1,23.5c-0.1,1.4-2.7,4-3.7,3.8c-11.2-2.1-26.4,6.9-32.8-4.2
			c-4.6-8,2.5-19.7,14.4-23.3C355.2,379.5,357.9,379.4,360.5,381.5z"/>
		<path fill="#1A2933" d="M480,425.9c-31.1-3.2-9-26.9-14.7-39.9c-0.2-0.5,7.3-6.2,11.4-6.4c5.2-0.2,7.4,4.5,7.5,10.1
			c0.1,11.2,0.8,22.3,1.3,33.4C483.6,424.1,481.8,425,480,425.9z"/>
		<path fill="#1A2933" d="M541.2,423.3c0.1-10-0.2-19.9,0.4-29.8c0.2-3.8,2-7.8,3.9-11.2c2-3.7,6-4.1,9.8-2.9
			c3.8,1.3,5.9,3.7,5.8,8.2c-0.2,10.8-0.2,21.6,0,32.5c0.1,3.7-1.1,4.8-4.7,4.8c-3.7-0.1-7.4,0.8-11.1,1.3
			C543.8,425.2,542.5,424.2,541.2,423.3z"/>
		<path fill="#1A2933" d="M663.9,478.1c-0.9-2.7-2.5-5.4-2.7-8.1c-0.4-6.9-0.1-13.8-0.2-20.7c0-6.5,3.4-10.3,9.6-10.4
			c6.3-0.1,9,3.9,8.8,10.2c-0.3,6.9,0.2,13.8-0.2,20.7c-0.1,2.8-1.6,5.4-2.4,8.2C672.5,478,668.2,478,663.9,478.1z"/>
		<path fill="#F9F0CF" d="M333.3,431.1c-3.1-2.3-6.1-4.6-9.2-7c3.9-1.1,7.9-3.1,11.8-3.2c14.7-0.4,29.4-0.4,44.1,0
			c3.5,0.1,9.1,1,10,3.1c2.6,6.5-4.6,4.9-7.5,7.1C366,432.3,349.6,432.3,333.3,431.1z"/>
		<path fill="#1A2933" d="M360.5,381.5c-2.7-0.1-5.4-0.2-8.1-0.2c0.1-1.9-0.1-3.9,0.2-5.8c1.3-8.9,2.8-17.8,4.2-26.7
			C358,359.7,359.3,370.6,360.5,381.5z"/>
		<path fill="#1A2933" d="M673,381.3c-2.4,0-4.8,0-7.2,0c0-0.2,0.1-0.4,0.1-0.6c1.3-10.6,2.6-21.2,4-31.7
			C670.9,359.7,672,370.5,673,381.3z"/>
		<path fill="#93B845" d="M578.2,443.9c0-26.4-0.1-52.7-0.1-79.1C578.1,391.2,578.1,417.5,578.2,443.9z"/>
		<path fill="#42A535" d="M127.6,479.1c8.8-0.4,17.5-0.9,26.3-1.1c2.9-0.1,5.8,0.7,8.8,1.1C150.9,479.2,139.2,479.1,127.6,479.1z"/>
		<path fill="#71A03C" d="M245.9,524.5c-22.5,0-45,0-67.6,0C200.8,524.5,223.3,524.5,245.9,524.5z"/>
		<path fill="#71A03C" d="M333.3,431.1c16.4,0,32.8,0,49.2,0c0,0.5,0,1,0,1.4c-16.4-0.1-32.9-0.2-49.3-0.2
			C333.1,431.9,333.1,431.5,333.3,431.1z"/>
		<path fill="#71A03C" d="M891.4,524.4c-5.6,0-11.2,0-16.9,0C880.1,524.5,885.8,524.4,891.4,524.4z"/>
		<path fill="#71A03C" d="M95.7,589.9c-0.2,5.6-0.4,11.3-0.6,16.9C95.3,601.2,95.5,595.5,95.7,589.9z"/>
		<path fill="#71A03C" d="M261.5,302.8c5.2,0,10.5,0,15.7,0C272,302.8,266.7,302.8,261.5,302.8z"/>
		<path fill="#71A03C" d="M753.4,524.4c-5.2,0-10.3,0-15.5,0C743.1,524.5,748.2,524.4,753.4,524.4z"/>
		<path fill="#71A03C" d="M95.8,528.8c0,4.8,0,9.5,0,14.3C95.8,538.3,95.8,533.5,95.8,528.8z"/>
		<path fill="#42A535" d="M113.2,479.2c2.1,0,4.3,0,6.4,0C117.5,479.2,115.4,479.2,113.2,479.2z"/>
		<path fill="#71A03C" d="M676.8,524.6c-1.1,0.2-2.3,0.3-3.4,0.5c-0.1-1.8-0.3-3.6-0.4-5.4C674.2,521.3,675.5,523,676.8,524.6z"/>
		<path fill="#71A03C" d="M929.2,524.6c-3.5-0.1-6.9-0.1-10.4-0.2C922.2,524.5,925.7,524.6,929.2,524.6z"/>
		<path fill="#71A03C" d="M117.2,302c3.4,0.3,6.9,0.5,10.3,0.8C124.1,302.5,120.7,302.3,117.2,302z"/>
		<path fill="#71A03C" d="M351.3,493.5c-3.4,0-6.9-0.1-10.3-0.1C344.4,493.4,347.8,493.4,351.3,493.5z"/>
		<path fill="#71A03C" d="M909.6,524.5c-3,0-6.1,0-9.1,0C903.6,524.4,906.6,524.4,909.6,524.5z"/>
		<path fill="#71A03C" d="M169.1,524.5c-3,0-6,0-9,0C163.1,524.4,166.1,524.4,169.1,524.5z"/>
		<path fill="#71A03C" d="M711.9,510.8c3,0,6,0,9,0C717.9,510.8,714.9,510.8,711.9,510.8z"/>
		<path fill="#42A535" d="M86.7,475.8c0.2,1.1,0.4,2.2,0.6,3.3c-0.8-0.4-1.6-0.9-2.4-1.3C85.5,477,86.1,476.4,86.7,475.8z"/>
		<path fill="#71A03C" d="M95.8,548.3c0,2.6,0,5.2,0,7.8C95.8,553.5,95.8,550.9,95.8,548.3z"/>
		<path fill="#71A03C" d="M676.6,493.3c-2.6,0.1-5.1,0.1-7.7,0.2C671.5,493.4,674.1,493.4,676.6,493.3z"/>
		<path fill="#71A03C" d="M352.6,523.5c-2.1,0.3-4.3,0.7-6.4,1C348.3,524.2,350.5,523.8,352.6,523.5z"/>
		<path fill="#71A03C" d="M331.8,510.8c1.8,0.3,3.6,0.5,5.4,0.8C335.4,511.3,333.6,511.1,331.8,510.8z"/>
		<path fill="#71A03C" d="M698.7,524.5c-1.3,0-2.5,0-3.8,0C696.2,524.5,697.5,524.5,698.7,524.5z"/>
		<path fill="#71A03C" d="M312.2,302.7c1.4,0,2.7,0,4.1,0C314.9,302.8,313.6,302.7,312.2,302.7z"/>
		<path fill="#71A03C" d="M252.4,524.5c-0.8,0-1.7,0-2.5,0C250.7,524.5,251.5,524.5,252.4,524.5z"/>
		<path fill="#71A03C" d="M689.7,510.8c0.8,0,1.7,0,2.5,0C691.4,510.8,690.6,510.8,689.7,510.8z"/>
		<path fill="#71A03C" d="M113.2,510.8c0.8,0,1.6,0,2.5,0C114.9,510.8,114.1,510.8,113.2,510.8z"/>
		<path fill="#93B845" d="M578.1,449.2c-0.3-0.4-0.3-0.7,0-1c0.1,0.3,0.2,0.5,0.3,0.8C578.4,449,578.2,449.2,578.1,449.2z"/>
		<path fill="#42A535" d="M175.9,478.2c0.1-0.7,0.2-1.3,0.2-2C176,476.9,175.9,477.6,175.9,478.2z"/>
		<path fill="#71A03C" d="M97.6,524.3c-0.4,0.1-0.9,0.3-1.3,0.4C96.7,524.6,97.1,524.5,97.6,524.3z"/>
		<path fill="#42A535" d="M938.1,478.7c0.1-0.4,0.2-0.7,0.4-1c0.1,0.3,0.1,0.7,0.2,1C938.5,478.7,938.3,478.7,938.1,478.7z"/>
		<path fill="#42A535" d="M87.4,479.2c0.3,0,0.6,0,0.8,0c-0.1,0.3-0.3,0.5-0.4,0.8C87.7,479.7,87.5,479.4,87.4,479.2z"/>
		<path fill="#71A03C" d="M98.8,493.4l-0.6,0.2c0,0-0.6-0.2-0.6-0.2C98,493.4,98.4,493.4,98.8,493.4z"/>
		<path fill="#71A03C" d="M96.3,510.7c0.4-0.2,0.8-0.2,1.2,0.1C97.1,510.8,96.7,510.8,96.3,510.7z"/>
		<path fill="#71A03C" d="M321.7,302.5c0.1-0.5,0.1-1,0.2-1.6C321.9,301.4,321.8,301.9,321.7,302.5z"/>
		<path fill="#98C21E" d="M498.4,608c-15.8-0.5-31.6-1-47.4-1.4c0-24.9-0.7-49.8,0.4-74.7c1.4-32.7,31.1-68.3,56.8-68.2
			c35.9,0.2,66.3,32.1,67,71c0.4,22.5,0.3,45.1,0,67.6c0,2-3.3,5.6-5.2,5.6c-13.8,0.4-27.7,0.1-41.6,0.1c-1.3-1.1-1.9-2.5-2.2-4.1
			c-0.6-4.3-0.5-8.6,0.1-12.9c-0.2-23.1,0.6-46.3-0.4-69.4c-0.3-8.2-3.2-14-12-13.3c-8.5,0.6-12.6,6.1-13.1,14.8
			C499.3,551.3,504.1,579.8,498.4,608z"/>
		<path fill="#93B845" d="M329.2,637.8c-4.4,0-8.7,0-13.1,0c-43.8-0.7-87.6-0.6-131.4,0c-3.1,0-6.2,0-9.2-0.1
			c-3.2-1.4-7.4,1.7-10.1-2.2c-0.1-3.5-0.2-7-0.3-10.5c5.7-4.6,12.1-7.4,19.7-6.8c8.7-3,17.4-6,26.1-9c5.5-3.9,11.7-5.7,18.2-6.5
			c8.2-2.1,16.4-4.2,24.5-6.2c6.8-0.4,13.1,1.8,19.4,3.9c10,2.6,20,5.2,30,7.9c6.7,1.7,13.7,2.7,19.8,6.4
			c34.8,16.8,70.2,25.1,110,23.5c77.4-3.1,155-0.9,232.5-1c2.3,0,4.7-0.6,7-0.8c0.2,0.2,0.4,0.5,0.6,0.7c0,0.3-0.1,0.6-0.1,0.9
			c-105.9,0-211.8,0-317.7,0c-2.6-0.5-5.1-0.7-7.7,0.1c-3.1,0-6.1,0-9.2,0C335.3,637.1,332.3,637.2,329.2,637.8z"/>
		<path fill="#1A2933" d="M380.1,607c-0.1-15.6-0.2-31.1-0.2-46.7c0-8,6.7-14.6,14.2-14.7c7.8-0.1,14.1,6.1,14.2,14.6
			c0.2,14.7-0.1,29.4-0.1,44.1c-0.2,0.4-0.2,0.8,0,1.2c-1.5,0.9-3.1,2.4-4.6,2.5c-7.5,0.2-15,0-22.5,0
			C380.8,607.6,380.4,607.3,380.1,607z"/>
		<path fill="#1A2933" d="M646.7,580.6c0,7.2-0.2,14.3,0.1,21.4c0.1,4.4-1.1,6.4-5.9,6.2c-5.8-0.3-11.7-0.2-17.5,0
			c-3.9,0.1-5.4-1.4-5.4-5.3c0.1-14.3-0.1-28.6,0.1-42.9c0.1-7.3,7.6-14.3,14.9-14.3c7.7,0,13.6,6,13.7,14.2c0,3.5,0,6.9,0,10.4
			C646.7,573.7,646.7,577.2,646.7,580.6z"/>
		<path fill="#1A2933" d="M528.2,604.2c0.1,1.2,0.2,2.5,0.2,3.7c-10,0-20.1,0-30.1,0c0.1-29,0.3-57.9,0-86.9
			c-0.1-7.9,4.8-12.1,10.3-15c4.7-2.5,10.9-2,15,2.4c2.3,2.5,4.5,6.2,4.5,9.4c0.3,24.4,0.1,48.9,0,73.3c-6.4,0.5-4.5-4.7-4.6-7.6
			c-0.4-16.9-0.1-33.8-0.3-50.6c-0.1-5.9-3.1-7.3-8.4-6.6c-6.1,0.7-4.6,4.5-3.8,8.1c3.6,15.1-2.5,29.6-3.8,44.2
			C505.7,597,510.1,604.7,528.2,604.2z"/>
		<path fill="#15642E" d="M184.8,618.2c-6.6,2.3-13.1,4.5-19.7,6.8c0-19.9,0-39.9-0.1-59.8c0-6.6,2.9-10.4,9.6-10.4
			c6.9-0.1,8.9,3.9,8.9,10.6C183.7,583,184.4,600.6,184.8,618.2z"/>
		<path fill="#15642E" d="M322.8,614.6c-6.6-2.1-13.2-4.3-19.8-6.4c0-14.5,0.2-28.9,0.1-43.4c0-6.9,4-9.9,10-9.9
			c6,0,9.5,3.4,9.5,9.8C322.7,581.3,322.8,597.9,322.8,614.6z"/>
		<path fill="#15642E" d="M229.2,602.7c-6.1,2.2-12.2,4.4-18.2,6.5c0-14.5-0.1-29-0.1-43.4c0-6.7,3.2-10.8,10-10.9
			c6.5-0.1,8.6,3.8,8.4,10.2C228.8,577.6,229.1,590.1,229.2,602.7z"/>
		<path fill="#15642E" d="M273,600.3c-6.5-1.3-12.9-2.6-19.4-3.9c0-10.2,0-20.4,0.1-30.5c0-6.8,4-11.1,9.8-11.1
			c6,0.1,9.6,4.1,9.6,11.1C273.3,577.4,273.1,588.8,273,600.3z"/>
		<path fill="#15642E" d="M142.1,575c-1.6,8.3,5.1,20.2-11.7,19.2c-7.5-0.4-8.1-3.9-6.6-8.6c3.1-10.3-9.2-27.5,9.2-30.2
			C147.5,553.4,139.2,568.5,142.1,575z"/>
		<path fill="#93B845" d="M451.4,531.8c-0.1,24.9-0.2,49.8-0.4,74.7c-0.2-12.9-0.5-25.8-0.5-38.6
			C450.6,555.9,451.1,543.8,451.4,531.8z"/>
		<path fill="#42A535" d="M165.4,635.5c3.4,0.7,6.8,1.5,10.1,2.2c-3.4,0-6.9,0-10.3,0c0-0.3-0.1-0.6-0.1-0.9
			C165.2,636.4,165.3,635.9,165.4,635.5z"/>
		<path fill="#93B845" d="M408.2,605.4c-0.1-0.3-0.3-0.5-0.3-0.8c0-0.1,0.2-0.2,0.3-0.4C408.5,604.7,408.5,605.1,408.2,605.4z"/>
		<path fill="#93B845" d="M380.1,607c0.3,0.3,0.7,0.6,1,0.9C380.8,607.6,380.5,607.3,380.1,607z"/>
		<path fill="#42A535" d="M672.8,637.8c0-0.3,0-0.6,0.1-0.9c46.3,0.3,92.7,0.6,139,0.9C765.6,637.8,719.2,637.8,672.8,637.8z"/>
		<path fill="#42A535" d="M184.8,637.8c43.8,0,87.6,0,131.4,0c-24.3,0.1-48.6,0.3-72.8,0.3C223.8,638.1,204.3,637.9,184.8,637.8z"/>
		<path fill="#42A535" d="M329.2,637.8c3,0,6,0,9,0C335.3,637.8,332.3,637.8,329.2,637.8z"/>
		<path fill="#42A535" d="M347.5,637.8c2.6,0,5.1-0.1,7.7-0.1C352.6,637.8,350,637.8,347.5,637.8z"/>
		<path fill="#42A535" d="M845.8,637.7c0.3-0.3,0.6-0.6,0.9-0.9C846.5,637,846.1,637.4,845.8,637.7z"/>
		<path fill="#15642E" d="M815.9,614.5c-6.5-1.4-13-2.7-19.6-4.1c0-14.5,0.1-28.9,0-43.4c-0.1-7,2.4-12.1,10-12.2
			c8-0.1,9.6,5.6,9.6,12.3C815.8,583,815.9,598.7,815.9,614.5z"/>
		<path fill="#15642E" d="M773,604c-6.4-2.1-12.8-4.2-19.3-6.2c-0.1-11-0.3-22.1-0.2-33.1c0.1-5.7,5-10,10.5-9.9
			c5.8,0.1,8.9,3.6,8.9,10.3C773,578,773,591,773,604z"/>
		<path fill="#15642E" d="M728.8,596.2c-6.5,1.3-12.9,2.7-19.4,4c-0.1-11.7-0.2-23.4-0.2-35.1c0-5.1,4.7-9.9,9.7-10.4
			c5.9-0.6,9.8,3.1,9.8,9C728.8,574.6,728.8,585.4,728.8,596.2z"/>
		<path fill="#15642E" d="M902.3,575.2c-2.8,6.9,5.7,21.2-10.9,18.3c-17.1-2.9-4.6-17.1-7.5-25.8c-2.1-6.4,1.3-13.4,9.4-12.8
			C908,556.1,899.2,568.4,902.3,575.2z"/>
		<path fill="#1A2933" d="M347.4,459.3c0-3.7-0.1-7.4,0-11c0.1-5.4,4.2-9.6,9.1-9.6c5.5,0,9,3.4,9.1,9.5c0.2,7.6-0.1,15.1,0.1,22.7
			c0.1,3-0.3,5-4,4.8c-1-0.1-2,0.9-3,1c-9.8,1.6-11.3,0.4-11.3-9.6C347.4,464.5,347.4,461.9,347.4,459.3z"/>
		<path fill="#1A2933" d="M528.2,604.2c-9-2.3-25.8,9.6-23.8-13c1-11.2,2-22.3,2.9-33.5c0.6-7.6,1.1-15.2,1.6-22.8
			c0.2-3.2-0.9-8.5,0.6-9.3c3.6-2,8.5-3.1,12.4-2.2c1.9,0.4,3.5,6,3.7,9.4c1.1,19.5,1.8,39,2.7,58.5
			C528.2,595.6,528.2,599.9,528.2,604.2z"/>
	</g>
</g>
</svg>
