<svg width="855" height="2196" viewBox="0 0 855 2196" fill="none" xmlns="http://www.w3.org/2000/svg">
<path fill-rule="evenodd" clip-rule="evenodd" d="M338.432 217.963C658.226 132.458 882.934 -56.4834 1020.35 16.9021C1184.34 104.481 1209.07 480.499 1282.47 679.142C1355.94 877.986 1222.95 1098.3 1159.39 1302.14C1108.39 1465.7 1036.01 1608.79 949.128 1748.22C856.21 1897.34 775.948 2068.83 634.955 2143.75C486.231 2222.77 319.265 2193.99 158.326 2168.42C-28.2061 2138.78 -273.029 2177.09 -373.283 1983.56C-477.515 1782.36 -315.678 1527.57 -296.23 1290.96C-282.396 1122.66 -308.61 958.748 -275.541 794.456C-236.202 599.016 -315.568 441.734 -180.935 324.722C-46.0238 207.468 130.109 273.664 338.432 217.963Z" fill="#1A2933"/>
</svg>
