<svg width="320" height="1450" viewBox="0 0 320 1450" fill="none" xmlns="http://www.w3.org/2000/svg">
<path fill-rule="evenodd" clip-rule="evenodd" d="M-27.5 117.711C216 117.71 432.71 -41.0344 538.5 11.2194C664.75 73.5793 702.919 228.632 759.423 370.075C815.984 511.66 713.602 668.539 664.674 813.676C625.412 930.142 569.687 1032.03 502.798 1131.31C431.265 1237.48 369.474 1359.6 260.929 1412.94C146.432 1469.21 17.8923 1448.71 -106.008 1430.51C-249.612 1409.4 -438.091 1436.68 -515.273 1298.88C-595.517 1155.62 -470.925 974.194 -455.952 805.719C-445.302 685.881 -465.483 569.167 -440.025 452.184C-409.74 313.021 -470.84 201.029 -367.192 117.711C-263.329 34.2211 -192.939 117.712 -27.5 117.711Z" fill="#1A2933"/>
</svg>
