<svg width="768" height="1452" viewBox="0 0 768 1452" fill="none" xmlns="http://www.w3.org/2000/svg">
<path fill-rule="evenodd" clip-rule="evenodd" d="M147.383 117.289C473.651 117.288 764.023 -41.7848 905.772 10.5772C1074.94 73.0662 1126.08 228.44 1201.79 370.175C1277.58 512.054 1140.39 669.258 1074.83 814.695C1022.23 931.402 947.559 1033.5 857.935 1132.99C762.086 1239.38 679.292 1361.75 533.852 1415.2C380.437 1471.59 208.205 1451.05 42.1895 1432.8C-150.227 1411.66 -402.772 1438.99 -506.188 1300.91C-613.708 1157.34 -446.766 975.545 -426.704 806.722C-412.434 686.635 -439.475 569.68 -405.363 452.454C-364.784 313.004 -446.652 200.78 -307.773 117.289C-168.606 33.6265 -74.29 117.29 147.383 117.289Z" fill="#1A2933"/>
</svg>
