<svg width="1280" height="2368" viewBox="0 0 1280 2368" fill="none" xmlns="http://www.w3.org/2000/svg">
<path fill-rule="evenodd" clip-rule="evenodd" d="M855.524 107.614C455.595 17.5676 185.846 -27.8836 13.9983 49.3998C-191.086 141.63 -233.285 384.095 -325.072 593.289C-416.952 802.694 -250.639 1034.72 -171.159 1249.37C-107.379 1421.63 -16.8581 1572.32 91.7969 1719.15C207.999 1876.19 308.373 2056.79 484.697 2135.69C670.689 2218.91 879.494 2188.59 1080.76 2161.67C1314.04 2130.46 1620.21 2170.8 1745.58 1967C1875.93 1755.1 1673.54 1486.78 1649.22 1237.61C1631.92 1060.36 1664.7 887.746 1623.35 714.728C1574.15 508.907 1673.41 343.271 1505.04 220.043C1336.32 96.5615 1116.05 166.274 855.524 107.614Z" fill="#1A2933"/>
</svg>
