<svg width="855" height="3781" viewBox="0 0 855 3781" fill="none" xmlns="http://www.w3.org/2000/svg">
<path fill-rule="evenodd" clip-rule="evenodd" d="M29.3601 160.36C685.013 12.432 1127.24 -62.235 1408.97 64.7257C1745.19 216.241 1814.38 614.562 1964.85 958.223C2115.48 1302.23 1842.83 1683.4 1712.53 2036.04C1607.96 2319.01 1459.56 2566.57 1281.43 2807.79C1090.93 3065.76 467.699 3405.14 178.629 3534.75C-126.29 3671.46 -193.123 3670.76 -523.085 3626.53C-905.52 3575.26 -1224.28 3549.75 -1429.82 3214.94C-1643.52 2866.85 -1311.72 2426.05 -1271.84 2016.7C-1243.48 1725.53 -1297.23 1441.96 -1229.43 1157.72C-1148.77 819.601 -1311.49 547.495 -1035.46 345.058C-758.864 142.203 -397.752 256.725 29.3601 160.36Z" fill="#1A2933"/>
</svg>
