<svg width="1280" height="2017" viewBox="0 0 1280 2017" fill="none" xmlns="http://www.w3.org/2000/svg">
<g clip-path="url(#clip0_1759_2594)">
<path fill-rule="evenodd" clip-rule="evenodd" d="M523.732 208.575C922.914 130.822 1203.41 -40.9898 1374.93 25.7425C1579.63 105.381 1610.51 447.31 1702.12 627.943C1793.83 808.76 1627.83 1009.1 1548.5 1194.46C1484.84 1343.19 1394.48 1473.31 1286.03 1600.1C1170.05 1735.69 1069.86 1891.64 893.866 1959.77C708.222 2031.63 499.807 2005.45 298.916 1982.2C66.0768 1955.25 -239.523 1990.09 -364.665 1814.11C-494.772 1631.14 -292.76 1399.45 -268.483 1184.29C-251.215 1031.25 -283.936 882.2 -242.658 732.803C-193.554 555.081 -292.622 412.059 -124.566 305.655C43.8359 199.031 263.693 259.226 523.732 208.575Z" fill="#1A2933"/>
</g>
<defs>
<clipPath id="clip0_1759_2594">
<rect width="1280" height="2016" fill="white" transform="translate(0 0.664062)"/>
</clipPath>
</defs>
</svg>
