<svg width="1280" height="1997" viewBox="0 0 1280 1997" fill="none" xmlns="http://www.w3.org/2000/svg">
<path fill-rule="evenodd" clip-rule="evenodd" d="M523.732 198.575C922.914 120.822 1203.41 -50.9898 1374.93 15.7425C1579.63 95.3811 1610.51 437.31 1702.12 617.943C1793.83 798.76 1627.83 999.105 1548.5 1184.46C1484.84 1333.19 1394.48 1463.31 1286.03 1590.1C1170.05 1725.69 1069.86 1881.64 893.866 1949.77C708.222 2021.63 499.807 1995.45 298.916 1972.2C66.0768 1945.25 -239.523 1980.09 -364.665 1804.11C-494.772 1621.14 -292.76 1389.45 -268.483 1174.29C-251.215 1021.25 -283.936 872.2 -242.658 722.803C-193.554 545.081 -292.622 402.059 -124.566 295.655C43.8359 189.031 263.693 249.226 523.732 198.575Z" fill="#1A2933"/>
</svg>
