<svg width="411" height="1377" viewBox="0 0 411 1377" fill="none" xmlns="http://www.w3.org/2000/svg">
<path fill-rule="evenodd" clip-rule="evenodd" d="M8.02313 111.231C268.335 111.23 500.008 -39.6265 613.102 10.0308C748.069 69.2921 788.873 216.641 849.279 351.055C909.745 485.605 800.294 634.689 747.988 772.614C706.014 883.293 646.442 980.118 574.936 1074.46C498.463 1175.36 432.406 1291.41 316.366 1342.1C193.965 1395.58 56.5495 1376.1 -75.9055 1358.79C-229.424 1338.74 -430.917 1364.66 -513.428 1233.71C-599.212 1097.56 -466.018 925.155 -450.011 765.052C-438.626 651.169 -460.2 540.254 -432.984 429.084C-400.608 296.836 -465.927 190.409 -355.122 111.231C-244.089 31.8896 -168.838 111.232 8.02313 111.231Z" fill="#1A2933"/>
</svg>

