<svg width="1540" height="2802" viewBox="0 0 1540 2802" fill="none" xmlns="http://www.w3.org/2000/svg">
<path fill-rule="evenodd" clip-rule="evenodd" d="M953.076 125.466C484.406 9.7268 168.293 -48.6926 -33.093 50.6414C-273.428 169.187 -322.88 480.833 -430.443 749.713C-538.116 1018.87 -343.217 1317.09 -250.076 1592.99C-175.333 1814.39 -69.2532 2008.08 58.0779 2196.81C194.253 2398.65 311.88 2630.79 518.511 2732.19C736.471 2839.16 981.166 2800.19 1217.03 2765.58C1490.4 2725.47 1849.2 2777.32 1996.12 2515.37C2148.88 2243.02 1911.7 1898.14 1883.2 1577.87C1862.92 1350.06 1901.34 1128.19 1852.88 905.802C1795.22 641.255 1911.54 428.36 1714.23 269.973C1516.51 111.259 1258.38 200.862 953.076 125.466Z" fill="#1A2933"/>
</svg>
