<svg width="620" height="4164" viewBox="0 0 620 4154" fill="none" xmlns="http://www.w3.org/2000/svg">
<path fill-rule="evenodd" clip-rule="evenodd" d="M-61.3119 191.833C537.929 14.8719 942.11 -74.4494 1199.6 77.429C1506.89 258.682 1570.12 735.178 1707.65 1146.29C1845.32 1557.81 1596.13 2013.79 1477.03 2435.64C1381.47 2774.15 1253.76 3499.3 1090.96 3787.86C916.844 4096.47 251.914 3988 -12.2847 4143.05C-290.968 4306.6 -264.652 4391.2 -566.225 4338.28C-915.755 4276.95 -1207.09 4246.44 -1394.95 3845.92C-1590.26 3429.51 -1287 2902.19 -1250.56 2412.51C-1224.64 2064.19 -1273.76 1724.96 -1211.79 1384.94C-1138.08 980.459 -1286.8 654.948 -1034.52 412.78C-781.717 170.112 -451.675 307.111 -61.3119 191.833Z" fill="#1A2933"/>
</svg>
