<svg width="855" height="4360" viewBox="0 0 855 4360" fill="none" xmlns="http://www.w3.org/2000/svg">
<path fill-rule="evenodd" clip-rule="evenodd" d="M52.484 192.06C700.478 14.8895 1137.54 -74.5374 1415.98 77.5206C1748.28 258.987 1816.65 736.047 1965.37 1147.64C2114.24 1559.66 1844.77 2016.17 1715.99 2438.52C1612.65 2777.43 1474.55 3503.44 1298.5 3792.34C1110.22 4101.31 391.193 3992.72 105.5 4147.95C-195.857 4311.69 -167.4 4396.39 -493.508 4343.41C-871.476 4282 -1186.51 4251.46 -1389.65 3850.46C-1600.86 3433.56 -1272.93 2905.62 -1233.52 2415.36C-1205.49 2066.63 -1258.61 1727 -1191.6 1386.58C-1111.89 981.618 -1272.71 655.723 -999.901 413.268C-726.533 170.313 -369.639 307.474 52.484 192.06Z" fill="#1A2933"/>
</svg>
