<svg width="320" height="4041" viewBox="0 0 320 4041" fill="none" xmlns="http://www.w3.org/2000/svg">
<path fill-rule="evenodd" clip-rule="evenodd" d="M-90.7079 177.393C534.497 13.7524 956.191 -68.8452 1224.84 71.6005C1545.45 239.209 1611.41 679.837 1754.9 1060C1898.54 1440.55 1638.54 1862.2 1514.29 2252.29C1414.59 2565.33 1273.08 2839.17 1103.22 3106.02C921.561 3391.39 327.275 3766.81 51.629 3910.19C-239.13 4061.42 -302.859 4060.65 -617.498 4011.72C-982.173 3955 -1286.13 3926.78 -1482.13 3556.41C-1685.9 3171.35 -1369.51 2683.73 -1331.49 2230.91C-1304.44 1908.81 -1355.69 1595.11 -1291.04 1280.69C-1214.13 906.654 -1369.29 605.647 -1106.08 381.708C-842.328 157.307 -497.985 283.993 -90.7079 177.393Z" fill="#1A2933"/>
</svg>
